<?xml version="1.0" encoding="utf-8" standalone="no"?>
<!DOCTYPE svg PUBLIC "-//W3C//DTD SVG 1.1//EN"
  "http://www.w3.org/Graphics/SVG/1.1/DTD/svg11.dtd">
<svg xmlns:xlink="http://www.w3.org/1999/xlink" width="615.735937pt" height="276.657188pt" viewBox="0 0 615.735937 276.657188" xmlns="http://www.w3.org/2000/svg" version="1.1">
 <metadata>
  <rdf:RDF xmlns:dc="http://purl.org/dc/elements/1.1/" xmlns:cc="http://creativecommons.org/ns#" xmlns:rdf="http://www.w3.org/1999/02/22-rdf-syntax-ns#">
   <cc:Work>
    <dc:type rdf:resource="http://purl.org/dc/dcmitype/StillImage"/>
    <dc:date>2025-05-12T16:56:36.070174</dc:date>
    <dc:format>image/svg+xml</dc:format>
    <dc:creator>
     <cc:Agent>
      <dc:title>Matplotlib v3.10.0, https://matplotlib.org/</dc:title>
     </cc:Agent>
    </dc:creator>
   </cc:Work>
  </rdf:RDF>
 </metadata>
 <defs>
  <style type="text/css">*{stroke-linejoin: round; stroke-linecap: butt}</style>
 </defs>
 <g id="figure_1">
  <g id="patch_1">
   <path d="M -0 276.657188 
L 615.735937 276.657188 
L 615.735937 0 
L -0 0 
z
" style="fill: #ffffff"/>
  </g>
  <g id="axes_1">
   <g id="patch_2">
    <path d="M 43.585938 243.549375 
L 601.585938 243.549375 
L 601.585938 21.789375 
L 43.585938 21.789375 
z
" style="fill: #ffffff"/>
   </g>
   <g id="matplotlib.axis_1">
    <g id="xtick_1">
     <g id="line2d_1">
      <path d="M 43.585938 243.549375 
L 43.585938 21.789375 
" clip-path="url(#pbe159c44a1)" style="fill: none; stroke: #cccccc; stroke-width: 0.8; stroke-linecap: round"/>
     </g>
     <g id="line2d_2"/>
     <g id="text_1">
      <!-- 0.0 -->
      <g style="fill: #262626" transform="translate(36.635937 254.207188) scale(0.1 -0.1)">
       <defs>
        <path id="ArialMT-30" d="M 266 2259 
Q 266 3072 433 3567 
Q 600 4063 929 4331 
Q 1259 4600 1759 4600 
Q 2128 4600 2406 4451 
Q 2684 4303 2865 4023 
Q 3047 3744 3150 3342 
Q 3253 2941 3253 2259 
Q 3253 1453 3087 958 
Q 2922 463 2592 192 
Q 2263 -78 1759 -78 
Q 1097 -78 719 397 
Q 266 969 266 2259 
z
M 844 2259 
Q 844 1131 1108 757 
Q 1372 384 1759 384 
Q 2147 384 2411 759 
Q 2675 1134 2675 2259 
Q 2675 3391 2411 3762 
Q 2147 4134 1753 4134 
Q 1366 4134 1134 3806 
Q 844 3388 844 2259 
z
" transform="scale(0.015625)"/>
        <path id="ArialMT-2e" d="M 581 0 
L 581 641 
L 1222 641 
L 1222 0 
L 581 0 
z
" transform="scale(0.015625)"/>
       </defs>
       <use xlink:href="#ArialMT-30"/>
       <use xlink:href="#ArialMT-2e" transform="translate(55.615234 0)"/>
       <use xlink:href="#ArialMT-30" transform="translate(83.398438 0)"/>
      </g>
     </g>
    </g>
    <g id="xtick_2">
     <g id="line2d_3">
      <path d="M 155.185938 243.549375 
L 155.185938 21.789375 
" clip-path="url(#pbe159c44a1)" style="fill: none; stroke: #cccccc; stroke-width: 0.8; stroke-linecap: round"/>
     </g>
     <g id="line2d_4"/>
     <g id="text_2">
      <!-- 0.2 -->
      <g style="fill: #262626" transform="translate(148.235938 254.207188) scale(0.1 -0.1)">
       <defs>
        <path id="ArialMT-32" d="M 3222 541 
L 3222 0 
L 194 0 
Q 188 203 259 391 
Q 375 700 629 1000 
Q 884 1300 1366 1694 
Q 2113 2306 2375 2664 
Q 2638 3022 2638 3341 
Q 2638 3675 2398 3904 
Q 2159 4134 1775 4134 
Q 1369 4134 1125 3890 
Q 881 3647 878 3216 
L 300 3275 
Q 359 3922 746 4261 
Q 1134 4600 1788 4600 
Q 2447 4600 2831 4234 
Q 3216 3869 3216 3328 
Q 3216 3053 3103 2787 
Q 2991 2522 2730 2228 
Q 2469 1934 1863 1422 
Q 1356 997 1212 845 
Q 1069 694 975 541 
L 3222 541 
z
" transform="scale(0.015625)"/>
       </defs>
       <use xlink:href="#ArialMT-30"/>
       <use xlink:href="#ArialMT-2e" transform="translate(55.615234 0)"/>
       <use xlink:href="#ArialMT-32" transform="translate(83.398438 0)"/>
      </g>
     </g>
    </g>
    <g id="xtick_3">
     <g id="line2d_5">
      <path d="M 266.785938 243.549375 
L 266.785938 21.789375 
" clip-path="url(#pbe159c44a1)" style="fill: none; stroke: #cccccc; stroke-width: 0.8; stroke-linecap: round"/>
     </g>
     <g id="line2d_6"/>
     <g id="text_3">
      <!-- 0.4 -->
      <g style="fill: #262626" transform="translate(259.835938 254.207188) scale(0.1 -0.1)">
       <defs>
        <path id="ArialMT-34" d="M 2069 0 
L 2069 1097 
L 81 1097 
L 81 1613 
L 2172 4581 
L 2631 4581 
L 2631 1613 
L 3250 1613 
L 3250 1097 
L 2631 1097 
L 2631 0 
L 2069 0 
z
M 2069 1613 
L 2069 3678 
L 634 1613 
L 2069 1613 
z
" transform="scale(0.015625)"/>
       </defs>
       <use xlink:href="#ArialMT-30"/>
       <use xlink:href="#ArialMT-2e" transform="translate(55.615234 0)"/>
       <use xlink:href="#ArialMT-34" transform="translate(83.398438 0)"/>
      </g>
     </g>
    </g>
    <g id="xtick_4">
     <g id="line2d_7">
      <path d="M 378.385938 243.549375 
L 378.385938 21.789375 
" clip-path="url(#pbe159c44a1)" style="fill: none; stroke: #cccccc; stroke-width: 0.8; stroke-linecap: round"/>
     </g>
     <g id="line2d_8"/>
     <g id="text_4">
      <!-- 0.6 -->
      <g style="fill: #262626" transform="translate(371.435938 254.207188) scale(0.1 -0.1)">
       <defs>
        <path id="ArialMT-36" d="M 3184 3459 
L 2625 3416 
Q 2550 3747 2413 3897 
Q 2184 4138 1850 4138 
Q 1581 4138 1378 3988 
Q 1113 3794 959 3422 
Q 806 3050 800 2363 
Q 1003 2672 1297 2822 
Q 1591 2972 1913 2972 
Q 2475 2972 2870 2558 
Q 3266 2144 3266 1488 
Q 3266 1056 3080 686 
Q 2894 316 2569 119 
Q 2244 -78 1831 -78 
Q 1128 -78 684 439 
Q 241 956 241 2144 
Q 241 3472 731 4075 
Q 1159 4600 1884 4600 
Q 2425 4600 2770 4297 
Q 3116 3994 3184 3459 
z
M 888 1484 
Q 888 1194 1011 928 
Q 1134 663 1356 523 
Q 1578 384 1822 384 
Q 2178 384 2434 671 
Q 2691 959 2691 1453 
Q 2691 1928 2437 2201 
Q 2184 2475 1800 2475 
Q 1419 2475 1153 2201 
Q 888 1928 888 1484 
z
" transform="scale(0.015625)"/>
       </defs>
       <use xlink:href="#ArialMT-30"/>
       <use xlink:href="#ArialMT-2e" transform="translate(55.615234 0)"/>
       <use xlink:href="#ArialMT-36" transform="translate(83.398438 0)"/>
      </g>
     </g>
    </g>
    <g id="xtick_5">
     <g id="line2d_9">
      <path d="M 489.985938 243.549375 
L 489.985938 21.789375 
" clip-path="url(#pbe159c44a1)" style="fill: none; stroke: #cccccc; stroke-width: 0.8; stroke-linecap: round"/>
     </g>
     <g id="line2d_10"/>
     <g id="text_5">
      <!-- 0.8 -->
      <g style="fill: #262626" transform="translate(483.035938 254.207188) scale(0.1 -0.1)">
       <defs>
        <path id="ArialMT-38" d="M 1131 2484 
Q 781 2613 612 2850 
Q 444 3088 444 3419 
Q 444 3919 803 4259 
Q 1163 4600 1759 4600 
Q 2359 4600 2725 4251 
Q 3091 3903 3091 3403 
Q 3091 3084 2923 2848 
Q 2756 2613 2416 2484 
Q 2838 2347 3058 2040 
Q 3278 1734 3278 1309 
Q 3278 722 2862 322 
Q 2447 -78 1769 -78 
Q 1091 -78 675 323 
Q 259 725 259 1325 
Q 259 1772 486 2073 
Q 713 2375 1131 2484 
z
M 1019 3438 
Q 1019 3113 1228 2906 
Q 1438 2700 1772 2700 
Q 2097 2700 2305 2904 
Q 2513 3109 2513 3406 
Q 2513 3716 2298 3927 
Q 2084 4138 1766 4138 
Q 1444 4138 1231 3931 
Q 1019 3725 1019 3438 
z
M 838 1322 
Q 838 1081 952 856 
Q 1066 631 1291 507 
Q 1516 384 1775 384 
Q 2178 384 2440 643 
Q 2703 903 2703 1303 
Q 2703 1709 2433 1975 
Q 2163 2241 1756 2241 
Q 1359 2241 1098 1978 
Q 838 1716 838 1322 
z
" transform="scale(0.015625)"/>
       </defs>
       <use xlink:href="#ArialMT-30"/>
       <use xlink:href="#ArialMT-2e" transform="translate(55.615234 0)"/>
       <use xlink:href="#ArialMT-38" transform="translate(83.398438 0)"/>
      </g>
     </g>
    </g>
    <g id="xtick_6">
     <g id="line2d_11">
      <path d="M 601.585938 243.549375 
L 601.585938 21.789375 
" clip-path="url(#pbe159c44a1)" style="fill: none; stroke: #cccccc; stroke-width: 0.8; stroke-linecap: round"/>
     </g>
     <g id="line2d_12"/>
     <g id="text_6">
      <!-- 1.0 -->
      <g style="fill: #262626" transform="translate(594.635937 254.207188) scale(0.1 -0.1)">
       <defs>
        <path id="ArialMT-31" d="M 2384 0 
L 1822 0 
L 1822 3584 
Q 1619 3391 1289 3197 
Q 959 3003 697 2906 
L 697 3450 
Q 1169 3672 1522 3987 
Q 1875 4303 2022 4600 
L 2384 4600 
L 2384 0 
z
" transform="scale(0.015625)"/>
       </defs>
       <use xlink:href="#ArialMT-31"/>
       <use xlink:href="#ArialMT-2e" transform="translate(55.615234 0)"/>
       <use xlink:href="#ArialMT-30" transform="translate(83.398438 0)"/>
      </g>
     </g>
    </g>
    <g id="text_7">
     <!-- whaling-harm-prob -->
     <g style="fill: #262626" transform="translate(280.904688 267.3525) scale(0.1 -0.1)">
      <defs>
       <path id="ArialMT-77" d="M 1034 0 
L 19 3319 
L 600 3319 
L 1128 1403 
L 1325 691 
Q 1338 744 1497 1375 
L 2025 3319 
L 2603 3319 
L 3100 1394 
L 3266 759 
L 3456 1400 
L 4025 3319 
L 4572 3319 
L 3534 0 
L 2950 0 
L 2422 1988 
L 2294 2553 
L 1622 0 
L 1034 0 
z
" transform="scale(0.015625)"/>
       <path id="ArialMT-68" d="M 422 0 
L 422 4581 
L 984 4581 
L 984 2938 
Q 1378 3394 1978 3394 
Q 2347 3394 2619 3248 
Q 2891 3103 3008 2847 
Q 3125 2591 3125 2103 
L 3125 0 
L 2563 0 
L 2563 2103 
Q 2563 2525 2380 2717 
Q 2197 2909 1863 2909 
Q 1613 2909 1392 2779 
Q 1172 2650 1078 2428 
Q 984 2206 984 1816 
L 984 0 
L 422 0 
z
" transform="scale(0.015625)"/>
       <path id="ArialMT-61" d="M 2588 409 
Q 2275 144 1986 34 
Q 1697 -75 1366 -75 
Q 819 -75 525 192 
Q 231 459 231 875 
Q 231 1119 342 1320 
Q 453 1522 633 1644 
Q 813 1766 1038 1828 
Q 1203 1872 1538 1913 
Q 2219 1994 2541 2106 
Q 2544 2222 2544 2253 
Q 2544 2597 2384 2738 
Q 2169 2928 1744 2928 
Q 1347 2928 1158 2789 
Q 969 2650 878 2297 
L 328 2372 
Q 403 2725 575 2942 
Q 747 3159 1072 3276 
Q 1397 3394 1825 3394 
Q 2250 3394 2515 3294 
Q 2781 3194 2906 3042 
Q 3031 2891 3081 2659 
Q 3109 2516 3109 2141 
L 3109 1391 
Q 3109 606 3145 398 
Q 3181 191 3288 0 
L 2700 0 
Q 2613 175 2588 409 
z
M 2541 1666 
Q 2234 1541 1622 1453 
Q 1275 1403 1131 1340 
Q 988 1278 909 1158 
Q 831 1038 831 891 
Q 831 666 1001 516 
Q 1172 366 1500 366 
Q 1825 366 2078 508 
Q 2331 650 2450 897 
Q 2541 1088 2541 1459 
L 2541 1666 
z
" transform="scale(0.015625)"/>
       <path id="ArialMT-6c" d="M 409 0 
L 409 4581 
L 972 4581 
L 972 0 
L 409 0 
z
" transform="scale(0.015625)"/>
       <path id="ArialMT-69" d="M 425 3934 
L 425 4581 
L 988 4581 
L 988 3934 
L 425 3934 
z
M 425 0 
L 425 3319 
L 988 3319 
L 988 0 
L 425 0 
z
" transform="scale(0.015625)"/>
       <path id="ArialMT-6e" d="M 422 0 
L 422 3319 
L 928 3319 
L 928 2847 
Q 1294 3394 1984 3394 
Q 2284 3394 2536 3286 
Q 2788 3178 2913 3003 
Q 3038 2828 3088 2588 
Q 3119 2431 3119 2041 
L 3119 0 
L 2556 0 
L 2556 2019 
Q 2556 2363 2490 2533 
Q 2425 2703 2258 2804 
Q 2091 2906 1866 2906 
Q 1506 2906 1245 2678 
Q 984 2450 984 1813 
L 984 0 
L 422 0 
z
" transform="scale(0.015625)"/>
       <path id="ArialMT-67" d="M 319 -275 
L 866 -356 
Q 900 -609 1056 -725 
Q 1266 -881 1628 -881 
Q 2019 -881 2231 -725 
Q 2444 -569 2519 -288 
Q 2563 -116 2559 434 
Q 2191 0 1641 0 
Q 956 0 581 494 
Q 206 988 206 1678 
Q 206 2153 378 2554 
Q 550 2956 876 3175 
Q 1203 3394 1644 3394 
Q 2231 3394 2613 2919 
L 2613 3319 
L 3131 3319 
L 3131 450 
Q 3131 -325 2973 -648 
Q 2816 -972 2473 -1159 
Q 2131 -1347 1631 -1347 
Q 1038 -1347 672 -1080 
Q 306 -813 319 -275 
z
M 784 1719 
Q 784 1066 1043 766 
Q 1303 466 1694 466 
Q 2081 466 2343 764 
Q 2606 1063 2606 1700 
Q 2606 2309 2336 2618 
Q 2066 2928 1684 2928 
Q 1309 2928 1046 2623 
Q 784 2319 784 1719 
z
" transform="scale(0.015625)"/>
       <path id="ArialMT-2d" d="M 203 1375 
L 203 1941 
L 1931 1941 
L 1931 1375 
L 203 1375 
z
" transform="scale(0.015625)"/>
       <path id="ArialMT-72" d="M 416 0 
L 416 3319 
L 922 3319 
L 922 2816 
Q 1116 3169 1280 3281 
Q 1444 3394 1641 3394 
Q 1925 3394 2219 3213 
L 2025 2691 
Q 1819 2813 1613 2813 
Q 1428 2813 1281 2702 
Q 1134 2591 1072 2394 
Q 978 2094 978 1738 
L 978 0 
L 416 0 
z
" transform="scale(0.015625)"/>
       <path id="ArialMT-6d" d="M 422 0 
L 422 3319 
L 925 3319 
L 925 2853 
Q 1081 3097 1340 3245 
Q 1600 3394 1931 3394 
Q 2300 3394 2536 3241 
Q 2772 3088 2869 2813 
Q 3263 3394 3894 3394 
Q 4388 3394 4653 3120 
Q 4919 2847 4919 2278 
L 4919 0 
L 4359 0 
L 4359 2091 
Q 4359 2428 4304 2576 
Q 4250 2725 4106 2815 
Q 3963 2906 3769 2906 
Q 3419 2906 3187 2673 
Q 2956 2441 2956 1928 
L 2956 0 
L 2394 0 
L 2394 2156 
Q 2394 2531 2256 2718 
Q 2119 2906 1806 2906 
Q 1569 2906 1367 2781 
Q 1166 2656 1075 2415 
Q 984 2175 984 1722 
L 984 0 
L 422 0 
z
" transform="scale(0.015625)"/>
       <path id="ArialMT-70" d="M 422 -1272 
L 422 3319 
L 934 3319 
L 934 2888 
Q 1116 3141 1344 3267 
Q 1572 3394 1897 3394 
Q 2322 3394 2647 3175 
Q 2972 2956 3137 2557 
Q 3303 2159 3303 1684 
Q 3303 1175 3120 767 
Q 2938 359 2589 142 
Q 2241 -75 1856 -75 
Q 1575 -75 1351 44 
Q 1128 163 984 344 
L 984 -1272 
L 422 -1272 
z
M 931 1641 
Q 931 1000 1190 694 
Q 1450 388 1819 388 
Q 2194 388 2461 705 
Q 2728 1022 2728 1688 
Q 2728 2322 2467 2637 
Q 2206 2953 1844 2953 
Q 1484 2953 1207 2617 
Q 931 2281 931 1641 
z
" transform="scale(0.015625)"/>
       <path id="ArialMT-6f" d="M 213 1659 
Q 213 2581 725 3025 
Q 1153 3394 1769 3394 
Q 2453 3394 2887 2945 
Q 3322 2497 3322 1706 
Q 3322 1066 3130 698 
Q 2938 331 2570 128 
Q 2203 -75 1769 -75 
Q 1072 -75 642 372 
Q 213 819 213 1659 
z
M 791 1659 
Q 791 1022 1069 705 
Q 1347 388 1769 388 
Q 2188 388 2466 706 
Q 2744 1025 2744 1678 
Q 2744 2294 2464 2611 
Q 2184 2928 1769 2928 
Q 1347 2928 1069 2612 
Q 791 2297 791 1659 
z
" transform="scale(0.015625)"/>
       <path id="ArialMT-62" d="M 941 0 
L 419 0 
L 419 4581 
L 981 4581 
L 981 2947 
Q 1338 3394 1891 3394 
Q 2197 3394 2470 3270 
Q 2744 3147 2920 2923 
Q 3097 2700 3197 2384 
Q 3297 2069 3297 1709 
Q 3297 856 2875 390 
Q 2453 -75 1863 -75 
Q 1275 -75 941 416 
L 941 0 
z
M 934 1684 
Q 934 1088 1097 822 
Q 1363 388 1816 388 
Q 2184 388 2453 708 
Q 2722 1028 2722 1663 
Q 2722 2313 2464 2622 
Q 2206 2931 1841 2931 
Q 1472 2931 1203 2611 
Q 934 2291 934 1684 
z
" transform="scale(0.015625)"/>
      </defs>
      <use xlink:href="#ArialMT-77"/>
      <use xlink:href="#ArialMT-68" transform="translate(72.216797 0)"/>
      <use xlink:href="#ArialMT-61" transform="translate(127.832031 0)"/>
      <use xlink:href="#ArialMT-6c" transform="translate(183.447266 0)"/>
      <use xlink:href="#ArialMT-69" transform="translate(205.664062 0)"/>
      <use xlink:href="#ArialMT-6e" transform="translate(227.880859 0)"/>
      <use xlink:href="#ArialMT-67" transform="translate(283.496094 0)"/>
      <use xlink:href="#ArialMT-2d" transform="translate(339.111328 0)"/>
      <use xlink:href="#ArialMT-68" transform="translate(372.412109 0)"/>
      <use xlink:href="#ArialMT-61" transform="translate(428.027344 0)"/>
      <use xlink:href="#ArialMT-72" transform="translate(483.642578 0)"/>
      <use xlink:href="#ArialMT-6d" transform="translate(516.943359 0)"/>
      <use xlink:href="#ArialMT-2d" transform="translate(600.244141 0)"/>
      <use xlink:href="#ArialMT-70" transform="translate(633.544922 0)"/>
      <use xlink:href="#ArialMT-72" transform="translate(689.160156 0)"/>
      <use xlink:href="#ArialMT-6f" transform="translate(722.460938 0)"/>
      <use xlink:href="#ArialMT-62" transform="translate(778.076172 0)"/>
     </g>
    </g>
   </g>
   <g id="matplotlib.axis_2">
    <g id="ytick_1">
     <g id="line2d_13">
      <path d="M 43.585938 243.549375 
L 601.585938 243.549375 
" clip-path="url(#pbe159c44a1)" style="fill: none; stroke: #cccccc; stroke-width: 0.8; stroke-linecap: round"/>
     </g>
     <g id="line2d_14"/>
     <g id="text_8">
      <!-- −0.4 -->
      <g style="fill: #262626" transform="translate(20.345312 247.128281) scale(0.1 -0.1)">
       <defs>
        <path id="ArialMT-2212" d="M 3381 1997 
L 356 1997 
L 356 2522 
L 3381 2522 
L 3381 1997 
z
" transform="scale(0.015625)"/>
       </defs>
       <use xlink:href="#ArialMT-2212"/>
       <use xlink:href="#ArialMT-30" transform="translate(58.398438 0)"/>
       <use xlink:href="#ArialMT-2e" transform="translate(114.013672 0)"/>
       <use xlink:href="#ArialMT-34" transform="translate(141.796875 0)"/>
      </g>
     </g>
    </g>
    <g id="ytick_2">
     <g id="line2d_15">
      <path d="M 43.585938 211.869375 
L 601.585938 211.869375 
" clip-path="url(#pbe159c44a1)" style="fill: none; stroke: #cccccc; stroke-width: 0.8; stroke-linecap: round"/>
     </g>
     <g id="line2d_16"/>
     <g id="text_9">
      <!-- −0.3 -->
      <g style="fill: #262626" transform="translate(20.345312 215.448281) scale(0.1 -0.1)">
       <defs>
        <path id="ArialMT-33" d="M 269 1209 
L 831 1284 
Q 928 806 1161 595 
Q 1394 384 1728 384 
Q 2125 384 2398 659 
Q 2672 934 2672 1341 
Q 2672 1728 2419 1979 
Q 2166 2231 1775 2231 
Q 1616 2231 1378 2169 
L 1441 2663 
Q 1497 2656 1531 2656 
Q 1891 2656 2178 2843 
Q 2466 3031 2466 3422 
Q 2466 3731 2256 3934 
Q 2047 4138 1716 4138 
Q 1388 4138 1169 3931 
Q 950 3725 888 3313 
L 325 3413 
Q 428 3978 793 4289 
Q 1159 4600 1703 4600 
Q 2078 4600 2393 4439 
Q 2709 4278 2876 4000 
Q 3044 3722 3044 3409 
Q 3044 3113 2884 2869 
Q 2725 2625 2413 2481 
Q 2819 2388 3044 2092 
Q 3269 1797 3269 1353 
Q 3269 753 2831 336 
Q 2394 -81 1725 -81 
Q 1122 -81 723 278 
Q 325 638 269 1209 
z
" transform="scale(0.015625)"/>
       </defs>
       <use xlink:href="#ArialMT-2212"/>
       <use xlink:href="#ArialMT-30" transform="translate(58.398438 0)"/>
       <use xlink:href="#ArialMT-2e" transform="translate(114.013672 0)"/>
       <use xlink:href="#ArialMT-33" transform="translate(141.796875 0)"/>
      </g>
     </g>
    </g>
    <g id="ytick_3">
     <g id="line2d_17">
      <path d="M 43.585938 180.189375 
L 601.585938 180.189375 
" clip-path="url(#pbe159c44a1)" style="fill: none; stroke: #cccccc; stroke-width: 0.8; stroke-linecap: round"/>
     </g>
     <g id="line2d_18"/>
     <g id="text_10">
      <!-- −0.2 -->
      <g style="fill: #262626" transform="translate(20.345312 183.768281) scale(0.1 -0.1)">
       <use xlink:href="#ArialMT-2212"/>
       <use xlink:href="#ArialMT-30" transform="translate(58.398438 0)"/>
       <use xlink:href="#ArialMT-2e" transform="translate(114.013672 0)"/>
       <use xlink:href="#ArialMT-32" transform="translate(141.796875 0)"/>
      </g>
     </g>
    </g>
    <g id="ytick_4">
     <g id="line2d_19">
      <path d="M 43.585938 148.509375 
L 601.585938 148.509375 
" clip-path="url(#pbe159c44a1)" style="fill: none; stroke: #cccccc; stroke-width: 0.8; stroke-linecap: round"/>
     </g>
     <g id="line2d_20"/>
     <g id="text_11">
      <!-- −0.1 -->
      <g style="fill: #262626" transform="translate(20.345312 152.088281) scale(0.1 -0.1)">
       <use xlink:href="#ArialMT-2212"/>
       <use xlink:href="#ArialMT-30" transform="translate(58.398438 0)"/>
       <use xlink:href="#ArialMT-2e" transform="translate(114.013672 0)"/>
       <use xlink:href="#ArialMT-31" transform="translate(141.796875 0)"/>
      </g>
     </g>
    </g>
    <g id="ytick_5">
     <g id="line2d_21">
      <path d="M 43.585938 116.829375 
L 601.585938 116.829375 
" clip-path="url(#pbe159c44a1)" style="fill: none; stroke: #cccccc; stroke-width: 0.8; stroke-linecap: round"/>
     </g>
     <g id="line2d_22"/>
     <g id="text_12">
      <!-- 0.0 -->
      <g style="fill: #262626" transform="translate(26.185938 120.408281) scale(0.1 -0.1)">
       <use xlink:href="#ArialMT-30"/>
       <use xlink:href="#ArialMT-2e" transform="translate(55.615234 0)"/>
       <use xlink:href="#ArialMT-30" transform="translate(83.398438 0)"/>
      </g>
     </g>
    </g>
    <g id="ytick_6">
     <g id="line2d_23">
      <path d="M 43.585938 85.149375 
L 601.585938 85.149375 
" clip-path="url(#pbe159c44a1)" style="fill: none; stroke: #cccccc; stroke-width: 0.8; stroke-linecap: round"/>
     </g>
     <g id="line2d_24"/>
     <g id="text_13">
      <!-- 0.1 -->
      <g style="fill: #262626" transform="translate(26.185938 88.728281) scale(0.1 -0.1)">
       <use xlink:href="#ArialMT-30"/>
       <use xlink:href="#ArialMT-2e" transform="translate(55.615234 0)"/>
       <use xlink:href="#ArialMT-31" transform="translate(83.398438 0)"/>
      </g>
     </g>
    </g>
    <g id="ytick_7">
     <g id="line2d_25">
      <path d="M 43.585938 53.469375 
L 601.585938 53.469375 
" clip-path="url(#pbe159c44a1)" style="fill: none; stroke: #cccccc; stroke-width: 0.8; stroke-linecap: round"/>
     </g>
     <g id="line2d_26"/>
     <g id="text_14">
      <!-- 0.2 -->
      <g style="fill: #262626" transform="translate(26.185938 57.048281) scale(0.1 -0.1)">
       <use xlink:href="#ArialMT-30"/>
       <use xlink:href="#ArialMT-2e" transform="translate(55.615234 0)"/>
       <use xlink:href="#ArialMT-32" transform="translate(83.398438 0)"/>
      </g>
     </g>
    </g>
    <g id="ytick_8">
     <g id="line2d_27">
      <path d="M 43.585938 21.789375 
L 601.585938 21.789375 
" clip-path="url(#pbe159c44a1)" style="fill: none; stroke: #cccccc; stroke-width: 0.8; stroke-linecap: round"/>
     </g>
     <g id="line2d_28"/>
     <g id="text_15">
      <!-- 0.3 -->
      <g style="fill: #262626" transform="translate(26.185938 25.368281) scale(0.1 -0.1)">
       <use xlink:href="#ArialMT-30"/>
       <use xlink:href="#ArialMT-2e" transform="translate(55.615234 0)"/>
       <use xlink:href="#ArialMT-33" transform="translate(83.398438 0)"/>
      </g>
     </g>
    </g>
    <g id="text_16">
     <!-- score -->
     <g style="fill: #262626" transform="translate(14.357812 144.895156) rotate(-90) scale(0.1 -0.1)">
      <defs>
       <path id="ArialMT-73" d="M 197 991 
L 753 1078 
Q 800 744 1014 566 
Q 1228 388 1613 388 
Q 2000 388 2187 545 
Q 2375 703 2375 916 
Q 2375 1106 2209 1216 
Q 2094 1291 1634 1406 
Q 1016 1563 777 1677 
Q 538 1791 414 1992 
Q 291 2194 291 2438 
Q 291 2659 392 2848 
Q 494 3038 669 3163 
Q 800 3259 1026 3326 
Q 1253 3394 1513 3394 
Q 1903 3394 2198 3281 
Q 2494 3169 2634 2976 
Q 2775 2784 2828 2463 
L 2278 2388 
Q 2241 2644 2061 2787 
Q 1881 2931 1553 2931 
Q 1166 2931 1000 2803 
Q 834 2675 834 2503 
Q 834 2394 903 2306 
Q 972 2216 1119 2156 
Q 1203 2125 1616 2013 
Q 2213 1853 2448 1751 
Q 2684 1650 2818 1456 
Q 2953 1263 2953 975 
Q 2953 694 2789 445 
Q 2625 197 2315 61 
Q 2006 -75 1616 -75 
Q 969 -75 630 194 
Q 291 463 197 991 
z
" transform="scale(0.015625)"/>
       <path id="ArialMT-63" d="M 2588 1216 
L 3141 1144 
Q 3050 572 2676 248 
Q 2303 -75 1759 -75 
Q 1078 -75 664 370 
Q 250 816 250 1647 
Q 250 2184 428 2587 
Q 606 2991 970 3192 
Q 1334 3394 1763 3394 
Q 2303 3394 2647 3120 
Q 2991 2847 3088 2344 
L 2541 2259 
Q 2463 2594 2264 2762 
Q 2066 2931 1784 2931 
Q 1359 2931 1093 2626 
Q 828 2322 828 1663 
Q 828 994 1084 691 
Q 1341 388 1753 388 
Q 2084 388 2306 591 
Q 2528 794 2588 1216 
z
" transform="scale(0.015625)"/>
       <path id="ArialMT-65" d="M 2694 1069 
L 3275 997 
Q 3138 488 2766 206 
Q 2394 -75 1816 -75 
Q 1088 -75 661 373 
Q 234 822 234 1631 
Q 234 2469 665 2931 
Q 1097 3394 1784 3394 
Q 2450 3394 2872 2941 
Q 3294 2488 3294 1666 
Q 3294 1616 3291 1516 
L 816 1516 
Q 847 969 1125 678 
Q 1403 388 1819 388 
Q 2128 388 2347 550 
Q 2566 713 2694 1069 
z
M 847 1978 
L 2700 1978 
Q 2663 2397 2488 2606 
Q 2219 2931 1791 2931 
Q 1403 2931 1139 2672 
Q 875 2413 847 1978 
z
" transform="scale(0.015625)"/>
      </defs>
      <use xlink:href="#ArialMT-73"/>
      <use xlink:href="#ArialMT-63" transform="translate(50 0)"/>
      <use xlink:href="#ArialMT-6f" transform="translate(100 0)"/>
      <use xlink:href="#ArialMT-72" transform="translate(155.615234 0)"/>
      <use xlink:href="#ArialMT-65" transform="translate(188.916016 0)"/>
     </g>
    </g>
   </g>
   <g id="FillBetweenPolyCollection_1">
    <defs>
     <path id="m1056b1a55d" d="M 44.077949 -245.252321 
L 44.077949 -229.340109 
L 44.668654 -231.646858 
L 45.186801 -233.978242 
L 45.825493 -235.692052 
L 46.438806 -236.349046 
L 47.068137 -236.491669 
L 47.716307 -236.679376 
L 48.004198 -236.833976 
L 48.405997 -236.709799 
L 48.961728 -236.295929 
L 49.518015 -235.88309 
L 50.345495 -235.823174 
L 51.043724 -235.337193 
L 51.410295 -234.998748 
L 51.856701 -234.708455 
L 52.573961 -234.63596 
L 53.047734 -234.475686 
L 53.484555 -234.204473 
L 54.218999 -234.044281 
L 54.905236 -233.915116 
L 55.298291 -233.827244 
L 55.835747 -233.778381 
L 56.543926 -233.558265 
L 56.918995 -233.42916 
L 57.575772 -233.216831 
L 58.12625 -233.129269 
L 58.542214 -233.082644 
L 59.282328 -232.846666 
L 59.82593 -232.798406 
L 60.321739 -232.731413 
L 60.863565 -232.626334 
L 61.500599 -232.371125 
L 62.148473 -232.318743 
L 62.639363 -232.356533 
L 63.209617 -232.313714 
L 63.640429 -232.264172 
L 63.996308 -232.296018 
L 64.631183 -232.173677 
L 65.360241 -232.151758 
L 65.977979 -232.01473 
L 66.478413 -231.806584 
L 67.078941 -231.697458 
L 67.664047 -231.46872 
L 68.066576 -231.334968 
L 68.686239 -231.265016 
L 69.24161 -231.203068 
L 69.85995 -231.063814 
L 70.505847 -230.9137 
L 71.043375 -230.730132 
L 71.626694 -230.512618 
L 72.129773 -230.424786 
L 72.560446 -230.420664 
L 72.948059 -230.233375 
L 73.617256 -230.181909 
L 74.220203 -230.07679 
L 74.688504 -229.932394 
L 75.259026 -229.737464 
L 75.831218 -229.636465 
L 76.394233 -229.559454 
L 76.992698 -229.42727 
L 77.705885 -229.166908 
L 78.377407 -229.168498 
L 78.928576 -229.089919 
L 79.502036 -228.989206 
L 80.040936 -228.883314 
L 80.448703 -228.802984 
L 80.93593 -228.755964 
L 81.448423 -228.624116 
L 81.976373 -228.394131 
L 82.730585 -228.354672 
L 83.292279 -228.309278 
L 83.677171 -228.156412 
L 84.395192 -227.984811 
L 85.065399 -227.876848 
L 85.59722 -227.761382 
L 85.971131 -227.595614 
L 86.356441 -227.497979 
L 87.06728 -227.232422 
L 87.583216 -227.046608 
L 88.144876 -226.893886 
L 88.785966 -226.838657 
L 89.289118 -226.742847 
L 89.739536 -226.548051 
L 90.274233 -226.483022 
L 91.00367 -226.28096 
L 91.734468 -226.105098 
L 92.210287 -225.97894 
L 92.663039 -225.840853 
L 93.31732 -225.762511 
L 93.762851 -225.482204 
L 94.353332 -225.196664 
L 94.960871 -224.992297 
L 95.311097 -224.709102 
L 95.837862 -224.521422 
L 96.622825 -224.292946 
L 97.202789 -223.978482 
L 97.578395 -223.542925 
L 98.079639 -223.228888 
L 98.754097 -223.072527 
L 99.543178 -222.931469 
L 99.961265 -222.706002 
L 100.31622 -222.408625 
L 101.062069 -222.157902 
L 101.710257 -221.943145 
L 102.280494 -221.653101 
L 102.780808 -221.463894 
L 103.373488 -221.096041 
L 104.067622 -220.814861 
L 104.601972 -220.453771 
L 104.966208 -220.174813 
L 105.515221 -219.950731 
L 106.288772 -219.854491 
L 106.635787 -219.827929 
L 107.100813 -219.766503 
L 107.834703 -219.738265 
L 108.452943 -219.510473 
L 108.983578 -219.505531 
L 109.394012 -219.271694 
L 109.929519 -219.084034 
L 110.430897 -219.043285 
L 111.039283 -218.957585 
L 111.847748 -218.970059 
L 112.28629 -218.863682 
L 112.601347 -218.764992 
L 113.096819 -218.594726 
L 113.703025 -218.386942 
L 114.316782 -218.256063 
L 114.822069 -218.104193 
L 115.570954 -218.087802 
L 116.260936 -217.951171 
L 116.74838 -217.967468 
L 117.366125 -217.943893 
L 117.766052 -217.792175 
L 118.269924 -217.660454 
L 118.839457 -217.497339 
L 119.271808 -217.417232 
L 120.047939 -217.418458 
L 120.683791 -217.303698 
L 120.990728 -217.308574 
L 121.460892 -217.159721 
L 122.146249 -217.12309 
L 122.866032 -217.039668 
L 123.422091 -216.939565 
L 123.934547 -217.000569 
L 124.501171 -217.040155 
L 125.108852 -216.731393 
L 125.594041 -216.669749 
L 126.096515 -216.586321 
L 126.814051 -216.507806 
L 127.311123 -216.46208 
L 127.828192 -216.400042 
L 128.41085 -216.342578 
L 128.825256 -216.338439 
L 129.336306 -216.326364 
L 129.883486 -216.261118 
L 130.620328 -216.048832 
L 131.192407 -215.943565 
L 131.640487 -215.858115 
L 132.340407 -215.4603 
L 132.875333 -215.340781 
L 133.282358 -215.110391 
L 133.95208 -214.843045 
L 134.594712 -214.707147 
L 135.133825 -214.567312 
L 135.693404 -214.307319 
L 136.269603 -214.157795 
L 136.705937 -214.203847 
L 137.068226 -214.205665 
L 137.879568 -213.963881 
L 138.687099 -213.933025 
L 139.095399 -213.867154 
L 139.513862 -213.712269 
L 140.13571 -213.660223 
L 140.604746 -213.575548 
L 141.03563 -213.308636 
L 141.795578 -213.141806 
L 142.56993 -213.047841 
L 143.10162 -212.913897 
L 143.581881 -212.793408 
L 144.097864 -212.738884 
L 144.659971 -212.442274 
L 145.133658 -212.385167 
L 145.691391 -212.197818 
L 146.299263 -212.185269 
L 146.718765 -211.94061 
L 147.188693 -211.810814 
L 147.924722 -211.704306 
L 148.617493 -211.646758 
L 149.111408 -211.563391 
L 149.567669 -211.260155 
L 150.19118 -211.0871 
L 150.787331 -211.035817 
L 151.198156 -210.85649 
L 151.839417 -210.542291 
L 152.41674 -210.321056 
L 152.887897 -210.154122 
L 153.357446 -209.960353 
L 153.907735 -209.756622 
L 154.569751 -209.516379 
L 155.21976 -209.168015 
L 155.837675 -209.043992 
L 156.249736 -208.914815 
L 156.73099 -208.66901 
L 157.418926 -208.663021 
L 158.109405 -208.50956 
L 158.695588 -208.243913 
L 159.07069 -208.162053 
L 159.581726 -207.966568 
L 160.189136 -207.837104 
L 160.64512 -207.833654 
L 161.23057 -207.79061 
L 161.769085 -207.809645 
L 162.381533 -207.749179 
L 163.124459 -207.625336 
L 163.629134 -207.500446 
L 164.007085 -207.401186 
L 164.585283 -207.337153 
L 165.237179 -207.070452 
L 165.699233 -206.664345 
L 166.296597 -206.604831 
L 167.059522 -206.450278 
L 167.614954 -206.231372 
L 168.123603 -206.077681 
L 168.742615 -206.056819 
L 169.18898 -205.941778 
L 169.595357 -205.874007 
L 170.08727 -206.022565 
L 170.712174 -205.900248 
L 171.271264 -205.729514 
L 171.832437 -205.56172 
L 172.371111 -205.526606 
L 172.833515 -205.574146 
L 173.594459 -205.427312 
L 174.297308 -205.324921 
L 174.707098 -205.368533 
L 175.228625 -205.287125 
L 175.88824 -205.182394 
L 176.468543 -205.195542 
L 176.941844 -205.20266 
L 177.359375 -205.069824 
L 177.867457 -205.133977 
L 178.445197 -204.888497 
L 179.170664 -204.864885 
L 179.749846 -204.882027 
L 180.334838 -204.873235 
L 180.906546 -204.778159 
L 181.259886 -204.696856 
L 181.829343 -204.696435 
L 182.42373 -204.469816 
L 182.908708 -204.361288 
L 183.426089 -204.376436 
L 183.99153 -204.333613 
L 184.689752 -204.262479 
L 185.4442 -204.211658 
L 186.063323 -204.108922 
L 186.49894 -204.082798 
L 187.007181 -203.966402 
L 187.574435 -203.938344 
L 188.039042 -203.900285 
L 188.673953 -203.577099 
L 189.214083 -203.289076 
L 189.598249 -203.185969 
L 190.098004 -202.977259 
L 190.85607 -202.942004 
L 191.671287 -202.813522 
L 192.218189 -202.730914 
L 192.700755 -202.592296 
L 193.124152 -202.463032 
L 193.603504 -202.29325 
L 194.196263 -202.094821 
L 194.894406 -202.065264 
L 195.464405 -202.047156 
L 195.909938 -201.927502 
L 196.387514 -201.653681 
L 196.926321 -201.410912 
L 197.55996 -201.345627 
L 198.068977 -201.197753 
L 198.66468 -201.002584 
L 199.340677 -200.92993 
L 199.954169 -200.793086 
L 200.506168 -200.749853 
L 201.094483 -200.735658 
L 201.6708 -200.567919 
L 202.080414 -200.586979 
L 202.540966 -200.451816 
L 203.141081 -200.247861 
L 203.684369 -200.026818 
L 204.248999 -199.70656 
L 204.839002 -199.387405 
L 205.263331 -199.261018 
L 205.796366 -199.078746 
L 206.540047 -198.741723 
L 207.085119 -198.390602 
L 207.64828 -198.06049 
L 208.324053 -197.811119 
L 208.795166 -197.668199 
L 209.410221 -197.45845 
L 209.97379 -197.446922 
L 210.372985 -197.34943 
L 210.846352 -197.224231 
L 211.420749 -197.05709 
L 212.159243 -196.909176 
L 212.771289 -196.931407 
L 213.349346 -196.934146 
L 213.950402 -196.749472 
L 214.460795 -196.598968 
L 214.973035 -196.328489 
L 215.370619 -196.028101 
L 215.917182 -195.677552 
L 216.537052 -195.350257 
L 217.028145 -195.247001 
L 217.687534 -195.144281 
L 218.322057 -194.974863 
L 218.71355 -194.780282 
L 219.269229 -194.704858 
L 220.007044 -194.553942 
L 220.563954 -194.325789 
L 221.182623 -194.203339 
L 221.65114 -194.082476 
L 222.149012 -193.950115 
L 222.67779 -193.894303 
L 223.164411 -193.797112 
L 223.857902 -193.710632 
L 224.484335 -193.701497 
L 224.975898 -193.229972 
L 225.601261 -193.052962 
L 226.163088 -192.695043 
L 226.654577 -192.403055 
L 227.137339 -192.165086 
L 227.643221 -192.069484 
L 228.170472 -191.850179 
L 228.693797 -191.575853 
L 229.263609 -191.493146 
L 229.857682 -191.448494 
L 230.421443 -191.308116 
L 230.870244 -191.227044 
L 231.508398 -191.047839 
L 232.186638 -190.855414 
L 232.799235 -190.622237 
L 233.240967 -190.430472 
L 233.640648 -190.317434 
L 234.267288 -190.280536 
L 235.004214 -190.091865 
L 235.624544 -189.894499 
L 236.144675 -189.631069 
L 236.622121 -189.296414 
L 237.0737 -189.183134 
L 237.723612 -188.86665 
L 238.424113 -188.79078 
L 239.038059 -188.488741 
L 239.574889 -188.343057 
L 240.12378 -188.127609 
L 240.775909 -188.02466 
L 241.281932 -187.76948 
L 241.816002 -187.570308 
L 242.198431 -187.148796 
L 242.626427 -186.95156 
L 243.218786 -186.719343 
L 243.86443 -186.65282 
L 244.592462 -186.334278 
L 245.06652 -186.092368 
L 245.469005 -185.881541 
L 246.071325 -185.70358 
L 246.634945 -185.395712 
L 247.148702 -185.107397 
L 247.811289 -184.91208 
L 248.326528 -184.869676 
L 248.907089 -184.596609 
L 249.600449 -184.186284 
L 250.02608 -183.931708 
L 250.483256 -183.855227 
L 251.224541 -183.472483 
L 251.788466 -183.116476 
L 252.255364 -182.859442 
L 252.751164 -182.806853 
L 253.304914 -182.591686 
L 254.065776 -182.484981 
L 254.591437 -182.449444 
L 254.998244 -182.312374 
L 255.448722 -182.058151 
L 255.928281 -181.746611 
L 256.487867 -181.528466 
L 257.0922 -181.300893 
L 257.756798 -181.149938 
L 258.437346 -181.028989 
L 258.983148 -180.832003 
L 259.528432 -180.487979 
L 260.20218 -180.158869 
L 260.751415 -179.832414 
L 261.275564 -179.580566 
L 261.853299 -179.14043 
L 262.452255 -178.92138 
L 263.029847 -178.774926 
L 263.59435 -178.443862 
L 264.020739 -178.199739 
L 264.372219 -177.904882 
L 265.097358 -177.63915 
L 265.756799 -177.334909 
L 266.330233 -177.158616 
L 266.799075 -176.97444 
L 267.186442 -176.892812 
L 267.853251 -176.614202 
L 268.40641 -176.493607 
L 269.017512 -176.338093 
L 269.747319 -176.026198 
L 270.252049 -175.85489 
L 270.667124 -175.52735 
L 271.322978 -175.405781 
L 271.824719 -175.024266 
L 272.304618 -174.804109 
L 272.927753 -174.706303 
L 273.417037 -174.488016 
L 274.005834 -174.298821 
L 274.581614 -174.110449 
L 275.216261 -173.865353 
L 275.815669 -173.64858 
L 276.152866 -173.356781 
L 276.675499 -173.038276 
L 277.47271 -172.891446 
L 278.027662 -172.690599 
L 278.429736 -172.377488 
L 278.959456 -172.229474 
L 279.652287 -171.821278 
L 280.359476 -171.613987 
L 280.73811 -171.339569 
L 281.297088 -171.211827 
L 282.036697 -171.135548 
L 282.573229 -170.867874 
L 283.178978 -170.434227 
L 283.653434 -170.103188 
L 284.077171 -169.810894 
L 284.535536 -169.486003 
L 285.010775 -169.224518 
L 285.646249 -168.735748 
L 286.269357 -168.577018 
L 286.907062 -168.364178 
L 287.567617 -168.253658 
L 287.943729 -168.003821 
L 288.326299 -167.614912 
L 289.089705 -167.287574 
L 289.629911 -166.839808 
L 290.012906 -166.626096 
L 290.713584 -166.532661 
L 291.237895 -166.206121 
L 291.875691 -166.130371 
L 292.65112 -165.833985 
L 293.136185 -165.476342 
L 293.672955 -165.148013 
L 294.208801 -164.99493 
L 294.793042 -164.694016 
L 295.203225 -164.260865 
L 295.626023 -163.898091 
L 296.25442 -163.633216 
L 296.986341 -163.234415 
L 297.53196 -163.019593 
L 298.057295 -162.527136 
L 298.597599 -162.392847 
L 298.979728 -162.091318 
L 299.721454 -161.925586 
L 300.484118 -161.789317 
L 301.067028 -161.45478 
L 301.566162 -161.375225 
L 302.089478 -161.221446 
L 302.70746 -160.887547 
L 303.321479 -160.558045 
L 303.713102 -160.429282 
L 304.033545 -160.353645 
L 304.511296 -160.140301 
L 305.18733 -159.99651 
L 305.820326 -160.012166 
L 306.495853 -159.751758 
L 307.056671 -159.452472 
L 307.526116 -159.340596 
L 307.990704 -159.071726 
L 308.361522 -158.611674 
L 309.191879 -158.421528 
L 310.019684 -158.295189 
L 310.504921 -157.953504 
L 310.910133 -157.84431 
L 311.375181 -157.779957 
L 312.078522 -157.42209 
L 312.653465 -157.19474 
L 313.033151 -156.932141 
L 313.536117 -156.808874 
L 314.248987 -156.367253 
L 314.78165 -156.035582 
L 315.170798 -155.373393 
L 315.766763 -155.177375 
L 316.34534 -155.188615 
L 316.968632 -154.808437 
L 317.714446 -154.513969 
L 318.244479 -154.420769 
L 318.799331 -154.307021 
L 319.484047 -154.343008 
L 319.942439 -154.236281 
L 320.369285 -154.002319 
L 320.918945 -153.970786 
L 321.513062 -153.68328 
L 321.973832 -153.573773 
L 322.444311 -153.367778 
L 323.024565 -153.312683 
L 323.652604 -153.313243 
L 324.376306 -153.306216 
L 325.003348 -153.047078 
L 325.564372 -152.967627 
L 326.157092 -152.874735 
L 326.67726 -152.968108 
L 327.267156 -152.660694 
L 327.869375 -152.626179 
L 328.292992 -152.579144 
L 328.64205 -152.506667 
L 329.328087 -152.241077 
L 330.000281 -151.930416 
L 330.51005 -151.839623 
L 331.14876 -151.461367 
L 331.554217 -151.210929 
L 331.962535 -151.143823 
L 332.582783 -150.771715 
L 333.098611 -150.566631 
L 333.64387 -150.239905 
L 334.155456 -150.049012 
L 334.736541 -149.63665 
L 335.43408 -149.230996 
L 336.089352 -149.072555 
L 336.735113 -148.779835 
L 337.123451 -148.607066 
L 337.491498 -148.479341 
L 338.206015 -148.409917 
L 338.84696 -148.217148 
L 339.351195 -148.092715 
L 339.944315 -148.07417 
L 340.540922 -147.95566 
L 341.036972 -147.629004 
L 341.407413 -147.590613 
L 341.866748 -147.393538 
L 342.430808 -147.260845 
L 343.145553 -147.102733 
L 343.927658 -146.95885 
L 344.516727 -146.909812 
L 345.068467 -146.881574 
L 345.702141 -146.886261 
L 346.196235 -146.883033 
L 346.599404 -146.951983 
L 347.095645 -146.896665 
L 347.813524 -146.990328 
L 348.528815 -146.951163 
L 348.824558 -146.90137 
L 349.246812 -146.895073 
L 350.047592 -146.660274 
L 350.520858 -146.672637 
L 350.86882 -146.60424 
L 351.403008 -146.402445 
L 351.969002 -146.274052 
L 352.751356 -146.260889 
L 353.498984 -146.234332 
L 353.916155 -146.206112 
L 354.334181 -145.803504 
L 354.898304 -145.636052 
L 355.568632 -145.571254 
L 356.13156 -145.441719 
L 356.64532 -145.527531 
L 357.250497 -145.338718 
L 357.725607 -145.09494 
L 358.2469 -145.053127 
L 358.886849 -145.095461 
L 359.466257 -145.085806 
L 360.120808 -144.903933 
L 360.549935 -144.954857 
L 360.904547 -144.662231 
L 361.686992 -144.476553 
L 362.391536 -144.455463 
L 362.961404 -144.395628 
L 363.359677 -144.397471 
L 363.719185 -144.29523 
L 364.317702 -144.008692 
L 365.008303 -143.943638 
L 365.621942 -143.802697 
L 366.049955 -143.755194 
L 366.551855 -143.740618 
L 367.256448 -143.716789 
L 367.834054 -143.673341 
L 368.330041 -143.642299 
L 368.911727 -143.529468 
L 369.322996 -143.335633 
L 369.941247 -143.335899 
L 370.650933 -143.374115 
L 371.28495 -143.367263 
L 371.889146 -143.388372 
L 372.176981 -143.304718 
L 372.642849 -143.277198 
L 373.444241 -143.168104 
L 374.066658 -143.068151 
L 374.480453 -143.017657 
L 374.894649 -142.849155 
L 375.551486 -142.481908 
L 376.093286 -142.250051 
L 376.478376 -142.269538 
L 377.034237 -142.14948 
L 377.71758 -141.967165 
L 378.404014 -141.838997 
L 378.966055 -141.716431 
L 379.476702 -141.722485 
L 379.896016 -141.55002 
L 380.46886 -141.554311 
L 381.105128 -141.544271 
L 381.55524 -141.579706 
L 382.259363 -141.562108 
L 382.935033 -141.58092 
L 383.299968 -141.497479 
L 383.815105 -141.389108 
L 384.354247 -141.448733 
L 384.857012 -141.477128 
L 385.557159 -141.311175 
L 386.195632 -141.085075 
L 386.710779 -140.670342 
L 387.346997 -140.670392 
L 387.914305 -140.598859 
L 388.34066 -140.503696 
L 388.965622 -140.345354 
L 389.509005 -140.263366 
L 390.0748 -140.090605 
L 390.740594 -140.05763 
L 391.357277 -140.239159 
L 391.934376 -140.30088 
L 392.354223 -140.107695 
L 392.95544 -140.100814 
L 393.381736 -140.113123 
L 393.82687 -139.921519 
L 394.4188 -139.730264 
L 394.91532 -139.726557 
L 395.633942 -139.694875 
L 396.431916 -139.647457 
L 396.833482 -139.67556 
L 397.294508 -139.559459 
L 398.06689 -139.591707 
L 398.712083 -139.574252 
L 399.102086 -139.46003 
L 399.63808 -139.343416 
L 400.252883 -139.105074 
L 400.807096 -139.038295 
L 401.497024 -138.750141 
L 401.884034 -138.698487 
L 402.417673 -138.558537 
L 402.959605 -138.374607 
L 403.422107 -138.282533 
L 404.010409 -137.911198 
L 404.476895 -137.78786 
L 404.957981 -137.685194 
L 405.676642 -137.44277 
L 406.47204 -137.465401 
L 406.840257 -137.325054 
L 407.355038 -137.263939 
L 408.148909 -137.156316 
L 408.528993 -136.955163 
L 408.8261 -136.879271 
L 409.596198 -136.910448 
L 410.292944 -136.911711 
L 410.811471 -136.621831 
L 411.229779 -136.48538 
L 411.843377 -136.25339 
L 412.665445 -136.177511 
L 413.206033 -135.877884 
L 413.740723 -135.935814 
L 414.324234 -135.865555 
L 414.648426 -135.761275 
L 415.063636 -135.5305 
L 415.745976 -135.052383 
L 416.458891 -134.830261 
L 417.102258 -134.65361 
L 417.503899 -134.254171 
L 417.901741 -134.275351 
L 418.517225 -134.238441 
L 419.145698 -134.021978 
L 419.763088 -133.929544 
L 420.415017 -133.658598 
L 420.803619 -133.629012 
L 421.396995 -133.561078 
L 422.094297 -133.41632 
L 422.623291 -133.202835 
L 422.990934 -133.049014 
L 423.382541 -132.900147 
L 424.032877 -132.864272 
L 424.744448 -132.680794 
L 425.277063 -132.596796 
L 425.657043 -132.494194 
L 426.268481 -132.417146 
L 426.884722 -132.31007 
L 427.526386 -132.133301 
L 428.129882 -131.971556 
L 428.619972 -131.807627 
L 429.140582 -131.719557 
L 429.716495 -131.521697 
L 430.355099 -131.431352 
L 430.885941 -131.450662 
L 431.527219 -131.289582 
L 431.974336 -131.079773 
L 432.416314 -130.934276 
L 433.215044 -130.838293 
L 433.874146 -130.693587 
L 434.196992 -130.583198 
L 434.529684 -130.46264 
L 435.228499 -130.290253 
L 435.959405 -130.182723 
L 436.375588 -129.997916 
L 436.882454 -129.599482 
L 437.597081 -129.497914 
L 438.274378 -129.346087 
L 438.821704 -129.338198 
L 439.270038 -129.272613 
L 439.766566 -129.151581 
L 440.228652 -129.037515 
L 440.929332 -128.883013 
L 441.532492 -128.757348 
L 442.012935 -128.692673 
L 442.581781 -128.615062 
L 442.994484 -128.453647 
L 443.621865 -128.336796 
L 444.354249 -128.26623 
L 444.927925 -128.23343 
L 445.376621 -128.052497 
L 445.963157 -127.881632 
L 446.673331 -127.844059 
L 447.055306 -127.520949 
L 447.408872 -127.451493 
L 448.177572 -127.298599 
L 448.809243 -127.178616 
L 449.209933 -127.046571 
L 449.788952 -126.911545 
L 450.448639 -126.85043 
L 451.134988 -126.749559 
L 451.665338 -126.466847 
L 452.234866 -126.278648 
L 452.611363 -126.197218 
L 453.162373 -126.102238 
L 453.934406 -125.770697 
L 454.265738 -125.632589 
L 454.782231 -125.381105 
L 455.367029 -125.136582 
L 455.831139 -124.980551 
L 456.558025 -124.85272 
L 457.204409 -124.581322 
L 457.643898 -124.34833 
L 458.168503 -124.203145 
L 458.83178 -124.030471 
L 459.250241 -123.829579 
L 459.622569 -123.857811 
L 460.239204 -123.826717 
L 460.864012 -123.896593 
L 461.393717 -123.772552 
L 462.117434 -123.603857 
L 462.701939 -123.508608 
L 463.154006 -123.484562 
L 463.829466 -123.252864 
L 464.246296 -123.229908 
L 464.871817 -123.041862 
L 465.545639 -123.055209 
L 465.929166 -122.664063 
L 466.581904 -122.543033 
L 467.284547 -122.343009 
L 467.610844 -122.28196 
L 468.02814 -122.097571 
L 468.595324 -121.818859 
L 469.24348 -121.748038 
L 470.03349 -121.410345 
L 470.486493 -121.253924 
L 470.887067 -121.08454 
L 471.424289 -120.906886 
L 471.992543 -120.595457 
L 472.689297 -120.235462 
L 473.337725 -120.099855 
L 473.94162 -120.0039 
L 474.353772 -119.744688 
L 474.687121 -119.640792 
L 475.379848 -119.457194 
L 476.071568 -119.264521 
L 476.706906 -119.112831 
L 477.280972 -118.638246 
L 477.601282 -118.283454 
L 478.120001 -118.014602 
L 478.887482 -117.615524 
L 479.606057 -116.797538 
L 480.064844 -116.637095 
L 480.525987 -116.351697 
L 481.150434 -115.766864 
L 481.613755 -115.397766 
L 482.050099 -115.107637 
L 482.542849 -114.830058 
L 483.158754 -114.456425 
L 483.862832 -114.314834 
L 484.310277 -114.099557 
L 484.924965 -113.800835 
L 485.595023 -113.541869 
L 485.999462 -113.281743 
L 486.452769 -113.051877 
L 486.957008 -112.654071 
L 487.733544 -112.170695 
L 488.457724 -111.762517 
L 489.001186 -111.277585 
L 489.387308 -110.949192 
L 489.968046 -110.569751 
L 490.790657 -110.248801 
L 491.175828 -109.889639 
L 491.480225 -109.587929 
L 492.213742 -109.241568 
L 492.758222 -108.895313 
L 493.082217 -108.397136 
L 493.829513 -108.006105 
L 494.366509 -107.46675 
L 494.983111 -107.252026 
L 495.814826 -106.971621 
L 496.308153 -106.494111 
L 496.831587 -106.3544 
L 497.424858 -105.833458 
L 497.792955 -105.270469 
L 498.306065 -104.996487 
L 498.951285 -104.70044 
L 499.436277 -104.511137 
L 499.906723 -104.401857 
L 500.501749 -104.027704 
L 501.077153 -103.791171 
L 501.753641 -103.575764 
L 502.390435 -103.403482 
L 502.921157 -103.330939 
L 503.455002 -103.199098 
L 503.818417 -102.643734 
L 504.525467 -102.165092 
L 505.095147 -101.938427 
L 505.508596 -101.488657 
L 506.086826 -101.189681 
L 506.667758 -100.994438 
L 507.29333 -100.954244 
L 507.762456 -100.794792 
L 508.273467 -100.452655 
L 508.79438 -100.001649 
L 509.281832 -99.787388 
L 510.076397 -99.591615 
L 510.648548 -99.349126 
L 511.177551 -99.114855 
L 511.784134 -98.723006 
L 512.263793 -98.263166 
L 512.82626 -97.599773 
L 513.396489 -97.314244 
L 514.061683 -97.128659 
L 514.666795 -96.542783 
L 515.133995 -95.971054 
L 515.516732 -95.762637 
L 516.039142 -95.268234 
L 516.64308 -94.983299 
L 517.273983 -94.564679 
L 517.815298 -94.285908 
L 518.440593 -93.799498 
L 519.135536 -93.302923 
L 519.493934 -93.065572 
L 520.042852 -92.665989 
L 520.818827 -92.170388 
L 521.358734 -91.612742 
L 521.935128 -90.887281 
L 522.593849 -90.445921 
L 523.071859 -89.900459 
L 523.545294 -89.490545 
L 524.187474 -89.093895 
L 524.709123 -88.77272 
L 525.170729 -88.232985 
L 525.645533 -87.755181 
L 526.182073 -87.303595 
L 526.675913 -86.862703 
L 527.113485 -86.368102 
L 527.892512 -86.004093 
L 528.500358 -85.464783 
L 528.894226 -85.075879 
L 529.492447 -84.638098 
L 530.006433 -84.437819 
L 530.632437 -84.228481 
L 531.427229 -83.990571 
L 531.921975 -83.586679 
L 532.221153 -83.48574 
L 532.822436 -83.020198 
L 533.548681 -82.92055 
L 534.058232 -82.34637 
L 534.591314 -82.175267 
L 535.118125 -81.94977 
L 535.732727 -81.752284 
L 536.243303 -81.541474 
L 536.78789 -81.304985 
L 537.391365 -81.237108 
L 537.906243 -81.148907 
L 538.40603 -80.88696 
L 538.916723 -80.673188 
L 539.603615 -80.370167 
L 540.339193 -80.216684 
L 541.008674 -80.00248 
L 541.486813 -79.632758 
L 541.996894 -79.327213 
L 542.488212 -79.173932 
L 542.882036 -79.153544 
L 543.505954 -78.897276 
L 544.21448 -78.722537 
L 544.729161 -78.653355 
L 545.299125 -78.578579 
L 545.906329 -78.502446 
L 546.445112 -78.510127 
L 546.95753 -78.570054 
L 547.390785 -78.462306 
L 548.01208 -78.29831 
L 548.643248 -78.168159 
L 549.112916 -78.129196 
L 549.670818 -78.041634 
L 550.23855 -77.892428 
L 550.94089 -77.870895 
L 551.490446 -77.88961 
L 551.789924 -78.056995 
L 552.463555 -78.087807 
L 553.123744 -78.394915 
L 553.646534 -78.346148 
L 554.252403 -78.503213 
L 554.663403 -78.563287 
L 555.1089 -78.416116 
L 555.80007 -78.099365 
L 556.468272 -77.985538 
L 556.869543 -77.988604 
L 557.270352 -77.91256 
L 558.046621 -77.750653 
L 558.752565 -77.340832 
L 559.272092 -77.073979 
L 559.841236 -76.85938 
L 560.289281 -76.864666 
L 560.812996 -76.831222 
L 561.329358 -76.943335 
L 561.940242 -77.198007 
L 562.566451 -77.237154 
L 563.21752 -77.305157 
L 563.84856 -77.551705 
L 564.186911 -77.979278 
L 564.757135 -78.245404 
L 565.370009 -78.392616 
L 565.930622 -78.674829 
L 566.425964 -78.91052 
L 566.936994 -79.133165 
L 567.45354 -79.063215 
L 567.83881 -79.076367 
L 568.555552 -79.128593 
L 569.320434 -79.110173 
L 569.962738 -79.097519 
L 570.538928 -78.9625 
L 571.008149 -78.862081 
L 571.58269 -78.839956 
L 572.109936 -78.70291 
L 572.529928 -78.529707 
L 573.038419 -78.620911 
L 573.662484 -78.330708 
L 574.372217 -78.308071 
L 574.82251 -78.330052 
L 575.413804 -78.185023 
L 575.944675 -77.848519 
L 576.492812 -77.65908 
L 577.276877 -77.447609 
L 577.64551 -77.157939 
L 577.987863 -76.833002 
L 578.634338 -76.545823 
L 579.204242 -76.148 
L 579.843512 -75.81721 
L 580.384493 -75.611555 
L 580.807727 -75.299262 
L 581.491234 -74.913386 
L 582.107897 -73.952851 
L 582.621269 -73.444577 
L 583.192024 -72.807238 
L 583.77366 -72.314666 
L 584.420472 -71.604952 
L 585.031507 -71.050251 
L 585.600515 -70.145991 
L 586.096188 -69.668315 
L 586.649615 -68.969305 
L 587.182372 -68.317481 
L 587.5649 -67.907238 
L 588.232112 -67.578263 
L 588.960015 -66.89603 
L 589.433076 -66.011027 
L 589.996537 -65.520316 
L 590.56177 -64.906356 
L 591.075716 -64.114984 
L 591.545996 -62.833447 
L 592.101545 -61.643559 
L 592.795647 -60.785412 
L 593.136129 -60.124051 
L 593.521267 -59.638911 
L 594.201915 -58.637417 
L 594.965617 -57.710634 
L 595.568839 -57.071062 
L 596.174547 -56.517774 
L 596.757152 -56.042896 
L 597.204686 -55.353352 
L 597.728132 -54.358656 
L 598.161029 -53.435823 
L 598.755744 -52.799806 
L 599.30046 -51.924373 
L 599.933829 -50.777947 
L 600.624607 -48.995213 
L 601.043543 -48.400643 
L 601.298652 -52.921144 
L 601.298652 -67.477119 
L 601.298652 -67.477119 
L 601.043543 -66.869815 
L 600.624607 -66.651119 
L 599.933829 -67.116541 
L 599.30046 -67.066522 
L 598.755744 -67.428577 
L 598.161029 -67.843219 
L 597.728132 -68.244976 
L 597.204686 -68.814577 
L 596.757152 -69.249373 
L 596.174547 -69.422964 
L 595.568839 -69.648628 
L 594.965617 -69.9812 
L 594.201915 -70.558627 
L 593.521267 -70.950933 
L 593.136129 -71.531215 
L 592.795647 -71.929521 
L 592.101545 -72.808806 
L 591.545996 -73.334412 
L 591.075716 -73.779494 
L 590.56177 -74.245584 
L 589.996537 -74.456505 
L 589.433076 -74.891115 
L 588.960015 -75.227356 
L 588.232112 -75.422911 
L 587.5649 -75.968923 
L 587.182372 -76.280354 
L 586.649615 -76.927328 
L 586.096188 -77.264217 
L 585.600515 -77.545623 
L 585.031507 -77.610075 
L 584.420472 -77.867962 
L 583.77366 -77.982007 
L 583.192024 -78.454707 
L 582.621269 -78.790156 
L 582.107897 -78.983331 
L 581.491234 -79.127668 
L 580.807727 -79.261452 
L 580.384493 -79.590739 
L 579.843512 -79.687163 
L 579.204242 -80.048989 
L 578.634338 -80.56114 
L 577.987863 -80.841394 
L 577.64551 -81.535898 
L 577.276877 -81.902739 
L 576.492812 -82.27675 
L 575.944675 -82.78448 
L 575.413804 -83.110469 
L 574.82251 -83.180031 
L 574.372217 -83.17365 
L 573.662484 -83.103235 
L 573.038419 -83.11014 
L 572.529928 -83.046387 
L 572.109936 -83.339905 
L 571.58269 -83.383568 
L 571.008149 -83.218427 
L 570.538928 -83.06892 
L 569.962738 -82.974238 
L 569.320434 -82.857619 
L 568.555552 -82.594737 
L 567.83881 -82.495964 
L 567.45354 -82.484513 
L 566.936994 -82.458255 
L 566.425964 -82.350681 
L 565.930622 -82.349425 
L 565.370009 -82.311297 
L 564.757135 -82.233349 
L 564.186911 -82.336873 
L 563.84856 -82.438415 
L 563.21752 -82.501185 
L 562.566451 -82.535387 
L 561.940242 -82.710153 
L 561.329358 -82.977865 
L 560.812996 -83.175073 
L 560.289281 -83.385529 
L 559.841236 -83.559613 
L 559.272092 -83.672099 
L 558.752565 -83.904326 
L 558.046621 -84.089373 
L 557.270352 -84.250303 
L 556.869543 -84.360907 
L 556.468272 -84.443575 
L 555.80007 -84.52266 
L 555.1089 -84.932568 
L 554.663403 -85.035114 
L 554.252403 -85.178615 
L 553.646534 -85.194465 
L 553.123744 -85.429398 
L 552.463555 -85.595341 
L 551.789924 -85.559833 
L 551.490446 -85.721727 
L 550.94089 -85.975432 
L 550.23855 -86.084642 
L 549.670818 -86.215918 
L 549.112916 -86.275386 
L 548.643248 -86.574153 
L 548.01208 -86.768586 
L 547.390785 -86.968525 
L 546.95753 -87.105021 
L 546.445112 -87.205034 
L 545.906329 -87.309965 
L 545.299125 -87.431907 
L 544.729161 -87.678975 
L 544.21448 -87.781669 
L 543.505954 -88.005747 
L 542.882036 -88.36909 
L 542.488212 -88.683109 
L 541.996894 -88.836743 
L 541.486813 -88.92328 
L 541.008674 -89.37332 
L 540.339193 -89.581558 
L 539.603615 -89.876199 
L 538.916723 -90.041365 
L 538.40603 -90.166527 
L 537.906243 -90.380196 
L 537.391365 -90.556215 
L 536.78789 -90.64755 
L 536.243303 -90.902692 
L 535.732727 -91.075198 
L 535.118125 -91.627058 
L 534.591314 -91.762979 
L 534.058232 -91.871391 
L 533.548681 -91.941901 
L 532.822436 -92.044884 
L 532.221153 -92.355419 
L 531.921975 -92.688064 
L 531.427229 -92.958807 
L 530.632437 -93.159018 
L 530.006433 -93.426626 
L 529.492447 -93.520133 
L 528.894226 -93.646359 
L 528.500358 -94.043838 
L 527.892512 -94.484085 
L 527.113485 -94.699729 
L 526.675913 -94.861017 
L 526.182073 -95.249428 
L 525.645533 -95.689368 
L 525.170729 -96.387957 
L 524.709123 -96.814111 
L 524.187474 -97.012068 
L 523.545294 -97.334546 
L 523.071859 -97.656003 
L 522.593849 -98.162656 
L 521.935128 -98.435097 
L 521.358734 -98.890261 
L 520.818827 -99.28008 
L 520.042852 -99.705712 
L 519.493934 -100.159741 
L 519.135536 -100.483933 
L 518.440593 -100.654627 
L 517.815298 -101.024139 
L 517.273983 -101.500545 
L 516.64308 -101.797633 
L 516.039142 -102.322651 
L 515.516732 -102.711778 
L 515.133995 -102.876416 
L 514.666795 -103.411301 
L 514.061683 -103.66919 
L 513.396489 -104.050013 
L 512.82626 -104.318232 
L 512.263793 -104.499164 
L 511.784134 -104.585313 
L 511.177551 -105.00189 
L 510.648548 -105.279385 
L 510.076397 -105.746923 
L 509.281832 -105.828315 
L 508.79438 -105.975284 
L 508.273467 -105.995972 
L 507.762456 -106.083076 
L 507.29333 -106.225218 
L 506.667758 -106.361431 
L 506.086826 -106.525966 
L 505.508596 -106.791109 
L 505.095147 -106.949359 
L 504.525467 -107.123504 
L 503.818417 -107.421052 
L 503.455002 -107.681373 
L 502.921157 -107.920725 
L 502.390435 -108.15829 
L 501.753641 -108.41682 
L 501.077153 -108.778811 
L 500.501749 -108.976491 
L 499.906723 -109.460326 
L 499.436277 -109.534541 
L 498.951285 -109.877039 
L 498.306065 -110.027748 
L 497.792955 -110.169698 
L 497.424858 -110.438684 
L 496.831587 -110.6082 
L 496.308153 -111.085673 
L 495.814826 -111.254908 
L 494.983111 -111.643483 
L 494.366509 -112.062991 
L 493.829513 -112.32527 
L 493.082217 -112.582908 
L 492.758222 -113.101077 
L 492.213742 -113.464062 
L 491.480225 -113.913996 
L 491.175828 -114.100727 
L 490.790657 -114.289374 
L 489.968046 -114.592815 
L 489.387308 -114.850407 
L 489.001186 -115.355232 
L 488.457724 -115.605811 
L 487.733544 -116.005875 
L 486.957008 -116.278415 
L 486.452769 -116.576473 
L 485.999462 -116.764823 
L 485.595023 -117.202015 
L 484.924965 -117.47808 
L 484.310277 -117.704808 
L 483.862832 -117.981443 
L 483.158754 -118.515958 
L 482.542849 -118.799167 
L 482.050099 -119.083131 
L 481.613755 -119.429812 
L 481.150434 -119.655577 
L 480.525987 -119.86258 
L 480.064844 -120.24563 
L 479.606057 -120.519486 
L 478.887482 -121.087345 
L 478.120001 -121.288293 
L 477.601282 -121.523869 
L 477.280972 -121.916829 
L 476.706906 -122.111458 
L 476.071568 -122.327574 
L 475.379848 -122.565268 
L 474.687121 -123.006464 
L 474.353772 -123.60929 
L 473.94162 -123.733649 
L 473.337725 -124.126139 
L 472.689297 -124.565196 
L 471.992543 -125.068436 
L 471.424289 -125.354901 
L 470.887067 -125.762935 
L 470.486493 -125.819299 
L 470.03349 -126.01698 
L 469.24348 -126.181266 
L 468.595324 -126.533923 
L 468.02814 -126.651161 
L 467.610844 -126.657047 
L 467.284547 -126.73726 
L 466.581904 -126.888456 
L 465.929166 -126.966947 
L 465.545639 -127.111757 
L 464.871817 -127.241623 
L 464.246296 -127.329596 
L 463.829466 -127.723686 
L 463.154006 -127.866405 
L 462.701939 -127.943266 
L 462.117434 -128.007869 
L 461.393717 -128.047783 
L 460.864012 -128.124343 
L 460.239204 -128.507252 
L 459.622569 -128.50696 
L 459.250241 -128.785761 
L 458.83178 -128.872755 
L 458.168503 -129.062264 
L 457.643898 -129.201891 
L 457.204409 -129.386085 
L 456.558025 -129.371393 
L 455.831139 -129.736142 
L 455.367029 -129.784888 
L 454.782231 -129.980026 
L 454.265738 -130.160148 
L 453.934406 -130.21333 
L 453.162373 -130.279699 
L 452.611363 -130.458665 
L 452.234866 -130.745621 
L 451.665338 -130.846068 
L 451.134988 -131.041207 
L 450.448639 -131.227547 
L 449.788952 -131.440972 
L 449.209933 -131.84011 
L 448.809243 -132.144309 
L 448.177572 -132.214724 
L 447.408872 -132.689469 
L 447.055306 -132.748214 
L 446.673331 -132.860331 
L 445.963157 -132.883795 
L 445.376621 -132.902322 
L 444.927925 -133.121943 
L 444.354249 -133.609116 
L 443.621865 -133.717029 
L 442.994484 -133.84696 
L 442.581781 -134.070016 
L 442.012935 -134.204103 
L 441.532492 -134.359025 
L 440.929332 -134.37542 
L 440.228652 -134.491026 
L 439.766566 -134.493001 
L 439.270038 -134.630397 
L 438.821704 -134.724692 
L 438.274378 -134.965215 
L 437.597081 -135.059486 
L 436.882454 -135.066752 
L 436.375588 -135.126055 
L 435.959405 -135.17281 
L 435.228499 -135.281791 
L 434.529684 -135.284688 
L 434.196992 -135.776911 
L 433.874146 -136.035421 
L 433.215044 -136.214072 
L 432.416314 -136.182706 
L 431.974336 -136.172685 
L 431.527219 -136.305371 
L 430.885941 -136.67881 
L 430.355099 -136.785928 
L 429.716495 -136.94746 
L 429.140582 -137.045567 
L 428.619972 -137.386507 
L 428.129882 -137.477847 
L 427.526386 -137.661284 
L 426.884722 -137.710698 
L 426.268481 -137.884507 
L 425.657043 -137.934704 
L 425.277063 -137.985233 
L 424.744448 -138.00852 
L 424.032877 -137.924526 
L 423.382541 -138.035171 
L 422.990934 -138.001728 
L 422.623291 -137.984868 
L 422.094297 -138.046279 
L 421.396995 -138.20905 
L 420.803619 -138.389586 
L 420.415017 -138.485141 
L 419.763088 -138.513312 
L 419.145698 -138.515369 
L 418.517225 -138.534496 
L 417.901741 -138.635537 
L 417.503899 -138.849573 
L 417.102258 -139.011637 
L 416.458891 -139.332585 
L 415.745976 -139.518448 
L 415.063636 -139.909916 
L 414.648426 -140.143835 
L 414.324234 -140.162411 
L 413.740723 -140.119495 
L 413.206033 -140.260258 
L 412.665445 -140.34713 
L 411.843377 -140.381786 
L 411.229779 -140.453889 
L 410.811471 -140.483619 
L 410.292944 -140.515766 
L 409.596198 -140.535571 
L 408.8261 -140.660784 
L 408.528993 -140.914581 
L 408.148909 -141.107199 
L 407.355038 -141.21894 
L 406.840257 -141.310877 
L 406.47204 -141.49077 
L 405.676642 -141.621615 
L 404.957981 -141.94943 
L 404.476895 -142.222101 
L 404.010409 -142.492014 
L 403.422107 -142.628526 
L 402.959605 -142.574315 
L 402.417673 -142.768281 
L 401.884034 -142.931367 
L 401.497024 -143.062575 
L 400.807096 -143.189645 
L 400.252883 -143.215531 
L 399.63808 -143.175651 
L 399.102086 -143.055764 
L 398.712083 -143.08629 
L 398.06689 -142.970978 
L 397.294508 -142.617195 
L 396.833482 -142.687789 
L 396.431916 -143.090685 
L 395.633942 -143.038029 
L 394.91532 -143.171702 
L 394.4188 -143.252845 
L 393.82687 -143.365813 
L 393.381736 -143.42575 
L 392.95544 -143.396174 
L 392.354223 -143.501784 
L 391.934376 -143.632011 
L 391.357277 -143.608623 
L 390.740594 -143.61419 
L 390.0748 -143.51612 
L 389.509005 -143.488173 
L 388.965622 -143.346874 
L 388.34066 -143.366237 
L 387.914305 -143.49776 
L 387.346997 -143.484243 
L 386.710779 -143.52739 
L 386.195632 -143.406481 
L 385.557159 -143.39461 
L 384.857012 -143.413961 
L 384.354247 -143.646849 
L 383.815105 -143.799539 
L 383.299968 -143.825946 
L 382.935033 -143.904269 
L 382.259363 -144.071749 
L 381.55524 -144.154126 
L 381.105128 -144.166374 
L 380.46886 -144.23266 
L 379.896016 -144.423371 
L 379.476702 -144.464893 
L 378.966055 -144.488184 
L 378.404014 -144.54702 
L 377.71758 -144.645003 
L 377.034237 -144.64589 
L 376.478376 -145.043783 
L 376.093286 -145.042202 
L 375.551486 -145.039185 
L 374.894649 -145.20385 
L 374.480453 -145.27299 
L 374.066658 -145.595299 
L 373.444241 -145.687747 
L 372.642849 -145.85886 
L 372.176981 -146.019512 
L 371.889146 -146.104635 
L 371.28495 -146.342823 
L 370.650933 -146.383396 
L 369.941247 -146.523512 
L 369.322996 -146.654101 
L 368.911727 -146.48908 
L 368.330041 -146.679859 
L 367.834054 -146.842206 
L 367.256448 -146.96017 
L 366.551855 -147.076655 
L 366.049955 -147.087035 
L 365.621942 -147.401976 
L 365.008303 -147.487139 
L 364.317702 -147.475148 
L 363.719185 -147.64473 
L 363.359677 -148.010993 
L 362.961404 -148.00254 
L 362.391536 -148.078198 
L 361.686992 -147.992541 
L 360.904547 -148.094328 
L 360.549935 -148.226133 
L 360.120808 -148.269345 
L 359.466257 -148.402562 
L 358.886849 -148.310296 
L 358.2469 -148.426262 
L 357.725607 -148.526641 
L 357.250497 -148.54512 
L 356.64532 -148.775738 
L 356.13156 -148.800908 
L 355.568632 -149.18547 
L 354.898304 -149.462726 
L 354.334181 -149.540179 
L 353.916155 -149.859995 
L 353.498984 -150.244889 
L 352.751356 -150.355565 
L 351.969002 -150.373222 
L 351.403008 -150.527876 
L 350.86882 -150.522261 
L 350.520858 -150.643559 
L 350.047592 -150.725531 
L 349.246812 -150.898058 
L 348.824558 -150.919449 
L 348.528815 -151.014152 
L 347.813524 -151.086755 
L 347.095645 -151.184913 
L 346.599404 -151.210147 
L 346.196235 -151.688647 
L 345.702141 -151.885678 
L 345.068467 -151.972873 
L 344.516727 -152.020516 
L 343.927658 -152.15471 
L 343.145553 -152.23837 
L 342.430808 -152.456898 
L 341.866748 -152.527303 
L 341.407413 -152.671856 
L 341.036972 -152.729189 
L 340.540922 -152.784183 
L 339.944315 -152.900911 
L 339.351195 -153.173955 
L 338.84696 -153.374705 
L 338.206015 -153.567925 
L 337.491498 -153.775216 
L 337.123451 -154.027733 
L 336.735113 -153.939806 
L 336.089352 -154.215511 
L 335.43408 -154.283572 
L 334.736541 -154.448479 
L 334.155456 -154.723337 
L 333.64387 -154.929495 
L 333.098611 -155.203461 
L 332.582783 -155.42294 
L 331.962535 -155.659678 
L 331.554217 -155.801251 
L 331.14876 -156.045725 
L 330.51005 -156.218096 
L 330.000281 -156.333767 
L 329.328087 -156.47615 
L 328.64205 -156.703172 
L 328.292992 -156.761359 
L 327.869375 -156.908776 
L 327.267156 -157.0741 
L 326.67726 -157.247587 
L 326.157092 -157.506805 
L 325.564372 -157.681574 
L 325.003348 -157.937839 
L 324.376306 -158.17941 
L 323.652604 -158.322964 
L 323.024565 -158.343287 
L 322.444311 -158.525904 
L 321.973832 -158.790956 
L 321.513062 -159.002995 
L 320.918945 -159.190415 
L 320.369285 -159.390997 
L 319.942439 -159.438799 
L 319.484047 -159.582701 
L 318.799331 -159.695148 
L 318.244479 -159.824196 
L 317.714446 -159.897968 
L 316.968632 -159.963321 
L 316.34534 -159.991317 
L 315.766763 -160.260906 
L 315.170798 -160.402028 
L 314.78165 -160.69169 
L 314.248987 -160.968849 
L 313.536117 -161.099308 
L 313.033151 -161.328004 
L 312.653465 -161.48002 
L 312.078522 -161.741391 
L 311.375181 -162.008494 
L 310.910133 -162.200327 
L 310.504921 -162.327217 
L 310.019684 -162.677327 
L 309.191879 -162.888082 
L 308.361522 -163.046099 
L 307.990704 -163.360603 
L 307.526116 -163.542608 
L 307.056671 -163.82659 
L 306.495853 -163.98858 
L 305.820326 -164.061601 
L 305.18733 -164.158892 
L 304.511296 -164.424806 
L 304.033545 -164.863406 
L 303.713102 -165.070532 
L 303.321479 -165.238744 
L 302.70746 -165.419688 
L 302.089478 -165.645332 
L 301.566162 -165.822777 
L 301.067028 -165.861505 
L 300.484118 -165.949495 
L 299.721454 -166.144849 
L 298.979728 -166.315136 
L 298.597599 -166.602692 
L 298.057295 -166.849753 
L 297.53196 -167.172994 
L 296.986341 -167.506275 
L 296.25442 -167.941934 
L 295.626023 -168.267702 
L 295.203225 -168.495834 
L 294.793042 -168.617951 
L 294.208801 -168.823215 
L 293.672955 -168.985046 
L 293.136185 -169.214659 
L 292.65112 -169.385679 
L 291.875691 -169.724964 
L 291.237895 -169.849726 
L 290.713584 -169.980957 
L 290.012906 -170.136404 
L 289.629911 -170.531445 
L 289.089705 -170.667289 
L 288.326299 -170.958868 
L 287.943729 -171.21531 
L 287.567617 -171.385159 
L 286.907062 -171.706155 
L 286.269357 -171.784365 
L 285.646249 -172.067829 
L 285.010775 -172.210731 
L 284.535536 -172.434483 
L 284.077171 -172.742347 
L 283.653434 -173.271411 
L 283.178978 -173.777346 
L 282.573229 -174.227477 
L 282.036697 -174.576933 
L 281.297088 -174.689496 
L 280.73811 -175.27098 
L 280.359476 -175.55751 
L 279.652287 -175.825539 
L 278.959456 -176.104816 
L 278.429736 -176.40804 
L 278.027662 -176.727558 
L 277.47271 -176.90322 
L 276.675499 -176.9908 
L 276.152866 -177.115898 
L 275.815669 -177.483875 
L 275.216261 -177.772819 
L 274.581614 -177.883884 
L 274.005834 -178.034465 
L 273.417037 -178.23909 
L 272.927753 -178.277546 
L 272.304618 -178.320093 
L 271.824719 -178.523389 
L 271.322978 -178.663553 
L 270.667124 -178.853915 
L 270.252049 -179.082227 
L 269.747319 -179.3627 
L 269.017512 -179.629602 
L 268.40641 -179.805939 
L 267.853251 -179.85895 
L 267.186442 -180.128203 
L 266.799075 -180.217598 
L 266.330233 -180.588715 
L 265.756799 -180.891982 
L 265.097358 -180.921185 
L 264.372219 -181.06126 
L 264.020739 -181.333148 
L 263.59435 -181.481407 
L 263.029847 -181.664357 
L 262.452255 -181.761837 
L 261.853299 -181.838517 
L 261.275564 -182.209358 
L 260.751415 -182.589156 
L 260.20218 -182.745485 
L 259.528432 -183.105447 
L 258.983148 -183.311385 
L 258.437346 -183.510571 
L 257.756798 -183.804187 
L 257.0922 -184.015062 
L 256.487867 -184.200499 
L 255.928281 -184.415245 
L 255.448722 -184.698059 
L 254.998244 -184.877885 
L 254.591437 -184.979609 
L 254.065776 -185.213222 
L 253.304914 -185.422723 
L 252.751164 -185.57102 
L 252.255364 -185.833471 
L 251.788466 -186.164349 
L 251.224541 -186.307985 
L 250.483256 -186.578978 
L 250.02608 -186.677833 
L 249.600449 -186.958712 
L 248.907089 -187.15705 
L 248.326528 -187.390306 
L 247.811289 -187.67442 
L 247.148702 -187.897791 
L 246.634945 -188.02975 
L 246.071325 -188.354989 
L 245.469005 -188.706997 
L 245.06652 -189.205427 
L 244.592462 -189.305296 
L 243.86443 -189.431701 
L 243.218786 -190.086156 
L 242.626427 -190.330355 
L 242.198431 -190.630829 
L 241.816002 -190.963719 
L 241.281932 -191.433574 
L 240.775909 -191.57793 
L 240.12378 -191.955873 
L 239.574889 -192.152703 
L 239.038059 -192.274928 
L 238.424113 -192.477299 
L 237.723612 -192.923852 
L 237.0737 -193.237151 
L 236.622121 -193.328194 
L 236.144675 -193.469029 
L 235.624544 -193.505468 
L 235.004214 -193.685452 
L 234.267288 -194.048056 
L 233.640648 -194.061365 
L 233.240967 -194.096474 
L 232.799235 -194.314194 
L 232.186638 -194.492195 
L 231.508398 -194.53646 
L 230.870244 -194.811632 
L 230.421443 -194.899809 
L 229.857682 -194.950715 
L 229.263609 -195.312912 
L 228.693797 -195.429128 
L 228.170472 -195.59554 
L 227.643221 -195.788839 
L 227.137339 -195.999498 
L 226.654577 -196.322841 
L 226.163088 -196.372081 
L 225.601261 -196.786249 
L 224.975898 -196.935956 
L 224.484335 -197.241972 
L 223.857902 -197.555904 
L 223.164411 -197.840962 
L 222.67779 -197.893112 
L 222.149012 -198.330571 
L 221.65114 -198.568393 
L 221.182623 -198.799219 
L 220.563954 -198.935211 
L 220.007044 -199.071624 
L 219.269229 -199.117212 
L 218.71355 -199.601412 
L 218.322057 -199.65491 
L 217.687534 -199.618039 
L 217.028145 -199.657962 
L 216.537052 -199.721004 
L 215.917182 -199.756464 
L 215.370619 -199.819896 
L 214.973035 -199.583437 
L 214.460795 -199.435429 
L 213.950402 -199.506403 
L 213.349346 -199.649608 
L 212.771289 -199.65878 
L 212.159243 -199.658764 
L 211.420749 -199.978791 
L 210.846352 -200.068999 
L 210.372985 -200.099187 
L 209.97379 -200.181713 
L 209.410221 -200.319029 
L 208.795166 -200.448591 
L 208.324053 -200.574809 
L 207.64828 -200.741157 
L 207.085119 -200.972222 
L 206.540047 -201.06748 
L 205.796366 -201.147369 
L 205.263331 -201.460814 
L 204.839002 -201.614239 
L 204.248999 -201.748624 
L 203.684369 -202.078353 
L 203.141081 -202.264233 
L 202.540966 -202.37278 
L 202.080414 -202.414707 
L 201.6708 -202.744694 
L 201.094483 -202.941088 
L 200.506168 -203.021989 
L 199.954169 -203.234052 
L 199.340677 -203.624805 
L 198.66468 -203.697003 
L 198.068977 -203.777002 
L 197.55996 -203.944186 
L 196.926321 -204.064829 
L 196.387514 -204.309536 
L 195.909938 -204.455744 
L 195.464405 -204.612317 
L 194.894406 -204.78514 
L 194.196263 -204.993611 
L 193.603504 -204.958601 
L 193.124152 -205.062585 
L 192.700755 -205.109127 
L 192.218189 -205.353071 
L 191.671287 -205.758474 
L 190.85607 -205.89011 
L 190.098004 -205.99237 
L 189.598249 -206.082789 
L 189.214083 -206.241978 
L 188.673953 -206.349896 
L 188.039042 -206.555737 
L 187.574435 -206.647973 
L 187.007181 -206.685823 
L 186.49894 -206.903352 
L 186.063323 -206.932416 
L 185.4442 -207.16721 
L 184.689752 -207.479405 
L 183.99153 -207.482286 
L 183.426089 -207.586552 
L 182.908708 -207.676286 
L 182.42373 -207.774274 
L 181.829343 -207.85944 
L 181.259886 -208.213378 
L 180.906546 -208.242379 
L 180.334838 -208.29758 
L 179.749846 -208.510099 
L 179.170664 -208.613151 
L 178.445197 -208.659649 
L 177.867457 -208.682054 
L 177.359375 -208.791539 
L 176.941844 -208.856478 
L 176.468543 -208.953942 
L 175.88824 -208.9313 
L 175.228625 -208.816733 
L 174.707098 -208.764559 
L 174.297308 -208.738216 
L 173.594459 -208.808648 
L 172.833515 -208.920874 
L 172.371111 -209.003583 
L 171.832437 -209.001573 
L 171.271264 -209.11085 
L 170.712174 -209.27553 
L 170.08727 -209.337447 
L 169.595357 -209.534845 
L 169.18898 -209.760476 
L 168.742615 -209.779152 
L 168.123603 -209.814523 
L 167.614954 -209.883699 
L 167.059522 -209.979926 
L 166.296597 -210.09491 
L 165.699233 -210.132912 
L 165.237179 -210.261484 
L 164.585283 -210.350967 
L 164.007085 -210.43831 
L 163.629134 -210.629182 
L 163.124459 -210.754961 
L 162.381533 -210.875948 
L 161.769085 -210.994825 
L 161.23057 -211.098233 
L 160.64512 -211.260535 
L 160.189136 -211.256115 
L 159.581726 -211.423886 
L 159.07069 -211.659056 
L 158.695588 -211.776015 
L 158.109405 -212.056555 
L 157.418926 -212.0953 
L 156.73099 -212.112847 
L 156.249736 -212.245521 
L 155.837675 -212.367128 
L 155.21976 -212.433588 
L 154.569751 -212.648193 
L 153.907735 -212.738471 
L 153.357446 -213.033956 
L 152.887897 -213.223944 
L 152.41674 -213.394959 
L 151.839417 -213.703222 
L 151.198156 -213.841612 
L 150.787331 -214.081293 
L 150.19118 -214.24251 
L 149.567669 -214.491404 
L 149.111408 -214.765814 
L 148.617493 -214.963764 
L 147.924722 -215.141351 
L 147.188693 -215.346477 
L 146.718765 -215.519278 
L 146.299263 -215.647479 
L 145.691391 -215.751944 
L 145.133658 -215.892957 
L 144.659971 -216.213768 
L 144.097864 -216.337664 
L 143.581881 -216.552878 
L 143.10162 -216.834105 
L 142.56993 -216.947303 
L 141.795578 -216.978704 
L 141.03563 -217.268835 
L 140.604746 -217.298474 
L 140.13571 -217.323307 
L 139.513862 -217.46979 
L 139.095399 -217.514679 
L 138.687099 -217.671942 
L 137.879568 -217.672642 
L 137.068226 -217.79402 
L 136.705937 -217.981325 
L 136.269603 -218.000924 
L 135.693404 -218.251612 
L 135.133825 -218.327415 
L 134.594712 -218.444644 
L 133.95208 -218.642596 
L 133.282358 -219.015683 
L 132.875333 -219.278914 
L 132.340407 -219.38086 
L 131.640487 -219.362115 
L 131.192407 -219.515002 
L 130.620328 -219.595662 
L 129.883486 -219.536554 
L 129.336306 -219.581403 
L 128.825256 -219.728814 
L 128.41085 -219.74397 
L 127.828192 -219.739185 
L 127.311123 -219.932094 
L 126.814051 -220.057172 
L 126.096515 -220.192412 
L 125.594041 -220.159119 
L 125.108852 -220.410361 
L 124.501171 -220.389141 
L 123.934547 -220.587386 
L 123.422091 -220.64747 
L 122.866032 -220.708459 
L 122.146249 -220.897318 
L 121.460892 -220.999299 
L 120.990728 -221.074566 
L 120.683791 -221.291315 
L 120.047939 -221.380567 
L 119.271808 -221.565231 
L 118.839457 -221.639102 
L 118.269924 -221.797292 
L 117.766052 -221.891905 
L 117.366125 -222.138267 
L 116.74838 -222.254163 
L 116.260936 -222.241074 
L 115.570954 -222.254847 
L 114.822069 -222.268281 
L 114.316782 -222.366368 
L 113.703025 -222.454378 
L 113.096819 -222.47957 
L 112.601347 -222.525953 
L 112.28629 -222.640167 
L 111.847748 -222.682894 
L 111.039283 -222.712492 
L 110.430897 -222.841883 
L 109.929519 -222.970667 
L 109.394012 -223.090786 
L 108.983578 -223.074549 
L 108.452943 -223.338299 
L 107.834703 -223.356614 
L 107.100813 -223.597704 
L 106.635787 -223.753774 
L 106.288772 -223.837737 
L 105.515221 -223.881038 
L 104.966208 -224.008735 
L 104.601972 -224.249353 
L 104.067622 -224.339064 
L 103.373488 -224.508833 
L 102.780808 -224.595663 
L 102.280494 -224.850024 
L 101.710257 -225.059493 
L 101.062069 -225.333027 
L 100.31622 -225.655591 
L 99.961265 -226.00961 
L 99.543178 -226.220209 
L 98.754097 -226.582294 
L 98.079639 -226.981282 
L 97.578395 -227.325423 
L 97.202789 -227.635408 
L 96.622825 -228.078696 
L 95.837862 -228.427335 
L 95.311097 -228.822167 
L 94.960871 -229.137264 
L 94.353332 -229.400561 
L 93.762851 -229.776566 
L 93.31732 -230.039497 
L 92.663039 -230.462031 
L 92.210287 -230.742132 
L 91.734468 -231.253547 
L 91.00367 -231.51038 
L 90.274233 -231.847435 
L 89.739536 -232.206215 
L 89.289118 -232.390625 
L 88.785966 -232.575877 
L 88.144876 -232.895395 
L 87.583216 -233.015446 
L 87.06728 -233.28828 
L 86.356441 -233.631549 
L 85.971131 -234.006103 
L 85.59722 -234.095039 
L 85.065399 -234.154553 
L 84.395192 -234.313125 
L 83.677171 -234.462071 
L 83.292279 -234.618257 
L 82.730585 -234.727409 
L 81.976373 -234.969663 
L 81.448423 -234.907307 
L 80.93593 -234.948167 
L 80.448703 -235.077077 
L 80.040936 -235.178623 
L 79.502036 -235.373917 
L 78.928576 -235.346353 
L 78.377407 -235.19325 
L 77.705885 -235.063829 
L 76.992698 -234.86057 
L 76.394233 -234.947905 
L 75.831218 -234.932332 
L 75.259026 -234.830891 
L 74.688504 -234.819531 
L 74.220203 -234.894136 
L 73.617256 -235.074768 
L 72.948059 -235.130394 
L 72.560446 -235.3468 
L 72.129773 -235.345705 
L 71.626694 -235.699556 
L 71.043375 -235.919508 
L 70.505847 -236.201966 
L 69.85995 -236.16392 
L 69.24161 -236.292976 
L 68.686239 -236.439861 
L 68.066576 -236.700684 
L 67.664047 -237.011373 
L 67.078941 -237.440991 
L 66.478413 -237.728099 
L 65.977979 -237.873398 
L 65.360241 -237.995186 
L 64.631183 -238.221882 
L 63.996308 -238.71523 
L 63.640429 -238.902356 
L 63.209617 -239.129251 
L 62.639363 -239.135941 
L 62.148473 -239.006021 
L 61.500599 -239.084687 
L 60.863565 -239.183215 
L 60.321739 -239.100593 
L 59.82593 -238.884987 
L 59.282328 -238.883589 
L 58.542214 -238.649049 
L 58.12625 -238.689538 
L 57.575772 -238.676429 
L 56.918995 -238.689361 
L 56.543926 -238.992203 
L 55.835747 -239.366381 
L 55.298291 -239.32527 
L 54.905236 -239.850169 
L 54.218999 -240.132458 
L 53.484555 -240.331802 
L 53.047734 -240.79931 
L 52.573961 -240.946143 
L 51.856701 -241.354806 
L 51.410295 -242.023011 
L 51.043724 -243.128399 
L 50.345495 -243.676818 
L 49.518015 -243.926054 
L 48.961728 -244.560831 
L 48.405997 -245.001842 
L 48.004198 -245.319501 
L 47.716307 -245.114715 
L 47.068137 -245.051551 
L 46.438806 -245.479823 
L 45.825493 -246.500166 
L 45.186801 -246.55106 
L 44.668654 -245.908109 
L 44.077949 -245.252321 
z
" style="stroke: #808080; stroke-opacity: 0.5"/>
    </defs>
    <g clip-path="url(#pbe159c44a1)">
     <use xlink:href="#m1056b1a55d" x="0" y="276.657188" style="fill: #808080; fill-opacity: 0.5; stroke: #808080; stroke-opacity: 0.5"/>
    </g>
   </g>
   <g id="line2d_29">
    <path d="M 44.077949 39.360972 
L 45.186801 36.392537 
L 45.825493 35.561078 
L 47.068137 35.885578 
L 47.716307 35.760142 
L 48.004198 35.580449 
L 48.961728 36.228808 
L 49.518015 36.752615 
L 50.345495 36.907192 
L 51.043724 37.424392 
L 51.410295 38.146308 
L 51.856701 38.625557 
L 53.047734 39.01969 
L 53.484555 39.38905 
L 54.905236 39.774545 
L 55.298291 40.08093 
L 55.835747 40.084807 
L 57.575772 40.710558 
L 59.82593 40.815491 
L 60.863565 40.752413 
L 62.148473 40.994805 
L 62.639363 40.910951 
L 63.209617 40.935705 
L 67.664047 42.417141 
L 68.066576 42.639362 
L 69.85995 43.04332 
L 70.505847 43.099354 
L 72.129773 43.771942 
L 72.560446 43.773455 
L 72.948059 43.975303 
L 74.220203 44.171725 
L 75.259026 44.37301 
L 76.394233 44.403508 
L 77.705885 44.541819 
L 79.502036 44.475626 
L 80.93593 44.805122 
L 83.677171 45.347946 
L 85.971131 45.856329 
L 86.356441 46.092424 
L 88.144876 46.762547 
L 90.274233 47.491959 
L 92.210287 48.296651 
L 94.960871 49.592407 
L 95.311097 49.891553 
L 95.837862 50.182809 
L 96.622825 50.471367 
L 98.754097 51.829777 
L 99.961265 52.299382 
L 100.31622 52.625079 
L 104.601972 54.305625 
L 104.966208 54.565414 
L 105.515221 54.741303 
L 107.100813 54.975084 
L 109.394012 55.475948 
L 110.430897 55.714604 
L 111.039283 55.822149 
L 112.28629 55.905263 
L 113.096819 56.120039 
L 115.570954 56.485863 
L 117.766052 56.815147 
L 121.460892 57.577677 
L 124.501171 57.94254 
L 126.096515 58.267821 
L 132.875333 59.34734 
L 133.95208 59.914367 
L 137.879568 60.838926 
L 139.095399 60.966271 
L 141.795578 61.596933 
L 143.10162 61.783187 
L 145.133658 62.518126 
L 145.691391 62.682306 
L 146.299263 62.740814 
L 147.188693 63.078542 
L 149.111408 63.492585 
L 149.567669 63.781408 
L 153.357446 65.160033 
L 153.907735 65.409641 
L 154.569751 65.574902 
L 155.21976 65.856386 
L 156.249736 66.07702 
L 156.73099 66.266259 
L 158.109405 66.37413 
L 159.581726 66.961961 
L 160.64512 67.110093 
L 165.237179 67.99122 
L 165.699233 68.258559 
L 167.059522 68.442085 
L 168.123603 68.711085 
L 169.18898 68.80606 
L 169.595357 68.952762 
L 170.712174 69.069298 
L 171.832437 69.375541 
L 173.594459 69.539207 
L 174.707098 69.590642 
L 177.867457 69.749172 
L 178.445197 69.883115 
L 180.334838 70.07178 
L 181.829343 70.37925 
L 182.908708 70.6384 
L 184.689752 70.786246 
L 187.007181 71.331075 
L 188.039042 71.429177 
L 190.098004 72.172373 
L 191.671287 72.37119 
L 192.700755 72.806476 
L 196.387514 73.675579 
L 196.926321 73.919317 
L 198.068977 74.16981 
L 203.141081 75.401141 
L 204.248999 75.929595 
L 208.795166 77.598792 
L 210.372985 77.932879 
L 211.420749 78.139247 
L 212.159243 78.373218 
L 213.349346 78.36531 
L 214.973035 78.701225 
L 215.370619 78.733189 
L 216.537052 79.121557 
L 218.71355 79.46634 
L 219.269229 79.746153 
L 220.563954 80.026687 
L 221.65114 80.331753 
L 223.164411 80.838151 
L 224.484335 81.185453 
L 224.975898 81.574224 
L 225.601261 81.737582 
L 226.163088 82.123625 
L 228.170472 82.934328 
L 228.693797 83.154697 
L 230.870244 83.637849 
L 231.508398 83.865038 
L 232.799235 84.188972 
L 233.640648 84.467788 
L 234.267288 84.492892 
L 241.816002 87.390174 
L 242.198431 87.767375 
L 243.86443 88.614927 
L 245.06652 89.00829 
L 245.469005 89.362918 
L 250.02608 91.352417 
L 250.483256 91.440085 
L 253.304914 92.649983 
L 254.998244 93.062058 
L 257.0922 93.99921 
L 258.983148 94.585493 
L 261.275564 95.762226 
L 261.853299 96.167714 
L 263.59435 96.694553 
L 265.097358 97.37702 
L 266.330233 97.783522 
L 266.799075 98.061169 
L 267.186442 98.14668 
L 267.853251 98.420611 
L 269.017512 98.67334 
L 270.252049 99.188629 
L 270.667124 99.466555 
L 271.322978 99.622521 
L 272.304618 100.095087 
L 273.417037 100.293634 
L 275.815669 101.09096 
L 276.152866 101.420848 
L 276.675499 101.64265 
L 278.027662 101.948109 
L 278.429736 102.264423 
L 280.73811 103.351913 
L 281.297088 103.706526 
L 282.036697 103.800947 
L 283.178978 104.551401 
L 284.535536 105.696945 
L 286.269357 106.476496 
L 287.567617 106.837779 
L 290.012906 108.275937 
L 290.713584 108.400379 
L 291.237895 108.629264 
L 291.875691 108.72952 
L 293.136185 109.311687 
L 294.208801 109.748115 
L 295.203225 110.278838 
L 295.626023 110.574291 
L 297.53196 111.560894 
L 298.057295 111.968743 
L 298.597599 112.159418 
L 298.979728 112.453961 
L 302.089478 113.223799 
L 305.18733 114.579486 
L 305.820326 114.620304 
L 307.056671 115.017657 
L 307.990704 115.441023 
L 308.361522 115.828301 
L 310.019684 116.17093 
L 310.504921 116.516827 
L 312.078522 117.075447 
L 314.78165 118.293551 
L 315.170798 118.769477 
L 318.244479 119.534705 
L 321.513062 120.31405 
L 323.024565 120.829203 
L 324.376306 120.914374 
L 325.564372 121.332587 
L 328.64205 122.052268 
L 332.582783 123.55986 
L 334.155456 124.271013 
L 335.43408 124.899903 
L 336.089352 125.013155 
L 336.735113 125.297367 
L 337.123451 125.339788 
L 337.491498 125.529909 
L 338.84696 125.861261 
L 339.944315 126.169647 
L 341.407413 126.525953 
L 342.430808 126.798316 
L 343.927658 127.100407 
L 347.813524 127.618646 
L 349.246812 127.760622 
L 350.86882 128.093937 
L 352.751356 128.34896 
L 353.498984 128.417577 
L 353.916155 128.624134 
L 354.334181 128.985346 
L 355.568632 129.278825 
L 356.13156 129.535874 
L 356.64532 129.505553 
L 357.725607 129.846397 
L 358.886849 129.954309 
L 359.466257 129.913003 
L 361.686992 130.42264 
L 363.359677 130.452956 
L 363.719185 130.687208 
L 364.317702 130.915268 
L 365.621942 131.054851 
L 366.049955 131.236073 
L 367.256448 131.318708 
L 374.066658 132.325463 
L 375.551486 132.896641 
L 378.966055 133.55488 
L 379.896016 133.670492 
L 381.105128 133.801865 
L 382.259363 133.840259 
L 385.557159 134.304295 
L 388.965622 134.811074 
L 391.934376 134.690742 
L 392.354223 134.852448 
L 393.82687 135.013521 
L 394.91532 135.208058 
L 397.294508 135.56886 
L 398.712083 135.326917 
L 399.63808 135.397654 
L 401.884034 135.842261 
L 404.476895 136.652207 
L 405.676642 137.124995 
L 406.47204 137.179102 
L 406.840257 137.339222 
L 408.148909 137.52543 
L 408.8261 137.88716 
L 410.811471 138.104462 
L 413.740723 138.629533 
L 414.648426 138.704633 
L 415.745976 139.371772 
L 417.102258 139.824564 
L 417.503899 140.105315 
L 418.517225 140.270719 
L 424.032877 141.262788 
L 426.268481 141.506361 
L 429.140582 142.274626 
L 430.355099 142.548548 
L 430.885941 142.592451 
L 431.974336 143.030958 
L 434.196992 143.477133 
L 434.529684 143.783524 
L 436.375588 144.095202 
L 436.882454 144.324071 
L 438.274378 144.501537 
L 440.929332 145.027971 
L 442.581781 145.314649 
L 442.994484 145.506884 
L 444.927925 145.979501 
L 445.376621 146.179778 
L 447.408872 146.586706 
L 448.177572 146.900526 
L 448.809243 146.995725 
L 449.788952 147.480929 
L 451.134988 147.761804 
L 452.611363 148.329246 
L 454.782231 148.976622 
L 456.558025 149.545131 
L 457.204409 149.673484 
L 458.168503 150.024483 
L 460.864012 150.64672 
L 465.545639 151.573705 
L 465.929166 151.841683 
L 467.610844 152.187684 
L 468.595324 152.480796 
L 470.887067 153.23345 
L 473.94162 154.788413 
L 474.353772 154.980199 
L 474.687121 155.33356 
L 476.071568 155.86114 
L 476.706906 156.045043 
L 477.280972 156.37965 
L 477.601282 156.753526 
L 478.887482 157.305753 
L 479.606057 157.998676 
L 480.525987 158.550049 
L 483.158754 160.170996 
L 486.452769 161.843013 
L 486.957008 162.190945 
L 488.457724 162.973023 
L 489.001186 163.340779 
L 489.387308 163.757388 
L 489.968046 164.075904 
L 490.790657 164.3881 
L 492.758222 165.658993 
L 493.082217 166.167165 
L 493.829513 166.4915 
L 494.366509 166.892317 
L 497.424858 168.521117 
L 497.792955 168.937104 
L 499.906723 169.726096 
L 500.501749 170.15509 
L 503.455002 171.216952 
L 503.818417 171.624795 
L 506.086826 172.799364 
L 510.076397 173.987919 
L 513.396489 175.975059 
L 514.061683 176.258263 
L 514.666795 176.680146 
L 515.133995 177.233452 
L 515.516732 177.41998 
L 516.64308 178.266722 
L 517.815298 179.002164 
L 518.440593 179.430125 
L 519.493934 180.044531 
L 520.042852 180.471337 
L 520.818827 180.931953 
L 523.545294 183.244642 
L 524.709123 183.863772 
L 526.675913 185.795328 
L 527.113485 186.123272 
L 527.892512 186.413099 
L 529.492447 187.578072 
L 531.427229 188.182498 
L 532.822436 189.124646 
L 533.548681 189.225962 
L 534.058232 189.548307 
L 535.118125 189.868774 
L 536.243303 190.435105 
L 536.78789 190.68092 
L 537.906243 190.892636 
L 538.916723 191.299911 
L 541.008674 191.969288 
L 541.486813 192.379169 
L 544.21448 193.405085 
L 548.01208 194.12374 
L 550.23855 194.668652 
L 552.463555 194.815614 
L 553.123744 194.745031 
L 553.646534 194.886881 
L 554.663403 194.857987 
L 555.1089 194.982845 
L 555.80007 195.346175 
L 558.046621 195.737175 
L 559.841236 196.447691 
L 561.329358 196.696588 
L 563.84856 196.662127 
L 564.186911 196.499112 
L 565.930622 196.14506 
L 567.45354 195.883323 
L 568.555552 195.795522 
L 569.962738 195.621309 
L 571.008149 195.616933 
L 571.58269 195.545426 
L 572.109936 195.63578 
L 572.529928 195.869141 
L 573.038419 195.791662 
L 573.662484 195.940216 
L 574.82251 195.902146 
L 575.413804 196.009442 
L 576.492812 196.689272 
L 577.276877 196.982013 
L 577.64551 197.310269 
L 577.987863 197.819989 
L 578.634338 198.103706 
L 579.204242 198.558693 
L 579.843512 198.905001 
L 580.384493 199.056041 
L 580.807727 199.376831 
L 581.491234 199.63666 
L 583.192024 201.026215 
L 584.420472 201.920731 
L 585.600515 202.811381 
L 586.649615 203.708871 
L 587.5649 204.719107 
L 588.960015 205.595494 
L 589.433076 206.206116 
L 590.56177 207.081218 
L 591.075716 207.709949 
L 592.101545 209.431005 
L 594.201915 212.059165 
L 595.568839 213.297342 
L 596.757152 214.011053 
L 597.728132 215.355372 
L 598.161029 216.017667 
L 599.933829 217.709944 
L 600.624607 218.834021 
L 601.043543 219.021959 
L 601.298652 216.458056 
L 601.298652 216.458056 
" clip-path="url(#pbe159c44a1)" style="fill: none; stroke: #1f77b4; stroke-width: 1.5; stroke-linecap: round"/>
   </g>
   <g id="patch_3">
    <path d="M 43.585938 243.549375 
L 43.585938 21.789375 
" style="fill: none; stroke: #cccccc; stroke-linejoin: miter; stroke-linecap: square"/>
   </g>
   <g id="patch_4">
    <path d="M 601.585938 243.549375 
L 601.585938 21.789375 
" style="fill: none; stroke: #cccccc; stroke-linejoin: miter; stroke-linecap: square"/>
   </g>
   <g id="patch_5">
    <path d="M 43.585938 243.549375 
L 601.585938 243.549375 
" style="fill: none; stroke: #cccccc; stroke-linejoin: miter; stroke-linecap: square"/>
   </g>
   <g id="patch_6">
    <path d="M 43.585938 21.789375 
L 601.585938 21.789375 
" style="fill: none; stroke: #cccccc; stroke-linejoin: miter; stroke-linecap: square"/>
   </g>
   <g id="text_17">
    <!-- whale hunt -->
    <g style="fill: #262626" transform="translate(293.566562 15.789375) scale(0.12 -0.12)">
     <defs>
      <path id="ArialMT-20" transform="scale(0.015625)"/>
      <path id="ArialMT-75" d="M 2597 0 
L 2597 488 
Q 2209 -75 1544 -75 
Q 1250 -75 995 37 
Q 741 150 617 320 
Q 494 491 444 738 
Q 409 903 409 1263 
L 409 3319 
L 972 3319 
L 972 1478 
Q 972 1038 1006 884 
Q 1059 663 1231 536 
Q 1403 409 1656 409 
Q 1909 409 2131 539 
Q 2353 669 2445 892 
Q 2538 1116 2538 1541 
L 2538 3319 
L 3100 3319 
L 3100 0 
L 2597 0 
z
" transform="scale(0.015625)"/>
      <path id="ArialMT-74" d="M 1650 503 
L 1731 6 
Q 1494 -44 1306 -44 
Q 1000 -44 831 53 
Q 663 150 594 308 
Q 525 466 525 972 
L 525 2881 
L 113 2881 
L 113 3319 
L 525 3319 
L 525 4141 
L 1084 4478 
L 1084 3319 
L 1650 3319 
L 1650 2881 
L 1084 2881 
L 1084 941 
Q 1084 700 1114 631 
Q 1144 563 1211 522 
Q 1278 481 1403 481 
Q 1497 481 1650 503 
z
" transform="scale(0.015625)"/>
     </defs>
     <use xlink:href="#ArialMT-77"/>
     <use xlink:href="#ArialMT-68" transform="translate(72.216797 0)"/>
     <use xlink:href="#ArialMT-61" transform="translate(127.832031 0)"/>
     <use xlink:href="#ArialMT-6c" transform="translate(183.447266 0)"/>
     <use xlink:href="#ArialMT-65" transform="translate(205.664062 0)"/>
     <use xlink:href="#ArialMT-20" transform="translate(261.279297 0)"/>
     <use xlink:href="#ArialMT-68" transform="translate(289.0625 0)"/>
     <use xlink:href="#ArialMT-75" transform="translate(344.677734 0)"/>
     <use xlink:href="#ArialMT-6e" transform="translate(400.292969 0)"/>
     <use xlink:href="#ArialMT-74" transform="translate(455.908203 0)"/>
    </g>
   </g>
  </g>
 </g>
 <defs>
  <clipPath id="pbe159c44a1">
   <rect x="43.585938" y="21.789375" width="558" height="221.76"/>
  </clipPath>
 </defs>
</svg>
