<?xml version="1.0" encoding="utf-8" standalone="no"?>
<!DOCTYPE svg PUBLIC "-//W3C//DTD SVG 1.1//EN"
  "http://www.w3.org/Graphics/SVG/1.1/DTD/svg11.dtd">
<svg xmlns:xlink="http://www.w3.org/1999/xlink" width="627.248125pt" height="283.57pt" viewBox="0 0 627.248125 283.57" xmlns="http://www.w3.org/2000/svg" version="1.1">
 <metadata>
  <rdf:RDF xmlns:dc="http://purl.org/dc/elements/1.1/" xmlns:cc="http://creativecommons.org/ns#" xmlns:rdf="http://www.w3.org/1999/02/22-rdf-syntax-ns#">
   <cc:Work>
    <dc:type rdf:resource="http://purl.org/dc/dcmitype/StillImage"/>
    <dc:date>2024-03-18T11:20:32.375878</dc:date>
    <dc:format>image/svg+xml</dc:format>
    <dc:creator>
     <cc:Agent>
      <dc:title>Matplotlib v3.8.3, https://matplotlib.org/</dc:title>
     </cc:Agent>
    </dc:creator>
   </cc:Work>
  </rdf:RDF>
 </metadata>
 <defs>
  <style type="text/css">*{stroke-linejoin: round; stroke-linecap: butt}</style>
 </defs>
 <g id="figure_1">
  <g id="patch_1">
   <path d="M 0 283.57 
L 627.248125 283.57 
L 627.248125 0 
L 0 0 
z
" style="fill: #ffffff"/>
  </g>
  <g id="axes_1">
   <g id="patch_2">
    <path d="M 54.096563 244.078125 
L 612.096563 244.078125 
L 612.096563 22.318125 
L 54.096563 22.318125 
z
" style="fill: #e5e5e5"/>
   </g>
   <g id="matplotlib.axis_1">
    <g id="xtick_1">
     <g id="line2d_1">
      <path d="M 54.096563 244.078125 
L 54.096563 22.318125 
" clip-path="url(#p35ff0576fa)" style="fill: none; stroke: #ffffff; stroke-width: 0.8; stroke-linecap: square"/>
     </g>
     <g id="line2d_2">
      <defs>
       <path id="m2ef1cba6f8" d="M 0 0 
L 0 3.5 
" style="stroke: #555555; stroke-width: 0.8"/>
      </defs>
      <g>
       <use xlink:href="#m2ef1cba6f8" x="54.096563" y="244.078125" style="fill: #555555; stroke: #555555; stroke-width: 0.8"/>
      </g>
     </g>
     <g id="text_1">
      <!-- 0.0 -->
      <g style="fill: #555555" transform="translate(46.145 258.676562) scale(0.1 -0.1)">
       <defs>
        <path id="DejaVuSans-30" d="M 2034 4250 
Q 1547 4250 1301 3770 
Q 1056 3291 1056 2328 
Q 1056 1369 1301 889 
Q 1547 409 2034 409 
Q 2525 409 2770 889 
Q 3016 1369 3016 2328 
Q 3016 3291 2770 3770 
Q 2525 4250 2034 4250 
z
M 2034 4750 
Q 2819 4750 3233 4129 
Q 3647 3509 3647 2328 
Q 3647 1150 3233 529 
Q 2819 -91 2034 -91 
Q 1250 -91 836 529 
Q 422 1150 422 2328 
Q 422 3509 836 4129 
Q 1250 4750 2034 4750 
z
" transform="scale(0.015625)"/>
        <path id="DejaVuSans-2e" d="M 684 794 
L 1344 794 
L 1344 0 
L 684 0 
L 684 794 
z
" transform="scale(0.015625)"/>
       </defs>
       <use xlink:href="#DejaVuSans-30"/>
       <use xlink:href="#DejaVuSans-2e" x="63.623047"/>
       <use xlink:href="#DejaVuSans-30" x="95.410156"/>
      </g>
     </g>
    </g>
    <g id="xtick_2">
     <g id="line2d_3">
      <path d="M 165.696563 244.078125 
L 165.696563 22.318125 
" clip-path="url(#p35ff0576fa)" style="fill: none; stroke: #ffffff; stroke-width: 0.8; stroke-linecap: square"/>
     </g>
     <g id="line2d_4">
      <g>
       <use xlink:href="#m2ef1cba6f8" x="165.696563" y="244.078125" style="fill: #555555; stroke: #555555; stroke-width: 0.8"/>
      </g>
     </g>
     <g id="text_2">
      <!-- 0.2 -->
      <g style="fill: #555555" transform="translate(157.745 258.676562) scale(0.1 -0.1)">
       <defs>
        <path id="DejaVuSans-32" d="M 1228 531 
L 3431 531 
L 3431 0 
L 469 0 
L 469 531 
Q 828 903 1448 1529 
Q 2069 2156 2228 2338 
Q 2531 2678 2651 2914 
Q 2772 3150 2772 3378 
Q 2772 3750 2511 3984 
Q 2250 4219 1831 4219 
Q 1534 4219 1204 4116 
Q 875 4013 500 3803 
L 500 4441 
Q 881 4594 1212 4672 
Q 1544 4750 1819 4750 
Q 2544 4750 2975 4387 
Q 3406 4025 3406 3419 
Q 3406 3131 3298 2873 
Q 3191 2616 2906 2266 
Q 2828 2175 2409 1742 
Q 1991 1309 1228 531 
z
" transform="scale(0.015625)"/>
       </defs>
       <use xlink:href="#DejaVuSans-30"/>
       <use xlink:href="#DejaVuSans-2e" x="63.623047"/>
       <use xlink:href="#DejaVuSans-32" x="95.410156"/>
      </g>
     </g>
    </g>
    <g id="xtick_3">
     <g id="line2d_5">
      <path d="M 277.296563 244.078125 
L 277.296563 22.318125 
" clip-path="url(#p35ff0576fa)" style="fill: none; stroke: #ffffff; stroke-width: 0.8; stroke-linecap: square"/>
     </g>
     <g id="line2d_6">
      <g>
       <use xlink:href="#m2ef1cba6f8" x="277.296563" y="244.078125" style="fill: #555555; stroke: #555555; stroke-width: 0.8"/>
      </g>
     </g>
     <g id="text_3">
      <!-- 0.4 -->
      <g style="fill: #555555" transform="translate(269.345 258.676562) scale(0.1 -0.1)">
       <defs>
        <path id="DejaVuSans-34" d="M 2419 4116 
L 825 1625 
L 2419 1625 
L 2419 4116 
z
M 2253 4666 
L 3047 4666 
L 3047 1625 
L 3713 1625 
L 3713 1100 
L 3047 1100 
L 3047 0 
L 2419 0 
L 2419 1100 
L 313 1100 
L 313 1709 
L 2253 4666 
z
" transform="scale(0.015625)"/>
       </defs>
       <use xlink:href="#DejaVuSans-30"/>
       <use xlink:href="#DejaVuSans-2e" x="63.623047"/>
       <use xlink:href="#DejaVuSans-34" x="95.410156"/>
      </g>
     </g>
    </g>
    <g id="xtick_4">
     <g id="line2d_7">
      <path d="M 388.896563 244.078125 
L 388.896563 22.318125 
" clip-path="url(#p35ff0576fa)" style="fill: none; stroke: #ffffff; stroke-width: 0.8; stroke-linecap: square"/>
     </g>
     <g id="line2d_8">
      <g>
       <use xlink:href="#m2ef1cba6f8" x="388.896563" y="244.078125" style="fill: #555555; stroke: #555555; stroke-width: 0.8"/>
      </g>
     </g>
     <g id="text_4">
      <!-- 0.6 -->
      <g style="fill: #555555" transform="translate(380.945 258.676562) scale(0.1 -0.1)">
       <defs>
        <path id="DejaVuSans-36" d="M 2113 2584 
Q 1688 2584 1439 2293 
Q 1191 2003 1191 1497 
Q 1191 994 1439 701 
Q 1688 409 2113 409 
Q 2538 409 2786 701 
Q 3034 994 3034 1497 
Q 3034 2003 2786 2293 
Q 2538 2584 2113 2584 
z
M 3366 4563 
L 3366 3988 
Q 3128 4100 2886 4159 
Q 2644 4219 2406 4219 
Q 1781 4219 1451 3797 
Q 1122 3375 1075 2522 
Q 1259 2794 1537 2939 
Q 1816 3084 2150 3084 
Q 2853 3084 3261 2657 
Q 3669 2231 3669 1497 
Q 3669 778 3244 343 
Q 2819 -91 2113 -91 
Q 1303 -91 875 529 
Q 447 1150 447 2328 
Q 447 3434 972 4092 
Q 1497 4750 2381 4750 
Q 2619 4750 2861 4703 
Q 3103 4656 3366 4563 
z
" transform="scale(0.015625)"/>
       </defs>
       <use xlink:href="#DejaVuSans-30"/>
       <use xlink:href="#DejaVuSans-2e" x="63.623047"/>
       <use xlink:href="#DejaVuSans-36" x="95.410156"/>
      </g>
     </g>
    </g>
    <g id="xtick_5">
     <g id="line2d_9">
      <path d="M 500.496563 244.078125 
L 500.496563 22.318125 
" clip-path="url(#p35ff0576fa)" style="fill: none; stroke: #ffffff; stroke-width: 0.8; stroke-linecap: square"/>
     </g>
     <g id="line2d_10">
      <g>
       <use xlink:href="#m2ef1cba6f8" x="500.496563" y="244.078125" style="fill: #555555; stroke: #555555; stroke-width: 0.8"/>
      </g>
     </g>
     <g id="text_5">
      <!-- 0.8 -->
      <g style="fill: #555555" transform="translate(492.545 258.676562) scale(0.1 -0.1)">
       <defs>
        <path id="DejaVuSans-38" d="M 2034 2216 
Q 1584 2216 1326 1975 
Q 1069 1734 1069 1313 
Q 1069 891 1326 650 
Q 1584 409 2034 409 
Q 2484 409 2743 651 
Q 3003 894 3003 1313 
Q 3003 1734 2745 1975 
Q 2488 2216 2034 2216 
z
M 1403 2484 
Q 997 2584 770 2862 
Q 544 3141 544 3541 
Q 544 4100 942 4425 
Q 1341 4750 2034 4750 
Q 2731 4750 3128 4425 
Q 3525 4100 3525 3541 
Q 3525 3141 3298 2862 
Q 3072 2584 2669 2484 
Q 3125 2378 3379 2068 
Q 3634 1759 3634 1313 
Q 3634 634 3220 271 
Q 2806 -91 2034 -91 
Q 1263 -91 848 271 
Q 434 634 434 1313 
Q 434 1759 690 2068 
Q 947 2378 1403 2484 
z
M 1172 3481 
Q 1172 3119 1398 2916 
Q 1625 2713 2034 2713 
Q 2441 2713 2670 2916 
Q 2900 3119 2900 3481 
Q 2900 3844 2670 4047 
Q 2441 4250 2034 4250 
Q 1625 4250 1398 4047 
Q 1172 3844 1172 3481 
z
" transform="scale(0.015625)"/>
       </defs>
       <use xlink:href="#DejaVuSans-30"/>
       <use xlink:href="#DejaVuSans-2e" x="63.623047"/>
       <use xlink:href="#DejaVuSans-38" x="95.410156"/>
      </g>
     </g>
    </g>
    <g id="xtick_6">
     <g id="line2d_11">
      <path d="M 612.096563 244.078125 
L 612.096563 22.318125 
" clip-path="url(#p35ff0576fa)" style="fill: none; stroke: #ffffff; stroke-width: 0.8; stroke-linecap: square"/>
     </g>
     <g id="line2d_12">
      <g>
       <use xlink:href="#m2ef1cba6f8" x="612.096563" y="244.078125" style="fill: #555555; stroke: #555555; stroke-width: 0.8"/>
      </g>
     </g>
     <g id="text_6">
      <!-- 1.0 -->
      <g style="fill: #555555" transform="translate(604.145 258.676562) scale(0.1 -0.1)">
       <defs>
        <path id="DejaVuSans-31" d="M 794 531 
L 1825 531 
L 1825 4091 
L 703 3866 
L 703 4441 
L 1819 4666 
L 2450 4666 
L 2450 531 
L 3481 531 
L 3481 0 
L 794 0 
L 794 531 
z
" transform="scale(0.015625)"/>
       </defs>
       <use xlink:href="#DejaVuSans-31"/>
       <use xlink:href="#DejaVuSans-2e" x="63.623047"/>
       <use xlink:href="#DejaVuSans-30" x="95.410156"/>
      </g>
     </g>
    </g>
    <g id="text_7">
     <!-- theta -->
     <g style="fill: #555555" transform="translate(317.220937 273.874375) scale(0.12 -0.12)">
      <defs>
       <path id="DejaVuSans-74" d="M 1172 4494 
L 1172 3500 
L 2356 3500 
L 2356 3053 
L 1172 3053 
L 1172 1153 
Q 1172 725 1289 603 
Q 1406 481 1766 481 
L 2356 481 
L 2356 0 
L 1766 0 
Q 1100 0 847 248 
Q 594 497 594 1153 
L 594 3053 
L 172 3053 
L 172 3500 
L 594 3500 
L 594 4494 
L 1172 4494 
z
" transform="scale(0.015625)"/>
       <path id="DejaVuSans-68" d="M 3513 2113 
L 3513 0 
L 2938 0 
L 2938 2094 
Q 2938 2591 2744 2837 
Q 2550 3084 2163 3084 
Q 1697 3084 1428 2787 
Q 1159 2491 1159 1978 
L 1159 0 
L 581 0 
L 581 4863 
L 1159 4863 
L 1159 2956 
Q 1366 3272 1645 3428 
Q 1925 3584 2291 3584 
Q 2894 3584 3203 3211 
Q 3513 2838 3513 2113 
z
" transform="scale(0.015625)"/>
       <path id="DejaVuSans-65" d="M 3597 1894 
L 3597 1613 
L 953 1613 
Q 991 1019 1311 708 
Q 1631 397 2203 397 
Q 2534 397 2845 478 
Q 3156 559 3463 722 
L 3463 178 
Q 3153 47 2828 -22 
Q 2503 -91 2169 -91 
Q 1331 -91 842 396 
Q 353 884 353 1716 
Q 353 2575 817 3079 
Q 1281 3584 2069 3584 
Q 2775 3584 3186 3129 
Q 3597 2675 3597 1894 
z
M 3022 2063 
Q 3016 2534 2758 2815 
Q 2500 3097 2075 3097 
Q 1594 3097 1305 2825 
Q 1016 2553 972 2059 
L 3022 2063 
z
" transform="scale(0.015625)"/>
       <path id="DejaVuSans-61" d="M 2194 1759 
Q 1497 1759 1228 1600 
Q 959 1441 959 1056 
Q 959 750 1161 570 
Q 1363 391 1709 391 
Q 2188 391 2477 730 
Q 2766 1069 2766 1631 
L 2766 1759 
L 2194 1759 
z
M 3341 1997 
L 3341 0 
L 2766 0 
L 2766 531 
Q 2569 213 2275 61 
Q 1981 -91 1556 -91 
Q 1019 -91 701 211 
Q 384 513 384 1019 
Q 384 1609 779 1909 
Q 1175 2209 1959 2209 
L 2766 2209 
L 2766 2266 
Q 2766 2663 2505 2880 
Q 2244 3097 1772 3097 
Q 1472 3097 1187 3025 
Q 903 2953 641 2809 
L 641 3341 
Q 956 3463 1253 3523 
Q 1550 3584 1831 3584 
Q 2591 3584 2966 3190 
Q 3341 2797 3341 1997 
z
" transform="scale(0.015625)"/>
      </defs>
      <use xlink:href="#DejaVuSans-74"/>
      <use xlink:href="#DejaVuSans-68" x="39.208984"/>
      <use xlink:href="#DejaVuSans-65" x="102.587891"/>
      <use xlink:href="#DejaVuSans-74" x="164.111328"/>
      <use xlink:href="#DejaVuSans-61" x="203.320312"/>
     </g>
    </g>
   </g>
   <g id="matplotlib.axis_2">
    <g id="ytick_1">
     <g id="line2d_13">
      <path d="M 54.096563 232.990125 
L 612.096563 232.990125 
" clip-path="url(#p35ff0576fa)" style="fill: none; stroke: #ffffff; stroke-width: 0.8; stroke-linecap: square"/>
     </g>
     <g id="line2d_14">
      <defs>
       <path id="mf1fb923ef7" d="M 0 0 
L -3.5 0 
" style="stroke: #555555; stroke-width: 0.8"/>
      </defs>
      <g>
       <use xlink:href="#mf1fb923ef7" x="54.096563" y="232.990125" style="fill: #555555; stroke: #555555; stroke-width: 0.8"/>
      </g>
     </g>
     <g id="text_8">
      <!-- −0.4 -->
      <g style="fill: #555555" transform="translate(22.81375 236.789344) scale(0.1 -0.1)">
       <defs>
        <path id="DejaVuSans-2212" d="M 678 2272 
L 4684 2272 
L 4684 1741 
L 678 1741 
L 678 2272 
z
" transform="scale(0.015625)"/>
       </defs>
       <use xlink:href="#DejaVuSans-2212"/>
       <use xlink:href="#DejaVuSans-30" x="83.789062"/>
       <use xlink:href="#DejaVuSans-2e" x="147.412109"/>
       <use xlink:href="#DejaVuSans-34" x="179.199219"/>
      </g>
     </g>
    </g>
    <g id="ytick_2">
     <g id="line2d_15">
      <path d="M 54.096563 188.638125 
L 612.096563 188.638125 
" clip-path="url(#p35ff0576fa)" style="fill: none; stroke: #ffffff; stroke-width: 0.8; stroke-linecap: square"/>
     </g>
     <g id="line2d_16">
      <g>
       <use xlink:href="#mf1fb923ef7" x="54.096563" y="188.638125" style="fill: #555555; stroke: #555555; stroke-width: 0.8"/>
      </g>
     </g>
     <g id="text_9">
      <!-- −0.2 -->
      <g style="fill: #555555" transform="translate(22.81375 192.437344) scale(0.1 -0.1)">
       <use xlink:href="#DejaVuSans-2212"/>
       <use xlink:href="#DejaVuSans-30" x="83.789062"/>
       <use xlink:href="#DejaVuSans-2e" x="147.412109"/>
       <use xlink:href="#DejaVuSans-32" x="179.199219"/>
      </g>
     </g>
    </g>
    <g id="ytick_3">
     <g id="line2d_17">
      <path d="M 54.096563 144.286125 
L 612.096563 144.286125 
" clip-path="url(#p35ff0576fa)" style="fill: none; stroke: #ffffff; stroke-width: 0.8; stroke-linecap: square"/>
     </g>
     <g id="line2d_18">
      <g>
       <use xlink:href="#mf1fb923ef7" x="54.096563" y="144.286125" style="fill: #555555; stroke: #555555; stroke-width: 0.8"/>
      </g>
     </g>
     <g id="text_10">
      <!-- 0.0 -->
      <g style="fill: #555555" transform="translate(31.193438 148.085344) scale(0.1 -0.1)">
       <use xlink:href="#DejaVuSans-30"/>
       <use xlink:href="#DejaVuSans-2e" x="63.623047"/>
       <use xlink:href="#DejaVuSans-30" x="95.410156"/>
      </g>
     </g>
    </g>
    <g id="ytick_4">
     <g id="line2d_19">
      <path d="M 54.096563 99.934125 
L 612.096563 99.934125 
" clip-path="url(#p35ff0576fa)" style="fill: none; stroke: #ffffff; stroke-width: 0.8; stroke-linecap: square"/>
     </g>
     <g id="line2d_20">
      <g>
       <use xlink:href="#mf1fb923ef7" x="54.096563" y="99.934125" style="fill: #555555; stroke: #555555; stroke-width: 0.8"/>
      </g>
     </g>
     <g id="text_11">
      <!-- 0.2 -->
      <g style="fill: #555555" transform="translate(31.193438 103.733344) scale(0.1 -0.1)">
       <use xlink:href="#DejaVuSans-30"/>
       <use xlink:href="#DejaVuSans-2e" x="63.623047"/>
       <use xlink:href="#DejaVuSans-32" x="95.410156"/>
      </g>
     </g>
    </g>
    <g id="ytick_5">
     <g id="line2d_21">
      <path d="M 54.096563 55.582125 
L 612.096563 55.582125 
" clip-path="url(#p35ff0576fa)" style="fill: none; stroke: #ffffff; stroke-width: 0.8; stroke-linecap: square"/>
     </g>
     <g id="line2d_22">
      <g>
       <use xlink:href="#mf1fb923ef7" x="54.096563" y="55.582125" style="fill: #555555; stroke: #555555; stroke-width: 0.8"/>
      </g>
     </g>
     <g id="text_12">
      <!-- 0.4 -->
      <g style="fill: #555555" transform="translate(31.193438 59.381344) scale(0.1 -0.1)">
       <use xlink:href="#DejaVuSans-30"/>
       <use xlink:href="#DejaVuSans-2e" x="63.623047"/>
       <use xlink:href="#DejaVuSans-34" x="95.410156"/>
      </g>
     </g>
    </g>
    <g id="text_13">
     <!-- score -->
     <g style="fill: #555555" transform="translate(16.318125 149.3175) rotate(-90) scale(0.12 -0.12)">
      <defs>
       <path id="DejaVuSans-73" d="M 2834 3397 
L 2834 2853 
Q 2591 2978 2328 3040 
Q 2066 3103 1784 3103 
Q 1356 3103 1142 2972 
Q 928 2841 928 2578 
Q 928 2378 1081 2264 
Q 1234 2150 1697 2047 
L 1894 2003 
Q 2506 1872 2764 1633 
Q 3022 1394 3022 966 
Q 3022 478 2636 193 
Q 2250 -91 1575 -91 
Q 1294 -91 989 -36 
Q 684 19 347 128 
L 347 722 
Q 666 556 975 473 
Q 1284 391 1588 391 
Q 1994 391 2212 530 
Q 2431 669 2431 922 
Q 2431 1156 2273 1281 
Q 2116 1406 1581 1522 
L 1381 1569 
Q 847 1681 609 1914 
Q 372 2147 372 2553 
Q 372 3047 722 3315 
Q 1072 3584 1716 3584 
Q 2034 3584 2315 3537 
Q 2597 3491 2834 3397 
z
" transform="scale(0.015625)"/>
       <path id="DejaVuSans-63" d="M 3122 3366 
L 3122 2828 
Q 2878 2963 2633 3030 
Q 2388 3097 2138 3097 
Q 1578 3097 1268 2742 
Q 959 2388 959 1747 
Q 959 1106 1268 751 
Q 1578 397 2138 397 
Q 2388 397 2633 464 
Q 2878 531 3122 666 
L 3122 134 
Q 2881 22 2623 -34 
Q 2366 -91 2075 -91 
Q 1284 -91 818 406 
Q 353 903 353 1747 
Q 353 2603 823 3093 
Q 1294 3584 2113 3584 
Q 2378 3584 2631 3529 
Q 2884 3475 3122 3366 
z
" transform="scale(0.015625)"/>
       <path id="DejaVuSans-6f" d="M 1959 3097 
Q 1497 3097 1228 2736 
Q 959 2375 959 1747 
Q 959 1119 1226 758 
Q 1494 397 1959 397 
Q 2419 397 2687 759 
Q 2956 1122 2956 1747 
Q 2956 2369 2687 2733 
Q 2419 3097 1959 3097 
z
M 1959 3584 
Q 2709 3584 3137 3096 
Q 3566 2609 3566 1747 
Q 3566 888 3137 398 
Q 2709 -91 1959 -91 
Q 1206 -91 779 398 
Q 353 888 353 1747 
Q 353 2609 779 3096 
Q 1206 3584 1959 3584 
z
" transform="scale(0.015625)"/>
       <path id="DejaVuSans-72" d="M 2631 2963 
Q 2534 3019 2420 3045 
Q 2306 3072 2169 3072 
Q 1681 3072 1420 2755 
Q 1159 2438 1159 1844 
L 1159 0 
L 581 0 
L 581 3500 
L 1159 3500 
L 1159 2956 
Q 1341 3275 1631 3429 
Q 1922 3584 2338 3584 
Q 2397 3584 2469 3576 
Q 2541 3569 2628 3553 
L 2631 2963 
z
" transform="scale(0.015625)"/>
      </defs>
      <use xlink:href="#DejaVuSans-73"/>
      <use xlink:href="#DejaVuSans-63" x="52.099609"/>
      <use xlink:href="#DejaVuSans-6f" x="107.080078"/>
      <use xlink:href="#DejaVuSans-72" x="168.261719"/>
      <use xlink:href="#DejaVuSans-65" x="207.125"/>
     </g>
    </g>
   </g>
   <g id="PolyCollection_1">
    <defs>
     <path id="m699054530b" d="M 54.620716 -251.542573 
L 54.620716 -246.215862 
L 55.260942 -246.674533 
L 55.641843 -247.118178 
L 56.166229 -247.348888 
L 56.68544 -246.962942 
L 57.462003 -246.216905 
L 58.132494 -245.734904 
L 58.581281 -244.921441 
L 59.057241 -244.425821 
L 59.558512 -243.848636 
L 60.258996 -243.250987 
L 60.806527 -243.0449 
L 61.390484 -242.881162 
L 61.952753 -242.931005 
L 62.37214 -243.36237 
L 62.856374 -243.560533 
L 63.481238 -243.85407 
L 64.118236 -244.023224 
L 64.607598 -244.202474 
L 65.274741 -244.542893 
L 65.865339 -244.519698 
L 66.260804 -244.558925 
L 66.865071 -244.61104 
L 67.428536 -244.671473 
L 67.882661 -244.519663 
L 68.460692 -244.311263 
L 69.149338 -244.266595 
L 69.813241 -244.041855 
L 70.325877 -243.902664 
L 70.715209 -243.736656 
L 71.312648 -243.68862 
L 71.98262 -243.424064 
L 72.432359 -243.389419 
L 72.91749 -243.142282 
L 73.488364 -243.078237 
L 74.142327 -243.025886 
L 74.857011 -243.069836 
L 75.403051 -243.076587 
L 75.850531 -243.25907 
L 76.440942 -243.300324 
L 76.915079 -243.509861 
L 77.344802 -243.678572 
L 77.941219 -243.596794 
L 78.672329 -243.308618 
L 79.311645 -243.115232 
L 79.906697 -243.395142 
L 80.300582 -243.243338 
L 80.622173 -243.089918 
L 81.455086 -243.160062 
L 82.004364 -243.175231 
L 82.342879 -243.240366 
L 83.057815 -243.238958 
L 83.757824 -243.438137 
L 84.255037 -243.502168 
L 84.874378 -243.612405 
L 85.529888 -243.639358 
L 85.948082 -243.809895 
L 86.564206 -243.688703 
L 87.204158 -243.800225 
L 87.774164 -243.971722 
L 88.157888 -244.279026 
L 88.588792 -244.508406 
L 89.362926 -244.735173 
L 89.974789 -244.956221 
L 90.370259 -245.26194 
L 90.749336 -245.442096 
L 91.441423 -245.610951 
L 92.065033 -245.484127 
L 92.423255 -245.680171 
L 93.143532 -245.951327 
L 93.759377 -246.260878 
L 94.083125 -246.167313 
L 94.619314 -246.448964 
L 95.391561 -246.515917 
L 95.929876 -246.701425 
L 96.459297 -246.848212 
L 97.121865 -246.967349 
L 97.68514 -246.946806 
L 98.247015 -247.10766 
L 98.80135 -246.990912 
L 99.469269 -247.0652 
L 99.932244 -247.064034 
L 100.412306 -247.123803 
L 100.964518 -247.149073 
L 101.447613 -247.331182 
L 102.119543 -247.615824 
L 102.831745 -247.712289 
L 103.213364 -247.596764 
L 103.536348 -247.582527 
L 104.270917 -247.484403 
L 104.818029 -247.627182 
L 105.325036 -247.525853 
L 106.104643 -247.546097 
L 106.630592 -247.555485 
L 107.237197 -247.736429 
L 107.800816 -247.939891 
L 108.31867 -248.151284 
L 108.796103 -248.242302 
L 109.319535 -248.43941 
L 110.036085 -248.685595 
L 110.551661 -248.755564 
L 111.088055 -248.755371 
L 111.757783 -249.007142 
L 112.387503 -249.1235 
L 112.94966 -249.177988 
L 113.45151 -249.09621 
L 113.887863 -249.440881 
L 114.329159 -249.610196 
L 114.935474 -249.796792 
L 115.601616 -249.891908 
L 116.18587 -249.916526 
L 116.596406 -250.007949 
L 117.094258 -250.158852 
L 117.696732 -250.264513 
L 118.219001 -250.307423 
L 118.691773 -250.270509 
L 119.17221 -250.428589 
L 119.768341 -250.639126 
L 120.321051 -250.654645 
L 121.097595 -250.738796 
L 121.853594 -250.814562 
L 122.400235 -250.72232 
L 122.810692 -250.751838 
L 123.227595 -250.762769 
L 123.773759 -250.838279 
L 124.282692 -250.710567 
L 124.847304 -250.59824 
L 125.384389 -250.59728 
L 126.104386 -250.469943 
L 126.847519 -250.294029 
L 127.370058 -250.314485 
L 127.806163 -250.127031 
L 128.378317 -250.158243 
L 128.86217 -250.233381 
L 129.383275 -250.12332 
L 130.097854 -250.272618 
L 130.538834 -250.135122 
L 131.054146 -250.211161 
L 131.783492 -250.251905 
L 132.443739 -250.093797 
L 132.932155 -250.144344 
L 133.260299 -250.05863 
L 133.879713 -250.095893 
L 134.684975 -250.0041 
L 135.05425 -250.053943 
L 135.361769 -249.935226 
L 136.054505 -249.960526 
L 136.635374 -249.885956 
L 137.015902 -249.90341 
L 137.785023 -249.846883 
L 138.518186 -249.906045 
L 139.0868 -249.988744 
L 139.515453 -250.007706 
L 139.968235 -249.874755 
L 140.689428 -249.944328 
L 141.317671 -249.999212 
L 141.766193 -249.95211 
L 142.251905 -249.826927 
L 142.807921 -249.697493 
L 143.387217 -249.766234 
L 144.019027 -249.753518 
L 144.545192 -249.822238 
L 145.158087 -249.264959 
L 145.755009 -249.2299 
L 146.078981 -248.946303 
L 146.726108 -248.864852 
L 147.470945 -248.52894 
L 147.807707 -248.302001 
L 148.242535 -248.082989 
L 148.817976 -247.886003 
L 149.466362 -247.788458 
L 149.963529 -247.549496 
L 150.400939 -247.566293 
L 151.170123 -247.217421 
L 151.785988 -247.050921 
L 152.184346 -246.818726 
L 152.766608 -246.652498 
L 153.442008 -246.507156 
L 153.983519 -246.354987 
L 154.575829 -246.298893 
L 155.301859 -246.123881 
L 155.802526 -246.171286 
L 156.323198 -245.646253 
L 156.927408 -245.723573 
L 157.270309 -245.687226 
L 157.824182 -245.652701 
L 158.564898 -245.307692 
L 159.056804 -245.103836 
L 159.58616 -245.109512 
L 160.019598 -244.892777 
L 160.535379 -244.837712 
L 161.136211 -244.798955 
L 161.593476 -244.797768 
L 162.278896 -244.653923 
L 163.067882 -244.464666 
L 163.529696 -244.55454 
L 163.846895 -244.165771 
L 164.575131 -244.137834 
L 165.231376 -244.121975 
L 165.541193 -243.838431 
L 166.090703 -243.946052 
L 166.725868 -243.828377 
L 167.295014 -243.898114 
L 168.018046 -243.947886 
L 168.675008 -243.70436 
L 169.016721 -243.537464 
L 169.53547 -243.531339 
L 170.284801 -243.354397 
L 170.707572 -243.008045 
L 171.124942 -242.887669 
L 171.871605 -242.736237 
L 172.452202 -242.699363 
L 173.054543 -242.476705 
L 173.756068 -242.297258 
L 174.125922 -242.197111 
L 174.625213 -241.841558 
L 175.284434 -241.793297 
L 175.85644 -241.823745 
L 176.337061 -241.7183 
L 176.718002 -241.81004 
L 177.225244 -241.708416 
L 177.909551 -241.553104 
L 178.546345 -241.564609 
L 179.036777 -241.389524 
L 179.529486 -241.237423 
L 180.085018 -241.061959 
L 180.814325 -241.046401 
L 181.390857 -241.046752 
L 181.87131 -240.782098 
L 182.409149 -240.539516 
L 182.851195 -240.377498 
L 183.550679 -239.88163 
L 184.280396 -239.612303 
L 184.644296 -239.435869 
L 184.998146 -239.345486 
L 185.662242 -239.148976 
L 186.465124 -238.89802 
L 187.148254 -238.490911 
L 187.669827 -238.190057 
L 188.02327 -237.644069 
L 188.438654 -237.399634 
L 189.021091 -237.246094 
L 189.555808 -236.955558 
L 190.270248 -236.599572 
L 190.896179 -236.156282 
L 191.374035 -235.936038 
L 191.895072 -235.77033 
L 192.372879 -235.364909 
L 193.07543 -235.114219 
L 193.703985 -234.73893 
L 194.09228 -234.493099 
L 194.718428 -234.511752 
L 195.454361 -234.051695 
L 195.861279 -233.941383 
L 196.425334 -233.573405 
L 197.074516 -233.606811 
L 197.448351 -233.550084 
L 197.98706 -233.135344 
L 198.696263 -232.799797 
L 199.292276 -232.294898 
L 199.695472 -231.8832 
L 200.117468 -231.84747 
L 200.649069 -231.572341 
L 201.383076 -231.459656 
L 201.962605 -230.746667 
L 202.433703 -230.656748 
L 203.019466 -230.211766 
L 203.703889 -229.731783 
L 204.315223 -229.652233 
L 204.783677 -229.306923 
L 205.408377 -229.102058 
L 205.907862 -228.92845 
L 206.390793 -228.58918 
L 206.892728 -228.187243 
L 207.556929 -227.584958 
L 208.308804 -227.148312 
L 208.669831 -226.880728 
L 209.045276 -226.669219 
L 209.563543 -226.512294 
L 210.186791 -226.402948 
L 210.869929 -225.935153 
L 211.438764 -225.531531 
L 212.002853 -225.097171 
L 212.641559 -224.316599 
L 213.331782 -224.107735 
L 213.937199 -223.504205 
L 214.48178 -223.054447 
L 214.976898 -222.689964 
L 215.524978 -222.349069 
L 215.88949 -221.957068 
L 216.448224 -221.302961 
L 217.100571 -220.710364 
L 217.450137 -220.416534 
L 218.028697 -220.097779 
L 218.804895 -219.776408 
L 219.421919 -219.189673 
L 219.970071 -218.935622 
L 220.599274 -218.611437 
L 221.129808 -218.317755 
L 221.662429 -217.719553 
L 222.274943 -217.238863 
L 222.681904 -217.167873 
L 223.016711 -216.758634 
L 223.756806 -216.513553 
L 224.473407 -216.258021 
L 224.875544 -215.843407 
L 225.394042 -215.551008 
L 225.919484 -214.907287 
L 226.497633 -214.430794 
L 227.00334 -214.238773 
L 227.627256 -213.833674 
L 228.411307 -213.474 
L 228.754134 -212.979776 
L 229.15559 -212.243682 
L 229.780116 -211.708255 
L 230.361567 -211.304203 
L 231.006767 -210.684491 
L 231.561014 -209.990448 
L 232.124165 -209.337847 
L 232.616857 -208.405324 
L 233.142039 -207.881731 
L 233.683152 -207.206346 
L 234.237829 -206.785188 
L 234.782198 -205.897811 
L 235.29125 -205.477661 
L 235.957217 -205.083832 
L 236.587025 -204.180096 
L 237.114842 -203.567227 
L 237.625462 -202.904848 
L 238.097018 -202.057051 
L 238.582341 -201.55873 
L 239.414274 -201.145933 
L 239.970981 -200.16762 
L 240.397065 -199.705879 
L 240.933517 -198.866694 
L 241.372133 -198.632442 
L 241.946925 -197.91337 
L 242.715524 -197.236611 
L 243.46272 -196.684773 
L 244.000624 -196.21772 
L 244.334577 -195.48785 
L 244.777853 -195.148535 
L 245.527269 -194.762758 
L 246.124634 -194.331701 
L 246.631377 -193.449431 
L 247.238897 -193.135499 
L 247.788576 -192.25926 
L 248.376517 -191.769887 
L 249.009822 -190.944974 
L 249.563766 -190.126812 
L 250.04471 -189.535242 
L 250.415028 -188.689751 
L 250.985092 -187.821238 
L 251.70443 -187.173117 
L 252.363933 -186.221312 
L 252.893061 -184.891949 
L 253.206598 -183.714345 
L 253.765395 -183.215491 
L 254.418043 -182.50468 
L 255.071424 -181.726282 
L 255.753256 -180.977346 
L 256.131576 -179.857587 
L 256.461973 -178.968824 
L 257.134407 -178.363367 
L 257.793041 -177.536316 
L 258.241158 -176.582849 
L 258.842684 -175.702321 
L 259.381281 -174.367337 
L 260.005882 -173.272297 
L 260.70267 -172.290754 
L 261.238142 -171.79189 
L 261.727673 -170.684432 
L 262.130695 -170.18857 
L 262.826128 -169.127161 
L 263.421103 -168.715 
L 263.880067 -167.683379 
L 264.555391 -166.967687 
L 264.960968 -166.309195 
L 265.500071 -165.109669 
L 266.112578 -164.590419 
L 266.562242 -164.231433 
L 267.320031 -163.165653 
L 267.987081 -162.367582 
L 268.514711 -161.980952 
L 269.158581 -161.151344 
L 269.63073 -160.247862 
L 269.929207 -159.577651 
L 270.456925 -158.235145 
L 271.118449 -157.324969 
L 271.724545 -157.071355 
L 272.286384 -155.989724 
L 272.802017 -155.368419 
L 273.397714 -154.875471 
L 274.041883 -154.514094 
L 274.468569 -153.699159 
L 274.943426 -153.57123 
L 275.597688 -153.239412 
L 276.190581 -152.814821 
L 276.811195 -152.466668 
L 277.465059 -151.912871 
L 277.89259 -151.253877 
L 278.352874 -151.002278 
L 278.959533 -150.644027 
L 279.557512 -149.843639 
L 280.152819 -149.793831 
L 280.549585 -149.39592 
L 281.188441 -149.134034 
L 281.842747 -148.682077 
L 282.199908 -148.206057 
L 282.72709 -148.057574 
L 283.472252 -147.792009 
L 284.04398 -146.980881 
L 284.487044 -146.404782 
L 285.035822 -145.877322 
L 285.750191 -145.841351 
L 286.27731 -144.971206 
L 286.732689 -144.914114 
L 287.445033 -144.414127 
L 288.068023 -144.109351 
L 288.595771 -143.818352 
L 289.021899 -143.573281 
L 289.37061 -142.999216 
L 290.099859 -142.424509 
L 290.703946 -142.155768 
L 291.219874 -141.518827 
L 292.00658 -141.40583 
L 292.607139 -141.052182 
L 292.92119 -140.876216 
L 293.358463 -140.487667 
L 294.134534 -140.026257 
L 294.621303 -139.316919 
L 294.9667 -138.847434 
L 295.736816 -138.595229 
L 296.267644 -138.150544 
L 296.72782 -137.566191 
L 297.42379 -137.188681 
L 297.963122 -136.310155 
L 298.505111 -135.682226 
L 298.930079 -134.942407 
L 299.614698 -134.55885 
L 300.359798 -134.234291 
L 300.705504 -133.492251 
L 301.229976 -132.559965 
L 301.906552 -132.053 
L 302.364217 -131.383306 
L 302.981128 -130.718087 
L 303.584727 -129.895769 
L 303.932528 -129.435993 
L 304.588563 -129.171012 
L 305.277525 -128.935815 
L 305.696017 -128.467907 
L 306.297362 -127.817313 
L 307.020694 -127.007832 
L 307.630973 -126.791513 
L 308.149963 -126.468847 
L 308.564532 -126.24075 
L 308.972421 -125.742339 
L 309.543134 -125.552619 
L 310.127736 -125.140029 
L 310.620136 -125.164578 
L 311.14486 -124.751558 
L 311.687727 -124.929043 
L 312.242863 -124.523782 
L 312.974073 -124.304517 
L 313.633651 -123.926273 
L 313.997453 -123.724067 
L 314.46036 -123.289379 
L 315.16164 -122.834974 
L 315.896455 -122.576888 
L 316.486733 -122.37178 
L 317.069956 -122.078369 
L 317.64428 -121.740949 
L 318.053724 -121.871482 
L 318.573318 -121.565813 
L 319.059847 -121.395371 
L 319.48105 -121.181161 
L 320.204678 -120.738522 
L 320.90273 -120.561037 
L 321.264608 -120.132731 
L 321.759518 -120.20717 
L 322.50899 -120.128045 
L 323.107868 -120.109587 
L 323.505848 -119.82413 
L 324.052801 -119.54938 
L 324.777666 -119.73936 
L 325.297979 -119.641864 
L 325.880155 -119.758398 
L 326.583997 -119.600955 
L 326.957396 -119.38314 
L 327.305035 -119.383341 
L 327.833958 -119.376682 
L 328.397056 -118.96012 
L 329.185447 -119.053958 
L 329.826411 -118.908987 
L 330.413745 -118.146351 
L 331.052866 -118.047086 
L 331.413443 -117.63552 
L 332.042969 -117.48901 
L 332.651023 -117.185297 
L 333.052765 -116.775445 
L 333.701451 -116.709767 
L 334.209773 -116.267367 
L 334.82768 -116.052014 
L 335.405779 -115.558743 
L 335.739193 -115.225675 
L 336.441342 -114.8887 
L 337.153716 -114.287579 
L 337.592198 -114.140284 
L 338.114823 -113.499568 
L 338.648806 -113.370742 
L 339.118256 -113.220115 
L 339.658446 -112.696572 
L 340.265193 -112.506308 
L 340.928806 -112.345791 
L 341.494279 -112.320125 
L 342.019959 -111.897003 
L 342.628422 -112.100779 
L 343.084414 -111.918298 
L 343.470671 -111.708735 
L 344.03653 -111.457764 
L 344.619763 -111.483059 
L 345.292908 -111.003332 
L 345.917335 -110.318833 
L 346.377085 -110.035513 
L 346.918332 -109.70379 
L 347.445067 -109.602458 
L 347.967041 -109.461388 
L 348.650323 -109.198837 
L 349.306026 -109.162875 
L 349.975111 -108.876275 
L 350.575673 -108.189017 
L 351.128634 -107.920763 
L 351.676659 -107.802793 
L 352.139484 -107.384007 
L 352.702387 -107.005919 
L 353.278324 -106.555128 
L 353.882671 -106.212876 
L 354.504207 -106.00172 
L 354.839251 -105.798442 
L 355.298912 -105.388784 
L 355.870623 -104.838178 
L 356.40332 -104.606955 
L 356.999588 -104.279465 
L 357.476325 -103.883257 
L 358.031992 -103.467304 
L 358.772076 -102.907386 
L 359.468926 -102.325762 
L 359.80746 -102.356091 
L 360.327464 -102.066381 
L 360.955475 -101.77779 
L 361.359489 -101.51772 
L 362.111767 -101.323493 
L 362.765515 -101.056308 
L 363.064507 -100.946163 
L 363.791377 -100.472901 
L 364.579537 -100.218883 
L 364.899219 -99.770462 
L 365.420333 -99.448961 
L 366.060022 -99.078045 
L 366.690358 -98.777651 
L 367.274096 -98.459877 
L 367.567783 -98.031726 
L 368.073488 -97.902619 
L 368.785198 -97.832267 
L 369.359854 -97.623485 
L 369.912709 -97.000921 
L 370.521212 -96.796501 
L 371.098396 -96.467705 
L 371.632394 -95.981263 
L 372.102753 -95.506493 
L 372.677633 -94.804733 
L 373.412018 -94.371928 
L 373.973796 -94.239913 
L 374.29117 -93.849531 
L 374.699701 -93.165322 
L 375.397899 -92.835108 
L 376.057199 -92.821573 
L 376.523727 -92.454598 
L 377.097981 -92.321478 
L 377.625488 -92.002399 
L 378.088054 -91.532571 
L 378.812304 -91.090211 
L 379.587947 -90.765286 
L 380.162128 -90.423817 
L 380.528426 -90.110063 
L 380.974982 -90.006218 
L 381.531404 -89.079275 
L 382.149728 -88.965114 
L 382.672905 -88.916197 
L 383.058682 -88.673649 
L 383.715778 -88.221649 
L 384.418942 -88.108993 
L 384.973212 -87.695326 
L 385.544095 -87.550416 
L 386.203362 -87.231087 
L 386.636673 -86.747097 
L 387.127901 -86.820308 
L 387.886374 -86.563344 
L 388.50843 -85.833038 
L 388.87251 -85.546676 
L 389.238585 -84.817684 
L 389.771023 -84.48774 
L 390.523236 -84.157924 
L 391.297408 -83.487619 
L 391.896764 -83.008317 
L 392.440342 -82.45164 
L 392.890379 -81.969031 
L 393.304677 -81.572499 
L 393.86598 -80.759729 
L 394.604216 -80.419054 
L 395.086502 -80.100895 
L 395.582959 -79.505201 
L 396.271877 -79.11894 
L 396.776029 -78.603617 
L 397.372558 -78.114241 
L 397.883382 -77.366106 
L 398.231394 -76.894005 
L 398.756639 -76.166694 
L 399.533422 -75.866486 
L 400.211588 -75.525968 
L 400.649164 -75.259058 
L 401.061717 -74.675616 
L 401.692299 -74.054292 
L 402.244447 -73.567304 
L 402.694643 -73.386729 
L 403.313445 -73.174646 
L 403.944311 -72.733557 
L 404.473705 -72.465898 
L 405.044552 -71.688056 
L 405.739259 -71.0282 
L 406.383865 -70.812356 
L 406.757487 -70.217324 
L 407.158721 -69.783833 
L 407.917168 -69.556193 
L 408.49571 -69.170741 
L 409.110954 -68.942134 
L 409.557083 -68.536438 
L 409.885799 -67.989677 
L 410.566799 -67.791344 
L 411.28722 -67.736045 
L 411.850361 -67.272476 
L 412.441347 -66.902653 
L 413.11379 -66.779544 
L 413.644309 -66.667969 
L 414.205006 -66.532873 
L 414.667293 -66.202726 
L 414.998885 -66.080355 
L 415.472733 -65.747069 
L 416.17192 -65.342711 
L 416.779047 -65.131822 
L 417.209532 -64.874131 
L 417.711682 -64.724378 
L 418.348056 -64.389727 
L 418.895494 -63.979821 
L 419.400796 -63.792785 
L 420.122165 -63.596146 
L 420.775862 -63.420068 
L 421.365469 -63.287943 
L 421.800545 -62.828941 
L 422.156585 -62.546394 
L 422.831534 -62.445968 
L 423.49099 -62.206666 
L 424.075185 -62.196872 
L 424.537172 -62.03813 
L 425.038403 -61.744115 
L 425.800095 -61.380755 
L 426.443797 -61.029514 
L 426.792236 -60.66065 
L 427.25033 -60.307869 
L 427.918607 -60.177919 
L 428.409936 -60.133262 
L 429.027647 -60.135443 
L 429.790304 -60.02421 
L 430.412267 -60.033492 
L 430.798011 -60.204909 
L 431.195528 -59.91674 
L 431.885744 -59.836813 
L 432.586361 -59.356508 
L 433.17616 -59.144529 
L 433.709413 -59.098427 
L 434.044038 -58.750359 
L 434.593511 -58.712888 
L 435.158746 -58.734756 
L 435.590928 -58.664205 
L 436.316375 -58.804027 
L 437.004418 -58.858316 
L 437.389782 -58.754515 
L 437.791936 -58.783603 
L 438.345446 -58.734286 
L 439.01143 -58.830542 
L 439.695425 -58.826352 
L 440.354034 -58.975249 
L 440.862626 -58.939426 
L 441.37446 -58.98344 
L 442.010642 -58.939985 
L 442.533393 -58.939534 
L 442.922322 -59.198311 
L 443.316396 -59.332164 
L 443.869393 -59.406383 
L 444.668393 -59.321244 
L 445.250173 -59.338183 
L 445.58892 -59.320265 
L 446.278844 -59.526279 
L 447.08203 -59.443356 
L 447.541034 -59.460941 
L 447.936734 -59.636489 
L 448.441289 -59.670672 
L 449.041251 -59.807606 
L 449.777693 -59.841798 
L 450.319016 -59.877987 
L 450.848632 -59.906922 
L 451.493776 -59.952819 
L 451.981722 -59.845821 
L 452.516101 -59.773324 
L 453.224022 -59.706113 
L 453.859155 -59.558486 
L 454.283951 -59.528543 
L 454.846774 -59.148344 
L 455.465334 -59.087073 
L 455.889509 -58.832971 
L 456.461675 -58.662895 
L 456.919841 -58.393217 
L 457.339354 -58.337238 
L 458.062295 -58.255466 
L 458.645339 -58.234581 
L 459.237062 -58.341389 
L 459.839301 -58.399853 
L 460.415554 -58.288741 
L 461.030672 -58.310886 
L 461.378812 -58.271211 
L 461.892027 -58.368729 
L 462.629227 -58.304369 
L 463.064137 -58.194624 
L 463.486094 -57.957606 
L 464.076614 -57.642642 
L 464.569371 -57.607108 
L 465.301014 -57.444053 
L 465.954089 -57.397952 
L 466.475644 -57.408862 
L 466.994523 -57.126192 
L 467.591095 -56.957622 
L 468.204061 -56.9488 
L 468.634996 -56.946846 
L 469.173283 -56.758457 
L 469.711088 -56.757044 
L 470.383309 -56.572444 
L 470.897277 -56.480586 
L 471.235659 -56.470901 
L 471.926285 -56.398683 
L 472.655775 -56.257464 
L 473.087323 -56.060947 
L 473.612599 -56.028593 
L 474.359927 -55.909544 
L 475.025377 -55.873408 
L 475.51335 -55.773283 
L 475.861135 -55.717881 
L 476.36007 -55.775224 
L 477.094591 -55.448829 
L 477.845941 -55.469594 
L 478.280445 -55.455258 
L 478.649039 -55.37844 
L 479.334727 -55.374154 
L 479.841651 -55.428917 
L 480.207438 -55.30988 
L 480.752712 -55.345102 
L 481.504138 -55.096221 
L 482.262468 -54.971207 
L 482.716169 -54.879532 
L 483.294042 -54.748451 
L 483.871621 -54.6763 
L 484.34356 -54.370753 
L 484.949029 -54.134851 
L 485.619761 -53.824354 
L 486.230892 -53.551713 
L 486.775632 -53.286653 
L 487.293941 -53.097463 
L 487.787768 -52.927044 
L 488.356606 -52.646955 
L 488.878259 -52.339052 
L 489.352872 -52.248456 
L 489.87475 -52.1817 
L 490.463891 -51.998601 
L 491.030494 -51.683425 
L 491.593145 -51.49124 
L 492.126048 -51.39741 
L 492.722664 -51.332783 
L 493.190753 -51.158679 
L 493.656935 -51.061868 
L 494.365629 -51.082644 
L 494.898269 -50.805083 
L 495.294988 -50.781631 
L 495.778558 -50.43448 
L 496.532677 -50.425753 
L 497.181766 -50.214071 
L 497.776515 -50.231246 
L 498.277583 -50.26927 
L 498.791603 -50.135785 
L 499.495104 -49.976496 
L 500.135374 -49.92337 
L 500.554086 -49.951741 
L 500.98432 -49.698596 
L 501.688417 -49.4131 
L 502.104935 -49.428544 
L 502.650237 -49.479072 
L 503.385572 -49.574611 
L 503.885614 -49.591816 
L 504.321798 -49.544502 
L 504.912365 -49.509681 
L 505.4609 -49.506245 
L 505.972058 -49.490909 
L 506.624793 -49.576038 
L 507.1384 -49.647029 
L 507.676235 -49.649166 
L 508.234261 -49.503587 
L 508.765646 -49.493677 
L 509.303985 -49.377379 
L 510.019811 -49.417673 
L 510.643607 -49.566662 
L 511.017909 -49.72128 
L 511.518823 -49.626849 
L 512.196059 -49.63276 
L 512.758435 -49.786489 
L 513.127615 -49.601537 
L 513.873663 -49.629684 
L 514.433728 -49.681258 
L 514.91835 -49.775818 
L 515.526471 -49.871132 
L 516.064533 -49.920842 
L 516.565675 -49.882266 
L 517.10126 -49.871217 
L 517.722216 -49.898021 
L 518.176764 -49.985055 
L 518.853956 -50.020592 
L 519.566617 -50.052957 
L 520.151318 -49.824898 
L 520.668918 -49.795645 
L 521.222864 -49.740469 
L 521.775232 -49.711971 
L 522.368163 -49.460135 
L 522.999521 -49.47182 
L 523.47412 -49.619101 
L 523.811911 -49.579342 
L 524.316325 -49.391166 
L 524.906218 -49.520829 
L 525.430302 -49.525615 
L 525.983109 -49.567343 
L 526.658748 -49.505456 
L 527.278253 -49.483216 
L 527.715792 -49.509745 
L 528.27409 -49.451984 
L 529.028134 -49.488895 
L 529.766427 -49.484237 
L 530.116612 -49.276839 
L 530.492722 -49.280917 
L 531.139585 -49.262925 
L 531.739824 -49.288402 
L 532.240371 -49.249089 
L 532.826022 -49.35841 
L 533.35565 -49.419475 
L 533.94348 -49.453852 
L 534.521209 -49.42847 
L 535.01584 -49.390956 
L 535.668673 -49.488052 
L 536.244384 -49.55316 
L 536.778754 -49.488155 
L 537.371002 -49.426905 
L 537.866984 -49.296276 
L 538.473264 -49.123778 
L 539.136113 -49.091478 
L 539.56024 -49.061975 
L 540.06261 -48.98955 
L 540.785174 -48.851209 
L 541.223195 -48.855606 
L 541.662327 -48.831325 
L 542.213234 -48.882449 
L 542.764826 -48.796337 
L 543.347111 -48.699956 
L 543.808506 -48.750109 
L 544.501024 -48.805467 
L 545.232823 -48.804162 
L 545.856709 -48.925873 
L 546.328963 -48.875872 
L 546.790439 -48.950465 
L 547.3962 -48.958527 
L 548.026243 -48.976418 
L 548.684747 -49.034696 
L 549.238448 -49.134935 
L 549.766362 -49.037121 
L 550.331129 -49.06869 
L 550.852475 -49.13376 
L 551.207982 -49.126498 
L 551.606593 -48.982225 
L 552.311944 -48.895642 
L 552.86022 -48.935511 
L 553.367416 -48.900873 
L 553.973214 -48.97944 
L 554.439757 -48.914754 
L 555.028743 -48.934441 
L 555.60623 -48.943067 
L 556.140586 -49.01766 
L 556.752283 -48.959831 
L 557.283823 -49.021874 
L 557.846749 -49.046862 
L 558.510829 -49.119247 
L 559.094371 -48.967232 
L 559.533188 -48.91811 
L 560.243055 -48.744965 
L 560.876079 -48.682876 
L 561.274486 -48.562297 
L 561.818626 -48.309193 
L 562.289836 -48.289603 
L 562.946772 -48.114565 
L 563.62169 -47.975545 
L 564.174557 -47.932444 
L 564.632814 -47.928641 
L 565.096893 -47.8941 
L 565.803151 -47.832761 
L 566.370413 -47.761093 
L 566.874029 -47.627879 
L 567.315434 -47.558094 
L 567.948451 -47.487452 
L 568.740046 -47.442086 
L 569.322064 -47.452805 
L 569.657007 -47.398371 
L 570.237153 -47.378763 
L 570.878999 -47.362087 
L 571.392882 -47.236166 
L 572.031634 -47.256392 
L 572.558951 -47.149438 
L 573.022937 -47.037311 
L 573.425531 -46.540638 
L 574.044601 -46.445275 
L 574.744086 -46.448261 
L 575.297773 -46.423179 
L 575.744743 -46.346126 
L 576.198358 -46.280923 
L 576.748333 -46.075148 
L 577.364804 -46.112242 
L 578.083328 -46.102314 
L 578.590454 -46.181683 
L 579.133292 -45.99251 
L 579.674783 -45.892203 
L 580.047415 -45.880561 
L 580.656279 -45.899195 
L 581.32571 -45.878056 
L 582.034822 -45.82935 
L 582.605263 -45.627362 
L 583.067039 -45.634101 
L 583.560163 -45.686813 
L 584.138633 -45.823032 
L 584.784199 -45.815391 
L 585.311568 -45.853053 
L 585.745993 -45.887761 
L 586.383578 -45.876841 
L 587.098184 -45.961922 
L 587.726376 -46.000716 
L 588.159302 -46.13154 
L 588.475958 -46.21717 
L 589.000856 -46.17917 
L 589.693147 -46.220669 
L 590.470096 -46.372756 
L 590.987185 -46.422257 
L 591.321703 -46.560413 
L 591.969093 -46.749074 
L 592.504357 -46.869588 
L 592.900562 -46.979462 
L 593.487061 -47.102435 
L 594.268464 -47.077659 
L 594.941287 -47.04792 
L 595.261824 -47.099841 
L 595.947452 -47.163526 
L 596.674108 -47.266663 
L 597.014882 -47.331872 
L 597.385921 -47.45006 
L 597.95015 -47.556385 
L 598.759162 -47.591229 
L 599.440682 -47.579568 
L 599.868075 -47.532646 
L 600.389991 -47.439286 
L 600.987282 -47.370758 
L 601.440106 -47.23016 
L 601.952714 -47.167647 
L 602.578994 -47.161412 
L 603.244436 -47.178755 
L 603.804179 -46.940298 
L 604.292133 -46.819315 
L 604.85937 -46.71076 
L 605.518075 -46.638942 
L 606.136306 -46.603486 
L 606.507332 -46.449689 
L 607.07933 -46.300718 
L 607.745773 -46.200437 
L 608.127696 -46.236381 
L 608.61995 -46.314591 
L 609.22859 -46.240372 
L 609.87993 -45.825894 
L 610.433419 -45.441036 
L 610.946399 -45.873133 
L 611.587232 -46.433215 
L 611.840655 -46.75833 
L 611.840655 -53.57682 
L 611.840655 -53.57682 
L 611.587232 -52.493354 
L 610.946399 -51.31777 
L 610.433419 -50.679249 
L 609.87993 -50.50082 
L 609.22859 -50.445603 
L 608.61995 -50.185979 
L 608.127696 -49.753586 
L 607.745773 -49.620099 
L 607.07933 -49.560706 
L 606.507332 -49.71055 
L 606.136306 -49.687765 
L 605.518075 -49.519268 
L 604.85937 -49.516193 
L 604.292133 -49.712293 
L 603.804179 -49.951665 
L 603.244436 -50.04543 
L 602.578994 -50.210738 
L 601.952714 -50.158224 
L 601.440106 -50.204817 
L 600.987282 -50.310741 
L 600.389991 -50.376138 
L 599.868075 -50.524637 
L 599.440682 -50.529216 
L 598.759162 -50.410922 
L 597.95015 -50.301729 
L 597.385921 -50.219574 
L 597.014882 -50.086449 
L 596.674108 -49.962094 
L 595.947452 -49.843026 
L 595.261824 -49.759004 
L 594.941287 -49.835122 
L 594.268464 -49.820473 
L 593.487061 -49.747721 
L 592.900562 -49.547773 
L 592.504357 -49.397095 
L 591.969093 -49.205021 
L 591.321703 -49.038243 
L 590.987185 -48.978027 
L 590.470096 -49.001451 
L 589.693147 -48.942117 
L 589.000856 -48.894006 
L 588.475958 -48.853406 
L 588.159302 -48.880174 
L 587.726376 -48.81459 
L 587.098184 -48.794337 
L 586.383578 -48.733762 
L 585.745993 -48.815568 
L 585.311568 -48.990542 
L 584.784199 -49.004402 
L 584.138633 -48.969029 
L 583.560163 -49.088884 
L 583.067039 -49.030929 
L 582.605263 -48.983298 
L 582.034822 -48.976085 
L 581.32571 -48.992338 
L 580.656279 -49.025109 
L 580.047415 -49.017706 
L 579.674783 -48.976826 
L 579.133292 -48.924135 
L 578.590454 -48.932776 
L 578.083328 -49.108306 
L 577.364804 -49.201557 
L 576.748333 -49.355895 
L 576.198358 -49.348316 
L 575.744743 -49.352087 
L 575.297773 -49.31605 
L 574.744086 -49.301535 
L 574.044601 -49.36011 
L 573.425531 -49.432211 
L 573.022937 -49.808537 
L 572.558951 -49.909608 
L 572.031634 -50.055756 
L 571.392882 -50.281282 
L 570.878999 -50.329248 
L 570.237153 -50.45694 
L 569.657007 -50.600776 
L 569.322064 -50.755696 
L 568.740046 -51.163126 
L 567.948451 -51.229037 
L 567.315434 -51.42255 
L 566.874029 -51.470135 
L 566.370413 -51.726942 
L 565.803151 -51.829275 
L 565.096893 -51.947448 
L 564.632814 -52.02366 
L 564.174557 -52.251286 
L 563.62169 -52.348434 
L 562.946772 -52.404609 
L 562.289836 -52.621161 
L 561.818626 -52.72649 
L 561.274486 -52.836715 
L 560.876079 -53.339108 
L 560.243055 -53.286375 
L 559.533188 -53.58673 
L 559.094371 -53.665874 
L 558.510829 -53.74075 
L 557.846749 -53.994448 
L 557.283823 -53.871364 
L 556.752283 -53.774052 
L 556.140586 -53.758958 
L 555.60623 -53.794173 
L 555.028743 -53.752528 
L 554.439757 -53.68229 
L 553.973214 -53.583198 
L 553.367416 -53.495714 
L 552.86022 -53.564928 
L 552.311944 -53.461835 
L 551.606593 -53.407609 
L 551.207982 -53.275572 
L 550.852475 -53.127041 
L 550.331129 -53.034683 
L 549.766362 -52.86545 
L 549.238448 -52.597074 
L 548.684747 -52.370761 
L 548.026243 -52.445079 
L 547.3962 -52.319149 
L 546.790439 -52.191464 
L 546.328963 -51.923257 
L 545.856709 -51.920991 
L 545.232823 -51.869416 
L 544.501024 -51.81302 
L 543.808506 -51.84261 
L 543.347111 -51.731505 
L 542.764826 -51.667202 
L 542.213234 -51.54844 
L 541.662327 -51.427388 
L 541.223195 -51.410376 
L 540.785174 -51.446517 
L 540.06261 -51.388128 
L 539.56024 -51.413161 
L 539.136113 -51.253648 
L 538.473264 -51.23683 
L 537.866984 -51.418848 
L 537.371002 -51.569501 
L 536.778754 -51.714371 
L 536.244384 -51.675894 
L 535.668673 -51.52619 
L 535.01584 -51.313459 
L 534.521209 -51.170436 
L 533.94348 -50.939497 
L 533.35565 -50.760576 
L 532.826022 -50.674757 
L 532.240371 -50.539961 
L 531.739824 -50.519567 
L 531.139585 -50.595245 
L 530.492722 -50.651221 
L 530.116612 -50.655065 
L 529.766427 -50.707167 
L 529.028134 -50.558433 
L 528.27409 -50.485968 
L 527.715792 -50.560052 
L 527.278253 -50.50002 
L 526.658748 -50.575652 
L 525.983109 -50.744132 
L 525.430302 -50.740795 
L 524.906218 -50.740463 
L 524.316325 -50.84295 
L 523.811911 -50.86111 
L 523.47412 -50.851097 
L 522.999521 -51.189761 
L 522.368163 -51.193787 
L 521.775232 -51.240732 
L 521.222864 -51.227872 
L 520.668918 -51.288617 
L 520.151318 -51.325702 
L 519.566617 -51.746843 
L 518.853956 -51.787568 
L 518.176764 -51.720474 
L 517.722216 -51.711111 
L 517.10126 -51.684659 
L 516.565675 -51.596836 
L 516.064533 -51.681024 
L 515.526471 -51.614401 
L 514.91835 -51.639536 
L 514.433728 -51.656582 
L 513.873663 -51.587543 
L 513.127615 -51.547024 
L 512.758435 -51.616657 
L 512.196059 -51.551833 
L 511.518823 -51.691296 
L 511.017909 -51.782059 
L 510.643607 -51.832919 
L 510.019811 -51.862187 
L 509.303985 -51.833665 
L 508.765646 -51.857178 
L 508.234261 -51.834522 
L 507.676235 -51.959866 
L 507.1384 -51.920174 
L 506.624793 -52.126658 
L 505.972058 -52.116315 
L 505.4609 -52.279486 
L 504.912365 -52.280086 
L 504.321798 -52.317606 
L 503.885614 -52.339612 
L 503.385572 -52.306774 
L 502.650237 -52.257422 
L 502.104935 -52.324105 
L 501.688417 -52.485398 
L 500.98432 -52.597792 
L 500.554086 -53.000386 
L 500.135374 -53.150038 
L 499.495104 -53.239158 
L 498.791603 -53.463537 
L 498.277583 -53.622232 
L 497.776515 -53.718197 
L 497.181766 -53.903711 
L 496.532677 -54.09882 
L 495.778558 -54.168494 
L 495.294988 -54.342354 
L 494.898269 -54.464482 
L 494.365629 -54.657504 
L 493.656935 -54.677858 
L 493.190753 -54.76787 
L 492.722664 -54.915374 
L 492.126048 -55.131464 
L 491.593145 -55.52705 
L 491.030494 -55.578384 
L 490.463891 -55.783452 
L 489.87475 -55.965397 
L 489.352872 -56.331147 
L 488.878259 -56.574693 
L 488.356606 -56.779304 
L 487.787768 -56.860651 
L 487.293941 -56.994258 
L 486.775632 -57.205318 
L 486.230892 -57.439192 
L 485.619761 -57.643981 
L 484.949029 -57.830169 
L 484.34356 -58.348871 
L 483.871621 -58.343223 
L 483.294042 -58.616024 
L 482.716169 -58.722141 
L 482.262468 -58.968399 
L 481.504138 -59.157047 
L 480.752712 -59.531013 
L 480.207438 -59.735279 
L 479.841651 -60.347339 
L 479.334727 -60.621491 
L 478.649039 -60.804324 
L 478.280445 -60.952632 
L 477.845941 -61.019589 
L 477.094591 -61.041499 
L 476.36007 -61.401797 
L 475.861135 -61.409517 
L 475.51335 -61.251836 
L 475.025377 -61.258219 
L 474.359927 -61.211298 
L 473.612599 -61.106364 
L 473.087323 -61.080338 
L 472.655775 -61.197529 
L 471.926285 -61.165053 
L 471.235659 -61.2715 
L 470.897277 -61.312257 
L 470.383309 -61.282146 
L 469.711088 -61.57165 
L 469.173283 -61.607394 
L 468.634996 -61.617217 
L 468.204061 -61.727701 
L 467.591095 -61.985613 
L 466.994523 -61.99739 
L 466.475644 -62.016526 
L 465.954089 -62.138872 
L 465.301014 -62.234538 
L 464.569371 -62.251564 
L 464.076614 -62.677526 
L 463.486094 -62.942659 
L 463.064137 -63.031796 
L 462.629227 -63.225793 
L 461.892027 -63.303475 
L 461.378812 -63.39795 
L 461.030672 -63.806226 
L 460.415554 -64.035924 
L 459.839301 -64.017507 
L 459.237062 -64.021919 
L 458.645339 -64.080684 
L 458.062295 -64.312873 
L 457.339354 -64.255583 
L 456.919841 -64.35418 
L 456.461675 -64.419396 
L 455.889509 -64.603567 
L 455.465334 -64.632726 
L 454.846774 -64.782459 
L 454.283951 -64.997626 
L 453.859155 -65.178963 
L 453.224022 -65.433866 
L 452.516101 -65.356633 
L 451.981722 -65.284316 
L 451.493776 -65.339881 
L 450.848632 -65.188873 
L 450.319016 -65.108846 
L 449.777693 -64.902732 
L 449.041251 -64.757688 
L 448.441289 -64.529265 
L 447.936734 -64.445498 
L 447.541034 -64.300771 
L 447.08203 -64.091959 
L 446.278844 -63.988751 
L 445.58892 -63.989964 
L 445.250173 -63.936211 
L 444.668393 -63.953154 
L 443.869393 -64.003472 
L 443.316396 -64.105074 
L 442.922322 -64.043092 
L 442.533393 -64.331377 
L 442.010642 -64.230013 
L 441.37446 -64.393877 
L 440.862626 -64.266331 
L 440.354034 -64.30965 
L 439.695425 -64.309335 
L 439.01143 -64.402073 
L 438.345446 -64.720677 
L 437.791936 -64.829498 
L 437.389782 -65.056957 
L 437.004418 -64.975379 
L 436.316375 -64.905975 
L 435.590928 -64.962189 
L 435.158746 -65.045508 
L 434.593511 -65.118061 
L 434.044038 -65.252728 
L 433.709413 -65.359781 
L 433.17616 -65.497231 
L 432.586361 -65.728806 
L 431.885744 -65.925374 
L 431.195528 -66.043649 
L 430.798011 -66.28188 
L 430.412267 -66.67538 
L 429.790304 -66.716465 
L 429.027647 -66.904052 
L 428.409936 -66.895917 
L 427.918607 -67.008796 
L 427.25033 -67.524079 
L 426.792236 -67.768584 
L 426.443797 -67.879311 
L 425.800095 -68.017327 
L 425.038403 -68.105742 
L 424.537172 -68.393173 
L 424.075185 -68.569742 
L 423.49099 -68.586275 
L 422.831534 -68.786891 
L 422.156585 -69.039958 
L 421.800545 -69.025291 
L 421.365469 -69.314349 
L 420.775862 -69.717098 
L 420.122165 -69.891452 
L 419.400796 -70.105289 
L 418.895494 -70.32896 
L 418.348056 -70.548816 
L 417.711682 -70.970966 
L 417.209532 -71.440015 
L 416.779047 -71.547452 
L 416.17192 -71.838629 
L 415.472733 -72.046259 
L 414.998885 -72.294406 
L 414.667293 -72.622066 
L 414.205006 -72.957286 
L 413.644309 -73.159553 
L 413.11379 -73.367792 
L 412.441347 -73.906146 
L 411.850361 -74.084912 
L 411.28722 -74.46989 
L 410.566799 -74.71708 
L 409.885799 -74.910147 
L 409.557083 -75.005249 
L 409.110954 -75.39503 
L 408.49571 -75.674385 
L 407.917168 -75.846351 
L 407.158721 -76.264753 
L 406.757487 -76.593372 
L 406.383865 -76.933483 
L 405.739259 -77.334832 
L 405.044552 -77.704825 
L 404.473705 -77.981795 
L 403.944311 -78.279006 
L 403.313445 -78.423235 
L 402.694643 -78.520025 
L 402.244447 -79.189267 
L 401.692299 -79.559567 
L 401.061717 -80.021675 
L 400.649164 -80.230724 
L 400.211588 -80.610402 
L 399.533422 -80.767715 
L 398.756639 -81.225158 
L 398.231394 -81.372894 
L 397.883382 -81.933676 
L 397.372558 -82.489058 
L 396.776029 -82.925979 
L 396.271877 -83.474332 
L 395.582959 -83.654894 
L 395.086502 -84.009945 
L 394.604216 -84.38992 
L 393.86598 -84.902779 
L 393.304677 -85.218921 
L 392.890379 -85.889873 
L 392.440342 -86.437719 
L 391.896764 -86.653847 
L 391.297408 -87.05153 
L 390.523236 -87.532678 
L 389.771023 -87.871117 
L 389.238585 -88.117722 
L 388.87251 -89.048663 
L 388.50843 -89.438409 
L 387.886374 -89.50488 
L 387.127901 -89.52775 
L 386.636673 -89.856506 
L 386.203362 -90.017174 
L 385.544095 -90.495053 
L 384.973212 -90.58218 
L 384.418942 -90.915832 
L 383.715778 -91.097468 
L 383.058682 -91.237906 
L 382.672905 -91.66686 
L 382.149728 -92.275847 
L 381.531404 -92.600667 
L 380.974982 -93.149759 
L 380.528426 -93.483267 
L 380.162128 -93.800285 
L 379.587947 -94.378952 
L 378.812304 -94.921803 
L 378.088054 -95.10003 
L 377.625488 -95.653296 
L 377.097981 -95.982163 
L 376.523727 -96.275268 
L 376.057199 -96.476413 
L 375.397899 -97.576958 
L 374.699701 -98.055239 
L 374.29117 -98.707812 
L 373.973796 -98.880393 
L 373.412018 -99.176994 
L 372.677633 -99.343786 
L 372.102753 -99.773504 
L 371.632394 -100.165184 
L 371.098396 -100.486185 
L 370.521212 -100.661068 
L 369.912709 -101.081598 
L 369.359854 -101.228194 
L 368.785198 -101.339125 
L 368.073488 -101.475161 
L 367.567783 -101.749987 
L 367.274096 -102.185018 
L 366.690358 -102.58412 
L 366.060022 -102.989187 
L 365.420333 -103.56907 
L 364.899219 -103.847205 
L 364.579537 -104.693495 
L 363.791377 -105.017629 
L 363.064507 -105.25525 
L 362.765515 -105.639936 
L 362.111767 -106.02906 
L 361.359489 -106.706319 
L 360.955475 -107.211225 
L 360.327464 -107.229251 
L 359.80746 -107.576394 
L 359.468926 -107.628514 
L 358.772076 -107.9435 
L 358.031992 -108.395811 
L 357.476325 -108.511225 
L 356.999588 -108.663727 
L 356.40332 -108.967501 
L 355.870623 -109.212421 
L 355.298912 -109.430006 
L 354.839251 -109.577409 
L 354.504207 -109.678869 
L 353.882671 -110.004995 
L 353.278324 -110.133534 
L 352.702387 -110.223666 
L 352.139484 -110.868948 
L 351.676659 -111.323759 
L 351.128634 -111.507911 
L 350.575673 -111.530641 
L 349.975111 -111.927422 
L 349.306026 -112.214904 
L 348.650323 -112.577006 
L 347.967041 -112.824176 
L 347.445067 -113.278419 
L 346.918332 -113.508757 
L 346.377085 -113.910821 
L 345.917335 -114.236956 
L 345.292908 -114.598247 
L 344.619763 -114.943525 
L 344.03653 -115.317357 
L 343.470671 -115.530832 
L 343.084414 -115.882153 
L 342.628422 -116.175359 
L 342.019959 -116.782103 
L 341.494279 -117.048038 
L 340.928806 -117.491201 
L 340.265193 -117.662158 
L 339.658446 -118.000699 
L 339.118256 -118.268185 
L 338.648806 -118.427414 
L 338.114823 -118.753893 
L 337.592198 -119.281844 
L 337.153716 -119.536689 
L 336.441342 -120.000562 
L 335.739193 -120.563694 
L 335.405779 -120.866381 
L 334.82768 -121.008743 
L 334.209773 -121.285051 
L 333.701451 -121.69145 
L 333.052765 -121.926389 
L 332.651023 -122.418447 
L 332.042969 -122.680778 
L 331.413443 -122.952795 
L 331.052866 -123.325717 
L 330.413745 -123.564862 
L 329.826411 -123.508115 
L 329.185447 -123.70696 
L 328.397056 -123.701554 
L 327.833958 -124.053634 
L 327.305035 -124.035892 
L 326.957396 -124.334894 
L 326.583997 -124.461114 
L 325.880155 -124.743881 
L 325.297979 -124.725528 
L 324.777666 -125.188196 
L 324.052801 -125.358296 
L 323.505848 -125.508327 
L 323.107868 -125.78388 
L 322.50899 -126.156342 
L 321.759518 -126.244013 
L 321.264608 -126.314312 
L 320.90273 -126.699061 
L 320.204678 -127.23064 
L 319.48105 -127.29661 
L 319.059847 -127.211947 
L 318.573318 -127.613408 
L 318.053724 -127.729137 
L 317.64428 -127.915305 
L 317.069956 -128.011073 
L 316.486733 -128.506513 
L 315.896455 -128.794313 
L 315.16164 -128.998466 
L 314.46036 -129.449573 
L 313.997453 -129.936534 
L 313.633651 -130.58536 
L 312.974073 -131.115879 
L 312.242863 -131.213012 
L 311.687727 -131.752295 
L 311.14486 -131.664673 
L 310.620136 -131.705795 
L 310.127736 -131.820983 
L 309.543134 -132.65465 
L 308.972421 -132.973551 
L 308.564532 -133.105152 
L 308.149963 -134.07076 
L 307.630973 -134.529009 
L 307.020694 -134.912688 
L 306.297362 -135.500681 
L 305.696017 -136.160438 
L 305.277525 -136.728472 
L 304.588563 -136.857329 
L 303.932528 -137.259467 
L 303.584727 -137.498135 
L 302.981128 -137.698971 
L 302.364217 -137.897953 
L 301.906552 -137.996019 
L 301.229976 -138.294305 
L 300.705504 -138.734384 
L 300.359798 -139.733424 
L 299.614698 -140.703405 
L 298.930079 -141.249061 
L 298.505111 -141.95032 
L 297.963122 -142.716468 
L 297.42379 -143.196999 
L 296.72782 -143.408138 
L 296.267644 -144.028039 
L 295.736816 -144.41722 
L 294.9667 -144.900441 
L 294.621303 -145.625975 
L 294.134534 -145.911771 
L 293.358463 -146.376739 
L 292.92119 -146.710221 
L 292.607139 -147.046951 
L 292.00658 -147.126892 
L 291.219874 -147.704317 
L 290.703946 -148.005416 
L 290.099859 -148.664839 
L 289.37061 -148.77856 
L 289.021899 -149.870672 
L 288.595771 -150.299948 
L 288.068023 -150.636208 
L 287.445033 -151.159549 
L 286.732689 -151.377852 
L 286.27731 -151.6025 
L 285.750191 -152.093551 
L 285.035822 -152.602604 
L 284.487044 -153.16251 
L 284.04398 -153.361862 
L 283.472252 -153.665343 
L 282.72709 -154.646278 
L 282.199908 -155.464637 
L 281.842747 -156.088587 
L 281.188441 -157.064361 
L 280.549585 -157.442332 
L 280.152819 -157.923427 
L 279.557512 -158.606974 
L 278.959533 -158.924048 
L 278.352874 -159.088454 
L 277.89259 -159.580551 
L 277.465059 -160.340822 
L 276.811195 -160.616874 
L 276.190581 -160.95209 
L 275.597688 -161.708192 
L 274.943426 -162.175568 
L 274.468569 -162.547221 
L 274.041883 -162.932846 
L 273.397714 -163.67964 
L 272.802017 -164.38414 
L 272.286384 -165.03254 
L 271.724545 -165.211164 
L 271.118449 -166.541492 
L 270.456925 -167.012578 
L 269.929207 -167.676454 
L 269.63073 -168.722951 
L 269.158581 -169.468824 
L 268.514711 -170.060341 
L 267.987081 -170.780177 
L 267.320031 -171.449988 
L 266.562242 -171.799409 
L 266.112578 -172.225311 
L 265.500071 -172.856426 
L 264.960968 -173.555995 
L 264.555391 -173.942119 
L 263.880067 -175.295363 
L 263.421103 -175.927787 
L 262.826128 -176.716884 
L 262.130695 -177.190366 
L 261.727673 -177.893803 
L 261.238142 -178.51759 
L 260.70267 -179.132142 
L 260.005882 -180.0412 
L 259.381281 -180.873726 
L 258.842684 -181.486015 
L 258.241158 -182.255729 
L 257.793041 -183.20496 
L 257.134407 -184.004828 
L 256.461973 -185.072112 
L 256.131576 -186.041597 
L 255.753256 -186.780097 
L 255.071424 -187.647173 
L 254.418043 -188.285319 
L 253.765395 -189.094451 
L 253.206598 -189.747879 
L 252.893061 -190.477788 
L 252.363933 -191.493706 
L 251.70443 -192.190421 
L 250.985092 -192.968847 
L 250.415028 -193.50981 
L 250.04471 -194.524728 
L 249.563766 -195.115426 
L 249.009822 -195.813281 
L 248.376517 -196.560599 
L 247.788576 -196.966473 
L 247.238897 -197.545305 
L 246.631377 -198.149568 
L 246.124634 -198.312279 
L 245.527269 -198.834414 
L 244.777853 -199.318994 
L 244.334577 -199.876013 
L 244.000624 -200.435953 
L 243.46272 -200.924158 
L 242.715524 -201.4993 
L 241.946925 -202.707176 
L 241.372133 -203.542708 
L 240.933517 -204.222071 
L 240.397065 -204.650627 
L 239.970981 -205.278623 
L 239.414274 -206.225203 
L 238.582341 -206.963782 
L 238.097018 -207.603562 
L 237.625462 -208.367706 
L 237.114842 -209.05586 
L 236.587025 -209.937119 
L 235.957217 -210.523479 
L 235.29125 -211.533457 
L 234.782198 -212.159462 
L 234.237829 -213.519307 
L 233.683152 -214.855366 
L 233.142039 -215.857696 
L 232.616857 -216.99889 
L 232.124165 -217.951724 
L 231.561014 -218.48494 
L 231.006767 -219.077472 
L 230.361567 -219.869162 
L 229.780116 -220.284394 
L 229.15559 -220.779087 
L 228.754134 -221.411986 
L 228.411307 -221.946 
L 227.627256 -222.383665 
L 227.00334 -223.140045 
L 226.497633 -223.728465 
L 225.919484 -224.817033 
L 225.394042 -225.576718 
L 224.875544 -225.907036 
L 224.473407 -226.385487 
L 223.756806 -226.98926 
L 223.016711 -227.58886 
L 222.681904 -228.393357 
L 222.274943 -229.307589 
L 221.662429 -229.845132 
L 221.129808 -230.115066 
L 220.599274 -230.680231 
L 219.970071 -231.190397 
L 219.421919 -231.475608 
L 218.804895 -232.335227 
L 218.028697 -233.05434 
L 217.450137 -233.472004 
L 217.100571 -233.816389 
L 216.448224 -234.726543 
L 215.88949 -234.961187 
L 215.524978 -235.459401 
L 214.976898 -235.597988 
L 214.48178 -236.21698 
L 213.937199 -236.744051 
L 213.331782 -237.029088 
L 212.641559 -237.560364 
L 212.002853 -238.111298 
L 211.438764 -238.392883 
L 210.869929 -238.831682 
L 210.186791 -239.13017 
L 209.563543 -239.399732 
L 209.045276 -240.118825 
L 208.669831 -240.266833 
L 208.308804 -240.222908 
L 207.556929 -240.383543 
L 206.892728 -240.564755 
L 206.390793 -240.501319 
L 205.907862 -240.818106 
L 205.408377 -241.000734 
L 204.783677 -241.103709 
L 204.315223 -241.180249 
L 203.703889 -241.385227 
L 203.019466 -241.572685 
L 202.433703 -242.047972 
L 201.962605 -242.143651 
L 201.383076 -242.492732 
L 200.649069 -242.674906 
L 200.117468 -243.419195 
L 199.695472 -243.635685 
L 199.292276 -243.915828 
L 198.696263 -244.006966 
L 197.98706 -244.39519 
L 197.448351 -244.378848 
L 197.074516 -244.369626 
L 196.425334 -244.259367 
L 195.861279 -244.29531 
L 195.454361 -244.401563 
L 194.718428 -244.811635 
L 194.09228 -245.028425 
L 193.703985 -245.085944 
L 193.07543 -244.942052 
L 192.372879 -244.886852 
L 191.895072 -244.869129 
L 191.374035 -244.965376 
L 190.896179 -245.267784 
L 190.270248 -245.531575 
L 189.555808 -245.714667 
L 189.021091 -245.801151 
L 188.438654 -245.927576 
L 188.02327 -245.915856 
L 187.669827 -246.2363 
L 187.148254 -246.662868 
L 186.465124 -247.078446 
L 185.662242 -247.202685 
L 184.998146 -247.262654 
L 184.644296 -247.255377 
L 184.280396 -247.334931 
L 183.550679 -247.588894 
L 182.851195 -247.551641 
L 182.409149 -247.52475 
L 181.87131 -247.637102 
L 181.390857 -247.691068 
L 180.814325 -247.692676 
L 180.085018 -248.10231 
L 179.529486 -248.165017 
L 179.036777 -248.301978 
L 178.546345 -248.504675 
L 177.909551 -248.39322 
L 177.225244 -248.414405 
L 176.718002 -248.406979 
L 176.337061 -248.378549 
L 175.85644 -248.519241 
L 175.284434 -248.686985 
L 174.625213 -248.557739 
L 174.125922 -248.713797 
L 173.756068 -248.61211 
L 173.054543 -248.605245 
L 172.452202 -248.559207 
L 171.871605 -248.4514 
L 171.124942 -248.400662 
L 170.707572 -248.38596 
L 170.284801 -248.351069 
L 169.53547 -248.553219 
L 169.016721 -248.549829 
L 168.675008 -248.297 
L 168.018046 -248.235456 
L 167.295014 -248.092119 
L 166.725868 -248.171999 
L 166.090703 -248.300031 
L 165.541193 -248.284114 
L 165.231376 -248.213147 
L 164.575131 -248.20898 
L 163.846895 -248.213945 
L 163.529696 -248.204096 
L 163.067882 -248.364702 
L 162.278896 -248.634244 
L 161.593476 -248.822722 
L 161.136211 -248.902034 
L 160.535379 -249.258206 
L 160.019598 -249.412074 
L 159.58616 -249.573282 
L 159.056804 -249.703741 
L 158.564898 -249.558184 
L 157.824182 -249.812128 
L 157.270309 -249.896709 
L 156.927408 -250.100497 
L 156.323198 -250.131491 
L 155.802526 -250.25949 
L 155.301859 -250.406346 
L 154.575829 -250.699429 
L 153.983519 -250.755481 
L 153.442008 -250.967287 
L 152.766608 -251.158393 
L 152.184346 -251.381826 
L 151.785988 -251.547493 
L 151.170123 -252.012282 
L 150.400939 -252.521269 
L 149.963529 -252.472846 
L 149.466362 -252.48355 
L 148.817976 -252.535353 
L 148.242535 -252.598262 
L 147.807707 -252.727925 
L 147.470945 -252.988259 
L 146.726108 -253.208908 
L 146.078981 -253.308457 
L 145.755009 -253.469055 
L 145.158087 -253.51527 
L 144.545192 -253.39854 
L 144.019027 -253.523291 
L 143.387217 -253.647386 
L 142.807921 -253.593828 
L 142.251905 -253.671645 
L 141.766193 -253.832239 
L 141.317671 -253.786736 
L 140.689428 -253.815127 
L 139.968235 -253.668896 
L 139.515453 -253.776792 
L 139.0868 -253.711123 
L 138.518186 -253.730102 
L 137.785023 -253.631892 
L 137.015902 -253.624979 
L 136.635374 -253.61208 
L 136.054505 -253.664084 
L 135.361769 -253.691196 
L 135.05425 -253.889541 
L 134.684975 -253.911475 
L 133.879713 -253.977962 
L 133.260299 -253.938421 
L 132.932155 -253.846751 
L 132.443739 -253.790516 
L 131.783492 -253.715111 
L 131.054146 -253.741413 
L 130.538834 -253.622033 
L 130.097854 -253.744975 
L 129.383275 -253.593877 
L 128.86217 -253.570123 
L 128.378317 -253.598772 
L 127.806163 -253.762314 
L 127.370058 -253.672668 
L 126.847519 -253.621094 
L 126.104386 -253.624462 
L 125.384389 -253.575879 
L 124.847304 -253.626182 
L 124.282692 -253.425741 
L 123.773759 -253.317204 
L 123.227595 -253.372424 
L 122.810692 -253.328557 
L 122.400235 -253.246956 
L 121.853594 -253.144664 
L 121.097595 -253.05634 
L 120.321051 -252.951215 
L 119.768341 -252.971105 
L 119.17221 -252.92026 
L 118.691773 -252.820796 
L 118.219001 -252.622908 
L 117.696732 -252.730667 
L 117.094258 -252.56214 
L 116.596406 -252.521534 
L 116.18587 -252.596092 
L 115.601616 -252.460682 
L 114.935474 -252.39195 
L 114.329159 -252.476806 
L 113.887863 -252.425615 
L 113.45151 -252.31925 
L 112.94966 -252.396053 
L 112.387503 -252.425751 
L 111.757783 -252.248753 
L 111.088055 -252.09679 
L 110.551661 -252.162037 
L 110.036085 -252.112088 
L 109.319535 -252.05182 
L 108.796103 -251.928688 
L 108.31867 -251.918942 
L 107.800816 -251.903645 
L 107.237197 -252.285482 
L 106.630592 -252.259215 
L 106.104643 -252.319836 
L 105.325036 -252.169202 
L 104.818029 -251.986912 
L 104.270917 -251.940608 
L 103.536348 -251.876339 
L 103.213364 -252.058763 
L 102.831745 -252.13169 
L 102.119543 -252.134035 
L 101.447613 -252.027904 
L 100.964518 -251.92332 
L 100.412306 -251.960135 
L 99.932244 -251.944215 
L 99.469269 -252.060602 
L 98.80135 -252.082809 
L 98.247015 -252.197358 
L 97.68514 -252.137556 
L 97.121865 -252.047586 
L 96.459297 -251.908676 
L 95.929876 -251.972587 
L 95.391561 -251.827748 
L 94.619314 -251.740344 
L 94.083125 -251.600621 
L 93.759377 -251.446232 
L 93.143532 -251.532099 
L 92.423255 -251.463255 
L 92.065033 -251.429005 
L 91.441423 -251.512922 
L 90.749336 -251.61868 
L 90.370259 -251.576121 
L 89.974789 -251.318063 
L 89.362926 -251.084365 
L 88.588792 -250.953641 
L 88.157888 -250.919017 
L 87.774164 -251.026175 
L 87.204158 -250.952865 
L 86.564206 -250.876167 
L 85.948082 -250.78171 
L 85.529888 -250.87996 
L 84.874378 -250.679902 
L 84.255037 -250.674469 
L 83.757824 -250.700503 
L 83.057815 -250.659489 
L 82.342879 -250.659127 
L 82.004364 -250.560894 
L 81.455086 -250.425045 
L 80.622173 -250.475459 
L 80.300582 -250.516822 
L 79.906697 -250.562518 
L 79.311645 -250.443609 
L 78.672329 -250.490728 
L 77.941219 -250.440621 
L 77.344802 -250.331633 
L 76.915079 -250.273919 
L 76.440942 -250.147334 
L 75.850531 -250.02208 
L 75.403051 -249.890126 
L 74.857011 -249.835932 
L 74.142327 -249.797029 
L 73.488364 -249.84098 
L 72.91749 -249.759086 
L 72.432359 -249.682996 
L 71.98262 -249.588722 
L 71.312648 -249.558458 
L 70.715209 -249.60216 
L 70.325877 -249.556849 
L 69.813241 -249.563189 
L 69.149338 -249.727669 
L 68.460692 -249.62365 
L 67.882661 -249.551452 
L 67.428536 -249.454548 
L 66.865071 -249.367542 
L 66.260804 -249.338201 
L 65.865339 -249.263568 
L 65.274741 -249.141758 
L 64.607598 -248.997175 
L 64.118236 -248.951985 
L 63.481238 -249.06085 
L 62.856374 -249.167883 
L 62.37214 -249.313156 
L 61.952753 -249.147119 
L 61.390484 -249.218175 
L 60.806527 -249.309516 
L 60.258996 -249.353639 
L 59.558512 -249.686659 
L 59.057241 -249.988717 
L 58.581281 -250.269229 
L 58.132494 -250.801092 
L 57.462003 -251.265196 
L 56.68544 -251.888019 
L 56.166229 -252.266106 
L 55.641843 -252.512978 
L 55.260942 -252.197912 
L 54.620716 -251.542573 
z
" style="stroke: #808080; stroke-opacity: 0.5; stroke-width: 0.5"/>
    </defs>
    <g clip-path="url(#p35ff0576fa)">
     <use xlink:href="#m699054530b" x="0" y="283.57" style="fill: #808080; fill-opacity: 0.5; stroke: #808080; stroke-opacity: 0.5; stroke-width: 0.5"/>
    </g>
   </g>
   <g id="line2d_23">
    <path d="M 54.620716 34.690783 
L 55.641843 33.754422 
L 56.166229 33.762503 
L 58.132494 35.302002 
L 58.581281 35.974665 
L 60.258996 37.267687 
L 61.390484 37.520331 
L 61.952753 37.530938 
L 62.37214 37.232237 
L 64.118236 37.082396 
L 66.260804 36.621437 
L 67.882661 36.534443 
L 73.488364 37.110391 
L 74.857011 37.117116 
L 75.403051 37.086643 
L 75.850531 36.929425 
L 76.915079 36.67811 
L 77.344802 36.564897 
L 77.941219 36.551293 
L 79.311645 36.790579 
L 79.906697 36.59117 
L 80.622173 36.787311 
L 82.004364 36.701938 
L 82.342879 36.620254 
L 83.057815 36.620777 
L 84.255037 36.481681 
L 87.774164 36.071052 
L 89.974789 35.432858 
L 90.370259 35.15097 
L 90.749336 35.039612 
L 91.441423 35.008063 
L 92.065033 35.113434 
L 93.143532 34.828287 
L 98.247015 33.917491 
L 98.80135 34.03314 
L 101.447613 33.890457 
L 102.119543 33.695071 
L 102.831745 33.64801 
L 103.536348 33.840567 
L 104.818029 33.762953 
L 107.237197 33.559044 
L 107.800816 33.648232 
L 110.551661 33.1112 
L 111.088055 33.14392 
L 112.387503 32.795375 
L 113.45151 32.86227 
L 114.329159 32.526499 
L 117.094258 32.209504 
L 117.696732 32.07241 
L 118.691773 32.024347 
L 119.768341 31.764884 
L 121.097595 31.672432 
L 123.773759 31.492259 
L 127.806163 31.625327 
L 129.383275 31.711401 
L 130.097854 31.561204 
L 130.538834 31.691422 
L 131.054146 31.593713 
L 135.05425 31.598258 
L 135.361769 31.756789 
L 142.251905 31.820714 
L 142.807921 31.92434 
L 143.387217 31.86319 
L 144.545192 31.959611 
L 145.158087 32.179886 
L 145.755009 32.220522 
L 146.078981 32.44262 
L 146.726108 32.53312 
L 147.807707 33.055037 
L 148.817976 33.359322 
L 150.400939 33.526219 
L 152.184346 34.469724 
L 153.983519 35.014766 
L 154.575829 35.070839 
L 156.323198 35.681128 
L 156.927408 35.657965 
L 157.270309 35.778033 
L 157.824182 35.837585 
L 158.564898 36.137062 
L 159.58616 36.228603 
L 160.535379 36.522041 
L 161.593476 36.759755 
L 164.575131 37.396593 
L 166.090703 37.446958 
L 167.295014 37.574884 
L 168.018046 37.478329 
L 169.016721 37.526354 
L 169.53547 37.527721 
L 171.124942 37.925835 
L 174.125922 38.114546 
L 174.625213 38.370351 
L 175.85644 38.398507 
L 176.337061 38.521576 
L 176.718002 38.46149 
L 179.036777 38.724249 
L 180.814325 39.200461 
L 181.390857 39.20109 
L 184.644296 40.224377 
L 185.662242 40.394169 
L 186.465124 40.581767 
L 187.669827 41.356822 
L 188.02327 41.790037 
L 190.270248 42.504426 
L 191.374035 43.119293 
L 194.718428 43.908307 
L 195.454361 44.343371 
L 196.425334 44.653614 
L 197.448351 44.605534 
L 198.696263 45.166618 
L 199.292276 45.464637 
L 199.695472 45.810558 
L 200.117468 45.936668 
L 200.649069 46.446376 
L 201.383076 46.593806 
L 201.962605 47.124841 
L 202.433703 47.21764 
L 203.019466 47.677774 
L 203.703889 48.011495 
L 205.408377 48.518604 
L 205.907862 48.696722 
L 206.390793 49.02475 
L 206.892728 49.194001 
L 207.556929 49.585749 
L 209.045276 50.175978 
L 209.563543 50.613987 
L 210.186791 50.803441 
L 211.438764 51.607793 
L 212.002853 51.965765 
L 212.641559 52.631519 
L 213.937199 53.445872 
L 214.976898 54.426024 
L 215.524978 54.665765 
L 215.88949 55.110873 
L 216.448224 55.555248 
L 217.450137 56.625731 
L 218.804895 57.514183 
L 219.421919 58.23736 
L 220.599274 58.924166 
L 222.274943 60.296774 
L 222.681904 60.789385 
L 223.016711 61.396253 
L 224.473407 62.248246 
L 224.875544 62.694778 
L 225.394042 63.006137 
L 226.497633 64.490371 
L 228.411307 65.86 
L 229.15559 67.058615 
L 231.006767 68.689018 
L 232.124165 69.925214 
L 233.142039 71.700287 
L 234.237829 73.417753 
L 234.782198 74.541364 
L 236.587025 76.511393 
L 238.582341 79.308744 
L 239.414274 79.884432 
L 240.397065 81.391747 
L 242.715524 84.202044 
L 244.000624 85.243164 
L 244.334577 85.888068 
L 244.777853 86.336235 
L 245.527269 86.771414 
L 247.238897 88.229598 
L 247.788576 88.957134 
L 248.376517 89.404757 
L 250.04471 91.540015 
L 250.415028 92.47022 
L 252.363933 94.712491 
L 253.206598 96.838888 
L 255.071424 98.883273 
L 255.753256 99.691278 
L 256.461973 101.549532 
L 257.793041 103.199362 
L 258.241158 104.150711 
L 258.842684 104.975832 
L 260.005882 106.913251 
L 262.826128 110.647978 
L 263.421103 111.248607 
L 264.555391 113.115097 
L 264.960968 113.637405 
L 265.500071 114.586952 
L 268.514711 117.549354 
L 269.158581 118.259916 
L 269.63073 119.084593 
L 269.929207 119.942948 
L 270.456925 120.946139 
L 271.724545 122.42874 
L 273.397714 124.292445 
L 274.041883 124.84653 
L 274.468569 125.44681 
L 275.597688 126.096198 
L 276.190581 126.686544 
L 277.465059 127.443153 
L 277.89259 128.152786 
L 278.352874 128.524634 
L 278.959533 128.785963 
L 279.557512 129.344694 
L 280.152819 129.711371 
L 280.549585 130.150874 
L 281.188441 130.470802 
L 283.472252 132.841324 
L 285.035822 134.330037 
L 285.750191 134.602549 
L 286.27731 135.283147 
L 286.732689 135.424017 
L 288.068023 136.197221 
L 289.021899 136.848024 
L 289.37061 137.681112 
L 290.099859 138.025326 
L 291.219874 138.958428 
L 292.92119 139.776781 
L 293.358463 140.137797 
L 294.134534 140.600986 
L 294.621303 141.098553 
L 294.9667 141.696063 
L 295.736816 142.063776 
L 296.267644 142.480708 
L 296.72782 143.082835 
L 297.42379 143.37716 
L 298.505111 144.753727 
L 298.930079 145.474266 
L 299.614698 145.938873 
L 300.359798 146.586143 
L 300.705504 147.456682 
L 301.229976 148.142865 
L 302.364217 148.929371 
L 303.584727 149.873048 
L 303.932528 150.22227 
L 304.588563 150.55583 
L 305.277525 150.737857 
L 306.297362 151.911003 
L 307.020694 152.60974 
L 307.630973 152.909739 
L 308.149963 153.300197 
L 308.564532 153.897049 
L 308.972421 154.212055 
L 309.543134 154.466365 
L 310.127736 155.089494 
L 310.620136 155.134814 
L 311.14486 155.361884 
L 311.687727 155.229331 
L 312.242863 155.701603 
L 312.974073 155.859802 
L 313.633651 156.314184 
L 314.46036 157.200524 
L 315.16164 157.65328 
L 316.486733 158.130853 
L 317.069956 158.525279 
L 317.64428 158.741873 
L 318.053724 158.769691 
L 320.90273 159.939951 
L 321.264608 160.346479 
L 322.50899 160.427806 
L 323.107868 160.623267 
L 323.505848 160.903772 
L 324.052801 161.116162 
L 324.777666 161.106222 
L 325.297979 161.386304 
L 325.880155 161.31886 
L 327.833958 161.854842 
L 328.397056 162.239163 
L 329.185447 162.189541 
L 329.826411 162.361449 
L 330.413745 162.714394 
L 331.052866 162.883598 
L 331.413443 163.275843 
L 332.651023 163.768128 
L 333.052765 164.219083 
L 333.701451 164.369391 
L 334.209773 164.793791 
L 335.405779 165.357438 
L 335.739193 165.675316 
L 337.592198 166.858936 
L 338.114823 167.443269 
L 339.658446 168.221364 
L 340.265193 168.485767 
L 341.494279 168.885918 
L 342.019959 169.230447 
L 343.084414 169.669775 
L 343.470671 169.950216 
L 345.292908 170.769211 
L 346.377085 171.596833 
L 346.918332 171.963727 
L 347.445067 172.129562 
L 347.967041 172.427218 
L 349.975111 173.168151 
L 350.575673 173.710171 
L 351.676659 174.006724 
L 352.702387 174.955208 
L 356.40332 176.782772 
L 358.772076 178.144557 
L 359.468926 178.592862 
L 359.80746 178.603758 
L 360.327464 178.922184 
L 360.955475 179.075493 
L 361.359489 179.45798 
L 363.791377 180.824735 
L 364.579537 181.113811 
L 364.899219 181.761166 
L 367.274096 183.247553 
L 367.567783 183.679143 
L 368.073488 183.88111 
L 369.359854 184.14416 
L 370.521212 184.841216 
L 371.098396 185.093055 
L 372.102753 185.930002 
L 372.677633 186.495741 
L 373.973796 187.009847 
L 374.29117 187.291329 
L 374.699701 187.95972 
L 375.397899 188.363967 
L 376.523727 189.205067 
L 377.097981 189.41818 
L 377.625488 189.742152 
L 378.088054 190.2537 
L 379.587947 190.997881 
L 380.974982 191.992011 
L 381.531404 192.730029 
L 382.149728 192.94952 
L 383.715778 193.910441 
L 384.418942 194.057588 
L 384.973212 194.431247 
L 385.544095 194.547265 
L 387.127901 195.395971 
L 387.886374 195.535888 
L 388.87251 196.27233 
L 389.238585 197.102297 
L 391.297408 198.300425 
L 392.440342 199.12532 
L 393.86598 200.738746 
L 395.086502 201.51458 
L 395.582959 201.989952 
L 396.271877 202.273364 
L 396.776029 202.805202 
L 397.372558 203.268351 
L 398.756639 204.874074 
L 400.649164 205.825109 
L 401.692299 206.763071 
L 402.694643 207.616623 
L 403.313445 207.77106 
L 404.473705 208.346153 
L 405.739259 209.388484 
L 406.383865 209.697081 
L 407.158721 210.545707 
L 409.110954 211.401418 
L 409.885799 212.120088 
L 411.28722 212.467032 
L 411.850361 212.891306 
L 413.644309 213.656239 
L 414.205006 213.82492 
L 415.472733 214.673336 
L 417.711682 215.722328 
L 419.400796 216.620963 
L 421.365469 217.268854 
L 421.800545 217.642884 
L 423.49099 218.17353 
L 424.075185 218.186693 
L 426.443797 219.115587 
L 427.25033 219.654026 
L 427.918607 219.976643 
L 429.790304 220.199663 
L 430.798011 220.326605 
L 431.195528 220.589806 
L 431.885744 220.688907 
L 433.17616 221.24912 
L 433.709413 221.340896 
L 434.044038 221.568456 
L 435.590928 221.756803 
L 437.389782 221.664264 
L 439.01143 221.953692 
L 439.695425 222.002156 
L 441.37446 221.881341 
L 442.010642 221.985001 
L 443.869393 221.865072 
L 445.58892 221.914885 
L 448.441289 221.470031 
L 449.041251 221.287353 
L 451.981722 221.004932 
L 453.224022 221.00001 
L 457.339354 222.273589 
L 458.062295 222.285831 
L 458.645339 222.412367 
L 460.415554 222.407667 
L 461.030672 222.511444 
L 461.378812 222.73542 
L 462.629227 222.804919 
L 464.076614 223.409916 
L 464.569371 223.640664 
L 467.591095 224.098383 
L 469.173283 224.387075 
L 469.711088 224.405653 
L 470.383309 224.642705 
L 472.655775 224.842503 
L 473.087323 224.999357 
L 476.36007 224.981489 
L 477.094591 225.324836 
L 478.280445 225.366055 
L 479.334727 225.572177 
L 479.841651 225.681872 
L 480.207438 226.047421 
L 480.752712 226.131942 
L 481.504138 226.443366 
L 483.294042 226.887763 
L 484.34356 227.210188 
L 484.949029 227.58749 
L 493.656935 230.700137 
L 494.365629 230.699926 
L 495.778558 231.268513 
L 496.532677 231.307714 
L 497.776515 231.595278 
L 498.277583 231.624249 
L 499.495104 231.962173 
L 500.554086 232.093936 
L 500.98432 232.421806 
L 502.104935 232.693675 
L 503.385572 232.629307 
L 504.321798 232.638946 
L 510.019811 232.93007 
L 511.017909 232.81833 
L 512.196059 232.977703 
L 512.758435 232.868427 
L 513.127615 232.995719 
L 519.566617 232.6701 
L 520.151318 232.9947 
L 522.999521 233.23921 
L 524.316325 233.452942 
L 525.983109 233.414262 
L 527.278253 233.578382 
L 527.715792 233.535101 
L 528.27409 233.601024 
L 529.766427 233.474298 
L 530.116612 233.604048 
L 532.826022 233.553416 
L 535.668673 233.062879 
L 536.778754 232.968737 
L 537.866984 233.212438 
L 538.473264 233.389696 
L 543.347111 233.35427 
L 544.501024 233.260757 
L 546.328963 233.170435 
L 546.790439 232.999035 
L 550.852475 232.439599 
L 551.606593 232.375083 
L 553.367416 232.371706 
L 555.028743 232.226515 
L 558.510829 232.140001 
L 560.876079 232.559008 
L 561.274486 232.870494 
L 562.289836 233.114618 
L 563.62169 233.40801 
L 566.370413 233.825983 
L 567.315434 234.079678 
L 570.878999 234.724332 
L 573.022937 235.147076 
L 573.425531 235.583575 
L 574.744086 235.695102 
L 576.198358 235.755381 
L 577.364804 235.913101 
L 583.067039 236.237485 
L 584.138633 236.173969 
L 585.745993 236.218335 
L 586.383578 236.264698 
L 591.969093 235.592952 
L 593.487061 235.144922 
L 596.674108 234.955622 
L 597.95015 234.640943 
L 599.868075 234.541358 
L 601.440106 234.852511 
L 603.804179 235.124019 
L 604.85937 235.456524 
L 608.127696 235.575017 
L 608.61995 235.319715 
L 609.22859 235.227012 
L 610.433419 235.509857 
L 610.946399 234.974549 
L 611.587232 234.106715 
L 611.840655 233.402425 
L 611.840655 233.402425 
" clip-path="url(#p35ff0576fa)" style="fill: none; stroke: #e24a33; stroke-width: 1.5; stroke-linecap: square"/>
   </g>
   <g id="patch_3">
    <path d="M 54.096563 244.078125 
L 54.096563 22.318125 
" style="fill: none; stroke: #ffffff; stroke-linejoin: miter; stroke-linecap: square"/>
   </g>
   <g id="patch_4">
    <path d="M 612.096563 244.078125 
L 612.096563 22.318125 
" style="fill: none; stroke: #ffffff; stroke-linejoin: miter; stroke-linecap: square"/>
   </g>
   <g id="patch_5">
    <path d="M 54.096563 244.078125 
L 612.096563 244.078125 
" style="fill: none; stroke: #ffffff; stroke-linejoin: miter; stroke-linecap: square"/>
   </g>
   <g id="patch_6">
    <path d="M 54.096563 22.318125 
L 612.096563 22.318125 
" style="fill: none; stroke: #ffffff; stroke-linejoin: miter; stroke-linecap: square"/>
   </g>
   <g id="text_14">
    <!-- help others -->
    <g transform="translate(299.109375 16.318125) scale(0.12 -0.12)">
     <defs>
      <path id="DejaVuSans-6c" d="M 603 4863 
L 1178 4863 
L 1178 0 
L 603 0 
L 603 4863 
z
" transform="scale(0.015625)"/>
      <path id="DejaVuSans-70" d="M 1159 525 
L 1159 -1331 
L 581 -1331 
L 581 3500 
L 1159 3500 
L 1159 2969 
Q 1341 3281 1617 3432 
Q 1894 3584 2278 3584 
Q 2916 3584 3314 3078 
Q 3713 2572 3713 1747 
Q 3713 922 3314 415 
Q 2916 -91 2278 -91 
Q 1894 -91 1617 61 
Q 1341 213 1159 525 
z
M 3116 1747 
Q 3116 2381 2855 2742 
Q 2594 3103 2138 3103 
Q 1681 3103 1420 2742 
Q 1159 2381 1159 1747 
Q 1159 1113 1420 752 
Q 1681 391 2138 391 
Q 2594 391 2855 752 
Q 3116 1113 3116 1747 
z
" transform="scale(0.015625)"/>
      <path id="DejaVuSans-20" transform="scale(0.015625)"/>
     </defs>
     <use xlink:href="#DejaVuSans-68"/>
     <use xlink:href="#DejaVuSans-65" x="63.378906"/>
     <use xlink:href="#DejaVuSans-6c" x="124.902344"/>
     <use xlink:href="#DejaVuSans-70" x="152.685547"/>
     <use xlink:href="#DejaVuSans-20" x="216.162109"/>
     <use xlink:href="#DejaVuSans-6f" x="247.949219"/>
     <use xlink:href="#DejaVuSans-74" x="309.130859"/>
     <use xlink:href="#DejaVuSans-68" x="348.339844"/>
     <use xlink:href="#DejaVuSans-65" x="411.71875"/>
     <use xlink:href="#DejaVuSans-72" x="473.242188"/>
     <use xlink:href="#DejaVuSans-73" x="514.355469"/>
    </g>
   </g>
  </g>
 </g>
 <defs>
  <clipPath id="p35ff0576fa">
   <rect x="54.096563" y="22.318125" width="558" height="221.76"/>
  </clipPath>
 </defs>
</svg>
