<?xml version="1.0" encoding="utf-8" standalone="no"?>
<!DOCTYPE svg PUBLIC "-//W3C//DTD SVG 1.1//EN"
  "http://www.w3.org/Graphics/SVG/1.1/DTD/svg11.dtd">
<svg xmlns:xlink="http://www.w3.org/1999/xlink" width="618.516406pt" height="276.54pt" viewBox="0 0 618.516406 276.54" xmlns="http://www.w3.org/2000/svg" version="1.1">
 <metadata>
  <rdf:RDF xmlns:dc="http://purl.org/dc/elements/1.1/" xmlns:cc="http://creativecommons.org/ns#" xmlns:rdf="http://www.w3.org/1999/02/22-rdf-syntax-ns#">
   <cc:Work>
    <dc:type rdf:resource="http://purl.org/dc/dcmitype/StillImage"/>
    <dc:date>2025-05-12T17:00:18.093804</dc:date>
    <dc:format>image/svg+xml</dc:format>
    <dc:creator>
     <cc:Agent>
      <dc:title>Matplotlib v3.10.0, https://matplotlib.org/</dc:title>
     </cc:Agent>
    </dc:creator>
   </cc:Work>
  </rdf:RDF>
 </metadata>
 <defs>
  <style type="text/css">*{stroke-linejoin: round; stroke-linecap: butt}</style>
 </defs>
 <g id="figure_1">
  <g id="patch_1">
   <path d="M -0 276.54 
L 618.516406 276.54 
L 618.516406 0 
L -0 0 
z
" style="fill: #ffffff"/>
  </g>
  <g id="axes_1">
   <g id="patch_2">
    <path d="M 43.585938 243.549375 
L 601.585938 243.549375 
L 601.585938 21.789375 
L 43.585938 21.789375 
z
" style="fill: #ffffff"/>
   </g>
   <g id="matplotlib.axis_1">
    <g id="xtick_1">
     <g id="line2d_1">
      <path d="M 43.585938 243.549375 
L 43.585938 21.789375 
" clip-path="url(#pbc6804a2e9)" style="fill: none; stroke: #cccccc; stroke-width: 0.8; stroke-linecap: round"/>
     </g>
     <g id="line2d_2"/>
     <g id="text_1">
      <!-- 0.00 -->
      <g style="fill: #262626" transform="translate(33.855469 254.207188) scale(0.1 -0.1)">
       <defs>
        <path id="ArialMT-30" d="M 266 2259 
Q 266 3072 433 3567 
Q 600 4063 929 4331 
Q 1259 4600 1759 4600 
Q 2128 4600 2406 4451 
Q 2684 4303 2865 4023 
Q 3047 3744 3150 3342 
Q 3253 2941 3253 2259 
Q 3253 1453 3087 958 
Q 2922 463 2592 192 
Q 2263 -78 1759 -78 
Q 1097 -78 719 397 
Q 266 969 266 2259 
z
M 844 2259 
Q 844 1131 1108 757 
Q 1372 384 1759 384 
Q 2147 384 2411 759 
Q 2675 1134 2675 2259 
Q 2675 3391 2411 3762 
Q 2147 4134 1753 4134 
Q 1366 4134 1134 3806 
Q 844 3388 844 2259 
z
" transform="scale(0.015625)"/>
        <path id="ArialMT-2e" d="M 581 0 
L 581 641 
L 1222 641 
L 1222 0 
L 581 0 
z
" transform="scale(0.015625)"/>
       </defs>
       <use xlink:href="#ArialMT-30"/>
       <use xlink:href="#ArialMT-2e" transform="translate(55.615234 0)"/>
       <use xlink:href="#ArialMT-30" transform="translate(83.398438 0)"/>
       <use xlink:href="#ArialMT-30" transform="translate(139.013672 0)"/>
      </g>
     </g>
    </g>
    <g id="xtick_2">
     <g id="line2d_3">
      <path d="M 155.185938 243.549375 
L 155.185938 21.789375 
" clip-path="url(#pbc6804a2e9)" style="fill: none; stroke: #cccccc; stroke-width: 0.8; stroke-linecap: round"/>
     </g>
     <g id="line2d_4"/>
     <g id="text_2">
      <!-- 0.02 -->
      <g style="fill: #262626" transform="translate(145.455469 254.207188) scale(0.1 -0.1)">
       <defs>
        <path id="ArialMT-32" d="M 3222 541 
L 3222 0 
L 194 0 
Q 188 203 259 391 
Q 375 700 629 1000 
Q 884 1300 1366 1694 
Q 2113 2306 2375 2664 
Q 2638 3022 2638 3341 
Q 2638 3675 2398 3904 
Q 2159 4134 1775 4134 
Q 1369 4134 1125 3890 
Q 881 3647 878 3216 
L 300 3275 
Q 359 3922 746 4261 
Q 1134 4600 1788 4600 
Q 2447 4600 2831 4234 
Q 3216 3869 3216 3328 
Q 3216 3053 3103 2787 
Q 2991 2522 2730 2228 
Q 2469 1934 1863 1422 
Q 1356 997 1212 845 
Q 1069 694 975 541 
L 3222 541 
z
" transform="scale(0.015625)"/>
       </defs>
       <use xlink:href="#ArialMT-30"/>
       <use xlink:href="#ArialMT-2e" transform="translate(55.615234 0)"/>
       <use xlink:href="#ArialMT-30" transform="translate(83.398438 0)"/>
       <use xlink:href="#ArialMT-32" transform="translate(139.013672 0)"/>
      </g>
     </g>
    </g>
    <g id="xtick_3">
     <g id="line2d_5">
      <path d="M 266.785938 243.549375 
L 266.785938 21.789375 
" clip-path="url(#pbc6804a2e9)" style="fill: none; stroke: #cccccc; stroke-width: 0.8; stroke-linecap: round"/>
     </g>
     <g id="line2d_6"/>
     <g id="text_3">
      <!-- 0.04 -->
      <g style="fill: #262626" transform="translate(257.055469 254.207188) scale(0.1 -0.1)">
       <defs>
        <path id="ArialMT-34" d="M 2069 0 
L 2069 1097 
L 81 1097 
L 81 1613 
L 2172 4581 
L 2631 4581 
L 2631 1613 
L 3250 1613 
L 3250 1097 
L 2631 1097 
L 2631 0 
L 2069 0 
z
M 2069 1613 
L 2069 3678 
L 634 1613 
L 2069 1613 
z
" transform="scale(0.015625)"/>
       </defs>
       <use xlink:href="#ArialMT-30"/>
       <use xlink:href="#ArialMT-2e" transform="translate(55.615234 0)"/>
       <use xlink:href="#ArialMT-30" transform="translate(83.398438 0)"/>
       <use xlink:href="#ArialMT-34" transform="translate(139.013672 0)"/>
      </g>
     </g>
    </g>
    <g id="xtick_4">
     <g id="line2d_7">
      <path d="M 378.385938 243.549375 
L 378.385938 21.789375 
" clip-path="url(#pbc6804a2e9)" style="fill: none; stroke: #cccccc; stroke-width: 0.8; stroke-linecap: round"/>
     </g>
     <g id="line2d_8"/>
     <g id="text_4">
      <!-- 0.06 -->
      <g style="fill: #262626" transform="translate(368.655469 254.207188) scale(0.1 -0.1)">
       <defs>
        <path id="ArialMT-36" d="M 3184 3459 
L 2625 3416 
Q 2550 3747 2413 3897 
Q 2184 4138 1850 4138 
Q 1581 4138 1378 3988 
Q 1113 3794 959 3422 
Q 806 3050 800 2363 
Q 1003 2672 1297 2822 
Q 1591 2972 1913 2972 
Q 2475 2972 2870 2558 
Q 3266 2144 3266 1488 
Q 3266 1056 3080 686 
Q 2894 316 2569 119 
Q 2244 -78 1831 -78 
Q 1128 -78 684 439 
Q 241 956 241 2144 
Q 241 3472 731 4075 
Q 1159 4600 1884 4600 
Q 2425 4600 2770 4297 
Q 3116 3994 3184 3459 
z
M 888 1484 
Q 888 1194 1011 928 
Q 1134 663 1356 523 
Q 1578 384 1822 384 
Q 2178 384 2434 671 
Q 2691 959 2691 1453 
Q 2691 1928 2437 2201 
Q 2184 2475 1800 2475 
Q 1419 2475 1153 2201 
Q 888 1928 888 1484 
z
" transform="scale(0.015625)"/>
       </defs>
       <use xlink:href="#ArialMT-30"/>
       <use xlink:href="#ArialMT-2e" transform="translate(55.615234 0)"/>
       <use xlink:href="#ArialMT-30" transform="translate(83.398438 0)"/>
       <use xlink:href="#ArialMT-36" transform="translate(139.013672 0)"/>
      </g>
     </g>
    </g>
    <g id="xtick_5">
     <g id="line2d_9">
      <path d="M 489.985938 243.549375 
L 489.985938 21.789375 
" clip-path="url(#pbc6804a2e9)" style="fill: none; stroke: #cccccc; stroke-width: 0.8; stroke-linecap: round"/>
     </g>
     <g id="line2d_10"/>
     <g id="text_5">
      <!-- 0.08 -->
      <g style="fill: #262626" transform="translate(480.255469 254.207188) scale(0.1 -0.1)">
       <defs>
        <path id="ArialMT-38" d="M 1131 2484 
Q 781 2613 612 2850 
Q 444 3088 444 3419 
Q 444 3919 803 4259 
Q 1163 4600 1759 4600 
Q 2359 4600 2725 4251 
Q 3091 3903 3091 3403 
Q 3091 3084 2923 2848 
Q 2756 2613 2416 2484 
Q 2838 2347 3058 2040 
Q 3278 1734 3278 1309 
Q 3278 722 2862 322 
Q 2447 -78 1769 -78 
Q 1091 -78 675 323 
Q 259 725 259 1325 
Q 259 1772 486 2073 
Q 713 2375 1131 2484 
z
M 1019 3438 
Q 1019 3113 1228 2906 
Q 1438 2700 1772 2700 
Q 2097 2700 2305 2904 
Q 2513 3109 2513 3406 
Q 2513 3716 2298 3927 
Q 2084 4138 1766 4138 
Q 1444 4138 1231 3931 
Q 1019 3725 1019 3438 
z
M 838 1322 
Q 838 1081 952 856 
Q 1066 631 1291 507 
Q 1516 384 1775 384 
Q 2178 384 2440 643 
Q 2703 903 2703 1303 
Q 2703 1709 2433 1975 
Q 2163 2241 1756 2241 
Q 1359 2241 1098 1978 
Q 838 1716 838 1322 
z
" transform="scale(0.015625)"/>
       </defs>
       <use xlink:href="#ArialMT-30"/>
       <use xlink:href="#ArialMT-2e" transform="translate(55.615234 0)"/>
       <use xlink:href="#ArialMT-30" transform="translate(83.398438 0)"/>
       <use xlink:href="#ArialMT-38" transform="translate(139.013672 0)"/>
      </g>
     </g>
    </g>
    <g id="xtick_6">
     <g id="line2d_11">
      <path d="M 601.585938 243.549375 
L 601.585938 21.789375 
" clip-path="url(#pbc6804a2e9)" style="fill: none; stroke: #cccccc; stroke-width: 0.8; stroke-linecap: round"/>
     </g>
     <g id="line2d_12"/>
     <g id="text_6">
      <!-- 0.10 -->
      <g style="fill: #262626" transform="translate(591.855469 254.207188) scale(0.1 -0.1)">
       <defs>
        <path id="ArialMT-31" d="M 2384 0 
L 1822 0 
L 1822 3584 
Q 1619 3391 1289 3197 
Q 959 3003 697 2906 
L 697 3450 
Q 1169 3672 1522 3987 
Q 1875 4303 2022 4600 
L 2384 4600 
L 2384 0 
z
" transform="scale(0.015625)"/>
       </defs>
       <use xlink:href="#ArialMT-30"/>
       <use xlink:href="#ArialMT-2e" transform="translate(55.615234 0)"/>
       <use xlink:href="#ArialMT-31" transform="translate(83.398438 0)"/>
       <use xlink:href="#ArialMT-30" transform="translate(139.013672 0)"/>
      </g>
     </g>
    </g>
    <g id="text_7">
     <!-- mutation-prob -->
     <g style="fill: #262626" transform="translate(291.739062 267.3525) scale(0.1 -0.1)">
      <defs>
       <path id="ArialMT-6d" d="M 422 0 
L 422 3319 
L 925 3319 
L 925 2853 
Q 1081 3097 1340 3245 
Q 1600 3394 1931 3394 
Q 2300 3394 2536 3241 
Q 2772 3088 2869 2813 
Q 3263 3394 3894 3394 
Q 4388 3394 4653 3120 
Q 4919 2847 4919 2278 
L 4919 0 
L 4359 0 
L 4359 2091 
Q 4359 2428 4304 2576 
Q 4250 2725 4106 2815 
Q 3963 2906 3769 2906 
Q 3419 2906 3187 2673 
Q 2956 2441 2956 1928 
L 2956 0 
L 2394 0 
L 2394 2156 
Q 2394 2531 2256 2718 
Q 2119 2906 1806 2906 
Q 1569 2906 1367 2781 
Q 1166 2656 1075 2415 
Q 984 2175 984 1722 
L 984 0 
L 422 0 
z
" transform="scale(0.015625)"/>
       <path id="ArialMT-75" d="M 2597 0 
L 2597 488 
Q 2209 -75 1544 -75 
Q 1250 -75 995 37 
Q 741 150 617 320 
Q 494 491 444 738 
Q 409 903 409 1263 
L 409 3319 
L 972 3319 
L 972 1478 
Q 972 1038 1006 884 
Q 1059 663 1231 536 
Q 1403 409 1656 409 
Q 1909 409 2131 539 
Q 2353 669 2445 892 
Q 2538 1116 2538 1541 
L 2538 3319 
L 3100 3319 
L 3100 0 
L 2597 0 
z
" transform="scale(0.015625)"/>
       <path id="ArialMT-74" d="M 1650 503 
L 1731 6 
Q 1494 -44 1306 -44 
Q 1000 -44 831 53 
Q 663 150 594 308 
Q 525 466 525 972 
L 525 2881 
L 113 2881 
L 113 3319 
L 525 3319 
L 525 4141 
L 1084 4478 
L 1084 3319 
L 1650 3319 
L 1650 2881 
L 1084 2881 
L 1084 941 
Q 1084 700 1114 631 
Q 1144 563 1211 522 
Q 1278 481 1403 481 
Q 1497 481 1650 503 
z
" transform="scale(0.015625)"/>
       <path id="ArialMT-61" d="M 2588 409 
Q 2275 144 1986 34 
Q 1697 -75 1366 -75 
Q 819 -75 525 192 
Q 231 459 231 875 
Q 231 1119 342 1320 
Q 453 1522 633 1644 
Q 813 1766 1038 1828 
Q 1203 1872 1538 1913 
Q 2219 1994 2541 2106 
Q 2544 2222 2544 2253 
Q 2544 2597 2384 2738 
Q 2169 2928 1744 2928 
Q 1347 2928 1158 2789 
Q 969 2650 878 2297 
L 328 2372 
Q 403 2725 575 2942 
Q 747 3159 1072 3276 
Q 1397 3394 1825 3394 
Q 2250 3394 2515 3294 
Q 2781 3194 2906 3042 
Q 3031 2891 3081 2659 
Q 3109 2516 3109 2141 
L 3109 1391 
Q 3109 606 3145 398 
Q 3181 191 3288 0 
L 2700 0 
Q 2613 175 2588 409 
z
M 2541 1666 
Q 2234 1541 1622 1453 
Q 1275 1403 1131 1340 
Q 988 1278 909 1158 
Q 831 1038 831 891 
Q 831 666 1001 516 
Q 1172 366 1500 366 
Q 1825 366 2078 508 
Q 2331 650 2450 897 
Q 2541 1088 2541 1459 
L 2541 1666 
z
" transform="scale(0.015625)"/>
       <path id="ArialMT-69" d="M 425 3934 
L 425 4581 
L 988 4581 
L 988 3934 
L 425 3934 
z
M 425 0 
L 425 3319 
L 988 3319 
L 988 0 
L 425 0 
z
" transform="scale(0.015625)"/>
       <path id="ArialMT-6f" d="M 213 1659 
Q 213 2581 725 3025 
Q 1153 3394 1769 3394 
Q 2453 3394 2887 2945 
Q 3322 2497 3322 1706 
Q 3322 1066 3130 698 
Q 2938 331 2570 128 
Q 2203 -75 1769 -75 
Q 1072 -75 642 372 
Q 213 819 213 1659 
z
M 791 1659 
Q 791 1022 1069 705 
Q 1347 388 1769 388 
Q 2188 388 2466 706 
Q 2744 1025 2744 1678 
Q 2744 2294 2464 2611 
Q 2184 2928 1769 2928 
Q 1347 2928 1069 2612 
Q 791 2297 791 1659 
z
" transform="scale(0.015625)"/>
       <path id="ArialMT-6e" d="M 422 0 
L 422 3319 
L 928 3319 
L 928 2847 
Q 1294 3394 1984 3394 
Q 2284 3394 2536 3286 
Q 2788 3178 2913 3003 
Q 3038 2828 3088 2588 
Q 3119 2431 3119 2041 
L 3119 0 
L 2556 0 
L 2556 2019 
Q 2556 2363 2490 2533 
Q 2425 2703 2258 2804 
Q 2091 2906 1866 2906 
Q 1506 2906 1245 2678 
Q 984 2450 984 1813 
L 984 0 
L 422 0 
z
" transform="scale(0.015625)"/>
       <path id="ArialMT-2d" d="M 203 1375 
L 203 1941 
L 1931 1941 
L 1931 1375 
L 203 1375 
z
" transform="scale(0.015625)"/>
       <path id="ArialMT-70" d="M 422 -1272 
L 422 3319 
L 934 3319 
L 934 2888 
Q 1116 3141 1344 3267 
Q 1572 3394 1897 3394 
Q 2322 3394 2647 3175 
Q 2972 2956 3137 2557 
Q 3303 2159 3303 1684 
Q 3303 1175 3120 767 
Q 2938 359 2589 142 
Q 2241 -75 1856 -75 
Q 1575 -75 1351 44 
Q 1128 163 984 344 
L 984 -1272 
L 422 -1272 
z
M 931 1641 
Q 931 1000 1190 694 
Q 1450 388 1819 388 
Q 2194 388 2461 705 
Q 2728 1022 2728 1688 
Q 2728 2322 2467 2637 
Q 2206 2953 1844 2953 
Q 1484 2953 1207 2617 
Q 931 2281 931 1641 
z
" transform="scale(0.015625)"/>
       <path id="ArialMT-72" d="M 416 0 
L 416 3319 
L 922 3319 
L 922 2816 
Q 1116 3169 1280 3281 
Q 1444 3394 1641 3394 
Q 1925 3394 2219 3213 
L 2025 2691 
Q 1819 2813 1613 2813 
Q 1428 2813 1281 2702 
Q 1134 2591 1072 2394 
Q 978 2094 978 1738 
L 978 0 
L 416 0 
z
" transform="scale(0.015625)"/>
       <path id="ArialMT-62" d="M 941 0 
L 419 0 
L 419 4581 
L 981 4581 
L 981 2947 
Q 1338 3394 1891 3394 
Q 2197 3394 2470 3270 
Q 2744 3147 2920 2923 
Q 3097 2700 3197 2384 
Q 3297 2069 3297 1709 
Q 3297 856 2875 390 
Q 2453 -75 1863 -75 
Q 1275 -75 941 416 
L 941 0 
z
M 934 1684 
Q 934 1088 1097 822 
Q 1363 388 1816 388 
Q 2184 388 2453 708 
Q 2722 1028 2722 1663 
Q 2722 2313 2464 2622 
Q 2206 2931 1841 2931 
Q 1472 2931 1203 2611 
Q 934 2291 934 1684 
z
" transform="scale(0.015625)"/>
      </defs>
      <use xlink:href="#ArialMT-6d"/>
      <use xlink:href="#ArialMT-75" transform="translate(83.300781 0)"/>
      <use xlink:href="#ArialMT-74" transform="translate(138.916016 0)"/>
      <use xlink:href="#ArialMT-61" transform="translate(166.699219 0)"/>
      <use xlink:href="#ArialMT-74" transform="translate(222.314453 0)"/>
      <use xlink:href="#ArialMT-69" transform="translate(250.097656 0)"/>
      <use xlink:href="#ArialMT-6f" transform="translate(272.314453 0)"/>
      <use xlink:href="#ArialMT-6e" transform="translate(327.929688 0)"/>
      <use xlink:href="#ArialMT-2d" transform="translate(383.544922 0)"/>
      <use xlink:href="#ArialMT-70" transform="translate(416.845703 0)"/>
      <use xlink:href="#ArialMT-72" transform="translate(472.460938 0)"/>
      <use xlink:href="#ArialMT-6f" transform="translate(505.761719 0)"/>
      <use xlink:href="#ArialMT-62" transform="translate(561.376953 0)"/>
     </g>
    </g>
   </g>
   <g id="matplotlib.axis_2">
    <g id="ytick_1">
     <g id="line2d_13">
      <path d="M 43.585938 232.461375 
L 601.585938 232.461375 
" clip-path="url(#pbc6804a2e9)" style="fill: none; stroke: #cccccc; stroke-width: 0.8; stroke-linecap: round"/>
     </g>
     <g id="line2d_14"/>
     <g id="text_8">
      <!-- −0.4 -->
      <g style="fill: #262626" transform="translate(20.345312 236.040281) scale(0.1 -0.1)">
       <defs>
        <path id="ArialMT-2212" d="M 3381 1997 
L 356 1997 
L 356 2522 
L 3381 2522 
L 3381 1997 
z
" transform="scale(0.015625)"/>
       </defs>
       <use xlink:href="#ArialMT-2212"/>
       <use xlink:href="#ArialMT-30" transform="translate(58.398438 0)"/>
       <use xlink:href="#ArialMT-2e" transform="translate(114.013672 0)"/>
       <use xlink:href="#ArialMT-34" transform="translate(141.796875 0)"/>
      </g>
     </g>
    </g>
    <g id="ytick_2">
     <g id="line2d_15">
      <path d="M 43.585938 188.109375 
L 601.585938 188.109375 
" clip-path="url(#pbc6804a2e9)" style="fill: none; stroke: #cccccc; stroke-width: 0.8; stroke-linecap: round"/>
     </g>
     <g id="line2d_16"/>
     <g id="text_9">
      <!-- −0.2 -->
      <g style="fill: #262626" transform="translate(20.345312 191.688281) scale(0.1 -0.1)">
       <use xlink:href="#ArialMT-2212"/>
       <use xlink:href="#ArialMT-30" transform="translate(58.398438 0)"/>
       <use xlink:href="#ArialMT-2e" transform="translate(114.013672 0)"/>
       <use xlink:href="#ArialMT-32" transform="translate(141.796875 0)"/>
      </g>
     </g>
    </g>
    <g id="ytick_3">
     <g id="line2d_17">
      <path d="M 43.585938 143.757375 
L 601.585938 143.757375 
" clip-path="url(#pbc6804a2e9)" style="fill: none; stroke: #cccccc; stroke-width: 0.8; stroke-linecap: round"/>
     </g>
     <g id="line2d_18"/>
     <g id="text_10">
      <!-- 0.0 -->
      <g style="fill: #262626" transform="translate(26.185938 147.336281) scale(0.1 -0.1)">
       <use xlink:href="#ArialMT-30"/>
       <use xlink:href="#ArialMT-2e" transform="translate(55.615234 0)"/>
       <use xlink:href="#ArialMT-30" transform="translate(83.398438 0)"/>
      </g>
     </g>
    </g>
    <g id="ytick_4">
     <g id="line2d_19">
      <path d="M 43.585938 99.405375 
L 601.585938 99.405375 
" clip-path="url(#pbc6804a2e9)" style="fill: none; stroke: #cccccc; stroke-width: 0.8; stroke-linecap: round"/>
     </g>
     <g id="line2d_20"/>
     <g id="text_11">
      <!-- 0.2 -->
      <g style="fill: #262626" transform="translate(26.185938 102.984281) scale(0.1 -0.1)">
       <use xlink:href="#ArialMT-30"/>
       <use xlink:href="#ArialMT-2e" transform="translate(55.615234 0)"/>
       <use xlink:href="#ArialMT-32" transform="translate(83.398438 0)"/>
      </g>
     </g>
    </g>
    <g id="ytick_5">
     <g id="line2d_21">
      <path d="M 43.585938 55.053375 
L 601.585938 55.053375 
" clip-path="url(#pbc6804a2e9)" style="fill: none; stroke: #cccccc; stroke-width: 0.8; stroke-linecap: round"/>
     </g>
     <g id="line2d_22"/>
     <g id="text_12">
      <!-- 0.4 -->
      <g style="fill: #262626" transform="translate(26.185938 58.632281) scale(0.1 -0.1)">
       <use xlink:href="#ArialMT-30"/>
       <use xlink:href="#ArialMT-2e" transform="translate(55.615234 0)"/>
       <use xlink:href="#ArialMT-34" transform="translate(83.398438 0)"/>
      </g>
     </g>
    </g>
    <g id="text_13">
     <!-- score -->
     <g style="fill: #262626" transform="translate(14.357812 144.895156) rotate(-90) scale(0.1 -0.1)">
      <defs>
       <path id="ArialMT-73" d="M 197 991 
L 753 1078 
Q 800 744 1014 566 
Q 1228 388 1613 388 
Q 2000 388 2187 545 
Q 2375 703 2375 916 
Q 2375 1106 2209 1216 
Q 2094 1291 1634 1406 
Q 1016 1563 777 1677 
Q 538 1791 414 1992 
Q 291 2194 291 2438 
Q 291 2659 392 2848 
Q 494 3038 669 3163 
Q 800 3259 1026 3326 
Q 1253 3394 1513 3394 
Q 1903 3394 2198 3281 
Q 2494 3169 2634 2976 
Q 2775 2784 2828 2463 
L 2278 2388 
Q 2241 2644 2061 2787 
Q 1881 2931 1553 2931 
Q 1166 2931 1000 2803 
Q 834 2675 834 2503 
Q 834 2394 903 2306 
Q 972 2216 1119 2156 
Q 1203 2125 1616 2013 
Q 2213 1853 2448 1751 
Q 2684 1650 2818 1456 
Q 2953 1263 2953 975 
Q 2953 694 2789 445 
Q 2625 197 2315 61 
Q 2006 -75 1616 -75 
Q 969 -75 630 194 
Q 291 463 197 991 
z
" transform="scale(0.015625)"/>
       <path id="ArialMT-63" d="M 2588 1216 
L 3141 1144 
Q 3050 572 2676 248 
Q 2303 -75 1759 -75 
Q 1078 -75 664 370 
Q 250 816 250 1647 
Q 250 2184 428 2587 
Q 606 2991 970 3192 
Q 1334 3394 1763 3394 
Q 2303 3394 2647 3120 
Q 2991 2847 3088 2344 
L 2541 2259 
Q 2463 2594 2264 2762 
Q 2066 2931 1784 2931 
Q 1359 2931 1093 2626 
Q 828 2322 828 1663 
Q 828 994 1084 691 
Q 1341 388 1753 388 
Q 2084 388 2306 591 
Q 2528 794 2588 1216 
z
" transform="scale(0.015625)"/>
       <path id="ArialMT-65" d="M 2694 1069 
L 3275 997 
Q 3138 488 2766 206 
Q 2394 -75 1816 -75 
Q 1088 -75 661 373 
Q 234 822 234 1631 
Q 234 2469 665 2931 
Q 1097 3394 1784 3394 
Q 2450 3394 2872 2941 
Q 3294 2488 3294 1666 
Q 3294 1616 3291 1516 
L 816 1516 
Q 847 969 1125 678 
Q 1403 388 1819 388 
Q 2128 388 2347 550 
Q 2566 713 2694 1069 
z
M 847 1978 
L 2700 1978 
Q 2663 2397 2488 2606 
Q 2219 2931 1791 2931 
Q 1403 2931 1139 2672 
Q 875 2413 847 1978 
z
" transform="scale(0.015625)"/>
      </defs>
      <use xlink:href="#ArialMT-73"/>
      <use xlink:href="#ArialMT-63" transform="translate(50 0)"/>
      <use xlink:href="#ArialMT-6f" transform="translate(100 0)"/>
      <use xlink:href="#ArialMT-72" transform="translate(155.615234 0)"/>
      <use xlink:href="#ArialMT-65" transform="translate(188.916016 0)"/>
     </g>
    </g>
   </g>
   <g id="FillBetweenPolyCollection_1">
    <defs>
     <path id="m6a09e274be" d="M 44.147151 -121.43715 
L 44.147151 -113.530108 
L 44.649102 -113.280809 
L 45.293179 -114.086521 
L 45.846434 -114.983456 
L 46.418423 -115.902168 
L 46.975957 -117.0954 
L 47.6581 -118.061792 
L 48.28817 -118.507716 
L 48.748787 -119.245864 
L 49.303838 -119.742209 
L 49.967307 -120.055658 
L 50.42006 -120.27506 
L 50.970884 -120.516267 
L 51.429579 -120.630172 
L 51.790406 -120.910868 
L 52.455468 -120.99573 
L 53.047882 -121.146315 
L 53.659494 -121.183105 
L 54.273854 -120.971541 
L 54.84479 -121.151898 
L 55.445821 -121.22634 
L 55.949135 -121.291198 
L 56.562918 -121.377514 
L 56.977589 -121.446681 
L 57.396344 -121.59769 
L 58.119787 -121.768557 
L 58.744284 -121.822833 
L 59.268081 -121.847672 
L 59.876024 -121.752082 
L 60.32339 -121.536745 
L 60.83088 -121.449534 
L 61.446898 -121.310957 
L 62.080757 -121.277816 
L 62.758503 -121.231578 
L 63.061556 -121.287251 
L 63.603143 -121.221105 
L 64.2989 -121.07337 
L 64.727873 -120.939529 
L 65.294305 -120.862611 
L 65.986623 -120.577253 
L 66.513381 -120.368085 
L 67.10083 -120.258249 
L 67.554489 -120.185968 
L 67.948939 -120.114824 
L 68.772068 -119.930228 
L 69.407178 -119.749296 
L 69.859367 -119.655809 
L 70.493153 -119.628404 
L 71.092733 -119.639728 
L 71.561824 -119.746268 
L 72.08339 -119.903637 
L 72.606849 -120.008864 
L 73.025893 -120.151733 
L 73.539429 -120.363783 
L 74.188547 -120.668686 
L 74.874752 -120.898961 
L 75.312916 -120.921861 
L 75.807865 -121.072417 
L 76.498636 -121.205546 
L 77.200479 -121.503345 
L 77.634877 -121.867228 
L 78.084055 -122.223421 
L 78.743862 -122.578481 
L 79.280456 -122.857795 
L 79.825703 -123.23664 
L 80.261596 -123.319389 
L 80.885459 -123.408918 
L 81.43842 -123.476972 
L 81.85665 -123.698468 
L 82.423936 -123.96451 
L 82.97598 -124.230784 
L 83.519458 -124.462154 
L 84.280381 -124.557762 
L 84.998902 -124.770723 
L 85.338268 -124.929588 
L 85.769102 -125.017603 
L 86.490414 -125.208649 
L 87.097735 -125.363159 
L 87.578823 -125.460655 
L 88.115116 -125.720711 
L 88.738508 -125.903619 
L 89.392179 -125.998741 
L 89.97327 -126.243039 
L 90.4295 -126.492721 
L 90.886685 -126.553385 
L 91.635184 -126.875658 
L 92.136633 -127.108433 
L 92.681809 -127.310422 
L 93.242088 -127.658353 
L 93.597644 -127.626338 
L 94.255848 -127.755045 
L 95.04986 -127.810113 
L 95.675883 -127.892857 
L 96.042464 -127.954925 
L 96.496902 -128.064461 
L 97.19674 -128.130231 
L 97.75354 -128.163502 
L 98.30926 -128.174091 
L 99.025889 -128.185435 
L 99.422621 -128.183744 
L 99.952116 -128.236385 
L 100.723975 -128.234555 
L 101.247454 -128.176956 
L 101.67295 -127.936172 
L 102.110373 -127.889078 
L 102.651764 -128.101087 
L 103.389305 -128.047992 
L 103.900214 -128.077798 
L 104.48436 -128.151328 
L 105.111566 -128.183751 
L 105.402377 -128.271476 
L 106.048248 -128.329894 
L 106.847501 -128.504322 
L 107.218641 -128.583238 
L 107.744874 -128.630435 
L 108.486338 -128.718698 
L 108.93945 -128.737992 
L 109.475937 -128.798545 
L 110.134488 -128.878124 
L 110.732953 -128.948615 
L 111.352813 -128.991975 
L 111.801084 -128.983502 
L 112.254491 -129.029131 
L 112.72988 -129.083211 
L 113.160422 -129.117444 
L 113.923785 -129.150288 
L 114.560975 -129.22865 
L 115.014347 -129.254485 
L 115.66685 -129.307332 
L 116.27499 -129.356392 
L 116.70828 -129.293341 
L 117.148674 -129.248228 
L 117.618151 -129.268572 
L 118.109468 -129.321114 
L 118.739474 -129.390324 
L 119.54059 -129.411939 
L 120.20323 -129.416001 
L 120.588612 -129.455205 
L 121.22657 -129.453014 
L 121.702598 -129.420268 
L 122.122101 -129.346471 
L 122.76478 -129.263471 
L 123.306556 -129.345426 
L 123.8166 -129.329434 
L 124.324329 -129.402601 
L 125.01118 -129.413544 
L 125.775288 -129.412138 
L 126.361437 -129.400793 
L 126.852745 -129.466735 
L 127.414233 -129.465665 
L 127.786115 -129.422307 
L 128.159711 -129.390064 
L 128.873438 -129.371884 
L 129.604256 -129.339876 
L 130.006335 -129.286384 
L 130.430861 -129.272483 
L 131.100403 -129.24606 
L 131.607281 -129.161633 
L 132.234657 -129.113416 
L 132.824011 -129.020055 
L 133.34271 -128.863531 
L 134.098588 -128.749133 
L 134.554248 -128.694355 
L 135.043235 -128.684453 
L 135.655103 -128.605605 
L 136.11227 -128.560783 
L 136.846231 -128.664399 
L 137.351956 -128.705147 
L 137.869066 -128.874258 
L 138.607561 -128.984166 
L 138.975411 -129.184321 
L 139.350513 -129.264557 
L 140.093877 -129.37571 
L 140.82906 -129.496751 
L 141.39147 -129.671461 
L 141.825163 -129.793817 
L 142.384629 -129.955291 
L 142.879548 -130.090893 
L 143.389329 -130.203898 
L 143.997917 -130.39106 
L 144.564811 -130.437869 
L 145.182271 -130.407864 
L 145.65067 -130.397891 
L 146.358553 -130.524047 
L 146.876013 -130.49593 
L 147.257601 -130.512599 
L 147.932407 -130.558499 
L 148.521716 -130.502404 
L 148.904398 -130.492948 
L 149.557351 -130.410822 
L 150.292223 -130.367143 
L 150.794665 -130.290827 
L 151.399668 -130.222098 
L 151.799331 -130.194528 
L 152.212355 -130.133589 
L 152.977537 -130.088089 
L 153.548986 -129.996771 
L 153.920603 -129.925101 
L 154.510923 -129.954878 
L 155.071324 -129.963983 
L 155.573059 -129.994746 
L 156.349894 -130.034055 
L 156.958585 -130.081033 
L 157.334504 -130.219872 
L 157.905486 -130.384014 
L 158.572516 -130.519525 
L 159.065059 -130.605947 
L 159.713371 -130.653305 
L 160.439958 -130.701071 
L 160.785694 -130.705176 
L 161.224235 -130.704138 
L 161.921872 -130.702613 
L 162.599449 -130.717374 
L 163.085141 -130.784977 
L 163.580193 -130.794756 
L 164.173262 -130.79904 
L 164.755393 -130.841337 
L 165.387207 -130.909771 
L 165.950157 -130.934976 
L 166.556598 -131.005373 
L 166.974537 -130.980506 
L 167.295047 -130.992076 
L 167.924089 -130.900741 
L 168.708065 -130.785522 
L 169.398134 -130.681967 
L 169.951408 -130.436896 
L 170.342391 -130.412308 
L 170.702211 -130.464291 
L 171.426378 -130.468044 
L 172.020311 -130.511291 
L 172.526423 -130.65655 
L 173.254946 -130.863231 
L 173.839541 -130.999198 
L 174.204698 -130.971292 
L 174.520859 -131.040502 
L 175.091611 -131.112426 
L 175.878067 -131.134655 
L 176.487521 -131.192307 
L 177.054496 -131.342737 
L 177.703387 -131.464662 
L 178.087923 -131.561191 
L 178.549177 -131.676844 
L 179.172587 -131.803693 
L 179.68933 -131.874185 
L 180.268944 -132.020847 
L 180.922934 -132.058356 
L 181.463593 -132.196393 
L 182.100853 -132.277061 
L 182.655504 -132.427963 
L 183.169007 -132.452659 
L 183.780885 -132.568427 
L 184.222174 -132.593975 
L 184.59345 -132.630052 
L 185.120906 -132.493618 
L 185.73188 -132.493297 
L 186.324199 -132.495052 
L 186.89852 -132.534733 
L 187.381229 -132.440142 
L 187.950998 -132.314917 
L 188.642512 -132.301458 
L 189.232113 -132.155275 
L 189.751503 -131.995157 
L 190.230719 -131.943024 
L 190.732637 -131.827362 
L 191.30945 -131.741453 
L 191.925942 -131.637353 
L 192.452692 -131.520886 
L 193.109958 -131.37656 
L 193.882417 -131.300651 
L 194.345924 -131.265619 
L 194.712864 -131.218103 
L 195.332835 -131.178132 
L 196.082275 -131.140415 
L 196.453055 -131.074422 
L 196.826465 -130.990262 
L 197.396201 -130.923456 
L 198.046776 -130.860735 
L 198.661366 -130.830992 
L 199.081679 -130.795074 
L 199.830002 -130.731315 
L 200.418786 -130.672853 
L 200.892319 -130.533571 
L 201.539657 -130.407646 
L 201.971056 -130.321453 
L 202.542315 -130.2892 
L 203.158878 -130.270898 
L 203.801284 -130.208675 
L 204.392859 -130.194417 
L 204.923973 -130.113509 
L 205.346012 -130.087737 
L 205.783693 -130.055424 
L 206.451107 -130.088861 
L 207.130477 -130.062677 
L 207.628605 -130.02839 
L 208.070274 -130.155152 
L 208.760651 -130.097728 
L 209.449597 -129.934369 
L 209.932289 -129.796101 
L 210.374959 -129.726196 
L 211.054268 -129.652392 
L 211.554328 -129.465649 
L 212.030484 -129.405656 
L 212.551432 -129.29425 
L 213.202786 -129.164951 
L 213.879873 -128.948299 
L 214.306054 -128.88829 
L 214.987665 -128.766648 
L 215.621854 -128.581303 
L 216.150391 -128.329598 
L 216.69339 -128.130966 
L 217.184494 -127.679742 
L 217.635475 -127.495486 
L 218.178664 -127.33277 
L 218.75128 -127.16141 
L 219.20056 -127.044939 
L 219.792744 -126.613183 
L 220.561039 -126.94548 
L 221.216782 -127.051893 
L 221.599464 -127.189361 
L 222.025589 -127.169474 
L 222.690373 -127.208977 
L 223.197947 -127.22951 
L 223.765234 -127.235305 
L 224.519297 -127.279163 
L 225.028138 -127.25657 
L 225.610922 -127.315664 
L 226.277039 -127.300963 
L 226.783442 -127.281345 
L 227.227692 -127.17936 
L 227.813801 -126.979993 
L 228.28391 -126.876232 
L 228.809325 -126.667349 
L 229.511386 -126.411492 
L 230.108551 -125.977964 
L 230.670174 -125.751039 
L 231.215479 -125.616432 
L 231.852583 -125.392356 
L 232.223357 -125.18874 
L 232.533528 -125.025783 
L 233.297776 -124.831239 
L 233.917648 -124.583277 
L 234.408093 -124.434138 
L 234.891041 -124.427966 
L 235.484456 -124.355302 
L 236.069371 -124.323322 
L 236.409635 -124.192436 
L 237.166698 -124.147769 
L 237.976496 -123.97677 
L 238.57984 -123.902488 
L 238.994114 -123.857405 
L 239.308901 -123.683114 
L 239.833845 -123.608077 
L 240.478476 -123.562463 
L 241.183032 -123.622005 
L 241.83748 -123.646277 
L 242.430718 -123.774952 
L 242.783472 -124.156661 
L 243.132067 -124.401781 
L 243.709634 -124.672532 
L 244.423537 -124.772125 
L 245.13789 -124.669878 
L 245.601823 -124.88518 
L 246.075063 -125.03647 
L 246.737811 -125.225714 
L 247.210269 -125.391976 
L 247.71887 -125.502481 
L 248.520615 -125.740631 
L 249.110325 -126.038638 
L 249.443714 -126.2234 
L 249.848326 -126.491526 
L 250.568634 -126.603158 
L 251.340122 -126.883533 
L 251.963582 -127.177182 
L 252.379324 -127.375361 
L 252.732052 -127.656021 
L 253.388526 -127.873688 
L 253.916789 -127.977637 
L 254.442361 -128.142959 
L 255.012869 -128.305055 
L 255.503779 -128.510184 
L 256.194309 -128.719009 
L 256.69464 -128.937305 
L 257.209687 -129.130659 
L 257.733053 -129.294358 
L 258.22651 -129.431948 
L 258.844959 -129.476872 
L 259.478056 -129.564507 
L 260.158826 -129.642317 
L 260.646955 -129.619895 
L 261.272397 -129.69349 
L 262.019449 -129.763756 
L 262.429846 -129.796535 
L 262.970375 -129.960361 
L 263.444022 -130.046951 
L 263.926974 -130.146258 
L 264.541301 -130.232013 
L 265.056465 -130.362876 
L 265.648235 -130.454482 
L 266.305269 -130.67808 
L 266.927653 -130.704489 
L 267.50609 -130.797067 
L 268.145128 -130.953711 
L 268.570467 -131.051505 
L 268.930971 -131.168855 
L 269.498828 -131.437484 
L 270.239669 -131.52271 
L 270.903733 -131.600953 
L 271.358217 -131.80133 
L 271.951652 -131.963959 
L 272.549889 -132.077299 
L 273.030787 -132.297724 
L 273.523991 -132.622448 
L 273.945228 -132.868442 
L 274.474552 -133.12174 
L 275.262025 -133.336679 
L 275.97138 -133.548904 
L 276.37996 -133.901466 
L 276.78433 -134.018024 
L 277.425344 -134.070727 
L 278.008018 -134.125128 
L 278.497674 -134.213596 
L 279.107528 -134.26192 
L 279.613186 -134.364224 
L 280.151716 -134.438039 
L 280.872114 -134.43215 
L 281.366567 -134.501391 
L 281.842103 -134.574717 
L 282.495134 -134.627155 
L 283.066975 -134.691125 
L 283.446092 -134.711144 
L 283.941891 -134.703048 
L 284.50163 -134.733769 
L 285.079322 -134.719393 
L 285.837034 -134.686234 
L 286.355928 -134.752079 
L 286.698247 -134.829098 
L 287.216995 -134.959827 
L 287.83135 -135.040134 
L 288.507869 -135.180878 
L 289.045445 -135.281288 
L 289.527259 -135.364697 
L 290.223238 -135.448922 
L 290.723205 -135.44983 
L 291.306033 -135.539113 
L 291.846918 -135.643034 
L 292.275533 -135.70572 
L 292.938434 -135.74731 
L 293.695883 -135.759538 
L 294.171202 -135.838432 
L 294.635263 -135.89911 
L 295.142971 -135.915802 
L 295.779544 -135.927641 
L 296.427073 -135.916438 
L 296.816121 -135.956822 
L 297.355772 -135.953597 
L 297.954763 -135.991728 
L 298.628718 -135.957346 
L 299.080102 -135.99227 
L 299.680486 -135.930352 
L 300.308902 -135.949391 
L 300.792138 -135.930741 
L 301.312053 -135.824833 
L 301.806725 -136.0577 
L 302.329514 -136.089955 
L 302.884494 -136.086214 
L 303.509846 -136.099706 
L 304.252299 -136.140692 
L 304.783583 -136.170636 
L 305.106783 -136.123084 
L 305.716863 -136.098702 
L 306.404874 -136.081668 
L 306.883296 -135.979333 
L 307.317978 -136.023581 
L 307.854179 -135.970662 
L 308.59299 -135.904205 
L 309.230103 -135.877117 
L 309.611816 -135.840272 
L 310.207725 -135.81657 
L 310.78789 -135.805666 
L 311.481558 -135.714139 
L 312.127633 -135.700458 
L 312.616592 -135.700482 
L 313.265977 -135.617424 
L 313.893922 -135.531109 
L 314.307619 -135.460632 
L 314.611889 -135.449227 
L 315.125171 -135.417456 
L 315.687343 -135.431419 
L 316.392251 -135.406274 
L 317.014851 -135.515216 
L 317.46614 -135.508451 
L 318.181521 -135.523078 
L 318.865342 -135.532583 
L 319.266108 -135.618414 
L 319.862642 -135.632364 
L 320.540184 -135.595602 
L 320.880789 -135.579323 
L 321.430397 -135.501539 
L 322.018517 -135.42782 
L 322.515809 -135.385511 
L 323.258076 -135.428324 
L 323.759346 -135.344262 
L 324.198259 -135.293087 
L 324.944826 -135.243824 
L 325.406175 -135.247381 
L 325.876421 -135.184935 
L 326.516329 -135.182608 
L 327.036924 -135.127075 
L 327.529622 -135.105607 
L 328.096864 -135.048344 
L 328.690424 -134.970056 
L 329.196841 -134.939099 
L 329.848194 -134.783118 
L 330.503208 -134.573614 
L 331.135962 -134.430427 
L 331.712317 -134.266164 
L 332.13377 -134.163794 
L 332.628426 -134.028653 
L 333.243103 -133.953698 
L 333.925544 -133.938423 
L 334.475082 -133.937621 
L 334.915916 -133.954375 
L 335.424394 -133.910371 
L 336.032354 -133.898212 
L 336.684459 -133.923032 
L 337.078886 -133.984223 
L 337.657633 -134.000217 
L 338.298992 -133.922625 
L 338.842322 -133.940557 
L 339.428324 -133.936863 
L 339.957411 -133.89662 
L 340.588068 -133.960466 
L 340.954636 -133.824765 
L 341.564732 -133.771344 
L 342.363149 -133.693102 
L 342.829232 -133.655423 
L 343.225873 -133.596186 
L 343.871976 -133.536847 
L 344.488493 -133.478268 
L 344.925651 -133.329154 
L 345.47663 -133.149963 
L 346.076245 -132.99703 
L 346.748168 -132.882906 
L 347.285379 -132.761282 
L 347.793244 -132.666848 
L 348.230898 -132.664667 
L 348.609656 -132.658861 
L 349.322521 -132.625036 
L 350.022267 -132.594228 
L 350.384757 -132.549212 
L 350.846077 -132.485103 
L 351.585116 -132.471285 
L 352.220988 -132.463185 
L 352.767261 -132.43897 
L 353.296312 -132.423056 
L 353.917804 -132.49198 
L 354.617976 -132.441904 
L 354.951914 -132.577269 
L 355.275012 -132.444764 
L 355.830069 -132.38176 
L 356.384829 -132.2559 
L 356.955568 -132.293172 
L 357.584905 -132.260536 
L 358.14514 -132.25284 
L 358.733815 -132.185542 
L 359.49904 -131.989489 
L 360.021658 -131.712973 
L 360.355255 -131.585313 
L 361.040599 -131.461768 
L 361.587516 -131.259924 
L 361.929254 -131.078378 
L 362.70504 -130.955851 
L 363.376369 -130.918142 
L 363.971406 -130.878128 
L 364.585503 -130.757695 
L 364.942039 -130.731296 
L 365.599805 -130.68809 
L 366.182027 -130.693109 
L 366.665191 -130.638247 
L 367.422529 -130.568305 
L 368.055052 -130.433063 
L 368.466082 -130.285601 
L 368.846208 -130.248221 
L 369.504725 -130.303214 
L 370.100861 -130.26763 
L 370.437079 -130.282721 
L 370.963925 -130.153957 
L 371.590422 -130.012338 
L 372.184592 -129.767145 
L 372.717382 -129.672713 
L 373.299267 -129.682329 
L 374.06135 -129.711714 
L 374.550696 -129.786936 
L 375.031073 -129.791938 
L 375.715694 -129.762424 
L 376.162498 -129.78212 
L 376.524577 -129.829198 
L 377.263353 -129.812514 
L 377.873638 -129.905934 
L 378.441206 -130.089062 
L 379.120218 -130.278727 
L 379.65128 -130.545989 
L 380.024389 -130.902345 
L 380.401773 -130.750556 
L 381.027155 -130.79678 
L 381.555495 -130.862602 
L 382.192861 -130.976994 
L 382.7697 -131.088013 
L 383.199388 -131.239724 
L 383.845743 -131.361294 
L 384.636568 -131.4317 
L 385.293935 -131.55156 
L 385.833103 -131.684984 
L 386.294898 -131.776277 
L 386.784598 -131.844068 
L 387.461436 -131.924833 
L 387.939886 -132.020238 
L 388.358301 -132.138812 
L 389.002281 -132.24096 
L 389.617711 -132.28491 
L 390.140578 -132.48951 
L 390.536357 -132.552826 
L 391.062132 -132.519905 
L 391.653186 -132.602956 
L 392.226623 -132.651162 
L 392.821182 -132.728979 
L 393.364981 -132.771518 
L 394.094223 -132.809961 
L 394.629182 -132.760014 
L 395.06872 -132.762659 
L 395.713451 -132.785164 
L 396.332645 -132.818415 
L 396.956261 -132.822051 
L 397.438222 -132.822898 
L 398.012341 -132.776004 
L 398.458868 -132.662813 
L 398.797699 -132.645456 
L 399.515831 -132.632057 
L 400.277378 -132.529111 
L 400.787556 -132.506061 
L 401.340932 -132.418661 
L 401.835404 -132.359231 
L 402.250223 -132.356897 
L 403.030802 -132.303316 
L 403.56225 -132.23647 
L 404.119404 -132.220094 
L 404.621376 -132.1112 
L 405.023431 -132.131315 
L 405.627125 -132.113328 
L 406.099794 -132.115029 
L 406.76709 -132.043775 
L 407.302528 -132.160893 
L 407.765498 -132.195552 
L 408.38373 -132.246423 
L 408.945663 -132.31627 
L 409.46243 -132.334147 
L 410.204596 -132.40277 
L 410.95969 -132.44984 
L 411.514769 -132.46258 
L 412.065551 -132.328166 
L 412.559284 -132.159386 
L 412.970185 -132.064966 
L 413.492241 -131.926317 
L 414.206699 -131.721698 
L 414.872801 -131.506419 
L 415.313876 -131.231602 
L 415.873244 -131.150774 
L 416.331626 -130.975238 
L 416.78231 -131.002082 
L 417.459493 -130.978156 
L 418.111463 -130.943553 
L 418.664978 -130.88759 
L 419.069785 -130.748028 
L 419.706573 -130.736024 
L 420.243452 -130.746986 
L 420.705809 -130.698878 
L 421.367714 -130.73321 
L 421.961381 -130.828323 
L 422.429243 -130.866496 
L 423.120754 -130.855901 
L 423.658468 -130.900834 
L 424.184602 -130.96656 
L 424.77327 -131.107624 
L 425.355339 -131.254011 
L 425.873762 -131.375626 
L 426.298589 -131.499192 
L 426.872267 -131.607582 
L 427.498105 -131.574914 
L 428.0641 -131.516967 
L 428.498783 -131.447916 
L 429.191922 -131.300338 
L 429.900211 -131.171954 
L 430.397133 -130.902232 
L 430.875033 -130.937537 
L 431.30235 -130.82091 
L 431.950661 -130.803899 
L 432.528029 -130.626679 
L 433.030863 -130.561288 
L 433.744654 -130.623904 
L 434.183077 -130.635537 
L 434.622535 -130.623821 
L 435.217853 -130.598488 
L 435.950778 -130.613262 
L 436.487157 -130.575457 
L 436.832101 -130.527324 
L 437.489175 -130.466434 
L 438.144064 -130.435789 
L 438.638937 -130.421411 
L 439.293012 -130.375866 
L 439.752531 -130.331212 
L 440.323495 -130.370147 
L 440.963088 -130.334151 
L 441.359683 -130.317595 
L 441.914102 -130.264059 
L 442.503999 -130.285867 
L 443.130066 -130.291257 
L 443.779913 -130.322064 
L 444.430443 -130.259336 
L 444.969303 -130.329725 
L 445.545631 -130.359744 
L 445.990348 -130.364387 
L 446.53714 -130.385465 
L 447.130116 -130.441365 
L 447.623297 -130.483844 
L 448.305987 -130.645091 
L 448.756766 -130.762812 
L 449.284388 -130.853652 
L 449.939395 -130.984624 
L 450.30749 -131.114442 
L 450.896067 -131.269358 
L 451.686449 -131.373995 
L 452.26906 -131.578694 
L 452.646441 -131.83985 
L 453.119508 -132.051348 
L 453.808818 -132.21503 
L 454.275977 -132.422969 
L 454.644848 -132.656646 
L 455.164511 -132.858422 
L 455.81004 -133.055082 
L 456.568156 -133.224306 
L 457.234924 -133.377761 
L 457.634545 -133.574934 
L 458.162484 -133.752357 
L 458.721129 -133.888914 
L 459.282754 -133.994897 
L 459.825147 -134.152937 
L 460.210283 -134.31034 
L 460.897922 -134.447287 
L 461.60353 -134.54118 
L 462.129746 -134.700601 
L 462.56634 -134.797935 
L 463.128425 -134.871902 
L 463.686355 -134.955291 
L 464.153381 -135.030539 
L 464.930601 -135.102633 
L 465.532841 -135.24252 
L 465.926307 -135.351648 
L 466.532405 -135.352382 
L 467.18584 -135.358477 
L 467.624895 -135.407049 
L 468.060995 -135.429244 
L 468.753119 -135.455487 
L 469.272916 -135.505337 
L 469.71989 -135.540955 
L 470.257243 -135.548112 
L 470.971774 -135.572507 
L 471.72424 -135.586269 
L 472.170081 -135.618678 
L 472.71637 -135.636634 
L 473.396188 -135.680592 
L 473.759858 -135.675192 
L 474.12399 -135.726668 
L 474.767969 -135.764957 
L 475.507813 -135.779673 
L 476.092035 -135.796917 
L 476.699123 -135.788567 
L 477.404377 -135.775247 
L 477.848766 -135.779221 
L 478.3074 -135.761284 
L 478.804157 -135.765504 
L 479.424752 -135.84895 
L 480.164671 -135.945238 
L 480.531726 -136.003284 
L 480.847377 -136.052499 
L 481.371816 -136.130593 
L 482.125516 -136.148201 
L 482.738206 -136.294447 
L 483.169663 -136.30883 
L 483.760682 -136.338678 
L 484.437541 -136.330844 
L 484.996881 -136.362238 
L 485.360838 -136.398859 
L 485.850155 -136.430207 
L 486.538241 -136.426236 
L 487.239861 -136.427365 
L 487.896554 -136.410265 
L 488.456296 -136.35222 
L 488.795314 -136.344405 
L 489.454773 -136.304221 
L 490.157831 -136.22736 
L 490.476695 -136.116039 
L 491.034107 -136.147242 
L 491.585321 -136.110696 
L 492.08894 -136.087237 
L 492.659214 -136.049598 
L 493.34724 -135.998315 
L 493.948775 -135.891736 
L 494.491321 -135.840005 
L 494.997467 -135.825347 
L 495.349414 -135.700188 
L 496.046711 -135.608861 
L 496.712971 -135.556891 
L 497.131001 -135.424414 
L 497.592587 -135.281131 
L 498.147776 -135.036175 
L 498.87487 -134.917642 
L 499.421297 -134.752357 
L 499.935386 -134.636857 
L 500.613839 -134.444827 
L 501.000775 -134.345981 
L 501.479212 -134.276719 
L 502.074384 -134.048582 
L 502.746509 -133.937505 
L 503.297751 -133.764111 
L 503.817552 -133.607891 
L 504.358519 -133.349844 
L 505.017258 -133.274864 
L 505.756936 -133.06538 
L 506.242971 -132.725511 
L 506.830687 -132.586014 
L 507.322738 -132.297923 
L 507.825107 -132.006595 
L 508.368022 -131.76321 
L 508.948565 -131.464356 
L 509.495259 -131.254993 
L 510.129622 -131.076708 
L 510.636205 -130.955753 
L 510.942378 -130.573004 
L 511.52374 -130.430652 
L 512.310094 -130.35741 
L 513.020397 -130.253161 
L 513.61072 -130.184716 
L 514.110225 -130.223131 
L 514.613271 -130.226239 
L 515.280815 -130.156899 
L 515.742051 -130.236386 
L 516.110925 -130.11124 
L 516.548547 -129.936619 
L 517.306055 -129.849146 
L 517.988348 -129.838319 
L 518.515436 -129.730934 
L 519.196484 -129.665742 
L 519.55799 -129.710096 
L 519.936397 -129.786815 
L 520.645037 -129.848045 
L 521.278747 -129.937233 
L 521.784553 -129.946425 
L 522.41694 -130.080482 
L 522.913405 -130.254238 
L 523.322338 -130.346463 
L 524.099178 -130.402893 
L 524.651285 -130.507679 
L 525.014873 -130.614444 
L 525.683347 -130.713891 
L 526.355448 -130.737321 
L 526.845865 -130.759138 
L 527.438864 -130.69927 
L 528.112942 -130.759342 
L 528.678375 -130.76339 
L 529.240725 -130.878312 
L 529.70207 -130.938686 
L 530.058946 -131.055691 
L 530.631379 -131.091947 
L 531.321732 -131.103807 
L 531.947372 -131.232951 
L 532.48693 -131.334513 
L 533.094286 -131.522425 
L 533.709755 -131.602882 
L 534.231407 -131.693227 
L 534.638172 -131.716672 
L 534.957675 -131.739025 
L 535.615315 -131.815134 
L 536.296048 -131.920789 
L 536.827593 -131.995281 
L 537.369364 -132.01765 
L 537.807693 -132.109718 
L 538.440756 -132.192139 
L 539.219657 -132.388666 
L 539.712613 -132.581353 
L 540.132089 -132.782053 
L 540.60423 -132.966192 
L 541.237904 -133.105654 
L 541.797883 -133.269602 
L 542.409283 -133.360627 
L 543.12735 -133.49035 
L 543.560908 -133.586283 
L 544.081156 -133.849584 
L 544.806559 -133.919965 
L 545.473924 -133.978349 
L 545.843179 -134.13922 
L 546.327515 -134.292044 
L 546.839774 -134.281332 
L 547.33893 -134.380225 
L 548.089786 -134.447238 
L 548.594747 -134.512667 
L 548.999956 -134.650537 
L 549.567613 -134.746051 
L 550.138204 -134.832894 
L 550.84924 -134.879641 
L 551.520424 -134.965876 
L 551.964708 -135.075148 
L 552.569796 -135.153283 
L 553.226684 -135.199232 
L 553.80839 -135.195344 
L 554.166405 -135.257406 
L 554.660175 -135.354368 
L 555.323225 -135.394754 
L 555.719223 -135.446594 
L 556.214973 -135.470536 
L 556.826525 -135.626504 
L 557.472583 -135.762728 
L 558.075148 -135.839397 
L 558.475385 -135.93172 
L 559.057977 -135.970726 
L 559.836545 -135.9292 
L 560.254754 -135.911842 
L 560.722978 -135.891834 
L 561.469085 -135.887054 
L 561.985743 -135.879752 
L 562.491303 -135.925432 
L 563.172771 -135.922381 
L 563.748603 -135.923721 
L 564.258615 -135.898259 
L 564.722761 -135.84336 
L 565.315173 -135.881248 
L 565.860083 -135.968801 
L 566.282376 -135.972139 
L 566.791964 -135.932791 
L 567.521485 -135.944492 
L 568.096324 -135.902374 
L 568.577987 -135.869765 
L 569.170588 -135.822191 
L 569.773442 -135.884679 
L 570.313706 -135.790753 
L 570.852975 -135.776823 
L 571.628012 -135.678577 
L 572.170621 -135.731031 
L 572.579883 -135.700587 
L 573.151665 -135.738211 
L 573.847576 -135.721931 
L 574.405755 -135.667557 
L 574.721456 -135.630219 
L 575.271078 -135.581673 
L 575.898078 -135.481352 
L 576.423943 -135.421279 
L 577.122704 -135.34161 
L 577.608428 -135.176447 
L 578.142507 -135.144433 
L 578.750399 -135.060759 
L 579.118956 -134.951103 
L 579.736542 -134.873877 
L 580.538797 -134.767365 
L 581.067288 -134.575401 
L 581.377442 -134.321317 
L 581.821805 -134.366121 
L 582.586634 -134.46537 
L 583.266318 -134.607313 
L 583.688825 -134.665849 
L 584.131114 -134.635934 
L 584.838558 -134.569941 
L 585.419646 -134.559955 
L 585.89198 -134.44021 
L 586.523505 -134.368618 
L 587.121078 -134.293547 
L 587.773296 -134.188623 
L 588.390677 -134.080134 
L 588.820611 -133.927748 
L 589.35005 -133.862468 
L 590.066886 -133.653733 
L 590.581982 -133.654247 
L 590.926274 -133.617879 
L 591.498478 -133.67764 
L 592.049112 -133.631899 
L 592.602786 -133.876049 
L 593.327959 -134.110005 
L 593.733469 -134.335728 
L 594.209441 -134.48834 
L 594.874673 -134.6718 
L 595.380035 -134.792195 
L 595.872188 -135.159593 
L 596.575668 -135.429938 
L 597.274172 -135.846318 
L 597.637498 -135.993632 
L 598.218639 -136.0871 
L 598.848016 -135.91407 
L 599.225722 -136.145836 
L 599.723983 -136.137997 
L 600.452198 -135.763241 
L 601.174518 -134.935263 
L 601.434702 -132.940314 
L 601.434702 -138.709047 
L 601.434702 -138.709047 
L 601.174518 -139.09103 
L 600.452198 -138.946483 
L 599.723983 -138.798448 
L 599.225722 -138.835104 
L 598.848016 -138.812064 
L 598.218639 -139.260318 
L 597.637498 -139.483715 
L 597.274172 -139.652779 
L 596.575668 -139.111398 
L 595.872188 -138.758666 
L 595.380035 -138.45957 
L 594.874673 -138.22561 
L 594.209441 -138.026951 
L 593.733469 -137.948272 
L 593.327959 -137.717256 
L 592.602786 -137.548235 
L 592.049112 -137.496011 
L 591.498478 -137.520156 
L 590.926274 -137.52109 
L 590.581982 -137.586032 
L 590.066886 -137.794681 
L 589.35005 -137.999726 
L 588.820611 -138.117372 
L 588.390677 -138.244432 
L 587.773296 -138.377159 
L 587.121078 -138.644951 
L 586.523505 -138.774537 
L 585.89198 -138.991326 
L 585.419646 -139.139105 
L 584.838558 -139.265542 
L 584.131114 -139.374444 
L 583.688825 -139.417538 
L 583.266318 -139.35183 
L 582.586634 -139.205749 
L 581.821805 -139.218424 
L 581.377442 -139.309473 
L 581.067288 -139.475238 
L 580.538797 -139.696581 
L 579.736542 -139.856791 
L 579.118956 -139.995729 
L 578.750399 -140.146969 
L 578.142507 -140.295015 
L 577.608428 -140.438245 
L 577.122704 -140.696421 
L 576.423943 -140.862753 
L 575.898078 -140.99577 
L 575.271078 -141.182894 
L 574.721456 -141.400863 
L 574.405755 -141.550003 
L 573.847576 -141.671298 
L 573.151665 -141.811116 
L 572.579883 -141.883083 
L 572.170621 -142.000548 
L 571.628012 -142.013683 
L 570.852975 -142.158772 
L 570.313706 -142.397351 
L 569.773442 -142.549529 
L 569.170588 -142.789469 
L 568.577987 -143.030123 
L 568.096324 -142.940648 
L 567.521485 -142.932366 
L 566.791964 -142.857092 
L 566.282376 -142.732241 
L 565.860083 -142.664113 
L 565.315173 -142.528883 
L 564.722761 -142.409941 
L 564.258615 -142.22366 
L 563.748603 -142.141857 
L 563.172771 -141.915452 
L 562.491303 -141.771328 
L 561.985743 -141.525641 
L 561.469085 -141.430957 
L 560.722978 -141.400678 
L 560.254754 -141.339736 
L 559.836545 -141.444136 
L 559.057977 -141.334161 
L 558.475385 -141.275337 
L 558.075148 -140.914739 
L 557.472583 -140.56693 
L 556.826525 -140.204354 
L 556.214973 -139.859399 
L 555.719223 -139.539846 
L 555.323225 -139.321517 
L 554.660175 -139.107853 
L 554.166405 -138.937775 
L 553.80839 -138.790666 
L 553.226684 -138.700105 
L 552.569796 -138.516906 
L 551.964708 -138.239119 
L 551.520424 -138.054388 
L 550.84924 -137.986056 
L 550.138204 -137.914551 
L 549.567613 -137.774591 
L 548.999956 -137.495969 
L 548.594747 -137.395016 
L 548.089786 -137.243224 
L 547.33893 -137.118885 
L 546.839774 -136.982977 
L 546.327515 -136.922998 
L 545.843179 -136.816211 
L 545.473924 -136.65523 
L 544.806559 -136.61415 
L 544.081156 -136.582742 
L 543.560908 -136.3883 
L 543.12735 -136.282286 
L 542.409283 -136.146567 
L 541.797883 -136.008266 
L 541.237904 -135.89884 
L 540.60423 -135.821432 
L 540.132089 -135.719357 
L 539.712613 -135.56803 
L 539.219657 -135.377358 
L 538.440756 -135.303873 
L 537.807693 -135.176808 
L 537.369364 -135.110093 
L 536.827593 -135.023308 
L 536.296048 -134.992935 
L 535.615315 -134.882347 
L 534.957675 -134.83494 
L 534.638172 -134.810628 
L 534.231407 -134.788073 
L 533.709755 -134.702938 
L 533.094286 -134.638916 
L 532.48693 -134.502811 
L 531.947372 -134.425393 
L 531.321732 -134.383834 
L 530.631379 -134.36257 
L 530.058946 -134.338263 
L 529.70207 -134.293181 
L 529.240725 -134.291752 
L 528.678375 -134.304023 
L 528.112942 -134.316352 
L 527.438864 -134.338274 
L 526.845865 -134.34631 
L 526.355448 -134.369938 
L 525.683347 -134.39199 
L 525.014873 -134.31065 
L 524.651285 -134.252885 
L 524.099178 -134.244912 
L 523.322338 -134.171803 
L 522.913405 -134.131903 
L 522.41694 -134.106728 
L 521.784553 -134.101774 
L 521.278747 -134.148175 
L 520.645037 -134.110037 
L 519.936397 -134.144809 
L 519.55799 -134.062213 
L 519.196484 -134.009632 
L 518.515436 -134.0121 
L 517.988348 -134.06131 
L 517.306055 -134.102514 
L 516.548547 -134.143976 
L 516.110925 -134.169266 
L 515.742051 -134.171278 
L 515.280815 -134.242882 
L 514.613271 -134.275913 
L 514.110225 -134.267594 
L 513.61072 -134.324379 
L 513.020397 -134.387939 
L 512.310094 -134.457918 
L 511.52374 -134.546267 
L 510.942378 -134.574562 
L 510.636205 -134.734002 
L 510.129622 -134.847531 
L 509.495259 -135.025604 
L 508.948565 -135.215714 
L 508.368022 -135.384893 
L 507.825107 -135.607091 
L 507.322738 -135.765272 
L 506.830687 -135.86372 
L 506.242971 -136.047746 
L 505.756936 -136.230901 
L 505.017258 -136.433903 
L 504.358519 -136.559684 
L 503.817552 -136.756857 
L 503.297751 -136.925027 
L 502.746509 -137.016652 
L 502.074384 -137.210899 
L 501.479212 -137.393923 
L 501.000775 -137.609049 
L 500.613839 -137.811202 
L 499.935386 -138.153033 
L 499.421297 -138.404513 
L 498.87487 -138.651827 
L 498.147776 -138.908699 
L 497.592587 -139.285731 
L 497.131001 -139.551998 
L 496.712971 -139.753407 
L 496.046711 -140.069599 
L 495.349414 -140.260631 
L 494.997467 -140.420423 
L 494.491321 -140.484069 
L 493.948775 -140.587412 
L 493.34724 -140.658585 
L 492.659214 -140.784372 
L 492.08894 -140.876786 
L 491.585321 -140.888687 
L 491.034107 -140.956741 
L 490.476695 -141.041297 
L 490.157831 -141.081623 
L 489.454773 -141.150294 
L 488.795314 -141.389368 
L 488.456296 -141.494545 
L 487.896554 -141.538421 
L 487.239861 -141.541916 
L 486.538241 -141.675786 
L 485.850155 -141.695618 
L 485.360838 -141.65279 
L 484.996881 -141.543596 
L 484.437541 -141.440474 
L 483.760682 -141.384057 
L 483.169663 -141.255779 
L 482.738206 -140.874304 
L 482.125516 -140.609726 
L 481.371816 -140.302475 
L 480.847377 -140.119839 
L 480.531726 -139.944497 
L 480.164671 -139.853551 
L 479.424752 -139.691242 
L 478.804157 -139.476774 
L 478.3074 -139.313135 
L 477.848766 -139.296516 
L 477.404377 -139.183619 
L 476.699123 -139.133325 
L 476.092035 -139.054424 
L 475.507813 -138.979917 
L 474.767969 -138.998703 
L 474.12399 -138.884014 
L 473.759858 -138.825184 
L 473.396188 -138.756663 
L 472.71637 -138.617051 
L 472.170081 -138.52351 
L 471.72424 -138.456771 
L 470.971774 -138.373991 
L 470.257243 -138.267216 
L 469.71989 -138.156231 
L 469.272916 -138.157708 
L 468.753119 -137.981663 
L 468.060995 -137.909603 
L 467.624895 -137.799766 
L 467.18584 -137.694035 
L 466.532405 -137.580464 
L 465.926307 -137.553692 
L 465.532841 -137.356478 
L 464.930601 -137.117834 
L 464.153381 -136.910536 
L 463.686355 -136.720815 
L 463.128425 -136.574474 
L 462.56634 -136.386615 
L 462.129746 -136.201511 
L 461.60353 -135.971381 
L 460.897922 -135.835264 
L 460.210283 -135.735106 
L 459.825147 -135.561106 
L 459.282754 -135.415466 
L 458.721129 -135.314002 
L 458.162484 -135.244771 
L 457.634545 -135.160063 
L 457.234924 -135.106528 
L 456.568156 -135.007317 
L 455.81004 -134.96814 
L 455.164511 -134.799642 
L 454.644848 -134.74344 
L 454.275977 -134.655974 
L 453.808818 -134.592226 
L 453.119508 -134.512564 
L 452.646441 -134.46852 
L 452.26906 -134.391691 
L 451.686449 -134.352571 
L 450.896067 -134.252713 
L 450.30749 -134.163773 
L 449.939395 -134.111595 
L 449.284388 -134.02851 
L 448.756766 -134.046423 
L 448.305987 -134.077608 
L 447.623297 -134.044767 
L 447.130116 -133.994645 
L 446.53714 -134.019224 
L 445.990348 -134.018635 
L 445.545631 -134.052835 
L 444.969303 -134.092612 
L 444.430443 -134.085829 
L 443.779913 -134.117875 
L 443.130066 -134.082353 
L 442.503999 -134.08028 
L 441.914102 -134.076669 
L 441.359683 -134.084738 
L 440.963088 -134.0492 
L 440.323495 -134.077887 
L 439.752531 -134.105077 
L 439.293012 -134.129038 
L 438.638937 -134.174561 
L 438.144064 -134.218847 
L 437.489175 -134.248013 
L 436.832101 -134.254575 
L 436.487157 -134.303747 
L 435.950778 -134.31911 
L 435.217853 -134.359718 
L 434.622535 -134.454149 
L 434.183077 -134.444823 
L 433.744654 -134.418704 
L 433.030863 -134.449648 
L 432.528029 -134.474909 
L 431.950661 -134.555325 
L 431.30235 -134.539953 
L 430.875033 -134.599711 
L 430.397133 -134.746608 
L 429.900211 -134.737021 
L 429.191922 -134.789464 
L 428.498783 -134.868436 
L 428.0641 -134.930018 
L 427.498105 -134.989047 
L 426.872267 -135.015649 
L 426.298589 -134.975311 
L 425.873762 -135.006812 
L 425.355339 -135.011131 
L 424.77327 -135.032221 
L 424.184602 -135.084457 
L 423.658468 -135.089197 
L 423.120754 -135.047101 
L 422.429243 -135.006136 
L 421.961381 -134.991123 
L 421.367714 -134.978587 
L 420.705809 -134.961836 
L 420.243452 -134.94075 
L 419.706573 -134.9447 
L 419.069785 -135.007514 
L 418.664978 -135.030561 
L 418.111463 -135.066905 
L 417.459493 -135.036555 
L 416.78231 -135.031567 
L 416.331626 -135.053834 
L 415.873244 -135.173347 
L 415.313876 -135.233808 
L 414.872801 -135.238632 
L 414.206699 -135.325336 
L 413.492241 -135.408419 
L 412.970185 -135.519749 
L 412.559284 -135.56001 
L 412.065551 -135.607473 
L 411.514769 -135.714226 
L 410.95969 -135.691105 
L 410.204596 -135.604618 
L 409.46243 -135.538491 
L 408.945663 -135.452603 
L 408.38373 -135.383583 
L 407.765498 -135.330632 
L 407.302528 -135.321699 
L 406.76709 -135.286785 
L 406.099794 -135.26626 
L 405.627125 -135.343732 
L 405.023431 -135.362336 
L 404.621376 -135.390894 
L 404.119404 -135.524757 
L 403.56225 -135.538738 
L 403.030802 -135.479875 
L 402.250223 -135.486928 
L 401.835404 -135.440165 
L 401.340932 -135.436855 
L 400.787556 -135.418936 
L 400.277378 -135.412401 
L 399.515831 -135.405597 
L 398.797699 -135.410876 
L 398.458868 -135.415398 
L 398.012341 -135.438502 
L 397.438222 -135.470009 
L 396.956261 -135.471867 
L 396.332645 -135.489566 
L 395.713451 -135.449181 
L 395.06872 -135.465539 
L 394.629182 -135.425691 
L 394.094223 -135.482853 
L 393.364981 -135.421283 
L 392.821182 -135.337806 
L 392.226623 -135.318112 
L 391.653186 -135.254087 
L 391.062132 -135.182281 
L 390.536357 -135.137308 
L 390.140578 -135.128329 
L 389.617711 -135.062022 
L 389.002281 -135.002788 
L 388.358301 -134.943884 
L 387.939886 -134.918226 
L 387.461436 -134.863594 
L 386.784598 -134.829113 
L 386.294898 -134.795045 
L 385.833103 -134.746313 
L 385.293935 -134.672803 
L 384.636568 -134.616549 
L 383.845743 -134.545187 
L 383.199388 -134.435426 
L 382.7697 -134.358411 
L 382.192861 -134.26328 
L 381.555495 -134.168238 
L 381.027155 -134.110943 
L 380.401773 -134.095253 
L 380.024389 -134.031263 
L 379.65128 -133.849736 
L 379.120218 -133.793915 
L 378.441206 -133.610849 
L 377.873638 -133.494654 
L 377.263353 -133.452775 
L 376.524577 -133.450467 
L 376.162498 -133.435223 
L 375.715694 -133.428078 
L 375.031073 -133.408694 
L 374.550696 -133.373785 
L 374.06135 -133.37327 
L 373.299267 -133.386486 
L 372.717382 -133.410928 
L 372.184592 -133.471998 
L 371.590422 -133.482242 
L 370.963925 -133.570705 
L 370.437079 -133.599823 
L 370.100861 -133.653835 
L 369.504725 -133.658814 
L 368.846208 -133.692917 
L 368.466082 -133.720201 
L 368.055052 -133.777977 
L 367.422529 -133.802414 
L 366.665191 -133.944852 
L 366.182027 -133.959526 
L 365.599805 -133.994603 
L 364.942039 -134.017555 
L 364.585503 -134.01172 
L 363.971406 -134.036615 
L 363.376369 -134.084457 
L 362.70504 -134.145626 
L 361.929254 -134.177805 
L 361.587516 -134.212454 
L 361.040599 -134.3454 
L 360.355255 -134.420449 
L 360.021658 -134.52075 
L 359.49904 -134.639874 
L 358.733815 -134.680564 
L 358.14514 -134.746069 
L 357.584905 -134.749779 
L 356.955568 -134.742671 
L 356.384829 -134.700017 
L 355.830069 -134.763309 
L 355.275012 -134.802881 
L 354.951914 -134.812396 
L 354.617976 -134.916222 
L 353.917804 -134.915458 
L 353.296312 -134.958445 
L 352.767261 -134.99043 
L 352.220988 -135.00565 
L 351.585116 -135.002245 
L 350.846077 -135.093385 
L 350.384757 -135.186586 
L 350.022267 -135.309304 
L 349.322521 -135.395047 
L 348.609656 -135.469291 
L 348.230898 -135.452691 
L 347.793244 -135.517046 
L 347.285379 -135.590306 
L 346.748168 -135.646387 
L 346.076245 -135.739385 
L 345.47663 -135.831604 
L 344.925651 -135.900419 
L 344.488493 -135.980334 
L 343.871976 -136.140621 
L 343.225873 -136.172791 
L 342.829232 -136.263825 
L 342.363149 -136.358248 
L 341.564732 -136.443498 
L 340.954636 -136.455305 
L 340.588068 -136.542568 
L 339.957411 -136.613983 
L 339.428324 -136.66721 
L 338.842322 -136.722637 
L 338.298992 -136.746964 
L 337.657633 -136.769729 
L 337.078886 -136.799976 
L 336.684459 -136.829763 
L 336.032354 -136.86694 
L 335.424394 -136.909762 
L 334.915916 -136.949831 
L 334.475082 -137.01509 
L 333.925544 -137.037973 
L 333.243103 -137.101156 
L 332.628426 -137.15521 
L 332.13377 -137.260497 
L 331.712317 -137.323895 
L 331.135962 -137.511759 
L 330.503208 -137.608482 
L 329.848194 -137.75405 
L 329.196841 -137.759353 
L 328.690424 -137.819745 
L 328.096864 -137.840423 
L 327.529622 -137.919401 
L 327.036924 -137.983675 
L 326.516329 -138.104581 
L 325.876421 -138.144795 
L 325.406175 -138.132259 
L 324.944826 -137.97404 
L 324.198259 -138.022047 
L 323.759346 -138.075762 
L 323.258076 -138.154878 
L 322.515809 -138.24567 
L 322.018517 -138.351682 
L 321.430397 -138.487896 
L 320.880789 -138.563593 
L 320.540184 -138.684263 
L 319.862642 -138.893251 
L 319.266108 -138.81533 
L 318.865342 -138.748424 
L 318.181521 -138.52687 
L 317.46614 -138.450899 
L 317.014851 -138.370499 
L 316.392251 -138.259569 
L 315.687343 -138.165568 
L 315.125171 -138.121756 
L 314.611889 -138.053401 
L 314.307619 -138.07975 
L 313.893922 -138.06249 
L 313.265977 -138.103878 
L 312.616592 -138.175411 
L 312.127633 -138.255151 
L 311.481558 -138.278256 
L 310.78789 -138.283723 
L 310.207725 -138.269286 
L 309.611816 -138.309281 
L 309.230103 -138.344512 
L 308.59299 -138.351025 
L 307.854179 -138.439334 
L 307.317978 -138.486593 
L 306.883296 -138.817371 
L 306.404874 -138.58348 
L 305.716863 -138.576967 
L 305.106783 -138.612974 
L 304.783583 -138.755091 
L 304.252299 -138.817315 
L 303.509846 -138.826291 
L 302.884494 -138.847997 
L 302.329514 -138.842439 
L 301.806725 -138.82844 
L 301.312053 -138.784215 
L 300.792138 -138.804684 
L 300.308902 -138.839372 
L 299.680486 -138.933971 
L 299.080102 -139.034127 
L 298.628718 -138.991414 
L 297.954763 -138.96838 
L 297.355772 -138.965397 
L 296.816121 -138.917247 
L 296.427073 -138.88778 
L 295.779544 -138.848073 
L 295.142971 -138.784488 
L 294.635263 -138.793314 
L 294.171202 -138.737661 
L 293.695883 -138.709358 
L 292.938434 -138.680232 
L 292.275533 -138.625374 
L 291.846918 -138.820986 
L 291.306033 -138.696218 
L 290.723205 -138.490853 
L 290.223238 -138.409727 
L 289.527259 -138.322092 
L 289.045445 -138.240885 
L 288.507869 -138.194605 
L 287.83135 -138.079812 
L 287.216995 -138.001287 
L 286.698247 -137.856021 
L 286.355928 -137.76627 
L 285.837034 -137.752513 
L 285.079322 -137.800395 
L 284.50163 -137.824251 
L 283.941891 -137.834083 
L 283.446092 -137.809512 
L 283.066975 -137.743234 
L 282.495134 -137.607193 
L 281.842103 -137.722327 
L 281.366567 -137.758991 
L 280.872114 -137.706851 
L 280.151716 -137.625399 
L 279.613186 -137.588804 
L 279.107528 -137.499652 
L 278.497674 -137.336993 
L 278.008018 -137.264254 
L 277.425344 -137.132878 
L 276.78433 -136.968589 
L 276.37996 -136.654885 
L 275.97138 -136.231766 
L 275.262025 -135.943836 
L 274.474552 -135.58144 
L 273.945228 -135.296831 
L 273.523991 -135.059696 
L 273.030787 -134.844792 
L 272.549889 -134.493247 
L 271.951652 -134.434225 
L 271.358217 -134.223372 
L 270.903733 -134.05811 
L 270.239669 -133.89081 
L 269.498828 -133.688456 
L 268.930971 -133.432651 
L 268.570467 -133.293888 
L 268.145128 -133.204267 
L 267.50609 -133.039558 
L 266.927653 -132.965423 
L 266.305269 -132.933938 
L 265.648235 -132.857142 
L 265.056465 -132.776946 
L 264.541301 -132.70359 
L 263.926974 -132.699272 
L 263.444022 -132.632838 
L 262.970375 -132.589882 
L 262.429846 -132.532297 
L 262.019449 -132.283893 
L 261.272397 -132.241289 
L 260.646955 -132.426207 
L 260.158826 -132.412194 
L 259.478056 -132.339291 
L 258.844959 -132.269059 
L 258.22651 -132.191504 
L 257.733053 -132.08195 
L 257.209687 -131.987769 
L 256.69464 -131.860649 
L 256.194309 -131.683734 
L 255.503779 -131.520001 
L 255.012869 -131.44583 
L 254.442361 -131.369525 
L 253.916789 -131.305731 
L 253.388526 -131.266425 
L 252.732052 -131.15891 
L 252.379324 -131.036325 
L 251.963582 -130.890907 
L 251.340122 -130.781382 
L 250.568634 -130.717952 
L 249.848326 -130.628398 
L 249.443714 -130.531741 
L 249.110325 -130.440568 
L 248.520615 -130.351601 
L 247.71887 -130.325204 
L 247.210269 -130.149323 
L 246.737811 -130.015952 
L 246.075063 -129.947309 
L 245.601823 -129.922773 
L 245.13789 -129.911088 
L 244.423537 -129.838464 
L 243.709634 -129.791036 
L 243.132067 -129.823765 
L 242.783472 -129.734768 
L 242.430718 -129.741954 
L 241.83748 -129.627778 
L 241.183032 -129.61061 
L 240.478476 -129.562612 
L 239.833845 -129.5778 
L 239.308901 -129.576358 
L 238.994114 -129.569126 
L 238.57984 -129.572549 
L 237.976496 -129.627519 
L 237.166698 -129.653319 
L 236.409635 -129.71277 
L 236.069371 -129.722132 
L 235.484456 -129.816787 
L 234.891041 -129.860251 
L 234.408093 -129.889302 
L 233.917648 -129.936909 
L 233.297776 -130.003772 
L 232.533528 -130.073149 
L 232.223357 -130.114295 
L 231.852583 -130.173901 
L 231.215479 -130.192477 
L 230.670174 -130.192471 
L 230.108551 -130.220825 
L 229.511386 -130.441342 
L 228.809325 -130.624742 
L 228.28391 -130.752525 
L 227.813801 -130.885571 
L 227.227692 -131.045564 
L 226.783442 -131.09391 
L 226.277039 -131.06847 
L 225.610922 -131.103208 
L 225.028138 -131.106122 
L 224.519297 -131.153708 
L 223.765234 -131.105487 
L 223.197947 -131.074646 
L 222.690373 -131.041067 
L 222.025589 -130.996084 
L 221.599464 -130.997706 
L 221.216782 -131.001759 
L 220.561039 -131.018079 
L 219.792744 -131.170832 
L 219.20056 -131.10571 
L 218.75128 -131.159408 
L 218.178664 -131.237588 
L 217.635475 -131.468752 
L 217.184494 -131.625745 
L 216.69339 -131.811069 
L 216.150391 -131.850089 
L 215.621854 -132.098564 
L 214.987665 -132.30426 
L 214.306054 -132.310774 
L 213.879873 -132.40044 
L 213.202786 -132.65244 
L 212.551432 -132.959107 
L 212.030484 -133.096259 
L 211.554328 -133.373203 
L 211.054268 -133.511914 
L 210.374959 -133.5505 
L 209.932289 -133.621461 
L 209.449597 -133.334054 
L 208.760651 -133.427509 
L 208.070274 -133.509314 
L 207.628605 -133.501683 
L 207.130477 -133.314971 
L 206.451107 -133.265511 
L 205.783693 -133.181018 
L 205.346012 -133.183278 
L 204.923973 -133.211321 
L 204.392859 -133.179795 
L 203.801284 -133.211051 
L 203.158878 -133.224123 
L 202.542315 -133.221739 
L 201.971056 -133.266485 
L 201.539657 -133.364858 
L 200.892319 -133.468406 
L 200.418786 -133.556949 
L 199.830002 -133.63575 
L 199.081679 -133.703327 
L 198.661366 -133.77832 
L 198.046776 -133.817733 
L 197.396201 -133.868588 
L 196.826465 -133.933285 
L 196.453055 -134.042379 
L 196.082275 -134.126414 
L 195.332835 -134.141096 
L 194.712864 -134.184841 
L 194.345924 -134.252741 
L 193.882417 -134.276449 
L 193.109958 -134.356854 
L 192.452692 -134.52622 
L 191.925942 -134.763369 
L 191.30945 -134.934383 
L 190.732637 -135.138644 
L 190.230719 -135.388467 
L 189.751503 -135.646798 
L 189.232113 -135.815431 
L 188.642512 -135.992798 
L 187.950998 -136.200478 
L 187.381229 -136.326599 
L 186.89852 -136.409645 
L 186.324199 -136.399378 
L 185.73188 -136.343437 
L 185.120906 -136.290583 
L 184.59345 -136.353826 
L 184.222174 -136.342752 
L 183.780885 -136.290455 
L 183.169007 -136.205427 
L 182.655504 -136.036028 
L 182.100853 -135.833891 
L 181.463593 -135.56199 
L 180.922934 -135.283651 
L 180.268944 -135.084944 
L 179.68933 -134.663975 
L 179.172587 -134.217358 
L 178.549177 -133.989796 
L 178.087923 -133.830865 
L 177.703387 -133.70622 
L 177.054496 -133.563205 
L 176.487521 -133.480815 
L 175.878067 -133.383097 
L 175.091611 -133.228449 
L 174.520859 -133.089952 
L 174.204698 -132.915452 
L 173.839541 -132.873336 
L 173.254946 -132.773771 
L 172.526423 -132.750998 
L 172.020311 -132.783447 
L 171.426378 -132.72051 
L 170.702211 -132.735179 
L 170.342391 -132.760695 
L 169.951408 -132.836256 
L 169.398134 -132.793947 
L 168.708065 -132.81049 
L 167.924089 -132.862585 
L 167.295047 -132.883798 
L 166.974537 -132.891959 
L 166.556598 -132.933144 
L 165.950157 -132.90482 
L 165.387207 -132.861222 
L 164.755393 -132.752092 
L 164.173262 -132.709036 
L 163.580193 -132.703 
L 163.085141 -132.654967 
L 162.599449 -132.507318 
L 161.921872 -132.524635 
L 161.224235 -132.494088 
L 160.785694 -132.487043 
L 160.439958 -132.406769 
L 159.713371 -132.287611 
L 159.065059 -132.228054 
L 158.572516 -132.16364 
L 157.905486 -132.087299 
L 157.334504 -131.986271 
L 156.958585 -131.880293 
L 156.349894 -131.84332 
L 155.573059 -131.857005 
L 155.071324 -132.02018 
L 154.510923 -132.035348 
L 153.920603 -132.176602 
L 153.548986 -132.208479 
L 152.977537 -132.19865 
L 152.212355 -132.219128 
L 151.799331 -132.19442 
L 151.399668 -132.259803 
L 150.794665 -132.330225 
L 150.292223 -132.397135 
L 149.557351 -132.464816 
L 148.904398 -132.61133 
L 148.521716 -132.645116 
L 147.932407 -132.71011 
L 147.257601 -132.74805 
L 146.876013 -132.798064 
L 146.358553 -132.832141 
L 145.65067 -132.742567 
L 145.182271 -132.723328 
L 144.564811 -132.620814 
L 143.997917 -132.606304 
L 143.389329 -132.539109 
L 142.879548 -132.472146 
L 142.384629 -132.317714 
L 141.825163 -132.242895 
L 141.39147 -132.10897 
L 140.82906 -132.0177 
L 140.093877 -131.96303 
L 139.350513 -131.850802 
L 138.975411 -131.768387 
L 138.607561 -131.637806 
L 137.869066 -131.602261 
L 137.351956 -131.601822 
L 136.846231 -131.595129 
L 136.11227 -131.586102 
L 135.655103 -131.555519 
L 135.043235 -131.521748 
L 134.554248 -131.50522 
L 134.098588 -131.540059 
L 133.34271 -131.609074 
L 132.824011 -131.699764 
L 132.234657 -131.760138 
L 131.607281 -131.788999 
L 131.100403 -131.823681 
L 130.430861 -131.832296 
L 130.006335 -131.894705 
L 129.604256 -131.880992 
L 128.873438 -131.896966 
L 128.159711 -131.942614 
L 127.786115 -131.930395 
L 127.414233 -131.894876 
L 126.852745 -131.904855 
L 126.361437 -131.865188 
L 125.775288 -131.893466 
L 125.01118 -131.903227 
L 124.324329 -131.922734 
L 123.8166 -131.952269 
L 123.306556 -131.925231 
L 122.76478 -131.899942 
L 122.122101 -131.90533 
L 121.702598 -131.964755 
L 121.22657 -132.044313 
L 120.588612 -132.062454 
L 120.20323 -132.079591 
L 119.54059 -132.040779 
L 118.739474 -132.051353 
L 118.109468 -131.970356 
L 117.618151 -131.942314 
L 117.148674 -131.953806 
L 116.70828 -132.02031 
L 116.27499 -132.154475 
L 115.66685 -132.139919 
L 115.014347 -132.158219 
L 114.560975 -132.184084 
L 113.923785 -132.15951 
L 113.160422 -131.9704 
L 112.72988 -132.201524 
L 112.254491 -132.166473 
L 111.801084 -132.243612 
L 111.352813 -132.320581 
L 110.732953 -132.423257 
L 110.134488 -132.381782 
L 109.475937 -132.396669 
L 108.93945 -132.414734 
L 108.486338 -132.584287 
L 107.744874 -132.887247 
L 107.218641 -132.939261 
L 106.847501 -132.888749 
L 106.048248 -132.779683 
L 105.402377 -132.565751 
L 105.111566 -132.567844 
L 104.48436 -132.599413 
L 103.900214 -132.664168 
L 103.389305 -132.775875 
L 102.651764 -132.879885 
L 102.110373 -132.989697 
L 101.67295 -133.23391 
L 101.247454 -133.270658 
L 100.723975 -133.312052 
L 99.952116 -133.321557 
L 99.422621 -133.288432 
L 99.025889 -133.296981 
L 98.30926 -133.326913 
L 97.75354 -133.533446 
L 97.19674 -133.473621 
L 96.496902 -133.325898 
L 96.042464 -133.268281 
L 95.675883 -133.208875 
L 95.04986 -133.118572 
L 94.255848 -133.166458 
L 93.597644 -133.026525 
L 93.242088 -132.912105 
L 92.681809 -132.68521 
L 92.136633 -132.393436 
L 91.635184 -132.188493 
L 90.886685 -131.818893 
L 90.4295 -131.548973 
L 89.97327 -131.239144 
L 89.392179 -131.060678 
L 88.738508 -130.677207 
L 88.115116 -130.431145 
L 87.578823 -130.061027 
L 87.097735 -129.934006 
L 86.490414 -129.749959 
L 85.769102 -129.60062 
L 85.338268 -129.520328 
L 84.998902 -129.408629 
L 84.280381 -129.185611 
L 83.519458 -129.05137 
L 82.97598 -128.814504 
L 82.423936 -128.460656 
L 81.85665 -128.098518 
L 81.43842 -127.829444 
L 80.885459 -127.697818 
L 80.261596 -127.484082 
L 79.825703 -127.203282 
L 79.280456 -126.883795 
L 78.743862 -126.618459 
L 78.084055 -126.161677 
L 77.634877 -125.728818 
L 77.200479 -125.458222 
L 76.498636 -125.205981 
L 75.807865 -124.953816 
L 75.312916 -124.851135 
L 74.874752 -124.857885 
L 74.188547 -124.787417 
L 73.539429 -124.60862 
L 73.025893 -124.397642 
L 72.606849 -124.341844 
L 72.08339 -124.3478 
L 71.561824 -124.22487 
L 71.092733 -124.232913 
L 70.493153 -124.286469 
L 69.859367 -124.356651 
L 69.407178 -124.53323 
L 68.772068 -124.681155 
L 67.948939 -124.889502 
L 67.554489 -125.041236 
L 67.10083 -125.165007 
L 66.513381 -125.20484 
L 65.986623 -125.289498 
L 65.294305 -125.427327 
L 64.727873 -125.479886 
L 64.2989 -125.677875 
L 63.603143 -125.950608 
L 63.061556 -126.135072 
L 62.758503 -126.277005 
L 62.080757 -126.384741 
L 61.446898 -126.65363 
L 60.83088 -127.007673 
L 60.32339 -127.43783 
L 59.876024 -127.864893 
L 59.268081 -128.28766 
L 58.744284 -128.624122 
L 58.119787 -128.478134 
L 57.396344 -128.09577 
L 56.977589 -127.925334 
L 56.562918 -127.886271 
L 55.949135 -127.860084 
L 55.445821 -127.891536 
L 54.84479 -128.044678 
L 54.273854 -128.178392 
L 53.659494 -128.42677 
L 53.047882 -128.577083 
L 52.455468 -128.597914 
L 51.790406 -128.383562 
L 51.429579 -127.97564 
L 50.970884 -127.918821 
L 50.42006 -127.614515 
L 49.967307 -127.387991 
L 49.303838 -126.865854 
L 48.748787 -126.234841 
L 48.28817 -125.11735 
L 47.6581 -124.683113 
L 46.975957 -124.020102 
L 46.418423 -122.443692 
L 45.846434 -121.77829 
L 45.293179 -121.243279 
L 44.649102 -121.053665 
L 44.147151 -121.43715 
z
" style="stroke: #808080; stroke-opacity: 0.5"/>
    </defs>
    <g clip-path="url(#pbc6804a2e9)">
     <use xlink:href="#m6a09e274be" x="0" y="276.54" style="fill: #808080; fill-opacity: 0.5; stroke: #808080; stroke-opacity: 0.5"/>
    </g>
   </g>
   <g id="line2d_23">
    <path d="M 44.147151 159.056371 
L 44.649102 159.372763 
L 45.293179 158.8751 
L 46.418423 157.36707 
L 46.975957 155.982249 
L 47.6581 155.167548 
L 48.28817 154.727467 
L 48.748787 153.799647 
L 49.303838 153.235968 
L 50.42006 152.595212 
L 50.970884 152.322456 
L 51.429579 152.237094 
L 51.790406 151.892785 
L 53.047882 151.678301 
L 53.659494 151.735062 
L 54.273854 151.965033 
L 56.977589 151.853992 
L 58.119787 151.416654 
L 58.744284 151.316523 
L 59.876024 151.731513 
L 60.83088 152.311396 
L 62.080757 152.708722 
L 63.603143 152.954143 
L 66.513381 153.753538 
L 67.948939 154.037837 
L 70.493153 154.582563 
L 71.561824 154.554431 
L 77.200479 153.059216 
L 79.280456 151.669205 
L 80.261596 151.138264 
L 81.85665 150.641507 
L 83.519458 149.783238 
L 84.998902 149.450324 
L 85.769102 149.230888 
L 87.578823 148.779159 
L 88.115116 148.464072 
L 89.97327 147.798908 
L 90.886685 147.353861 
L 93.597644 146.213568 
L 94.255848 146.079249 
L 95.675883 145.989134 
L 97.75354 145.691526 
L 98.30926 145.789498 
L 101.247454 145.816193 
L 102.110373 146.100612 
L 102.651764 146.049514 
L 104.48436 146.164629 
L 105.402377 146.121387 
L 107.218641 145.778751 
L 108.486338 145.888507 
L 109.475937 145.942393 
L 111.801084 145.926443 
L 113.160422 145.996078 
L 115.014347 145.833648 
L 116.70828 145.883175 
L 117.618151 145.934557 
L 120.588612 145.781171 
L 122.122101 145.9141 
L 123.306556 145.904672 
L 129.604256 145.929566 
L 132.824011 146.180091 
L 134.098588 146.395404 
L 135.655103 146.459438 
L 137.351956 146.386515 
L 141.39147 145.649784 
L 143.389329 145.168496 
L 144.564811 145.010658 
L 147.932407 144.905696 
L 155.573059 145.614125 
L 156.958585 145.559337 
L 157.905486 145.304343 
L 160.785694 144.943891 
L 163.085141 144.820028 
L 167.295047 144.602063 
L 171.426378 144.945723 
L 173.254946 144.721499 
L 175.878067 144.281124 
L 177.703387 143.954559 
L 179.68933 143.27092 
L 180.268944 142.987105 
L 181.463593 142.660809 
L 183.780885 142.110559 
L 184.59345 142.048061 
L 185.120906 142.147899 
L 187.381229 142.156629 
L 190.230719 142.874254 
L 191.30945 143.202082 
L 194.345924 143.78082 
L 195.332835 143.880386 
L 196.453055 143.981599 
L 197.396201 144.143978 
L 200.892319 144.539011 
L 202.542315 144.78453 
L 207.628605 144.774963 
L 208.070274 144.707767 
L 211.554328 145.120574 
L 213.879873 145.865631 
L 215.621854 146.200067 
L 216.150391 146.450157 
L 216.69339 146.568983 
L 217.635475 147.057881 
L 218.75128 147.379591 
L 219.792744 147.647993 
L 222.690373 147.414978 
L 225.610922 147.330564 
L 227.227692 147.427538 
L 229.511386 148.113583 
L 230.108551 148.440606 
L 234.408093 149.37828 
L 236.069371 149.517273 
L 237.166698 149.639456 
L 240.478476 149.977462 
L 242.430718 149.781547 
L 243.132067 149.427227 
L 244.423537 149.234705 
L 245.13789 149.249517 
L 249.443714 148.16243 
L 249.848326 147.980038 
L 251.340122 147.707543 
L 252.379324 147.334157 
L 252.732052 147.132534 
L 258.844959 145.667034 
L 260.646955 145.516949 
L 261.272397 145.57261 
L 262.429846 145.375584 
L 263.926974 145.117235 
L 265.648235 144.884188 
L 266.927653 144.705044 
L 268.570467 144.367304 
L 270.239669 143.83324 
L 271.358217 143.527649 
L 273.030787 142.968742 
L 274.474552 142.18841 
L 275.97138 141.649665 
L 276.37996 141.261824 
L 276.78433 141.046693 
L 280.151716 140.508281 
L 287.216995 140.059443 
L 291.306033 139.422335 
L 291.846918 139.30799 
L 292.275533 139.374453 
L 297.954763 139.059946 
L 300.792138 139.172288 
L 301.312053 139.235476 
L 301.806725 139.09693 
L 304.252299 139.060996 
L 306.883296 139.141648 
L 307.317978 139.284913 
L 310.207725 139.497072 
L 312.127633 139.562196 
L 315.687343 139.741506 
L 318.181521 139.515026 
L 319.862642 139.277193 
L 322.515809 139.724409 
L 324.198259 139.882433 
L 325.406175 139.85018 
L 328.096864 140.095617 
L 329.848194 140.271416 
L 332.628426 140.948069 
L 335.424394 141.129933 
L 342.363149 141.514325 
L 345.47663 142.049216 
L 347.793244 142.448053 
L 354.617976 142.860937 
L 355.275012 142.916177 
L 357.584905 143.034843 
L 358.733815 143.106947 
L 359.49904 143.225318 
L 360.355255 143.537119 
L 361.587516 143.803811 
L 361.929254 143.911909 
L 365.599805 144.198654 
L 367.422529 144.354641 
L 369.504725 144.558986 
L 370.963925 144.677669 
L 373.299267 145.005593 
L 377.263353 144.907355 
L 378.441206 144.690045 
L 379.65128 144.342138 
L 380.024389 144.073196 
L 381.027155 144.086138 
L 382.7697 143.816788 
L 383.845743 143.58676 
L 385.833103 143.324351 
L 389.002281 142.918126 
L 396.332645 142.386009 
L 399.515831 142.521173 
L 403.030802 142.648405 
L 404.119404 142.667574 
L 405.023431 142.793175 
L 407.765498 142.776908 
L 411.514769 142.451597 
L 416.78231 143.523176 
L 419.069785 143.662229 
L 420.705809 143.709643 
L 424.77327 143.470077 
L 427.498105 143.258019 
L 429.900211 143.585513 
L 431.30235 143.859568 
L 431.950661 143.860388 
L 433.030863 144.034532 
L 435.950778 144.073814 
L 443.130066 144.353195 
L 445.545631 144.33371 
L 447.130116 144.321995 
L 449.939395 143.991891 
L 450.896067 143.778965 
L 452.26906 143.554808 
L 453.119508 143.258044 
L 454.275977 143.000529 
L 455.164511 142.710968 
L 456.568156 142.424189 
L 459.282754 141.834818 
L 464.153381 140.569463 
L 465.532841 140.240501 
L 465.926307 140.08733 
L 467.18584 140.013744 
L 469.272916 139.708478 
L 471.72424 139.51848 
L 476.092035 139.114329 
L 478.804157 138.918861 
L 484.437541 137.654341 
L 486.538241 137.488989 
L 493.948775 138.300426 
L 496.046711 138.70077 
L 497.131001 139.051794 
L 499.421297 139.961565 
L 502.746509 141.062922 
L 503.817552 141.357626 
L 504.358519 141.585236 
L 505.756936 141.891859 
L 506.242971 142.153371 
L 507.322738 142.508402 
L 509.495259 143.399702 
L 510.636205 143.695123 
L 510.942378 143.966217 
L 513.61072 144.285453 
L 516.110925 144.399747 
L 517.306055 144.56417 
L 519.936397 144.574188 
L 522.41694 144.446395 
L 524.099178 144.216097 
L 526.845865 143.987276 
L 528.678375 144.006293 
L 532.48693 143.621338 
L 533.709755 143.38709 
L 534.957675 143.253017 
L 537.807693 142.896737 
L 539.219657 142.656988 
L 540.60423 142.146188 
L 543.560908 141.552708 
L 544.081156 141.323837 
L 545.473924 141.22321 
L 546.327515 140.932479 
L 547.33893 140.790445 
L 548.594747 140.586159 
L 550.138204 140.166277 
L 551.520424 140.029868 
L 552.569796 139.704905 
L 555.719223 139.04678 
L 558.075148 138.162932 
L 558.475385 137.936471 
L 559.836545 137.853332 
L 560.722978 137.893744 
L 561.985743 137.837303 
L 562.491303 137.69162 
L 565.315173 137.334935 
L 566.791964 137.145059 
L 568.577987 137.090056 
L 570.852975 137.572203 
L 572.579883 137.748165 
L 573.847576 137.843385 
L 575.271078 138.157716 
L 581.067288 139.51468 
L 581.377442 139.724605 
L 582.586634 139.70444 
L 583.688825 139.498307 
L 585.419646 139.69047 
L 587.773296 140.257109 
L 590.066886 140.815793 
L 590.926274 140.970515 
L 592.602786 140.827858 
L 593.327959 140.626369 
L 593.733469 140.398 
L 595.380035 139.914118 
L 595.872188 139.58087 
L 596.575668 139.269332 
L 597.274172 138.790451 
L 598.218639 138.866291 
L 598.848016 139.176933 
L 599.225722 139.04953 
L 600.452198 139.185138 
L 601.174518 139.526853 
L 601.434702 140.71532 
L 601.434702 140.71532 
" clip-path="url(#pbc6804a2e9)" style="fill: none; stroke: #1f77b4; stroke-width: 1.5; stroke-linecap: round"/>
   </g>
   <g id="patch_3">
    <path d="M 43.585938 243.549375 
L 43.585938 21.789375 
" style="fill: none; stroke: #cccccc; stroke-linejoin: miter; stroke-linecap: square"/>
   </g>
   <g id="patch_4">
    <path d="M 601.585938 243.549375 
L 601.585938 21.789375 
" style="fill: none; stroke: #cccccc; stroke-linejoin: miter; stroke-linecap: square"/>
   </g>
   <g id="patch_5">
    <path d="M 43.585938 243.549375 
L 601.585938 243.549375 
" style="fill: none; stroke: #cccccc; stroke-linejoin: miter; stroke-linecap: square"/>
   </g>
   <g id="patch_6">
    <path d="M 43.585938 21.789375 
L 601.585938 21.789375 
" style="fill: none; stroke: #cccccc; stroke-linejoin: miter; stroke-linecap: square"/>
   </g>
   <g id="text_14">
    <!-- help others -->
    <g style="fill: #262626" transform="translate(292.901875 15.789375) scale(0.12 -0.12)">
     <defs>
      <path id="ArialMT-68" d="M 422 0 
L 422 4581 
L 984 4581 
L 984 2938 
Q 1378 3394 1978 3394 
Q 2347 3394 2619 3248 
Q 2891 3103 3008 2847 
Q 3125 2591 3125 2103 
L 3125 0 
L 2563 0 
L 2563 2103 
Q 2563 2525 2380 2717 
Q 2197 2909 1863 2909 
Q 1613 2909 1392 2779 
Q 1172 2650 1078 2428 
Q 984 2206 984 1816 
L 984 0 
L 422 0 
z
" transform="scale(0.015625)"/>
      <path id="ArialMT-6c" d="M 409 0 
L 409 4581 
L 972 4581 
L 972 0 
L 409 0 
z
" transform="scale(0.015625)"/>
      <path id="ArialMT-20" transform="scale(0.015625)"/>
     </defs>
     <use xlink:href="#ArialMT-68"/>
     <use xlink:href="#ArialMT-65" transform="translate(55.615234 0)"/>
     <use xlink:href="#ArialMT-6c" transform="translate(111.230469 0)"/>
     <use xlink:href="#ArialMT-70" transform="translate(133.447266 0)"/>
     <use xlink:href="#ArialMT-20" transform="translate(189.0625 0)"/>
     <use xlink:href="#ArialMT-6f" transform="translate(216.845703 0)"/>
     <use xlink:href="#ArialMT-74" transform="translate(272.460938 0)"/>
     <use xlink:href="#ArialMT-68" transform="translate(300.244141 0)"/>
     <use xlink:href="#ArialMT-65" transform="translate(355.859375 0)"/>
     <use xlink:href="#ArialMT-72" transform="translate(411.474609 0)"/>
     <use xlink:href="#ArialMT-73" transform="translate(444.775391 0)"/>
    </g>
   </g>
  </g>
 </g>
 <defs>
  <clipPath id="pbc6804a2e9">
   <rect x="43.585938" y="21.789375" width="558" height="221.76"/>
  </clipPath>
 </defs>
</svg>
