<?xml version="1.0" encoding="utf-8" standalone="no"?>
<!DOCTYPE svg PUBLIC "-//W3C//DTD SVG 1.1//EN"
  "http://www.w3.org/Graphics/SVG/1.1/DTD/svg11.dtd">
<svg xmlns:xlink="http://www.w3.org/1999/xlink" width="618.516406pt" height="276.54pt" viewBox="0 0 618.516406 276.54" xmlns="http://www.w3.org/2000/svg" version="1.1">
 <metadata>
  <rdf:RDF xmlns:dc="http://purl.org/dc/elements/1.1/" xmlns:cc="http://creativecommons.org/ns#" xmlns:rdf="http://www.w3.org/1999/02/22-rdf-syntax-ns#">
   <cc:Work>
    <dc:type rdf:resource="http://purl.org/dc/dcmitype/StillImage"/>
    <dc:date>2025-05-12T16:56:36.548082</dc:date>
    <dc:format>image/svg+xml</dc:format>
    <dc:creator>
     <cc:Agent>
      <dc:title>Matplotlib v3.10.0, https://matplotlib.org/</dc:title>
     </cc:Agent>
    </dc:creator>
   </cc:Work>
  </rdf:RDF>
 </metadata>
 <defs>
  <style type="text/css">*{stroke-linejoin: round; stroke-linecap: butt}</style>
 </defs>
 <g id="figure_1">
  <g id="patch_1">
   <path d="M -0 276.54 
L 618.516406 276.54 
L 618.516406 0 
L -0 0 
z
" style="fill: #ffffff"/>
  </g>
  <g id="axes_1">
   <g id="patch_2">
    <path d="M 43.585938 243.549375 
L 601.585938 243.549375 
L 601.585938 21.789375 
L 43.585938 21.789375 
z
" style="fill: #ffffff"/>
   </g>
   <g id="matplotlib.axis_1">
    <g id="xtick_1">
     <g id="line2d_1">
      <path d="M 43.585938 243.549375 
L 43.585938 21.789375 
" clip-path="url(#p6a3cc40d10)" style="fill: none; stroke: #cccccc; stroke-width: 0.8; stroke-linecap: round"/>
     </g>
     <g id="line2d_2"/>
     <g id="text_1">
      <!-- 0.00 -->
      <g style="fill: #262626" transform="translate(33.855469 254.207188) scale(0.1 -0.1)">
       <defs>
        <path id="ArialMT-30" d="M 266 2259 
Q 266 3072 433 3567 
Q 600 4063 929 4331 
Q 1259 4600 1759 4600 
Q 2128 4600 2406 4451 
Q 2684 4303 2865 4023 
Q 3047 3744 3150 3342 
Q 3253 2941 3253 2259 
Q 3253 1453 3087 958 
Q 2922 463 2592 192 
Q 2263 -78 1759 -78 
Q 1097 -78 719 397 
Q 266 969 266 2259 
z
M 844 2259 
Q 844 1131 1108 757 
Q 1372 384 1759 384 
Q 2147 384 2411 759 
Q 2675 1134 2675 2259 
Q 2675 3391 2411 3762 
Q 2147 4134 1753 4134 
Q 1366 4134 1134 3806 
Q 844 3388 844 2259 
z
" transform="scale(0.015625)"/>
        <path id="ArialMT-2e" d="M 581 0 
L 581 641 
L 1222 641 
L 1222 0 
L 581 0 
z
" transform="scale(0.015625)"/>
       </defs>
       <use xlink:href="#ArialMT-30"/>
       <use xlink:href="#ArialMT-2e" transform="translate(55.615234 0)"/>
       <use xlink:href="#ArialMT-30" transform="translate(83.398438 0)"/>
       <use xlink:href="#ArialMT-30" transform="translate(139.013672 0)"/>
      </g>
     </g>
    </g>
    <g id="xtick_2">
     <g id="line2d_3">
      <path d="M 155.185938 243.549375 
L 155.185938 21.789375 
" clip-path="url(#p6a3cc40d10)" style="fill: none; stroke: #cccccc; stroke-width: 0.8; stroke-linecap: round"/>
     </g>
     <g id="line2d_4"/>
     <g id="text_2">
      <!-- 0.02 -->
      <g style="fill: #262626" transform="translate(145.455469 254.207188) scale(0.1 -0.1)">
       <defs>
        <path id="ArialMT-32" d="M 3222 541 
L 3222 0 
L 194 0 
Q 188 203 259 391 
Q 375 700 629 1000 
Q 884 1300 1366 1694 
Q 2113 2306 2375 2664 
Q 2638 3022 2638 3341 
Q 2638 3675 2398 3904 
Q 2159 4134 1775 4134 
Q 1369 4134 1125 3890 
Q 881 3647 878 3216 
L 300 3275 
Q 359 3922 746 4261 
Q 1134 4600 1788 4600 
Q 2447 4600 2831 4234 
Q 3216 3869 3216 3328 
Q 3216 3053 3103 2787 
Q 2991 2522 2730 2228 
Q 2469 1934 1863 1422 
Q 1356 997 1212 845 
Q 1069 694 975 541 
L 3222 541 
z
" transform="scale(0.015625)"/>
       </defs>
       <use xlink:href="#ArialMT-30"/>
       <use xlink:href="#ArialMT-2e" transform="translate(55.615234 0)"/>
       <use xlink:href="#ArialMT-30" transform="translate(83.398438 0)"/>
       <use xlink:href="#ArialMT-32" transform="translate(139.013672 0)"/>
      </g>
     </g>
    </g>
    <g id="xtick_3">
     <g id="line2d_5">
      <path d="M 266.785938 243.549375 
L 266.785938 21.789375 
" clip-path="url(#p6a3cc40d10)" style="fill: none; stroke: #cccccc; stroke-width: 0.8; stroke-linecap: round"/>
     </g>
     <g id="line2d_6"/>
     <g id="text_3">
      <!-- 0.04 -->
      <g style="fill: #262626" transform="translate(257.055469 254.207188) scale(0.1 -0.1)">
       <defs>
        <path id="ArialMT-34" d="M 2069 0 
L 2069 1097 
L 81 1097 
L 81 1613 
L 2172 4581 
L 2631 4581 
L 2631 1613 
L 3250 1613 
L 3250 1097 
L 2631 1097 
L 2631 0 
L 2069 0 
z
M 2069 1613 
L 2069 3678 
L 634 1613 
L 2069 1613 
z
" transform="scale(0.015625)"/>
       </defs>
       <use xlink:href="#ArialMT-30"/>
       <use xlink:href="#ArialMT-2e" transform="translate(55.615234 0)"/>
       <use xlink:href="#ArialMT-30" transform="translate(83.398438 0)"/>
       <use xlink:href="#ArialMT-34" transform="translate(139.013672 0)"/>
      </g>
     </g>
    </g>
    <g id="xtick_4">
     <g id="line2d_7">
      <path d="M 378.385938 243.549375 
L 378.385938 21.789375 
" clip-path="url(#p6a3cc40d10)" style="fill: none; stroke: #cccccc; stroke-width: 0.8; stroke-linecap: round"/>
     </g>
     <g id="line2d_8"/>
     <g id="text_4">
      <!-- 0.06 -->
      <g style="fill: #262626" transform="translate(368.655469 254.207188) scale(0.1 -0.1)">
       <defs>
        <path id="ArialMT-36" d="M 3184 3459 
L 2625 3416 
Q 2550 3747 2413 3897 
Q 2184 4138 1850 4138 
Q 1581 4138 1378 3988 
Q 1113 3794 959 3422 
Q 806 3050 800 2363 
Q 1003 2672 1297 2822 
Q 1591 2972 1913 2972 
Q 2475 2972 2870 2558 
Q 3266 2144 3266 1488 
Q 3266 1056 3080 686 
Q 2894 316 2569 119 
Q 2244 -78 1831 -78 
Q 1128 -78 684 439 
Q 241 956 241 2144 
Q 241 3472 731 4075 
Q 1159 4600 1884 4600 
Q 2425 4600 2770 4297 
Q 3116 3994 3184 3459 
z
M 888 1484 
Q 888 1194 1011 928 
Q 1134 663 1356 523 
Q 1578 384 1822 384 
Q 2178 384 2434 671 
Q 2691 959 2691 1453 
Q 2691 1928 2437 2201 
Q 2184 2475 1800 2475 
Q 1419 2475 1153 2201 
Q 888 1928 888 1484 
z
" transform="scale(0.015625)"/>
       </defs>
       <use xlink:href="#ArialMT-30"/>
       <use xlink:href="#ArialMT-2e" transform="translate(55.615234 0)"/>
       <use xlink:href="#ArialMT-30" transform="translate(83.398438 0)"/>
       <use xlink:href="#ArialMT-36" transform="translate(139.013672 0)"/>
      </g>
     </g>
    </g>
    <g id="xtick_5">
     <g id="line2d_9">
      <path d="M 489.985938 243.549375 
L 489.985938 21.789375 
" clip-path="url(#p6a3cc40d10)" style="fill: none; stroke: #cccccc; stroke-width: 0.8; stroke-linecap: round"/>
     </g>
     <g id="line2d_10"/>
     <g id="text_5">
      <!-- 0.08 -->
      <g style="fill: #262626" transform="translate(480.255469 254.207188) scale(0.1 -0.1)">
       <defs>
        <path id="ArialMT-38" d="M 1131 2484 
Q 781 2613 612 2850 
Q 444 3088 444 3419 
Q 444 3919 803 4259 
Q 1163 4600 1759 4600 
Q 2359 4600 2725 4251 
Q 3091 3903 3091 3403 
Q 3091 3084 2923 2848 
Q 2756 2613 2416 2484 
Q 2838 2347 3058 2040 
Q 3278 1734 3278 1309 
Q 3278 722 2862 322 
Q 2447 -78 1769 -78 
Q 1091 -78 675 323 
Q 259 725 259 1325 
Q 259 1772 486 2073 
Q 713 2375 1131 2484 
z
M 1019 3438 
Q 1019 3113 1228 2906 
Q 1438 2700 1772 2700 
Q 2097 2700 2305 2904 
Q 2513 3109 2513 3406 
Q 2513 3716 2298 3927 
Q 2084 4138 1766 4138 
Q 1444 4138 1231 3931 
Q 1019 3725 1019 3438 
z
M 838 1322 
Q 838 1081 952 856 
Q 1066 631 1291 507 
Q 1516 384 1775 384 
Q 2178 384 2440 643 
Q 2703 903 2703 1303 
Q 2703 1709 2433 1975 
Q 2163 2241 1756 2241 
Q 1359 2241 1098 1978 
Q 838 1716 838 1322 
z
" transform="scale(0.015625)"/>
       </defs>
       <use xlink:href="#ArialMT-30"/>
       <use xlink:href="#ArialMT-2e" transform="translate(55.615234 0)"/>
       <use xlink:href="#ArialMT-30" transform="translate(83.398438 0)"/>
       <use xlink:href="#ArialMT-38" transform="translate(139.013672 0)"/>
      </g>
     </g>
    </g>
    <g id="xtick_6">
     <g id="line2d_11">
      <path d="M 601.585938 243.549375 
L 601.585938 21.789375 
" clip-path="url(#p6a3cc40d10)" style="fill: none; stroke: #cccccc; stroke-width: 0.8; stroke-linecap: round"/>
     </g>
     <g id="line2d_12"/>
     <g id="text_6">
      <!-- 0.10 -->
      <g style="fill: #262626" transform="translate(591.855469 254.207188) scale(0.1 -0.1)">
       <defs>
        <path id="ArialMT-31" d="M 2384 0 
L 1822 0 
L 1822 3584 
Q 1619 3391 1289 3197 
Q 959 3003 697 2906 
L 697 3450 
Q 1169 3672 1522 3987 
Q 1875 4303 2022 4600 
L 2384 4600 
L 2384 0 
z
" transform="scale(0.015625)"/>
       </defs>
       <use xlink:href="#ArialMT-30"/>
       <use xlink:href="#ArialMT-2e" transform="translate(55.615234 0)"/>
       <use xlink:href="#ArialMT-31" transform="translate(83.398438 0)"/>
       <use xlink:href="#ArialMT-30" transform="translate(139.013672 0)"/>
      </g>
     </g>
    </g>
    <g id="text_7">
     <!-- mutation-prob -->
     <g style="fill: #262626" transform="translate(291.739062 267.3525) scale(0.1 -0.1)">
      <defs>
       <path id="ArialMT-6d" d="M 422 0 
L 422 3319 
L 925 3319 
L 925 2853 
Q 1081 3097 1340 3245 
Q 1600 3394 1931 3394 
Q 2300 3394 2536 3241 
Q 2772 3088 2869 2813 
Q 3263 3394 3894 3394 
Q 4388 3394 4653 3120 
Q 4919 2847 4919 2278 
L 4919 0 
L 4359 0 
L 4359 2091 
Q 4359 2428 4304 2576 
Q 4250 2725 4106 2815 
Q 3963 2906 3769 2906 
Q 3419 2906 3187 2673 
Q 2956 2441 2956 1928 
L 2956 0 
L 2394 0 
L 2394 2156 
Q 2394 2531 2256 2718 
Q 2119 2906 1806 2906 
Q 1569 2906 1367 2781 
Q 1166 2656 1075 2415 
Q 984 2175 984 1722 
L 984 0 
L 422 0 
z
" transform="scale(0.015625)"/>
       <path id="ArialMT-75" d="M 2597 0 
L 2597 488 
Q 2209 -75 1544 -75 
Q 1250 -75 995 37 
Q 741 150 617 320 
Q 494 491 444 738 
Q 409 903 409 1263 
L 409 3319 
L 972 3319 
L 972 1478 
Q 972 1038 1006 884 
Q 1059 663 1231 536 
Q 1403 409 1656 409 
Q 1909 409 2131 539 
Q 2353 669 2445 892 
Q 2538 1116 2538 1541 
L 2538 3319 
L 3100 3319 
L 3100 0 
L 2597 0 
z
" transform="scale(0.015625)"/>
       <path id="ArialMT-74" d="M 1650 503 
L 1731 6 
Q 1494 -44 1306 -44 
Q 1000 -44 831 53 
Q 663 150 594 308 
Q 525 466 525 972 
L 525 2881 
L 113 2881 
L 113 3319 
L 525 3319 
L 525 4141 
L 1084 4478 
L 1084 3319 
L 1650 3319 
L 1650 2881 
L 1084 2881 
L 1084 941 
Q 1084 700 1114 631 
Q 1144 563 1211 522 
Q 1278 481 1403 481 
Q 1497 481 1650 503 
z
" transform="scale(0.015625)"/>
       <path id="ArialMT-61" d="M 2588 409 
Q 2275 144 1986 34 
Q 1697 -75 1366 -75 
Q 819 -75 525 192 
Q 231 459 231 875 
Q 231 1119 342 1320 
Q 453 1522 633 1644 
Q 813 1766 1038 1828 
Q 1203 1872 1538 1913 
Q 2219 1994 2541 2106 
Q 2544 2222 2544 2253 
Q 2544 2597 2384 2738 
Q 2169 2928 1744 2928 
Q 1347 2928 1158 2789 
Q 969 2650 878 2297 
L 328 2372 
Q 403 2725 575 2942 
Q 747 3159 1072 3276 
Q 1397 3394 1825 3394 
Q 2250 3394 2515 3294 
Q 2781 3194 2906 3042 
Q 3031 2891 3081 2659 
Q 3109 2516 3109 2141 
L 3109 1391 
Q 3109 606 3145 398 
Q 3181 191 3288 0 
L 2700 0 
Q 2613 175 2588 409 
z
M 2541 1666 
Q 2234 1541 1622 1453 
Q 1275 1403 1131 1340 
Q 988 1278 909 1158 
Q 831 1038 831 891 
Q 831 666 1001 516 
Q 1172 366 1500 366 
Q 1825 366 2078 508 
Q 2331 650 2450 897 
Q 2541 1088 2541 1459 
L 2541 1666 
z
" transform="scale(0.015625)"/>
       <path id="ArialMT-69" d="M 425 3934 
L 425 4581 
L 988 4581 
L 988 3934 
L 425 3934 
z
M 425 0 
L 425 3319 
L 988 3319 
L 988 0 
L 425 0 
z
" transform="scale(0.015625)"/>
       <path id="ArialMT-6f" d="M 213 1659 
Q 213 2581 725 3025 
Q 1153 3394 1769 3394 
Q 2453 3394 2887 2945 
Q 3322 2497 3322 1706 
Q 3322 1066 3130 698 
Q 2938 331 2570 128 
Q 2203 -75 1769 -75 
Q 1072 -75 642 372 
Q 213 819 213 1659 
z
M 791 1659 
Q 791 1022 1069 705 
Q 1347 388 1769 388 
Q 2188 388 2466 706 
Q 2744 1025 2744 1678 
Q 2744 2294 2464 2611 
Q 2184 2928 1769 2928 
Q 1347 2928 1069 2612 
Q 791 2297 791 1659 
z
" transform="scale(0.015625)"/>
       <path id="ArialMT-6e" d="M 422 0 
L 422 3319 
L 928 3319 
L 928 2847 
Q 1294 3394 1984 3394 
Q 2284 3394 2536 3286 
Q 2788 3178 2913 3003 
Q 3038 2828 3088 2588 
Q 3119 2431 3119 2041 
L 3119 0 
L 2556 0 
L 2556 2019 
Q 2556 2363 2490 2533 
Q 2425 2703 2258 2804 
Q 2091 2906 1866 2906 
Q 1506 2906 1245 2678 
Q 984 2450 984 1813 
L 984 0 
L 422 0 
z
" transform="scale(0.015625)"/>
       <path id="ArialMT-2d" d="M 203 1375 
L 203 1941 
L 1931 1941 
L 1931 1375 
L 203 1375 
z
" transform="scale(0.015625)"/>
       <path id="ArialMT-70" d="M 422 -1272 
L 422 3319 
L 934 3319 
L 934 2888 
Q 1116 3141 1344 3267 
Q 1572 3394 1897 3394 
Q 2322 3394 2647 3175 
Q 2972 2956 3137 2557 
Q 3303 2159 3303 1684 
Q 3303 1175 3120 767 
Q 2938 359 2589 142 
Q 2241 -75 1856 -75 
Q 1575 -75 1351 44 
Q 1128 163 984 344 
L 984 -1272 
L 422 -1272 
z
M 931 1641 
Q 931 1000 1190 694 
Q 1450 388 1819 388 
Q 2194 388 2461 705 
Q 2728 1022 2728 1688 
Q 2728 2322 2467 2637 
Q 2206 2953 1844 2953 
Q 1484 2953 1207 2617 
Q 931 2281 931 1641 
z
" transform="scale(0.015625)"/>
       <path id="ArialMT-72" d="M 416 0 
L 416 3319 
L 922 3319 
L 922 2816 
Q 1116 3169 1280 3281 
Q 1444 3394 1641 3394 
Q 1925 3394 2219 3213 
L 2025 2691 
Q 1819 2813 1613 2813 
Q 1428 2813 1281 2702 
Q 1134 2591 1072 2394 
Q 978 2094 978 1738 
L 978 0 
L 416 0 
z
" transform="scale(0.015625)"/>
       <path id="ArialMT-62" d="M 941 0 
L 419 0 
L 419 4581 
L 981 4581 
L 981 2947 
Q 1338 3394 1891 3394 
Q 2197 3394 2470 3270 
Q 2744 3147 2920 2923 
Q 3097 2700 3197 2384 
Q 3297 2069 3297 1709 
Q 3297 856 2875 390 
Q 2453 -75 1863 -75 
Q 1275 -75 941 416 
L 941 0 
z
M 934 1684 
Q 934 1088 1097 822 
Q 1363 388 1816 388 
Q 2184 388 2453 708 
Q 2722 1028 2722 1663 
Q 2722 2313 2464 2622 
Q 2206 2931 1841 2931 
Q 1472 2931 1203 2611 
Q 934 2291 934 1684 
z
" transform="scale(0.015625)"/>
      </defs>
      <use xlink:href="#ArialMT-6d"/>
      <use xlink:href="#ArialMT-75" transform="translate(83.300781 0)"/>
      <use xlink:href="#ArialMT-74" transform="translate(138.916016 0)"/>
      <use xlink:href="#ArialMT-61" transform="translate(166.699219 0)"/>
      <use xlink:href="#ArialMT-74" transform="translate(222.314453 0)"/>
      <use xlink:href="#ArialMT-69" transform="translate(250.097656 0)"/>
      <use xlink:href="#ArialMT-6f" transform="translate(272.314453 0)"/>
      <use xlink:href="#ArialMT-6e" transform="translate(327.929688 0)"/>
      <use xlink:href="#ArialMT-2d" transform="translate(383.544922 0)"/>
      <use xlink:href="#ArialMT-70" transform="translate(416.845703 0)"/>
      <use xlink:href="#ArialMT-72" transform="translate(472.460938 0)"/>
      <use xlink:href="#ArialMT-6f" transform="translate(505.761719 0)"/>
      <use xlink:href="#ArialMT-62" transform="translate(561.376953 0)"/>
     </g>
    </g>
   </g>
   <g id="matplotlib.axis_2">
    <g id="ytick_1">
     <g id="line2d_13">
      <path d="M 43.585938 243.549375 
L 601.585938 243.549375 
" clip-path="url(#p6a3cc40d10)" style="fill: none; stroke: #cccccc; stroke-width: 0.8; stroke-linecap: round"/>
     </g>
     <g id="line2d_14"/>
     <g id="text_8">
      <!-- −0.4 -->
      <g style="fill: #262626" transform="translate(20.345312 247.128281) scale(0.1 -0.1)">
       <defs>
        <path id="ArialMT-2212" d="M 3381 1997 
L 356 1997 
L 356 2522 
L 3381 2522 
L 3381 1997 
z
" transform="scale(0.015625)"/>
       </defs>
       <use xlink:href="#ArialMT-2212"/>
       <use xlink:href="#ArialMT-30" transform="translate(58.398438 0)"/>
       <use xlink:href="#ArialMT-2e" transform="translate(114.013672 0)"/>
       <use xlink:href="#ArialMT-34" transform="translate(141.796875 0)"/>
      </g>
     </g>
    </g>
    <g id="ytick_2">
     <g id="line2d_15">
      <path d="M 43.585938 211.869375 
L 601.585938 211.869375 
" clip-path="url(#p6a3cc40d10)" style="fill: none; stroke: #cccccc; stroke-width: 0.8; stroke-linecap: round"/>
     </g>
     <g id="line2d_16"/>
     <g id="text_9">
      <!-- −0.3 -->
      <g style="fill: #262626" transform="translate(20.345312 215.448281) scale(0.1 -0.1)">
       <defs>
        <path id="ArialMT-33" d="M 269 1209 
L 831 1284 
Q 928 806 1161 595 
Q 1394 384 1728 384 
Q 2125 384 2398 659 
Q 2672 934 2672 1341 
Q 2672 1728 2419 1979 
Q 2166 2231 1775 2231 
Q 1616 2231 1378 2169 
L 1441 2663 
Q 1497 2656 1531 2656 
Q 1891 2656 2178 2843 
Q 2466 3031 2466 3422 
Q 2466 3731 2256 3934 
Q 2047 4138 1716 4138 
Q 1388 4138 1169 3931 
Q 950 3725 888 3313 
L 325 3413 
Q 428 3978 793 4289 
Q 1159 4600 1703 4600 
Q 2078 4600 2393 4439 
Q 2709 4278 2876 4000 
Q 3044 3722 3044 3409 
Q 3044 3113 2884 2869 
Q 2725 2625 2413 2481 
Q 2819 2388 3044 2092 
Q 3269 1797 3269 1353 
Q 3269 753 2831 336 
Q 2394 -81 1725 -81 
Q 1122 -81 723 278 
Q 325 638 269 1209 
z
" transform="scale(0.015625)"/>
       </defs>
       <use xlink:href="#ArialMT-2212"/>
       <use xlink:href="#ArialMT-30" transform="translate(58.398438 0)"/>
       <use xlink:href="#ArialMT-2e" transform="translate(114.013672 0)"/>
       <use xlink:href="#ArialMT-33" transform="translate(141.796875 0)"/>
      </g>
     </g>
    </g>
    <g id="ytick_3">
     <g id="line2d_17">
      <path d="M 43.585938 180.189375 
L 601.585938 180.189375 
" clip-path="url(#p6a3cc40d10)" style="fill: none; stroke: #cccccc; stroke-width: 0.8; stroke-linecap: round"/>
     </g>
     <g id="line2d_18"/>
     <g id="text_10">
      <!-- −0.2 -->
      <g style="fill: #262626" transform="translate(20.345312 183.768281) scale(0.1 -0.1)">
       <use xlink:href="#ArialMT-2212"/>
       <use xlink:href="#ArialMT-30" transform="translate(58.398438 0)"/>
       <use xlink:href="#ArialMT-2e" transform="translate(114.013672 0)"/>
       <use xlink:href="#ArialMT-32" transform="translate(141.796875 0)"/>
      </g>
     </g>
    </g>
    <g id="ytick_4">
     <g id="line2d_19">
      <path d="M 43.585938 148.509375 
L 601.585938 148.509375 
" clip-path="url(#p6a3cc40d10)" style="fill: none; stroke: #cccccc; stroke-width: 0.8; stroke-linecap: round"/>
     </g>
     <g id="line2d_20"/>
     <g id="text_11">
      <!-- −0.1 -->
      <g style="fill: #262626" transform="translate(20.345312 152.088281) scale(0.1 -0.1)">
       <use xlink:href="#ArialMT-2212"/>
       <use xlink:href="#ArialMT-30" transform="translate(58.398438 0)"/>
       <use xlink:href="#ArialMT-2e" transform="translate(114.013672 0)"/>
       <use xlink:href="#ArialMT-31" transform="translate(141.796875 0)"/>
      </g>
     </g>
    </g>
    <g id="ytick_5">
     <g id="line2d_21">
      <path d="M 43.585938 116.829375 
L 601.585938 116.829375 
" clip-path="url(#p6a3cc40d10)" style="fill: none; stroke: #cccccc; stroke-width: 0.8; stroke-linecap: round"/>
     </g>
     <g id="line2d_22"/>
     <g id="text_12">
      <!-- 0.0 -->
      <g style="fill: #262626" transform="translate(26.185938 120.408281) scale(0.1 -0.1)">
       <use xlink:href="#ArialMT-30"/>
       <use xlink:href="#ArialMT-2e" transform="translate(55.615234 0)"/>
       <use xlink:href="#ArialMT-30" transform="translate(83.398438 0)"/>
      </g>
     </g>
    </g>
    <g id="ytick_6">
     <g id="line2d_23">
      <path d="M 43.585938 85.149375 
L 601.585938 85.149375 
" clip-path="url(#p6a3cc40d10)" style="fill: none; stroke: #cccccc; stroke-width: 0.8; stroke-linecap: round"/>
     </g>
     <g id="line2d_24"/>
     <g id="text_13">
      <!-- 0.1 -->
      <g style="fill: #262626" transform="translate(26.185938 88.728281) scale(0.1 -0.1)">
       <use xlink:href="#ArialMT-30"/>
       <use xlink:href="#ArialMT-2e" transform="translate(55.615234 0)"/>
       <use xlink:href="#ArialMT-31" transform="translate(83.398438 0)"/>
      </g>
     </g>
    </g>
    <g id="ytick_7">
     <g id="line2d_25">
      <path d="M 43.585938 53.469375 
L 601.585938 53.469375 
" clip-path="url(#p6a3cc40d10)" style="fill: none; stroke: #cccccc; stroke-width: 0.8; stroke-linecap: round"/>
     </g>
     <g id="line2d_26"/>
     <g id="text_14">
      <!-- 0.2 -->
      <g style="fill: #262626" transform="translate(26.185938 57.048281) scale(0.1 -0.1)">
       <use xlink:href="#ArialMT-30"/>
       <use xlink:href="#ArialMT-2e" transform="translate(55.615234 0)"/>
       <use xlink:href="#ArialMT-32" transform="translate(83.398438 0)"/>
      </g>
     </g>
    </g>
    <g id="ytick_8">
     <g id="line2d_27">
      <path d="M 43.585938 21.789375 
L 601.585938 21.789375 
" clip-path="url(#p6a3cc40d10)" style="fill: none; stroke: #cccccc; stroke-width: 0.8; stroke-linecap: round"/>
     </g>
     <g id="line2d_28"/>
     <g id="text_15">
      <!-- 0.3 -->
      <g style="fill: #262626" transform="translate(26.185938 25.368281) scale(0.1 -0.1)">
       <use xlink:href="#ArialMT-30"/>
       <use xlink:href="#ArialMT-2e" transform="translate(55.615234 0)"/>
       <use xlink:href="#ArialMT-33" transform="translate(83.398438 0)"/>
      </g>
     </g>
    </g>
    <g id="text_16">
     <!-- score -->
     <g style="fill: #262626" transform="translate(14.357812 144.895156) rotate(-90) scale(0.1 -0.1)">
      <defs>
       <path id="ArialMT-73" d="M 197 991 
L 753 1078 
Q 800 744 1014 566 
Q 1228 388 1613 388 
Q 2000 388 2187 545 
Q 2375 703 2375 916 
Q 2375 1106 2209 1216 
Q 2094 1291 1634 1406 
Q 1016 1563 777 1677 
Q 538 1791 414 1992 
Q 291 2194 291 2438 
Q 291 2659 392 2848 
Q 494 3038 669 3163 
Q 800 3259 1026 3326 
Q 1253 3394 1513 3394 
Q 1903 3394 2198 3281 
Q 2494 3169 2634 2976 
Q 2775 2784 2828 2463 
L 2278 2388 
Q 2241 2644 2061 2787 
Q 1881 2931 1553 2931 
Q 1166 2931 1000 2803 
Q 834 2675 834 2503 
Q 834 2394 903 2306 
Q 972 2216 1119 2156 
Q 1203 2125 1616 2013 
Q 2213 1853 2448 1751 
Q 2684 1650 2818 1456 
Q 2953 1263 2953 975 
Q 2953 694 2789 445 
Q 2625 197 2315 61 
Q 2006 -75 1616 -75 
Q 969 -75 630 194 
Q 291 463 197 991 
z
" transform="scale(0.015625)"/>
       <path id="ArialMT-63" d="M 2588 1216 
L 3141 1144 
Q 3050 572 2676 248 
Q 2303 -75 1759 -75 
Q 1078 -75 664 370 
Q 250 816 250 1647 
Q 250 2184 428 2587 
Q 606 2991 970 3192 
Q 1334 3394 1763 3394 
Q 2303 3394 2647 3120 
Q 2991 2847 3088 2344 
L 2541 2259 
Q 2463 2594 2264 2762 
Q 2066 2931 1784 2931 
Q 1359 2931 1093 2626 
Q 828 2322 828 1663 
Q 828 994 1084 691 
Q 1341 388 1753 388 
Q 2084 388 2306 591 
Q 2528 794 2588 1216 
z
" transform="scale(0.015625)"/>
       <path id="ArialMT-65" d="M 2694 1069 
L 3275 997 
Q 3138 488 2766 206 
Q 2394 -75 1816 -75 
Q 1088 -75 661 373 
Q 234 822 234 1631 
Q 234 2469 665 2931 
Q 1097 3394 1784 3394 
Q 2450 3394 2872 2941 
Q 3294 2488 3294 1666 
Q 3294 1616 3291 1516 
L 816 1516 
Q 847 969 1125 678 
Q 1403 388 1819 388 
Q 2128 388 2347 550 
Q 2566 713 2694 1069 
z
M 847 1978 
L 2700 1978 
Q 2663 2397 2488 2606 
Q 2219 2931 1791 2931 
Q 1403 2931 1139 2672 
Q 875 2413 847 1978 
z
" transform="scale(0.015625)"/>
      </defs>
      <use xlink:href="#ArialMT-73"/>
      <use xlink:href="#ArialMT-63" transform="translate(50 0)"/>
      <use xlink:href="#ArialMT-6f" transform="translate(100 0)"/>
      <use xlink:href="#ArialMT-72" transform="translate(155.615234 0)"/>
      <use xlink:href="#ArialMT-65" transform="translate(188.916016 0)"/>
     </g>
    </g>
   </g>
   <g id="FillBetweenPolyCollection_1">
    <defs>
     <path id="md2de1715b0" d="M 44.147151 -160.325837 
L 44.147151 -139.984656 
L 44.649102 -137.389221 
L 45.293179 -138.345558 
L 45.846434 -137.996138 
L 46.418423 -138.121154 
L 46.975957 -139.147334 
L 47.6581 -139.526122 
L 48.28817 -140.101901 
L 48.748787 -141.607988 
L 49.303838 -142.246753 
L 49.967307 -142.430017 
L 50.42006 -142.827743 
L 50.970884 -143.322374 
L 51.429579 -143.606778 
L 51.790406 -143.976415 
L 52.455468 -144.826996 
L 53.047882 -145.490766 
L 53.659494 -146.045571 
L 54.273854 -145.874008 
L 54.84479 -146.734403 
L 55.445821 -147.150128 
L 55.949135 -147.503607 
L 56.562918 -147.713944 
L 56.977589 -147.731359 
L 57.396344 -147.920764 
L 58.119787 -148.200996 
L 58.744284 -148.40083 
L 59.268081 -148.597085 
L 59.876024 -148.691537 
L 60.32339 -148.679054 
L 60.83088 -148.733596 
L 61.446898 -148.721167 
L 62.080757 -148.819635 
L 62.758503 -148.989745 
L 63.061556 -149.236446 
L 63.603143 -149.246063 
L 64.2989 -149.313822 
L 64.727873 -149.321136 
L 65.294305 -149.489829 
L 65.986623 -149.573813 
L 66.513381 -149.630316 
L 67.10083 -149.717467 
L 67.554489 -149.815286 
L 67.948939 -149.813307 
L 68.772068 -149.774332 
L 69.407178 -149.741967 
L 69.859367 -149.70162 
L 70.493153 -149.822738 
L 71.092733 -150.061967 
L 71.561824 -150.180941 
L 72.08339 -150.440649 
L 72.606849 -150.730526 
L 73.025893 -151.061114 
L 73.539429 -151.222238 
L 74.188547 -151.544053 
L 74.874752 -151.863966 
L 75.312916 -152.018904 
L 75.807865 -152.148233 
L 76.498636 -152.322462 
L 77.200479 -152.764631 
L 77.634877 -153.184839 
L 78.084055 -153.451092 
L 78.743862 -153.798335 
L 79.280456 -154.012549 
L 79.825703 -154.347337 
L 80.261596 -154.47201 
L 80.885459 -154.636052 
L 81.43842 -154.816137 
L 81.85665 -155.048311 
L 82.423936 -155.231191 
L 82.97598 -155.369153 
L 83.519458 -155.551646 
L 84.280381 -155.638639 
L 84.998902 -155.719932 
L 85.338268 -155.800576 
L 85.769102 -155.753614 
L 86.490414 -155.73174 
L 87.097735 -155.732582 
L 87.578823 -155.603527 
L 88.115116 -155.765252 
L 88.738508 -155.838569 
L 89.392179 -155.843878 
L 89.97327 -155.797417 
L 90.4295 -155.767716 
L 90.886685 -155.73179 
L 91.635184 -155.800173 
L 92.136633 -155.902685 
L 92.681809 -155.928717 
L 93.242088 -156.119425 
L 93.597644 -155.977045 
L 94.255848 -155.949257 
L 95.04986 -155.979557 
L 95.675883 -156.041646 
L 96.042464 -156.076099 
L 96.496902 -156.148616 
L 97.19674 -156.083221 
L 97.75354 -156.093207 
L 98.30926 -156.183799 
L 99.025889 -156.161092 
L 99.422621 -156.00075 
L 99.952116 -155.93555 
L 100.723975 -155.910915 
L 101.247454 -155.875508 
L 101.67295 -155.44917 
L 102.110373 -155.296155 
L 102.651764 -155.53759 
L 103.389305 -155.433325 
L 103.900214 -155.247588 
L 104.48436 -155.149312 
L 105.111566 -155.11798 
L 105.402377 -155.05864 
L 106.048248 -155.069419 
L 106.847501 -155.210581 
L 107.218641 -155.314923 
L 107.744874 -155.47624 
L 108.486338 -155.557819 
L 108.93945 -155.634199 
L 109.475937 -155.677458 
L 110.134488 -155.637651 
L 110.732953 -155.677841 
L 111.352813 -155.721325 
L 111.801084 -155.787216 
L 112.254491 -155.80301 
L 112.72988 -155.825303 
L 113.160422 -155.769699 
L 113.923785 -155.773043 
L 114.560975 -155.767694 
L 115.014347 -155.745815 
L 115.66685 -155.814399 
L 116.27499 -155.835211 
L 116.70828 -155.858847 
L 117.148674 -155.868271 
L 117.618151 -155.945704 
L 118.109468 -156.034232 
L 118.739474 -156.071112 
L 119.54059 -156.084277 
L 120.20323 -156.11349 
L 120.588612 -156.204059 
L 121.22657 -156.217181 
L 121.702598 -156.264526 
L 122.122101 -156.256645 
L 122.76478 -156.260954 
L 123.306556 -156.323338 
L 123.8166 -156.360501 
L 124.324329 -156.264942 
L 125.01118 -156.207968 
L 125.775288 -156.146193 
L 126.361437 -156.064884 
L 126.852745 -156.043541 
L 127.414233 -156.004605 
L 127.786115 -155.927212 
L 128.159711 -155.870464 
L 128.873438 -155.879338 
L 129.604256 -155.895039 
L 130.006335 -155.843851 
L 130.430861 -155.786707 
L 131.100403 -155.737761 
L 131.607281 -155.66467 
L 132.234657 -155.609221 
L 132.824011 -155.541278 
L 133.34271 -155.470116 
L 134.098588 -155.381705 
L 134.554248 -155.215682 
L 135.043235 -155.11517 
L 135.655103 -155.004072 
L 136.11227 -154.910392 
L 136.846231 -154.799109 
L 137.351956 -154.748727 
L 137.869066 -154.693734 
L 138.607561 -154.61923 
L 138.975411 -154.544815 
L 139.350513 -154.447796 
L 140.093877 -154.329858 
L 140.82906 -154.201527 
L 141.39147 -154.111921 
L 141.825163 -153.957119 
L 142.384629 -153.896667 
L 142.879548 -153.801443 
L 143.389329 -153.675887 
L 143.997917 -153.484312 
L 144.564811 -153.402938 
L 145.182271 -153.243321 
L 145.65067 -152.938565 
L 146.358553 -153.084458 
L 146.876013 -152.907561 
L 147.257601 -152.769465 
L 147.932407 -152.645074 
L 148.521716 -152.440259 
L 148.904398 -152.328446 
L 149.557351 -152.236393 
L 150.292223 -151.993936 
L 150.794665 -151.836947 
L 151.399668 -151.739546 
L 151.799331 -151.3139 
L 152.212355 -151.125209 
L 152.977537 -150.860694 
L 153.548986 -150.445341 
L 153.920603 -149.989774 
L 154.510923 -149.75691 
L 155.071324 -149.663481 
L 155.573059 -149.093606 
L 156.349894 -148.816406 
L 156.958585 -148.567244 
L 157.334504 -148.256987 
L 157.905486 -147.990993 
L 158.572516 -147.783061 
L 159.065059 -147.523798 
L 159.713371 -147.221217 
L 160.439958 -146.926954 
L 160.785694 -146.706172 
L 161.224235 -146.572417 
L 161.921872 -146.432297 
L 162.599449 -146.446352 
L 163.085141 -146.710653 
L 163.580193 -146.644147 
L 164.173262 -146.550497 
L 164.755393 -146.526181 
L 165.387207 -146.477896 
L 165.950157 -146.418963 
L 166.556598 -146.394645 
L 166.974537 -146.262739 
L 167.295047 -146.135158 
L 167.924089 -146.040765 
L 168.708065 -145.931517 
L 169.398134 -145.855935 
L 169.951408 -145.718539 
L 170.342391 -145.661643 
L 170.702211 -145.732685 
L 171.426378 -145.563885 
L 172.020311 -145.611288 
L 172.526423 -145.552767 
L 173.254946 -145.492911 
L 173.839541 -145.49254 
L 174.204698 -145.408641 
L 174.520859 -145.449153 
L 175.091611 -145.439949 
L 175.878067 -145.594554 
L 176.487521 -145.587359 
L 177.054496 -145.676839 
L 177.703387 -145.686475 
L 178.087923 -145.654187 
L 178.549177 -145.606955 
L 179.172587 -145.546905 
L 179.68933 -145.642121 
L 180.268944 -145.641863 
L 180.922934 -145.662674 
L 181.463593 -145.69691 
L 182.100853 -145.575641 
L 182.655504 -145.599913 
L 183.169007 -145.536777 
L 183.780885 -145.433724 
L 184.222174 -145.350166 
L 184.59345 -145.304259 
L 185.120906 -145.18962 
L 185.73188 -145.101633 
L 186.324199 -145.119088 
L 186.89852 -145.061985 
L 187.381229 -144.862362 
L 187.950998 -144.739717 
L 188.642512 -144.500028 
L 189.232113 -144.357607 
L 189.751503 -143.990166 
L 190.230719 -143.878647 
L 190.732637 -143.655608 
L 191.30945 -143.52317 
L 191.925942 -143.371649 
L 192.452692 -143.097546 
L 193.109958 -142.899698 
L 193.882417 -142.780241 
L 194.345924 -142.730808 
L 194.712864 -142.578274 
L 195.332835 -142.557419 
L 196.082275 -142.528009 
L 196.453055 -142.540715 
L 196.826465 -142.45263 
L 197.396201 -142.380302 
L 198.046776 -142.274607 
L 198.661366 -142.234801 
L 199.081679 -142.006753 
L 199.830002 -141.980917 
L 200.418786 -142.043341 
L 200.892319 -142.041572 
L 201.539657 -141.985591 
L 201.971056 -141.749867 
L 202.542315 -141.68944 
L 203.158878 -141.687113 
L 203.801284 -141.635672 
L 204.392859 -141.651188 
L 204.923973 -141.749132 
L 205.346012 -141.797364 
L 205.783693 -141.889241 
L 206.451107 -141.916977 
L 207.130477 -142.002359 
L 207.628605 -142.070759 
L 208.070274 -142.30731 
L 208.760651 -142.568634 
L 209.449597 -142.695956 
L 209.932289 -142.78321 
L 210.374959 -142.86578 
L 211.054268 -142.976724 
L 211.554328 -143.099763 
L 212.030484 -143.132503 
L 212.551432 -143.171475 
L 213.202786 -143.191341 
L 213.879873 -143.159246 
L 214.306054 -143.36224 
L 214.987665 -143.576818 
L 215.621854 -143.751347 
L 216.150391 -143.890553 
L 216.69339 -144.072275 
L 217.184494 -144.202388 
L 217.635475 -144.225621 
L 218.178664 -144.38293 
L 218.75128 -144.393159 
L 219.20056 -144.474637 
L 219.792744 -144.600613 
L 220.561039 -144.707584 
L 221.216782 -144.895525 
L 221.599464 -145.099178 
L 222.025589 -145.195659 
L 222.690373 -145.300438 
L 223.197947 -145.420258 
L 223.765234 -145.581248 
L 224.519297 -145.678636 
L 225.028138 -145.767196 
L 225.610922 -146.006927 
L 226.277039 -146.142455 
L 226.783442 -146.347544 
L 227.227692 -146.481682 
L 227.813801 -146.659228 
L 228.28391 -146.763812 
L 228.809325 -146.881204 
L 229.511386 -146.908132 
L 230.108551 -146.861452 
L 230.670174 -146.877728 
L 231.215479 -146.895746 
L 231.852583 -146.914866 
L 232.223357 -147.026028 
L 232.533528 -147.164091 
L 233.297776 -147.221734 
L 233.917648 -147.411862 
L 234.408093 -147.509473 
L 234.891041 -147.753792 
L 235.484456 -147.795907 
L 236.069371 -147.817535 
L 236.409635 -147.882307 
L 237.166698 -147.811821 
L 237.976496 -147.805913 
L 238.57984 -147.841056 
L 238.994114 -147.892456 
L 239.308901 -147.626564 
L 239.833845 -147.577432 
L 240.478476 -147.637808 
L 241.183032 -147.684353 
L 241.83748 -147.730182 
L 242.430718 -147.789643 
L 242.783472 -148.263696 
L 243.132067 -148.512639 
L 243.709634 -148.773841 
L 244.423537 -148.922175 
L 245.13789 -149.11265 
L 245.601823 -149.246242 
L 246.075063 -149.372955 
L 246.737811 -149.50575 
L 247.210269 -149.677639 
L 247.71887 -149.759483 
L 248.520615 -149.927925 
L 249.110325 -150.407942 
L 249.443714 -150.551089 
L 249.848326 -150.579852 
L 250.568634 -150.633808 
L 251.340122 -150.892954 
L 251.963582 -151.111388 
L 252.379324 -151.275266 
L 252.732052 -151.523201 
L 253.388526 -151.698362 
L 253.916789 -151.841043 
L 254.442361 -152.079608 
L 255.012869 -152.210154 
L 255.503779 -152.369743 
L 256.194309 -152.71459 
L 256.69464 -153.009016 
L 257.209687 -153.245096 
L 257.733053 -153.578571 
L 258.22651 -153.877002 
L 258.844959 -154.098431 
L 259.478056 -154.295437 
L 260.158826 -154.627265 
L 260.646955 -154.852615 
L 261.272397 -155.116718 
L 262.019449 -155.459389 
L 262.429846 -155.636237 
L 262.970375 -156.008721 
L 263.444022 -156.238162 
L 263.926974 -156.327543 
L 264.541301 -156.544552 
L 265.056465 -156.899765 
L 265.648235 -157.103155 
L 266.305269 -157.240701 
L 266.927653 -157.478915 
L 267.50609 -157.616263 
L 268.145128 -157.707728 
L 268.570467 -157.777514 
L 268.930971 -157.899461 
L 269.498828 -158.139134 
L 270.239669 -158.223054 
L 270.903733 -158.354222 
L 271.358217 -158.643431 
L 271.951652 -158.918351 
L 272.549889 -159.139694 
L 273.030787 -159.154618 
L 273.523991 -159.250445 
L 273.945228 -159.318741 
L 274.474552 -159.476555 
L 275.262025 -159.664079 
L 275.97138 -159.833783 
L 276.37996 -159.934945 
L 276.78433 -160.030102 
L 277.425344 -160.125379 
L 278.008018 -160.157946 
L 278.497674 -160.234517 
L 279.107528 -160.317558 
L 279.613186 -160.389001 
L 280.151716 -160.491602 
L 280.872114 -160.52074 
L 281.366567 -160.572751 
L 281.842103 -160.616588 
L 282.495134 -160.712149 
L 283.066975 -160.858866 
L 283.446092 -160.882998 
L 283.941891 -160.90925 
L 284.50163 -160.979319 
L 285.079322 -160.978399 
L 285.837034 -161.031053 
L 286.355928 -161.055352 
L 286.698247 -161.134811 
L 287.216995 -161.158369 
L 287.83135 -161.202849 
L 288.507869 -161.221894 
L 289.045445 -161.242437 
L 289.527259 -161.235516 
L 290.223238 -161.259761 
L 290.723205 -161.320031 
L 291.306033 -161.254967 
L 291.846918 -161.272798 
L 292.275533 -161.309981 
L 292.938434 -161.410165 
L 293.695883 -161.416727 
L 294.171202 -161.446896 
L 294.635263 -161.475622 
L 295.142971 -161.470412 
L 295.779544 -161.500395 
L 296.427073 -161.526119 
L 296.816121 -161.300709 
L 297.355772 -161.050662 
L 297.954763 -160.945194 
L 298.628718 -161.019024 
L 299.080102 -160.971729 
L 299.680486 -160.698818 
L 300.308902 -160.594324 
L 300.792138 -160.61246 
L 301.312053 -160.55341 
L 301.806725 -160.952859 
L 302.329514 -161.041856 
L 302.884494 -160.996871 
L 303.509846 -160.960662 
L 304.252299 -161.005741 
L 304.783583 -161.051365 
L 305.106783 -161.027081 
L 305.716863 -161.052609 
L 306.404874 -161.065804 
L 306.883296 -161.089303 
L 307.317978 -161.159189 
L 307.854179 -161.112229 
L 308.59299 -161.083232 
L 309.230103 -161.054485 
L 309.611816 -161.018823 
L 310.207725 -160.995029 
L 310.78789 -160.942082 
L 311.481558 -160.952391 
L 312.127633 -161.004972 
L 312.616592 -161.011271 
L 313.265977 -161.053629 
L 313.893922 -161.069015 
L 314.307619 -161.070896 
L 314.611889 -161.141226 
L 315.125171 -161.12826 
L 315.687343 -161.131617 
L 316.392251 -161.133156 
L 317.014851 -161.248288 
L 317.46614 -161.271447 
L 318.181521 -161.279583 
L 318.865342 -161.316238 
L 319.266108 -161.395601 
L 319.862642 -161.390716 
L 320.540184 -161.39301 
L 320.880789 -161.386733 
L 321.430397 -161.262361 
L 322.018517 -161.259049 
L 322.515809 -161.292901 
L 323.258076 -161.257055 
L 323.759346 -161.262844 
L 324.198259 -161.243953 
L 324.944826 -161.235888 
L 325.406175 -161.281372 
L 325.876421 -161.242717 
L 326.516329 -161.215272 
L 327.036924 -161.141206 
L 327.529622 -161.109963 
L 328.096864 -161.045525 
L 328.690424 -160.992824 
L 329.196841 -160.917978 
L 329.848194 -160.727334 
L 330.503208 -160.703009 
L 331.135962 -160.605259 
L 331.712317 -160.454671 
L 332.13377 -160.392882 
L 332.628426 -160.351708 
L 333.243103 -160.218257 
L 333.925544 -160.127382 
L 334.475082 -160.054209 
L 334.915916 -160.060281 
L 335.424394 -160.008865 
L 336.032354 -159.968118 
L 336.684459 -159.860769 
L 337.078886 -159.789529 
L 337.657633 -159.738669 
L 338.298992 -159.694309 
L 338.842322 -159.667822 
L 339.428324 -159.629501 
L 339.957411 -159.577896 
L 340.588068 -159.483886 
L 340.954636 -159.354923 
L 341.564732 -159.30377 
L 342.363149 -159.184025 
L 342.829232 -159.164061 
L 343.225873 -159.195832 
L 343.871976 -159.223389 
L 344.488493 -159.184241 
L 344.925651 -159.130795 
L 345.47663 -158.98437 
L 346.076245 -158.894229 
L 346.748168 -158.761414 
L 347.285379 -158.677383 
L 347.793244 -158.617412 
L 348.230898 -158.55979 
L 348.609656 -158.518618 
L 349.322521 -158.420924 
L 350.022267 -158.378538 
L 350.384757 -158.261038 
L 350.846077 -158.267189 
L 351.585116 -158.096678 
L 352.220988 -158.109851 
L 352.767261 -158.076579 
L 353.296312 -158.077434 
L 353.917804 -158.099236 
L 354.617976 -158.081997 
L 354.951914 -158.073601 
L 355.275012 -158.021132 
L 355.830069 -157.995789 
L 356.384829 -157.97181 
L 356.955568 -158.021439 
L 357.584905 -158.103805 
L 358.14514 -158.147358 
L 358.733815 -158.18897 
L 359.49904 -158.23538 
L 360.021658 -158.250483 
L 360.355255 -158.247036 
L 361.040599 -158.275884 
L 361.587516 -158.172287 
L 361.929254 -158.153617 
L 362.70504 -158.175567 
L 363.376369 -158.23358 
L 363.971406 -158.173568 
L 364.585503 -158.121764 
L 364.942039 -158.137079 
L 365.599805 -158.155425 
L 366.182027 -158.1743 
L 366.665191 -158.18719 
L 367.422529 -158.16273 
L 368.055052 -158.130752 
L 368.466082 -158.125437 
L 368.846208 -158.132577 
L 369.504725 -158.143602 
L 370.100861 -158.181559 
L 370.437079 -158.215231 
L 370.963925 -158.213449 
L 371.590422 -158.199712 
L 372.184592 -158.181178 
L 372.717382 -158.107265 
L 373.299267 -158.1163 
L 374.06135 -158.14044 
L 374.550696 -158.119367 
L 375.031073 -158.092905 
L 375.715694 -158.072598 
L 376.162498 -158.085799 
L 376.524577 -158.101292 
L 377.263353 -158.083325 
L 377.873638 -158.101 
L 378.441206 -158.087029 
L 379.120218 -158.159861 
L 379.65128 -158.207518 
L 380.024389 -158.386392 
L 380.401773 -158.18983 
L 381.027155 -158.215701 
L 381.555495 -158.205825 
L 382.192861 -158.214023 
L 382.7697 -158.182314 
L 383.199388 -158.178004 
L 383.845743 -158.318013 
L 384.636568 -158.36523 
L 385.293935 -158.301335 
L 385.833103 -158.279315 
L 386.294898 -158.312658 
L 386.784598 -158.312033 
L 387.461436 -158.141845 
L 387.939886 -158.143773 
L 388.358301 -158.241974 
L 389.002281 -158.270869 
L 389.617711 -158.268216 
L 390.140578 -158.314739 
L 390.536357 -158.344886 
L 391.062132 -158.4109 
L 391.653186 -158.511644 
L 392.226623 -158.670944 
L 392.821182 -158.811809 
L 393.364981 -158.933067 
L 394.094223 -159.030552 
L 394.629182 -159.030142 
L 395.06872 -159.073003 
L 395.713451 -159.214454 
L 396.332645 -159.314099 
L 396.956261 -159.38373 
L 397.438222 -159.417818 
L 398.012341 -159.480351 
L 398.458868 -159.447852 
L 398.797699 -159.510163 
L 399.515831 -159.553916 
L 400.277378 -159.6349 
L 400.787556 -159.741305 
L 401.340932 -159.858672 
L 401.835404 -159.857523 
L 402.250223 -159.907732 
L 403.030802 -159.93576 
L 403.56225 -159.914456 
L 404.119404 -159.918327 
L 404.621376 -159.924619 
L 405.023431 -159.976466 
L 405.627125 -160.015434 
L 406.099794 -160.0284 
L 406.76709 -160.088978 
L 407.302528 -160.125515 
L 407.765498 -160.122286 
L 408.38373 -160.291654 
L 408.945663 -160.355334 
L 409.46243 -160.442153 
L 410.204596 -160.585614 
L 410.95969 -160.717814 
L 411.514769 -160.882196 
L 412.065551 -160.914685 
L 412.559284 -160.971527 
L 412.970185 -160.964513 
L 413.492241 -160.926622 
L 414.206699 -160.897326 
L 414.872801 -160.825799 
L 415.313876 -160.804657 
L 415.873244 -160.790693 
L 416.331626 -160.737975 
L 416.78231 -160.623652 
L 417.459493 -160.568408 
L 418.111463 -160.415971 
L 418.664978 -160.266354 
L 419.069785 -160.068951 
L 419.706573 -160.034167 
L 420.243452 -159.947592 
L 420.705809 -159.789302 
L 421.367714 -159.672047 
L 421.961381 -159.591179 
L 422.429243 -159.503379 
L 423.120754 -159.390738 
L 423.658468 -159.260835 
L 424.184602 -159.095118 
L 424.77327 -158.926012 
L 425.355339 -158.785382 
L 425.873762 -158.699571 
L 426.298589 -158.659464 
L 426.872267 -158.563314 
L 427.498105 -158.399224 
L 428.0641 -158.312732 
L 428.498783 -158.207063 
L 429.191922 -158.149141 
L 429.900211 -158.066788 
L 430.397133 -157.977593 
L 430.875033 -157.813084 
L 431.30235 -157.769443 
L 431.950661 -157.687892 
L 432.528029 -157.618708 
L 433.030863 -157.624196 
L 433.744654 -157.562108 
L 434.183077 -157.547422 
L 434.622535 -157.511616 
L 435.217853 -157.497503 
L 435.950778 -157.501663 
L 436.487157 -157.525641 
L 436.832101 -157.523072 
L 437.489175 -157.37901 
L 438.144064 -157.399536 
L 438.638937 -157.636763 
L 439.293012 -157.833413 
L 439.752531 -158.056023 
L 440.323495 -158.131004 
L 440.963088 -158.142224 
L 441.359683 -158.217365 
L 441.914102 -158.095723 
L 442.503999 -158.060567 
L 443.130066 -158.104777 
L 443.779913 -158.074015 
L 444.430443 -158.092082 
L 444.969303 -158.040464 
L 445.545631 -157.942318 
L 445.990348 -157.938917 
L 446.53714 -157.987628 
L 447.130116 -158.050082 
L 447.623297 -157.997076 
L 448.305987 -158.167714 
L 448.756766 -158.24083 
L 449.284388 -158.185538 
L 449.939395 -158.455987 
L 450.30749 -158.535023 
L 450.896067 -158.721463 
L 451.686449 -158.776795 
L 452.26906 -158.809228 
L 452.646441 -158.950504 
L 453.119508 -159.095535 
L 453.808818 -159.221545 
L 454.275977 -159.294374 
L 454.644848 -159.370762 
L 455.164511 -159.424689 
L 455.81004 -159.685779 
L 456.568156 -159.820725 
L 457.234924 -159.931301 
L 457.634545 -160.040489 
L 458.162484 -160.202443 
L 458.721129 -160.35672 
L 459.282754 -160.439021 
L 459.825147 -160.622817 
L 460.210283 -160.89234 
L 460.897922 -161.056073 
L 461.60353 -161.176436 
L 462.129746 -161.31351 
L 462.56634 -161.423138 
L 463.128425 -161.601434 
L 463.686355 -161.764362 
L 464.153381 -161.947564 
L 464.930601 -162.176761 
L 465.532841 -162.348561 
L 465.926307 -162.445538 
L 466.532405 -162.545974 
L 467.18584 -162.633222 
L 467.624895 -162.840949 
L 468.060995 -162.891582 
L 468.753119 -162.957236 
L 469.272916 -163.023228 
L 469.71989 -163.065286 
L 470.257243 -163.056905 
L 470.971774 -163.090123 
L 471.72424 -163.154234 
L 472.170081 -163.196988 
L 472.71637 -163.300348 
L 473.396188 -163.313032 
L 473.759858 -163.30634 
L 474.12399 -163.326797 
L 474.767969 -163.351056 
L 475.507813 -163.409744 
L 476.092035 -163.465177 
L 476.699123 -163.479921 
L 477.404377 -163.557835 
L 477.848766 -163.600231 
L 478.3074 -163.674159 
L 478.804157 -163.744558 
L 479.424752 -163.789736 
L 480.164671 -163.812489 
L 480.531726 -163.915374 
L 480.847377 -163.986384 
L 481.371816 -164.065842 
L 482.125516 -164.215477 
L 482.738206 -164.295332 
L 483.169663 -164.326846 
L 483.760682 -164.397522 
L 484.437541 -164.494586 
L 484.996881 -164.564863 
L 485.360838 -164.622962 
L 485.850155 -164.635936 
L 486.538241 -164.646195 
L 487.239861 -164.661608 
L 487.896554 -164.72351 
L 488.456296 -164.835122 
L 488.795314 -164.888085 
L 489.454773 -164.939761 
L 490.157831 -165.022237 
L 490.476695 -165.032505 
L 491.034107 -165.106909 
L 491.585321 -165.140769 
L 492.08894 -165.202527 
L 492.659214 -165.322812 
L 493.34724 -165.376262 
L 493.948775 -165.465607 
L 494.491321 -165.430376 
L 494.997467 -165.460479 
L 495.349414 -165.486142 
L 496.046711 -165.462184 
L 496.712971 -165.455089 
L 497.131001 -165.433744 
L 497.592587 -165.408352 
L 498.147776 -165.42404 
L 498.87487 -165.459406 
L 499.421297 -165.522983 
L 499.935386 -165.504102 
L 500.613839 -165.496347 
L 501.000775 -165.527676 
L 501.479212 -165.524258 
L 502.074384 -165.595252 
L 502.746509 -165.738034 
L 503.297751 -165.856981 
L 503.817552 -165.979641 
L 504.358519 -166.022593 
L 505.017258 -166.086506 
L 505.756936 -166.101075 
L 506.242971 -166.139058 
L 506.830687 -166.13482 
L 507.322738 -166.171442 
L 507.825107 -166.182559 
L 508.368022 -166.188365 
L 508.948565 -166.231949 
L 509.495259 -166.263418 
L 510.129622 -166.308377 
L 510.636205 -166.384586 
L 510.942378 -166.442388 
L 511.52374 -166.458805 
L 512.310094 -166.511322 
L 513.020397 -166.505506 
L 513.61072 -166.516311 
L 514.110225 -166.536962 
L 514.613271 -166.542465 
L 515.280815 -166.591014 
L 515.742051 -166.6675 
L 516.110925 -166.731686 
L 516.548547 -166.732697 
L 517.306055 -166.716327 
L 517.988348 -166.805716 
L 518.515436 -166.801073 
L 519.196484 -166.791519 
L 519.55799 -166.846235 
L 519.936397 -166.873383 
L 520.645037 -166.898466 
L 521.278747 -166.924213 
L 521.784553 -166.956922 
L 522.41694 -167.030848 
L 522.913405 -167.054505 
L 523.322338 -167.057951 
L 524.099178 -167.042267 
L 524.651285 -167.006118 
L 525.014873 -167.038633 
L 525.683347 -167.092471 
L 526.355448 -166.997913 
L 526.845865 -166.913569 
L 527.438864 -166.803269 
L 528.112942 -166.616096 
L 528.678375 -166.532137 
L 529.240725 -166.515295 
L 529.70207 -166.475792 
L 530.058946 -166.439735 
L 530.631379 -166.324079 
L 531.321732 -166.297188 
L 531.947372 -166.215877 
L 532.48693 -166.187619 
L 533.094286 -166.174873 
L 533.709755 -166.204936 
L 534.231407 -166.272649 
L 534.638172 -166.366759 
L 534.957675 -166.4289 
L 535.615315 -166.604578 
L 536.296048 -166.790648 
L 536.827593 -166.875102 
L 537.369364 -166.902819 
L 537.807693 -166.928999 
L 538.440756 -167.052389 
L 539.219657 -167.134443 
L 539.712613 -167.193787 
L 540.132089 -167.306849 
L 540.60423 -167.439953 
L 541.237904 -167.467433 
L 541.797883 -167.623198 
L 542.409283 -167.722979 
L 543.12735 -167.883643 
L 543.560908 -168.07479 
L 544.081156 -168.219261 
L 544.806559 -168.354731 
L 545.473924 -168.407301 
L 545.843179 -168.479283 
L 546.327515 -168.570707 
L 546.839774 -168.609932 
L 547.33893 -168.655191 
L 548.089786 -168.725373 
L 548.594747 -168.782329 
L 548.999956 -168.792892 
L 549.567613 -168.812484 
L 550.138204 -168.814048 
L 550.84924 -168.822392 
L 551.520424 -168.880057 
L 551.964708 -168.938797 
L 552.569796 -168.939948 
L 553.226684 -168.949026 
L 553.80839 -168.946354 
L 554.166405 -168.947627 
L 554.660175 -168.932913 
L 555.323225 -168.966531 
L 555.719223 -169.011097 
L 556.214973 -169.039695 
L 556.826525 -169.088317 
L 557.472583 -169.122604 
L 558.075148 -169.103126 
L 558.475385 -169.062028 
L 559.057977 -169.067843 
L 559.836545 -169.086364 
L 560.254754 -169.031918 
L 560.722978 -169.052144 
L 561.469085 -169.02514 
L 561.985743 -168.980728 
L 562.491303 -169.017752 
L 563.172771 -169.008287 
L 563.748603 -168.958006 
L 564.258615 -168.934411 
L 564.722761 -168.865613 
L 565.315173 -168.870989 
L 565.860083 -168.927654 
L 566.282376 -168.894559 
L 566.791964 -168.848899 
L 567.521485 -168.696936 
L 568.096324 -168.675299 
L 568.577987 -168.585864 
L 569.170588 -168.4661 
L 569.773442 -168.338068 
L 570.313706 -168.304932 
L 570.852975 -168.222018 
L 571.628012 -168.227111 
L 572.170621 -168.124271 
L 572.579883 -168.016132 
L 573.151665 -167.966496 
L 573.847576 -167.861535 
L 574.405755 -167.794487 
L 574.721456 -167.760203 
L 575.271078 -167.707831 
L 575.898078 -167.48614 
L 576.423943 -167.381939 
L 577.122704 -167.256636 
L 577.608428 -167.13016 
L 578.142507 -167.038923 
L 578.750399 -166.895629 
L 579.118956 -166.78967 
L 579.736542 -166.592322 
L 580.538797 -166.411515 
L 581.067288 -166.35455 
L 581.377442 -166.322199 
L 581.821805 -166.314847 
L 582.586634 -166.255079 
L 583.266318 -166.274023 
L 583.688825 -166.259465 
L 584.131114 -166.199597 
L 584.838558 -166.163087 
L 585.419646 -166.23624 
L 585.89198 -166.167931 
L 586.523505 -166.160334 
L 587.121078 -166.091893 
L 587.773296 -166.075583 
L 588.390677 -166.051695 
L 588.820611 -166.031162 
L 589.35005 -165.980814 
L 590.066886 -165.979758 
L 590.581982 -165.98045 
L 590.926274 -165.96516 
L 591.498478 -165.955839 
L 592.049112 -165.951083 
L 592.602786 -165.975824 
L 593.327959 -165.846564 
L 593.733469 -165.778091 
L 594.209441 -165.715382 
L 594.874673 -165.645595 
L 595.380035 -165.598902 
L 595.872188 -165.665735 
L 596.575668 -165.826039 
L 597.274172 -165.843985 
L 597.637498 -165.797613 
L 598.218639 -166.079033 
L 598.848016 -166.331987 
L 599.225722 -166.502709 
L 599.723983 -166.659028 
L 600.452198 -166.828645 
L 601.174518 -167.04342 
L 601.434702 -166.85068 
L 601.434702 -176.534592 
L 601.434702 -176.534592 
L 601.174518 -178.299152 
L 600.452198 -177.373298 
L 599.723983 -176.38135 
L 599.225722 -175.470496 
L 598.848016 -174.609302 
L 598.218639 -173.921413 
L 597.637498 -173.180242 
L 597.274172 -172.756146 
L 596.575668 -172.22742 
L 595.872188 -171.618119 
L 595.380035 -171.059334 
L 594.874673 -170.739066 
L 594.209441 -170.740248 
L 593.733469 -170.629005 
L 593.327959 -170.274065 
L 592.602786 -170.179832 
L 592.049112 -170.086167 
L 591.498478 -169.987378 
L 590.926274 -169.999127 
L 590.581982 -169.672551 
L 590.066886 -169.674397 
L 589.35005 -169.718964 
L 588.820611 -169.816957 
L 588.390677 -169.9306 
L 587.773296 -169.944379 
L 587.121078 -169.949294 
L 586.523505 -169.97853 
L 585.89198 -170.04498 
L 585.419646 -170.188669 
L 584.838558 -170.10067 
L 584.131114 -170.16209 
L 583.688825 -170.236751 
L 583.266318 -170.15797 
L 582.586634 -170.18155 
L 581.821805 -170.302199 
L 581.377442 -170.365905 
L 581.067288 -170.4535 
L 580.538797 -170.605026 
L 579.736542 -170.851164 
L 579.118956 -171.009602 
L 578.750399 -171.1484 
L 578.142507 -171.445231 
L 577.608428 -171.631562 
L 577.122704 -172.0292 
L 576.423943 -172.467426 
L 575.898078 -172.862591 
L 575.271078 -173.193806 
L 574.721456 -173.47623 
L 574.405755 -173.695302 
L 573.847576 -173.980973 
L 573.151665 -174.211826 
L 572.579883 -174.400045 
L 572.170621 -174.623418 
L 571.628012 -175.047622 
L 570.852975 -175.35411 
L 570.313706 -175.541329 
L 569.773442 -175.921138 
L 569.170588 -176.147427 
L 568.577987 -176.502401 
L 568.096324 -176.6816 
L 567.521485 -176.815786 
L 566.791964 -176.88477 
L 566.282376 -176.932842 
L 565.860083 -176.97785 
L 565.315173 -176.951986 
L 564.722761 -176.862217 
L 564.258615 -176.791216 
L 563.748603 -176.746642 
L 563.172771 -176.574753 
L 562.491303 -176.486894 
L 561.985743 -176.299844 
L 561.469085 -176.080506 
L 560.722978 -175.918832 
L 560.254754 -175.70439 
L 559.836545 -175.529555 
L 559.057977 -175.378659 
L 558.475385 -175.151671 
L 558.075148 -174.699865 
L 557.472583 -174.340893 
L 556.826525 -173.958298 
L 556.214973 -173.74639 
L 555.719223 -173.517053 
L 555.323225 -173.372927 
L 554.660175 -173.191039 
L 554.166405 -172.977158 
L 553.80839 -172.795845 
L 553.226684 -172.723344 
L 552.569796 -172.526135 
L 551.964708 -172.38278 
L 551.520424 -172.239767 
L 550.84924 -172.034602 
L 550.138204 -171.913627 
L 549.567613 -171.794594 
L 548.999956 -171.736092 
L 548.594747 -171.653508 
L 548.089786 -171.551038 
L 547.33893 -171.421127 
L 546.839774 -171.30425 
L 546.327515 -171.225261 
L 545.843179 -171.137772 
L 545.473924 -171.011146 
L 544.806559 -170.894394 
L 544.081156 -170.798732 
L 543.560908 -170.63094 
L 543.12735 -170.540034 
L 542.409283 -170.418928 
L 541.797883 -170.32347 
L 541.237904 -170.247176 
L 540.60423 -170.166788 
L 540.132089 -170.113433 
L 539.712613 -170.032522 
L 539.219657 -169.919318 
L 538.440756 -169.867919 
L 537.807693 -169.789598 
L 537.369364 -169.729165 
L 536.827593 -169.709892 
L 536.296048 -169.602784 
L 535.615315 -169.429667 
L 534.957675 -169.356192 
L 534.638172 -169.312912 
L 534.231407 -169.197045 
L 533.709755 -169.164769 
L 533.094286 -169.140705 
L 532.48693 -169.135364 
L 531.947372 -169.124134 
L 531.321732 -169.104819 
L 530.631379 -169.091912 
L 530.058946 -169.068329 
L 529.70207 -169.027028 
L 529.240725 -168.935437 
L 528.678375 -168.940004 
L 528.112942 -168.943437 
L 527.438864 -168.950716 
L 526.845865 -168.971714 
L 526.355448 -169.052175 
L 525.683347 -169.155184 
L 525.014873 -169.228684 
L 524.651285 -169.252891 
L 524.099178 -169.306009 
L 523.322338 -169.316764 
L 522.913405 -169.335852 
L 522.41694 -169.294387 
L 521.784553 -169.313027 
L 521.278747 -169.297286 
L 520.645037 -169.276937 
L 519.936397 -169.227834 
L 519.55799 -169.207939 
L 519.196484 -169.11701 
L 518.515436 -169.128309 
L 517.988348 -169.194601 
L 517.306055 -169.226405 
L 516.548547 -169.277978 
L 516.110925 -169.372428 
L 515.742051 -169.454412 
L 515.280815 -169.367542 
L 514.613271 -169.136739 
L 514.110225 -169.122325 
L 513.61072 -169.114805 
L 513.020397 -169.116776 
L 512.310094 -169.07447 
L 511.52374 -168.958117 
L 510.942378 -168.864262 
L 510.636205 -168.840351 
L 510.129622 -168.900271 
L 509.495259 -168.921296 
L 508.948565 -168.947861 
L 508.368022 -168.964718 
L 507.825107 -168.877421 
L 507.322738 -168.855735 
L 506.830687 -168.836472 
L 506.242971 -168.742182 
L 505.756936 -168.638402 
L 505.017258 -168.550657 
L 504.358519 -168.519031 
L 503.817552 -168.391582 
L 503.297751 -168.3276 
L 502.746509 -168.224449 
L 502.074384 -168.129999 
L 501.479212 -168.092436 
L 501.000775 -168.085586 
L 500.613839 -168.047288 
L 499.935386 -168.055912 
L 499.421297 -168.087134 
L 498.87487 -168.134188 
L 498.147776 -168.164282 
L 497.592587 -168.31302 
L 497.131001 -168.3274 
L 496.712971 -168.356315 
L 496.046711 -168.428488 
L 495.349414 -168.319905 
L 494.997467 -168.329208 
L 494.491321 -168.317674 
L 493.948775 -168.33346 
L 493.34724 -168.323078 
L 492.659214 -168.287389 
L 492.08894 -168.260777 
L 491.585321 -168.090013 
L 491.034107 -168.096539 
L 490.476695 -167.992585 
L 490.157831 -168.088135 
L 489.454773 -168.12967 
L 488.795314 -168.345171 
L 488.456296 -168.342196 
L 487.896554 -168.298246 
L 487.239861 -168.259048 
L 486.538241 -168.317751 
L 485.850155 -168.352269 
L 485.360838 -168.336619 
L 484.996881 -168.347428 
L 484.437541 -168.315474 
L 483.760682 -168.245649 
L 483.169663 -168.257465 
L 482.738206 -168.204823 
L 482.125516 -167.945299 
L 481.371816 -167.901546 
L 480.847377 -167.896551 
L 480.531726 -167.906769 
L 480.164671 -167.821405 
L 479.424752 -167.775834 
L 478.804157 -167.649101 
L 478.3074 -167.59467 
L 477.848766 -167.515201 
L 477.404377 -167.382832 
L 476.699123 -167.388048 
L 476.092035 -167.316651 
L 475.507813 -167.253091 
L 474.767969 -167.195296 
L 474.12399 -167.131603 
L 473.759858 -167.092135 
L 473.396188 -167.013743 
L 472.71637 -166.877362 
L 472.170081 -166.788241 
L 471.72424 -166.679135 
L 470.971774 -166.593902 
L 470.257243 -166.501171 
L 469.71989 -166.28622 
L 469.272916 -166.120967 
L 468.753119 -166.071124 
L 468.060995 -165.91568 
L 467.624895 -165.669048 
L 467.18584 -165.55539 
L 466.532405 -165.361997 
L 465.926307 -165.235038 
L 465.532841 -165.089876 
L 464.930601 -164.973619 
L 464.153381 -164.834496 
L 463.686355 -164.557667 
L 463.128425 -164.454269 
L 462.56634 -164.351387 
L 462.129746 -164.244476 
L 461.60353 -164.030239 
L 460.897922 -163.890031 
L 460.210283 -163.848341 
L 459.825147 -163.726503 
L 459.282754 -163.559508 
L 458.721129 -163.437531 
L 458.162484 -163.349845 
L 457.634545 -163.23092 
L 457.234924 -163.126783 
L 456.568156 -162.998326 
L 455.81004 -162.935275 
L 455.164511 -162.840325 
L 454.644848 -162.726884 
L 454.275977 -162.741439 
L 453.808818 -162.694112 
L 453.119508 -162.637373 
L 452.646441 -162.484134 
L 452.26906 -162.465962 
L 451.686449 -162.409705 
L 450.896067 -162.349886 
L 450.30749 -162.296302 
L 449.939395 -162.250835 
L 449.284388 -162.161717 
L 448.756766 -162.162703 
L 448.305987 -162.153034 
L 447.623297 -162.11908 
L 447.130116 -162.02622 
L 446.53714 -162.036117 
L 445.990348 -162.008781 
L 445.545631 -162.063842 
L 444.969303 -162.100479 
L 444.430443 -162.09251 
L 443.779913 -162.076128 
L 443.130066 -162.096718 
L 442.503999 -162.147367 
L 441.914102 -162.172826 
L 441.359683 -162.247523 
L 440.963088 -162.185372 
L 440.323495 -162.202093 
L 439.752531 -162.17672 
L 439.293012 -162.247427 
L 438.638937 -162.300022 
L 438.144064 -162.406531 
L 437.489175 -162.412645 
L 436.832101 -162.33032 
L 436.487157 -162.356656 
L 435.950778 -162.392428 
L 435.217853 -162.402131 
L 434.622535 -162.467524 
L 434.183077 -162.515708 
L 433.744654 -162.55293 
L 433.030863 -162.539297 
L 432.528029 -162.539484 
L 431.950661 -162.516806 
L 431.30235 -162.505192 
L 430.875033 -162.59797 
L 430.397133 -162.584555 
L 429.900211 -162.604221 
L 429.191922 -162.588779 
L 428.498783 -162.632878 
L 428.0641 -162.687076 
L 427.498105 -162.745521 
L 426.872267 -162.809888 
L 426.298589 -162.871232 
L 425.873762 -162.92293 
L 425.355339 -162.957142 
L 424.77327 -162.970063 
L 424.184602 -163.134708 
L 423.658468 -163.146019 
L 423.120754 -163.22208 
L 422.429243 -163.278841 
L 421.961381 -163.308945 
L 421.367714 -163.386628 
L 420.705809 -163.39675 
L 420.243452 -163.454587 
L 419.706573 -163.467831 
L 419.069785 -163.532429 
L 418.664978 -163.553226 
L 418.111463 -163.673284 
L 417.459493 -163.738019 
L 416.78231 -163.767479 
L 416.331626 -163.917889 
L 415.873244 -163.976672 
L 415.313876 -164.051588 
L 414.872801 -164.08672 
L 414.206699 -164.090809 
L 413.492241 -164.175593 
L 412.970185 -164.206644 
L 412.559284 -164.191802 
L 412.065551 -164.15928 
L 411.514769 -164.212932 
L 410.95969 -164.211178 
L 410.204596 -164.117456 
L 409.46243 -164.02107 
L 408.945663 -163.92649 
L 408.38373 -163.86264 
L 407.765498 -163.724782 
L 407.302528 -163.701247 
L 406.76709 -163.678832 
L 406.099794 -163.591432 
L 405.627125 -163.586125 
L 405.023431 -163.587129 
L 404.621376 -163.58189 
L 404.119404 -163.589311 
L 403.56225 -163.547464 
L 403.030802 -163.489347 
L 402.250223 -163.486052 
L 401.835404 -163.413026 
L 401.340932 -163.335384 
L 400.787556 -163.304313 
L 400.277378 -163.193404 
L 399.515831 -163.166269 
L 398.797699 -163.15133 
L 398.458868 -163.107513 
L 398.012341 -163.069909 
L 397.438222 -163.0506 
L 396.956261 -162.964124 
L 396.332645 -162.928897 
L 395.713451 -162.84891 
L 395.06872 -162.842174 
L 394.629182 -162.76411 
L 394.094223 -162.73494 
L 393.364981 -162.612724 
L 392.821182 -162.575399 
L 392.226623 -162.566031 
L 391.653186 -162.498356 
L 391.062132 -162.449648 
L 390.536357 -162.41681 
L 390.140578 -162.400232 
L 389.617711 -162.372407 
L 389.002281 -162.344661 
L 388.358301 -162.285345 
L 387.939886 -162.295149 
L 387.461436 -162.293709 
L 386.784598 -162.398832 
L 386.294898 -162.38969 
L 385.833103 -162.317894 
L 385.293935 -162.259544 
L 384.636568 -162.275619 
L 383.845743 -162.263239 
L 383.199388 -162.195025 
L 382.7697 -162.125511 
L 382.192861 -162.03594 
L 381.555495 -161.954631 
L 381.027155 -161.953901 
L 380.401773 -161.993404 
L 380.024389 -161.944193 
L 379.65128 -161.845944 
L 379.120218 -161.829675 
L 378.441206 -161.794596 
L 377.873638 -161.793621 
L 377.263353 -161.781278 
L 376.524577 -161.77991 
L 376.162498 -161.745293 
L 375.715694 -161.713875 
L 375.031073 -161.735547 
L 374.550696 -161.755249 
L 374.06135 -161.778863 
L 373.299267 -161.751189 
L 372.717382 -161.762604 
L 372.184592 -161.732011 
L 371.590422 -161.736395 
L 370.963925 -161.751089 
L 370.437079 -161.74324 
L 370.100861 -161.647015 
L 369.504725 -161.6311 
L 368.846208 -161.617787 
L 368.466082 -161.633031 
L 368.055052 -161.606859 
L 367.422529 -161.590587 
L 366.665191 -161.610424 
L 366.182027 -161.587314 
L 365.599805 -161.589364 
L 364.942039 -161.597992 
L 364.585503 -161.60554 
L 363.971406 -161.641664 
L 363.376369 -161.657709 
L 362.70504 -161.648518 
L 361.929254 -161.631224 
L 361.587516 -161.651551 
L 361.040599 -161.6945 
L 360.355255 -161.713133 
L 360.021658 -161.674019 
L 359.49904 -161.656896 
L 358.733815 -161.645925 
L 358.14514 -161.574172 
L 357.584905 -161.479771 
L 356.955568 -161.466262 
L 356.384829 -161.390034 
L 355.830069 -161.288654 
L 355.275012 -161.304981 
L 354.951914 -161.291023 
L 354.617976 -161.309857 
L 353.917804 -161.317441 
L 353.296312 -161.305557 
L 352.767261 -161.292788 
L 352.220988 -161.347919 
L 351.585116 -161.340904 
L 350.846077 -161.37819 
L 350.384757 -161.422015 
L 350.022267 -161.498257 
L 349.322521 -161.567209 
L 348.609656 -161.596186 
L 348.230898 -161.620173 
L 347.793244 -161.69493 
L 347.285379 -161.803192 
L 346.748168 -161.903775 
L 346.076245 -161.966895 
L 345.47663 -162.033875 
L 344.925651 -162.12479 
L 344.488493 -162.209756 
L 343.871976 -162.274871 
L 343.225873 -162.226727 
L 342.829232 -162.245411 
L 342.363149 -162.272913 
L 341.564732 -162.312737 
L 340.954636 -162.398338 
L 340.588068 -162.546303 
L 339.957411 -162.663186 
L 339.428324 -162.726761 
L 338.842322 -162.769556 
L 338.298992 -162.794368 
L 337.657633 -162.878192 
L 337.078886 -162.978851 
L 336.684459 -163.012138 
L 336.032354 -163.083972 
L 335.424394 -163.069999 
L 334.915916 -163.162468 
L 334.475082 -163.243178 
L 333.925544 -163.302916 
L 333.243103 -163.419355 
L 332.628426 -163.47695 
L 332.13377 -163.651078 
L 331.712317 -163.766562 
L 331.135962 -164.006719 
L 330.503208 -164.163878 
L 329.848194 -164.408091 
L 329.196841 -164.638998 
L 328.690424 -164.839976 
L 328.096864 -164.973193 
L 327.529622 -165.142447 
L 327.036924 -165.287883 
L 326.516329 -165.516582 
L 325.876421 -165.687088 
L 325.406175 -165.891667 
L 324.944826 -165.955768 
L 324.198259 -166.043635 
L 323.759346 -166.233006 
L 323.258076 -166.333723 
L 322.515809 -166.46853 
L 322.018517 -166.63526 
L 321.430397 -166.896824 
L 320.880789 -166.979506 
L 320.540184 -167.124841 
L 319.862642 -167.248183 
L 319.266108 -167.213319 
L 318.865342 -167.106014 
L 318.181521 -167.134704 
L 317.46614 -167.091407 
L 317.014851 -167.09629 
L 316.392251 -167.07702 
L 315.687343 -167.036872 
L 315.125171 -167.043583 
L 314.611889 -166.952848 
L 314.307619 -166.979784 
L 313.893922 -166.975222 
L 313.265977 -167.110628 
L 312.616592 -167.117263 
L 312.127633 -167.091064 
L 311.481558 -167.118883 
L 310.78789 -167.100366 
L 310.207725 -166.92301 
L 309.611816 -166.918463 
L 309.230103 -166.991826 
L 308.59299 -167.027812 
L 307.854179 -167.04418 
L 307.317978 -167.099339 
L 306.883296 -167.338408 
L 306.404874 -167.267657 
L 305.716863 -167.154499 
L 305.106783 -167.146482 
L 304.783583 -167.191157 
L 304.252299 -167.209738 
L 303.509846 -167.189658 
L 302.884494 -167.201495 
L 302.329514 -167.317031 
L 301.806725 -167.366928 
L 301.312053 -167.360454 
L 300.792138 -167.538473 
L 300.308902 -167.644904 
L 299.680486 -167.7252 
L 299.080102 -167.927266 
L 298.628718 -168.089289 
L 297.954763 -168.163304 
L 297.355772 -168.275074 
L 296.816121 -168.38952 
L 296.427073 -168.472072 
L 295.779544 -168.75117 
L 295.142971 -169.039368 
L 294.635263 -169.412285 
L 294.171202 -169.449391 
L 293.695883 -169.608623 
L 292.938434 -169.630017 
L 292.275533 -169.76045 
L 291.846918 -169.914919 
L 291.306033 -169.658364 
L 290.723205 -169.481583 
L 290.223238 -169.550477 
L 289.527259 -169.354879 
L 289.045445 -169.095136 
L 288.507869 -169.006969 
L 287.83135 -168.816586 
L 287.216995 -168.783232 
L 286.698247 -168.626489 
L 286.355928 -168.504623 
L 285.837034 -168.593184 
L 285.079322 -168.53634 
L 284.50163 -168.439932 
L 283.941891 -168.379785 
L 283.446092 -168.248801 
L 283.066975 -168.090014 
L 282.495134 -167.950669 
L 281.842103 -167.80875 
L 281.366567 -167.495489 
L 280.872114 -167.287506 
L 280.151716 -167.098127 
L 279.613186 -166.884742 
L 279.107528 -166.669388 
L 278.497674 -166.326917 
L 278.008018 -166.214347 
L 277.425344 -166.076075 
L 276.78433 -165.763727 
L 276.37996 -165.481539 
L 275.97138 -165.098304 
L 275.262025 -164.671399 
L 274.474552 -164.346727 
L 273.945228 -163.944673 
L 273.523991 -163.740433 
L 273.030787 -163.178231 
L 272.549889 -162.912962 
L 271.951652 -162.568485 
L 271.358217 -162.193179 
L 270.903733 -161.92947 
L 270.239669 -161.781635 
L 269.498828 -161.693026 
L 268.930971 -161.437855 
L 268.570467 -161.269013 
L 268.145128 -161.032751 
L 267.50609 -160.777098 
L 266.927653 -160.580591 
L 266.305269 -160.558254 
L 265.648235 -160.083987 
L 265.056465 -159.7421 
L 264.541301 -159.482 
L 263.926974 -159.272005 
L 263.444022 -159.067039 
L 262.970375 -158.76002 
L 262.429846 -158.550194 
L 262.019449 -158.248549 
L 261.272397 -158.116025 
L 260.646955 -158.099934 
L 260.158826 -157.983334 
L 259.478056 -157.761673 
L 258.844959 -157.519614 
L 258.22651 -157.496117 
L 257.733053 -157.387567 
L 257.209687 -157.22901 
L 256.69464 -157.021012 
L 256.194309 -156.915117 
L 255.503779 -156.859501 
L 255.012869 -156.843603 
L 254.442361 -156.742022 
L 253.916789 -156.612178 
L 253.388526 -156.519703 
L 252.732052 -156.38721 
L 252.379324 -156.337354 
L 251.963582 -156.135052 
L 251.340122 -155.995365 
L 250.568634 -155.953295 
L 249.848326 -155.838177 
L 249.443714 -155.692452 
L 249.110325 -155.523689 
L 248.520615 -155.658715 
L 247.71887 -155.587296 
L 247.210269 -155.409655 
L 246.737811 -155.365832 
L 246.075063 -155.237984 
L 245.601823 -155.22584 
L 245.13789 -155.18951 
L 244.423537 -155.153981 
L 243.709634 -155.11493 
L 243.132067 -154.967417 
L 242.783472 -154.795366 
L 242.430718 -154.881939 
L 241.83748 -154.718993 
L 241.183032 -154.694538 
L 240.478476 -154.60714 
L 239.833845 -154.606945 
L 239.308901 -154.498476 
L 238.994114 -154.371681 
L 238.57984 -154.284213 
L 237.976496 -154.266577 
L 237.166698 -154.201232 
L 236.409635 -154.184287 
L 236.069371 -154.121174 
L 235.484456 -154.083056 
L 234.891041 -153.952426 
L 234.408093 -153.953129 
L 233.917648 -153.878689 
L 233.297776 -153.701023 
L 232.533528 -153.555567 
L 232.223357 -153.442544 
L 231.852583 -153.419998 
L 231.215479 -153.425489 
L 230.670174 -153.269782 
L 230.108551 -153.176302 
L 229.511386 -153.111193 
L 228.809325 -153.046145 
L 228.28391 -152.965552 
L 227.813801 -152.899051 
L 227.227692 -152.835012 
L 226.783442 -152.678158 
L 226.277039 -152.625149 
L 225.610922 -152.546659 
L 225.028138 -152.431193 
L 224.519297 -152.261079 
L 223.765234 -152.214778 
L 223.197947 -152.063053 
L 222.690373 -151.953087 
L 222.025589 -151.900414 
L 221.599464 -151.814944 
L 221.216782 -151.661828 
L 220.561039 -151.487084 
L 219.792744 -151.418891 
L 219.20056 -151.334696 
L 218.75128 -151.239773 
L 218.178664 -151.203873 
L 217.635475 -151.122173 
L 217.184494 -151.097183 
L 216.69339 -151.09634 
L 216.150391 -151.016292 
L 215.621854 -151.012519 
L 214.987665 -150.954882 
L 214.306054 -150.867079 
L 213.879873 -150.631129 
L 213.202786 -150.733407 
L 212.551432 -150.704563 
L 212.030484 -150.678587 
L 211.554328 -150.646122 
L 211.054268 -150.699957 
L 210.374959 -150.656543 
L 209.932289 -150.524465 
L 209.449597 -150.327285 
L 208.760651 -150.275513 
L 208.070274 -150.2378 
L 207.628605 -150.156144 
L 207.130477 -150.094895 
L 206.451107 -150.08969 
L 205.783693 -149.947552 
L 205.346012 -149.93494 
L 204.923973 -149.920102 
L 204.392859 -149.943233 
L 203.801284 -149.914537 
L 203.158878 -149.90225 
L 202.542315 -149.906786 
L 201.971056 -149.86421 
L 201.539657 -149.871492 
L 200.892319 -149.879482 
L 200.418786 -149.845121 
L 199.830002 -149.846023 
L 199.081679 -149.824249 
L 198.661366 -149.841248 
L 198.046776 -149.814631 
L 197.396201 -149.852061 
L 196.826465 -149.850665 
L 196.453055 -149.853153 
L 196.082275 -149.808804 
L 195.332835 -149.751523 
L 194.712864 -149.764166 
L 194.345924 -149.778696 
L 193.882417 -149.787203 
L 193.109958 -149.826507 
L 192.452692 -149.8394 
L 191.925942 -149.930483 
L 191.30945 -149.989445 
L 190.732637 -150.126328 
L 190.230719 -150.29816 
L 189.751503 -150.36449 
L 189.232113 -150.326996 
L 188.642512 -150.491682 
L 187.950998 -150.479154 
L 187.381229 -150.542195 
L 186.89852 -150.620755 
L 186.324199 -150.650056 
L 185.73188 -150.618517 
L 185.120906 -150.606201 
L 184.59345 -150.597915 
L 184.222174 -150.636026 
L 183.780885 -150.715592 
L 183.169007 -150.676666 
L 182.655504 -150.700989 
L 182.100853 -150.632005 
L 181.463593 -150.635445 
L 180.922934 -150.643645 
L 180.268944 -150.638091 
L 179.68933 -150.604975 
L 179.172587 -150.644214 
L 178.549177 -150.707471 
L 178.087923 -150.712578 
L 177.703387 -150.736427 
L 177.054496 -150.720438 
L 176.487521 -150.640904 
L 175.878067 -150.684327 
L 175.091611 -150.678624 
L 174.520859 -150.770304 
L 174.204698 -150.795103 
L 173.839541 -150.816428 
L 173.254946 -150.847496 
L 172.526423 -150.695987 
L 172.020311 -150.673223 
L 171.426378 -150.664546 
L 170.702211 -150.672811 
L 170.342391 -150.761592 
L 169.951408 -150.85548 
L 169.398134 -151.072916 
L 168.708065 -151.037929 
L 167.924089 -151.116408 
L 167.295047 -151.257553 
L 166.974537 -151.358692 
L 166.556598 -151.364722 
L 165.950157 -151.474504 
L 165.387207 -151.569765 
L 164.755393 -151.622602 
L 164.173262 -151.701017 
L 163.580193 -151.752398 
L 163.085141 -151.762525 
L 162.599449 -151.900411 
L 161.921872 -151.961411 
L 161.224235 -151.978042 
L 160.785694 -152.091292 
L 160.439958 -152.13089 
L 159.713371 -152.158535 
L 159.065059 -152.264131 
L 158.572516 -152.367642 
L 157.905486 -152.490976 
L 157.334504 -152.565591 
L 156.958585 -152.587886 
L 156.349894 -152.709417 
L 155.573059 -152.772246 
L 155.071324 -152.918462 
L 154.510923 -153.081628 
L 153.920603 -153.243494 
L 153.548986 -153.335371 
L 152.977537 -153.536279 
L 152.212355 -153.635822 
L 151.799331 -153.942634 
L 151.399668 -154.21638 
L 150.794665 -154.691489 
L 150.292223 -155.024949 
L 149.557351 -155.153437 
L 148.904398 -155.390743 
L 148.521716 -155.597141 
L 147.932407 -155.64328 
L 147.257601 -155.836121 
L 146.876013 -155.991507 
L 146.358553 -156.133686 
L 145.65067 -156.293757 
L 145.182271 -156.284931 
L 144.564811 -156.312993 
L 143.997917 -156.445217 
L 143.389329 -156.588999 
L 142.879548 -156.674676 
L 142.384629 -156.825284 
L 141.825163 -156.90158 
L 141.39147 -156.959887 
L 140.82906 -157.104108 
L 140.093877 -157.104334 
L 139.350513 -157.111197 
L 138.975411 -157.309345 
L 138.607561 -157.441749 
L 137.869066 -157.602763 
L 137.351956 -157.787707 
L 136.846231 -157.907931 
L 136.11227 -158.076022 
L 135.655103 -158.297266 
L 135.043235 -158.407363 
L 134.554248 -158.612382 
L 134.098588 -158.839253 
L 133.34271 -159.022411 
L 132.824011 -159.18882 
L 132.234657 -159.291077 
L 131.607281 -159.416761 
L 131.100403 -159.507247 
L 130.430861 -159.584291 
L 130.006335 -159.597561 
L 129.604256 -159.667729 
L 128.873438 -159.61782 
L 128.159711 -159.625898 
L 127.786115 -159.776105 
L 127.414233 -159.822429 
L 126.852745 -159.874341 
L 126.361437 -159.847788 
L 125.775288 -160.03408 
L 125.01118 -160.093482 
L 124.324329 -160.139341 
L 123.8166 -160.195397 
L 123.306556 -160.143323 
L 122.76478 -160.048043 
L 122.122101 -160.028262 
L 121.702598 -159.997516 
L 121.22657 -159.927172 
L 120.588612 -159.815283 
L 120.20323 -159.820582 
L 119.54059 -159.800108 
L 118.739474 -159.722632 
L 118.109468 -159.613966 
L 117.618151 -159.468351 
L 117.148674 -159.396569 
L 116.70828 -159.368301 
L 116.27499 -159.391535 
L 115.66685 -159.322653 
L 115.014347 -159.329352 
L 114.560975 -159.358977 
L 113.923785 -159.374298 
L 113.160422 -159.329246 
L 112.72988 -159.270504 
L 112.254491 -159.29371 
L 111.801084 -159.306979 
L 111.352813 -159.301254 
L 110.732953 -159.322543 
L 110.134488 -159.305626 
L 109.475937 -159.29513 
L 108.93945 -159.26893 
L 108.486338 -159.182994 
L 107.744874 -159.058954 
L 107.218641 -158.951162 
L 106.847501 -158.872583 
L 106.048248 -158.781291 
L 105.402377 -158.813691 
L 105.111566 -158.884283 
L 104.48436 -158.945007 
L 103.900214 -159.094225 
L 103.389305 -159.178635 
L 102.651764 -159.317966 
L 102.110373 -159.54591 
L 101.67295 -159.887091 
L 101.247454 -160.085887 
L 100.723975 -160.223892 
L 99.952116 -160.367135 
L 99.422621 -160.47591 
L 99.025889 -160.776525 
L 98.30926 -161.009571 
L 97.75354 -161.330928 
L 97.19674 -161.427177 
L 96.496902 -161.608357 
L 96.042464 -161.729442 
L 95.675883 -161.794203 
L 95.04986 -161.76143 
L 94.255848 -161.862403 
L 93.597644 -161.910392 
L 93.242088 -161.940712 
L 92.681809 -161.983578 
L 92.136633 -161.999755 
L 91.635184 -162.025051 
L 90.886685 -161.763196 
L 90.4295 -161.863362 
L 89.97327 -161.966086 
L 89.392179 -162.139436 
L 88.738508 -161.998606 
L 88.115116 -161.97719 
L 87.578823 -161.892284 
L 87.097735 -161.927844 
L 86.490414 -161.937253 
L 85.769102 -162.049061 
L 85.338268 -162.048317 
L 84.998902 -162.027025 
L 84.280381 -161.843752 
L 83.519458 -161.665691 
L 82.97598 -161.421008 
L 82.423936 -161.210894 
L 81.85665 -160.954792 
L 81.43842 -160.557852 
L 80.885459 -160.420927 
L 80.261596 -159.974407 
L 79.825703 -159.607352 
L 79.280456 -159.228818 
L 78.743862 -158.972275 
L 78.084055 -158.580272 
L 77.634877 -158.251737 
L 77.200479 -157.986014 
L 76.498636 -157.554639 
L 75.807865 -157.489302 
L 75.312916 -157.357089 
L 74.874752 -157.244955 
L 74.188547 -157.082573 
L 73.539429 -157.012911 
L 73.025893 -156.838573 
L 72.606849 -156.645092 
L 72.08339 -156.535844 
L 71.561824 -156.387431 
L 71.092733 -156.317804 
L 70.493153 -156.265566 
L 69.859367 -156.307173 
L 69.407178 -156.454778 
L 68.772068 -156.480216 
L 67.948939 -156.682443 
L 67.554489 -156.887681 
L 67.10083 -156.861949 
L 66.513381 -156.906547 
L 65.986623 -156.96677 
L 65.294305 -156.971041 
L 64.727873 -156.98648 
L 64.2989 -157.113315 
L 63.603143 -157.269434 
L 63.061556 -157.468026 
L 62.758503 -157.530132 
L 62.080757 -157.504182 
L 61.446898 -157.646561 
L 60.83088 -157.758375 
L 60.32339 -157.926093 
L 59.876024 -158.078323 
L 59.268081 -158.269186 
L 58.744284 -158.309708 
L 58.119787 -158.107054 
L 57.396344 -157.882785 
L 56.977589 -157.820063 
L 56.562918 -157.920633 
L 55.949135 -157.924429 
L 55.445821 -157.847001 
L 54.84479 -157.619992 
L 54.273854 -157.527371 
L 53.659494 -157.189332 
L 53.047882 -156.956857 
L 52.455468 -156.57504 
L 51.790406 -156.031256 
L 51.429579 -155.621303 
L 50.970884 -155.499122 
L 50.42006 -155.252956 
L 49.967307 -155.22075 
L 49.303838 -155.176476 
L 48.748787 -154.82221 
L 48.28817 -154.253714 
L 47.6581 -154.085432 
L 46.975957 -154.434248 
L 46.418423 -154.55875 
L 45.846434 -154.806759 
L 45.293179 -157.431602 
L 44.649102 -158.109678 
L 44.147151 -160.325837 
z
" style="stroke: #808080; stroke-opacity: 0.5"/>
    </defs>
    <g clip-path="url(#p6a3cc40d10)">
     <use xlink:href="#md2de1715b0" x="0" y="276.54" style="fill: #808080; fill-opacity: 0.5; stroke: #808080; stroke-opacity: 0.5"/>
    </g>
   </g>
   <g id="line2d_29">
    <path d="M 44.147151 126.384754 
L 44.649102 128.79055 
L 45.293179 128.65142 
L 45.846434 130.138552 
L 46.418423 130.200048 
L 46.975957 129.749209 
L 47.6581 129.734223 
L 48.28817 129.362193 
L 48.748787 128.324901 
L 49.303838 127.828385 
L 49.967307 127.714617 
L 51.429579 126.925959 
L 53.047882 125.316188 
L 53.659494 124.922549 
L 54.273854 124.83931 
L 54.84479 124.362802 
L 55.949135 123.825982 
L 58.119787 123.385975 
L 59.268081 123.106864 
L 62.758503 123.280061 
L 63.061556 123.187764 
L 64.727873 123.386192 
L 65.986623 123.269708 
L 67.948939 123.292125 
L 69.859367 123.535603 
L 71.092733 123.350114 
L 72.08339 123.051754 
L 75.807865 121.721233 
L 76.498636 121.60145 
L 80.261596 119.316792 
L 82.423936 118.318957 
L 84.280381 117.798805 
L 85.338268 117.615554 
L 88.115116 117.668779 
L 89.392179 117.548343 
L 90.886685 117.792507 
L 92.136633 117.58878 
L 96.042464 117.637229 
L 97.75354 117.827933 
L 99.025889 118.071191 
L 99.422621 118.30167 
L 101.247454 118.559302 
L 102.110373 119.118967 
L 102.651764 119.112222 
L 106.048248 119.614645 
L 110.732953 119.039808 
L 117.618151 118.832973 
L 118.739474 118.643128 
L 125.01118 118.389275 
L 127.786115 118.688341 
L 128.159711 118.791819 
L 130.430861 118.854501 
L 132.824011 119.174951 
L 135.655103 119.889331 
L 136.846231 120.18648 
L 138.975411 120.61292 
L 139.350513 120.760504 
L 141.39147 121.004096 
L 144.564811 121.682035 
L 146.876013 122.090466 
L 147.932407 122.395823 
L 149.557351 122.845085 
L 150.292223 123.030558 
L 151.399668 123.562037 
L 152.212355 124.159484 
L 152.977537 124.341514 
L 154.510923 125.120731 
L 155.071324 125.249029 
L 155.573059 125.607074 
L 156.958585 125.962435 
L 157.905486 126.299016 
L 160.439958 127.011078 
L 161.224235 127.26477 
L 162.599449 127.366618 
L 163.580193 127.341728 
L 169.398134 128.075574 
L 170.342391 128.328383 
L 176.487521 128.425868 
L 177.703387 128.328549 
L 179.68933 128.416452 
L 182.655504 128.389549 
L 187.950998 128.930565 
L 189.232113 129.197698 
L 191.30945 129.783692 
L 195.332835 130.385529 
L 197.396201 130.423818 
L 199.830002 130.62653 
L 201.539657 130.611458 
L 201.971056 130.732961 
L 204.923973 130.705383 
L 207.628605 130.426548 
L 208.760651 130.117926 
L 209.932289 129.886162 
L 211.054268 129.70166 
L 213.202786 129.577626 
L 213.879873 129.644813 
L 214.306054 129.425341 
L 217.184494 128.890214 
L 218.75128 128.723534 
L 225.028138 127.440806 
L 226.277039 127.156198 
L 228.809325 126.576326 
L 232.223357 126.305714 
L 232.533528 126.180171 
L 233.917648 125.894725 
L 236.409635 125.506703 
L 238.57984 125.477365 
L 238.994114 125.407931 
L 239.308901 125.47748 
L 242.430718 125.204209 
L 243.709634 124.595615 
L 246.737811 124.104209 
L 252.379324 122.73369 
L 252.732052 122.584794 
L 256.194309 121.725147 
L 260.158826 120.234701 
L 262.970375 119.15563 
L 263.926974 118.740226 
L 264.541301 118.526724 
L 265.648235 117.946429 
L 266.305269 117.640522 
L 268.145128 117.16976 
L 269.498828 116.62392 
L 270.903733 116.398154 
L 272.549889 115.513672 
L 273.030787 115.373576 
L 273.523991 115.044561 
L 275.262025 114.372261 
L 277.425344 113.439273 
L 278.497674 113.259283 
L 280.151716 112.745135 
L 281.366567 112.50588 
L 281.842103 112.327331 
L 285.079322 111.782631 
L 288.507869 111.425568 
L 289.527259 111.244803 
L 290.723205 111.139193 
L 292.938434 111.019909 
L 294.635263 111.096046 
L 295.779544 111.414218 
L 296.816121 111.694885 
L 297.954763 111.985751 
L 299.080102 112.090503 
L 299.680486 112.327991 
L 301.312053 112.583068 
L 301.806725 112.380106 
L 302.884494 112.440817 
L 305.106783 112.453218 
L 307.854179 112.461796 
L 312.127633 112.491982 
L 320.540184 112.281074 
L 322.515809 112.659284 
L 326.516329 113.174073 
L 328.096864 113.530641 
L 329.196841 113.761512 
L 330.503208 114.106557 
L 335.424394 115.000568 
L 336.684459 115.103546 
L 339.428324 115.361869 
L 340.588068 115.524905 
L 340.954636 115.66337 
L 343.225873 115.828721 
L 344.488493 115.843001 
L 349.322521 116.545933 
L 353.917804 116.831662 
L 356.955568 116.79615 
L 361.040599 116.554808 
L 361.929254 116.64758 
L 364.942039 116.672465 
L 379.65128 116.513269 
L 380.024389 116.374707 
L 380.401773 116.448383 
L 382.7697 116.386087 
L 386.784598 116.184568 
L 387.939886 116.320539 
L 390.140578 116.182514 
L 391.653186 116.035 
L 394.094223 115.657254 
L 395.713451 115.508318 
L 398.012341 115.26487 
L 399.515831 115.179908 
L 401.835404 114.904725 
L 403.030802 114.827446 
L 407.765498 114.616466 
L 409.46243 114.308388 
L 411.514769 113.992436 
L 415.873244 114.156317 
L 418.111463 114.495372 
L 419.706573 114.789001 
L 422.429243 115.14889 
L 424.184602 115.425087 
L 425.355339 115.668738 
L 433.030863 116.458254 
L 438.638937 116.571608 
L 441.359683 116.307556 
L 442.503999 116.436033 
L 445.545631 116.53692 
L 446.53714 116.528128 
L 449.284388 116.366373 
L 450.896067 116.004326 
L 452.646441 115.822681 
L 453.119508 115.673546 
L 456.568156 115.130475 
L 459.282754 114.540736 
L 460.897922 114.066948 
L 462.56634 113.652738 
L 467.624895 112.285001 
L 468.060995 112.136369 
L 473.396188 111.376613 
L 482.125516 110.459612 
L 483.169663 110.247845 
L 490.157831 109.984814 
L 490.476695 110.027455 
L 492.659214 109.7349 
L 496.046711 109.594664 
L 500.613839 109.768183 
L 503.297751 109.447709 
L 505.017258 109.221419 
L 513.61072 108.724442 
L 514.613271 108.700398 
L 516.110925 108.487943 
L 517.306055 108.568634 
L 524.099178 108.365862 
L 531.321732 108.838996 
L 533.709755 108.855148 
L 534.957675 108.647454 
L 538.440756 108.079846 
L 540.132089 107.829859 
L 547.33893 106.501841 
L 555.719223 105.275925 
L 558.075148 104.638505 
L 558.475385 104.433151 
L 560.722978 104.054512 
L 566.282376 103.626299 
L 568.096324 103.86155 
L 569.773442 104.410397 
L 570.852975 104.751936 
L 571.628012 104.902633 
L 572.579883 105.331911 
L 574.405755 105.795106 
L 579.736542 107.818257 
L 581.377442 108.195948 
L 584.838558 108.408122 
L 585.419646 108.327545 
L 586.523505 108.470568 
L 590.581982 108.713499 
L 590.926274 108.557857 
L 592.049112 108.521375 
L 594.209441 108.312185 
L 594.874673 108.347669 
L 595.380035 108.210882 
L 596.575668 107.51327 
L 597.637498 107.051073 
L 599.225722 105.553398 
L 599.723983 105.019811 
L 601.174518 103.868714 
L 601.434702 104.847364 
L 601.434702 104.847364 
" clip-path="url(#p6a3cc40d10)" style="fill: none; stroke: #1f77b4; stroke-width: 1.5; stroke-linecap: round"/>
   </g>
   <g id="patch_3">
    <path d="M 43.585938 243.549375 
L 43.585938 21.789375 
" style="fill: none; stroke: #cccccc; stroke-linejoin: miter; stroke-linecap: square"/>
   </g>
   <g id="patch_4">
    <path d="M 601.585938 243.549375 
L 601.585938 21.789375 
" style="fill: none; stroke: #cccccc; stroke-linejoin: miter; stroke-linecap: square"/>
   </g>
   <g id="patch_5">
    <path d="M 43.585938 243.549375 
L 601.585938 243.549375 
" style="fill: none; stroke: #cccccc; stroke-linejoin: miter; stroke-linecap: square"/>
   </g>
   <g id="patch_6">
    <path d="M 43.585938 21.789375 
L 601.585938 21.789375 
" style="fill: none; stroke: #cccccc; stroke-linejoin: miter; stroke-linecap: square"/>
   </g>
   <g id="text_17">
    <!-- whale hunt -->
    <g style="fill: #262626" transform="translate(293.566562 15.789375) scale(0.12 -0.12)">
     <defs>
      <path id="ArialMT-77" d="M 1034 0 
L 19 3319 
L 600 3319 
L 1128 1403 
L 1325 691 
Q 1338 744 1497 1375 
L 2025 3319 
L 2603 3319 
L 3100 1394 
L 3266 759 
L 3456 1400 
L 4025 3319 
L 4572 3319 
L 3534 0 
L 2950 0 
L 2422 1988 
L 2294 2553 
L 1622 0 
L 1034 0 
z
" transform="scale(0.015625)"/>
      <path id="ArialMT-68" d="M 422 0 
L 422 4581 
L 984 4581 
L 984 2938 
Q 1378 3394 1978 3394 
Q 2347 3394 2619 3248 
Q 2891 3103 3008 2847 
Q 3125 2591 3125 2103 
L 3125 0 
L 2563 0 
L 2563 2103 
Q 2563 2525 2380 2717 
Q 2197 2909 1863 2909 
Q 1613 2909 1392 2779 
Q 1172 2650 1078 2428 
Q 984 2206 984 1816 
L 984 0 
L 422 0 
z
" transform="scale(0.015625)"/>
      <path id="ArialMT-6c" d="M 409 0 
L 409 4581 
L 972 4581 
L 972 0 
L 409 0 
z
" transform="scale(0.015625)"/>
      <path id="ArialMT-20" transform="scale(0.015625)"/>
     </defs>
     <use xlink:href="#ArialMT-77"/>
     <use xlink:href="#ArialMT-68" transform="translate(72.216797 0)"/>
     <use xlink:href="#ArialMT-61" transform="translate(127.832031 0)"/>
     <use xlink:href="#ArialMT-6c" transform="translate(183.447266 0)"/>
     <use xlink:href="#ArialMT-65" transform="translate(205.664062 0)"/>
     <use xlink:href="#ArialMT-20" transform="translate(261.279297 0)"/>
     <use xlink:href="#ArialMT-68" transform="translate(289.0625 0)"/>
     <use xlink:href="#ArialMT-75" transform="translate(344.677734 0)"/>
     <use xlink:href="#ArialMT-6e" transform="translate(400.292969 0)"/>
     <use xlink:href="#ArialMT-74" transform="translate(455.908203 0)"/>
    </g>
   </g>
  </g>
 </g>
 <defs>
  <clipPath id="p6a3cc40d10">
   <rect x="43.585938" y="21.789375" width="558" height="221.76"/>
  </clipPath>
 </defs>
</svg>
