<?xml version="1.0" encoding="utf-8" standalone="no"?>
<!DOCTYPE svg PUBLIC "-//W3C//DTD SVG 1.1//EN"
  "http://www.w3.org/Graphics/SVG/1.1/DTD/svg11.dtd">
<svg xmlns:xlink="http://www.w3.org/1999/xlink" width="615.735937pt" height="276.657188pt" viewBox="0 0 615.735937 276.657188" xmlns="http://www.w3.org/2000/svg" version="1.1">
 <metadata>
  <rdf:RDF xmlns:dc="http://purl.org/dc/elements/1.1/" xmlns:cc="http://creativecommons.org/ns#" xmlns:rdf="http://www.w3.org/1999/02/22-rdf-syntax-ns#">
   <cc:Work>
    <dc:type rdf:resource="http://purl.org/dc/dcmitype/StillImage"/>
    <dc:date>2025-05-12T17:00:17.495005</dc:date>
    <dc:format>image/svg+xml</dc:format>
    <dc:creator>
     <cc:Agent>
      <dc:title>Matplotlib v3.10.0, https://matplotlib.org/</dc:title>
     </cc:Agent>
    </dc:creator>
   </cc:Work>
  </rdf:RDF>
 </metadata>
 <defs>
  <style type="text/css">*{stroke-linejoin: round; stroke-linecap: butt}</style>
 </defs>
 <g id="figure_1">
  <g id="patch_1">
   <path d="M -0 276.657188 
L 615.735937 276.657188 
L 615.735937 0 
L -0 0 
z
" style="fill: #ffffff"/>
  </g>
  <g id="axes_1">
   <g id="patch_2">
    <path d="M 43.585938 243.549375 
L 601.585938 243.549375 
L 601.585938 21.789375 
L 43.585938 21.789375 
z
" style="fill: #ffffff"/>
   </g>
   <g id="matplotlib.axis_1">
    <g id="xtick_1">
     <g id="line2d_1">
      <path d="M 43.585938 243.549375 
L 43.585938 21.789375 
" clip-path="url(#p08b5ab3c72)" style="fill: none; stroke: #cccccc; stroke-width: 0.8; stroke-linecap: round"/>
     </g>
     <g id="line2d_2"/>
     <g id="text_1">
      <!-- 0.0 -->
      <g style="fill: #262626" transform="translate(36.635937 254.207188) scale(0.1 -0.1)">
       <defs>
        <path id="ArialMT-30" d="M 266 2259 
Q 266 3072 433 3567 
Q 600 4063 929 4331 
Q 1259 4600 1759 4600 
Q 2128 4600 2406 4451 
Q 2684 4303 2865 4023 
Q 3047 3744 3150 3342 
Q 3253 2941 3253 2259 
Q 3253 1453 3087 958 
Q 2922 463 2592 192 
Q 2263 -78 1759 -78 
Q 1097 -78 719 397 
Q 266 969 266 2259 
z
M 844 2259 
Q 844 1131 1108 757 
Q 1372 384 1759 384 
Q 2147 384 2411 759 
Q 2675 1134 2675 2259 
Q 2675 3391 2411 3762 
Q 2147 4134 1753 4134 
Q 1366 4134 1134 3806 
Q 844 3388 844 2259 
z
" transform="scale(0.015625)"/>
        <path id="ArialMT-2e" d="M 581 0 
L 581 641 
L 1222 641 
L 1222 0 
L 581 0 
z
" transform="scale(0.015625)"/>
       </defs>
       <use xlink:href="#ArialMT-30"/>
       <use xlink:href="#ArialMT-2e" transform="translate(55.615234 0)"/>
       <use xlink:href="#ArialMT-30" transform="translate(83.398438 0)"/>
      </g>
     </g>
    </g>
    <g id="xtick_2">
     <g id="line2d_3">
      <path d="M 155.185938 243.549375 
L 155.185938 21.789375 
" clip-path="url(#p08b5ab3c72)" style="fill: none; stroke: #cccccc; stroke-width: 0.8; stroke-linecap: round"/>
     </g>
     <g id="line2d_4"/>
     <g id="text_2">
      <!-- 0.2 -->
      <g style="fill: #262626" transform="translate(148.235938 254.207188) scale(0.1 -0.1)">
       <defs>
        <path id="ArialMT-32" d="M 3222 541 
L 3222 0 
L 194 0 
Q 188 203 259 391 
Q 375 700 629 1000 
Q 884 1300 1366 1694 
Q 2113 2306 2375 2664 
Q 2638 3022 2638 3341 
Q 2638 3675 2398 3904 
Q 2159 4134 1775 4134 
Q 1369 4134 1125 3890 
Q 881 3647 878 3216 
L 300 3275 
Q 359 3922 746 4261 
Q 1134 4600 1788 4600 
Q 2447 4600 2831 4234 
Q 3216 3869 3216 3328 
Q 3216 3053 3103 2787 
Q 2991 2522 2730 2228 
Q 2469 1934 1863 1422 
Q 1356 997 1212 845 
Q 1069 694 975 541 
L 3222 541 
z
" transform="scale(0.015625)"/>
       </defs>
       <use xlink:href="#ArialMT-30"/>
       <use xlink:href="#ArialMT-2e" transform="translate(55.615234 0)"/>
       <use xlink:href="#ArialMT-32" transform="translate(83.398438 0)"/>
      </g>
     </g>
    </g>
    <g id="xtick_3">
     <g id="line2d_5">
      <path d="M 266.785938 243.549375 
L 266.785938 21.789375 
" clip-path="url(#p08b5ab3c72)" style="fill: none; stroke: #cccccc; stroke-width: 0.8; stroke-linecap: round"/>
     </g>
     <g id="line2d_6"/>
     <g id="text_3">
      <!-- 0.4 -->
      <g style="fill: #262626" transform="translate(259.835938 254.207188) scale(0.1 -0.1)">
       <defs>
        <path id="ArialMT-34" d="M 2069 0 
L 2069 1097 
L 81 1097 
L 81 1613 
L 2172 4581 
L 2631 4581 
L 2631 1613 
L 3250 1613 
L 3250 1097 
L 2631 1097 
L 2631 0 
L 2069 0 
z
M 2069 1613 
L 2069 3678 
L 634 1613 
L 2069 1613 
z
" transform="scale(0.015625)"/>
       </defs>
       <use xlink:href="#ArialMT-30"/>
       <use xlink:href="#ArialMT-2e" transform="translate(55.615234 0)"/>
       <use xlink:href="#ArialMT-34" transform="translate(83.398438 0)"/>
      </g>
     </g>
    </g>
    <g id="xtick_4">
     <g id="line2d_7">
      <path d="M 378.385938 243.549375 
L 378.385938 21.789375 
" clip-path="url(#p08b5ab3c72)" style="fill: none; stroke: #cccccc; stroke-width: 0.8; stroke-linecap: round"/>
     </g>
     <g id="line2d_8"/>
     <g id="text_4">
      <!-- 0.6 -->
      <g style="fill: #262626" transform="translate(371.435938 254.207188) scale(0.1 -0.1)">
       <defs>
        <path id="ArialMT-36" d="M 3184 3459 
L 2625 3416 
Q 2550 3747 2413 3897 
Q 2184 4138 1850 4138 
Q 1581 4138 1378 3988 
Q 1113 3794 959 3422 
Q 806 3050 800 2363 
Q 1003 2672 1297 2822 
Q 1591 2972 1913 2972 
Q 2475 2972 2870 2558 
Q 3266 2144 3266 1488 
Q 3266 1056 3080 686 
Q 2894 316 2569 119 
Q 2244 -78 1831 -78 
Q 1128 -78 684 439 
Q 241 956 241 2144 
Q 241 3472 731 4075 
Q 1159 4600 1884 4600 
Q 2425 4600 2770 4297 
Q 3116 3994 3184 3459 
z
M 888 1484 
Q 888 1194 1011 928 
Q 1134 663 1356 523 
Q 1578 384 1822 384 
Q 2178 384 2434 671 
Q 2691 959 2691 1453 
Q 2691 1928 2437 2201 
Q 2184 2475 1800 2475 
Q 1419 2475 1153 2201 
Q 888 1928 888 1484 
z
" transform="scale(0.015625)"/>
       </defs>
       <use xlink:href="#ArialMT-30"/>
       <use xlink:href="#ArialMT-2e" transform="translate(55.615234 0)"/>
       <use xlink:href="#ArialMT-36" transform="translate(83.398438 0)"/>
      </g>
     </g>
    </g>
    <g id="xtick_5">
     <g id="line2d_9">
      <path d="M 489.985938 243.549375 
L 489.985938 21.789375 
" clip-path="url(#p08b5ab3c72)" style="fill: none; stroke: #cccccc; stroke-width: 0.8; stroke-linecap: round"/>
     </g>
     <g id="line2d_10"/>
     <g id="text_5">
      <!-- 0.8 -->
      <g style="fill: #262626" transform="translate(483.035938 254.207188) scale(0.1 -0.1)">
       <defs>
        <path id="ArialMT-38" d="M 1131 2484 
Q 781 2613 612 2850 
Q 444 3088 444 3419 
Q 444 3919 803 4259 
Q 1163 4600 1759 4600 
Q 2359 4600 2725 4251 
Q 3091 3903 3091 3403 
Q 3091 3084 2923 2848 
Q 2756 2613 2416 2484 
Q 2838 2347 3058 2040 
Q 3278 1734 3278 1309 
Q 3278 722 2862 322 
Q 2447 -78 1769 -78 
Q 1091 -78 675 323 
Q 259 725 259 1325 
Q 259 1772 486 2073 
Q 713 2375 1131 2484 
z
M 1019 3438 
Q 1019 3113 1228 2906 
Q 1438 2700 1772 2700 
Q 2097 2700 2305 2904 
Q 2513 3109 2513 3406 
Q 2513 3716 2298 3927 
Q 2084 4138 1766 4138 
Q 1444 4138 1231 3931 
Q 1019 3725 1019 3438 
z
M 838 1322 
Q 838 1081 952 856 
Q 1066 631 1291 507 
Q 1516 384 1775 384 
Q 2178 384 2440 643 
Q 2703 903 2703 1303 
Q 2703 1709 2433 1975 
Q 2163 2241 1756 2241 
Q 1359 2241 1098 1978 
Q 838 1716 838 1322 
z
" transform="scale(0.015625)"/>
       </defs>
       <use xlink:href="#ArialMT-30"/>
       <use xlink:href="#ArialMT-2e" transform="translate(55.615234 0)"/>
       <use xlink:href="#ArialMT-38" transform="translate(83.398438 0)"/>
      </g>
     </g>
    </g>
    <g id="xtick_6">
     <g id="line2d_11">
      <path d="M 601.585938 243.549375 
L 601.585938 21.789375 
" clip-path="url(#p08b5ab3c72)" style="fill: none; stroke: #cccccc; stroke-width: 0.8; stroke-linecap: round"/>
     </g>
     <g id="line2d_12"/>
     <g id="text_6">
      <!-- 1.0 -->
      <g style="fill: #262626" transform="translate(594.635937 254.207188) scale(0.1 -0.1)">
       <defs>
        <path id="ArialMT-31" d="M 2384 0 
L 1822 0 
L 1822 3584 
Q 1619 3391 1289 3197 
Q 959 3003 697 2906 
L 697 3450 
Q 1169 3672 1522 3987 
Q 1875 4303 2022 4600 
L 2384 4600 
L 2384 0 
z
" transform="scale(0.015625)"/>
       </defs>
       <use xlink:href="#ArialMT-31"/>
       <use xlink:href="#ArialMT-2e" transform="translate(55.615234 0)"/>
       <use xlink:href="#ArialMT-30" transform="translate(83.398438 0)"/>
      </g>
     </g>
    </g>
    <g id="text_7">
     <!-- mu-logistic-whaling-success -->
     <g style="fill: #262626" transform="translate(260.347656 267.3525) scale(0.1 -0.1)">
      <defs>
       <path id="ArialMT-6d" d="M 422 0 
L 422 3319 
L 925 3319 
L 925 2853 
Q 1081 3097 1340 3245 
Q 1600 3394 1931 3394 
Q 2300 3394 2536 3241 
Q 2772 3088 2869 2813 
Q 3263 3394 3894 3394 
Q 4388 3394 4653 3120 
Q 4919 2847 4919 2278 
L 4919 0 
L 4359 0 
L 4359 2091 
Q 4359 2428 4304 2576 
Q 4250 2725 4106 2815 
Q 3963 2906 3769 2906 
Q 3419 2906 3187 2673 
Q 2956 2441 2956 1928 
L 2956 0 
L 2394 0 
L 2394 2156 
Q 2394 2531 2256 2718 
Q 2119 2906 1806 2906 
Q 1569 2906 1367 2781 
Q 1166 2656 1075 2415 
Q 984 2175 984 1722 
L 984 0 
L 422 0 
z
" transform="scale(0.015625)"/>
       <path id="ArialMT-75" d="M 2597 0 
L 2597 488 
Q 2209 -75 1544 -75 
Q 1250 -75 995 37 
Q 741 150 617 320 
Q 494 491 444 738 
Q 409 903 409 1263 
L 409 3319 
L 972 3319 
L 972 1478 
Q 972 1038 1006 884 
Q 1059 663 1231 536 
Q 1403 409 1656 409 
Q 1909 409 2131 539 
Q 2353 669 2445 892 
Q 2538 1116 2538 1541 
L 2538 3319 
L 3100 3319 
L 3100 0 
L 2597 0 
z
" transform="scale(0.015625)"/>
       <path id="ArialMT-2d" d="M 203 1375 
L 203 1941 
L 1931 1941 
L 1931 1375 
L 203 1375 
z
" transform="scale(0.015625)"/>
       <path id="ArialMT-6c" d="M 409 0 
L 409 4581 
L 972 4581 
L 972 0 
L 409 0 
z
" transform="scale(0.015625)"/>
       <path id="ArialMT-6f" d="M 213 1659 
Q 213 2581 725 3025 
Q 1153 3394 1769 3394 
Q 2453 3394 2887 2945 
Q 3322 2497 3322 1706 
Q 3322 1066 3130 698 
Q 2938 331 2570 128 
Q 2203 -75 1769 -75 
Q 1072 -75 642 372 
Q 213 819 213 1659 
z
M 791 1659 
Q 791 1022 1069 705 
Q 1347 388 1769 388 
Q 2188 388 2466 706 
Q 2744 1025 2744 1678 
Q 2744 2294 2464 2611 
Q 2184 2928 1769 2928 
Q 1347 2928 1069 2612 
Q 791 2297 791 1659 
z
" transform="scale(0.015625)"/>
       <path id="ArialMT-67" d="M 319 -275 
L 866 -356 
Q 900 -609 1056 -725 
Q 1266 -881 1628 -881 
Q 2019 -881 2231 -725 
Q 2444 -569 2519 -288 
Q 2563 -116 2559 434 
Q 2191 0 1641 0 
Q 956 0 581 494 
Q 206 988 206 1678 
Q 206 2153 378 2554 
Q 550 2956 876 3175 
Q 1203 3394 1644 3394 
Q 2231 3394 2613 2919 
L 2613 3319 
L 3131 3319 
L 3131 450 
Q 3131 -325 2973 -648 
Q 2816 -972 2473 -1159 
Q 2131 -1347 1631 -1347 
Q 1038 -1347 672 -1080 
Q 306 -813 319 -275 
z
M 784 1719 
Q 784 1066 1043 766 
Q 1303 466 1694 466 
Q 2081 466 2343 764 
Q 2606 1063 2606 1700 
Q 2606 2309 2336 2618 
Q 2066 2928 1684 2928 
Q 1309 2928 1046 2623 
Q 784 2319 784 1719 
z
" transform="scale(0.015625)"/>
       <path id="ArialMT-69" d="M 425 3934 
L 425 4581 
L 988 4581 
L 988 3934 
L 425 3934 
z
M 425 0 
L 425 3319 
L 988 3319 
L 988 0 
L 425 0 
z
" transform="scale(0.015625)"/>
       <path id="ArialMT-73" d="M 197 991 
L 753 1078 
Q 800 744 1014 566 
Q 1228 388 1613 388 
Q 2000 388 2187 545 
Q 2375 703 2375 916 
Q 2375 1106 2209 1216 
Q 2094 1291 1634 1406 
Q 1016 1563 777 1677 
Q 538 1791 414 1992 
Q 291 2194 291 2438 
Q 291 2659 392 2848 
Q 494 3038 669 3163 
Q 800 3259 1026 3326 
Q 1253 3394 1513 3394 
Q 1903 3394 2198 3281 
Q 2494 3169 2634 2976 
Q 2775 2784 2828 2463 
L 2278 2388 
Q 2241 2644 2061 2787 
Q 1881 2931 1553 2931 
Q 1166 2931 1000 2803 
Q 834 2675 834 2503 
Q 834 2394 903 2306 
Q 972 2216 1119 2156 
Q 1203 2125 1616 2013 
Q 2213 1853 2448 1751 
Q 2684 1650 2818 1456 
Q 2953 1263 2953 975 
Q 2953 694 2789 445 
Q 2625 197 2315 61 
Q 2006 -75 1616 -75 
Q 969 -75 630 194 
Q 291 463 197 991 
z
" transform="scale(0.015625)"/>
       <path id="ArialMT-74" d="M 1650 503 
L 1731 6 
Q 1494 -44 1306 -44 
Q 1000 -44 831 53 
Q 663 150 594 308 
Q 525 466 525 972 
L 525 2881 
L 113 2881 
L 113 3319 
L 525 3319 
L 525 4141 
L 1084 4478 
L 1084 3319 
L 1650 3319 
L 1650 2881 
L 1084 2881 
L 1084 941 
Q 1084 700 1114 631 
Q 1144 563 1211 522 
Q 1278 481 1403 481 
Q 1497 481 1650 503 
z
" transform="scale(0.015625)"/>
       <path id="ArialMT-63" d="M 2588 1216 
L 3141 1144 
Q 3050 572 2676 248 
Q 2303 -75 1759 -75 
Q 1078 -75 664 370 
Q 250 816 250 1647 
Q 250 2184 428 2587 
Q 606 2991 970 3192 
Q 1334 3394 1763 3394 
Q 2303 3394 2647 3120 
Q 2991 2847 3088 2344 
L 2541 2259 
Q 2463 2594 2264 2762 
Q 2066 2931 1784 2931 
Q 1359 2931 1093 2626 
Q 828 2322 828 1663 
Q 828 994 1084 691 
Q 1341 388 1753 388 
Q 2084 388 2306 591 
Q 2528 794 2588 1216 
z
" transform="scale(0.015625)"/>
       <path id="ArialMT-77" d="M 1034 0 
L 19 3319 
L 600 3319 
L 1128 1403 
L 1325 691 
Q 1338 744 1497 1375 
L 2025 3319 
L 2603 3319 
L 3100 1394 
L 3266 759 
L 3456 1400 
L 4025 3319 
L 4572 3319 
L 3534 0 
L 2950 0 
L 2422 1988 
L 2294 2553 
L 1622 0 
L 1034 0 
z
" transform="scale(0.015625)"/>
       <path id="ArialMT-68" d="M 422 0 
L 422 4581 
L 984 4581 
L 984 2938 
Q 1378 3394 1978 3394 
Q 2347 3394 2619 3248 
Q 2891 3103 3008 2847 
Q 3125 2591 3125 2103 
L 3125 0 
L 2563 0 
L 2563 2103 
Q 2563 2525 2380 2717 
Q 2197 2909 1863 2909 
Q 1613 2909 1392 2779 
Q 1172 2650 1078 2428 
Q 984 2206 984 1816 
L 984 0 
L 422 0 
z
" transform="scale(0.015625)"/>
       <path id="ArialMT-61" d="M 2588 409 
Q 2275 144 1986 34 
Q 1697 -75 1366 -75 
Q 819 -75 525 192 
Q 231 459 231 875 
Q 231 1119 342 1320 
Q 453 1522 633 1644 
Q 813 1766 1038 1828 
Q 1203 1872 1538 1913 
Q 2219 1994 2541 2106 
Q 2544 2222 2544 2253 
Q 2544 2597 2384 2738 
Q 2169 2928 1744 2928 
Q 1347 2928 1158 2789 
Q 969 2650 878 2297 
L 328 2372 
Q 403 2725 575 2942 
Q 747 3159 1072 3276 
Q 1397 3394 1825 3394 
Q 2250 3394 2515 3294 
Q 2781 3194 2906 3042 
Q 3031 2891 3081 2659 
Q 3109 2516 3109 2141 
L 3109 1391 
Q 3109 606 3145 398 
Q 3181 191 3288 0 
L 2700 0 
Q 2613 175 2588 409 
z
M 2541 1666 
Q 2234 1541 1622 1453 
Q 1275 1403 1131 1340 
Q 988 1278 909 1158 
Q 831 1038 831 891 
Q 831 666 1001 516 
Q 1172 366 1500 366 
Q 1825 366 2078 508 
Q 2331 650 2450 897 
Q 2541 1088 2541 1459 
L 2541 1666 
z
" transform="scale(0.015625)"/>
       <path id="ArialMT-6e" d="M 422 0 
L 422 3319 
L 928 3319 
L 928 2847 
Q 1294 3394 1984 3394 
Q 2284 3394 2536 3286 
Q 2788 3178 2913 3003 
Q 3038 2828 3088 2588 
Q 3119 2431 3119 2041 
L 3119 0 
L 2556 0 
L 2556 2019 
Q 2556 2363 2490 2533 
Q 2425 2703 2258 2804 
Q 2091 2906 1866 2906 
Q 1506 2906 1245 2678 
Q 984 2450 984 1813 
L 984 0 
L 422 0 
z
" transform="scale(0.015625)"/>
       <path id="ArialMT-65" d="M 2694 1069 
L 3275 997 
Q 3138 488 2766 206 
Q 2394 -75 1816 -75 
Q 1088 -75 661 373 
Q 234 822 234 1631 
Q 234 2469 665 2931 
Q 1097 3394 1784 3394 
Q 2450 3394 2872 2941 
Q 3294 2488 3294 1666 
Q 3294 1616 3291 1516 
L 816 1516 
Q 847 969 1125 678 
Q 1403 388 1819 388 
Q 2128 388 2347 550 
Q 2566 713 2694 1069 
z
M 847 1978 
L 2700 1978 
Q 2663 2397 2488 2606 
Q 2219 2931 1791 2931 
Q 1403 2931 1139 2672 
Q 875 2413 847 1978 
z
" transform="scale(0.015625)"/>
      </defs>
      <use xlink:href="#ArialMT-6d"/>
      <use xlink:href="#ArialMT-75" transform="translate(83.300781 0)"/>
      <use xlink:href="#ArialMT-2d" transform="translate(138.916016 0)"/>
      <use xlink:href="#ArialMT-6c" transform="translate(172.216797 0)"/>
      <use xlink:href="#ArialMT-6f" transform="translate(194.433594 0)"/>
      <use xlink:href="#ArialMT-67" transform="translate(250.048828 0)"/>
      <use xlink:href="#ArialMT-69" transform="translate(305.664062 0)"/>
      <use xlink:href="#ArialMT-73" transform="translate(327.880859 0)"/>
      <use xlink:href="#ArialMT-74" transform="translate(377.880859 0)"/>
      <use xlink:href="#ArialMT-69" transform="translate(405.664062 0)"/>
      <use xlink:href="#ArialMT-63" transform="translate(427.880859 0)"/>
      <use xlink:href="#ArialMT-2d" transform="translate(477.880859 0)"/>
      <use xlink:href="#ArialMT-77" transform="translate(511.181641 0)"/>
      <use xlink:href="#ArialMT-68" transform="translate(583.398438 0)"/>
      <use xlink:href="#ArialMT-61" transform="translate(639.013672 0)"/>
      <use xlink:href="#ArialMT-6c" transform="translate(694.628906 0)"/>
      <use xlink:href="#ArialMT-69" transform="translate(716.845703 0)"/>
      <use xlink:href="#ArialMT-6e" transform="translate(739.0625 0)"/>
      <use xlink:href="#ArialMT-67" transform="translate(794.677734 0)"/>
      <use xlink:href="#ArialMT-2d" transform="translate(850.292969 0)"/>
      <use xlink:href="#ArialMT-73" transform="translate(883.59375 0)"/>
      <use xlink:href="#ArialMT-75" transform="translate(933.59375 0)"/>
      <use xlink:href="#ArialMT-63" transform="translate(989.208984 0)"/>
      <use xlink:href="#ArialMT-63" transform="translate(1039.208984 0)"/>
      <use xlink:href="#ArialMT-65" transform="translate(1089.208984 0)"/>
      <use xlink:href="#ArialMT-73" transform="translate(1144.824219 0)"/>
      <use xlink:href="#ArialMT-73" transform="translate(1194.824219 0)"/>
     </g>
    </g>
   </g>
   <g id="matplotlib.axis_2">
    <g id="ytick_1">
     <g id="line2d_13">
      <path d="M 43.585938 232.461375 
L 601.585938 232.461375 
" clip-path="url(#p08b5ab3c72)" style="fill: none; stroke: #cccccc; stroke-width: 0.8; stroke-linecap: round"/>
     </g>
     <g id="line2d_14"/>
     <g id="text_8">
      <!-- −0.4 -->
      <g style="fill: #262626" transform="translate(20.345312 236.040281) scale(0.1 -0.1)">
       <defs>
        <path id="ArialMT-2212" d="M 3381 1997 
L 356 1997 
L 356 2522 
L 3381 2522 
L 3381 1997 
z
" transform="scale(0.015625)"/>
       </defs>
       <use xlink:href="#ArialMT-2212"/>
       <use xlink:href="#ArialMT-30" transform="translate(58.398438 0)"/>
       <use xlink:href="#ArialMT-2e" transform="translate(114.013672 0)"/>
       <use xlink:href="#ArialMT-34" transform="translate(141.796875 0)"/>
      </g>
     </g>
    </g>
    <g id="ytick_2">
     <g id="line2d_15">
      <path d="M 43.585938 188.109375 
L 601.585938 188.109375 
" clip-path="url(#p08b5ab3c72)" style="fill: none; stroke: #cccccc; stroke-width: 0.8; stroke-linecap: round"/>
     </g>
     <g id="line2d_16"/>
     <g id="text_9">
      <!-- −0.2 -->
      <g style="fill: #262626" transform="translate(20.345312 191.688281) scale(0.1 -0.1)">
       <use xlink:href="#ArialMT-2212"/>
       <use xlink:href="#ArialMT-30" transform="translate(58.398438 0)"/>
       <use xlink:href="#ArialMT-2e" transform="translate(114.013672 0)"/>
       <use xlink:href="#ArialMT-32" transform="translate(141.796875 0)"/>
      </g>
     </g>
    </g>
    <g id="ytick_3">
     <g id="line2d_17">
      <path d="M 43.585938 143.757375 
L 601.585938 143.757375 
" clip-path="url(#p08b5ab3c72)" style="fill: none; stroke: #cccccc; stroke-width: 0.8; stroke-linecap: round"/>
     </g>
     <g id="line2d_18"/>
     <g id="text_10">
      <!-- 0.0 -->
      <g style="fill: #262626" transform="translate(26.185938 147.336281) scale(0.1 -0.1)">
       <use xlink:href="#ArialMT-30"/>
       <use xlink:href="#ArialMT-2e" transform="translate(55.615234 0)"/>
       <use xlink:href="#ArialMT-30" transform="translate(83.398438 0)"/>
      </g>
     </g>
    </g>
    <g id="ytick_4">
     <g id="line2d_19">
      <path d="M 43.585938 99.405375 
L 601.585938 99.405375 
" clip-path="url(#p08b5ab3c72)" style="fill: none; stroke: #cccccc; stroke-width: 0.8; stroke-linecap: round"/>
     </g>
     <g id="line2d_20"/>
     <g id="text_11">
      <!-- 0.2 -->
      <g style="fill: #262626" transform="translate(26.185938 102.984281) scale(0.1 -0.1)">
       <use xlink:href="#ArialMT-30"/>
       <use xlink:href="#ArialMT-2e" transform="translate(55.615234 0)"/>
       <use xlink:href="#ArialMT-32" transform="translate(83.398438 0)"/>
      </g>
     </g>
    </g>
    <g id="ytick_5">
     <g id="line2d_21">
      <path d="M 43.585938 55.053375 
L 601.585938 55.053375 
" clip-path="url(#p08b5ab3c72)" style="fill: none; stroke: #cccccc; stroke-width: 0.8; stroke-linecap: round"/>
     </g>
     <g id="line2d_22"/>
     <g id="text_12">
      <!-- 0.4 -->
      <g style="fill: #262626" transform="translate(26.185938 58.632281) scale(0.1 -0.1)">
       <use xlink:href="#ArialMT-30"/>
       <use xlink:href="#ArialMT-2e" transform="translate(55.615234 0)"/>
       <use xlink:href="#ArialMT-34" transform="translate(83.398438 0)"/>
      </g>
     </g>
    </g>
    <g id="text_13">
     <!-- score -->
     <g style="fill: #262626" transform="translate(14.357812 144.895156) rotate(-90) scale(0.1 -0.1)">
      <defs>
       <path id="ArialMT-72" d="M 416 0 
L 416 3319 
L 922 3319 
L 922 2816 
Q 1116 3169 1280 3281 
Q 1444 3394 1641 3394 
Q 1925 3394 2219 3213 
L 2025 2691 
Q 1819 2813 1613 2813 
Q 1428 2813 1281 2702 
Q 1134 2591 1072 2394 
Q 978 2094 978 1738 
L 978 0 
L 416 0 
z
" transform="scale(0.015625)"/>
      </defs>
      <use xlink:href="#ArialMT-73"/>
      <use xlink:href="#ArialMT-63" transform="translate(50 0)"/>
      <use xlink:href="#ArialMT-6f" transform="translate(100 0)"/>
      <use xlink:href="#ArialMT-72" transform="translate(155.615234 0)"/>
      <use xlink:href="#ArialMT-65" transform="translate(188.916016 0)"/>
     </g>
    </g>
   </g>
   <g id="FillBetweenPolyCollection_1">
    <path d="M 44.227615 120.560125 
L 44.227615 132.917556 
L 45.359537 133.414699 
L 46.398053 133.340036 
L 47.211708 133.949588 
L 48.082252 134.36443 
L 48.799881 134.912623 
L 49.516404 135.743442 
L 50.391299 136.856062 
L 51.260518 137.664284 
L 51.82572 137.989386 
L 52.517462 138.148366 
L 53.589293 138.192519 
L 54.375771 138.333919 
L 55.052367 138.443639 
L 55.815548 138.542088 
L 56.951037 138.845162 
L 57.783161 138.96994 
L 58.485143 139.047828 
L 59.724626 139.273247 
L 60.60565 139.470585 
L 61.14291 139.621367 
L 62.026982 139.649629 
L 62.999146 139.33789 
L 63.695098 139.126308 
L 64.498402 138.951838 
L 65.229587 138.828041 
L 66.243024 138.760531 
L 67.340034 138.682375 
L 67.921458 138.603369 
L 68.433147 138.448677 
L 69.234586 138.395469 
L 70.074316 138.619498 
L 70.951539 138.77063 
L 71.990551 138.944483 
L 72.880596 139.108125 
L 73.659334 138.943053 
L 74.659111 138.862024 
L 75.447128 138.801829 
L 76.346636 138.584338 
L 77.159086 138.585261 
L 77.874365 138.58245 
L 78.665803 138.37794 
L 79.468235 138.559 
L 80.642065 138.415831 
L 81.488315 138.327968 
L 82.346291 138.230298 
L 83.171712 138.225225 
L 83.765206 138.124611 
L 84.679586 138.021406 
L 85.400074 138.047524 
L 86.124605 137.820217 
L 86.960312 137.557623 
L 87.627032 137.362087 
L 88.716543 137.14825 
L 89.866652 136.950352 
L 90.63132 136.772762 
L 91.288183 136.595271 
L 92.141822 136.444789 
L 93.083114 136.297302 
L 93.929525 136.224094 
L 94.584977 136.14821 
L 95.304524 135.919817 
L 96.309679 135.844875 
L 97.1467 135.668916 
L 97.861292 135.510664 
L 98.599586 135.456806 
L 99.338919 135.360102 
L 100.374963 135.225524 
L 101.575298 135.157164 
L 102.341847 135.036652 
L 102.833196 134.959512 
L 103.902852 134.876891 
L 104.876018 134.800426 
L 105.662817 134.650243 
L 106.476722 134.625125 
L 106.977296 134.575634 
L 107.942084 134.508878 
L 108.858176 134.419311 
L 109.465573 134.320267 
L 110.295452 134.211894 
L 111.13743 134.103076 
L 112.111848 133.996357 
L 112.961451 133.955379 
L 113.60206 133.898139 
L 114.417897 133.869119 
L 115.403734 133.840097 
L 116.412072 133.814774 
L 117.100612 133.722981 
L 117.691519 133.653813 
L 118.512381 133.582143 
L 119.651597 133.514906 
L 120.550982 133.448714 
L 121.342256 133.365506 
L 122.386895 133.141205 
L 123.265339 133.097572 
L 123.905512 133.037876 
L 124.61663 132.9192 
L 125.50097 132.766342 
L 126.285799 132.749007 
L 127.184322 132.813602 
L 128.072539 132.84119 
L 129.087957 132.882934 
L 129.859809 132.998367 
L 130.517284 133.09802 
L 131.588365 133.212132 
L 132.302111 133.379383 
L 133.089289 133.541238 
L 133.922248 133.626228 
L 134.784696 133.714841 
L 135.937428 133.834397 
L 136.790365 134.010541 
L 137.621304 134.006984 
L 138.480682 134.173077 
L 139.144456 134.279736 
L 139.780468 134.380653 
L 140.699049 134.41881 
L 141.541309 134.516059 
L 142.319889 134.553655 
L 143.19137 134.52958 
L 144.048376 134.574523 
L 145.110252 134.62761 
L 146.090453 134.723453 
L 146.810101 134.761665 
L 147.561009 134.770924 
L 148.285094 134.831634 
L 148.850478 134.869664 
L 149.819785 134.896591 
L 150.874041 135.064057 
L 151.607135 135.206904 
L 152.485716 135.327039 
L 153.270839 135.559972 
L 154.143578 135.725724 
L 155.011178 135.909565 
L 155.831056 136.020784 
L 156.628141 136.141786 
L 157.163927 136.232275 
L 158.199709 136.343427 
L 159.250419 136.515477 
L 159.943609 136.62448 
L 160.826221 136.691668 
L 161.761163 136.828667 
L 162.39667 136.947714 
L 163.118966 137.090762 
L 164.045617 137.19359 
L 164.939563 137.326967 
L 165.650657 137.454318 
L 166.653754 137.604779 
L 167.622529 137.732117 
L 168.426306 137.881858 
L 169.264155 138.036351 
L 169.82372 138.271812 
L 170.666874 138.605562 
L 171.781716 138.760423 
L 172.782832 139.062831 
L 173.351872 139.29905 
L 174.097904 139.613837 
L 174.982295 139.861212 
L 175.598654 140.128805 
L 176.557838 140.469923 
L 177.774965 140.834592 
L 178.363408 141.323856 
L 178.939148 141.683378 
L 179.936795 141.971028 
L 180.883107 142.176245 
L 181.831006 142.491458 
L 182.44174 142.618562 
L 183.170032 142.703055 
L 184.150102 142.90538 
L 185.166587 143.124419 
L 186.197159 143.309621 
L 186.680062 143.458268 
L 187.572016 143.695847 
L 188.388427 143.864176 
L 189.22386 143.861849 
L 190.278102 143.880763 
L 190.926482 143.77527 
L 191.584875 143.839919 
L 192.302741 143.849991 
L 193.319826 143.781984 
L 194.29874 143.745247 
L 195.183411 143.649249 
L 195.794867 143.700603 
L 196.758666 143.749946 
L 197.731419 143.571763 
L 198.335913 143.60027 
L 199.389821 143.576431 
L 200.252429 143.531537 
L 201.113067 143.475431 
L 201.937875 143.397725 
L 202.455952 143.277699 
L 203.518562 143.4582 
L 204.350292 143.994113 
L 204.824494 144.24665 
L 205.620227 144.476545 
L 206.824529 144.70026 
L 207.642943 144.942078 
L 208.322449 144.982788 
L 209.314045 144.966311 
L 210.077638 145.064237 
L 210.803324 145.214467 
L 211.467193 145.413657 
L 212.460944 145.497791 
L 213.542808 145.660353 
L 214.489279 145.676108 
L 215.478256 145.715382 
L 216.092673 145.791684 
L 216.719659 145.866921 
L 217.67307 146.071619 
L 218.631978 146.156621 
L 219.666096 146.300662 
L 220.424382 146.340072 
L 221.208855 146.543458 
L 221.880102 146.615757 
L 222.416227 146.586219 
L 223.246935 146.633139 
L 224.055584 146.658541 
L 225.140411 146.695763 
L 226.277397 146.700346 
L 227.052173 146.517307 
L 227.646675 146.486051 
L 228.517369 146.480472 
L 229.323144 146.341725 
L 230.0706 146.290879 
L 230.948752 146.194903 
L 231.957569 146.08163 
L 232.776258 146.038578 
L 233.633492 145.952804 
L 234.620077 145.803271 
L 235.45988 145.70167 
L 236.309667 145.649388 
L 236.970833 145.630296 
L 237.840571 145.606027 
L 238.884007 145.574014 
L 239.719105 145.530378 
L 240.292472 145.501488 
L 241.003899 145.540011 
L 241.884111 145.568665 
L 242.843961 145.578706 
L 243.867645 145.577697 
L 244.795154 145.488375 
L 245.574298 145.429372 
L 246.083312 145.340366 
L 246.803639 145.346016 
L 247.887525 145.376918 
L 248.797905 145.406186 
L 249.595916 145.31799 
L 250.568355 145.234837 
L 251.545605 145.187354 
L 252.322673 145.084891 
L 253.168553 144.973137 
L 254.040196 144.931434 
L 254.8878 144.949757 
L 255.477162 144.982628 
L 256.04963 144.96262 
L 256.833793 144.951482 
L 257.598897 144.811555 
L 258.614258 144.768404 
L 259.553193 144.805521 
L 260.224073 144.731491 
L 261.156552 144.773353 
L 262.07848 144.628684 
L 262.865642 144.616394 
L 263.88397 144.81139 
L 264.827693 144.827212 
L 265.328927 144.855105 
L 266.217809 144.861036 
L 267.211246 144.85469 
L 267.864107 144.779736 
L 268.745543 144.767498 
L 269.688459 144.879213 
L 270.481548 144.933252 
L 271.13013 145.118954 
L 271.8151 145.183127 
L 272.790688 145.243554 
L 273.598973 145.329137 
L 274.33418 145.494306 
L 275.314815 145.642048 
L 276.26664 145.714366 
L 277.181914 145.80113 
L 277.972697 146.031956 
L 278.807675 146.183696 
L 279.583849 146.362736 
L 280.420209 146.629596 
L 281.244529 146.811737 
L 281.855052 147.056017 
L 282.935573 147.254514 
L 284.044139 147.420364 
L 284.722551 147.54582 
L 285.505421 147.69271 
L 286.306934 147.799559 
L 286.924579 147.90781 
L 287.879582 148.047263 
L 289.09543 148.119611 
L 289.770374 148.194584 
L 290.546139 148.313591 
L 291.440389 148.38342 
L 292.145023 148.409966 
L 292.782236 148.473362 
L 293.728538 148.45357 
L 294.981118 148.458214 
L 295.569703 148.458733 
L 296.01172 148.496417 
L 297.201934 148.623505 
L 298.383076 148.908063 
L 299.097547 149.132441 
L 299.972039 149.275223 
L 300.817941 149.243461 
L 301.285975 149.126392 
L 302.068156 149.031061 
L 303.079115 148.955675 
L 303.96005 148.865835 
L 304.765754 148.793329 
L 305.346552 148.73276 
L 306.257915 148.68692 
L 307.308732 148.644522 
L 308.193763 148.628919 
L 309.169915 148.715283 
L 310.039011 148.839348 
L 310.706614 148.882456 
L 311.252264 148.82328 
L 312.088436 148.819236 
L 313.132775 148.705899 
L 313.943882 148.634206 
L 314.576091 148.526979 
L 315.314693 148.448142 
L 316.182901 148.335706 
L 317.183103 148.289083 
L 317.971606 148.17788 
L 318.72844 148.07236 
L 319.838962 148.022684 
L 320.562585 147.896839 
L 321.43885 147.861172 
L 322.281346 147.748721 
L 323.036467 147.800988 
L 323.849496 147.802365 
L 324.583277 147.769137 
L 325.517654 147.721529 
L 326.244663 147.676766 
L 327.0545 147.597821 
L 328.18346 147.534274 
L 329.081924 147.469636 
L 329.739338 147.383013 
L 330.476895 147.301188 
L 331.170153 147.200949 
L 332.041031 147.107987 
L 333.162122 147.022866 
L 334.260344 147.026813 
L 334.941236 147.037632 
L 335.579608 147.027934 
L 336.425837 146.978539 
L 337.281295 146.913885 
L 338.024072 146.881525 
L 339.062979 146.889359 
L 339.994112 146.854083 
L 340.763825 146.840816 
L 341.746276 146.865624 
L 342.338225 146.892354 
L 342.897086 146.973043 
L 343.914946 146.952795 
L 345.053745 146.925987 
L 345.837236 146.914544 
L 346.414988 146.939365 
L 347.166004 146.896818 
L 348.022386 146.891028 
L 348.880058 146.90955 
L 349.688363 146.966307 
L 350.607315 147.006129 
L 351.512231 147.027833 
L 352.161615 147.141661 
L 353.136335 147.287488 
L 354.01719 147.370787 
L 354.687292 147.351557 
L 355.830347 147.282597 
L 356.882745 147.277071 
L 357.58995 147.331341 
L 358.212651 147.376362 
L 359.099266 147.425796 
L 359.987575 147.656184 
L 360.817487 147.502454 
L 361.774192 147.516748 
L 362.71913 147.568045 
L 363.299536 147.553793 
L 363.94724 147.61576 
L 365.069036 147.661976 
L 365.797272 147.706661 
L 366.555585 147.713165 
L 367.445312 147.750268 
L 368.333943 147.744392 
L 369.352967 147.699072 
L 369.942572 147.705434 
L 370.625512 147.797201 
L 371.520187 147.790169 
L 372.46572 147.825575 
L 373.607733 147.831279 
L 374.465236 147.794177 
L 375.024953 147.722588 
L 375.809699 147.717692 
L 376.921638 147.717394 
L 377.543446 147.761093 
L 378.234406 147.717368 
L 379.371248 147.718603 
L 380.196085 147.678873 
L 380.729292 147.681438 
L 381.538685 147.637774 
L 382.375156 147.538684 
L 383.283627 147.533192 
L 384.138581 147.573952 
L 384.909063 147.59731 
L 385.981905 147.602962 
L 386.816225 147.624735 
L 387.729229 147.662875 
L 388.512776 147.720394 
L 389.097299 147.766473 
L 389.973293 147.746123 
L 390.978682 147.829941 
L 391.878383 147.940706 
L 392.743191 147.90733 
L 393.495824 147.824727 
L 394.157832 147.680035 
L 394.86181 147.567787 
L 395.680766 147.372137 
L 396.741682 147.208452 
L 397.474529 147.100792 
L 398.143374 146.93643 
L 399.132598 146.896608 
L 400.27712 146.785436 
L 400.992217 146.665447 
L 401.55849 146.511417 
L 402.67452 146.343666 
L 403.621646 146.078199 
L 404.171579 145.895848 
L 404.968559 145.828 
L 405.952741 145.697504 
L 406.928372 145.555073 
L 407.981956 145.511088 
L 408.678127 145.269421 
L 409.172931 145.137473 
L 410.106432 145.039449 
L 411.053457 144.893583 
L 411.851716 144.769604 
L 412.537321 144.588321 
L 413.519475 144.509709 
L 414.735496 144.378435 
L 415.425741 144.245005 
L 415.93253 144.092642 
L 416.798074 144.04732 
L 417.771914 143.972892 
L 418.403564 143.852543 
L 419.430034 143.744557 
L 420.484505 143.704958 
L 421.164393 143.676201 
L 421.989562 143.7099 
L 422.95497 143.650475 
L 423.646638 143.689455 
L 424.519408 143.711982 
L 425.289333 143.686966 
L 425.87861 143.972097 
L 426.661608 143.969059 
L 427.41593 143.992069 
L 428.270243 143.995029 
L 429.064036 144.040112 
L 430.214798 144.094056 
L 431.073576 144.131122 
L 431.709805 144.146146 
L 432.90387 144.152062 
L 433.728056 144.094934 
L 434.465273 144.094087 
L 435.536829 144.099961 
L 436.367533 144.095703 
L 437.243701 144.078819 
L 437.9206 144.068968 
L 438.536599 144.021672 
L 439.528671 144.022819 
L 440.386278 144.025501 
L 440.939232 143.982973 
L 441.747488 143.975026 
L 442.745643 143.976372 
L 443.436255 143.97035 
L 444.226574 143.971664 
L 445.070376 143.949336 
L 446.014209 143.915493 
L 447.224958 143.915422 
L 448.04065 143.882025 
L 448.895932 143.873867 
L 449.672042 143.853702 
L 450.349505 143.824806 
L 451.119556 143.826006 
L 452.051285 143.813326 
L 453.028361 143.780762 
L 453.534142 143.752609 
L 454.549783 143.676999 
L 455.752714 143.667216 
L 456.574317 143.642717 
L 457.256551 143.631386 
L 458.082555 143.609812 
L 458.833106 143.619121 
L 459.498509 143.599391 
L 460.434429 143.608466 
L 461.300297 143.612981 
L 462.163403 143.542179 
L 463.184239 143.552938 
L 463.877082 143.624691 
L 464.626546 143.645797 
L 465.631536 143.664726 
L 466.428755 143.67294 
L 467.284672 143.683297 
L 468.095223 143.632862 
L 468.829471 143.656068 
L 469.800246 143.6838 
L 470.788162 143.625512 
L 471.356067 143.662648 
L 471.973062 143.694569 
L 473.025796 143.745474 
L 473.8914 143.776463 
L 474.640105 143.945448 
L 475.705045 144.017529 
L 476.629206 144.183759 
L 477.448566 144.322297 
L 478.270017 144.423771 
L 479.057603 144.543319 
L 479.885122 144.633155 
L 480.569705 144.70372 
L 481.251976 144.737547 
L 482.272787 144.794816 
L 483.21944 144.823861 
L 483.709898 144.898939 
L 484.538113 144.93999 
L 485.394614 144.986274 
L 486.307823 145.083897 
L 487.176681 145.136297 
L 487.85107 145.236833 
L 488.789723 145.318426 
L 489.729412 145.390639 
L 490.418836 145.460337 
L 491.290688 145.489024 
L 492.184207 145.458307 
L 492.770857 145.440924 
L 493.670062 145.457951 
L 494.867489 145.508704 
L 495.720959 145.545106 
L 496.163574 145.564251 
L 497.06618 145.530562 
L 497.928658 145.527796 
L 498.716049 145.632733 
L 499.513402 145.656342 
L 500.207918 145.652176 
L 501.075351 145.713998 
L 502.102805 145.764583 
L 503.18426 145.849588 
L 503.968159 145.878369 
L 504.894942 145.927446 
L 505.850494 145.987277 
L 506.37177 146.062881 
L 507.198526 146.145789 
L 508.283551 146.236469 
L 508.896599 146.286709 
L 509.489095 146.342823 
L 510.302504 146.327561 
L 511.152374 146.488252 
L 512.056061 146.578528 
L 513.005246 146.721011 
L 514.010129 146.812592 
L 515.054128 146.876905 
L 515.809435 147.07185 
L 516.562421 147.321214 
L 517.293502 147.4664 
L 517.879253 147.644339 
L 518.863584 147.770143 
L 520.046424 147.92325 
L 520.960623 148.038872 
L 521.698833 148.132373 
L 522.61293 148.335108 
L 523.377646 148.476177 
L 524.18691 148.531528 
L 525.030391 148.617369 
L 525.530035 148.669412 
L 526.387674 148.702233 
L 527.580383 148.801542 
L 528.247979 148.836281 
L 529.072168 148.876657 
L 530.017275 148.924118 
L 530.834681 149.032192 
L 531.758705 149.07124 
L 532.453554 149.145522 
L 533.206738 149.149113 
L 534.158163 149.1806 
L 535.164267 149.24126 
L 535.841956 149.289831 
L 536.538774 149.318885 
L 537.279118 149.289749 
L 538.210992 149.333854 
L 539.22666 149.266683 
L 539.778151 149.240236 
L 540.425871 149.097921 
L 541.360249 148.975069 
L 542.433717 148.773946 
L 543.507824 148.676176 
L 544.188405 148.562847 
L 544.871802 148.471508 
L 545.605478 148.344511 
L 546.238732 148.271918 
L 547.173686 148.110281 
L 548.232101 147.983217 
L 549.193618 147.911931 
L 550.076368 147.839997 
L 550.740863 147.746146 
L 551.398576 147.722081 
L 552.442611 147.719154 
L 553.194425 147.711848 
L 554.104849 147.715068 
L 555.017968 147.701699 
L 555.697713 147.689104 
L 556.469764 147.691293 
L 557.252375 147.672606 
L 558.111784 147.689268 
L 559.092748 147.689807 
L 560.019751 147.716315 
L 560.871644 147.760624 
L 561.691257 147.809008 
L 562.45426 147.819548 
L 563.442439 147.82712 
L 564.116702 147.802618 
L 564.98594 147.882848 
L 566.059548 147.954986 
L 566.793268 147.950536 
L 567.622303 148.026013 
L 568.343568 148.036061 
L 569.312891 148.045071 
L 570.326657 148.018321 
L 570.943561 147.987071 
L 571.901792 147.983303 
L 572.852975 147.968731 
L 573.392653 147.827059 
L 573.97048 148.073515 
L 574.973852 148.060938 
L 576.082756 148.047684 
L 576.819429 148.090029 
L 577.510733 148.156537 
L 578.437574 148.166727 
L 579.204359 148.055137 
L 579.809316 148.061962 
L 580.914353 148.183609 
L 581.895186 148.276352 
L 582.456308 148.452195 
L 583.26271 148.467447 
L 584.121879 148.491794 
L 584.830304 148.485785 
L 585.713492 148.464602 
L 586.783798 148.441371 
L 587.742568 148.408662 
L 588.713247 148.373286 
L 589.376203 148.406813 
L 590.033973 148.40462 
L 591.004992 148.438928 
L 592.041164 148.567115 
L 593.024082 148.576587 
L 593.737196 148.625085 
L 594.329028 148.601533 
L 595.154766 148.592063 
L 595.895553 148.577943 
L 596.677113 148.505402 
L 597.555046 148.470837 
L 598.395632 148.441459 
L 599.254495 148.390623 
L 599.970397 148.315504 
L 600.920419 148.283043 
L 601.790672 148.305516 
L 602.795035 148.337751 
L 603.816888 148.3927 
L 604.386147 148.469797 
L 605.041941 148.56982 
L 605.968812 148.559662 
L 606.734503 148.601151 
L 607.363224 148.69623 
L 608.413806 148.79564 
L 609.611773 148.898438 
L 610.213728 148.994528 
L 611.034298 149.165868 
L 611.971646 149.335367 
L 612.523779 149.456845 
L 613.37243 149.748319 
L 614.212184 149.667633 
L 614.925754 149.774973 
L 615.986205 149.844557 
L 616.895544 149.871778 
L 617.762269 149.866308 
L 618.573132 149.869047 
L 619.236783 149.87813 
L 620.414548 149.835148 
L 621.353309 149.661249 
L 622.177102 149.591144 
L 623.024653 149.489152 
L 623.714743 149.380799 
L 624.634632 149.375898 
L 625.540523 149.350315 
L 626.058815 149.270609 
L 626.682431 149.230794 
L 627.673371 149.212179 
L 628.766714 149.247361 
L 629.509973 149.27287 
L 630.159685 149.376814 
L 631.305559 149.463117 
L 632.006033 149.519683 
L 632.837444 149.546668 
L 633.669874 149.590499 
L 634.412028 149.571299 
L 635.282759 149.566404 
L 635.892685 149.644439 
L 636.750631 149.662068 
L 637.55916 149.686607 
L 638.470041 149.748121 
L 639.540559 149.928349 
L 640.322427 150.014826 
L 641.292167 150.084137 
L 642.424923 149.986752 
L 643.084617 149.923096 
L 643.560815 149.806793 
L 644.535371 149.619542 
L 645.410405 149.505451 
L 646.290345 149.399562 
L 647.191363 149.34459 
L 647.643637 149.355721 
L 648.4175 149.262244 
L 649.572571 149.214233 
L 650.565413 149.250452 
L 651.344018 149.29733 
L 652.175246 149.343713 
L 653.087711 149.336124 
L 653.942899 149.421848 
L 654.731929 149.434725 
L 655.748114 149.430071 
L 656.453929 149.357047 
L 657.103098 149.366951 
L 658.107614 149.376398 
L 658.908199 149.382879 
L 659.439946 149.40229 
L 660.43382 149.435964 
L 661.50691 149.481634 
L 662.282874 149.528139 
L 663.006719 149.567054 
L 663.657059 149.591874 
L 664.543302 149.610344 
L 665.388813 149.616047 
L 666.201012 149.66012 
L 667.17561 149.782557 
L 667.863013 149.820078 
L 668.75233 149.853177 
L 669.935919 149.898688 
L 670.564048 149.901395 
L 671.218244 149.961342 
L 672.012856 150.001139 
L 672.823314 149.943145 
L 673.986703 149.91934 
L 674.75932 149.831688 
L 675.570536 149.83911 
L 676.388307 149.858738 
L 677.126394 149.844519 
L 678.074241 149.825073 
L 678.662677 149.821652 
L 679.708202 149.809348 
L 680.624054 149.745748 
L 681.329137 149.602639 
L 682.390578 149.500357 
L 683.14622 149.400768 
L 683.841118 149.349057 
L 684.662643 149.279229 
L 685.558993 149.145136 
L 686.447016 149.176073 
L 687.087322 149.18331 
L 687.848838 149.263735 
L 688.823679 149.242811 
L 689.518469 149.199116 
L 690.585735 149.150173 
L 691.781043 149.132653 
L 692.246075 149.105088 
L 692.774529 149.123507 
L 693.995787 149.236594 
L 694.825135 149.26628 
L 695.266037 149.299244 
L 696.071253 149.43322 
L 697.214298 149.397913 
L 698.061094 149.359555 
L 698.63752 149.360616 
L 699.587218 149.346145 
L 700.759544 149.337754 
L 701.79782 149.401396 
L 702.372271 149.441016 
L 703.094203 149.461762 
L 704.010863 149.43527 
L 704.853349 149.48688 
L 705.719208 149.571087 
L 706.478688 149.566518 
L 707.269892 149.536773 
L 708.15034 149.516669 
L 709.141476 149.517993 
L 709.870962 149.538425 
L 710.476858 149.438607 
L 711.35618 149.420132 
L 712.477721 149.407101 
L 713.538342 149.39672 
L 714.342069 149.511303 
L 714.82838 149.633252 
L 715.495057 149.761215 
L 716.587541 149.969687 
L 717.247662 150.044205 
L 718.068843 150.132149 
L 719.080649 150.239957 
L 719.740271 150.492219 
L 720.444413 150.554365 
L 721.57062 150.610784 
L 722.448229 150.694716 
L 723.110219 150.768119 
L 724.114951 150.800986 
L 724.865419 150.762173 
L 725.531756 150.796715 
L 726.657085 150.784646 
L 727.701615 150.804065 
L 728.336321 150.859175 
L 729.284043 150.753101 
L 730.148549 150.656585 
L 730.92994 150.586643 
L 731.598086 150.553054 
L 732.229691 150.620605 
L 733.182326 150.670077 
L 734.279268 150.715917 
L 735.336178 150.887261 
L 736.068873 150.979176 
L 736.776539 151.108554 
L 737.654226 151.208964 
L 738.2951 151.152254 
L 738.92824 151.171058 
L 740.109714 151.18286 
L 741.082079 151.193095 
L 741.802558 151.261552 
L 742.521076 151.249678 
L 743.424728 151.198537 
L 744.119297 151.201456 
L 744.801324 151.075988 
L 745.958981 150.983329 
L 746.624692 150.815753 
L 747.451998 150.663471 
L 748.420616 150.571063 
L 749.122463 150.462641 
L 750.124568 150.287999 
L 751.030441 150.129814 
L 751.749455 150.025562 
L 752.712175 149.876987 
L 753.416299 149.755216 
L 754.024713 149.461862 
L 754.935528 149.428288 
L 755.9535 149.281649 
L 756.879939 149.243678 
L 757.780081 149.063365 
L 758.402187 148.951053 
L 758.923526 148.901613 
L 759.756427 148.860785 
L 760.852238 148.839936 
L 762.059397 148.82934 
L 762.745368 148.911516 
L 763.252472 149.074961 
L 764.040089 149.157409 
L 764.839349 149.192345 
L 765.927414 149.356778 
L 766.802657 149.517502 
L 767.328766 149.684978 
L 768.464815 149.902078 
L 769.233144 150.087036 
L 770.040946 150.282594 
L 770.900157 150.345108 
L 771.665396 150.413507 
L 772.698718 150.586293 
L 773.572742 150.753347 
L 774.182071 150.927814 
L 774.807374 151.015674 
L 775.934495 150.997437 
L 776.921543 150.982622 
L 777.761713 151.009415 
L 778.632596 150.981175 
L 779.49671 150.96037 
L 780.45627 151.024023 
L 781.306829 151.059273 
L 782.002111 151.007404 
L 782.700929 150.91499 
L 783.523591 150.960577 
L 784.203459 151.038392 
L 784.910394 151.085256 
L 785.758833 151.228152 
L 786.62487 151.400864 
L 787.517057 151.531445 
L 788.597579 151.683821 
L 789.721725 151.712387 
L 790.338693 151.824301 
L 791.098836 151.819792 
L 792.121736 151.842473 
L 792.812648 151.836065 
L 793.604992 151.847482 
L 794.371333 151.879587 
L 795.065867 151.88204 
L 795.84221 151.701896 
L 796.845688 151.582808 
L 797.949908 151.326133 
L 798.871811 151.275454 
L 799.714812 151.232959 
L 800.25498 150.793696 
L 800.955814 150.307552 
L 801.914822 149.837165 
L 802.688783 149.218429 
L 803.591408 149.047733 
L 804.707088 148.651957 
L 805.552538 148.343466 
L 806.150548 147.990657 
L 806.843862 147.714414 
L 807.811152 147.478055 
L 808.669463 147.287577 
L 809.523608 147.066736 
L 810.206141 146.909156 
L 810.772647 146.653686 
L 811.711317 146.313289 
L 812.789993 146.137061 
L 813.562103 145.930917 
L 814.444151 145.684612 
L 815.468624 145.500066 
L 816.11661 145.350675 
L 816.818203 145.076623 
L 817.638367 144.846307 
L 818.768126 144.68914 
L 819.778214 144.436125 
L 820.430791 144.256321 
L 821.310174 144.182586 
L 822.249002 144.050859 
L 823.007967 143.881463 
L 823.581798 143.763133 
L 824.451493 143.631573 
L 825.479915 143.341006 
L 826.162176 143.070731 
L 826.970862 142.843601 
L 827.682609 142.601999 
L 828.660235 142.471908 
L 829.588684 142.367258 
L 830.224651 142.295599 
L 831.17504 142.088335 
L 832.161139 141.942056 
L 833.046261 141.83729 
L 833.920213 141.70751 
L 834.831979 141.614599 
L 835.395993 141.548026 
L 836.105505 141.413284 
L 836.867024 141.320965 
L 837.641556 141.313459 
L 838.527855 141.260911 
L 839.407399 141.196865 
L 840.51065 141.107946 
L 841.198579 140.872554 
L 841.896548 140.789928 
L 842.879164 140.654103 
L 843.531888 140.543638 
L 844.441408 140.394175 
L 845.685835 140.316752 
L 846.487675 140.213061 
L 847.263831 140.182707 
L 847.994615 140.149832 
L 848.878506 140.202245 
L 849.681257 140.194011 
L 850.259554 140.222416 
L 851.31248 140.355211 
L 852.307835 140.549659 
L 853.090294 140.858043 
L 853.829699 141.130795 
L 854.581093 141.286869 
L 855.536381 141.558823 
L 856.615866 141.996661 
L 857.226758 142.464037 
L 858.073651 142.80532 
L 858.917427 143.147925 
L 859.473777 143.516241 
L 860.383804 144.291522 
L 861.086543 145.0147 
L 861.834568 145.609552 
L 862.858877 145.959397 
L 863.873087 146.764082 
L 864.809608 147.289783 
L 865.669942 147.729783 
L 866.474249 148.354924 
L 867.237823 148.917415 
L 868.214564 149.32685 
L 869.194715 149.571529 
L 869.82539 149.753196 
L 870.500646 150.308576 
L 871.193198 150.122779 
L 871.899631 149.96657 
L 873.005538 149.820938 
L 873.834902 149.990846 
L 874.435453 150.390942 
L 875.555191 151.227963 
L 876.367018 152.178359 
L 876.907752 152.246349 
L 878.096679 152.219611 
L 878.902638 151.179293 
L 879.677981 150.271099 
L 880.43068 149.914873 
L 880.43068 142.936958 
L 880.43068 142.936958 
L 879.677981 142.7214 
L 878.902638 142.512955 
L 878.096679 142.695718 
L 876.907752 142.539375 
L 876.367018 142.297165 
L 875.555191 141.871702 
L 874.435453 141.52296 
L 873.834902 141.114799 
L 873.005538 141.088501 
L 871.899631 141.272701 
L 871.193198 141.416129 
L 870.500646 141.493206 
L 869.82539 141.422699 
L 869.194715 141.439505 
L 868.214564 141.413703 
L 867.237823 141.329983 
L 866.474249 141.169287 
L 865.669942 141.065362 
L 864.809608 140.853537 
L 863.873087 140.74683 
L 862.858877 140.669813 
L 861.834568 140.536495 
L 861.086543 140.420551 
L 860.383804 140.007337 
L 859.473777 139.855509 
L 858.917427 139.744139 
L 858.073651 139.64049 
L 857.226758 139.480883 
L 856.615866 139.228612 
L 855.536381 138.868591 
L 854.581093 138.420109 
L 853.829699 137.942439 
L 853.090294 137.255249 
L 852.307835 136.716771 
L 851.31248 136.333258 
L 850.259554 135.944828 
L 849.681257 135.710883 
L 848.878506 135.783795 
L 847.994615 135.719901 
L 847.263831 135.691583 
L 846.487675 135.632325 
L 845.685835 135.664561 
L 844.441408 135.826962 
L 843.531888 135.978861 
L 842.879164 136.125409 
L 841.896548 136.363493 
L 841.198579 136.598069 
L 840.51065 136.799934 
L 839.407399 136.912583 
L 838.527855 137.0218 
L 837.641556 137.18246 
L 836.867024 137.015213 
L 836.105505 137.073243 
L 835.395993 137.167056 
L 834.831979 137.183863 
L 833.920213 137.193198 
L 833.046261 137.240305 
L 832.161139 137.277726 
L 831.17504 137.373783 
L 830.224651 137.422768 
L 829.588684 137.290473 
L 828.660235 137.684629 
L 827.682609 137.87453 
L 826.970862 138.18367 
L 826.162176 138.408819 
L 825.479915 138.635343 
L 824.451493 138.916214 
L 823.581798 139.039149 
L 823.007967 139.190369 
L 822.249002 139.483254 
L 821.310174 139.730936 
L 820.430791 140.116322 
L 819.778214 140.553531 
L 818.768126 141.026645 
L 817.638367 141.274613 
L 816.818203 141.638263 
L 816.11661 142.073198 
L 815.468624 142.33755 
L 814.444151 142.528786 
L 813.562103 142.809193 
L 812.789993 143.013772 
L 811.711317 143.250141 
L 810.772647 143.553998 
L 810.206141 143.800174 
L 809.523608 143.95933 
L 808.669463 144.096969 
L 807.811152 144.297674 
L 806.843862 144.480171 
L 806.150548 144.632815 
L 805.552538 144.758074 
L 804.707088 144.912365 
L 803.591408 145.114201 
L 802.688783 145.228558 
L 801.914822 145.434188 
L 800.955814 145.538171 
L 800.25498 145.685963 
L 799.714812 145.925258 
L 798.871811 146.030079 
L 797.949908 146.131555 
L 796.845688 146.276519 
L 795.84221 146.331617 
L 795.065867 146.501246 
L 794.371333 146.56189 
L 793.604992 146.53749 
L 792.812648 146.557619 
L 792.121736 146.521964 
L 791.098836 146.587856 
L 790.338693 146.574333 
L 789.721725 146.580566 
L 788.597579 146.57203 
L 787.517057 146.557949 
L 786.62487 146.563438 
L 785.758833 146.484872 
L 784.910394 146.470745 
L 784.203459 146.406596 
L 783.523591 146.375853 
L 782.700929 146.380419 
L 782.002111 146.404701 
L 781.306829 146.428257 
L 780.45627 146.45319 
L 779.49671 146.47331 
L 778.632596 146.470397 
L 777.761713 146.496554 
L 776.921543 146.534016 
L 775.934495 146.593582 
L 774.807374 146.64922 
L 774.182071 146.648151 
L 773.572742 146.6587 
L 772.698718 146.683591 
L 771.665396 146.578724 
L 770.900157 146.611852 
L 770.040946 146.533165 
L 769.233144 146.485133 
L 768.464815 146.421529 
L 767.328766 146.437887 
L 766.802657 146.395107 
L 765.927414 146.386553 
L 764.839349 146.30691 
L 764.040089 146.233249 
L 763.252472 146.199939 
L 762.745368 146.161244 
L 762.059397 146.184741 
L 760.852238 146.151442 
L 759.756427 146.108204 
L 758.923526 146.091731 
L 758.402187 146.147019 
L 757.780081 146.278663 
L 756.879939 146.338517 
L 755.9535 146.441221 
L 754.935528 146.583898 
L 754.024713 146.669324 
L 753.416299 146.812774 
L 752.712175 146.886087 
L 751.749455 146.94026 
L 751.030441 147.095154 
L 750.124568 147.169665 
L 749.122463 147.267555 
L 748.420616 147.344647 
L 747.451998 147.38393 
L 746.624692 147.545954 
L 745.958981 147.625957 
L 744.801324 147.737755 
L 744.119297 147.721855 
L 743.424728 147.761607 
L 742.521076 147.769011 
L 741.802558 147.773575 
L 741.082079 147.738984 
L 740.109714 147.713088 
L 738.92824 147.696742 
L 738.2951 147.664118 
L 737.654226 147.608796 
L 736.776539 147.56549 
L 736.068873 147.465005 
L 735.336178 147.334169 
L 734.279268 147.296173 
L 733.182326 147.246939 
L 732.229691 147.171909 
L 731.598086 147.167694 
L 730.92994 147.246824 
L 730.148549 147.240165 
L 729.284043 147.306713 
L 728.336321 147.335129 
L 727.701615 147.317225 
L 726.657085 147.331248 
L 725.531756 147.339929 
L 724.865419 147.292194 
L 724.114951 147.324421 
L 723.110219 147.282879 
L 722.448229 147.25037 
L 721.57062 147.199048 
L 720.444413 147.185171 
L 719.740271 147.178511 
L 719.080649 147.097818 
L 718.068843 147.090152 
L 717.247662 147.037236 
L 716.587541 146.989406 
L 715.495057 146.897704 
L 714.82838 146.871613 
L 714.342069 146.877194 
L 713.538342 146.896654 
L 712.477721 146.894968 
L 711.35618 146.90492 
L 710.476858 146.933586 
L 709.870962 146.939516 
L 709.141476 146.984728 
L 708.15034 147.029345 
L 707.269892 147.07576 
L 706.478688 147.062546 
L 705.719208 147.065123 
L 704.853349 147.052739 
L 704.010863 147.074212 
L 703.094203 147.151548 
L 702.372271 147.122152 
L 701.79782 147.058621 
L 700.759544 147.028859 
L 699.587218 147.056048 
L 698.63752 147.068332 
L 698.061094 147.124852 
L 697.214298 147.148959 
L 696.071253 147.168293 
L 695.266037 147.189979 
L 694.825135 147.217022 
L 693.995787 147.202699 
L 692.774529 147.200809 
L 692.246075 147.239697 
L 691.781043 147.243882 
L 690.585735 147.277153 
L 689.518469 147.323476 
L 688.823679 147.353674 
L 687.848838 147.36803 
L 687.087322 147.352045 
L 686.447016 147.361121 
L 685.558993 147.373927 
L 684.662643 147.421981 
L 683.841118 147.444606 
L 683.14622 147.480675 
L 682.390578 147.530122 
L 681.329137 147.544076 
L 680.624054 147.569463 
L 679.708202 147.605444 
L 678.662677 147.609222 
L 678.074241 147.645615 
L 677.126394 147.668506 
L 676.388307 147.677621 
L 675.570536 147.632645 
L 674.75932 147.614538 
L 673.986703 147.574272 
L 672.823314 147.543374 
L 672.012856 147.54811 
L 671.218244 147.471709 
L 670.564048 147.439329 
L 669.935919 147.352658 
L 668.75233 147.310364 
L 667.863013 147.264757 
L 667.17561 147.203853 
L 666.201012 147.120834 
L 665.388813 146.981222 
L 664.543302 146.952357 
L 663.657059 147.026642 
L 663.006719 147.04608 
L 662.282874 147.034005 
L 661.50691 147.039761 
L 660.43382 147.012617 
L 659.439946 146.987028 
L 658.908199 146.942299 
L 658.107614 146.963539 
L 657.103098 146.966977 
L 656.453929 147.023498 
L 655.748114 147.018818 
L 654.731929 147.022006 
L 653.942899 146.981283 
L 653.087711 146.973442 
L 652.175246 146.917185 
L 651.344018 146.873916 
L 650.565413 146.839858 
L 649.572571 146.83911 
L 648.4175 146.819708 
L 647.643637 146.816134 
L 647.191363 146.825772 
L 646.290345 146.832321 
L 645.410405 146.854703 
L 644.535371 146.920235 
L 643.560815 147.059272 
L 643.084617 147.100021 
L 642.424923 147.136715 
L 641.292167 147.152968 
L 640.322427 147.167974 
L 639.540559 147.149988 
L 638.470041 147.084763 
L 637.55916 146.949508 
L 636.750631 146.943779 
L 635.892685 146.948119 
L 635.282759 146.916818 
L 634.412028 146.908589 
L 633.669874 146.891446 
L 632.837444 146.781829 
L 632.006033 146.748195 
L 631.305559 146.697818 
L 630.159685 146.649383 
L 629.509973 146.58361 
L 628.766714 146.575957 
L 627.673371 146.546921 
L 626.682431 146.556694 
L 626.058815 146.618403 
L 625.540523 146.629918 
L 624.634632 146.715724 
L 623.714743 146.766387 
L 623.024653 146.83012 
L 622.177102 146.823494 
L 621.353309 146.859161 
L 620.414548 146.922835 
L 619.236783 146.953017 
L 618.573132 147.006119 
L 617.762269 146.969759 
L 616.895544 146.982325 
L 615.986205 146.942814 
L 614.925754 146.940654 
L 614.212184 146.830623 
L 613.37243 146.7241 
L 612.523779 146.64321 
L 611.971646 146.613213 
L 611.034298 146.471259 
L 610.213728 146.363115 
L 609.611773 146.317183 
L 608.413806 146.276916 
L 607.363224 146.171255 
L 606.734503 146.105923 
L 605.968812 145.955436 
L 605.041941 145.854471 
L 604.386147 145.762308 
L 603.816888 145.716536 
L 602.795035 145.62601 
L 601.790672 145.489642 
L 600.920419 145.418519 
L 599.970397 145.353257 
L 599.254495 145.333468 
L 598.395632 145.351993 
L 597.555046 145.46604 
L 596.677113 145.539642 
L 595.895553 145.588914 
L 595.154766 145.589956 
L 594.329028 145.666846 
L 593.737196 145.693995 
L 593.024082 145.694778 
L 592.041164 145.565086 
L 591.004992 145.499541 
L 590.033973 145.508013 
L 589.376203 145.503638 
L 588.713247 145.515222 
L 587.742568 145.59637 
L 586.783798 145.6968 
L 585.713492 145.891364 
L 584.830304 146.022905 
L 584.121879 146.053023 
L 583.26271 146.165533 
L 582.456308 146.122138 
L 581.895186 146.067368 
L 580.914353 146.03223 
L 579.809316 146.034105 
L 579.204359 146.025403 
L 578.437574 146.070996 
L 577.510733 146.143039 
L 576.819429 146.174499 
L 576.082756 146.161025 
L 574.973852 146.22797 
L 573.97048 146.21583 
L 573.392653 146.180619 
L 572.852975 146.189603 
L 571.901792 146.211012 
L 570.943561 146.297559 
L 570.326657 146.35294 
L 569.312891 146.418862 
L 568.343568 146.390765 
L 567.622303 146.397783 
L 566.793268 146.388792 
L 566.059548 146.379792 
L 564.98594 146.323278 
L 564.116702 146.255609 
L 563.442439 146.271335 
L 562.45426 146.257868 
L 561.691257 146.229804 
L 560.871644 146.172822 
L 560.019751 146.133163 
L 559.092748 146.043624 
L 558.111784 146.063956 
L 557.252375 146.064656 
L 556.469764 146.015116 
L 555.697713 146.028432 
L 555.017968 146.056368 
L 554.104849 146.030687 
L 553.194425 146.024501 
L 552.442611 146.016325 
L 551.398576 146.027287 
L 550.740863 145.990401 
L 550.076368 146.00712 
L 549.193618 146.016753 
L 548.232101 146.262525 
L 547.173686 146.312394 
L 546.238732 146.378596 
L 545.605478 146.476883 
L 544.871802 146.54298 
L 544.188405 146.594558 
L 543.507824 146.733475 
L 542.433717 146.795822 
L 541.360249 146.939546 
L 540.425871 147.075112 
L 539.778151 147.119227 
L 539.22666 147.112186 
L 538.210992 147.114304 
L 537.279118 147.176429 
L 536.538774 147.18097 
L 535.841956 147.047059 
L 535.164267 147.066478 
L 534.158163 147.084349 
L 533.206738 147.058446 
L 532.453554 147.075438 
L 531.758705 147.033304 
L 530.834681 147.031216 
L 530.017275 146.954499 
L 529.072168 146.884384 
L 528.247979 146.809283 
L 527.580383 146.668671 
L 526.387674 146.550289 
L 525.530035 146.503775 
L 525.030391 146.482247 
L 524.18691 146.418344 
L 523.377646 146.370211 
L 522.61293 146.253878 
L 521.698833 146.169936 
L 520.960623 146.039696 
L 520.046424 145.8784 
L 518.863584 145.698564 
L 517.879253 145.496637 
L 517.293502 145.312059 
L 516.562421 145.197585 
L 515.809435 145.078853 
L 515.054128 144.900309 
L 514.010129 144.806714 
L 513.005246 144.732482 
L 512.056061 144.651154 
L 511.152374 144.460209 
L 510.302504 144.38502 
L 509.489095 144.319385 
L 508.896599 144.232583 
L 508.283551 144.129366 
L 507.198526 144.003019 
L 506.37177 143.890406 
L 505.850494 143.801755 
L 504.894942 143.73175 
L 503.968159 143.687203 
L 503.18426 143.599135 
L 502.102805 143.498156 
L 501.075351 143.440717 
L 500.207918 143.40245 
L 499.513402 143.334892 
L 498.716049 143.249735 
L 497.928658 143.081951 
L 497.06618 143.072833 
L 496.163574 143.059281 
L 495.720959 143.001232 
L 494.867489 142.941244 
L 493.670062 142.855214 
L 492.770857 142.786624 
L 492.184207 142.793544 
L 491.290688 142.815461 
L 490.418836 142.797495 
L 489.729412 142.751395 
L 488.789723 142.609836 
L 487.85107 142.515262 
L 487.176681 142.433836 
L 486.307823 142.324021 
L 485.394614 142.171156 
L 484.538113 142.090495 
L 483.709898 142.048893 
L 483.21944 141.986689 
L 482.272787 141.940277 
L 481.251976 141.882403 
L 480.569705 141.895106 
L 479.885122 141.835281 
L 479.057603 141.73538 
L 478.270017 141.531826 
L 477.448566 141.361095 
L 476.629206 141.231564 
L 475.705045 141.056203 
L 474.640105 140.902419 
L 473.8914 140.630826 
L 473.025796 140.426458 
L 471.973062 140.193579 
L 471.356067 140.121197 
L 470.788162 139.969247 
L 469.800246 139.945447 
L 468.829471 139.840517 
L 468.095223 139.844035 
L 467.284672 139.818427 
L 466.428755 139.724279 
L 465.631536 139.652879 
L 464.626546 139.56091 
L 463.877082 139.428672 
L 463.184239 139.290303 
L 462.163403 139.250073 
L 461.300297 139.247355 
L 460.434429 139.221211 
L 459.498509 139.091842 
L 458.833106 139.050301 
L 458.082555 139.11806 
L 457.256551 139.047346 
L 456.574317 139.037558 
L 455.752714 139.182354 
L 454.549783 139.300922 
L 453.534142 139.460643 
L 453.028361 139.610042 
L 452.051285 139.744056 
L 451.119556 139.896126 
L 450.349505 139.991158 
L 449.672042 140.131462 
L 448.895932 140.189856 
L 448.04065 140.307067 
L 447.224958 140.451645 
L 446.014209 140.513782 
L 445.070376 140.569447 
L 444.226574 140.671491 
L 443.436255 140.693959 
L 442.745643 140.787642 
L 441.747488 140.88923 
L 440.939232 140.904048 
L 440.386278 140.982752 
L 439.528671 140.995304 
L 438.536599 141.148941 
L 437.9206 141.210894 
L 437.243701 141.402807 
L 436.367533 141.453979 
L 435.536829 141.490811 
L 434.465273 141.508186 
L 433.728056 141.49671 
L 432.90387 141.56093 
L 431.709805 141.520828 
L 431.073576 141.520508 
L 430.214798 141.446312 
L 429.064036 141.34986 
L 428.270243 141.290039 
L 427.41593 141.232485 
L 426.661608 141.085039 
L 425.87861 140.955717 
L 425.289333 140.749641 
L 424.519408 140.830397 
L 423.646638 140.974835 
L 422.95497 140.933506 
L 421.989562 140.920715 
L 421.164393 141.002363 
L 420.484505 141.019741 
L 419.430034 141.277484 
L 418.403564 141.359219 
L 417.771914 141.614276 
L 416.798074 141.83498 
L 415.93253 141.937818 
L 415.425741 142.149271 
L 414.735496 142.338646 
L 413.519475 142.519258 
L 412.537321 142.789931 
L 411.851716 143.051856 
L 411.053457 143.253277 
L 410.106432 143.450746 
L 409.172931 143.563833 
L 408.678127 143.691473 
L 407.981956 143.816296 
L 406.928372 143.999339 
L 405.952741 144.147225 
L 404.968559 144.386137 
L 404.171579 144.560626 
L 403.621646 144.653772 
L 402.67452 144.811816 
L 401.55849 144.912477 
L 400.992217 144.994161 
L 400.27712 145.057564 
L 399.132598 145.136902 
L 398.143374 145.237441 
L 397.474529 145.329766 
L 396.741682 145.402229 
L 395.680766 145.458629 
L 394.86181 145.498305 
L 394.157832 145.51579 
L 393.495824 145.451964 
L 392.743191 145.470763 
L 391.878383 145.489642 
L 390.978682 145.533845 
L 389.973293 145.530655 
L 389.097299 145.504961 
L 388.512776 145.475994 
L 387.729229 145.438184 
L 386.816225 145.430461 
L 385.981905 145.420949 
L 384.909063 145.390545 
L 384.138581 145.339624 
L 383.283627 145.244027 
L 382.375156 145.23597 
L 381.538685 145.319441 
L 380.729292 145.369912 
L 380.196085 145.405788 
L 379.371248 145.407191 
L 378.234406 145.4274 
L 377.543446 145.448897 
L 376.921638 145.408039 
L 375.809699 145.401823 
L 375.024953 145.410537 
L 374.465236 145.429955 
L 373.607733 145.436368 
L 372.46572 145.434647 
L 371.520187 145.415368 
L 370.625512 145.406844 
L 369.942572 145.388339 
L 369.352967 145.362131 
L 368.333943 145.356963 
L 367.445312 145.350981 
L 366.555585 145.334751 
L 365.797272 145.322465 
L 365.069036 145.26242 
L 363.94724 145.205383 
L 363.299536 145.209833 
L 362.71913 145.223679 
L 361.774192 145.207692 
L 360.817487 145.219424 
L 359.987575 145.211826 
L 359.099266 145.165279 
L 358.212651 145.128666 
L 357.58995 145.1085 
L 356.882745 145.111652 
L 355.830347 145.10194 
L 354.687292 145.117867 
L 354.01719 145.145589 
L 353.136335 145.05108 
L 352.161615 144.904333 
L 351.512231 144.849626 
L 350.607315 144.849307 
L 349.688363 144.872001 
L 348.880058 144.819631 
L 348.022386 144.785224 
L 347.166004 144.789397 
L 346.414988 144.792067 
L 345.837236 144.766982 
L 345.053745 144.747302 
L 343.914946 144.757954 
L 342.897086 144.678948 
L 342.338225 144.578432 
L 341.746276 144.543156 
L 340.763825 144.639546 
L 339.994112 144.665359 
L 339.062979 144.703272 
L 338.024072 144.705803 
L 337.281295 144.741077 
L 336.425837 144.792993 
L 335.579608 144.829197 
L 334.941236 144.852985 
L 334.260344 144.844996 
L 333.162122 144.866169 
L 332.041031 144.958802 
L 331.170153 145.056088 
L 330.476895 145.116013 
L 329.739338 145.140951 
L 329.081924 145.212073 
L 328.18346 145.25626 
L 327.0545 145.288439 
L 326.244663 145.365365 
L 325.517654 145.407269 
L 324.583277 145.44375 
L 323.849496 145.44995 
L 323.036467 145.450255 
L 322.281346 145.430135 
L 321.43885 145.405556 
L 320.562585 145.406745 
L 319.838962 145.438402 
L 318.72844 145.322433 
L 317.971606 145.289057 
L 317.183103 145.391279 
L 316.182901 145.423684 
L 315.314693 145.480869 
L 314.576091 145.503238 
L 313.943882 145.51645 
L 313.132775 145.537819 
L 312.088436 145.505526 
L 311.252264 145.423721 
L 310.706614 145.411339 
L 310.039011 145.318463 
L 309.169915 145.296281 
L 308.193763 145.26629 
L 307.308732 145.22073 
L 306.257915 145.277376 
L 305.346552 145.326636 
L 304.765754 145.347841 
L 303.96005 145.374493 
L 303.079115 145.358 
L 302.068156 145.372517 
L 301.285975 145.401221 
L 300.817941 145.378184 
L 299.972039 145.387677 
L 299.097547 145.314626 
L 298.383076 145.259657 
L 297.201934 145.130769 
L 296.01172 145.03591 
L 295.569703 144.957502 
L 294.981118 144.912289 
L 293.728538 144.884846 
L 292.782236 144.850411 
L 292.145023 144.764637 
L 291.440389 144.721938 
L 290.546139 144.65249 
L 289.770374 144.585159 
L 289.09543 144.56412 
L 287.879582 144.46926 
L 286.924579 144.304117 
L 286.306934 144.209198 
L 285.505421 144.118726 
L 284.722551 144.069035 
L 284.044139 143.977455 
L 282.935573 143.767489 
L 281.855052 143.656207 
L 281.244529 143.491111 
L 280.420209 143.33367 
L 279.583849 143.172673 
L 278.807675 143.041257 
L 277.972697 142.910955 
L 277.181914 142.809314 
L 276.26664 142.642576 
L 275.314815 142.612567 
L 274.33418 142.575917 
L 273.598973 142.398224 
L 272.790688 142.309534 
L 271.8151 142.196541 
L 271.13013 142.072087 
L 270.481548 141.999732 
L 269.688459 141.940838 
L 268.745543 141.873263 
L 267.864107 141.834564 
L 267.211246 141.837773 
L 266.217809 141.977715 
L 265.328927 142.031364 
L 264.827693 141.990393 
L 263.88397 141.920885 
L 262.865642 141.762586 
L 262.07848 141.653506 
L 261.156552 141.810114 
L 260.224073 141.935635 
L 259.553193 142.007014 
L 258.614258 141.99613 
L 257.598897 142.032987 
L 256.833793 142.011561 
L 256.04963 142.080827 
L 255.477162 142.096208 
L 254.8878 142.089756 
L 254.040196 142.16265 
L 253.168553 142.277327 
L 252.322673 142.427575 
L 251.545605 142.604486 
L 250.568355 142.676959 
L 249.595916 142.732894 
L 248.797905 142.755022 
L 247.887525 142.813738 
L 246.803639 142.850005 
L 246.083312 142.861684 
L 245.574298 142.949455 
L 244.795154 143.04026 
L 243.867645 143.068616 
L 242.843961 143.079244 
L 241.884111 143.037988 
L 241.003899 142.991831 
L 240.292472 142.959274 
L 239.719105 142.97483 
L 238.884007 143.010057 
L 237.840571 143.051671 
L 236.970833 143.032415 
L 236.309667 143.062474 
L 235.45988 143.099534 
L 234.620077 143.180411 
L 233.633492 143.200444 
L 232.776258 143.225718 
L 231.957569 143.256445 
L 230.948752 143.234617 
L 230.0706 143.244976 
L 229.323144 143.297754 
L 228.517369 143.380265 
L 227.646675 143.399477 
L 227.052173 143.41941 
L 226.277397 143.564465 
L 225.140411 143.560783 
L 224.055584 143.552434 
L 223.246935 143.530493 
L 222.416227 143.429393 
L 221.880102 143.456388 
L 221.208855 143.422774 
L 220.424382 143.336847 
L 219.666096 143.210124 
L 218.631978 143.094466 
L 217.67307 142.989427 
L 216.719659 142.845068 
L 216.092673 142.820601 
L 215.478256 142.728987 
L 214.489279 142.658386 
L 213.542808 142.637299 
L 212.460944 142.521534 
L 211.467193 142.459898 
L 210.803324 142.34732 
L 210.077638 142.239593 
L 209.314045 142.12191 
L 208.322449 142.067698 
L 207.642943 142.025639 
L 206.824529 141.841773 
L 205.620227 141.637913 
L 204.824494 141.502812 
L 204.350292 141.332846 
L 203.518562 141.19426 
L 202.455952 141.084005 
L 201.937875 140.933869 
L 201.113067 140.848754 
L 200.252429 140.795425 
L 199.389821 140.718959 
L 198.335913 140.678321 
L 197.731419 140.594348 
L 196.758666 140.561371 
L 195.794867 140.519037 
L 195.183411 140.53148 
L 194.29874 140.558679 
L 193.319826 140.620275 
L 192.302741 140.650682 
L 191.584875 140.633381 
L 190.926482 140.547107 
L 190.278102 140.51834 
L 189.22386 140.428482 
L 188.388427 140.362318 
L 187.572016 140.300188 
L 186.680062 140.176589 
L 186.197159 140.099163 
L 185.166587 139.95371 
L 184.150102 139.873964 
L 183.170032 139.694762 
L 182.44174 139.486682 
L 181.831006 139.315033 
L 180.883107 139.223836 
L 179.936795 139.064357 
L 178.939148 138.919114 
L 178.363408 138.717745 
L 177.774965 138.436925 
L 176.557838 138.101897 
L 175.598654 137.810468 
L 174.982295 137.58037 
L 174.097904 137.308898 
L 173.351872 136.959457 
L 172.782832 136.651166 
L 171.781716 136.379644 
L 170.666874 135.971634 
L 169.82372 135.584948 
L 169.264155 135.163522 
L 168.426306 134.836718 
L 167.622529 134.445526 
L 166.653754 134.036304 
L 165.650657 133.541551 
L 164.939563 133.317709 
L 164.045617 133.08103 
L 163.118966 132.825062 
L 162.39667 132.749465 
L 161.761163 132.541649 
L 160.826221 132.339393 
L 159.943609 132.106471 
L 159.250419 131.766036 
L 158.199709 131.456751 
L 157.163927 131.206037 
L 156.628141 131.019836 
L 155.831056 130.752577 
L 155.011178 130.540495 
L 154.143578 130.174463 
L 153.270839 129.855573 
L 152.485716 129.553604 
L 151.607135 129.390004 
L 150.874041 129.201111 
L 149.819785 129.070916 
L 148.850478 129.186282 
L 148.285094 129.186486 
L 147.561009 129.097387 
L 146.810101 129.085181 
L 146.090453 129.093788 
L 145.110252 129.031424 
L 144.048376 129.047637 
L 143.19137 129.089927 
L 142.319889 129.107848 
L 141.541309 129.066682 
L 140.699049 128.917051 
L 139.780468 128.723671 
L 139.144456 128.519494 
L 138.480682 128.297837 
L 137.621304 128.101486 
L 136.790365 127.740534 
L 135.937428 127.599819 
L 134.784696 127.38928 
L 133.922248 127.013181 
L 133.089289 126.662903 
L 132.302111 126.321247 
L 131.588365 125.588617 
L 130.517284 125.541979 
L 129.859809 125.278909 
L 129.087957 124.994532 
L 128.072539 124.800239 
L 127.184322 124.729196 
L 126.285799 124.734005 
L 125.50097 124.990635 
L 124.61663 125.248986 
L 123.905512 125.631512 
L 123.265339 126.035046 
L 122.386895 126.613845 
L 121.342256 127.113833 
L 120.550982 127.369777 
L 119.651597 127.62582 
L 118.512381 127.763 
L 117.691519 127.85113 
L 117.100612 128.048968 
L 116.412072 128.201087 
L 115.403734 128.232937 
L 114.417897 128.34985 
L 113.60206 128.242513 
L 112.961451 128.311503 
L 112.111848 128.366767 
L 111.13743 128.54536 
L 110.295452 128.935135 
L 109.465573 129.272468 
L 108.858176 129.560202 
L 107.942084 129.63919 
L 106.977296 129.687961 
L 106.476722 129.642755 
L 105.662817 129.599027 
L 104.876018 129.67919 
L 103.902852 129.736392 
L 102.833196 129.836249 
L 102.341847 129.922554 
L 101.575298 129.943527 
L 100.374963 129.988843 
L 99.338919 130.213385 
L 98.599586 130.421418 
L 97.861292 130.554301 
L 97.1467 131.001001 
L 96.309679 131.338934 
L 95.304524 131.549852 
L 94.584977 132.173572 
L 93.929525 132.346158 
L 93.083114 132.59929 
L 92.141822 133.034705 
L 91.288183 133.306309 
L 90.63132 133.590637 
L 89.866652 133.810234 
L 88.716543 133.960015 
L 87.627032 134.137577 
L 86.960312 134.360533 
L 86.124605 134.601283 
L 85.400074 134.790361 
L 84.679586 134.75963 
L 83.765206 134.853569 
L 83.171712 134.894939 
L 82.346291 134.91073 
L 81.488315 134.821896 
L 80.642065 134.835082 
L 79.468235 134.912442 
L 78.665803 134.834105 
L 77.874365 134.879053 
L 77.159086 134.816407 
L 76.346636 134.745879 
L 75.447128 134.666386 
L 74.659111 134.648185 
L 73.659334 134.651513 
L 72.880596 134.720292 
L 71.990551 134.518095 
L 70.951539 134.358322 
L 70.074316 134.151391 
L 69.234586 133.972705 
L 68.433147 134.027026 
L 67.921458 134.119846 
L 67.340034 134.235195 
L 66.243024 134.331586 
L 65.229587 134.34899 
L 64.498402 134.301074 
L 63.695098 134.12285 
L 62.999146 134.281897 
L 62.026982 134.49436 
L 61.14291 134.46143 
L 60.60565 134.329955 
L 59.724626 134.097089 
L 58.485143 133.809312 
L 57.783161 133.614818 
L 56.951037 133.414693 
L 55.815548 132.965474 
L 55.052367 132.895194 
L 54.375771 132.581747 
L 53.589293 132.246751 
L 52.517462 131.904513 
L 51.82572 131.734175 
L 51.260518 130.657541 
L 50.391299 129.803441 
L 49.516404 128.863792 
L 48.799881 127.026395 
L 48.082252 124.907544 
L 47.211708 123.491153 
L 46.398053 120.817108 
L 45.359537 121.203712 
L 44.227615 120.560125 
z
" clip-path="url(#p08b5ab3c72)" style="fill: #808080; fill-opacity: 0.5; stroke: #808080; stroke-opacity: 0.5"/>
   </g>
   <g id="line2d_23">
    <path d="M 44.227615 126.738841 
L 45.359537 127.309206 
L 46.398053 127.078572 
L 47.211708 128.720371 
L 48.082252 129.635987 
L 49.516404 132.303617 
L 50.391299 133.329752 
L 51.260518 134.160912 
L 51.82572 134.86178 
L 61.14291 137.041399 
L 62.026982 137.071995 
L 63.695098 136.624579 
L 66.243024 136.546058 
L 67.921458 136.361608 
L 68.433147 136.237851 
L 69.234586 136.184087 
L 71.990551 136.731289 
L 72.880596 136.914208 
L 74.659111 136.755104 
L 85.400074 136.418942 
L 88.716543 135.554133 
L 90.63132 135.1817 
L 92.141822 134.739747 
L 93.929525 134.285126 
L 94.584977 134.160891 
L 95.304524 133.734835 
L 96.309679 133.591904 
L 98.599586 132.939112 
L 100.374963 132.607184 
L 102.833196 132.39788 
L 106.977296 132.131798 
L 108.858176 131.989757 
L 111.13743 131.324218 
L 113.60206 131.070326 
L 114.417897 131.109484 
L 117.100612 130.885974 
L 118.512381 130.672571 
L 120.550982 130.409245 
L 121.342256 130.23967 
L 125.50097 128.878488 
L 126.285799 128.741506 
L 129.087957 128.938733 
L 130.517284 129.319999 
L 131.588365 129.400374 
L 132.302111 129.850315 
L 134.784696 130.55206 
L 137.621304 131.054235 
L 141.541309 131.79137 
L 144.048376 131.81108 
L 147.561009 131.934156 
L 148.850478 132.027973 
L 149.819785 131.983753 
L 152.485716 132.440322 
L 155.011178 133.22503 
L 159.250419 134.140757 
L 159.943609 134.365475 
L 164.939563 135.322338 
L 167.622529 136.088821 
L 169.82372 136.92838 
L 170.666874 137.288598 
L 172.782832 137.856999 
L 174.097904 138.461368 
L 177.774965 139.635758 
L 178.939148 140.301246 
L 185.166587 141.539065 
L 189.22386 142.145166 
L 192.302741 142.250337 
L 195.794867 142.10982 
L 196.758666 142.155659 
L 198.335913 142.139295 
L 202.455952 142.180852 
L 203.518562 142.32623 
L 204.824494 142.874731 
L 207.642943 143.483858 
L 210.803324 143.780893 
L 211.467193 143.936778 
L 216.719659 144.355995 
L 218.631978 144.625544 
L 222.416227 145.007806 
L 224.055584 145.105487 
L 226.277397 145.132406 
L 227.646675 144.942764 
L 229.323144 144.819739 
L 237.840571 144.328849 
L 241.003899 144.265921 
L 243.867645 144.323156 
L 253.168553 143.625232 
L 254.8878 143.519757 
L 256.833793 143.481522 
L 258.614258 143.382267 
L 260.224073 143.333563 
L 262.865642 143.18949 
L 263.88397 143.366137 
L 266.217809 143.419376 
L 268.745543 143.320381 
L 273.598973 143.86368 
L 274.33418 144.035111 
L 277.972697 144.471455 
L 280.420209 144.981633 
L 284.722551 145.807427 
L 291.440389 146.552679 
L 297.201934 146.877137 
L 299.972039 147.33145 
L 303.079115 147.156838 
L 309.169915 147.005782 
L 312.088436 147.162381 
L 315.314693 146.964506 
L 318.72844 146.697397 
L 320.562585 146.651792 
L 328.18346 146.395267 
L 331.170153 146.128519 
L 333.162122 145.944518 
L 337.281295 145.827481 
L 341.746276 145.70439 
L 346.414988 145.865716 
L 348.880058 145.864591 
L 354.687292 146.234712 
L 357.58995 146.21992 
L 362.71913 146.395862 
L 363.94724 146.410571 
L 368.333943 146.550678 
L 370.625512 146.602023 
L 380.729292 146.525675 
L 383.283627 146.38861 
L 385.981905 146.511956 
L 394.157832 146.597912 
L 397.474529 146.215279 
L 398.143374 146.086936 
L 400.992217 145.829804 
L 404.968559 145.107069 
L 406.928372 144.777206 
L 408.678127 144.480447 
L 409.172931 144.350653 
L 411.053457 144.07343 
L 418.403564 142.605881 
L 422.95497 142.29199 
L 423.646638 142.332145 
L 425.289333 142.218304 
L 425.87861 142.463907 
L 431.709805 142.833487 
L 434.465273 142.801136 
L 437.243701 142.740813 
L 439.528671 142.509061 
L 442.745643 142.382007 
L 446.014209 142.214638 
L 448.895932 142.031862 
L 452.051285 141.778691 
L 458.082555 141.363936 
L 459.498509 141.345617 
L 461.300297 141.430168 
L 463.184239 141.42162 
L 464.626546 141.603353 
L 469.800246 141.814623 
L 471.356067 141.891922 
L 473.8914 142.203644 
L 474.640105 142.423934 
L 476.629206 142.707661 
L 480.569705 143.299413 
L 483.21944 143.405275 
L 484.538113 143.515242 
L 487.176681 143.785066 
L 490.418836 144.128916 
L 498.716049 144.441234 
L 508.283551 145.182918 
L 514.010129 145.809653 
L 515.054128 145.888607 
L 518.863584 146.734353 
L 525.530035 147.586594 
L 528.247979 147.822782 
L 534.158163 148.132475 
L 539.778151 148.179732 
L 547.173686 147.211338 
L 552.442611 146.867739 
L 560.871644 146.966723 
L 563.442439 147.049227 
L 564.98594 147.103063 
L 568.343568 147.213413 
L 570.326657 147.185631 
L 573.392653 147.003839 
L 573.97048 147.144672 
L 581.895186 147.17186 
L 582.456308 147.287166 
L 584.121879 147.272409 
L 585.713492 147.177983 
L 588.713247 146.944254 
L 592.041164 147.0661 
L 594.329028 147.13419 
L 600.920419 146.850781 
L 604.386147 147.116053 
L 606.734503 147.353537 
L 608.413806 147.536278 
L 610.213728 147.678821 
L 614.212184 148.249128 
L 614.925754 148.357814 
L 616.735937 148.421195 
L 616.735937 148.421195 
" clip-path="url(#p08b5ab3c72)" style="fill: none; stroke: #1f77b4; stroke-width: 1.5; stroke-linecap: round"/>
   </g>
   <g id="patch_3">
    <path d="M 43.585938 243.549375 
L 43.585938 21.789375 
" style="fill: none; stroke: #cccccc; stroke-linejoin: miter; stroke-linecap: square"/>
   </g>
   <g id="patch_4">
    <path d="M 601.585938 243.549375 
L 601.585938 21.789375 
" style="fill: none; stroke: #cccccc; stroke-linejoin: miter; stroke-linecap: square"/>
   </g>
   <g id="patch_5">
    <path d="M 43.585938 243.549375 
L 601.585938 243.549375 
" style="fill: none; stroke: #cccccc; stroke-linejoin: miter; stroke-linecap: square"/>
   </g>
   <g id="patch_6">
    <path d="M 43.585938 21.789375 
L 601.585938 21.789375 
" style="fill: none; stroke: #cccccc; stroke-linejoin: miter; stroke-linecap: square"/>
   </g>
   <g id="text_14">
    <!-- help others -->
    <g style="fill: #262626" transform="translate(292.901875 15.789375) scale(0.12 -0.12)">
     <defs>
      <path id="ArialMT-70" d="M 422 -1272 
L 422 3319 
L 934 3319 
L 934 2888 
Q 1116 3141 1344 3267 
Q 1572 3394 1897 3394 
Q 2322 3394 2647 3175 
Q 2972 2956 3137 2557 
Q 3303 2159 3303 1684 
Q 3303 1175 3120 767 
Q 2938 359 2589 142 
Q 2241 -75 1856 -75 
Q 1575 -75 1351 44 
Q 1128 163 984 344 
L 984 -1272 
L 422 -1272 
z
M 931 1641 
Q 931 1000 1190 694 
Q 1450 388 1819 388 
Q 2194 388 2461 705 
Q 2728 1022 2728 1688 
Q 2728 2322 2467 2637 
Q 2206 2953 1844 2953 
Q 1484 2953 1207 2617 
Q 931 2281 931 1641 
z
" transform="scale(0.015625)"/>
      <path id="ArialMT-20" transform="scale(0.015625)"/>
     </defs>
     <use xlink:href="#ArialMT-68"/>
     <use xlink:href="#ArialMT-65" transform="translate(55.615234 0)"/>
     <use xlink:href="#ArialMT-6c" transform="translate(111.230469 0)"/>
     <use xlink:href="#ArialMT-70" transform="translate(133.447266 0)"/>
     <use xlink:href="#ArialMT-20" transform="translate(189.0625 0)"/>
     <use xlink:href="#ArialMT-6f" transform="translate(216.845703 0)"/>
     <use xlink:href="#ArialMT-74" transform="translate(272.460938 0)"/>
     <use xlink:href="#ArialMT-68" transform="translate(300.244141 0)"/>
     <use xlink:href="#ArialMT-65" transform="translate(355.859375 0)"/>
     <use xlink:href="#ArialMT-72" transform="translate(411.474609 0)"/>
     <use xlink:href="#ArialMT-73" transform="translate(444.775391 0)"/>
    </g>
   </g>
  </g>
 </g>
 <defs>
  <clipPath id="p08b5ab3c72">
   <rect x="43.585938" y="21.789375" width="558" height="221.76"/>
  </clipPath>
 </defs>
</svg>
