<?xml version="1.0" encoding="utf-8" standalone="no"?>
<!DOCTYPE svg PUBLIC "-//W3C//DTD SVG 1.1//EN"
  "http://www.w3.org/Graphics/SVG/1.1/DTD/svg11.dtd">
<svg xmlns:xlink="http://www.w3.org/1999/xlink" width="627.248125pt" height="283.57pt" viewBox="0 0 627.248125 283.57" xmlns="http://www.w3.org/2000/svg" version="1.1">
 <metadata>
  <rdf:RDF xmlns:dc="http://purl.org/dc/elements/1.1/" xmlns:cc="http://creativecommons.org/ns#" xmlns:rdf="http://www.w3.org/1999/02/22-rdf-syntax-ns#">
   <cc:Work>
    <dc:type rdf:resource="http://purl.org/dc/dcmitype/StillImage"/>
    <dc:date>2024-03-18T11:19:51.485097</dc:date>
    <dc:format>image/svg+xml</dc:format>
    <dc:creator>
     <cc:Agent>
      <dc:title>Matplotlib v3.8.3, https://matplotlib.org/</dc:title>
     </cc:Agent>
    </dc:creator>
   </cc:Work>
  </rdf:RDF>
 </metadata>
 <defs>
  <style type="text/css">*{stroke-linejoin: round; stroke-linecap: butt}</style>
 </defs>
 <g id="figure_1">
  <g id="patch_1">
   <path d="M 0 283.57 
L 627.248125 283.57 
L 627.248125 0 
L 0 0 
z
" style="fill: #ffffff"/>
  </g>
  <g id="axes_1">
   <g id="patch_2">
    <path d="M 54.096563 244.078125 
L 612.096563 244.078125 
L 612.096563 22.318125 
L 54.096563 22.318125 
z
" style="fill: #e5e5e5"/>
   </g>
   <g id="matplotlib.axis_1">
    <g id="xtick_1">
     <g id="line2d_1">
      <path d="M 54.096563 244.078125 
L 54.096563 22.318125 
" clip-path="url(#p9c90a70564)" style="fill: none; stroke: #ffffff; stroke-width: 0.8; stroke-linecap: square"/>
     </g>
     <g id="line2d_2">
      <defs>
       <path id="m77a44e1025" d="M 0 0 
L 0 3.5 
" style="stroke: #555555; stroke-width: 0.8"/>
      </defs>
      <g>
       <use xlink:href="#m77a44e1025" x="54.096563" y="244.078125" style="fill: #555555; stroke: #555555; stroke-width: 0.8"/>
      </g>
     </g>
     <g id="text_1">
      <!-- 0.0 -->
      <g style="fill: #555555" transform="translate(46.145 258.676562) scale(0.1 -0.1)">
       <defs>
        <path id="DejaVuSans-30" d="M 2034 4250 
Q 1547 4250 1301 3770 
Q 1056 3291 1056 2328 
Q 1056 1369 1301 889 
Q 1547 409 2034 409 
Q 2525 409 2770 889 
Q 3016 1369 3016 2328 
Q 3016 3291 2770 3770 
Q 2525 4250 2034 4250 
z
M 2034 4750 
Q 2819 4750 3233 4129 
Q 3647 3509 3647 2328 
Q 3647 1150 3233 529 
Q 2819 -91 2034 -91 
Q 1250 -91 836 529 
Q 422 1150 422 2328 
Q 422 3509 836 4129 
Q 1250 4750 2034 4750 
z
" transform="scale(0.015625)"/>
        <path id="DejaVuSans-2e" d="M 684 794 
L 1344 794 
L 1344 0 
L 684 0 
L 684 794 
z
" transform="scale(0.015625)"/>
       </defs>
       <use xlink:href="#DejaVuSans-30"/>
       <use xlink:href="#DejaVuSans-2e" x="63.623047"/>
       <use xlink:href="#DejaVuSans-30" x="95.410156"/>
      </g>
     </g>
    </g>
    <g id="xtick_2">
     <g id="line2d_3">
      <path d="M 165.696563 244.078125 
L 165.696563 22.318125 
" clip-path="url(#p9c90a70564)" style="fill: none; stroke: #ffffff; stroke-width: 0.8; stroke-linecap: square"/>
     </g>
     <g id="line2d_4">
      <g>
       <use xlink:href="#m77a44e1025" x="165.696563" y="244.078125" style="fill: #555555; stroke: #555555; stroke-width: 0.8"/>
      </g>
     </g>
     <g id="text_2">
      <!-- 0.2 -->
      <g style="fill: #555555" transform="translate(157.745 258.676562) scale(0.1 -0.1)">
       <defs>
        <path id="DejaVuSans-32" d="M 1228 531 
L 3431 531 
L 3431 0 
L 469 0 
L 469 531 
Q 828 903 1448 1529 
Q 2069 2156 2228 2338 
Q 2531 2678 2651 2914 
Q 2772 3150 2772 3378 
Q 2772 3750 2511 3984 
Q 2250 4219 1831 4219 
Q 1534 4219 1204 4116 
Q 875 4013 500 3803 
L 500 4441 
Q 881 4594 1212 4672 
Q 1544 4750 1819 4750 
Q 2544 4750 2975 4387 
Q 3406 4025 3406 3419 
Q 3406 3131 3298 2873 
Q 3191 2616 2906 2266 
Q 2828 2175 2409 1742 
Q 1991 1309 1228 531 
z
" transform="scale(0.015625)"/>
       </defs>
       <use xlink:href="#DejaVuSans-30"/>
       <use xlink:href="#DejaVuSans-2e" x="63.623047"/>
       <use xlink:href="#DejaVuSans-32" x="95.410156"/>
      </g>
     </g>
    </g>
    <g id="xtick_3">
     <g id="line2d_5">
      <path d="M 277.296563 244.078125 
L 277.296563 22.318125 
" clip-path="url(#p9c90a70564)" style="fill: none; stroke: #ffffff; stroke-width: 0.8; stroke-linecap: square"/>
     </g>
     <g id="line2d_6">
      <g>
       <use xlink:href="#m77a44e1025" x="277.296563" y="244.078125" style="fill: #555555; stroke: #555555; stroke-width: 0.8"/>
      </g>
     </g>
     <g id="text_3">
      <!-- 0.4 -->
      <g style="fill: #555555" transform="translate(269.345 258.676562) scale(0.1 -0.1)">
       <defs>
        <path id="DejaVuSans-34" d="M 2419 4116 
L 825 1625 
L 2419 1625 
L 2419 4116 
z
M 2253 4666 
L 3047 4666 
L 3047 1625 
L 3713 1625 
L 3713 1100 
L 3047 1100 
L 3047 0 
L 2419 0 
L 2419 1100 
L 313 1100 
L 313 1709 
L 2253 4666 
z
" transform="scale(0.015625)"/>
       </defs>
       <use xlink:href="#DejaVuSans-30"/>
       <use xlink:href="#DejaVuSans-2e" x="63.623047"/>
       <use xlink:href="#DejaVuSans-34" x="95.410156"/>
      </g>
     </g>
    </g>
    <g id="xtick_4">
     <g id="line2d_7">
      <path d="M 388.896563 244.078125 
L 388.896563 22.318125 
" clip-path="url(#p9c90a70564)" style="fill: none; stroke: #ffffff; stroke-width: 0.8; stroke-linecap: square"/>
     </g>
     <g id="line2d_8">
      <g>
       <use xlink:href="#m77a44e1025" x="388.896563" y="244.078125" style="fill: #555555; stroke: #555555; stroke-width: 0.8"/>
      </g>
     </g>
     <g id="text_4">
      <!-- 0.6 -->
      <g style="fill: #555555" transform="translate(380.945 258.676562) scale(0.1 -0.1)">
       <defs>
        <path id="DejaVuSans-36" d="M 2113 2584 
Q 1688 2584 1439 2293 
Q 1191 2003 1191 1497 
Q 1191 994 1439 701 
Q 1688 409 2113 409 
Q 2538 409 2786 701 
Q 3034 994 3034 1497 
Q 3034 2003 2786 2293 
Q 2538 2584 2113 2584 
z
M 3366 4563 
L 3366 3988 
Q 3128 4100 2886 4159 
Q 2644 4219 2406 4219 
Q 1781 4219 1451 3797 
Q 1122 3375 1075 2522 
Q 1259 2794 1537 2939 
Q 1816 3084 2150 3084 
Q 2853 3084 3261 2657 
Q 3669 2231 3669 1497 
Q 3669 778 3244 343 
Q 2819 -91 2113 -91 
Q 1303 -91 875 529 
Q 447 1150 447 2328 
Q 447 3434 972 4092 
Q 1497 4750 2381 4750 
Q 2619 4750 2861 4703 
Q 3103 4656 3366 4563 
z
" transform="scale(0.015625)"/>
       </defs>
       <use xlink:href="#DejaVuSans-30"/>
       <use xlink:href="#DejaVuSans-2e" x="63.623047"/>
       <use xlink:href="#DejaVuSans-36" x="95.410156"/>
      </g>
     </g>
    </g>
    <g id="xtick_5">
     <g id="line2d_9">
      <path d="M 500.496563 244.078125 
L 500.496563 22.318125 
" clip-path="url(#p9c90a70564)" style="fill: none; stroke: #ffffff; stroke-width: 0.8; stroke-linecap: square"/>
     </g>
     <g id="line2d_10">
      <g>
       <use xlink:href="#m77a44e1025" x="500.496563" y="244.078125" style="fill: #555555; stroke: #555555; stroke-width: 0.8"/>
      </g>
     </g>
     <g id="text_5">
      <!-- 0.8 -->
      <g style="fill: #555555" transform="translate(492.545 258.676562) scale(0.1 -0.1)">
       <defs>
        <path id="DejaVuSans-38" d="M 2034 2216 
Q 1584 2216 1326 1975 
Q 1069 1734 1069 1313 
Q 1069 891 1326 650 
Q 1584 409 2034 409 
Q 2484 409 2743 651 
Q 3003 894 3003 1313 
Q 3003 1734 2745 1975 
Q 2488 2216 2034 2216 
z
M 1403 2484 
Q 997 2584 770 2862 
Q 544 3141 544 3541 
Q 544 4100 942 4425 
Q 1341 4750 2034 4750 
Q 2731 4750 3128 4425 
Q 3525 4100 3525 3541 
Q 3525 3141 3298 2862 
Q 3072 2584 2669 2484 
Q 3125 2378 3379 2068 
Q 3634 1759 3634 1313 
Q 3634 634 3220 271 
Q 2806 -91 2034 -91 
Q 1263 -91 848 271 
Q 434 634 434 1313 
Q 434 1759 690 2068 
Q 947 2378 1403 2484 
z
M 1172 3481 
Q 1172 3119 1398 2916 
Q 1625 2713 2034 2713 
Q 2441 2713 2670 2916 
Q 2900 3119 2900 3481 
Q 2900 3844 2670 4047 
Q 2441 4250 2034 4250 
Q 1625 4250 1398 4047 
Q 1172 3844 1172 3481 
z
" transform="scale(0.015625)"/>
       </defs>
       <use xlink:href="#DejaVuSans-30"/>
       <use xlink:href="#DejaVuSans-2e" x="63.623047"/>
       <use xlink:href="#DejaVuSans-38" x="95.410156"/>
      </g>
     </g>
    </g>
    <g id="xtick_6">
     <g id="line2d_11">
      <path d="M 612.096563 244.078125 
L 612.096563 22.318125 
" clip-path="url(#p9c90a70564)" style="fill: none; stroke: #ffffff; stroke-width: 0.8; stroke-linecap: square"/>
     </g>
     <g id="line2d_12">
      <g>
       <use xlink:href="#m77a44e1025" x="612.096563" y="244.078125" style="fill: #555555; stroke: #555555; stroke-width: 0.8"/>
      </g>
     </g>
     <g id="text_6">
      <!-- 1.0 -->
      <g style="fill: #555555" transform="translate(604.145 258.676562) scale(0.1 -0.1)">
       <defs>
        <path id="DejaVuSans-31" d="M 794 531 
L 1825 531 
L 1825 4091 
L 703 3866 
L 703 4441 
L 1819 4666 
L 2450 4666 
L 2450 531 
L 3481 531 
L 3481 0 
L 794 0 
L 794 531 
z
" transform="scale(0.015625)"/>
       </defs>
       <use xlink:href="#DejaVuSans-31"/>
       <use xlink:href="#DejaVuSans-2e" x="63.623047"/>
       <use xlink:href="#DejaVuSans-30" x="95.410156"/>
      </g>
     </g>
    </g>
    <g id="text_7">
     <!-- mu-logistic-whaling-success -->
     <g style="fill: #555555" transform="translate(248.896875 273.874375) scale(0.12 -0.12)">
      <defs>
       <path id="DejaVuSans-6d" d="M 3328 2828 
Q 3544 3216 3844 3400 
Q 4144 3584 4550 3584 
Q 5097 3584 5394 3201 
Q 5691 2819 5691 2113 
L 5691 0 
L 5113 0 
L 5113 2094 
Q 5113 2597 4934 2840 
Q 4756 3084 4391 3084 
Q 3944 3084 3684 2787 
Q 3425 2491 3425 1978 
L 3425 0 
L 2847 0 
L 2847 2094 
Q 2847 2600 2669 2842 
Q 2491 3084 2119 3084 
Q 1678 3084 1418 2786 
Q 1159 2488 1159 1978 
L 1159 0 
L 581 0 
L 581 3500 
L 1159 3500 
L 1159 2956 
Q 1356 3278 1631 3431 
Q 1906 3584 2284 3584 
Q 2666 3584 2933 3390 
Q 3200 3197 3328 2828 
z
" transform="scale(0.015625)"/>
       <path id="DejaVuSans-75" d="M 544 1381 
L 544 3500 
L 1119 3500 
L 1119 1403 
Q 1119 906 1312 657 
Q 1506 409 1894 409 
Q 2359 409 2629 706 
Q 2900 1003 2900 1516 
L 2900 3500 
L 3475 3500 
L 3475 0 
L 2900 0 
L 2900 538 
Q 2691 219 2414 64 
Q 2138 -91 1772 -91 
Q 1169 -91 856 284 
Q 544 659 544 1381 
z
M 1991 3584 
L 1991 3584 
z
" transform="scale(0.015625)"/>
       <path id="DejaVuSans-2d" d="M 313 2009 
L 1997 2009 
L 1997 1497 
L 313 1497 
L 313 2009 
z
" transform="scale(0.015625)"/>
       <path id="DejaVuSans-6c" d="M 603 4863 
L 1178 4863 
L 1178 0 
L 603 0 
L 603 4863 
z
" transform="scale(0.015625)"/>
       <path id="DejaVuSans-6f" d="M 1959 3097 
Q 1497 3097 1228 2736 
Q 959 2375 959 1747 
Q 959 1119 1226 758 
Q 1494 397 1959 397 
Q 2419 397 2687 759 
Q 2956 1122 2956 1747 
Q 2956 2369 2687 2733 
Q 2419 3097 1959 3097 
z
M 1959 3584 
Q 2709 3584 3137 3096 
Q 3566 2609 3566 1747 
Q 3566 888 3137 398 
Q 2709 -91 1959 -91 
Q 1206 -91 779 398 
Q 353 888 353 1747 
Q 353 2609 779 3096 
Q 1206 3584 1959 3584 
z
" transform="scale(0.015625)"/>
       <path id="DejaVuSans-67" d="M 2906 1791 
Q 2906 2416 2648 2759 
Q 2391 3103 1925 3103 
Q 1463 3103 1205 2759 
Q 947 2416 947 1791 
Q 947 1169 1205 825 
Q 1463 481 1925 481 
Q 2391 481 2648 825 
Q 2906 1169 2906 1791 
z
M 3481 434 
Q 3481 -459 3084 -895 
Q 2688 -1331 1869 -1331 
Q 1566 -1331 1297 -1286 
Q 1028 -1241 775 -1147 
L 775 -588 
Q 1028 -725 1275 -790 
Q 1522 -856 1778 -856 
Q 2344 -856 2625 -561 
Q 2906 -266 2906 331 
L 2906 616 
Q 2728 306 2450 153 
Q 2172 0 1784 0 
Q 1141 0 747 490 
Q 353 981 353 1791 
Q 353 2603 747 3093 
Q 1141 3584 1784 3584 
Q 2172 3584 2450 3431 
Q 2728 3278 2906 2969 
L 2906 3500 
L 3481 3500 
L 3481 434 
z
" transform="scale(0.015625)"/>
       <path id="DejaVuSans-69" d="M 603 3500 
L 1178 3500 
L 1178 0 
L 603 0 
L 603 3500 
z
M 603 4863 
L 1178 4863 
L 1178 4134 
L 603 4134 
L 603 4863 
z
" transform="scale(0.015625)"/>
       <path id="DejaVuSans-73" d="M 2834 3397 
L 2834 2853 
Q 2591 2978 2328 3040 
Q 2066 3103 1784 3103 
Q 1356 3103 1142 2972 
Q 928 2841 928 2578 
Q 928 2378 1081 2264 
Q 1234 2150 1697 2047 
L 1894 2003 
Q 2506 1872 2764 1633 
Q 3022 1394 3022 966 
Q 3022 478 2636 193 
Q 2250 -91 1575 -91 
Q 1294 -91 989 -36 
Q 684 19 347 128 
L 347 722 
Q 666 556 975 473 
Q 1284 391 1588 391 
Q 1994 391 2212 530 
Q 2431 669 2431 922 
Q 2431 1156 2273 1281 
Q 2116 1406 1581 1522 
L 1381 1569 
Q 847 1681 609 1914 
Q 372 2147 372 2553 
Q 372 3047 722 3315 
Q 1072 3584 1716 3584 
Q 2034 3584 2315 3537 
Q 2597 3491 2834 3397 
z
" transform="scale(0.015625)"/>
       <path id="DejaVuSans-74" d="M 1172 4494 
L 1172 3500 
L 2356 3500 
L 2356 3053 
L 1172 3053 
L 1172 1153 
Q 1172 725 1289 603 
Q 1406 481 1766 481 
L 2356 481 
L 2356 0 
L 1766 0 
Q 1100 0 847 248 
Q 594 497 594 1153 
L 594 3053 
L 172 3053 
L 172 3500 
L 594 3500 
L 594 4494 
L 1172 4494 
z
" transform="scale(0.015625)"/>
       <path id="DejaVuSans-63" d="M 3122 3366 
L 3122 2828 
Q 2878 2963 2633 3030 
Q 2388 3097 2138 3097 
Q 1578 3097 1268 2742 
Q 959 2388 959 1747 
Q 959 1106 1268 751 
Q 1578 397 2138 397 
Q 2388 397 2633 464 
Q 2878 531 3122 666 
L 3122 134 
Q 2881 22 2623 -34 
Q 2366 -91 2075 -91 
Q 1284 -91 818 406 
Q 353 903 353 1747 
Q 353 2603 823 3093 
Q 1294 3584 2113 3584 
Q 2378 3584 2631 3529 
Q 2884 3475 3122 3366 
z
" transform="scale(0.015625)"/>
       <path id="DejaVuSans-77" d="M 269 3500 
L 844 3500 
L 1563 769 
L 2278 3500 
L 2956 3500 
L 3675 769 
L 4391 3500 
L 4966 3500 
L 4050 0 
L 3372 0 
L 2619 2869 
L 1863 0 
L 1184 0 
L 269 3500 
z
" transform="scale(0.015625)"/>
       <path id="DejaVuSans-68" d="M 3513 2113 
L 3513 0 
L 2938 0 
L 2938 2094 
Q 2938 2591 2744 2837 
Q 2550 3084 2163 3084 
Q 1697 3084 1428 2787 
Q 1159 2491 1159 1978 
L 1159 0 
L 581 0 
L 581 4863 
L 1159 4863 
L 1159 2956 
Q 1366 3272 1645 3428 
Q 1925 3584 2291 3584 
Q 2894 3584 3203 3211 
Q 3513 2838 3513 2113 
z
" transform="scale(0.015625)"/>
       <path id="DejaVuSans-61" d="M 2194 1759 
Q 1497 1759 1228 1600 
Q 959 1441 959 1056 
Q 959 750 1161 570 
Q 1363 391 1709 391 
Q 2188 391 2477 730 
Q 2766 1069 2766 1631 
L 2766 1759 
L 2194 1759 
z
M 3341 1997 
L 3341 0 
L 2766 0 
L 2766 531 
Q 2569 213 2275 61 
Q 1981 -91 1556 -91 
Q 1019 -91 701 211 
Q 384 513 384 1019 
Q 384 1609 779 1909 
Q 1175 2209 1959 2209 
L 2766 2209 
L 2766 2266 
Q 2766 2663 2505 2880 
Q 2244 3097 1772 3097 
Q 1472 3097 1187 3025 
Q 903 2953 641 2809 
L 641 3341 
Q 956 3463 1253 3523 
Q 1550 3584 1831 3584 
Q 2591 3584 2966 3190 
Q 3341 2797 3341 1997 
z
" transform="scale(0.015625)"/>
       <path id="DejaVuSans-6e" d="M 3513 2113 
L 3513 0 
L 2938 0 
L 2938 2094 
Q 2938 2591 2744 2837 
Q 2550 3084 2163 3084 
Q 1697 3084 1428 2787 
Q 1159 2491 1159 1978 
L 1159 0 
L 581 0 
L 581 3500 
L 1159 3500 
L 1159 2956 
Q 1366 3272 1645 3428 
Q 1925 3584 2291 3584 
Q 2894 3584 3203 3211 
Q 3513 2838 3513 2113 
z
" transform="scale(0.015625)"/>
       <path id="DejaVuSans-65" d="M 3597 1894 
L 3597 1613 
L 953 1613 
Q 991 1019 1311 708 
Q 1631 397 2203 397 
Q 2534 397 2845 478 
Q 3156 559 3463 722 
L 3463 178 
Q 3153 47 2828 -22 
Q 2503 -91 2169 -91 
Q 1331 -91 842 396 
Q 353 884 353 1716 
Q 353 2575 817 3079 
Q 1281 3584 2069 3584 
Q 2775 3584 3186 3129 
Q 3597 2675 3597 1894 
z
M 3022 2063 
Q 3016 2534 2758 2815 
Q 2500 3097 2075 3097 
Q 1594 3097 1305 2825 
Q 1016 2553 972 2059 
L 3022 2063 
z
" transform="scale(0.015625)"/>
      </defs>
      <use xlink:href="#DejaVuSans-6d"/>
      <use xlink:href="#DejaVuSans-75" x="97.412109"/>
      <use xlink:href="#DejaVuSans-2d" x="160.791016"/>
      <use xlink:href="#DejaVuSans-6c" x="196.875"/>
      <use xlink:href="#DejaVuSans-6f" x="224.658203"/>
      <use xlink:href="#DejaVuSans-67" x="285.839844"/>
      <use xlink:href="#DejaVuSans-69" x="349.316406"/>
      <use xlink:href="#DejaVuSans-73" x="377.099609"/>
      <use xlink:href="#DejaVuSans-74" x="429.199219"/>
      <use xlink:href="#DejaVuSans-69" x="468.408203"/>
      <use xlink:href="#DejaVuSans-63" x="496.191406"/>
      <use xlink:href="#DejaVuSans-2d" x="551.171875"/>
      <use xlink:href="#DejaVuSans-77" x="587.255859"/>
      <use xlink:href="#DejaVuSans-68" x="669.042969"/>
      <use xlink:href="#DejaVuSans-61" x="732.421875"/>
      <use xlink:href="#DejaVuSans-6c" x="793.701172"/>
      <use xlink:href="#DejaVuSans-69" x="821.484375"/>
      <use xlink:href="#DejaVuSans-6e" x="849.267578"/>
      <use xlink:href="#DejaVuSans-67" x="912.646484"/>
      <use xlink:href="#DejaVuSans-2d" x="976.123047"/>
      <use xlink:href="#DejaVuSans-73" x="1012.207031"/>
      <use xlink:href="#DejaVuSans-75" x="1064.306641"/>
      <use xlink:href="#DejaVuSans-63" x="1127.685547"/>
      <use xlink:href="#DejaVuSans-63" x="1182.666016"/>
      <use xlink:href="#DejaVuSans-65" x="1237.646484"/>
      <use xlink:href="#DejaVuSans-73" x="1299.169922"/>
      <use xlink:href="#DejaVuSans-73" x="1351.269531"/>
     </g>
    </g>
   </g>
   <g id="matplotlib.axis_2">
    <g id="ytick_1">
     <g id="line2d_13">
      <path d="M 54.096563 244.078125 
L 612.096563 244.078125 
" clip-path="url(#p9c90a70564)" style="fill: none; stroke: #ffffff; stroke-width: 0.8; stroke-linecap: square"/>
     </g>
     <g id="line2d_14">
      <defs>
       <path id="ma5272544ce" d="M 0 0 
L -3.5 0 
" style="stroke: #555555; stroke-width: 0.8"/>
      </defs>
      <g>
       <use xlink:href="#ma5272544ce" x="54.096563" y="244.078125" style="fill: #555555; stroke: #555555; stroke-width: 0.8"/>
      </g>
     </g>
     <g id="text_8">
      <!-- −0.4 -->
      <g style="fill: #555555" transform="translate(22.81375 247.877344) scale(0.1 -0.1)">
       <defs>
        <path id="DejaVuSans-2212" d="M 678 2272 
L 4684 2272 
L 4684 1741 
L 678 1741 
L 678 2272 
z
" transform="scale(0.015625)"/>
       </defs>
       <use xlink:href="#DejaVuSans-2212"/>
       <use xlink:href="#DejaVuSans-30" x="83.789062"/>
       <use xlink:href="#DejaVuSans-2e" x="147.412109"/>
       <use xlink:href="#DejaVuSans-34" x="179.199219"/>
      </g>
     </g>
    </g>
    <g id="ytick_2">
     <g id="line2d_15">
      <path d="M 54.096563 212.398125 
L 612.096563 212.398125 
" clip-path="url(#p9c90a70564)" style="fill: none; stroke: #ffffff; stroke-width: 0.8; stroke-linecap: square"/>
     </g>
     <g id="line2d_16">
      <g>
       <use xlink:href="#ma5272544ce" x="54.096563" y="212.398125" style="fill: #555555; stroke: #555555; stroke-width: 0.8"/>
      </g>
     </g>
     <g id="text_9">
      <!-- −0.3 -->
      <g style="fill: #555555" transform="translate(22.81375 216.197344) scale(0.1 -0.1)">
       <defs>
        <path id="DejaVuSans-33" d="M 2597 2516 
Q 3050 2419 3304 2112 
Q 3559 1806 3559 1356 
Q 3559 666 3084 287 
Q 2609 -91 1734 -91 
Q 1441 -91 1130 -33 
Q 819 25 488 141 
L 488 750 
Q 750 597 1062 519 
Q 1375 441 1716 441 
Q 2309 441 2620 675 
Q 2931 909 2931 1356 
Q 2931 1769 2642 2001 
Q 2353 2234 1838 2234 
L 1294 2234 
L 1294 2753 
L 1863 2753 
Q 2328 2753 2575 2939 
Q 2822 3125 2822 3475 
Q 2822 3834 2567 4026 
Q 2313 4219 1838 4219 
Q 1578 4219 1281 4162 
Q 984 4106 628 3988 
L 628 4550 
Q 988 4650 1302 4700 
Q 1616 4750 1894 4750 
Q 2613 4750 3031 4423 
Q 3450 4097 3450 3541 
Q 3450 3153 3228 2886 
Q 3006 2619 2597 2516 
z
" transform="scale(0.015625)"/>
       </defs>
       <use xlink:href="#DejaVuSans-2212"/>
       <use xlink:href="#DejaVuSans-30" x="83.789062"/>
       <use xlink:href="#DejaVuSans-2e" x="147.412109"/>
       <use xlink:href="#DejaVuSans-33" x="179.199219"/>
      </g>
     </g>
    </g>
    <g id="ytick_3">
     <g id="line2d_17">
      <path d="M 54.096563 180.718125 
L 612.096563 180.718125 
" clip-path="url(#p9c90a70564)" style="fill: none; stroke: #ffffff; stroke-width: 0.8; stroke-linecap: square"/>
     </g>
     <g id="line2d_18">
      <g>
       <use xlink:href="#ma5272544ce" x="54.096563" y="180.718125" style="fill: #555555; stroke: #555555; stroke-width: 0.8"/>
      </g>
     </g>
     <g id="text_10">
      <!-- −0.2 -->
      <g style="fill: #555555" transform="translate(22.81375 184.517344) scale(0.1 -0.1)">
       <use xlink:href="#DejaVuSans-2212"/>
       <use xlink:href="#DejaVuSans-30" x="83.789062"/>
       <use xlink:href="#DejaVuSans-2e" x="147.412109"/>
       <use xlink:href="#DejaVuSans-32" x="179.199219"/>
      </g>
     </g>
    </g>
    <g id="ytick_4">
     <g id="line2d_19">
      <path d="M 54.096563 149.038125 
L 612.096563 149.038125 
" clip-path="url(#p9c90a70564)" style="fill: none; stroke: #ffffff; stroke-width: 0.8; stroke-linecap: square"/>
     </g>
     <g id="line2d_20">
      <g>
       <use xlink:href="#ma5272544ce" x="54.096563" y="149.038125" style="fill: #555555; stroke: #555555; stroke-width: 0.8"/>
      </g>
     </g>
     <g id="text_11">
      <!-- −0.1 -->
      <g style="fill: #555555" transform="translate(22.81375 152.837344) scale(0.1 -0.1)">
       <use xlink:href="#DejaVuSans-2212"/>
       <use xlink:href="#DejaVuSans-30" x="83.789062"/>
       <use xlink:href="#DejaVuSans-2e" x="147.412109"/>
       <use xlink:href="#DejaVuSans-31" x="179.199219"/>
      </g>
     </g>
    </g>
    <g id="ytick_5">
     <g id="line2d_21">
      <path d="M 54.096563 117.358125 
L 612.096563 117.358125 
" clip-path="url(#p9c90a70564)" style="fill: none; stroke: #ffffff; stroke-width: 0.8; stroke-linecap: square"/>
     </g>
     <g id="line2d_22">
      <g>
       <use xlink:href="#ma5272544ce" x="54.096563" y="117.358125" style="fill: #555555; stroke: #555555; stroke-width: 0.8"/>
      </g>
     </g>
     <g id="text_12">
      <!-- 0.0 -->
      <g style="fill: #555555" transform="translate(31.193438 121.157344) scale(0.1 -0.1)">
       <use xlink:href="#DejaVuSans-30"/>
       <use xlink:href="#DejaVuSans-2e" x="63.623047"/>
       <use xlink:href="#DejaVuSans-30" x="95.410156"/>
      </g>
     </g>
    </g>
    <g id="ytick_6">
     <g id="line2d_23">
      <path d="M 54.096563 85.678125 
L 612.096563 85.678125 
" clip-path="url(#p9c90a70564)" style="fill: none; stroke: #ffffff; stroke-width: 0.8; stroke-linecap: square"/>
     </g>
     <g id="line2d_24">
      <g>
       <use xlink:href="#ma5272544ce" x="54.096563" y="85.678125" style="fill: #555555; stroke: #555555; stroke-width: 0.8"/>
      </g>
     </g>
     <g id="text_13">
      <!-- 0.1 -->
      <g style="fill: #555555" transform="translate(31.193438 89.477344) scale(0.1 -0.1)">
       <use xlink:href="#DejaVuSans-30"/>
       <use xlink:href="#DejaVuSans-2e" x="63.623047"/>
       <use xlink:href="#DejaVuSans-31" x="95.410156"/>
      </g>
     </g>
    </g>
    <g id="ytick_7">
     <g id="line2d_25">
      <path d="M 54.096563 53.998125 
L 612.096563 53.998125 
" clip-path="url(#p9c90a70564)" style="fill: none; stroke: #ffffff; stroke-width: 0.8; stroke-linecap: square"/>
     </g>
     <g id="line2d_26">
      <g>
       <use xlink:href="#ma5272544ce" x="54.096563" y="53.998125" style="fill: #555555; stroke: #555555; stroke-width: 0.8"/>
      </g>
     </g>
     <g id="text_14">
      <!-- 0.2 -->
      <g style="fill: #555555" transform="translate(31.193438 57.797344) scale(0.1 -0.1)">
       <use xlink:href="#DejaVuSans-30"/>
       <use xlink:href="#DejaVuSans-2e" x="63.623047"/>
       <use xlink:href="#DejaVuSans-32" x="95.410156"/>
      </g>
     </g>
    </g>
    <g id="ytick_8">
     <g id="line2d_27">
      <path d="M 54.096563 22.318125 
L 612.096563 22.318125 
" clip-path="url(#p9c90a70564)" style="fill: none; stroke: #ffffff; stroke-width: 0.8; stroke-linecap: square"/>
     </g>
     <g id="line2d_28">
      <g>
       <use xlink:href="#ma5272544ce" x="54.096563" y="22.318125" style="fill: #555555; stroke: #555555; stroke-width: 0.8"/>
      </g>
     </g>
     <g id="text_15">
      <!-- 0.3 -->
      <g style="fill: #555555" transform="translate(31.193438 26.117344) scale(0.1 -0.1)">
       <use xlink:href="#DejaVuSans-30"/>
       <use xlink:href="#DejaVuSans-2e" x="63.623047"/>
       <use xlink:href="#DejaVuSans-33" x="95.410156"/>
      </g>
     </g>
    </g>
    <g id="text_16">
     <!-- score -->
     <g style="fill: #555555" transform="translate(16.318125 149.3175) rotate(-90) scale(0.12 -0.12)">
      <defs>
       <path id="DejaVuSans-72" d="M 2631 2963 
Q 2534 3019 2420 3045 
Q 2306 3072 2169 3072 
Q 1681 3072 1420 2755 
Q 1159 2438 1159 1844 
L 1159 0 
L 581 0 
L 581 3500 
L 1159 3500 
L 1159 2956 
Q 1341 3275 1631 3429 
Q 1922 3584 2338 3584 
Q 2397 3584 2469 3576 
Q 2541 3569 2628 3553 
L 2631 2963 
z
" transform="scale(0.015625)"/>
      </defs>
      <use xlink:href="#DejaVuSans-73"/>
      <use xlink:href="#DejaVuSans-63" x="52.099609"/>
      <use xlink:href="#DejaVuSans-6f" x="107.080078"/>
      <use xlink:href="#DejaVuSans-72" x="168.261719"/>
      <use xlink:href="#DejaVuSans-65" x="207.125"/>
     </g>
    </g>
   </g>
   <g id="PolyCollection_1">
    <path d="M 54.73824 77.866764 
L 54.73824 89.608156 
L 55.870162 87.931985 
L 56.908678 86.737606 
L 57.722333 87.202707 
L 58.592877 87.491696 
L 59.310506 88.166732 
L 60.027029 88.478515 
L 60.901924 88.443853 
L 61.771143 88.184936 
L 62.336345 87.620408 
L 63.028087 87.42929 
L 64.099918 87.33187 
L 64.886396 87.448466 
L 65.562992 87.544116 
L 66.326173 87.451029 
L 67.461662 87.495568 
L 68.293786 87.633676 
L 68.995768 87.707304 
L 70.235251 87.702101 
L 71.116275 87.659559 
L 71.653535 87.533506 
L 72.537607 87.424872 
L 73.509771 87.230765 
L 74.205723 87.142213 
L 75.009027 87.07063 
L 75.740212 87.094424 
L 76.753649 87.130549 
L 77.850659 87.161074 
L 78.432083 87.33599 
L 78.943772 87.267203 
L 79.745211 87.159682 
L 80.584941 87.224504 
L 81.462164 87.313076 
L 82.501176 87.302654 
L 83.391221 87.304148 
L 84.169959 87.37132 
L 85.169736 87.439069 
L 85.957753 87.439418 
L 86.857261 87.459402 
L 87.669711 87.42072 
L 88.38499 87.273082 
L 89.176428 87.154877 
L 89.97886 87.212588 
L 91.15269 87.019424 
L 91.99894 86.939038 
L 92.856916 86.756043 
L 93.682337 86.53016 
L 94.275831 86.376595 
L 95.190211 86.33177 
L 95.910699 86.199131 
L 96.63523 86.190765 
L 97.470937 86.129359 
L 98.137657 86.12366 
L 99.227168 85.998358 
L 100.377277 86.035803 
L 101.141945 86.023685 
L 101.798808 85.922638 
L 102.652447 85.900975 
L 103.593739 85.985337 
L 104.44015 85.960861 
L 105.095602 85.939776 
L 105.815149 85.893913 
L 106.820304 85.882762 
L 107.657325 85.851285 
L 108.371917 85.724286 
L 109.110211 85.682083 
L 109.849544 85.665507 
L 110.885588 85.664497 
L 112.085923 85.551594 
L 112.852472 85.5578 
L 113.343821 85.688924 
L 114.413477 85.653983 
L 115.386643 85.615207 
L 116.173442 85.642772 
L 116.987347 85.685629 
L 117.487921 85.692007 
L 118.452709 85.796803 
L 119.368801 85.851051 
L 119.976198 85.886611 
L 120.806077 85.906836 
L 121.648055 85.987449 
L 122.622473 86.093887 
L 123.472076 86.176639 
L 124.112685 86.320402 
L 124.928522 86.400062 
L 125.914359 86.503234 
L 126.922697 86.696323 
L 127.611237 86.82551 
L 128.202144 87.034328 
L 129.023006 87.130852 
L 130.162222 87.25077 
L 131.061607 87.396754 
L 131.852881 87.483297 
L 132.89752 87.54593 
L 133.775964 87.838473 
L 134.416137 87.909843 
L 135.127255 88.076049 
L 136.011595 88.293914 
L 136.796424 88.371866 
L 137.694947 88.490226 
L 138.583164 88.609403 
L 139.598582 88.748808 
L 140.370434 88.908665 
L 141.027909 89.000179 
L 142.09899 89.158058 
L 142.812736 89.175595 
L 143.599914 89.38207 
L 144.432873 89.543254 
L 145.295321 89.859278 
L 146.448053 90.102675 
L 147.30099 90.224315 
L 148.131929 90.334871 
L 148.991307 90.674291 
L 149.655081 90.877068 
L 150.291093 90.981061 
L 151.209674 91.260591 
L 152.051934 91.570486 
L 152.830514 91.737337 
L 153.701995 91.904942 
L 154.559001 92.138801 
L 155.620877 92.352896 
L 156.601078 92.649797 
L 157.320726 92.762498 
L 158.071634 92.987384 
L 158.795719 93.187433 
L 159.361103 93.244853 
L 160.33041 93.347295 
L 161.384666 93.581563 
L 162.11776 93.831138 
L 162.996341 94.001665 
L 163.781464 94.434057 
L 164.654203 94.677997 
L 165.521803 94.902141 
L 166.341681 94.920728 
L 167.138766 95.067896 
L 167.674552 95.315293 
L 168.710334 95.426586 
L 169.761044 95.681916 
L 170.454234 95.94705 
L 171.336846 96.240505 
L 172.271788 96.446218 
L 172.907295 96.641303 
L 173.629591 96.752613 
L 174.556242 96.860269 
L 175.450188 97.040975 
L 176.161282 97.217548 
L 177.164379 97.355205 
L 178.133154 97.527231 
L 178.936931 97.552257 
L 179.77478 97.648389 
L 180.334345 97.818022 
L 181.177499 97.951958 
L 182.292341 98.095096 
L 183.293457 98.268653 
L 183.862497 98.456811 
L 184.608529 98.6051 
L 185.49292 98.713687 
L 186.109279 98.897756 
L 187.068463 99.13449 
L 188.28559 99.55379 
L 188.874033 99.956444 
L 189.449773 100.366514 
L 190.44742 100.718308 
L 191.393732 100.997941 
L 192.341631 101.257427 
L 192.952365 101.42381 
L 193.680657 101.825316 
L 194.660727 102.069772 
L 195.677212 102.273103 
L 196.707784 102.622846 
L 197.190687 102.99591 
L 198.082641 103.472113 
L 198.899052 103.896363 
L 199.734485 104.16883 
L 200.788727 104.413821 
L 201.437107 104.535948 
L 202.0955 104.752734 
L 202.813366 105.048174 
L 203.830451 105.231861 
L 204.809365 105.476747 
L 205.694036 105.503794 
L 206.305492 105.889314 
L 207.269291 106.004071 
L 208.242044 105.898281 
L 208.846538 106.128115 
L 209.900446 106.265873 
L 210.763054 106.046561 
L 211.623692 106.089963 
L 212.4485 106.047768 
L 212.966577 106.10291 
L 214.029187 106.015361 
L 214.860917 106.101842 
L 215.335119 106.343877 
L 216.130852 106.318139 
L 217.335154 106.272537 
L 218.153568 106.283604 
L 218.833074 106.279417 
L 219.82467 106.460198 
L 220.588263 106.533143 
L 221.313949 106.572014 
L 221.977818 106.958505 
L 222.971569 107.019701 
L 224.053433 107.238278 
L 224.999904 107.412704 
L 225.988881 107.524791 
L 226.603298 107.719625 
L 227.230284 107.855214 
L 228.183695 108.161202 
L 229.142603 108.404122 
L 230.176721 108.660917 
L 230.935007 108.746114 
L 231.71948 108.931855 
L 232.390727 109.164225 
L 232.926852 109.3129 
L 233.75756 109.519725 
L 234.566209 109.784908 
L 235.651036 110.125621 
L 236.788022 110.273576 
L 237.562798 110.296041 
L 238.1573 110.504187 
L 239.027994 110.517891 
L 239.833769 110.68288 
L 240.581225 110.80043 
L 241.459377 110.995115 
L 242.468194 111.149639 
L 243.286883 111.282379 
L 244.144117 111.377729 
L 245.130702 111.563006 
L 245.970505 111.817318 
L 246.820292 111.846636 
L 247.481458 111.835096 
L 248.351196 111.662183 
L 249.394632 111.734877 
L 250.22973 111.797119 
L 250.803097 111.791458 
L 251.514524 111.8569 
L 252.394736 111.933295 
L 253.354586 112.052506 
L 254.37827 112.26022 
L 255.305779 112.327163 
L 256.084923 112.422975 
L 256.593937 112.51681 
L 257.314264 112.56538 
L 258.39815 112.79105 
L 259.30853 112.818577 
L 260.106541 112.829918 
L 261.07898 112.955361 
L 262.05623 112.987891 
L 262.833298 113.04466 
L 263.679178 113.126587 
L 264.550821 113.256706 
L 265.398425 113.374898 
L 265.987787 113.449591 
L 266.560255 113.634502 
L 267.344418 113.690731 
L 268.109522 113.824113 
L 269.124883 113.920488 
L 270.063818 114.255851 
L 270.734698 114.370438 
L 271.667177 114.359097 
L 272.589105 114.312318 
L 273.376267 114.382436 
L 274.394595 114.535504 
L 275.338318 114.5843 
L 275.839552 114.723835 
L 276.728434 114.738897 
L 277.721871 114.567694 
L 278.374732 114.313088 
L 279.256168 114.314486 
L 280.199084 114.35721 
L 280.992173 114.472464 
L 281.640755 114.544973 
L 282.325725 114.602541 
L 283.301313 114.654189 
L 284.109598 114.780749 
L 284.844805 114.938617 
L 285.82544 115.27938 
L 286.777265 115.473076 
L 287.692539 115.589112 
L 288.483322 115.673536 
L 289.3183 115.879001 
L 290.094474 116.07874 
L 290.930834 116.260892 
L 291.755154 116.345874 
L 292.365677 116.620301 
L 293.446198 116.818924 
L 294.554764 117.04203 
L 295.233176 117.190124 
L 296.016046 117.568908 
L 296.817559 117.684631 
L 297.435204 117.735531 
L 298.390207 117.878634 
L 299.606055 117.990091 
L 300.280999 118.032126 
L 301.056764 118.061046 
L 301.951014 118.282987 
L 302.655648 118.443512 
L 303.292861 118.614605 
L 304.239163 118.786015 
L 305.491743 118.796694 
L 306.080328 118.800238 
L 306.522345 118.95392 
L 307.712559 119.069843 
L 308.893701 119.341073 
L 309.608172 119.435695 
L 310.482664 119.680485 
L 311.328566 119.82292 
L 311.7966 119.990813 
L 312.578781 120.085838 
L 313.58974 120.065172 
L 314.470675 120.046541 
L 315.276379 119.953622 
L 315.857177 119.954683 
L 316.76854 119.971953 
L 317.819357 120.031464 
L 318.704388 120.071148 
L 319.68054 120.058124 
L 320.549636 120.161983 
L 321.217239 120.259889 
L 321.762889 120.32423 
L 322.599061 120.477074 
L 323.6434 120.561958 
L 324.454507 120.562338 
L 325.086716 120.532429 
L 325.825318 120.404163 
L 326.693526 120.474437 
L 327.693728 120.496237 
L 328.482231 120.761801 
L 329.239065 120.925426 
L 330.349587 121.043361 
L 331.07321 121.035943 
L 331.949475 121.071164 
L 332.791971 121.108373 
L 333.547092 121.158465 
L 334.360121 121.154505 
L 335.093902 121.243987 
L 336.028279 121.327201 
L 336.755288 121.401263 
L 337.565125 121.475022 
L 338.694085 121.505935 
L 339.592549 121.533147 
L 340.249963 121.536192 
L 340.98752 121.570435 
L 341.680778 121.688343 
L 342.551656 121.696563 
L 343.672747 121.741164 
L 344.770969 121.753796 
L 345.451861 121.831973 
L 346.090233 121.882264 
L 346.936462 121.857433 
L 347.79192 121.900794 
L 348.534697 121.966883 
L 349.573604 122.00033 
L 350.504737 122.203142 
L 351.27445 122.257363 
L 352.256901 122.40852 
L 352.84885 122.562046 
L 353.407711 122.710396 
L 354.425571 122.962483 
L 355.56437 123.011512 
L 356.347861 123.181176 
L 356.925613 123.324649 
L 357.676629 123.474822 
L 358.533011 123.586616 
L 359.390683 123.667245 
L 360.198988 123.71136 
L 361.11794 123.756861 
L 362.022856 123.871131 
L 362.67224 123.979304 
L 363.64696 124.107983 
L 364.527815 124.150612 
L 365.197917 124.105032 
L 366.340972 124.094378 
L 367.39337 124.053508 
L 368.100575 124.167832 
L 368.723276 124.28152 
L 369.609891 124.294273 
L 370.4982 124.300847 
L 371.328112 124.320968 
L 372.284817 124.308756 
L 373.229755 124.246009 
L 373.810161 124.174512 
L 374.457865 124.274502 
L 375.579661 124.469666 
L 376.307897 124.532057 
L 377.06621 124.621519 
L 377.955937 124.744278 
L 378.844568 124.866237 
L 379.863592 124.92293 
L 380.453197 124.950741 
L 381.136137 125.193261 
L 382.030812 125.302174 
L 382.976345 125.444975 
L 384.118358 125.614072 
L 384.975861 125.916428 
L 385.535578 125.966729 
L 386.320324 126.048431 
L 387.432263 126.101768 
L 388.054071 126.174893 
L 388.745031 126.076756 
L 389.881873 126.187383 
L 390.70671 126.302708 
L 391.239917 126.307935 
L 392.04931 126.305995 
L 392.885781 126.327576 
L 393.794252 126.388354 
L 394.649206 126.527375 
L 395.419688 126.574405 
L 396.49253 126.642144 
L 397.32685 126.658303 
L 398.239854 126.754322 
L 399.023401 126.859653 
L 399.607924 126.958476 
L 400.483918 127.120561 
L 401.489307 127.245211 
L 402.389008 127.388713 
L 403.253816 127.546323 
L 404.006449 127.634063 
L 404.668457 127.828399 
L 405.372435 127.912542 
L 406.191391 127.965324 
L 407.252307 128.004694 
L 407.985154 128.037504 
L 408.653999 128.089003 
L 409.643223 128.112234 
L 410.787745 128.16735 
L 411.502842 128.158157 
L 412.069115 128.153154 
L 413.185145 128.154269 
L 414.132271 128.132868 
L 414.682204 128.126991 
L 415.479184 128.182267 
L 416.463366 128.083101 
L 417.438997 128.004671 
L 418.492581 127.914954 
L 419.188752 127.919264 
L 419.683556 127.853207 
L 420.617057 127.61889 
L 421.564082 127.528681 
L 422.362341 127.466879 
L 423.047946 127.394388 
L 424.0301 127.402339 
L 425.246121 127.360003 
L 425.936366 127.340366 
L 426.443155 127.276187 
L 427.308699 127.312054 
L 428.282539 127.279242 
L 428.914189 127.20588 
L 429.940659 127.136036 
L 430.99513 127.118941 
L 431.675018 127.161058 
L 432.500187 127.287017 
L 433.465595 127.222573 
L 434.157263 127.325522 
L 435.030033 127.297349 
L 435.799958 127.245059 
L 436.389235 127.248474 
L 437.172233 127.22173 
L 437.926555 127.191439 
L 438.780868 127.226956 
L 439.574661 127.219889 
L 440.725423 127.203992 
L 441.584201 127.227422 
L 442.22043 127.289054 
L 443.414495 127.278968 
L 444.238681 127.272724 
L 444.975898 127.297718 
L 446.047454 127.252274 
L 446.878158 127.253773 
L 447.754326 127.281611 
L 448.431225 127.286205 
L 449.047224 127.266679 
L 450.039296 127.28471 
L 450.896903 127.355589 
L 451.449857 127.440353 
L 452.258113 127.438649 
L 453.256268 127.491222 
L 453.94688 127.559417 
L 454.737199 127.592983 
L 455.581001 127.588193 
L 456.524834 127.588504 
L 457.735583 127.633863 
L 458.551275 127.606945 
L 459.406557 127.649711 
L 460.182667 127.661203 
L 460.86013 127.772721 
L 461.630181 127.819839 
L 462.56191 128.005229 
L 463.538986 127.833444 
L 464.044767 127.810079 
L 465.060408 127.853478 
L 466.263339 127.909972 
L 467.084942 127.885002 
L 467.767176 127.888312 
L 468.59318 127.942728 
L 469.343731 128.021656 
L 470.009134 128.034725 
L 470.945054 128.054536 
L 471.810922 128.070069 
L 472.674028 128.063549 
L 473.694864 128.085048 
L 474.387707 128.188981 
L 475.137171 128.220771 
L 476.142161 128.230577 
L 476.93938 128.373185 
L 477.795297 128.387583 
L 478.605848 128.404452 
L 479.340096 128.401102 
L 480.310871 128.416725 
L 481.298787 128.340898 
L 481.866692 128.352614 
L 482.483687 128.383681 
L 483.536421 128.367086 
L 484.402025 128.360423 
L 485.15073 128.437092 
L 486.21567 128.483399 
L 487.139831 128.522017 
L 487.959191 128.56443 
L 488.780642 128.593519 
L 489.568228 128.625063 
L 490.395747 128.697105 
L 491.08033 128.766682 
L 491.762601 128.829817 
L 492.783412 128.908708 
L 493.730065 128.946916 
L 494.220523 129.098146 
L 495.048738 129.203947 
L 495.905239 129.337599 
L 496.818448 129.601817 
L 497.687306 129.709276 
L 498.361695 129.841467 
L 499.300348 129.943557 
L 500.240037 130.062061 
L 500.929461 130.204347 
L 501.801313 130.282509 
L 502.694832 130.436475 
L 503.281482 130.566027 
L 504.180687 130.73074 
L 505.378114 130.841786 
L 506.231584 130.89175 
L 506.674199 130.924834 
L 507.576805 131.013306 
L 508.439283 131.066139 
L 509.226674 131.183269 
L 510.024027 131.253639 
L 510.718543 131.271573 
L 511.585976 131.295065 
L 512.61343 131.268853 
L 513.694885 131.365863 
L 514.478784 131.375528 
L 515.405567 131.395963 
L 516.361119 131.417581 
L 516.882395 131.481132 
L 517.709151 131.581653 
L 518.794176 131.644931 
L 519.407224 131.6939 
L 519.99972 131.691601 
L 520.813129 131.709342 
L 521.662999 131.82857 
L 522.566686 131.882529 
L 523.515871 132.033918 
L 524.520754 132.054979 
L 525.564753 132.075349 
L 526.32006 132.125984 
L 527.073046 132.249827 
L 527.804127 132.286583 
L 528.389878 132.384614 
L 529.374209 132.408169 
L 530.557049 132.474645 
L 531.471248 132.540707 
L 532.209458 132.595702 
L 533.123555 132.696805 
L 533.888271 132.751792 
L 534.697535 132.746909 
L 535.541016 132.77212 
L 536.04066 132.71059 
L 536.898299 132.641591 
L 538.091008 132.600243 
L 538.758604 132.59357 
L 539.582793 132.618451 
L 540.5279 132.657054 
L 541.345306 132.601379 
L 542.26933 132.584763 
L 542.964179 132.758097 
L 543.717363 132.568638 
L 544.668788 132.53875 
L 545.674892 132.531949 
L 546.352581 132.503559 
L 547.049399 132.507875 
L 547.789743 132.477556 
L 548.721617 132.578749 
L 549.737285 132.667102 
L 550.288776 132.688082 
L 550.936496 132.586538 
L 551.870874 132.561827 
L 552.944342 132.464506 
L 554.018449 132.475874 
L 554.69903 132.46407 
L 555.382427 132.439873 
L 556.116103 132.406917 
L 556.749357 132.381383 
L 557.684311 132.333773 
L 558.742726 132.323662 
L 559.704243 132.285292 
L 560.586993 132.184891 
L 561.251488 132.093095 
L 561.909201 132.008148 
L 562.953236 131.980044 
L 563.70505 131.849149 
L 564.615474 131.835123 
L 565.528593 131.835405 
L 566.208338 131.810409 
L 566.980389 131.807363 
L 567.763 131.838701 
L 568.622409 131.788385 
L 569.603373 131.754118 
L 570.530376 131.790885 
L 571.382269 131.763683 
L 572.201882 131.827414 
L 572.964885 131.825178 
L 573.953064 131.856796 
L 574.627327 131.902381 
L 575.496565 131.923773 
L 576.570173 131.944102 
L 577.303893 131.95374 
L 578.132928 131.989424 
L 578.854193 132.00165 
L 579.823516 132.073201 
L 580.837282 132.088614 
L 581.454186 132.140312 
L 582.412417 132.156753 
L 583.3636 132.173911 
L 583.903278 132.06784 
L 584.481105 132.430806 
L 585.484477 132.24325 
L 586.593381 132.172228 
L 587.330054 132.147451 
L 588.021358 132.07036 
L 588.948199 132.041603 
L 589.714984 131.973186 
L 590.319941 131.999322 
L 591.424978 131.991047 
L 592.405811 131.959943 
L 592.966933 131.959241 
L 593.773335 131.939572 
L 594.632504 131.931504 
L 595.340929 131.997869 
L 596.224117 132.052183 
L 597.294423 132.125731 
L 598.253193 132.129916 
L 599.223872 132.10877 
L 599.886828 132.15179 
L 600.544598 132.195267 
L 601.515617 132.26696 
L 602.551789 132.43212 
L 603.534707 132.458281 
L 604.247821 132.548983 
L 604.839653 132.571623 
L 605.665391 132.577198 
L 606.406178 132.605629 
L 607.187738 132.635174 
L 608.065671 132.733771 
L 608.906257 132.718139 
L 609.76512 132.694138 
L 610.481022 132.683958 
L 611.431044 132.74503 
L 612.301297 132.80209 
L 613.30566 132.838217 
L 614.327513 132.847472 
L 614.896772 132.912177 
L 615.552566 132.988106 
L 616.479437 133.073379 
L 617.245128 133.160843 
L 617.873849 133.231266 
L 618.924431 133.262634 
L 620.122398 133.298069 
L 620.724353 133.27905 
L 621.544923 133.35736 
L 622.482271 133.335932 
L 623.034404 133.393579 
L 623.883055 133.431996 
L 624.722809 133.456404 
L 625.436379 133.411483 
L 626.49683 133.440168 
L 627.406169 133.477767 
L 628.272894 133.608195 
L 629.083757 133.682545 
L 629.747408 133.652865 
L 630.925173 133.627938 
L 631.863934 133.571462 
L 632.687727 133.518388 
L 633.535278 133.474702 
L 634.225368 133.415414 
L 635.145257 133.449592 
L 636.051148 133.39954 
L 636.56944 133.375383 
L 637.193056 133.294292 
L 638.183996 133.288829 
L 639.277339 133.292205 
L 640.020598 133.29191 
L 640.67031 133.323163 
L 641.816184 133.405794 
L 642.516658 133.364803 
L 643.348069 133.318672 
L 644.180499 133.308944 
L 644.922653 133.149018 
L 645.793384 133.064916 
L 646.40331 133.040676 
L 647.261256 133.023998 
L 648.069785 133.03156 
L 648.980666 133.092296 
L 650.051184 133.187494 
L 650.833052 133.249249 
L 651.802792 133.216372 
L 652.935548 133.204899 
L 653.595242 133.182963 
L 654.07144 133.173212 
L 655.045996 133.054503 
L 655.92103 133.042726 
L 656.80097 132.999167 
L 657.701988 132.999779 
L 658.154262 132.999819 
L 658.928125 133.020917 
L 660.083196 133.02291 
L 661.076038 133.044953 
L 661.854643 133.045146 
L 662.685871 133.124059 
L 663.598336 133.159303 
L 664.453524 133.177967 
L 665.242554 133.204266 
L 666.258739 133.203961 
L 666.964554 133.194597 
L 667.613723 133.20484 
L 668.618239 133.207494 
L 669.418824 133.273927 
L 669.950571 133.275238 
L 670.944445 133.272018 
L 672.017535 133.302106 
L 672.793499 133.295557 
L 673.517344 133.256966 
L 674.167684 133.240445 
L 675.053927 133.264499 
L 675.899438 133.194947 
L 676.711637 133.058247 
L 677.686235 133.083486 
L 678.373638 133.082428 
L 679.262955 133.07027 
L 680.446544 133.116793 
L 681.074673 133.142018 
L 681.728869 133.267468 
L 682.523481 133.350115 
L 683.333939 133.365579 
L 684.497328 133.376243 
L 685.269945 133.377343 
L 686.081161 133.356416 
L 686.898932 133.406668 
L 687.637019 133.34247 
L 688.584866 133.201308 
L 689.173302 133.186937 
L 690.218827 133.08962 
L 691.134679 133.036778 
L 691.839762 132.995014 
L 692.901203 132.874405 
L 693.656845 132.82191 
L 694.351743 132.80041 
L 695.173268 132.802264 
L 696.069618 132.795756 
L 696.957641 132.723004 
L 697.597947 132.59862 
L 698.359463 132.409272 
L 699.334304 132.320339 
L 700.029094 132.21341 
L 701.09636 132.086544 
L 702.291668 131.973212 
L 702.7567 131.919693 
L 703.285154 131.842535 
L 704.506412 131.831286 
L 705.33576 131.774443 
L 705.776662 131.751709 
L 706.581878 131.694368 
L 707.724923 131.671829 
L 708.571719 131.700865 
L 709.148145 131.711188 
L 710.097843 131.74493 
L 711.270169 131.754133 
L 712.308445 131.729576 
L 712.882896 131.691949 
L 713.604828 131.669319 
L 714.521488 131.643638 
L 715.363974 131.523465 
L 716.229833 131.46765 
L 716.989313 131.393743 
L 717.780517 131.280937 
L 718.660965 131.233375 
L 719.652101 131.199132 
L 720.381587 131.215407 
L 720.987483 131.167237 
L 721.866805 131.142557 
L 722.988346 131.04414 
L 724.048967 130.940173 
L 724.852694 131.134066 
L 725.339005 131.194945 
L 726.005682 131.391119 
L 727.098166 131.516742 
L 727.758287 131.559915 
L 728.579468 131.603838 
L 729.591274 131.638868 
L 730.250896 131.722925 
L 730.955038 131.857312 
L 732.081245 131.951704 
L 732.958854 132.102048 
L 733.620844 132.232303 
L 734.625576 132.371611 
L 735.376044 132.431786 
L 736.042381 132.539553 
L 737.16771 132.563491 
L 738.21224 132.516246 
L 738.846946 132.699816 
L 739.794668 132.418209 
L 740.659174 132.138507 
L 741.440565 132.016255 
L 742.108711 131.939805 
L 742.740316 131.861268 
L 743.692951 131.794689 
L 744.789893 131.720253 
L 745.846803 131.764658 
L 746.579498 131.677848 
L 747.287164 131.525559 
L 748.164851 131.322159 
L 748.805725 131.063589 
L 749.438865 130.882435 
L 750.620339 130.791496 
L 751.592704 130.656046 
L 752.313183 130.499004 
L 753.031701 130.274396 
L 753.935353 130.128279 
L 754.629922 129.840835 
L 755.311949 129.629845 
L 756.469606 129.346562 
L 757.135317 129.137013 
L 757.962623 128.753724 
L 758.931241 128.618872 
L 759.633088 128.342628 
L 760.635193 128.221462 
L 761.541066 128.146164 
L 762.26008 127.998715 
L 763.2228 127.923016 
L 763.926924 127.814551 
L 764.535338 127.727162 
L 765.446153 127.710171 
L 766.464125 127.632149 
L 767.390564 127.544973 
L 768.290706 127.525152 
L 768.912812 127.411691 
L 769.434151 127.430742 
L 770.267052 127.45138 
L 771.362863 127.38517 
L 772.570022 127.303177 
L 773.255993 127.165562 
L 773.763097 127.039559 
L 774.550714 126.95848 
L 775.349974 126.856785 
L 776.438039 126.712498 
L 777.313282 126.623861 
L 777.839391 126.596189 
L 778.97544 126.501224 
L 779.743769 126.471218 
L 780.551571 126.44725 
L 781.410782 126.298167 
L 782.176021 126.213955 
L 783.209343 126.234365 
L 784.083367 126.112608 
L 784.692696 126.024357 
L 785.317999 125.926314 
L 786.44512 125.865188 
L 787.432168 125.736821 
L 788.272338 125.624011 
L 789.143221 125.502662 
L 790.007335 125.363097 
L 790.966895 125.212291 
L 791.817454 125.143519 
L 792.512736 125.030547 
L 793.211554 124.777606 
L 794.034216 124.664185 
L 794.714084 124.623789 
L 795.421019 124.517929 
L 796.269458 124.366596 
L 797.135495 124.285524 
L 798.027682 124.228294 
L 799.108204 124.162584 
L 800.23235 124.09078 
L 800.849318 123.942799 
L 801.609461 123.853284 
L 802.632361 123.699867 
L 803.323273 123.580464 
L 804.115617 123.451728 
L 804.881958 123.28685 
L 805.576492 123.196859 
L 806.352835 123.141553 
L 807.356313 123.000579 
L 808.460533 122.908714 
L 809.382436 122.752239 
L 810.225437 122.587935 
L 810.765605 122.312054 
L 811.466439 122.134381 
L 812.425447 122.075504 
L 813.199408 121.932146 
L 814.102033 121.869459 
L 815.217713 121.780827 
L 816.063163 121.659341 
L 816.661173 121.587223 
L 817.354487 121.544476 
L 818.321777 121.489018 
L 819.180088 121.335341 
L 820.034233 121.291654 
L 820.716766 121.24765 
L 821.283272 121.206723 
L 822.221942 121.130905 
L 823.300618 121.103366 
L 824.072728 121.070733 
L 824.954776 121.095479 
L 825.979249 121.071341 
L 826.627235 121.018459 
L 827.328828 120.932896 
L 828.148992 120.823079 
L 829.278751 120.812419 
L 830.288839 120.747261 
L 830.941416 120.758837 
L 831.820799 120.697735 
L 832.759627 120.552124 
L 833.518592 120.508128 
L 834.092423 120.478447 
L 834.962118 120.462743 
L 835.99054 120.475741 
L 836.672801 120.434341 
L 837.481487 120.370337 
L 838.193234 120.375123 
L 839.17086 120.374054 
L 840.099309 120.357472 
L 840.735276 120.381119 
L 841.685665 120.363959 
L 842.671764 120.32584 
L 843.556886 120.303895 
L 844.430838 120.294155 
L 845.342604 120.374661 
L 845.906618 120.459945 
L 846.61613 120.459138 
L 847.377649 120.549895 
L 848.152181 120.684721 
L 849.03848 120.801183 
L 849.918024 120.918832 
L 851.021275 121.186124 
L 851.709204 121.271491 
L 852.407173 121.385608 
L 853.389789 121.496436 
L 854.042513 121.642711 
L 854.952033 121.952043 
L 856.19646 122.031321 
L 856.9983 122.159711 
L 857.774456 122.373543 
L 858.50524 122.529829 
L 859.389131 122.728368 
L 860.191882 122.875811 
L 860.770179 123.178057 
L 861.823105 123.369372 
L 862.81846 123.772064 
L 863.600919 124.180752 
L 864.340324 124.727685 
L 865.091718 125.165007 
L 866.047006 125.749954 
L 867.126491 126.459307 
L 867.737383 127.120234 
L 868.584276 127.652046 
L 869.428052 128.255732 
L 869.984402 128.772549 
L 870.894429 129.788812 
L 871.597168 130.470828 
L 872.345193 131.149135 
L 873.369502 131.837257 
L 874.383712 133.037912 
L 875.320233 134.001269 
L 876.180567 134.312935 
L 876.984874 135.028009 
L 877.748448 135.40113 
L 878.725189 135.736148 
L 879.70534 135.995788 
L 880.336015 136.167664 
L 881.011271 136.444533 
L 881.703823 136.616772 
L 882.410256 136.976592 
L 883.516163 137.433387 
L 884.345527 137.815503 
L 884.946078 138.507828 
L 886.065816 139.262641 
L 886.877643 140.061154 
L 887.418377 140.247271 
L 888.607304 139.870535 
L 889.413263 139.726355 
L 890.188606 139.240284 
L 890.941305 137.146393 
L 890.941305 123.51486 
L 890.941305 123.51486 
L 890.188606 123.947546 
L 889.413263 124.218985 
L 888.607304 124.20868 
L 887.418377 124.239124 
L 886.877643 123.948064 
L 886.065816 123.764571 
L 884.946078 123.579357 
L 884.345527 123.338529 
L 883.516163 123.324209 
L 882.410256 123.339736 
L 881.703823 123.256702 
L 881.011271 123.297756 
L 880.336015 123.337572 
L 879.70534 123.328912 
L 878.725189 123.318466 
L 877.748448 123.180848 
L 876.984874 123.041337 
L 876.180567 123.159525 
L 875.320233 123.040217 
L 874.383712 122.891753 
L 873.369502 122.620304 
L 872.345193 122.253281 
L 871.597168 121.687774 
L 870.894429 121.069925 
L 869.984402 120.540606 
L 869.428052 120.159521 
L 868.584276 119.647877 
L 867.737383 119.019432 
L 867.126491 118.522489 
L 866.047006 117.982407 
L 865.091718 117.553246 
L 864.340324 117.044186 
L 863.600919 116.518391 
L 862.81846 116.063587 
L 861.823105 115.654209 
L 860.770179 115.367667 
L 860.191882 115.091168 
L 859.389131 114.873887 
L 858.50524 114.695384 
L 857.774456 114.425416 
L 856.9983 114.09931 
L 856.19646 113.864083 
L 854.952033 113.667963 
L 854.042513 113.361086 
L 853.389789 112.968896 
L 852.407173 112.854252 
L 851.709204 112.708616 
L 851.021275 112.59895 
L 849.918024 112.568431 
L 849.03848 112.354609 
L 848.152181 112.299061 
L 847.377649 112.175323 
L 846.61613 111.871253 
L 845.906618 111.643109 
L 845.342604 111.419789 
L 844.430838 111.327838 
L 843.556886 111.218213 
L 842.671764 111.132027 
L 841.685665 111.208854 
L 840.735276 111.227056 
L 840.099309 110.993003 
L 839.17086 111.178188 
L 838.193234 111.264587 
L 837.481487 111.517632 
L 836.672801 111.712405 
L 835.99054 111.836774 
L 834.962118 112.069194 
L 834.092423 112.144111 
L 833.518592 112.149657 
L 832.759627 112.225456 
L 831.820799 112.382695 
L 830.941416 112.525277 
L 830.288839 112.675227 
L 829.278751 112.79082 
L 828.148992 113.075935 
L 827.328828 113.191048 
L 826.627235 113.42329 
L 825.979249 113.49987 
L 824.954776 113.596009 
L 824.072728 113.583634 
L 823.300618 113.666045 
L 822.221942 113.733275 
L 821.283272 113.914224 
L 820.716766 114.058954 
L 820.034233 114.059676 
L 819.180088 114.26452 
L 818.321777 114.489082 
L 817.354487 114.631997 
L 816.661173 114.879486 
L 816.063163 115.137257 
L 815.217713 115.346901 
L 814.102033 115.666133 
L 813.199408 115.894656 
L 812.425447 116.261081 
L 811.466439 116.607752 
L 810.765605 116.958129 
L 810.225437 117.381291 
L 809.382436 117.665294 
L 808.460533 117.716352 
L 807.356313 117.971932 
L 806.352835 118.198006 
L 805.576492 118.627734 
L 804.881958 118.891204 
L 804.115617 119.209242 
L 803.323273 119.610539 
L 802.632361 119.744158 
L 801.609461 119.974072 
L 800.849318 120.156295 
L 800.23235 120.246389 
L 799.108204 120.267863 
L 798.027682 120.261292 
L 797.135495 120.35296 
L 796.269458 120.397432 
L 795.421019 120.555806 
L 794.714084 120.736469 
L 794.034216 120.943343 
L 793.211554 121.126644 
L 792.512736 121.380459 
L 791.817454 121.609024 
L 790.966895 121.93401 
L 790.007335 122.109483 
L 789.143221 122.276065 
L 788.272338 122.466549 
L 787.432168 122.566624 
L 786.44512 122.675092 
L 785.317999 122.801721 
L 784.692696 122.902374 
L 784.083367 122.98478 
L 783.209343 123.131184 
L 782.176021 123.131478 
L 781.410782 123.216482 
L 780.551571 123.072958 
L 779.743769 123.05382 
L 778.97544 123.031291 
L 777.839391 122.996037 
L 777.313282 122.935808 
L 776.438039 123.017736 
L 775.349974 123.034292 
L 774.550714 123.142962 
L 773.763097 123.190343 
L 773.255993 123.235602 
L 772.570022 123.343127 
L 771.362863 123.421394 
L 770.267052 123.389358 
L 769.434151 123.477037 
L 768.912812 123.493796 
L 768.290706 123.749766 
L 767.390564 123.768284 
L 766.464125 123.86286 
L 765.446153 124.028335 
L 764.535338 124.111059 
L 763.926924 124.190388 
L 763.2228 124.261092 
L 762.26008 124.345188 
L 761.541066 124.494158 
L 760.635193 124.669958 
L 759.633088 124.857087 
L 758.931241 124.996412 
L 757.962623 125.353063 
L 757.135317 125.705851 
L 756.469606 125.926777 
L 755.311949 126.189794 
L 754.629922 126.255185 
L 753.935353 126.470678 
L 753.031701 126.626377 
L 752.313183 126.776134 
L 751.592704 126.851133 
L 750.620339 126.982881 
L 749.438865 127.037277 
L 748.805725 127.087287 
L 748.164851 127.154887 
L 747.287164 127.210955 
L 746.579498 127.346829 
L 745.846803 127.39018 
L 744.789893 127.400298 
L 743.692951 127.414917 
L 742.740316 127.390885 
L 742.108711 127.384152 
L 741.440565 127.410998 
L 740.659174 127.433765 
L 739.794668 127.479801 
L 738.846946 127.428021 
L 738.21224 127.506138 
L 737.16771 127.445267 
L 736.042381 127.431284 
L 735.376044 127.384606 
L 734.625576 127.385046 
L 733.620844 127.313276 
L 732.958854 127.267033 
L 732.081245 127.201644 
L 730.955038 127.193249 
L 730.250896 127.193069 
L 729.591274 127.167113 
L 728.579468 127.130895 
L 727.758287 127.101605 
L 727.098166 127.073459 
L 726.005682 127.042508 
L 725.339005 126.97846 
L 724.852694 126.926189 
L 724.048967 126.908703 
L 722.988346 126.913894 
L 721.866805 126.947236 
L 720.987483 127.012678 
L 720.381587 127.07838 
L 719.652101 127.132082 
L 718.660965 127.184802 
L 717.780517 127.209873 
L 716.989313 127.256837 
L 716.229833 127.32427 
L 715.363974 127.361902 
L 714.521488 127.449068 
L 713.604828 127.513786 
L 712.882896 127.534989 
L 712.308445 127.582018 
L 711.270169 127.586538 
L 710.097843 127.502861 
L 709.148145 127.508849 
L 708.571719 127.498021 
L 707.724923 127.493648 
L 706.581878 127.483023 
L 705.776662 127.611097 
L 705.33576 127.667948 
L 704.506412 127.697021 
L 703.285154 127.723798 
L 702.7567 127.719762 
L 702.291668 127.755384 
L 701.09636 127.815207 
L 700.029094 127.844167 
L 699.334304 127.87613 
L 698.359463 127.900083 
L 697.597947 127.92691 
L 696.957641 127.947681 
L 696.069618 127.972442 
L 695.173268 128.001751 
L 694.351743 128.013658 
L 693.656845 128.010998 
L 692.901203 128.043164 
L 691.839762 128.060669 
L 691.134679 128.074739 
L 690.218827 128.048783 
L 689.173302 128.13929 
L 688.584866 128.195508 
L 687.637019 128.267293 
L 686.898932 128.280082 
L 686.081161 128.29572 
L 685.269945 128.297297 
L 684.497328 128.267068 
L 683.333939 128.239454 
L 682.523481 128.19769 
L 681.728869 128.135036 
L 681.074673 128.115991 
L 680.446544 128.111588 
L 679.262955 128.10759 
L 678.373638 128.051169 
L 677.686235 128.046786 
L 676.711637 128.023516 
L 675.899438 128.1215 
L 675.053927 128.151261 
L 674.167684 128.159859 
L 673.517344 128.151013 
L 672.793499 128.212617 
L 672.017535 128.227523 
L 670.944445 128.215859 
L 669.950571 128.227788 
L 669.418824 128.209444 
L 668.618239 128.20173 
L 667.613723 128.211454 
L 666.964554 128.232533 
L 666.258739 128.246838 
L 665.242554 128.261143 
L 664.453524 128.241407 
L 663.598336 128.255061 
L 662.685871 128.283804 
L 661.854643 128.290313 
L 661.076038 128.321704 
L 660.083196 128.341765 
L 658.928125 128.364063 
L 658.154262 128.386433 
L 657.701988 128.378889 
L 656.80097 128.407524 
L 655.92103 128.428817 
L 655.045996 128.476585 
L 654.07144 128.481444 
L 653.595242 128.513808 
L 652.935548 128.525362 
L 651.802792 128.57439 
L 650.833052 128.592814 
L 650.051184 128.590615 
L 648.980666 128.59118 
L 648.069785 128.583871 
L 647.261256 128.602408 
L 646.40331 128.616472 
L 645.793384 128.616918 
L 644.922653 128.676408 
L 644.180499 128.731858 
L 643.348069 128.731415 
L 642.516658 128.767796 
L 641.816184 128.783787 
L 640.67031 128.766976 
L 640.020598 128.744311 
L 639.277339 128.764762 
L 638.183996 128.767881 
L 637.193056 128.78402 
L 636.56944 128.824272 
L 636.051148 128.838067 
L 635.145257 128.868907 
L 634.225368 128.911542 
L 633.535278 128.912618 
L 632.687727 128.896829 
L 631.863934 128.903818 
L 630.925173 128.905329 
L 629.747408 128.895451 
L 629.083757 128.874346 
L 628.272894 128.89698 
L 627.406169 128.761766 
L 626.49683 128.72059 
L 625.436379 128.762764 
L 624.722809 128.752785 
L 623.883055 128.74566 
L 623.034404 128.744138 
L 622.482271 128.75031 
L 621.544923 128.732262 
L 620.724353 128.708752 
L 620.122398 128.73847 
L 618.924431 128.707904 
L 617.873849 128.681842 
L 617.245128 128.678876 
L 616.479437 128.637425 
L 615.552566 128.56691 
L 614.896772 128.53589 
L 614.327513 128.494621 
L 613.30566 128.458596 
L 612.301297 128.432525 
L 611.431044 128.350243 
L 610.481022 128.300694 
L 609.76512 128.250917 
L 608.906257 128.210908 
L 608.065671 128.154657 
L 607.187738 128.146668 
L 606.406178 128.175847 
L 605.665391 128.041657 
L 604.839653 128.09209 
L 604.247821 128.162531 
L 603.534707 128.191566 
L 602.551789 128.09648 
L 601.515617 128.074343 
L 600.544598 128.092731 
L 599.886828 128.045469 
L 599.223872 128.031142 
L 598.253193 127.921227 
L 597.294423 127.904863 
L 596.224117 127.94037 
L 595.340929 127.907173 
L 594.632504 127.871454 
L 593.773335 127.879623 
L 592.966933 127.971266 
L 592.405811 127.881911 
L 591.424978 127.928039 
L 590.319941 127.922369 
L 589.714984 127.930759 
L 588.948199 128.042589 
L 588.021358 128.063295 
L 587.330054 128.11488 
L 586.593381 128.12391 
L 585.484477 128.255641 
L 584.481105 128.240758 
L 583.903278 128.341258 
L 583.3636 128.285483 
L 582.412417 128.295227 
L 581.454186 128.306971 
L 580.837282 128.250097 
L 579.823516 128.217636 
L 578.854193 128.047114 
L 578.132928 128.01766 
L 577.303893 127.997684 
L 576.570173 127.966243 
L 575.496565 127.892405 
L 574.627327 127.874489 
L 573.953064 127.778782 
L 572.964885 127.727295 
L 572.201882 127.670399 
L 571.382269 127.58607 
L 570.530376 127.537273 
L 569.603373 127.470457 
L 568.622409 127.465112 
L 567.763 127.528223 
L 566.980389 127.55424 
L 566.208338 127.566382 
L 565.528593 127.55507 
L 564.615474 127.535003 
L 563.70505 127.509255 
L 562.953236 127.502472 
L 561.909201 127.556378 
L 561.251488 127.48712 
L 560.586993 127.533519 
L 559.704243 127.578213 
L 558.742726 127.742096 
L 557.684311 127.764639 
L 556.749357 127.785682 
L 556.116103 127.804471 
L 555.382427 127.809469 
L 554.69903 127.790997 
L 554.018449 127.850756 
L 552.944342 127.844742 
L 551.870874 127.824514 
L 550.936496 127.799474 
L 550.288776 127.782523 
L 549.737285 127.784998 
L 548.721617 127.737545 
L 547.789743 127.762659 
L 547.049399 127.796048 
L 546.352581 127.907001 
L 545.674892 127.976845 
L 544.668788 128.043329 
L 543.717363 128.174348 
L 542.964179 128.218857 
L 542.26933 128.372102 
L 541.345306 128.420491 
L 540.5279 128.483226 
L 539.582793 128.576513 
L 538.758604 128.604018 
L 538.091008 128.606094 
L 536.898299 128.600001 
L 536.04066 128.61202 
L 535.541016 128.585214 
L 534.697535 128.597247 
L 533.888271 128.579434 
L 533.123555 128.546915 
L 532.209458 128.505775 
L 531.471248 128.408543 
L 530.557049 128.375304 
L 529.374209 128.264782 
L 528.389878 128.118698 
L 527.804127 128.019261 
L 527.073046 127.984877 
L 526.32006 127.956241 
L 525.564753 127.898922 
L 524.520754 127.995749 
L 523.515871 127.887172 
L 522.566686 127.848147 
L 521.662999 127.857215 
L 520.813129 127.865712 
L 519.99972 127.839555 
L 519.407224 127.810508 
L 518.794176 127.773908 
L 517.709151 127.733488 
L 516.882395 127.653666 
L 516.361119 127.618126 
L 515.405567 127.59598 
L 514.478784 127.593833 
L 513.694885 127.561613 
L 512.61343 127.526789 
L 511.585976 127.522154 
L 510.718543 127.498007 
L 510.024027 127.472855 
L 509.226674 127.437099 
L 508.439283 127.376426 
L 507.576805 127.319595 
L 506.674199 127.199087 
L 506.231584 127.203982 
L 505.378114 127.104535 
L 504.180687 127.014423 
L 503.281482 126.921868 
L 502.694832 126.885513 
L 501.801313 126.820186 
L 500.929461 126.741798 
L 500.240037 126.721221 
L 499.300348 126.656988 
L 498.361695 126.545134 
L 497.687306 126.424438 
L 496.818448 126.287422 
L 495.905239 126.204637 
L 495.048738 126.040607 
L 494.220523 125.973792 
L 493.730065 125.890844 
L 492.783412 125.878429 
L 491.762601 125.762764 
L 491.08033 125.713214 
L 490.395747 125.727496 
L 489.568228 125.652814 
L 488.780642 125.474728 
L 487.959191 125.432065 
L 487.139831 125.486183 
L 486.21567 125.436823 
L 485.15073 125.417175 
L 484.402025 125.450332 
L 483.536421 125.323512 
L 482.483687 125.272479 
L 481.866692 125.279148 
L 481.298787 125.243885 
L 480.310871 125.256504 
L 479.340096 125.222846 
L 478.605848 125.219935 
L 477.795297 125.182977 
L 476.93938 125.115138 
L 476.142161 125.085605 
L 475.137171 125.027472 
L 474.387707 124.996728 
L 473.694864 124.917745 
L 472.674028 124.880756 
L 471.810922 124.883903 
L 470.945054 124.895957 
L 470.009134 124.851599 
L 469.343731 124.68823 
L 468.59318 124.591506 
L 467.767176 124.459788 
L 467.084942 124.450956 
L 466.263339 124.360796 
L 465.060408 124.440052 
L 464.044767 124.462023 
L 463.538986 124.446809 
L 462.56191 124.468348 
L 461.630181 124.443902 
L 460.86013 124.376031 
L 460.182667 124.374304 
L 459.406557 124.393351 
L 458.551275 124.332054 
L 457.735583 124.433142 
L 456.524834 124.468063 
L 455.581001 124.553731 
L 454.737199 124.581515 
L 453.94688 124.572681 
L 453.256268 124.506242 
L 452.258113 124.445449 
L 451.449857 124.395056 
L 450.896903 124.433603 
L 450.039296 124.431828 
L 449.047224 124.449533 
L 448.431225 124.421957 
L 447.754326 124.422944 
L 446.878158 124.43694 
L 446.047454 124.470983 
L 444.975898 124.490089 
L 444.238681 124.489885 
L 443.414495 124.551239 
L 442.22043 124.521027 
L 441.584201 124.520433 
L 440.725423 124.497842 
L 439.574661 124.415738 
L 438.780868 124.444526 
L 437.926555 124.408481 
L 437.172233 124.410726 
L 436.389235 124.500299 
L 435.799958 124.467039 
L 435.030033 124.578526 
L 434.157263 124.586648 
L 433.465595 124.608196 
L 432.500187 124.548254 
L 431.675018 124.555552 
L 430.99513 124.451094 
L 429.940659 124.443965 
L 428.914189 124.431693 
L 428.282539 124.480483 
L 427.308699 124.543744 
L 426.443155 124.548587 
L 425.936366 124.566819 
L 425.246121 124.564754 
L 424.0301 124.594067 
L 423.047946 124.656473 
L 422.362341 124.616542 
L 421.564082 124.662771 
L 420.617057 124.68302 
L 419.683556 124.653611 
L 419.188752 124.667501 
L 418.492581 124.636588 
L 417.438997 124.707743 
L 416.463366 124.723916 
L 415.479184 124.721166 
L 414.682204 124.725088 
L 414.132271 124.67902 
L 413.185145 124.649768 
L 412.069115 124.573726 
L 411.502842 124.554315 
L 410.787745 124.472916 
L 409.643223 124.443728 
L 408.653999 124.431644 
L 407.985154 124.38447 
L 407.252307 124.342197 
L 406.191391 124.283098 
L 405.372435 124.3255 
L 404.668457 124.263729 
L 404.006449 124.190746 
L 403.253816 124.122366 
L 402.389008 124.031661 
L 401.489307 123.795206 
L 400.483918 123.607658 
L 399.607924 123.494586 
L 399.023401 123.295375 
L 398.239854 123.179534 
L 397.32685 123.114341 
L 396.49253 122.990453 
L 395.419688 122.876645 
L 394.649206 122.788346 
L 393.794252 122.657126 
L 392.885781 122.599351 
L 392.04931 122.563626 
L 391.239917 122.573386 
L 390.70671 122.555051 
L 389.881873 122.504661 
L 388.745031 122.539846 
L 388.054071 122.493729 
L 387.432263 122.390398 
L 386.320324 122.356715 
L 385.535578 122.239615 
L 384.975861 122.200587 
L 384.118358 122.143044 
L 382.976345 122.06562 
L 382.030812 121.914978 
L 381.136137 121.796276 
L 380.453197 121.655017 
L 379.863592 121.587169 
L 378.844568 121.480377 
L 377.955937 121.358939 
L 377.06621 121.225266 
L 376.307897 121.118708 
L 375.579661 120.931862 
L 374.457865 120.884765 
L 373.810161 120.80519 
L 373.229755 120.814728 
L 372.284817 120.838889 
L 371.328112 120.917041 
L 370.4982 120.932949 
L 369.609891 120.822089 
L 368.723276 120.796665 
L 368.100575 120.785525 
L 367.39337 120.746029 
L 366.340972 120.623794 
L 365.197917 120.593121 
L 364.527815 120.557512 
L 363.64696 120.443714 
L 362.67224 120.349521 
L 362.022856 120.310865 
L 361.11794 120.251764 
L 360.198988 120.189113 
L 359.390683 120.178743 
L 358.533011 120.175589 
L 357.676629 120.066116 
L 356.925613 119.942632 
L 356.347861 119.785739 
L 355.56437 119.709405 
L 354.425571 119.732808 
L 353.407711 119.357437 
L 352.84885 119.116378 
L 352.256901 118.990135 
L 351.27445 118.933136 
L 350.504737 118.70531 
L 349.573604 118.614212 
L 348.534697 118.361932 
L 347.79192 118.260326 
L 346.936462 118.175471 
L 346.090233 117.990281 
L 345.451861 118.003693 
L 344.770969 117.879173 
L 343.672747 117.818053 
L 342.551656 117.813304 
L 341.680778 117.858373 
L 340.98752 117.791698 
L 340.249963 117.72968 
L 339.592549 117.559529 
L 338.694085 117.605984 
L 337.565125 117.600976 
L 336.755288 117.594675 
L 336.028279 117.52014 
L 335.093902 117.51321 
L 334.360121 117.531444 
L 333.547092 117.438447 
L 332.791971 117.586656 
L 331.949475 117.522956 
L 331.07321 117.505273 
L 330.349587 117.556161 
L 329.239065 117.451761 
L 328.482231 117.423292 
L 327.693728 117.588847 
L 326.693526 117.573296 
L 325.825318 117.678857 
L 325.086716 117.584328 
L 324.454507 117.505084 
L 323.6434 117.424724 
L 322.599061 117.338036 
L 321.762889 117.180445 
L 321.217239 117.090184 
L 320.549636 117.000277 
L 319.68054 116.971469 
L 318.704388 116.953799 
L 317.819357 116.779888 
L 316.76854 116.709241 
L 315.857177 116.713964 
L 315.276379 116.654297 
L 314.470675 116.556898 
L 313.58974 116.517546 
L 312.578781 116.367035 
L 311.7966 116.226608 
L 311.328566 116.151137 
L 310.482664 116.029734 
L 309.608172 116.033292 
L 308.893701 116.013027 
L 307.712559 115.889419 
L 306.522345 115.731866 
L 306.080328 115.669626 
L 305.491743 115.586459 
L 304.239163 115.450514 
L 303.292861 115.253073 
L 302.655648 115.059316 
L 301.951014 115.027415 
L 301.056764 114.886191 
L 300.280999 114.809466 
L 299.606055 114.589745 
L 298.390207 114.43378 
L 297.435204 114.321171 
L 296.817559 114.254203 
L 296.016046 114.205514 
L 295.233176 114.136344 
L 294.554764 114.111094 
L 293.446198 113.96458 
L 292.365677 113.885664 
L 291.755154 113.74746 
L 290.930834 113.660794 
L 290.094474 113.559109 
L 289.3183 113.424143 
L 288.483322 113.315084 
L 287.692539 112.999211 
L 286.777265 112.823982 
L 285.82544 112.747151 
L 284.844805 112.710184 
L 284.109598 112.40342 
L 283.301313 112.304733 
L 282.325725 112.140769 
L 281.640755 112.000548 
L 280.992173 111.773307 
L 280.199084 111.736256 
L 279.256168 111.77584 
L 278.374732 111.709187 
L 277.721871 111.622116 
L 276.728434 111.542767 
L 275.839552 111.530214 
L 275.338318 111.449114 
L 274.394595 111.389616 
L 273.376267 111.286369 
L 272.589105 111.226198 
L 271.667177 111.337064 
L 270.734698 111.22349 
L 270.063818 111.193651 
L 269.124883 111.005971 
L 268.109522 110.839769 
L 267.344418 110.695105 
L 266.560255 110.481061 
L 265.987787 110.417444 
L 265.398425 110.335108 
L 264.550821 110.163288 
L 263.679178 110.109961 
L 262.833298 110.007033 
L 262.05623 109.880266 
L 261.07898 109.712088 
L 260.106541 109.698419 
L 259.30853 109.526247 
L 258.39815 109.467914 
L 257.314264 109.230895 
L 256.593937 109.079754 
L 256.084923 108.891918 
L 255.305779 108.814796 
L 254.37827 108.649155 
L 253.354586 108.624696 
L 252.394736 108.523279 
L 251.514524 108.37221 
L 250.803097 108.200324 
L 250.22973 108.139136 
L 249.394632 108.035043 
L 248.351196 108.010335 
L 247.481458 107.839892 
L 246.820292 107.574876 
L 245.970505 107.461257 
L 245.130702 107.416221 
L 244.144117 107.3335 
L 243.286883 107.218657 
L 242.468194 107.079877 
L 241.459377 106.922166 
L 240.581225 106.681782 
L 239.833769 106.429655 
L 239.027994 106.359564 
L 238.1573 106.128315 
L 237.562798 105.995181 
L 236.788022 105.842881 
L 235.651036 105.719419 
L 234.566209 105.623237 
L 233.75756 105.555589 
L 232.926852 105.503963 
L 232.390727 105.460319 
L 231.71948 105.243873 
L 230.935007 104.867354 
L 230.176721 104.800217 
L 229.142603 104.67117 
L 228.183695 104.491834 
L 227.230284 104.321357 
L 226.603298 104.120662 
L 225.988881 103.980446 
L 224.999904 103.794261 
L 224.053433 103.649323 
L 222.971569 103.625391 
L 221.977818 103.496232 
L 221.313949 103.343511 
L 220.588263 103.114893 
L 219.82467 103.025723 
L 218.833074 102.870192 
L 218.153568 102.76964 
L 217.335154 102.532604 
L 216.130852 102.347048 
L 215.335119 102.161716 
L 214.860917 101.969951 
L 214.029187 101.764581 
L 212.966577 101.530736 
L 212.4485 101.34615 
L 211.623692 101.159704 
L 210.763054 100.94727 
L 209.900446 100.582413 
L 208.846538 100.340902 
L 208.242044 100.110554 
L 207.269291 99.888508 
L 206.305492 99.821576 
L 205.694036 99.754299 
L 204.809365 99.616745 
L 203.830451 99.384935 
L 202.813366 99.213791 
L 202.0955 99.041844 
L 201.437107 98.841441 
L 200.788727 98.711349 
L 199.734485 98.534358 
L 198.899052 98.37884 
L 198.082641 98.35004 
L 197.190687 98.163574 
L 196.707784 98.142156 
L 195.677212 97.871798 
L 194.660727 97.76026 
L 193.680657 97.415617 
L 192.952365 97.232056 
L 192.341631 96.942507 
L 191.393732 96.721077 
L 190.44742 96.606368 
L 189.449773 96.351139 
L 188.874033 96.243932 
L 188.28559 96.047901 
L 187.068463 95.684348 
L 186.109279 95.209074 
L 185.49292 94.932523 
L 184.608529 94.704338 
L 183.862497 94.450205 
L 183.293457 94.203502 
L 182.292341 94.002635 
L 181.177499 93.720507 
L 180.334345 93.319315 
L 179.77478 92.92323 
L 178.936931 92.72782 
L 178.133154 92.488082 
L 177.164379 92.339205 
L 176.161282 92.259453 
L 175.450188 92.157236 
L 174.556242 92.01971 
L 173.629591 91.833501 
L 172.907295 91.63993 
L 172.271788 91.418055 
L 171.336846 91.112721 
L 170.454234 90.948434 
L 169.761044 90.780147 
L 168.710334 90.620597 
L 167.674552 90.323525 
L 167.138766 90.122993 
L 166.341681 89.830117 
L 165.521803 89.470179 
L 164.654203 89.102793 
L 163.781464 88.961391 
L 162.996341 88.783771 
L 162.11776 88.593745 
L 161.384666 88.314289 
L 160.33041 88.073459 
L 159.361103 87.833738 
L 158.795719 87.742452 
L 158.071634 87.493598 
L 157.320726 87.227491 
L 156.601078 86.799837 
L 155.620877 86.588291 
L 154.559001 86.3755 
L 153.701995 86.182312 
L 152.830514 85.836227 
L 152.051934 85.665325 
L 151.209674 85.273872 
L 150.291093 84.841673 
L 149.655081 84.489438 
L 148.991307 84.193794 
L 148.131929 83.773521 
L 147.30099 83.384521 
L 146.448053 83.145916 
L 145.295321 82.847863 
L 144.432873 82.316203 
L 143.599914 81.925502 
L 142.812736 81.638551 
L 142.09899 81.058242 
L 141.027909 81.033041 
L 140.370434 80.558529 
L 139.598582 80.214518 
L 138.583164 79.973309 
L 137.694947 79.65268 
L 136.796424 79.455802 
L 136.011595 79.318283 
L 135.127255 79.275116 
L 134.416137 79.1393 
L 133.775964 79.07955 
L 132.89752 79.105459 
L 131.852881 79.035211 
L 131.061607 78.833146 
L 130.162222 78.877277 
L 129.023006 78.71001 
L 128.202144 78.563144 
L 127.611237 78.360177 
L 126.922697 78.08638 
L 125.914359 77.477146 
L 124.928522 77.045884 
L 124.112685 76.571022 
L 123.472076 76.031181 
L 122.622473 75.840708 
L 121.648055 75.661597 
L 120.806077 75.602473 
L 119.976198 75.422225 
L 119.368801 75.544109 
L 118.452709 75.40955 
L 117.487921 75.474331 
L 116.987347 75.454968 
L 116.173442 75.208258 
L 115.386643 75.044825 
L 114.413477 74.874353 
L 113.343821 74.936398 
L 112.852472 75.075736 
L 112.085923 75.217915 
L 110.885588 75.369566 
L 109.849544 75.532784 
L 109.110211 75.669051 
L 108.371917 75.890995 
L 107.657325 76.179656 
L 106.820304 76.469935 
L 105.815149 76.48258 
L 105.095602 76.767481 
L 104.44015 76.886982 
L 103.593739 77.000757 
L 102.652447 77.120672 
L 101.798808 77.309145 
L 101.141945 77.522521 
L 100.377277 77.767518 
L 99.227168 77.922266 
L 98.137657 78.204284 
L 97.470937 78.649104 
L 96.63523 79.007562 
L 95.910699 79.404689 
L 95.190211 79.720235 
L 94.275831 80.067744 
L 93.682337 80.369721 
L 92.856916 80.625046 
L 91.99894 80.993315 
L 91.15269 81.200149 
L 89.97886 81.320722 
L 89.176428 81.376254 
L 88.38499 81.645934 
L 87.669711 81.683053 
L 86.857261 81.753474 
L 85.957753 81.844003 
L 85.169736 81.899858 
L 84.169959 81.926331 
L 83.391221 82.011409 
L 82.501176 82.1113 
L 81.462164 82.258028 
L 80.584941 82.37885 
L 79.745211 82.346491 
L 78.943772 82.436214 
L 78.432083 82.376731 
L 77.850659 82.259235 
L 76.753649 81.994946 
L 75.740212 81.893217 
L 75.009027 81.809524 
L 74.205723 81.855361 
L 73.509771 82.050802 
L 72.537607 82.203763 
L 71.653535 82.263261 
L 71.116275 82.22126 
L 70.235251 82.192514 
L 68.995768 82.179058 
L 68.293786 82.095454 
L 67.461662 81.914268 
L 66.326173 81.75738 
L 65.562992 81.747963 
L 64.886396 81.5514 
L 64.099918 81.400303 
L 63.028087 81.50973 
L 62.336345 81.64078 
L 61.771143 81.657769 
L 60.901924 81.627142 
L 60.027029 81.625422 
L 59.310506 81.392344 
L 58.592877 80.975896 
L 57.722333 80.357069 
L 56.908678 78.575184 
L 55.870162 77.284166 
L 54.73824 77.866764 
z
" clip-path="url(#p9c90a70564)" style="fill: #808080; fill-opacity: 0.5; stroke: #808080; stroke-opacity: 0.5; stroke-width: 0.5"/>
   </g>
   <g id="line2d_29">
    <path d="M 54.73824 83.73746 
L 55.870162 82.608076 
L 56.908678 82.656395 
L 57.722333 83.779888 
L 58.592877 84.233796 
L 59.310506 84.779538 
L 60.027029 85.051968 
L 61.771143 84.921353 
L 62.336345 84.630594 
L 63.028087 84.46951 
L 64.099918 84.366086 
L 65.562992 84.64604 
L 66.326173 84.604204 
L 71.116275 84.94041 
L 72.537607 84.814317 
L 75.009027 84.440077 
L 77.850659 84.710154 
L 78.432083 84.85636 
L 81.462164 84.785552 
L 84.169959 84.648825 
L 86.857261 84.606438 
L 88.38499 84.459508 
L 89.176428 84.265566 
L 89.97886 84.266655 
L 91.99894 83.966176 
L 95.910699 82.80191 
L 99.227168 81.960312 
L 101.141945 81.773103 
L 102.652447 81.510824 
L 105.095602 81.353628 
L 105.815149 81.188247 
L 106.820304 81.176348 
L 109.849544 80.599146 
L 114.413477 80.264168 
L 116.173442 80.425515 
L 117.487921 80.583169 
L 120.806077 80.754654 
L 122.622473 80.967297 
L 123.472076 81.10391 
L 124.112685 81.445712 
L 128.202144 82.798736 
L 131.852881 83.259254 
L 134.416137 83.524572 
L 136.011595 83.806098 
L 137.694947 84.071453 
L 140.370434 84.733597 
L 141.027909 85.01661 
L 142.09899 85.10815 
L 143.599914 85.653786 
L 144.432873 85.929729 
L 145.295321 86.35357 
L 148.131929 87.054196 
L 150.291093 87.911367 
L 152.830514 88.786782 
L 154.559001 89.257151 
L 156.601078 89.724817 
L 158.795719 90.464942 
L 160.33041 90.710377 
L 162.996341 91.392718 
L 163.781464 91.697724 
L 166.341681 92.375423 
L 173.629591 94.293057 
L 179.77478 95.285809 
L 180.334345 95.568668 
L 181.177499 95.836233 
L 183.862497 96.453508 
L 187.068463 97.409419 
L 188.874033 98.100188 
L 189.449773 98.358826 
L 191.393732 98.859509 
L 192.952365 99.327933 
L 194.660727 99.915016 
L 195.677212 100.072451 
L 200.788727 101.562585 
L 202.0955 101.897289 
L 202.813366 102.130983 
L 205.694036 102.629046 
L 206.305492 102.855445 
L 208.242044 103.004417 
L 208.846538 103.234508 
L 211.623692 103.624834 
L 214.029187 103.889971 
L 214.860917 104.035897 
L 215.335119 104.252796 
L 221.313949 104.957763 
L 221.977818 105.227368 
L 224.999904 105.603483 
L 226.603298 105.920144 
L 229.142603 106.537646 
L 231.71948 107.087864 
L 232.926852 107.408432 
L 239.833769 108.556268 
L 242.468194 109.114758 
L 245.970505 109.639288 
L 254.37827 110.454687 
L 257.314264 110.898137 
L 258.39815 111.129482 
L 261.07898 111.333725 
L 265.987787 111.933517 
L 268.109522 112.331941 
L 269.124883 112.46323 
L 270.734698 112.796964 
L 271.667177 112.848081 
L 272.589105 112.769258 
L 277.721871 113.094905 
L 278.374732 113.011138 
L 280.992173 113.122885 
L 282.325725 113.371655 
L 284.109598 113.592084 
L 284.844805 113.824401 
L 293.446198 115.391752 
L 298.390207 116.156207 
L 301.951014 116.655201 
L 303.292861 116.933839 
L 304.239163 117.118264 
L 306.522345 117.342893 
L 311.328566 117.987029 
L 312.578781 118.226437 
L 315.857177 118.334323 
L 317.819357 118.405676 
L 318.704388 118.512473 
L 320.549636 118.58113 
L 324.454507 119.033711 
L 326.693526 119.023867 
L 328.482231 119.092547 
L 330.349587 119.299761 
L 331.949475 119.29706 
L 335.093902 119.378598 
L 347.79192 120.08056 
L 350.504737 120.454226 
L 353.407711 121.033916 
L 354.425571 121.347645 
L 355.56437 121.360459 
L 359.390683 121.922994 
L 362.022856 122.090998 
L 365.197917 122.349076 
L 368.100575 122.476679 
L 370.4982 122.616898 
L 373.229755 122.530368 
L 373.810161 122.489851 
L 386.320324 124.202573 
L 393.794252 124.52274 
L 395.419688 124.725525 
L 399.023401 125.077514 
L 400.483918 125.36411 
L 405.372435 126.119021 
L 407.985154 126.210987 
L 410.787745 126.320133 
L 415.479184 126.451716 
L 430.99513 125.785017 
L 432.500187 125.917636 
L 452.258113 125.942049 
L 455.581001 126.070962 
L 458.551275 125.969499 
L 462.56191 126.236789 
L 464.044767 126.136051 
L 468.59318 126.267117 
L 470.945054 126.475246 
L 474.387707 126.592854 
L 482.483687 126.82808 
L 488.780642 127.034124 
L 491.08033 127.239948 
L 495.048738 127.622277 
L 499.300348 128.300273 
L 511.585976 129.40861 
L 514.478784 129.484681 
L 516.882395 129.567399 
L 519.407224 129.752204 
L 522.566686 129.865338 
L 524.520754 130.025364 
L 526.32006 130.041112 
L 533.123555 130.62186 
L 535.541016 130.678667 
L 546.352581 130.20528 
L 547.789743 130.120107 
L 551.870874 130.193171 
L 569.603373 129.612287 
L 582.412417 130.22599 
L 586.593381 130.148069 
L 588.948199 130.042096 
L 590.319941 129.960845 
L 598.253193 130.025571 
L 623.883055 131.088828 
L 628.248125 131.248792 
L 628.248125 131.248792 
" clip-path="url(#p9c90a70564)" style="fill: none; stroke: #e24a33; stroke-width: 1.5; stroke-linecap: square"/>
   </g>
   <g id="patch_3">
    <path d="M 54.096563 244.078125 
L 54.096563 22.318125 
" style="fill: none; stroke: #ffffff; stroke-linejoin: miter; stroke-linecap: square"/>
   </g>
   <g id="patch_4">
    <path d="M 612.096563 244.078125 
L 612.096563 22.318125 
" style="fill: none; stroke: #ffffff; stroke-linejoin: miter; stroke-linecap: square"/>
   </g>
   <g id="patch_5">
    <path d="M 54.096563 244.078125 
L 612.096563 244.078125 
" style="fill: none; stroke: #ffffff; stroke-linejoin: miter; stroke-linecap: square"/>
   </g>
   <g id="patch_6">
    <path d="M 54.096563 22.318125 
L 612.096563 22.318125 
" style="fill: none; stroke: #ffffff; stroke-linejoin: miter; stroke-linecap: square"/>
   </g>
   <g id="text_17">
    <!-- whale hunt -->
    <g transform="translate(299.685 16.318125) scale(0.12 -0.12)">
     <defs>
      <path id="DejaVuSans-20" transform="scale(0.015625)"/>
     </defs>
     <use xlink:href="#DejaVuSans-77"/>
     <use xlink:href="#DejaVuSans-68" x="81.787109"/>
     <use xlink:href="#DejaVuSans-61" x="145.166016"/>
     <use xlink:href="#DejaVuSans-6c" x="206.445312"/>
     <use xlink:href="#DejaVuSans-65" x="234.228516"/>
     <use xlink:href="#DejaVuSans-20" x="295.751953"/>
     <use xlink:href="#DejaVuSans-68" x="327.539062"/>
     <use xlink:href="#DejaVuSans-75" x="390.917969"/>
     <use xlink:href="#DejaVuSans-6e" x="454.296875"/>
     <use xlink:href="#DejaVuSans-74" x="517.675781"/>
    </g>
   </g>
  </g>
 </g>
 <defs>
  <clipPath id="p9c90a70564">
   <rect x="54.096563" y="22.318125" width="558" height="221.76"/>
  </clipPath>
 </defs>
</svg>
