<?xml version="1.0" encoding="utf-8" standalone="no"?>
<!DOCTYPE svg PUBLIC "-//W3C//DTD SVG 1.1//EN"
  "http://www.w3.org/Graphics/SVG/1.1/DTD/svg11.dtd">
<svg xmlns:xlink="http://www.w3.org/1999/xlink" width="615.735937pt" height="276.54pt" viewBox="0 0 615.735937 276.54" xmlns="http://www.w3.org/2000/svg" version="1.1">
 <metadata>
  <rdf:RDF xmlns:dc="http://purl.org/dc/elements/1.1/" xmlns:cc="http://creativecommons.org/ns#" xmlns:rdf="http://www.w3.org/1999/02/22-rdf-syntax-ns#">
   <cc:Work>
    <dc:type rdf:resource="http://purl.org/dc/dcmitype/StillImage"/>
    <dc:date>2025-05-12T16:56:36.314215</dc:date>
    <dc:format>image/svg+xml</dc:format>
    <dc:creator>
     <cc:Agent>
      <dc:title>Matplotlib v3.10.0, https://matplotlib.org/</dc:title>
     </cc:Agent>
    </dc:creator>
   </cc:Work>
  </rdf:RDF>
 </metadata>
 <defs>
  <style type="text/css">*{stroke-linejoin: round; stroke-linecap: butt}</style>
 </defs>
 <g id="figure_1">
  <g id="patch_1">
   <path d="M -0 276.54 
L 615.735937 276.54 
L 615.735937 0 
L -0 0 
z
" style="fill: #ffffff"/>
  </g>
  <g id="axes_1">
   <g id="patch_2">
    <path d="M 43.585938 243.549375 
L 601.585938 243.549375 
L 601.585938 21.789375 
L 43.585938 21.789375 
z
" style="fill: #ffffff"/>
   </g>
   <g id="matplotlib.axis_1">
    <g id="xtick_1">
     <g id="line2d_1">
      <path d="M 43.585938 243.549375 
L 43.585938 21.789375 
" clip-path="url(#p654c174ff4)" style="fill: none; stroke: #cccccc; stroke-width: 0.8; stroke-linecap: round"/>
     </g>
     <g id="line2d_2"/>
     <g id="text_1">
      <!-- 0.0 -->
      <g style="fill: #262626" transform="translate(36.635937 254.207188) scale(0.1 -0.1)">
       <defs>
        <path id="ArialMT-30" d="M 266 2259 
Q 266 3072 433 3567 
Q 600 4063 929 4331 
Q 1259 4600 1759 4600 
Q 2128 4600 2406 4451 
Q 2684 4303 2865 4023 
Q 3047 3744 3150 3342 
Q 3253 2941 3253 2259 
Q 3253 1453 3087 958 
Q 2922 463 2592 192 
Q 2263 -78 1759 -78 
Q 1097 -78 719 397 
Q 266 969 266 2259 
z
M 844 2259 
Q 844 1131 1108 757 
Q 1372 384 1759 384 
Q 2147 384 2411 759 
Q 2675 1134 2675 2259 
Q 2675 3391 2411 3762 
Q 2147 4134 1753 4134 
Q 1366 4134 1134 3806 
Q 844 3388 844 2259 
z
" transform="scale(0.015625)"/>
        <path id="ArialMT-2e" d="M 581 0 
L 581 641 
L 1222 641 
L 1222 0 
L 581 0 
z
" transform="scale(0.015625)"/>
       </defs>
       <use xlink:href="#ArialMT-30"/>
       <use xlink:href="#ArialMT-2e" transform="translate(55.615234 0)"/>
       <use xlink:href="#ArialMT-30" transform="translate(83.398438 0)"/>
      </g>
     </g>
    </g>
    <g id="xtick_2">
     <g id="line2d_3">
      <path d="M 155.185938 243.549375 
L 155.185938 21.789375 
" clip-path="url(#p654c174ff4)" style="fill: none; stroke: #cccccc; stroke-width: 0.8; stroke-linecap: round"/>
     </g>
     <g id="line2d_4"/>
     <g id="text_2">
      <!-- 0.2 -->
      <g style="fill: #262626" transform="translate(148.235938 254.207188) scale(0.1 -0.1)">
       <defs>
        <path id="ArialMT-32" d="M 3222 541 
L 3222 0 
L 194 0 
Q 188 203 259 391 
Q 375 700 629 1000 
Q 884 1300 1366 1694 
Q 2113 2306 2375 2664 
Q 2638 3022 2638 3341 
Q 2638 3675 2398 3904 
Q 2159 4134 1775 4134 
Q 1369 4134 1125 3890 
Q 881 3647 878 3216 
L 300 3275 
Q 359 3922 746 4261 
Q 1134 4600 1788 4600 
Q 2447 4600 2831 4234 
Q 3216 3869 3216 3328 
Q 3216 3053 3103 2787 
Q 2991 2522 2730 2228 
Q 2469 1934 1863 1422 
Q 1356 997 1212 845 
Q 1069 694 975 541 
L 3222 541 
z
" transform="scale(0.015625)"/>
       </defs>
       <use xlink:href="#ArialMT-30"/>
       <use xlink:href="#ArialMT-2e" transform="translate(55.615234 0)"/>
       <use xlink:href="#ArialMT-32" transform="translate(83.398438 0)"/>
      </g>
     </g>
    </g>
    <g id="xtick_3">
     <g id="line2d_5">
      <path d="M 266.785938 243.549375 
L 266.785938 21.789375 
" clip-path="url(#p654c174ff4)" style="fill: none; stroke: #cccccc; stroke-width: 0.8; stroke-linecap: round"/>
     </g>
     <g id="line2d_6"/>
     <g id="text_3">
      <!-- 0.4 -->
      <g style="fill: #262626" transform="translate(259.835938 254.207188) scale(0.1 -0.1)">
       <defs>
        <path id="ArialMT-34" d="M 2069 0 
L 2069 1097 
L 81 1097 
L 81 1613 
L 2172 4581 
L 2631 4581 
L 2631 1613 
L 3250 1613 
L 3250 1097 
L 2631 1097 
L 2631 0 
L 2069 0 
z
M 2069 1613 
L 2069 3678 
L 634 1613 
L 2069 1613 
z
" transform="scale(0.015625)"/>
       </defs>
       <use xlink:href="#ArialMT-30"/>
       <use xlink:href="#ArialMT-2e" transform="translate(55.615234 0)"/>
       <use xlink:href="#ArialMT-34" transform="translate(83.398438 0)"/>
      </g>
     </g>
    </g>
    <g id="xtick_4">
     <g id="line2d_7">
      <path d="M 378.385938 243.549375 
L 378.385938 21.789375 
" clip-path="url(#p654c174ff4)" style="fill: none; stroke: #cccccc; stroke-width: 0.8; stroke-linecap: round"/>
     </g>
     <g id="line2d_8"/>
     <g id="text_4">
      <!-- 0.6 -->
      <g style="fill: #262626" transform="translate(371.435938 254.207188) scale(0.1 -0.1)">
       <defs>
        <path id="ArialMT-36" d="M 3184 3459 
L 2625 3416 
Q 2550 3747 2413 3897 
Q 2184 4138 1850 4138 
Q 1581 4138 1378 3988 
Q 1113 3794 959 3422 
Q 806 3050 800 2363 
Q 1003 2672 1297 2822 
Q 1591 2972 1913 2972 
Q 2475 2972 2870 2558 
Q 3266 2144 3266 1488 
Q 3266 1056 3080 686 
Q 2894 316 2569 119 
Q 2244 -78 1831 -78 
Q 1128 -78 684 439 
Q 241 956 241 2144 
Q 241 3472 731 4075 
Q 1159 4600 1884 4600 
Q 2425 4600 2770 4297 
Q 3116 3994 3184 3459 
z
M 888 1484 
Q 888 1194 1011 928 
Q 1134 663 1356 523 
Q 1578 384 1822 384 
Q 2178 384 2434 671 
Q 2691 959 2691 1453 
Q 2691 1928 2437 2201 
Q 2184 2475 1800 2475 
Q 1419 2475 1153 2201 
Q 888 1928 888 1484 
z
" transform="scale(0.015625)"/>
       </defs>
       <use xlink:href="#ArialMT-30"/>
       <use xlink:href="#ArialMT-2e" transform="translate(55.615234 0)"/>
       <use xlink:href="#ArialMT-36" transform="translate(83.398438 0)"/>
      </g>
     </g>
    </g>
    <g id="xtick_5">
     <g id="line2d_9">
      <path d="M 489.985938 243.549375 
L 489.985938 21.789375 
" clip-path="url(#p654c174ff4)" style="fill: none; stroke: #cccccc; stroke-width: 0.8; stroke-linecap: round"/>
     </g>
     <g id="line2d_10"/>
     <g id="text_5">
      <!-- 0.8 -->
      <g style="fill: #262626" transform="translate(483.035938 254.207188) scale(0.1 -0.1)">
       <defs>
        <path id="ArialMT-38" d="M 1131 2484 
Q 781 2613 612 2850 
Q 444 3088 444 3419 
Q 444 3919 803 4259 
Q 1163 4600 1759 4600 
Q 2359 4600 2725 4251 
Q 3091 3903 3091 3403 
Q 3091 3084 2923 2848 
Q 2756 2613 2416 2484 
Q 2838 2347 3058 2040 
Q 3278 1734 3278 1309 
Q 3278 722 2862 322 
Q 2447 -78 1769 -78 
Q 1091 -78 675 323 
Q 259 725 259 1325 
Q 259 1772 486 2073 
Q 713 2375 1131 2484 
z
M 1019 3438 
Q 1019 3113 1228 2906 
Q 1438 2700 1772 2700 
Q 2097 2700 2305 2904 
Q 2513 3109 2513 3406 
Q 2513 3716 2298 3927 
Q 2084 4138 1766 4138 
Q 1444 4138 1231 3931 
Q 1019 3725 1019 3438 
z
M 838 1322 
Q 838 1081 952 856 
Q 1066 631 1291 507 
Q 1516 384 1775 384 
Q 2178 384 2440 643 
Q 2703 903 2703 1303 
Q 2703 1709 2433 1975 
Q 2163 2241 1756 2241 
Q 1359 2241 1098 1978 
Q 838 1716 838 1322 
z
" transform="scale(0.015625)"/>
       </defs>
       <use xlink:href="#ArialMT-30"/>
       <use xlink:href="#ArialMT-2e" transform="translate(55.615234 0)"/>
       <use xlink:href="#ArialMT-38" transform="translate(83.398438 0)"/>
      </g>
     </g>
    </g>
    <g id="xtick_6">
     <g id="line2d_11">
      <path d="M 601.585938 243.549375 
L 601.585938 21.789375 
" clip-path="url(#p654c174ff4)" style="fill: none; stroke: #cccccc; stroke-width: 0.8; stroke-linecap: round"/>
     </g>
     <g id="line2d_12"/>
     <g id="text_6">
      <!-- 1.0 -->
      <g style="fill: #262626" transform="translate(594.635937 254.207188) scale(0.1 -0.1)">
       <defs>
        <path id="ArialMT-31" d="M 2384 0 
L 1822 0 
L 1822 3584 
Q 1619 3391 1289 3197 
Q 959 3003 697 2906 
L 697 3450 
Q 1169 3672 1522 3987 
Q 1875 4303 2022 4600 
L 2384 4600 
L 2384 0 
z
" transform="scale(0.015625)"/>
       </defs>
       <use xlink:href="#ArialMT-31"/>
       <use xlink:href="#ArialMT-2e" transform="translate(55.615234 0)"/>
       <use xlink:href="#ArialMT-30" transform="translate(83.398438 0)"/>
      </g>
     </g>
    </g>
    <g id="text_7">
     <!-- theta -->
     <g style="fill: #262626" transform="translate(311.466406 267.3525) scale(0.1 -0.1)">
      <defs>
       <path id="ArialMT-74" d="M 1650 503 
L 1731 6 
Q 1494 -44 1306 -44 
Q 1000 -44 831 53 
Q 663 150 594 308 
Q 525 466 525 972 
L 525 2881 
L 113 2881 
L 113 3319 
L 525 3319 
L 525 4141 
L 1084 4478 
L 1084 3319 
L 1650 3319 
L 1650 2881 
L 1084 2881 
L 1084 941 
Q 1084 700 1114 631 
Q 1144 563 1211 522 
Q 1278 481 1403 481 
Q 1497 481 1650 503 
z
" transform="scale(0.015625)"/>
       <path id="ArialMT-68" d="M 422 0 
L 422 4581 
L 984 4581 
L 984 2938 
Q 1378 3394 1978 3394 
Q 2347 3394 2619 3248 
Q 2891 3103 3008 2847 
Q 3125 2591 3125 2103 
L 3125 0 
L 2563 0 
L 2563 2103 
Q 2563 2525 2380 2717 
Q 2197 2909 1863 2909 
Q 1613 2909 1392 2779 
Q 1172 2650 1078 2428 
Q 984 2206 984 1816 
L 984 0 
L 422 0 
z
" transform="scale(0.015625)"/>
       <path id="ArialMT-65" d="M 2694 1069 
L 3275 997 
Q 3138 488 2766 206 
Q 2394 -75 1816 -75 
Q 1088 -75 661 373 
Q 234 822 234 1631 
Q 234 2469 665 2931 
Q 1097 3394 1784 3394 
Q 2450 3394 2872 2941 
Q 3294 2488 3294 1666 
Q 3294 1616 3291 1516 
L 816 1516 
Q 847 969 1125 678 
Q 1403 388 1819 388 
Q 2128 388 2347 550 
Q 2566 713 2694 1069 
z
M 847 1978 
L 2700 1978 
Q 2663 2397 2488 2606 
Q 2219 2931 1791 2931 
Q 1403 2931 1139 2672 
Q 875 2413 847 1978 
z
" transform="scale(0.015625)"/>
       <path id="ArialMT-61" d="M 2588 409 
Q 2275 144 1986 34 
Q 1697 -75 1366 -75 
Q 819 -75 525 192 
Q 231 459 231 875 
Q 231 1119 342 1320 
Q 453 1522 633 1644 
Q 813 1766 1038 1828 
Q 1203 1872 1538 1913 
Q 2219 1994 2541 2106 
Q 2544 2222 2544 2253 
Q 2544 2597 2384 2738 
Q 2169 2928 1744 2928 
Q 1347 2928 1158 2789 
Q 969 2650 878 2297 
L 328 2372 
Q 403 2725 575 2942 
Q 747 3159 1072 3276 
Q 1397 3394 1825 3394 
Q 2250 3394 2515 3294 
Q 2781 3194 2906 3042 
Q 3031 2891 3081 2659 
Q 3109 2516 3109 2141 
L 3109 1391 
Q 3109 606 3145 398 
Q 3181 191 3288 0 
L 2700 0 
Q 2613 175 2588 409 
z
M 2541 1666 
Q 2234 1541 1622 1453 
Q 1275 1403 1131 1340 
Q 988 1278 909 1158 
Q 831 1038 831 891 
Q 831 666 1001 516 
Q 1172 366 1500 366 
Q 1825 366 2078 508 
Q 2331 650 2450 897 
Q 2541 1088 2541 1459 
L 2541 1666 
z
" transform="scale(0.015625)"/>
      </defs>
      <use xlink:href="#ArialMT-74"/>
      <use xlink:href="#ArialMT-68" transform="translate(27.783203 0)"/>
      <use xlink:href="#ArialMT-65" transform="translate(83.398438 0)"/>
      <use xlink:href="#ArialMT-74" transform="translate(139.013672 0)"/>
      <use xlink:href="#ArialMT-61" transform="translate(166.796875 0)"/>
     </g>
    </g>
   </g>
   <g id="matplotlib.axis_2">
    <g id="ytick_1">
     <g id="line2d_13">
      <path d="M 43.585938 243.549375 
L 601.585938 243.549375 
" clip-path="url(#p654c174ff4)" style="fill: none; stroke: #cccccc; stroke-width: 0.8; stroke-linecap: round"/>
     </g>
     <g id="line2d_14"/>
     <g id="text_8">
      <!-- −0.4 -->
      <g style="fill: #262626" transform="translate(20.345312 247.128281) scale(0.1 -0.1)">
       <defs>
        <path id="ArialMT-2212" d="M 3381 1997 
L 356 1997 
L 356 2522 
L 3381 2522 
L 3381 1997 
z
" transform="scale(0.015625)"/>
       </defs>
       <use xlink:href="#ArialMT-2212"/>
       <use xlink:href="#ArialMT-30" transform="translate(58.398438 0)"/>
       <use xlink:href="#ArialMT-2e" transform="translate(114.013672 0)"/>
       <use xlink:href="#ArialMT-34" transform="translate(141.796875 0)"/>
      </g>
     </g>
    </g>
    <g id="ytick_2">
     <g id="line2d_15">
      <path d="M 43.585938 211.869375 
L 601.585938 211.869375 
" clip-path="url(#p654c174ff4)" style="fill: none; stroke: #cccccc; stroke-width: 0.8; stroke-linecap: round"/>
     </g>
     <g id="line2d_16"/>
     <g id="text_9">
      <!-- −0.3 -->
      <g style="fill: #262626" transform="translate(20.345312 215.448281) scale(0.1 -0.1)">
       <defs>
        <path id="ArialMT-33" d="M 269 1209 
L 831 1284 
Q 928 806 1161 595 
Q 1394 384 1728 384 
Q 2125 384 2398 659 
Q 2672 934 2672 1341 
Q 2672 1728 2419 1979 
Q 2166 2231 1775 2231 
Q 1616 2231 1378 2169 
L 1441 2663 
Q 1497 2656 1531 2656 
Q 1891 2656 2178 2843 
Q 2466 3031 2466 3422 
Q 2466 3731 2256 3934 
Q 2047 4138 1716 4138 
Q 1388 4138 1169 3931 
Q 950 3725 888 3313 
L 325 3413 
Q 428 3978 793 4289 
Q 1159 4600 1703 4600 
Q 2078 4600 2393 4439 
Q 2709 4278 2876 4000 
Q 3044 3722 3044 3409 
Q 3044 3113 2884 2869 
Q 2725 2625 2413 2481 
Q 2819 2388 3044 2092 
Q 3269 1797 3269 1353 
Q 3269 753 2831 336 
Q 2394 -81 1725 -81 
Q 1122 -81 723 278 
Q 325 638 269 1209 
z
" transform="scale(0.015625)"/>
       </defs>
       <use xlink:href="#ArialMT-2212"/>
       <use xlink:href="#ArialMT-30" transform="translate(58.398438 0)"/>
       <use xlink:href="#ArialMT-2e" transform="translate(114.013672 0)"/>
       <use xlink:href="#ArialMT-33" transform="translate(141.796875 0)"/>
      </g>
     </g>
    </g>
    <g id="ytick_3">
     <g id="line2d_17">
      <path d="M 43.585938 180.189375 
L 601.585938 180.189375 
" clip-path="url(#p654c174ff4)" style="fill: none; stroke: #cccccc; stroke-width: 0.8; stroke-linecap: round"/>
     </g>
     <g id="line2d_18"/>
     <g id="text_10">
      <!-- −0.2 -->
      <g style="fill: #262626" transform="translate(20.345312 183.768281) scale(0.1 -0.1)">
       <use xlink:href="#ArialMT-2212"/>
       <use xlink:href="#ArialMT-30" transform="translate(58.398438 0)"/>
       <use xlink:href="#ArialMT-2e" transform="translate(114.013672 0)"/>
       <use xlink:href="#ArialMT-32" transform="translate(141.796875 0)"/>
      </g>
     </g>
    </g>
    <g id="ytick_4">
     <g id="line2d_19">
      <path d="M 43.585938 148.509375 
L 601.585938 148.509375 
" clip-path="url(#p654c174ff4)" style="fill: none; stroke: #cccccc; stroke-width: 0.8; stroke-linecap: round"/>
     </g>
     <g id="line2d_20"/>
     <g id="text_11">
      <!-- −0.1 -->
      <g style="fill: #262626" transform="translate(20.345312 152.088281) scale(0.1 -0.1)">
       <use xlink:href="#ArialMT-2212"/>
       <use xlink:href="#ArialMT-30" transform="translate(58.398438 0)"/>
       <use xlink:href="#ArialMT-2e" transform="translate(114.013672 0)"/>
       <use xlink:href="#ArialMT-31" transform="translate(141.796875 0)"/>
      </g>
     </g>
    </g>
    <g id="ytick_5">
     <g id="line2d_21">
      <path d="M 43.585938 116.829375 
L 601.585938 116.829375 
" clip-path="url(#p654c174ff4)" style="fill: none; stroke: #cccccc; stroke-width: 0.8; stroke-linecap: round"/>
     </g>
     <g id="line2d_22"/>
     <g id="text_12">
      <!-- 0.0 -->
      <g style="fill: #262626" transform="translate(26.185938 120.408281) scale(0.1 -0.1)">
       <use xlink:href="#ArialMT-30"/>
       <use xlink:href="#ArialMT-2e" transform="translate(55.615234 0)"/>
       <use xlink:href="#ArialMT-30" transform="translate(83.398438 0)"/>
      </g>
     </g>
    </g>
    <g id="ytick_6">
     <g id="line2d_23">
      <path d="M 43.585938 85.149375 
L 601.585938 85.149375 
" clip-path="url(#p654c174ff4)" style="fill: none; stroke: #cccccc; stroke-width: 0.8; stroke-linecap: round"/>
     </g>
     <g id="line2d_24"/>
     <g id="text_13">
      <!-- 0.1 -->
      <g style="fill: #262626" transform="translate(26.185938 88.728281) scale(0.1 -0.1)">
       <use xlink:href="#ArialMT-30"/>
       <use xlink:href="#ArialMT-2e" transform="translate(55.615234 0)"/>
       <use xlink:href="#ArialMT-31" transform="translate(83.398438 0)"/>
      </g>
     </g>
    </g>
    <g id="ytick_7">
     <g id="line2d_25">
      <path d="M 43.585938 53.469375 
L 601.585938 53.469375 
" clip-path="url(#p654c174ff4)" style="fill: none; stroke: #cccccc; stroke-width: 0.8; stroke-linecap: round"/>
     </g>
     <g id="line2d_26"/>
     <g id="text_14">
      <!-- 0.2 -->
      <g style="fill: #262626" transform="translate(26.185938 57.048281) scale(0.1 -0.1)">
       <use xlink:href="#ArialMT-30"/>
       <use xlink:href="#ArialMT-2e" transform="translate(55.615234 0)"/>
       <use xlink:href="#ArialMT-32" transform="translate(83.398438 0)"/>
      </g>
     </g>
    </g>
    <g id="ytick_8">
     <g id="line2d_27">
      <path d="M 43.585938 21.789375 
L 601.585938 21.789375 
" clip-path="url(#p654c174ff4)" style="fill: none; stroke: #cccccc; stroke-width: 0.8; stroke-linecap: round"/>
     </g>
     <g id="line2d_28"/>
     <g id="text_15">
      <!-- 0.3 -->
      <g style="fill: #262626" transform="translate(26.185938 25.368281) scale(0.1 -0.1)">
       <use xlink:href="#ArialMT-30"/>
       <use xlink:href="#ArialMT-2e" transform="translate(55.615234 0)"/>
       <use xlink:href="#ArialMT-33" transform="translate(83.398438 0)"/>
      </g>
     </g>
    </g>
    <g id="text_16">
     <!-- score -->
     <g style="fill: #262626" transform="translate(14.357812 144.895156) rotate(-90) scale(0.1 -0.1)">
      <defs>
       <path id="ArialMT-73" d="M 197 991 
L 753 1078 
Q 800 744 1014 566 
Q 1228 388 1613 388 
Q 2000 388 2187 545 
Q 2375 703 2375 916 
Q 2375 1106 2209 1216 
Q 2094 1291 1634 1406 
Q 1016 1563 777 1677 
Q 538 1791 414 1992 
Q 291 2194 291 2438 
Q 291 2659 392 2848 
Q 494 3038 669 3163 
Q 800 3259 1026 3326 
Q 1253 3394 1513 3394 
Q 1903 3394 2198 3281 
Q 2494 3169 2634 2976 
Q 2775 2784 2828 2463 
L 2278 2388 
Q 2241 2644 2061 2787 
Q 1881 2931 1553 2931 
Q 1166 2931 1000 2803 
Q 834 2675 834 2503 
Q 834 2394 903 2306 
Q 972 2216 1119 2156 
Q 1203 2125 1616 2013 
Q 2213 1853 2448 1751 
Q 2684 1650 2818 1456 
Q 2953 1263 2953 975 
Q 2953 694 2789 445 
Q 2625 197 2315 61 
Q 2006 -75 1616 -75 
Q 969 -75 630 194 
Q 291 463 197 991 
z
" transform="scale(0.015625)"/>
       <path id="ArialMT-63" d="M 2588 1216 
L 3141 1144 
Q 3050 572 2676 248 
Q 2303 -75 1759 -75 
Q 1078 -75 664 370 
Q 250 816 250 1647 
Q 250 2184 428 2587 
Q 606 2991 970 3192 
Q 1334 3394 1763 3394 
Q 2303 3394 2647 3120 
Q 2991 2847 3088 2344 
L 2541 2259 
Q 2463 2594 2264 2762 
Q 2066 2931 1784 2931 
Q 1359 2931 1093 2626 
Q 828 2322 828 1663 
Q 828 994 1084 691 
Q 1341 388 1753 388 
Q 2084 388 2306 591 
Q 2528 794 2588 1216 
z
" transform="scale(0.015625)"/>
       <path id="ArialMT-6f" d="M 213 1659 
Q 213 2581 725 3025 
Q 1153 3394 1769 3394 
Q 2453 3394 2887 2945 
Q 3322 2497 3322 1706 
Q 3322 1066 3130 698 
Q 2938 331 2570 128 
Q 2203 -75 1769 -75 
Q 1072 -75 642 372 
Q 213 819 213 1659 
z
M 791 1659 
Q 791 1022 1069 705 
Q 1347 388 1769 388 
Q 2188 388 2466 706 
Q 2744 1025 2744 1678 
Q 2744 2294 2464 2611 
Q 2184 2928 1769 2928 
Q 1347 2928 1069 2612 
Q 791 2297 791 1659 
z
" transform="scale(0.015625)"/>
       <path id="ArialMT-72" d="M 416 0 
L 416 3319 
L 922 3319 
L 922 2816 
Q 1116 3169 1280 3281 
Q 1444 3394 1641 3394 
Q 1925 3394 2219 3213 
L 2025 2691 
Q 1819 2813 1613 2813 
Q 1428 2813 1281 2702 
Q 1134 2591 1072 2394 
Q 978 2094 978 1738 
L 978 0 
L 416 0 
z
" transform="scale(0.015625)"/>
      </defs>
      <use xlink:href="#ArialMT-73"/>
      <use xlink:href="#ArialMT-63" transform="translate(50 0)"/>
      <use xlink:href="#ArialMT-6f" transform="translate(100 0)"/>
      <use xlink:href="#ArialMT-72" transform="translate(155.615234 0)"/>
      <use xlink:href="#ArialMT-65" transform="translate(188.916016 0)"/>
     </g>
    </g>
   </g>
   <g id="FillBetweenPolyCollection_1">
    <defs>
     <path id="mc75015f8f5" d="M 44.110091 -232.333708 
L 44.110091 -223.538906 
L 44.750317 -222.239844 
L 45.131218 -221.187014 
L 45.655604 -220.876094 
L 46.174815 -220.997359 
L 46.951378 -220.999323 
L 47.621869 -220.556963 
L 48.070656 -220.206414 
L 48.546616 -219.632685 
L 49.047887 -219.492337 
L 49.748371 -219.697236 
L 50.295902 -219.765332 
L 50.879859 -219.857295 
L 51.442128 -219.638587 
L 51.861515 -219.463886 
L 52.345749 -219.312661 
L 52.970613 -219.078798 
L 53.607611 -218.932416 
L 54.096973 -218.98172 
L 54.764116 -218.81249 
L 55.354714 -218.786597 
L 55.750179 -218.928935 
L 56.354446 -218.982718 
L 56.917911 -218.996412 
L 57.372036 -219.026008 
L 57.950067 -219.138347 
L 58.638713 -219.280225 
L 59.302616 -219.422993 
L 59.815252 -219.600789 
L 60.204584 -219.800401 
L 60.802023 -219.851455 
L 61.471995 -219.925373 
L 61.921734 -219.878202 
L 62.406865 -219.950871 
L 62.977739 -219.881764 
L 63.631702 -220.040946 
L 64.346386 -220.005768 
L 64.892426 -219.901008 
L 65.339906 -219.742943 
L 65.930317 -219.708568 
L 66.404454 -219.67381 
L 66.834177 -219.575339 
L 67.430594 -219.514303 
L 68.161704 -219.418862 
L 68.80102 -219.324753 
L 69.396072 -219.143 
L 69.789957 -219.113729 
L 70.111548 -219.013153 
L 70.944461 -219.052221 
L 71.493739 -219.165944 
L 71.832254 -219.295268 
L 72.54719 -219.271999 
L 73.247199 -219.436444 
L 73.744412 -219.349623 
L 74.363753 -219.40129 
L 75.019263 -219.373563 
L 75.437457 -219.36175 
L 76.053581 -219.440018 
L 76.693533 -219.487581 
L 77.263539 -219.575416 
L 77.647263 -219.660921 
L 78.078167 -219.695075 
L 78.852301 -219.738916 
L 79.464164 -219.713663 
L 79.859634 -219.68101 
L 80.238711 -219.797748 
L 80.930798 -219.666882 
L 81.554408 -219.569378 
L 81.91263 -219.558014 
L 82.632907 -219.682722 
L 83.248752 -219.669672 
L 83.5725 -219.719405 
L 84.108689 -219.806847 
L 84.880936 -220.020903 
L 85.419251 -220.111448 
L 85.948672 -220.160806 
L 86.61124 -220.42278 
L 87.174515 -220.508244 
L 87.73639 -220.587911 
L 88.290725 -220.668778 
L 88.958644 -220.835585 
L 89.421619 -221.05212 
L 89.901681 -221.244457 
L 90.453893 -221.339669 
L 90.936988 -221.406063 
L 91.608918 -221.443785 
L 92.32112 -221.496154 
L 92.702739 -221.644729 
L 93.025723 -221.665598 
L 93.760292 -221.749175 
L 94.307404 -221.988726 
L 94.814411 -222.107724 
L 95.594018 -222.091106 
L 96.119967 -222.078073 
L 96.726572 -222.056855 
L 97.290191 -222.161019 
L 97.808045 -222.416888 
L 98.285478 -222.537738 
L 98.80891 -222.705714 
L 99.52546 -222.908063 
L 100.041036 -223.151603 
L 100.57743 -223.296821 
L 101.247158 -223.373797 
L 101.876878 -223.304822 
L 102.439035 -223.540259 
L 102.940885 -223.62336 
L 103.377238 -223.741414 
L 103.818534 -223.813681 
L 104.424849 -224.049535 
L 105.090991 -224.21453 
L 105.675245 -224.520901 
L 106.085781 -224.574362 
L 106.583633 -224.770658 
L 107.186107 -224.906375 
L 107.708376 -225.049875 
L 108.181148 -225.359787 
L 108.661585 -225.452125 
L 109.257716 -225.611155 
L 109.810426 -225.768323 
L 110.58697 -225.999622 
L 111.342969 -226.393955 
L 111.88961 -226.639089 
L 112.300067 -226.799738 
L 112.71697 -226.847336 
L 113.263134 -227.241825 
L 113.772067 -227.23126 
L 114.336679 -227.328039 
L 114.873764 -227.569582 
L 115.593761 -227.761046 
L 116.336894 -227.976273 
L 116.859433 -228.270271 
L 117.295538 -228.348171 
L 117.867692 -228.489073 
L 118.351545 -228.681441 
L 118.87265 -228.778891 
L 119.587229 -229.201681 
L 120.028209 -229.408255 
L 120.543521 -229.767903 
L 121.272867 -230.014017 
L 121.933114 -230.182615 
L 122.42153 -230.322481 
L 122.749674 -230.426275 
L 123.369088 -230.563778 
L 124.17435 -230.646799 
L 124.543625 -230.870201 
L 124.851144 -230.875965 
L 125.54388 -231.154867 
L 126.124749 -231.272754 
L 126.505277 -231.385191 
L 127.274398 -231.387772 
L 128.007561 -231.370136 
L 128.576175 -231.36612 
L 129.004828 -231.531183 
L 129.45761 -231.567795 
L 130.178803 -231.658064 
L 130.807046 -231.581878 
L 131.255568 -231.598988 
L 131.74128 -231.593038 
L 132.297296 -231.556563 
L 132.876592 -231.532716 
L 133.508402 -231.568831 
L 134.034567 -231.654806 
L 134.647462 -231.716603 
L 135.244384 -231.798417 
L 135.568356 -231.782086 
L 136.215483 -231.956977 
L 136.96032 -232.109041 
L 137.297082 -232.159434 
L 137.73191 -232.304306 
L 138.307351 -232.361019 
L 138.955737 -232.318525 
L 139.452904 -232.451255 
L 139.890314 -232.524872 
L 140.659498 -232.651939 
L 141.275363 -232.783499 
L 141.673721 -232.698207 
L 142.255983 -232.821128 
L 142.931383 -232.848568 
L 143.472894 -232.927357 
L 144.065204 -233.150824 
L 144.791234 -233.156066 
L 145.291901 -233.201006 
L 145.812573 -233.037911 
L 146.416783 -233.122063 
L 146.759684 -233.225495 
L 147.313557 -233.305258 
L 148.054273 -233.056791 
L 148.546179 -233.157677 
L 149.075535 -233.152436 
L 149.508973 -233.001034 
L 150.024754 -233.100153 
L 150.625586 -233.167392 
L 151.082851 -233.224001 
L 151.768271 -233.372 
L 152.557257 -233.316238 
L 153.019071 -233.35481 
L 153.33627 -233.379141 
L 154.064506 -233.398159 
L 154.720751 -233.414587 
L 155.030568 -233.332287 
L 155.580078 -233.370317 
L 156.215243 -233.231541 
L 156.784389 -233.242626 
L 157.507421 -233.309216 
L 158.164383 -233.404665 
L 158.506096 -233.37072 
L 159.024845 -233.496064 
L 159.774176 -233.6525 
L 160.196947 -233.517343 
L 160.614317 -233.539259 
L 161.36098 -233.572217 
L 161.941577 -233.601253 
L 162.543918 -233.578333 
L 163.245443 -233.382257 
L 163.615297 -233.458818 
L 164.114588 -233.479902 
L 164.773809 -233.477989 
L 165.345815 -233.61694 
L 165.826436 -233.621952 
L 166.207377 -233.734767 
L 166.714619 -233.795192 
L 167.398926 -233.753435 
L 168.03572 -233.778224 
L 168.526152 -233.787219 
L 169.018861 -233.6097 
L 169.574393 -233.532165 
L 170.3037 -233.393424 
L 170.880232 -233.488759 
L 171.360685 -233.434435 
L 171.898524 -233.462574 
L 172.34057 -233.521493 
L 173.040054 -233.516334 
L 173.769771 -233.466941 
L 174.133671 -233.399342 
L 174.487521 -233.330185 
L 175.151617 -233.395392 
L 175.954499 -233.284435 
L 176.637629 -233.212295 
L 177.159202 -232.873529 
L 177.512645 -232.66196 
L 177.928029 -232.711596 
L 178.510466 -232.836121 
L 179.045183 -232.826279 
L 179.759623 -232.783767 
L 180.385554 -232.609407 
L 180.86341 -232.5516 
L 181.384447 -232.548717 
L 181.862254 -232.566239 
L 182.564805 -232.540534 
L 183.19336 -232.565967 
L 183.581655 -232.500262 
L 184.207803 -232.605769 
L 184.943736 -232.478532 
L 185.350654 -232.448452 
L 185.914709 -232.484407 
L 186.563891 -232.53642 
L 186.937726 -232.513991 
L 187.476435 -232.331243 
L 188.185638 -232.218714 
L 188.781651 -232.243152 
L 189.184847 -232.160144 
L 189.606843 -232.158447 
L 190.138444 -232.105152 
L 190.872451 -232.108967 
L 191.45198 -231.87053 
L 191.923078 -231.893372 
L 192.508841 -231.865177 
L 193.193264 -231.957785 
L 193.804598 -232.06435 
L 194.273052 -231.96675 
L 194.897752 -231.869893 
L 195.397237 -231.856075 
L 195.880168 -231.81834 
L 196.382103 -231.808016 
L 197.046304 -231.667706 
L 197.798179 -231.636202 
L 198.159206 -231.529354 
L 198.534651 -231.4928 
L 199.052918 -231.229516 
L 199.676166 -231.20218 
L 200.359304 -231.10757 
L 200.928139 -231.028586 
L 201.492228 -231.022437 
L 202.130934 -230.774651 
L 202.821157 -230.550075 
L 203.426574 -230.198291 
L 203.971155 -230.152331 
L 204.466273 -229.91286 
L 205.014353 -229.883292 
L 205.378865 -229.77564 
L 205.937599 -229.675359 
L 206.589946 -229.371494 
L 206.939512 -229.297822 
L 207.518072 -229.198163 
L 208.29427 -229.045318 
L 208.911294 -228.794223 
L 209.459446 -228.860941 
L 210.088649 -228.569472 
L 210.619183 -228.543617 
L 211.151804 -228.43536 
L 211.764318 -228.229134 
L 212.171279 -227.926973 
L 212.506086 -227.867058 
L 213.246181 -227.643134 
L 213.962782 -227.458508 
L 214.364919 -227.280002 
L 214.883417 -227.233074 
L 215.408859 -227.222495 
L 215.987008 -227.009318 
L 216.492715 -226.904328 
L 217.116631 -226.743323 
L 217.900682 -226.738687 
L 218.243509 -226.656513 
L 218.644965 -226.501191 
L 219.269491 -226.412318 
L 219.850942 -226.40138 
L 220.496142 -226.353982 
L 221.050389 -226.177753 
L 221.61354 -226.103821 
L 222.106232 -225.8608 
L 222.631414 -225.644482 
L 223.172527 -225.527794 
L 223.727204 -225.061328 
L 224.271573 -224.589155 
L 224.780625 -224.521327 
L 225.446592 -224.493795 
L 226.0764 -224.367513 
L 226.604217 -224.344789 
L 227.114837 -224.198219 
L 227.586393 -223.977475 
L 228.071716 -223.934129 
L 228.903649 -223.757514 
L 229.460356 -223.572495 
L 229.88644 -223.535991 
L 230.422892 -223.408542 
L 230.861508 -223.446664 
L 231.4363 -223.244303 
L 232.204899 -222.982344 
L 232.952095 -222.920065 
L 233.489999 -222.922525 
L 233.823952 -222.781239 
L 234.267228 -222.804 
L 235.016644 -222.774439 
L 235.614009 -222.69119 
L 236.120752 -222.663883 
L 236.728272 -222.544557 
L 237.277951 -222.315898 
L 237.865892 -222.156654 
L 238.499197 -221.840224 
L 239.053141 -221.583903 
L 239.534085 -221.504573 
L 239.904403 -221.233739 
L 240.474467 -221.104973 
L 241.193805 -221.063566 
L 241.853308 -220.921858 
L 242.382436 -220.449981 
L 242.695973 -220.188947 
L 243.25477 -220.021506 
L 243.907418 -219.837719 
L 244.560799 -219.488639 
L 245.242631 -219.254884 
L 245.620951 -219.046806 
L 245.951348 -218.663282 
L 246.623782 -218.648274 
L 247.282416 -218.479295 
L 247.730533 -218.001668 
L 248.332059 -217.868587 
L 248.870656 -217.621205 
L 249.495257 -217.381872 
L 250.192045 -217.202597 
L 250.727517 -217.018095 
L 251.217048 -216.807397 
L 251.62007 -216.492586 
L 252.315503 -216.213406 
L 252.910478 -216.064528 
L 253.369442 -215.845809 
L 254.044766 -215.388476 
L 254.450343 -215.227088 
L 254.989446 -215.118878 
L 255.601953 -214.967527 
L 256.051617 -214.655335 
L 256.809406 -214.368425 
L 257.476456 -214.170528 
L 258.004086 -214.162216 
L 258.647956 -213.908762 
L 259.120105 -213.583256 
L 259.418582 -213.120271 
L 259.9463 -212.714833 
L 260.607824 -212.424625 
L 261.21392 -212.143903 
L 261.775759 -211.820797 
L 262.291392 -211.587377 
L 262.887089 -211.351634 
L 263.531258 -211.143916 
L 263.957944 -210.842084 
L 264.432801 -210.789467 
L 265.087063 -210.693548 
L 265.679956 -210.525275 
L 266.30057 -210.480597 
L 266.954434 -210.335283 
L 267.381965 -210.021483 
L 267.842249 -209.767778 
L 268.448908 -209.511437 
L 269.046887 -209.337399 
L 269.642194 -209.229954 
L 270.03896 -208.96074 
L 270.677816 -208.899574 
L 271.332122 -208.541255 
L 271.689283 -208.355346 
L 272.216465 -208.217148 
L 272.961627 -207.933012 
L 273.533355 -207.838025 
L 273.976419 -207.766335 
L 274.525197 -207.369968 
L 275.239566 -207.367682 
L 275.766685 -206.963302 
L 276.222064 -206.922864 
L 276.934408 -206.59486 
L 277.557398 -206.32086 
L 278.085146 -206.042812 
L 278.511274 -205.994841 
L 278.859985 -205.771475 
L 279.589234 -205.516125 
L 280.193321 -205.220904 
L 280.709249 -204.97651 
L 281.495955 -204.882124 
L 282.096514 -204.528306 
L 282.410565 -204.39469 
L 282.847838 -204.128347 
L 283.623909 -203.523813 
L 284.110678 -202.937693 
L 284.456075 -202.82625 
L 285.226191 -202.175726 
L 285.757019 -202.000097 
L 286.217195 -201.561141 
L 286.913165 -201.513174 
L 287.452497 -201.008949 
L 287.994486 -200.574698 
L 288.419454 -200.328091 
L 289.104073 -200.03136 
L 289.849173 -199.528202 
L 290.194879 -199.065829 
L 290.719351 -198.662773 
L 291.395927 -198.531621 
L 291.853592 -198.297027 
L 292.470503 -198.037082 
L 293.074102 -197.778161 
L 293.421903 -197.487996 
L 294.077938 -197.226678 
L 294.7669 -197.169184 
L 295.185392 -196.729886 
L 295.786737 -196.104605 
L 296.510069 -195.308562 
L 297.120348 -195.225504 
L 297.639338 -194.818214 
L 298.053907 -194.30634 
L 298.461796 -194.109583 
L 299.032509 -193.830866 
L 299.617111 -193.512728 
L 300.109511 -193.463149 
L 300.634235 -193.490119 
L 301.177102 -193.350513 
L 301.732238 -193.257749 
L 302.463448 -192.693128 
L 303.123026 -192.346742 
L 303.486828 -191.983873 
L 303.949735 -191.893919 
L 304.651015 -191.357037 
L 305.38583 -191.154879 
L 305.976108 -190.776069 
L 306.559331 -190.622904 
L 307.133655 -190.339915 
L 307.543099 -190.087596 
L 308.062693 -189.695397 
L 308.549222 -189.300584 
L 308.970425 -188.951842 
L 309.694053 -188.37802 
L 310.392105 -188.013395 
L 310.753983 -187.73529 
L 311.248893 -187.694674 
L 311.998365 -187.525456 
L 312.597243 -187.421291 
L 312.995223 -187.053584 
L 313.542176 -186.642314 
L 314.267041 -186.250763 
L 314.787354 -185.784435 
L 315.36953 -185.657816 
L 316.073372 -185.408487 
L 316.446771 -185.21826 
L 316.79441 -184.828335 
L 317.323333 -184.503612 
L 317.886431 -184.008412 
L 318.674822 -183.827979 
L 319.315786 -183.640475 
L 319.90312 -183.162593 
L 320.542241 -183.051266 
L 320.902818 -182.890597 
L 321.532344 -182.563182 
L 322.140398 -182.170128 
L 322.54214 -181.5297 
L 323.190826 -181.477678 
L 323.699148 -181.198704 
L 324.317055 -180.482829 
L 324.895154 -179.762778 
L 325.228568 -179.217671 
L 325.930717 -178.733389 
L 326.643091 -178.200682 
L 327.081573 -177.959273 
L 327.604198 -177.353086 
L 328.138181 -177.326134 
L 328.607631 -177.182924 
L 329.147821 -176.9387 
L 329.754568 -176.489083 
L 330.418181 -176.308472 
L 330.983654 -176.031848 
L 331.509334 -175.702612 
L 332.117797 -175.238205 
L 332.573789 -175.097022 
L 332.960046 -174.926109 
L 333.525905 -174.439041 
L 334.109138 -174.35116 
L 334.782283 -173.58808 
L 335.40671 -172.757127 
L 335.86646 -172.44126 
L 336.407707 -172.199505 
L 336.934442 -172.178602 
L 337.456416 -171.635868 
L 338.139698 -171.338226 
L 338.795401 -171.227422 
L 339.464486 -171.024217 
L 340.065048 -170.445941 
L 340.618009 -170.11161 
L 341.166034 -169.981111 
L 341.628859 -169.783656 
L 342.191762 -169.067376 
L 342.767699 -168.90397 
L 343.372046 -168.20345 
L 343.993582 -167.724344 
L 344.328626 -167.396222 
L 344.788287 -166.979038 
L 345.359998 -166.631384 
L 345.892695 -166.327335 
L 346.488963 -166.095693 
L 346.9657 -165.771437 
L 347.521367 -165.295696 
L 348.261451 -164.711494 
L 348.958301 -163.910128 
L 349.296835 -163.705669 
L 349.816839 -163.288134 
L 350.44485 -162.903751 
L 350.848864 -162.580922 
L 351.601142 -162.038637 
L 352.25489 -161.410372 
L 352.553882 -160.980292 
L 353.280752 -160.504111 
L 354.068912 -160.176771 
L 354.388594 -159.773874 
L 354.909708 -159.466489 
L 355.549397 -159.00257 
L 356.179733 -158.473584 
L 356.763471 -157.980241 
L 357.057158 -157.615871 
L 357.562863 -157.011136 
L 358.274573 -156.781117 
L 358.849229 -156.501475 
L 359.402084 -155.374697 
L 360.010587 -154.879083 
L 360.587771 -154.446644 
L 361.121769 -153.792473 
L 361.592128 -152.92336 
L 362.167008 -152.085462 
L 362.901393 -151.607087 
L 363.463171 -151.106299 
L 363.780545 -150.540495 
L 364.189076 -149.66258 
L 364.887274 -148.925124 
L 365.546574 -148.852136 
L 366.013102 -148.511504 
L 366.587356 -148.129352 
L 367.114863 -147.823277 
L 367.577429 -147.29098 
L 368.301679 -146.72633 
L 369.077322 -146.383186 
L 369.651503 -145.937091 
L 370.017801 -145.510136 
L 370.464357 -145.301797 
L 371.020779 -144.571759 
L 371.639103 -144.348919 
L 372.16228 -143.883438 
L 372.548057 -143.25667 
L 373.205153 -142.456188 
L 373.908317 -142.228614 
L 374.462587 -141.696632 
L 375.03347 -141.483953 
L 375.692737 -141.097024 
L 376.126048 -140.48001 
L 376.617276 -140.415064 
L 377.375749 -139.908988 
L 377.997805 -139.159488 
L 378.361885 -138.833043 
L 378.72796 -138.35889 
L 379.260398 -137.937152 
L 380.012611 -137.614547 
L 380.786783 -136.733551 
L 381.386139 -136.107071 
L 381.929717 -135.376444 
L 382.379754 -134.799088 
L 382.794052 -134.177375 
L 383.355355 -133.195878 
L 384.093591 -132.435834 
L 384.575877 -131.867677 
L 385.072334 -131.04446 
L 385.761252 -130.602589 
L 386.265404 -129.815047 
L 386.861933 -129.134573 
L 387.372757 -127.879471 
L 387.720769 -126.834989 
L 388.246014 -126.225696 
L 389.022797 -125.663463 
L 389.700963 -125.070252 
L 390.138539 -124.274462 
L 390.551092 -123.32843 
L 391.181674 -122.398103 
L 391.733822 -121.542106 
L 392.184018 -120.75038 
L 392.80282 -120.38353 
L 393.433686 -120.010258 
L 393.96308 -119.305627 
L 394.533927 -118.687056 
L 395.228634 -117.938687 
L 395.87324 -117.722127 
L 396.246862 -117.138506 
L 396.648096 -116.594348 
L 397.406543 -116.259337 
L 397.985085 -115.872815 
L 398.600329 -115.617936 
L 399.046458 -114.855179 
L 399.375174 -114.030318 
L 400.056174 -113.997421 
L 400.776595 -113.690828 
L 401.339736 -112.861731 
L 401.930722 -112.344505 
L 402.603165 -111.803666 
L 403.133684 -111.522976 
L 403.694381 -111.182994 
L 404.156668 -110.582812 
L 404.48826 -110.072833 
L 404.962108 -109.137151 
L 405.661295 -108.572842 
L 406.268422 -107.879842 
L 406.698907 -107.384138 
L 407.201057 -106.864819 
L 407.837431 -106.365579 
L 408.384869 -106.104336 
L 408.890171 -105.69996 
L 409.61154 -105.37292 
L 410.265237 -105.116948 
L 410.854844 -104.62873 
L 411.28992 -103.886713 
L 411.64596 -103.469224 
L 412.320909 -102.943887 
L 412.980365 -102.669594 
L 413.56456 -102.529821 
L 414.026547 -102.237423 
L 414.527778 -101.391372 
L 415.28947 -100.878418 
L 415.933172 -100.428312 
L 416.281611 -99.975761 
L 416.739705 -99.379395 
L 417.407982 -99.17455 
L 417.899311 -98.779969 
L 418.517022 -98.613155 
L 419.279679 -98.423654 
L 419.901642 -98.303978 
L 420.287386 -98.123668 
L 420.684903 -97.73154 
L 421.375119 -97.625088 
L 422.075736 -97.125533 
L 422.665535 -96.534874 
L 423.198788 -96.301565 
L 423.533413 -95.627976 
L 424.082886 -95.317551 
L 424.648121 -95.331343 
L 425.080303 -94.95249 
L 425.80575 -95.029587 
L 426.493793 -95.05355 
L 426.879157 -94.907516 
L 427.281311 -94.636583 
L 427.834821 -94.095461 
L 428.500805 -93.825697 
L 429.1848 -93.517122 
L 429.843409 -93.157779 
L 430.352001 -92.849968 
L 430.863835 -92.942311 
L 431.500017 -92.733623 
L 432.022768 -92.592571 
L 432.411697 -92.32368 
L 432.805771 -92.125911 
L 433.358768 -91.768201 
L 434.157768 -91.294239 
L 434.739548 -91.155378 
L 435.078295 -90.858215 
L 435.768219 -90.656068 
L 436.571405 -90.49242 
L 437.030409 -90.42768 
L 437.426109 -90.43433 
L 437.930664 -90.40708 
L 438.530626 -90.255159 
L 439.267068 -90.098254 
L 439.808391 -89.919734 
L 440.338007 -89.806183 
L 440.983151 -89.606852 
L 441.471097 -89.232973 
L 442.005476 -89.137956 
L 442.713397 -88.865673 
L 443.34853 -88.696411 
L 443.773326 -88.36753 
L 444.336149 -87.421614 
L 444.954709 -87.253688 
L 445.378884 -86.927119 
L 445.95105 -86.543905 
L 446.409216 -86.10916 
L 446.828729 -85.902835 
L 447.55167 -85.554708 
L 448.134714 -85.236316 
L 448.726437 -85.04068 
L 449.328676 -84.977865 
L 449.904929 -84.752971 
L 450.520047 -84.441365 
L 450.868187 -83.926443 
L 451.381402 -83.878488 
L 452.118602 -83.430815 
L 452.553512 -83.145256 
L 452.975469 -82.768439 
L 453.565989 -82.523459 
L 454.058746 -82.226478 
L 454.790389 -82.059837 
L 455.443464 -81.824158 
L 455.965019 -81.791125 
L 456.483898 -81.258652 
L 457.08047 -80.808036 
L 457.693436 -80.464251 
L 458.124371 -80.267406 
L 458.662658 -79.977649 
L 459.200463 -79.960939 
L 459.872684 -79.405595 
L 460.386652 -79.256174 
L 460.725034 -79.078637 
L 461.41566 -78.654207 
L 462.14515 -78.26295 
L 462.576698 -77.620944 
L 463.101974 -77.396305 
L 463.849302 -77.170858 
L 464.514752 -76.830185 
L 465.002725 -76.598711 
L 465.35051 -76.543519 
L 465.849445 -76.493848 
L 466.583966 -75.751612 
L 467.335316 -75.570166 
L 467.76982 -75.438516 
L 468.138414 -75.375716 
L 468.824102 -75.303748 
L 469.331026 -75.178103 
L 469.696813 -74.598163 
L 470.242087 -74.497439 
L 470.993513 -74.109438 
L 471.751843 -74.118162 
L 472.205544 -73.939772 
L 472.783417 -73.75173 
L 473.360996 -73.362408 
L 473.832935 -72.871308 
L 474.438404 -72.399326 
L 475.109136 -72.204984 
L 475.720267 -71.73185 
L 476.265007 -71.245324 
L 476.783316 -70.935273 
L 477.277143 -70.744584 
L 477.845981 -70.392582 
L 478.367634 -69.97956 
L 478.842247 -69.807563 
L 479.364125 -70.016566 
L 479.953266 -69.908722 
L 480.519869 -69.550113 
L 481.08252 -69.581035 
L 481.615423 -69.398715 
L 482.212039 -69.189953 
L 482.680128 -68.880072 
L 483.14631 -68.707862 
L 483.855004 -68.566633 
L 484.387644 -68.129896 
L 484.784363 -67.94313 
L 485.267933 -67.567309 
L 486.022052 -67.460152 
L 486.671141 -67.058502 
L 487.26589 -66.949908 
L 487.766958 -66.725164 
L 488.280978 -66.863972 
L 488.984479 -66.557782 
L 489.624749 -66.376081 
L 490.043461 -66.223913 
L 490.473695 -65.477761 
L 491.177792 -65.439937 
L 491.59431 -65.078668 
L 492.139612 -64.878383 
L 492.874947 -64.734927 
L 493.374989 -64.533941 
L 493.811173 -64.366542 
L 494.40174 -64.048067 
L 494.950275 -63.671504 
L 495.461433 -63.43478 
L 496.114168 -63.35045 
L 496.627775 -63.089626 
L 497.16561 -62.99526 
L 497.723636 -62.680209 
L 498.255021 -62.702544 
L 498.79336 -62.559107 
L 499.509186 -62.541935 
L 500.132982 -62.4773 
L 500.507284 -62.365976 
L 501.008198 -62.001629 
L 501.685434 -61.857318 
L 502.24781 -61.898651 
L 502.61699 -61.430546 
L 503.363038 -61.358724 
L 503.923103 -61.356136 
L 504.407725 -61.315052 
L 505.015846 -61.242615 
L 505.553908 -61.243682 
L 506.05505 -61.207949 
L 506.590635 -60.973926 
L 507.211591 -60.983207 
L 507.666139 -60.929171 
L 508.343331 -60.824825 
L 509.055992 -60.556938 
L 509.640693 -60.221823 
L 510.158293 -60.041534 
L 510.712239 -59.963572 
L 511.264607 -59.947109 
L 511.857538 -59.310887 
L 512.488896 -59.199743 
L 512.963495 -58.854609 
L 513.301286 -58.869223 
L 513.8057 -58.45572 
L 514.395593 -58.272246 
L 514.919677 -58.084629 
L 515.472484 -57.891641 
L 516.148123 -57.619689 
L 516.767628 -57.256505 
L 517.205167 -57.187121 
L 517.763465 -56.991092 
L 518.517509 -56.774884 
L 519.255802 -56.654263 
L 519.605987 -56.183678 
L 519.982097 -55.939764 
L 520.62896 -55.783043 
L 521.229199 -55.630401 
L 521.729746 -55.455127 
L 522.315397 -55.519114 
L 522.845025 -55.470308 
L 523.432855 -55.699391 
L 524.010584 -55.695007 
L 524.505215 -55.695706 
L 525.158048 -55.732834 
L 525.733759 -55.629888 
L 526.268129 -55.459288 
L 526.860377 -55.199432 
L 527.356359 -54.920735 
L 527.962639 -54.498104 
L 528.625488 -54.357617 
L 529.049615 -54.218504 
L 529.551985 -54.250935 
L 530.274549 -54.121293 
L 530.71257 -53.928917 
L 531.151702 -53.80545 
L 531.702609 -53.796248 
L 532.254201 -53.722731 
L 532.836486 -53.708354 
L 533.297881 -53.848003 
L 533.990399 -53.874181 
L 534.722198 -53.797546 
L 535.346084 -53.85712 
L 535.818338 -53.73581 
L 536.279814 -53.653148 
L 536.885575 -53.582251 
L 537.515618 -53.558947 
L 538.174122 -53.479838 
L 538.727823 -53.542535 
L 539.255737 -53.354317 
L 539.820504 -53.302592 
L 540.34185 -53.256397 
L 540.697357 -53.308202 
L 541.095968 -53.233256 
L 541.801319 -53.093722 
L 542.349595 -53.098067 
L 542.856791 -53.228732 
L 543.462589 -53.288051 
L 543.929132 -53.426983 
L 544.518118 -53.720961 
L 545.095605 -54.082207 
L 545.629961 -54.205335 
L 546.241658 -54.29812 
L 546.773198 -54.469932 
L 547.336124 -54.573511 
L 548.000204 -54.613798 
L 548.583746 -54.248493 
L 549.022563 -54.148988 
L 549.73243 -53.793363 
L 550.365454 -53.644653 
L 550.763861 -53.234909 
L 551.308001 -52.907945 
L 551.779211 -52.858453 
L 552.436147 -52.55341 
L 553.111065 -52.40273 
L 553.663932 -52.41675 
L 554.122189 -52.337332 
L 554.586268 -52.384679 
L 555.292526 -52.195932 
L 555.859788 -51.875828 
L 556.363404 -51.662393 
L 556.804809 -51.513919 
L 557.437826 -51.472773 
L 558.229421 -51.299417 
L 558.811439 -51.221463 
L 559.146382 -51.025567 
L 559.726528 -50.781465 
L 560.368374 -50.652722 
L 560.882257 -50.400356 
L 561.521009 -50.276179 
L 562.048326 -49.961384 
L 562.512312 -49.482862 
L 562.914906 -48.588459 
L 563.533976 -48.247116 
L 564.233461 -48.046933 
L 564.787148 -47.768977 
L 565.234118 -47.329416 
L 565.687733 -47.030219 
L 566.237708 -46.482092 
L 566.854179 -46.088313 
L 567.572703 -45.567107 
L 568.079829 -45.197671 
L 568.622667 -44.842972 
L 569.164158 -44.520339 
L 569.53679 -44.316838 
L 570.145654 -44.11013 
L 570.815085 -43.836049 
L 571.524197 -43.59305 
L 572.094638 -43.373139 
L 572.556414 -43.174973 
L 573.049538 -43.13021 
L 573.628008 -43.22628 
L 574.273574 -43.153994 
L 574.800943 -43.390167 
L 575.235368 -43.382266 
L 575.872953 -43.365106 
L 576.587559 -43.56566 
L 577.215751 -43.726379 
L 577.648677 -43.972341 
L 577.965333 -44.08571 
L 578.490231 -44.032115 
L 579.182522 -44.116355 
L 579.959471 -44.176864 
L 580.47656 -44.104046 
L 580.811078 -44.100301 
L 581.458468 -44.284261 
L 581.993732 -44.540856 
L 582.389937 -44.725293 
L 582.976436 -44.848331 
L 583.757839 -44.717914 
L 584.430662 -44.596445 
L 584.751199 -44.447714 
L 585.436827 -44.36083 
L 586.163483 -44.19479 
L 586.504257 -44.011745 
L 586.875296 -44.023158 
L 587.439525 -44.263689 
L 588.248537 -44.317698 
L 588.930057 -44.237394 
L 589.35745 -44.137039 
L 589.879366 -43.912847 
L 590.476657 -43.813462 
L 590.929481 -43.788113 
L 591.442089 -43.777872 
L 592.068369 -43.812026 
L 592.733811 -43.964832 
L 593.293554 -43.766126 
L 593.781508 -43.844319 
L 594.348745 -43.764003 
L 595.00745 -44.004001 
L 595.625681 -44.356775 
L 595.996707 -44.390855 
L 596.568705 -44.126015 
L 597.235148 -44.043781 
L 597.617071 -43.83366 
L 598.109325 -43.886154 
L 598.717965 -44.039162 
L 599.369305 -44.358192 
L 599.922794 -44.541439 
L 600.435774 -44.613518 
L 601.076607 -45.59573 
L 601.33003 -45.75627 
L 601.33003 -67.275196 
L 601.33003 -67.275196 
L 601.076607 -63.555292 
L 600.435774 -59.022866 
L 599.922794 -57.059618 
L 599.369305 -56.609672 
L 598.717965 -56.861707 
L 598.109325 -56.02751 
L 597.617071 -55.640995 
L 597.235148 -54.549968 
L 596.568705 -54.089681 
L 595.996707 -53.783869 
L 595.625681 -53.246352 
L 595.00745 -52.79603 
L 594.348745 -52.573066 
L 593.781508 -52.103624 
L 593.293554 -51.952802 
L 592.733811 -51.847665 
L 592.068369 -51.795373 
L 591.442089 -51.656184 
L 590.929481 -51.546652 
L 590.476657 -51.568895 
L 589.879366 -51.470567 
L 589.35745 -51.525019 
L 588.930057 -51.312799 
L 588.248537 -51.109101 
L 587.439525 -51.188125 
L 586.875296 -51.110846 
L 586.504257 -51.099675 
L 586.163483 -51.144571 
L 585.436827 -51.41873 
L 584.751199 -51.461131 
L 584.430662 -51.511557 
L 583.757839 -51.666476 
L 582.976436 -51.602563 
L 582.389937 -51.389618 
L 581.993732 -51.14789 
L 581.458468 -50.946622 
L 580.811078 -50.888763 
L 580.47656 -50.948569 
L 579.959471 -51.021237 
L 579.182522 -50.875928 
L 578.490231 -50.828975 
L 577.965333 -50.734251 
L 577.648677 -50.76638 
L 577.215751 -50.788675 
L 576.587559 -50.718702 
L 575.872953 -50.652486 
L 575.235368 -50.60989 
L 574.800943 -50.710341 
L 574.273574 -50.722817 
L 573.628008 -50.758248 
L 573.049538 -51.017837 
L 572.556414 -51.078716 
L 572.094638 -51.357542 
L 571.524197 -51.816285 
L 570.815085 -52.012011 
L 570.145654 -52.180435 
L 569.53679 -52.296805 
L 569.164158 -52.372784 
L 568.622667 -52.408364 
L 568.079829 -52.597082 
L 567.572703 -52.864531 
L 566.854179 -52.985816 
L 566.237708 -53.488436 
L 565.687733 -53.884967 
L 565.234118 -54.137187 
L 564.787148 -54.099427 
L 564.233461 -54.403711 
L 563.533976 -54.766163 
L 562.914906 -54.851712 
L 562.512312 -55.882296 
L 562.048326 -56.125014 
L 561.521009 -56.481937 
L 560.882257 -56.940622 
L 560.368374 -57.208213 
L 559.726528 -57.429352 
L 559.146382 -57.54783 
L 558.811439 -57.720029 
L 558.229421 -58.341357 
L 557.437826 -58.531462 
L 556.804809 -58.683519 
L 556.363404 -58.797644 
L 555.859788 -59.231266 
L 555.292526 -59.36762 
L 554.586268 -59.447794 
L 554.122189 -59.476176 
L 553.663932 -59.749417 
L 553.111065 -59.777414 
L 552.436147 -59.873748 
L 551.779211 -60.195466 
L 551.308001 -60.242087 
L 550.763861 -60.361591 
L 550.365454 -60.514683 
L 549.73243 -60.757555 
L 549.022563 -61.039667 
L 548.583746 -61.260103 
L 548.000204 -61.216577 
L 547.336124 -61.223732 
L 546.773198 -61.026066 
L 546.241658 -60.784283 
L 545.629961 -60.683106 
L 545.095605 -60.627589 
L 544.518118 -60.40336 
L 543.929132 -60.433513 
L 543.462589 -60.499544 
L 542.856791 -60.507525 
L 542.349595 -60.764929 
L 541.801319 -60.742269 
L 541.095968 -60.828054 
L 540.697357 -60.878772 
L 540.34185 -60.976146 
L 539.820504 -61.000326 
L 539.255737 -61.077317 
L 538.727823 -61.186763 
L 538.174122 -61.232597 
L 537.515618 -61.51548 
L 536.885575 -61.551812 
L 536.279814 -61.602831 
L 535.818338 -61.581713 
L 535.346084 -61.936115 
L 534.722198 -62.108734 
L 533.990399 -62.297053 
L 533.297881 -62.47063 
L 532.836486 -62.745699 
L 532.254201 -63.105285 
L 531.702609 -63.173079 
L 531.151702 -63.108639 
L 530.71257 -63.11337 
L 530.274549 -63.275298 
L 529.551985 -63.280833 
L 529.049615 -63.755278 
L 528.625488 -63.739152 
L 527.962639 -63.796565 
L 527.356359 -64.054253 
L 526.860377 -64.435584 
L 526.268129 -64.666567 
L 525.733759 -64.779581 
L 525.158048 -64.746876 
L 524.505215 -64.726711 
L 524.010584 -64.959866 
L 523.432855 -65.02559 
L 522.845025 -65.324579 
L 522.315397 -65.518203 
L 521.729746 -65.492998 
L 521.229199 -65.537132 
L 520.62896 -65.697457 
L 519.982097 -66.067597 
L 519.605987 -66.166814 
L 519.255802 -66.462192 
L 518.517509 -66.479133 
L 517.763465 -66.580509 
L 517.205167 -66.691359 
L 516.767628 -66.846504 
L 516.148123 -66.935543 
L 515.472484 -67.222322 
L 514.919677 -67.262887 
L 514.395593 -67.403885 
L 513.8057 -67.532277 
L 513.301286 -67.721637 
L 512.963495 -68.047819 
L 512.488896 -68.255862 
L 511.857538 -68.477985 
L 511.264607 -68.588411 
L 510.712239 -68.821998 
L 510.158293 -68.938627 
L 509.640693 -69.007789 
L 509.055992 -69.602611 
L 508.343331 -69.619652 
L 507.666139 -69.732043 
L 507.211591 -69.880265 
L 506.590635 -69.916255 
L 506.05505 -70.06982 
L 505.553908 -70.26842 
L 505.015846 -70.257186 
L 504.407725 -70.30713 
L 503.923103 -70.435132 
L 503.363038 -70.427148 
L 502.61699 -70.493375 
L 502.24781 -70.610361 
L 501.685434 -70.617157 
L 501.008198 -70.918396 
L 500.507284 -70.984323 
L 500.132982 -71.055468 
L 499.509186 -70.829841 
L 498.79336 -70.886951 
L 498.255021 -71.130342 
L 497.723636 -71.257651 
L 497.16561 -71.920625 
L 496.627775 -72.099832 
L 496.114168 -72.359892 
L 495.461433 -72.413817 
L 494.950275 -72.789701 
L 494.40174 -72.86413 
L 493.811173 -73.120295 
L 493.374989 -73.410987 
L 492.874947 -73.447031 
L 492.139612 -73.446817 
L 491.59431 -73.551199 
L 491.177792 -73.785346 
L 490.473695 -74.631698 
L 490.043461 -74.913362 
L 489.624749 -75.121399 
L 488.984479 -75.281533 
L 488.280978 -75.424593 
L 487.766958 -76.157145 
L 487.26589 -76.33664 
L 486.671141 -76.673663 
L 486.022052 -76.934491 
L 485.267933 -77.14176 
L 484.784363 -77.700055 
L 484.387644 -77.766107 
L 483.855004 -78.027555 
L 483.14631 -78.120505 
L 482.680128 -78.222803 
L 482.212039 -78.573146 
L 481.615423 -78.694627 
L 481.08252 -79.019526 
L 480.519869 -79.177989 
L 479.953266 -79.444136 
L 479.364125 -79.716569 
L 478.842247 -80.414207 
L 478.367634 -80.660811 
L 477.845981 -80.847024 
L 477.277143 -80.913572 
L 476.783316 -81.113234 
L 476.265007 -81.28295 
L 475.720267 -81.433259 
L 475.109136 -81.588161 
L 474.438404 -82.050654 
L 473.832935 -82.586908 
L 473.360996 -82.624288 
L 472.783417 -82.886999 
L 472.205544 -83.171387 
L 471.751843 -83.301748 
L 470.993513 -83.779176 
L 470.242087 -84.159329 
L 469.696813 -84.246849 
L 469.331026 -84.657711 
L 468.824102 -84.880469 
L 468.138414 -85.198485 
L 467.76982 -85.589443 
L 467.335316 -85.84751 
L 466.583966 -86.002997 
L 465.849445 -86.370161 
L 465.35051 -86.430363 
L 465.002725 -86.37505 
L 464.514752 -86.633997 
L 463.849302 -86.786493 
L 463.101974 -86.945085 
L 462.576698 -87.111351 
L 462.14515 -87.454851 
L 461.41566 -87.622571 
L 460.725034 -87.797925 
L 460.386652 -87.928588 
L 459.872684 -88.247994 
L 459.200463 -88.45037 
L 458.662658 -88.810088 
L 458.124371 -89.197325 
L 457.693436 -89.505608 
L 457.08047 -89.710113 
L 456.483898 -90.004241 
L 455.965019 -90.268016 
L 455.443464 -90.677937 
L 454.790389 -90.905691 
L 454.058746 -91.169 
L 453.565989 -91.911825 
L 452.975469 -92.324771 
L 452.553512 -92.438605 
L 452.118602 -92.587219 
L 451.381402 -92.712745 
L 450.868187 -92.865362 
L 450.520047 -93.298639 
L 449.904929 -93.690822 
L 449.328676 -94.070484 
L 448.726437 -94.083581 
L 448.134714 -94.267213 
L 447.55167 -94.559645 
L 446.828729 -94.665734 
L 446.409216 -94.76323 
L 445.95105 -94.989315 
L 445.378884 -95.09927 
L 444.954709 -95.352108 
L 444.336149 -95.668916 
L 443.773326 -95.863752 
L 443.34853 -96.371102 
L 442.713397 -96.894969 
L 442.005476 -97.140386 
L 441.471097 -97.571829 
L 440.983151 -98.10491 
L 440.338007 -98.187462 
L 439.808391 -98.338683 
L 439.267068 -98.583872 
L 438.530626 -98.807393 
L 437.930664 -98.885793 
L 437.426109 -99.278043 
L 437.030409 -99.462147 
L 436.571405 -99.725841 
L 435.768219 -100.10867 
L 435.078295 -100.231541 
L 434.739548 -100.378656 
L 434.157768 -101.02092 
L 433.358768 -101.336144 
L 432.805771 -101.711955 
L 432.411697 -101.74769 
L 432.022768 -102.202317 
L 431.500017 -102.494981 
L 430.863835 -102.891903 
L 430.352001 -103.197049 
L 429.843409 -103.426038 
L 429.1848 -103.613006 
L 428.500805 -103.865176 
L 427.834821 -104.26481 
L 427.281311 -104.47279 
L 426.879157 -104.87848 
L 426.493793 -105.159157 
L 425.80575 -105.403924 
L 425.080303 -105.69126 
L 424.648121 -106.052373 
L 424.082886 -106.489264 
L 423.533413 -106.813189 
L 423.198788 -107.157298 
L 422.665535 -107.552518 
L 422.075736 -107.906863 
L 421.375119 -108.564277 
L 420.684903 -109.050508 
L 420.287386 -109.265656 
L 419.901642 -109.551188 
L 419.279679 -109.768698 
L 418.517022 -110.065777 
L 417.899311 -110.155004 
L 417.407982 -110.384088 
L 416.739705 -111.466073 
L 416.281611 -111.930509 
L 415.933172 -112.495394 
L 415.28947 -112.909238 
L 414.527778 -113.159763 
L 414.026547 -113.472816 
L 413.56456 -113.949507 
L 412.980365 -114.005848 
L 412.320909 -114.330977 
L 411.64596 -114.561779 
L 411.28992 -114.679804 
L 410.854844 -115.185721 
L 410.265237 -115.815946 
L 409.61154 -116.107783 
L 408.890171 -116.536777 
L 408.384869 -117.02321 
L 407.837431 -117.708113 
L 407.201057 -118.44159 
L 406.698907 -118.976494 
L 406.268422 -119.347277 
L 405.661295 -119.614724 
L 404.962108 -120.161183 
L 404.48826 -120.573743 
L 404.156668 -121.031086 
L 403.694381 -121.589152 
L 403.133684 -121.954051 
L 402.603165 -122.367614 
L 401.930722 -122.775894 
L 401.339736 -123.185717 
L 400.776595 -123.582982 
L 400.056174 -123.823553 
L 399.375174 -124.285141 
L 399.046458 -124.448295 
L 398.600329 -124.781924 
L 397.985085 -125.26961 
L 397.406543 -125.749512 
L 396.648096 -126.3201 
L 396.246862 -126.902771 
L 395.87324 -127.417242 
L 395.228634 -128.13066 
L 394.533927 -128.778644 
L 393.96308 -129.318572 
L 393.433686 -129.434861 
L 392.80282 -129.808678 
L 392.184018 -130.063504 
L 391.733822 -130.667655 
L 391.181674 -131.05623 
L 390.551092 -131.735556 
L 390.138539 -131.860093 
L 389.700963 -132.316679 
L 389.022797 -132.424003 
L 388.246014 -133.098754 
L 387.720769 -133.762431 
L 387.372757 -134.099419 
L 386.861933 -134.73182 
L 386.265404 -135.556678 
L 385.761252 -136.291448 
L 385.072334 -136.643673 
L 384.575877 -137.062193 
L 384.093591 -137.874097 
L 383.355355 -138.473043 
L 382.794052 -138.899876 
L 382.379754 -139.896492 
L 381.929717 -140.409971 
L 381.386139 -140.706759 
L 380.786783 -141.210893 
L 380.012611 -141.756472 
L 379.260398 -142.377879 
L 378.72796 -142.821536 
L 378.361885 -144.081388 
L 377.997805 -144.462875 
L 377.375749 -144.756474 
L 376.617276 -145.04187 
L 376.126048 -145.499449 
L 375.692737 -145.779023 
L 375.03347 -146.371026 
L 374.462587 -146.652131 
L 373.908317 -147.089925 
L 373.205153 -147.278459 
L 372.548057 -147.462246 
L 372.16228 -147.926992 
L 371.639103 -148.473677 
L 371.020779 -148.965027 
L 370.464357 -150.147622 
L 370.017801 -150.572182 
L 369.651503 -151.193076 
L 369.077322 -151.849904 
L 368.301679 -152.660842 
L 367.577429 -153.073526 
L 367.114863 -153.940357 
L 366.587356 -154.516035 
L 366.013102 -154.960489 
L 365.546574 -155.427182 
L 364.887274 -156.861334 
L 364.189076 -157.675819 
L 363.780545 -158.393267 
L 363.463171 -158.772099 
L 362.901393 -159.088868 
L 362.167008 -159.739019 
L 361.592128 -160.634155 
L 361.121769 -161.076044 
L 360.587771 -161.656552 
L 360.010587 -162.229286 
L 359.402084 -162.922362 
L 358.849229 -163.045026 
L 358.274573 -163.596612 
L 357.562863 -163.905947 
L 357.057158 -164.156465 
L 356.763471 -165.155563 
L 356.179733 -165.861619 
L 355.549397 -166.707633 
L 354.909708 -167.580364 
L 354.388594 -168.312043 
L 354.068912 -169.381114 
L 353.280752 -170.059492 
L 352.553882 -170.94493 
L 352.25489 -171.541861 
L 351.601142 -171.947981 
L 350.848864 -172.724993 
L 350.44485 -173.197868 
L 349.816839 -173.7137 
L 349.296835 -174.203043 
L 348.958301 -174.486436 
L 348.261451 -175.053116 
L 347.521367 -175.931914 
L 346.9657 -176.329715 
L 346.488963 -176.849444 
L 345.892695 -177.468509 
L 345.359998 -177.946555 
L 344.788287 -178.595774 
L 344.328626 -179.113426 
L 343.993582 -179.624301 
L 343.372046 -180.279697 
L 342.767699 -180.4134 
L 342.191762 -180.647721 
L 341.628859 -181.065581 
L 341.166034 -181.714686 
L 340.618009 -181.907511 
L 340.065048 -182.065965 
L 339.464486 -182.530581 
L 338.795401 -183.022037 
L 338.139698 -183.390011 
L 337.456416 -183.925684 
L 336.934442 -184.256408 
L 336.407707 -184.789065 
L 335.86646 -185.202821 
L 335.40671 -185.482923 
L 334.782283 -185.82141 
L 334.109138 -186.31461 
L 333.525905 -186.839902 
L 332.960046 -186.842937 
L 332.573789 -187.324225 
L 332.117797 -187.619558 
L 331.509334 -187.843689 
L 330.983654 -188.154455 
L 330.418181 -188.331893 
L 329.754568 -188.476529 
L 329.147821 -188.774121 
L 328.607631 -189.315999 
L 328.138181 -189.601104 
L 327.604198 -189.992311 
L 327.081573 -190.412004 
L 326.643091 -190.710661 
L 325.930717 -191.058714 
L 325.228568 -191.616973 
L 324.895154 -191.747558 
L 324.317055 -191.813745 
L 323.699148 -191.827776 
L 323.190826 -192.428641 
L 322.54214 -192.745829 
L 322.140398 -193.295023 
L 321.532344 -193.538419 
L 320.902818 -193.935588 
L 320.542241 -194.523562 
L 319.90312 -194.972305 
L 319.315786 -195.506478 
L 318.674822 -195.86735 
L 317.886431 -196.208835 
L 317.323333 -196.561317 
L 316.79441 -196.643082 
L 316.446771 -196.831708 
L 316.073372 -197.235796 
L 315.36953 -197.608075 
L 314.787354 -197.734085 
L 314.267041 -198.060664 
L 313.542176 -198.213297 
L 312.995223 -198.045468 
L 312.597243 -198.541215 
L 311.998365 -198.671034 
L 311.248893 -198.769999 
L 310.753983 -198.822011 
L 310.392105 -199.373661 
L 309.694053 -199.557911 
L 308.970425 -199.572886 
L 308.549222 -199.565856 
L 308.062693 -199.690784 
L 307.543099 -199.774359 
L 307.133655 -199.913484 
L 306.559331 -200.149689 
L 305.976108 -200.548252 
L 305.38583 -200.778509 
L 304.651015 -200.900152 
L 303.949735 -201.026666 
L 303.486828 -201.427056 
L 303.123026 -201.79507 
L 302.463448 -202.188423 
L 301.732238 -202.106286 
L 301.177102 -202.372321 
L 300.634235 -202.158502 
L 300.109511 -202.259734 
L 299.617111 -202.330863 
L 299.032509 -202.874154 
L 298.461796 -203.089803 
L 298.053907 -203.239376 
L 297.639338 -203.758689 
L 297.120348 -204.008514 
L 296.510069 -204.192867 
L 295.786737 -204.524644 
L 295.185392 -204.764478 
L 294.7669 -205.079364 
L 294.077938 -205.221169 
L 293.421903 -205.303745 
L 293.074102 -205.568856 
L 292.470503 -206.055894 
L 291.853592 -206.397241 
L 291.395927 -206.632257 
L 290.719351 -206.98526 
L 290.194879 -207.221076 
L 289.849173 -207.66729 
L 289.104073 -208.021968 
L 288.419454 -208.17962 
L 287.994486 -208.605197 
L 287.452497 -209.29331 
L 286.913165 -209.517917 
L 286.217195 -209.812531 
L 285.757019 -210.430031 
L 285.226191 -210.823867 
L 284.456075 -210.783196 
L 284.110678 -211.224333 
L 283.623909 -211.333397 
L 282.847838 -211.49897 
L 282.410565 -211.70588 
L 282.096514 -211.800618 
L 281.495955 -211.979197 
L 280.709249 -212.192748 
L 280.193321 -212.452299 
L 279.589234 -212.65808 
L 278.859985 -212.929458 
L 278.511274 -213.837377 
L 278.085146 -214.184857 
L 277.557398 -214.339309 
L 276.934408 -214.5945 
L 276.222064 -214.654133 
L 275.766685 -214.751302 
L 275.239566 -215.320853 
L 274.525197 -215.612398 
L 273.976419 -215.615201 
L 273.533355 -215.917199 
L 272.961627 -216.451531 
L 272.216465 -217.005882 
L 271.689283 -217.303756 
L 271.332122 -217.882593 
L 270.677816 -218.352657 
L 270.03896 -218.44651 
L 269.642194 -218.748505 
L 269.046887 -218.977428 
L 268.448908 -219.222249 
L 267.842249 -219.291252 
L 267.381965 -219.449855 
L 266.954434 -219.623072 
L 266.30057 -219.938337 
L 265.679956 -220.224775 
L 265.087063 -220.414259 
L 264.432801 -220.500567 
L 263.957944 -220.625315 
L 263.531258 -220.851262 
L 262.887089 -220.925376 
L 262.291392 -221.173684 
L 261.775759 -221.556724 
L 261.21392 -221.817445 
L 260.607824 -222.580793 
L 259.9463 -222.649957 
L 259.418582 -223.148071 
L 259.120105 -223.377846 
L 258.647956 -223.64482 
L 258.004086 -223.911081 
L 257.476456 -224.158501 
L 256.809406 -224.354893 
L 256.051617 -224.665536 
L 255.601953 -224.764468 
L 254.989446 -224.891916 
L 254.450343 -225.244363 
L 254.044766 -225.341939 
L 253.369442 -225.943495 
L 252.910478 -226.247185 
L 252.315503 -226.474725 
L 251.62007 -226.780974 
L 251.217048 -226.730234 
L 250.727517 -227.206542 
L 250.192045 -227.25345 
L 249.495257 -227.556933 
L 248.870656 -227.914064 
L 248.332059 -228.349752 
L 247.730533 -228.71762 
L 247.282416 -229.011937 
L 246.623782 -229.446398 
L 245.951348 -229.799866 
L 245.620951 -229.993671 
L 245.242631 -230.18447 
L 244.560799 -230.382052 
L 243.907418 -230.592782 
L 243.25477 -230.702246 
L 242.695973 -230.718952 
L 242.382436 -231.035022 
L 241.853308 -231.669119 
L 241.193805 -231.956172 
L 240.474467 -232.299228 
L 239.904403 -232.484716 
L 239.534085 -232.725454 
L 239.053141 -232.876773 
L 238.499197 -233.032371 
L 237.865892 -233.272114 
L 237.277951 -233.308155 
L 236.728272 -233.48909 
L 236.120752 -233.485959 
L 235.614009 -233.580042 
L 235.016644 -233.532935 
L 234.267228 -233.501602 
L 233.823952 -233.575592 
L 233.489999 -233.587342 
L 232.952095 -233.810278 
L 232.204899 -233.847878 
L 231.4363 -233.875328 
L 230.861508 -233.876451 
L 230.422892 -233.872697 
L 229.88644 -234.131159 
L 229.460356 -234.16925 
L 228.903649 -234.484626 
L 228.071716 -234.616507 
L 227.586393 -234.672901 
L 227.114837 -234.685849 
L 226.604217 -234.748938 
L 226.0764 -235.048703 
L 225.446592 -235.26265 
L 224.780625 -235.41367 
L 224.271573 -235.489148 
L 223.727204 -235.62233 
L 223.172527 -235.663538 
L 222.631414 -235.976811 
L 222.106232 -236.29363 
L 221.61354 -236.628099 
L 221.050389 -236.768139 
L 220.496142 -236.906457 
L 219.850942 -236.992359 
L 219.269491 -237.0872 
L 218.644965 -237.195175 
L 218.243509 -237.260443 
L 217.900682 -237.402073 
L 217.116631 -237.444567 
L 216.492715 -237.706427 
L 215.987008 -237.735343 
L 215.408859 -237.967858 
L 214.883417 -238.162591 
L 214.364919 -238.242178 
L 213.962782 -238.44142 
L 213.246181 -238.702193 
L 212.506086 -238.719884 
L 212.171279 -239.158763 
L 211.764318 -239.13558 
L 211.151804 -239.415912 
L 210.619183 -239.635228 
L 210.088649 -239.75868 
L 209.459446 -239.778785 
L 208.911294 -239.674253 
L 208.29427 -239.824691 
L 207.518072 -239.855507 
L 206.939512 -239.943622 
L 206.589946 -240.000209 
L 205.937599 -240.095944 
L 205.378865 -240.303172 
L 205.014353 -240.482563 
L 204.466273 -240.67527 
L 203.971155 -240.890039 
L 203.426574 -241.189072 
L 202.821157 -241.278678 
L 202.130934 -241.361692 
L 201.492228 -241.672359 
L 200.928139 -241.83339 
L 200.359304 -242.019324 
L 199.676166 -242.267624 
L 199.052918 -242.475294 
L 198.534651 -242.787564 
L 198.159206 -242.865685 
L 197.798179 -243.014371 
L 197.046304 -243.185429 
L 196.382103 -243.468708 
L 195.880168 -243.463884 
L 195.397237 -243.653418 
L 194.897752 -243.621401 
L 194.273052 -243.651104 
L 193.804598 -243.689257 
L 193.193264 -243.514319 
L 192.508841 -243.388584 
L 191.923078 -243.771418 
L 191.45198 -243.686452 
L 190.872451 -243.820496 
L 190.138444 -243.779336 
L 189.606843 -244.167976 
L 189.184847 -243.990263 
L 188.781651 -244.035592 
L 188.185638 -244.151844 
L 187.476435 -244.148231 
L 186.937726 -244.333621 
L 186.563891 -244.219641 
L 185.914709 -243.992471 
L 185.350654 -244.077814 
L 184.943736 -243.971607 
L 184.207803 -244.021954 
L 183.581655 -243.869387 
L 183.19336 -243.982251 
L 182.564805 -243.870141 
L 181.862254 -243.683948 
L 181.384447 -243.67179 
L 180.86341 -243.659411 
L 180.385554 -243.669289 
L 179.759623 -243.456953 
L 179.045183 -243.4407 
L 178.510466 -243.325418 
L 177.928029 -243.304695 
L 177.512645 -243.294207 
L 177.159202 -243.242403 
L 176.637629 -243.256521 
L 175.954499 -243.424139 
L 175.151617 -243.264585 
L 174.487521 -243.24502 
L 174.133671 -242.877277 
L 173.769771 -242.587615 
L 173.040054 -242.604427 
L 172.34057 -242.398813 
L 171.898524 -242.242499 
L 171.360685 -242.218125 
L 170.880232 -242.236073 
L 170.3037 -242.030559 
L 169.574393 -241.991139 
L 169.018861 -241.907008 
L 168.526152 -241.635687 
L 168.03572 -241.610462 
L 167.398926 -241.435809 
L 166.714619 -241.178385 
L 166.207377 -240.976213 
L 165.826436 -240.789034 
L 165.345815 -240.633464 
L 164.773809 -240.570908 
L 164.114588 -240.40504 
L 163.615297 -240.385717 
L 163.245443 -240.200396 
L 162.543918 -239.915138 
L 161.941577 -239.747003 
L 161.36098 -239.553415 
L 160.614317 -239.588616 
L 160.196947 -239.4146 
L 159.774176 -239.449657 
L 159.024845 -239.347729 
L 158.506096 -239.227106 
L 158.164383 -239.03438 
L 157.507421 -238.962034 
L 156.784389 -238.817164 
L 156.215243 -238.760814 
L 155.580078 -238.664407 
L 155.030568 -238.457731 
L 154.720751 -238.234557 
L 154.064506 -238.032172 
L 153.33627 -237.877066 
L 153.019071 -237.516738 
L 152.557257 -237.449042 
L 151.768271 -237.274167 
L 151.082851 -237.153931 
L 150.625586 -237.057595 
L 150.024754 -236.91991 
L 149.508973 -236.821679 
L 149.075535 -236.664714 
L 148.546179 -236.54283 
L 148.054273 -236.389741 
L 147.313557 -236.135557 
L 146.759684 -236.046071 
L 146.416783 -235.934146 
L 145.812573 -235.762856 
L 145.291901 -235.621917 
L 144.791234 -235.519628 
L 144.065204 -235.447347 
L 143.472894 -235.334801 
L 142.931383 -235.213396 
L 142.255983 -235.088477 
L 141.673721 -234.96581 
L 141.275363 -234.794551 
L 140.659498 -234.967055 
L 139.890314 -235.144102 
L 139.452904 -235.017762 
L 138.955737 -234.919314 
L 138.307351 -234.760973 
L 137.73191 -234.704673 
L 137.297082 -234.770319 
L 136.96032 -234.656576 
L 136.215483 -234.69226 
L 135.568356 -234.55054 
L 135.244384 -234.634251 
L 134.647462 -234.651294 
L 134.034567 -234.891228 
L 133.508402 -234.912513 
L 132.876592 -234.950157 
L 132.297296 -234.875047 
L 131.74128 -234.882383 
L 131.255568 -234.90221 
L 130.807046 -234.841605 
L 130.178803 -234.89124 
L 129.45761 -234.782995 
L 129.004828 -234.85317 
L 128.576175 -234.842346 
L 128.007561 -234.767204 
L 127.274398 -234.799294 
L 126.505277 -234.67078 
L 126.124749 -234.533942 
L 125.54388 -234.547424 
L 124.851144 -234.35861 
L 124.543625 -234.149298 
L 124.17435 -234.05672 
L 123.369088 -233.946897 
L 122.749674 -233.886382 
L 122.42153 -233.737107 
L 121.933114 -233.511364 
L 121.272867 -233.31282 
L 120.543521 -233.146019 
L 120.028209 -232.974756 
L 119.587229 -232.92497 
L 118.87265 -232.858583 
L 118.351545 -232.707686 
L 117.867692 -232.517404 
L 117.295538 -232.474947 
L 116.859433 -232.388886 
L 116.336894 -232.270021 
L 115.593761 -232.236293 
L 114.873764 -232.140901 
L 114.336679 -232.00809 
L 113.772067 -231.8613 
L 113.263134 -231.807326 
L 112.71697 -231.857976 
L 112.300067 -231.784581 
L 111.88961 -231.623217 
L 111.342969 -231.699967 
L 110.58697 -231.629752 
L 109.810426 -231.463906 
L 109.257716 -231.447615 
L 108.661585 -231.24603 
L 108.181148 -231.082448 
L 107.708376 -230.923408 
L 107.186107 -230.910401 
L 106.583633 -230.695243 
L 106.085781 -230.636554 
L 105.675245 -230.452197 
L 105.090991 -230.313418 
L 104.424849 -230.204509 
L 103.818534 -230.226446 
L 103.377238 -230.163394 
L 102.940885 -230.041324 
L 102.439035 -230.023026 
L 101.876878 -230.086075 
L 101.247158 -229.967199 
L 100.57743 -229.900747 
L 100.041036 -229.974451 
L 99.52546 -229.792625 
L 98.80891 -229.631169 
L 98.285478 -229.594894 
L 97.808045 -229.615958 
L 97.290191 -229.557623 
L 96.726572 -229.674242 
L 96.119967 -229.474312 
L 95.594018 -229.4577 
L 94.814411 -229.443626 
L 94.307404 -229.399589 
L 93.760292 -229.293651 
L 93.025723 -229.208544 
L 92.702739 -229.176575 
L 92.32112 -229.255191 
L 91.608918 -229.201539 
L 90.936988 -229.131834 
L 90.453893 -229.062739 
L 89.901681 -228.952523 
L 89.421619 -228.916049 
L 88.958644 -228.91668 
L 88.290725 -228.803788 
L 87.73639 -228.783287 
L 87.174515 -228.685143 
L 86.61124 -228.64285 
L 85.948672 -228.605806 
L 85.419251 -228.557057 
L 84.880936 -228.47983 
L 84.108689 -228.333873 
L 83.5725 -228.203939 
L 83.248752 -228.274771 
L 82.632907 -228.247532 
L 81.91263 -228.185585 
L 81.554408 -228.135614 
L 80.930798 -228.172974 
L 80.238711 -228.161967 
L 79.859634 -228.215482 
L 79.464164 -228.098204 
L 78.852301 -228.058597 
L 78.078167 -228.023066 
L 77.647263 -228.002501 
L 77.263539 -227.947176 
L 76.693533 -227.813568 
L 76.053581 -227.765974 
L 75.437457 -227.827853 
L 75.019263 -227.788057 
L 74.363753 -227.711648 
L 73.744412 -227.757886 
L 73.247199 -227.744079 
L 72.54719 -227.822781 
L 71.832254 -227.927871 
L 71.493739 -227.910834 
L 70.944461 -227.903302 
L 70.111548 -227.889495 
L 69.789957 -227.908451 
L 69.396072 -227.953552 
L 68.80102 -227.968327 
L 68.161704 -228.151677 
L 67.430594 -228.155028 
L 66.834177 -228.175963 
L 66.404454 -228.183033 
L 65.930317 -228.171215 
L 65.339906 -228.129556 
L 64.892426 -228.14624 
L 64.346386 -228.123663 
L 63.631702 -228.115866 
L 62.977739 -228.141522 
L 62.406865 -228.151447 
L 61.921734 -228.247251 
L 61.471995 -228.207009 
L 60.802023 -228.205071 
L 60.204584 -228.165134 
L 59.815252 -228.052246 
L 59.302616 -228.129556 
L 58.638713 -228.042172 
L 57.950067 -228.009059 
L 57.372036 -227.961735 
L 56.917911 -227.925784 
L 56.354446 -227.924921 
L 55.750179 -227.93487 
L 55.354714 -227.843275 
L 54.764116 -227.822628 
L 54.096973 -227.877672 
L 53.607611 -227.901837 
L 52.970613 -227.909282 
L 52.345749 -227.917994 
L 51.861515 -228.002339 
L 51.442128 -228.090085 
L 50.879859 -228.193932 
L 50.295902 -228.216506 
L 49.748371 -228.236858 
L 49.047887 -228.299647 
L 48.546616 -228.486041 
L 48.070656 -228.908744 
L 47.621869 -228.996641 
L 46.951378 -229.313573 
L 46.174815 -229.463849 
L 45.655604 -229.50267 
L 45.131218 -229.85711 
L 44.750317 -230.654526 
L 44.110091 -232.333708 
z
" style="stroke: #808080; stroke-opacity: 0.5"/>
    </defs>
    <g clip-path="url(#p654c174ff4)">
     <use xlink:href="#mc75015f8f5" x="0" y="276.54" style="fill: #808080; fill-opacity: 0.5; stroke: #808080; stroke-opacity: 0.5"/>
    </g>
   </g>
   <g id="line2d_29">
    <path d="M 44.110091 48.603693 
L 45.131218 51.017938 
L 45.655604 51.350618 
L 46.174815 51.309396 
L 46.951378 51.383552 
L 48.070656 51.982421 
L 48.546616 52.480637 
L 49.047887 52.644008 
L 50.879859 52.514386 
L 52.970613 53.04596 
L 55.354714 53.225064 
L 55.750179 53.108097 
L 57.950067 52.966297 
L 59.815252 52.713482 
L 60.204584 52.557232 
L 62.406865 52.488841 
L 62.977739 52.528357 
L 64.346386 52.475284 
L 68.80102 52.89346 
L 70.111548 53.088676 
L 77.263539 52.778704 
L 78.078167 52.680929 
L 80.930798 52.620072 
L 81.91263 52.6682 
L 83.248752 52.567778 
L 83.5725 52.578328 
L 87.174515 51.943306 
L 93.025723 51.102929 
L 94.307404 50.845843 
L 94.814411 50.764325 
L 97.290191 50.680679 
L 98.285478 50.473684 
L 99.52546 50.189656 
L 100.041036 49.976973 
L 102.940885 49.707658 
L 104.424849 49.412978 
L 105.675245 49.053451 
L 111.342969 47.493039 
L 112.71697 47.187344 
L 113.263134 47.015425 
L 114.336679 46.871936 
L 115.593761 46.54133 
L 116.336894 46.416853 
L 117.295538 46.128441 
L 117.867692 46.036762 
L 118.87265 45.721263 
L 123.369088 44.284662 
L 124.17435 44.18824 
L 125.54388 43.688854 
L 130.178803 43.265348 
L 131.255568 43.289401 
L 135.568356 43.373687 
L 136.215483 43.215382 
L 138.955737 42.921081 
L 139.890314 42.705513 
L 141.673721 42.707991 
L 144.065204 42.240915 
L 146.416783 42.011895 
L 147.313557 41.819592 
L 148.054273 41.816734 
L 149.075535 41.631425 
L 150.024754 41.529969 
L 156.215243 40.543822 
L 158.164383 40.320477 
L 159.774176 39.988921 
L 160.196947 40.074028 
L 160.614317 39.976063 
L 161.36098 39.977184 
L 162.543918 39.793265 
L 164.114588 39.597529 
L 165.826436 39.334507 
L 166.714619 39.053211 
L 169.018861 38.781646 
L 171.898524 38.687463 
L 173.040054 38.47962 
L 173.769771 38.512722 
L 174.487521 38.252398 
L 175.954499 38.185713 
L 177.928029 38.531855 
L 179.045183 38.40651 
L 181.862254 38.414907 
L 183.19336 38.265891 
L 183.581655 38.355175 
L 184.207803 38.226139 
L 185.350654 38.276867 
L 185.914709 38.301561 
L 186.937726 38.116194 
L 187.476435 38.300263 
L 190.872451 38.575269 
L 191.45198 38.761509 
L 191.923078 38.707605 
L 192.508841 38.913119 
L 194.273052 38.731073 
L 197.046304 39.113432 
L 198.534651 39.399818 
L 199.052918 39.687595 
L 201.492228 40.192602 
L 202.130934 40.471829 
L 203.426574 40.846318 
L 206.939512 41.919278 
L 211.151804 42.614364 
L 213.246181 43.367337 
L 215.987008 44.167669 
L 216.492715 44.234622 
L 217.116631 44.446055 
L 218.243509 44.581522 
L 219.269491 44.790241 
L 220.496142 44.909781 
L 222.106232 45.462785 
L 224.271573 46.500848 
L 226.0764 46.831892 
L 227.586393 47.214812 
L 228.903649 47.41893 
L 229.460356 47.669128 
L 229.88644 47.706425 
L 230.422892 47.89938 
L 230.861508 47.878442 
L 234.267228 48.387199 
L 236.120752 48.465079 
L 236.728272 48.523176 
L 237.277951 48.727973 
L 237.865892 48.825616 
L 239.053141 49.309662 
L 239.534085 49.424987 
L 239.904403 49.680773 
L 241.853308 50.244511 
L 242.695973 51.086051 
L 243.907418 51.324749 
L 247.282416 52.794384 
L 247.730533 53.180356 
L 248.870656 53.772365 
L 250.192045 54.311977 
L 250.727517 54.427682 
L 251.217048 54.771185 
L 252.910478 55.384143 
L 253.369442 55.645348 
L 254.044766 56.174793 
L 256.051617 56.879564 
L 257.476456 57.375486 
L 258.647956 57.763209 
L 259.120105 58.059449 
L 259.9463 58.857605 
L 260.607824 59.037291 
L 261.21392 59.559326 
L 262.887089 60.401495 
L 263.531258 60.542411 
L 263.957944 60.8063 
L 266.30057 61.330533 
L 267.381965 61.804331 
L 268.448908 62.173157 
L 270.677816 62.913884 
L 271.332122 63.328076 
L 271.689283 63.710449 
L 272.961627 64.347728 
L 273.976419 64.849232 
L 275.239566 65.195733 
L 275.766685 65.682698 
L 276.934408 65.94532 
L 278.511274 66.623891 
L 278.859985 67.189534 
L 282.847838 68.726341 
L 284.110678 69.458987 
L 284.456075 69.735277 
L 285.757019 70.324936 
L 286.217195 70.853164 
L 286.913165 71.024455 
L 287.452497 71.388871 
L 288.419454 72.286145 
L 289.104073 72.513336 
L 289.849173 72.942254 
L 290.194879 73.396547 
L 290.719351 73.715984 
L 291.853592 74.192866 
L 293.074102 74.866492 
L 293.421903 75.14413 
L 294.7669 75.415726 
L 295.786737 76.225375 
L 296.510069 76.789285 
L 297.120348 76.922991 
L 297.639338 77.251548 
L 298.053907 77.767142 
L 299.032509 78.18749 
L 299.617111 78.618204 
L 300.634235 78.715689 
L 301.177102 78.678583 
L 302.463448 79.099224 
L 303.123026 79.469094 
L 303.486828 79.834535 
L 304.651015 80.411405 
L 305.38583 80.573306 
L 308.549222 82.10678 
L 310.392105 82.846472 
L 310.753983 83.261349 
L 311.998365 83.441755 
L 312.597243 83.558747 
L 312.995223 83.990474 
L 314.267041 84.384286 
L 314.787354 84.78074 
L 315.36953 84.907055 
L 316.073372 85.217859 
L 316.79441 85.804292 
L 317.323333 86.007535 
L 317.886431 86.431377 
L 319.315786 86.966523 
L 319.90312 87.472551 
L 320.542241 87.752586 
L 320.902818 88.126907 
L 322.140398 88.807425 
L 322.54214 89.402235 
L 323.190826 89.58684 
L 323.699148 90.02676 
L 324.895154 90.784832 
L 325.228568 91.122678 
L 326.643091 92.084328 
L 327.081573 92.354362 
L 327.604198 92.867301 
L 328.607631 93.290538 
L 329.754568 94.057194 
L 330.983654 94.446849 
L 333.525905 95.900528 
L 334.109138 96.207115 
L 335.86646 97.717959 
L 338.795401 99.41527 
L 339.464486 99.762601 
L 340.065048 100.284047 
L 341.166034 100.692101 
L 342.191762 101.682452 
L 342.767699 101.881315 
L 343.372046 102.298426 
L 344.328626 103.285176 
L 345.359998 104.25103 
L 347.521367 105.926195 
L 349.816839 108.039083 
L 350.848864 108.887042 
L 352.25489 110.063884 
L 352.553882 110.577389 
L 353.280752 111.258199 
L 354.068912 111.761057 
L 354.388594 112.497042 
L 356.763471 114.972098 
L 357.057158 115.653832 
L 357.562863 116.081459 
L 358.274573 116.351135 
L 358.849229 116.766749 
L 360.010587 117.985816 
L 360.587771 118.488402 
L 361.592128 119.761242 
L 362.167008 120.62776 
L 363.463171 121.600801 
L 364.887274 123.646771 
L 366.013102 124.804003 
L 367.114863 125.658183 
L 367.577429 126.357747 
L 369.077322 127.423455 
L 369.651503 127.974916 
L 370.017801 128.498841 
L 370.464357 128.815291 
L 371.020779 129.771607 
L 371.639103 130.128702 
L 372.16228 130.634785 
L 372.548057 131.180542 
L 373.205153 131.672677 
L 373.908317 131.880731 
L 374.462587 132.365619 
L 375.03347 132.612511 
L 376.617276 133.811533 
L 377.375749 134.207269 
L 378.361885 135.082784 
L 378.72796 135.949787 
L 381.929717 138.646792 
L 382.379754 139.19221 
L 382.794052 140.001374 
L 383.355355 140.705539 
L 384.093591 141.385034 
L 385.072334 142.695933 
L 385.761252 143.092981 
L 388.246014 146.877775 
L 389.022797 147.496267 
L 389.700963 147.846534 
L 391.181674 149.812833 
L 391.733822 150.435119 
L 392.184018 151.133058 
L 393.433686 151.81744 
L 394.533927 152.80715 
L 395.228634 153.505327 
L 395.87324 153.970316 
L 396.648096 155.082776 
L 398.600329 156.34007 
L 399.375174 157.38227 
L 400.776595 157.903095 
L 401.339736 158.516276 
L 403.133684 159.801486 
L 403.694381 160.153927 
L 405.661295 162.446217 
L 406.698907 163.359684 
L 408.384869 164.976227 
L 408.890171 165.421632 
L 410.265237 166.073553 
L 410.854844 166.632775 
L 411.28992 167.256741 
L 412.320909 167.902568 
L 412.980365 168.202279 
L 413.56456 168.300336 
L 414.026547 168.68488 
L 414.527778 169.264433 
L 415.933172 170.078147 
L 416.739705 171.117266 
L 417.407982 171.760681 
L 417.899311 172.072514 
L 419.279679 172.443824 
L 419.901642 172.612417 
L 422.075736 174.023802 
L 424.082886 175.636593 
L 424.648121 175.848142 
L 425.080303 176.218125 
L 426.493793 176.433647 
L 427.281311 176.985314 
L 428.500805 177.694564 
L 432.022768 179.142556 
L 432.411697 179.504315 
L 432.805771 179.621067 
L 433.358768 179.987827 
L 434.739548 180.772983 
L 435.078295 180.995122 
L 436.571405 181.430869 
L 437.930664 181.893564 
L 439.267068 182.198937 
L 440.338007 182.543177 
L 440.983151 182.684119 
L 441.471097 183.137599 
L 443.34853 184.006243 
L 444.336149 184.994735 
L 444.954709 185.237102 
L 445.378884 185.526805 
L 445.95105 185.77339 
L 446.409216 186.103805 
L 448.726437 186.97787 
L 449.328676 187.015826 
L 450.520047 187.669998 
L 450.868187 188.144097 
L 451.381402 188.244383 
L 452.553512 188.748069 
L 453.565989 189.322358 
L 454.058746 189.842261 
L 455.965019 190.510429 
L 457.08047 191.280925 
L 458.124371 191.807634 
L 458.662658 192.146132 
L 459.200463 192.334345 
L 460.725034 193.101719 
L 462.14515 193.6811 
L 462.576698 194.173853 
L 465.002725 195.053119 
L 465.849445 195.107996 
L 466.583966 195.662695 
L 467.76982 196.02602 
L 468.138414 196.252899 
L 469.331026 196.622093 
L 469.696813 197.117494 
L 470.242087 197.211616 
L 470.993513 197.595693 
L 472.783417 198.220635 
L 473.832935 198.810892 
L 474.438404 199.31501 
L 479.364125 201.673433 
L 479.953266 201.863571 
L 480.519869 202.175949 
L 481.08252 202.23972 
L 483.14631 203.125817 
L 483.855004 203.242906 
L 484.387644 203.591998 
L 484.784363 203.718408 
L 485.267933 204.185466 
L 486.022052 204.342679 
L 487.26589 204.896726 
L 490.043461 205.971362 
L 490.473695 206.48527 
L 491.59431 207.225066 
L 492.139612 207.3774 
L 493.374989 207.567536 
L 495.461433 208.615702 
L 496.114168 208.684829 
L 496.627775 208.945271 
L 497.16561 209.082058 
L 497.723636 209.57107 
L 498.255021 209.623557 
L 498.79336 209.816971 
L 499.509186 209.854112 
L 500.132982 209.773616 
L 501.008198 210.079987 
L 501.685434 210.302763 
L 502.24781 210.285494 
L 502.61699 210.578039 
L 506.05505 210.901115 
L 506.590635 211.09491 
L 507.666139 211.209393 
L 509.055992 211.460225 
L 509.640693 211.925194 
L 511.264607 212.27224 
L 511.857538 212.645564 
L 512.488896 212.812198 
L 513.8057 213.546002 
L 516.148123 214.262384 
L 517.763465 214.7542 
L 519.255802 214.981772 
L 519.605987 215.364754 
L 520.62896 215.79975 
L 521.729746 216.065937 
L 522.315397 216.021342 
L 523.432855 216.17751 
L 525.733759 216.335266 
L 526.860377 216.722492 
L 527.962639 217.392665 
L 529.049615 217.553109 
L 529.551985 217.774116 
L 530.274549 217.841705 
L 531.151702 218.082956 
L 532.254201 218.125992 
L 533.297881 218.380684 
L 535.346084 218.643382 
L 535.818338 218.881238 
L 537.515618 219.002786 
L 538.174122 219.183783 
L 538.727823 219.175351 
L 539.820504 219.388541 
L 543.929132 219.609752 
L 544.518118 219.477839 
L 545.095605 219.185102 
L 546.241658 218.998798 
L 547.336124 218.641379 
L 548.000204 218.624813 
L 549.022563 218.945672 
L 551.308001 219.964984 
L 551.779211 220.013041 
L 552.436147 220.326421 
L 555.859788 220.986453 
L 556.363404 221.309981 
L 557.437826 221.537882 
L 558.229421 221.719613 
L 559.146382 222.253301 
L 560.882257 222.869511 
L 562.048326 223.496801 
L 562.512312 223.857421 
L 562.914906 224.819915 
L 564.233461 225.314678 
L 565.687733 226.082407 
L 566.854179 227.002935 
L 570.145654 228.394718 
L 571.524197 228.835333 
L 572.556414 229.413155 
L 574.273574 229.601594 
L 574.800943 229.489746 
L 575.872953 229.531204 
L 578.490231 229.109455 
L 580.47656 229.013693 
L 580.811078 229.045468 
L 581.458468 228.924559 
L 582.976436 228.314553 
L 584.430662 228.485999 
L 584.751199 228.585577 
L 585.436827 228.65022 
L 586.875296 228.972998 
L 587.439525 228.814093 
L 588.930057 228.764903 
L 589.35745 228.708971 
L 589.879366 228.848293 
L 591.442089 228.822972 
L 592.733811 228.633752 
L 593.293554 228.680536 
L 594.348745 228.371465 
L 595.00745 228.139984 
L 595.996707 227.452638 
L 596.568705 227.432152 
L 597.235148 227.243126 
L 597.617071 226.802673 
L 598.109325 226.583168 
L 598.717965 226.089565 
L 599.369305 226.056068 
L 599.922794 225.739472 
L 600.435774 224.721808 
L 601.076607 221.964489 
L 601.33003 220.024267 
L 601.33003 220.024267 
" clip-path="url(#p654c174ff4)" style="fill: none; stroke: #1f77b4; stroke-width: 1.5; stroke-linecap: round"/>
   </g>
   <g id="patch_3">
    <path d="M 43.585938 243.549375 
L 43.585938 21.789375 
" style="fill: none; stroke: #cccccc; stroke-linejoin: miter; stroke-linecap: square"/>
   </g>
   <g id="patch_4">
    <path d="M 601.585938 243.549375 
L 601.585938 21.789375 
" style="fill: none; stroke: #cccccc; stroke-linejoin: miter; stroke-linecap: square"/>
   </g>
   <g id="patch_5">
    <path d="M 43.585938 243.549375 
L 601.585938 243.549375 
" style="fill: none; stroke: #cccccc; stroke-linejoin: miter; stroke-linecap: square"/>
   </g>
   <g id="patch_6">
    <path d="M 43.585938 21.789375 
L 601.585938 21.789375 
" style="fill: none; stroke: #cccccc; stroke-linejoin: miter; stroke-linecap: square"/>
   </g>
   <g id="text_17">
    <!-- whale hunt -->
    <g style="fill: #262626" transform="translate(293.566562 15.789375) scale(0.12 -0.12)">
     <defs>
      <path id="ArialMT-77" d="M 1034 0 
L 19 3319 
L 600 3319 
L 1128 1403 
L 1325 691 
Q 1338 744 1497 1375 
L 2025 3319 
L 2603 3319 
L 3100 1394 
L 3266 759 
L 3456 1400 
L 4025 3319 
L 4572 3319 
L 3534 0 
L 2950 0 
L 2422 1988 
L 2294 2553 
L 1622 0 
L 1034 0 
z
" transform="scale(0.015625)"/>
      <path id="ArialMT-6c" d="M 409 0 
L 409 4581 
L 972 4581 
L 972 0 
L 409 0 
z
" transform="scale(0.015625)"/>
      <path id="ArialMT-20" transform="scale(0.015625)"/>
      <path id="ArialMT-75" d="M 2597 0 
L 2597 488 
Q 2209 -75 1544 -75 
Q 1250 -75 995 37 
Q 741 150 617 320 
Q 494 491 444 738 
Q 409 903 409 1263 
L 409 3319 
L 972 3319 
L 972 1478 
Q 972 1038 1006 884 
Q 1059 663 1231 536 
Q 1403 409 1656 409 
Q 1909 409 2131 539 
Q 2353 669 2445 892 
Q 2538 1116 2538 1541 
L 2538 3319 
L 3100 3319 
L 3100 0 
L 2597 0 
z
" transform="scale(0.015625)"/>
      <path id="ArialMT-6e" d="M 422 0 
L 422 3319 
L 928 3319 
L 928 2847 
Q 1294 3394 1984 3394 
Q 2284 3394 2536 3286 
Q 2788 3178 2913 3003 
Q 3038 2828 3088 2588 
Q 3119 2431 3119 2041 
L 3119 0 
L 2556 0 
L 2556 2019 
Q 2556 2363 2490 2533 
Q 2425 2703 2258 2804 
Q 2091 2906 1866 2906 
Q 1506 2906 1245 2678 
Q 984 2450 984 1813 
L 984 0 
L 422 0 
z
" transform="scale(0.015625)"/>
     </defs>
     <use xlink:href="#ArialMT-77"/>
     <use xlink:href="#ArialMT-68" transform="translate(72.216797 0)"/>
     <use xlink:href="#ArialMT-61" transform="translate(127.832031 0)"/>
     <use xlink:href="#ArialMT-6c" transform="translate(183.447266 0)"/>
     <use xlink:href="#ArialMT-65" transform="translate(205.664062 0)"/>
     <use xlink:href="#ArialMT-20" transform="translate(261.279297 0)"/>
     <use xlink:href="#ArialMT-68" transform="translate(289.0625 0)"/>
     <use xlink:href="#ArialMT-75" transform="translate(344.677734 0)"/>
     <use xlink:href="#ArialMT-6e" transform="translate(400.292969 0)"/>
     <use xlink:href="#ArialMT-74" transform="translate(455.908203 0)"/>
    </g>
   </g>
  </g>
 </g>
 <defs>
  <clipPath id="p654c174ff4">
   <rect x="43.585938" y="21.789375" width="558" height="221.76"/>
  </clipPath>
 </defs>
</svg>
