<?xml version="1.0" encoding="utf-8" standalone="no"?>
<!DOCTYPE svg PUBLIC "-//W3C//DTD SVG 1.1//EN"
  "http://www.w3.org/Graphics/SVG/1.1/DTD/svg11.dtd">
<svg xmlns:xlink="http://www.w3.org/1999/xlink" width="615.735937pt" height="276.657188pt" viewBox="0 0 615.735937 276.657188" xmlns="http://www.w3.org/2000/svg" version="1.1">
 <metadata>
  <rdf:RDF xmlns:dc="http://purl.org/dc/elements/1.1/" xmlns:cc="http://creativecommons.org/ns#" xmlns:rdf="http://www.w3.org/1999/02/22-rdf-syntax-ns#">
   <cc:Work>
    <dc:type rdf:resource="http://purl.org/dc/dcmitype/StillImage"/>
    <dc:date>2025-05-12T16:56:35.641327</dc:date>
    <dc:format>image/svg+xml</dc:format>
    <dc:creator>
     <cc:Agent>
      <dc:title>Matplotlib v3.10.0, https://matplotlib.org/</dc:title>
     </cc:Agent>
    </dc:creator>
   </cc:Work>
  </rdf:RDF>
 </metadata>
 <defs>
  <style type="text/css">*{stroke-linejoin: round; stroke-linecap: butt}</style>
 </defs>
 <g id="figure_1">
  <g id="patch_1">
   <path d="M -0 276.657188 
L 615.735937 276.657188 
L 615.735937 0 
L -0 0 
z
" style="fill: #ffffff"/>
  </g>
  <g id="axes_1">
   <g id="patch_2">
    <path d="M 43.585938 243.549375 
L 601.585938 243.549375 
L 601.585938 21.789375 
L 43.585938 21.789375 
z
" style="fill: #ffffff"/>
   </g>
   <g id="matplotlib.axis_1">
    <g id="xtick_1">
     <g id="line2d_1">
      <path d="M 43.585938 243.549375 
L 43.585938 21.789375 
" clip-path="url(#p3c25697f79)" style="fill: none; stroke: #cccccc; stroke-width: 0.8; stroke-linecap: round"/>
     </g>
     <g id="line2d_2"/>
     <g id="text_1">
      <!-- 0.0 -->
      <g style="fill: #262626" transform="translate(36.635937 254.207188) scale(0.1 -0.1)">
       <defs>
        <path id="ArialMT-30" d="M 266 2259 
Q 266 3072 433 3567 
Q 600 4063 929 4331 
Q 1259 4600 1759 4600 
Q 2128 4600 2406 4451 
Q 2684 4303 2865 4023 
Q 3047 3744 3150 3342 
Q 3253 2941 3253 2259 
Q 3253 1453 3087 958 
Q 2922 463 2592 192 
Q 2263 -78 1759 -78 
Q 1097 -78 719 397 
Q 266 969 266 2259 
z
M 844 2259 
Q 844 1131 1108 757 
Q 1372 384 1759 384 
Q 2147 384 2411 759 
Q 2675 1134 2675 2259 
Q 2675 3391 2411 3762 
Q 2147 4134 1753 4134 
Q 1366 4134 1134 3806 
Q 844 3388 844 2259 
z
" transform="scale(0.015625)"/>
        <path id="ArialMT-2e" d="M 581 0 
L 581 641 
L 1222 641 
L 1222 0 
L 581 0 
z
" transform="scale(0.015625)"/>
       </defs>
       <use xlink:href="#ArialMT-30"/>
       <use xlink:href="#ArialMT-2e" transform="translate(55.615234 0)"/>
       <use xlink:href="#ArialMT-30" transform="translate(83.398438 0)"/>
      </g>
     </g>
    </g>
    <g id="xtick_2">
     <g id="line2d_3">
      <path d="M 155.185938 243.549375 
L 155.185938 21.789375 
" clip-path="url(#p3c25697f79)" style="fill: none; stroke: #cccccc; stroke-width: 0.8; stroke-linecap: round"/>
     </g>
     <g id="line2d_4"/>
     <g id="text_2">
      <!-- 0.2 -->
      <g style="fill: #262626" transform="translate(148.235938 254.207188) scale(0.1 -0.1)">
       <defs>
        <path id="ArialMT-32" d="M 3222 541 
L 3222 0 
L 194 0 
Q 188 203 259 391 
Q 375 700 629 1000 
Q 884 1300 1366 1694 
Q 2113 2306 2375 2664 
Q 2638 3022 2638 3341 
Q 2638 3675 2398 3904 
Q 2159 4134 1775 4134 
Q 1369 4134 1125 3890 
Q 881 3647 878 3216 
L 300 3275 
Q 359 3922 746 4261 
Q 1134 4600 1788 4600 
Q 2447 4600 2831 4234 
Q 3216 3869 3216 3328 
Q 3216 3053 3103 2787 
Q 2991 2522 2730 2228 
Q 2469 1934 1863 1422 
Q 1356 997 1212 845 
Q 1069 694 975 541 
L 3222 541 
z
" transform="scale(0.015625)"/>
       </defs>
       <use xlink:href="#ArialMT-30"/>
       <use xlink:href="#ArialMT-2e" transform="translate(55.615234 0)"/>
       <use xlink:href="#ArialMT-32" transform="translate(83.398438 0)"/>
      </g>
     </g>
    </g>
    <g id="xtick_3">
     <g id="line2d_5">
      <path d="M 266.785938 243.549375 
L 266.785938 21.789375 
" clip-path="url(#p3c25697f79)" style="fill: none; stroke: #cccccc; stroke-width: 0.8; stroke-linecap: round"/>
     </g>
     <g id="line2d_6"/>
     <g id="text_3">
      <!-- 0.4 -->
      <g style="fill: #262626" transform="translate(259.835938 254.207188) scale(0.1 -0.1)">
       <defs>
        <path id="ArialMT-34" d="M 2069 0 
L 2069 1097 
L 81 1097 
L 81 1613 
L 2172 4581 
L 2631 4581 
L 2631 1613 
L 3250 1613 
L 3250 1097 
L 2631 1097 
L 2631 0 
L 2069 0 
z
M 2069 1613 
L 2069 3678 
L 634 1613 
L 2069 1613 
z
" transform="scale(0.015625)"/>
       </defs>
       <use xlink:href="#ArialMT-30"/>
       <use xlink:href="#ArialMT-2e" transform="translate(55.615234 0)"/>
       <use xlink:href="#ArialMT-34" transform="translate(83.398438 0)"/>
      </g>
     </g>
    </g>
    <g id="xtick_4">
     <g id="line2d_7">
      <path d="M 378.385938 243.549375 
L 378.385938 21.789375 
" clip-path="url(#p3c25697f79)" style="fill: none; stroke: #cccccc; stroke-width: 0.8; stroke-linecap: round"/>
     </g>
     <g id="line2d_8"/>
     <g id="text_4">
      <!-- 0.6 -->
      <g style="fill: #262626" transform="translate(371.435938 254.207188) scale(0.1 -0.1)">
       <defs>
        <path id="ArialMT-36" d="M 3184 3459 
L 2625 3416 
Q 2550 3747 2413 3897 
Q 2184 4138 1850 4138 
Q 1581 4138 1378 3988 
Q 1113 3794 959 3422 
Q 806 3050 800 2363 
Q 1003 2672 1297 2822 
Q 1591 2972 1913 2972 
Q 2475 2972 2870 2558 
Q 3266 2144 3266 1488 
Q 3266 1056 3080 686 
Q 2894 316 2569 119 
Q 2244 -78 1831 -78 
Q 1128 -78 684 439 
Q 241 956 241 2144 
Q 241 3472 731 4075 
Q 1159 4600 1884 4600 
Q 2425 4600 2770 4297 
Q 3116 3994 3184 3459 
z
M 888 1484 
Q 888 1194 1011 928 
Q 1134 663 1356 523 
Q 1578 384 1822 384 
Q 2178 384 2434 671 
Q 2691 959 2691 1453 
Q 2691 1928 2437 2201 
Q 2184 2475 1800 2475 
Q 1419 2475 1153 2201 
Q 888 1928 888 1484 
z
" transform="scale(0.015625)"/>
       </defs>
       <use xlink:href="#ArialMT-30"/>
       <use xlink:href="#ArialMT-2e" transform="translate(55.615234 0)"/>
       <use xlink:href="#ArialMT-36" transform="translate(83.398438 0)"/>
      </g>
     </g>
    </g>
    <g id="xtick_5">
     <g id="line2d_9">
      <path d="M 489.985938 243.549375 
L 489.985938 21.789375 
" clip-path="url(#p3c25697f79)" style="fill: none; stroke: #cccccc; stroke-width: 0.8; stroke-linecap: round"/>
     </g>
     <g id="line2d_10"/>
     <g id="text_5">
      <!-- 0.8 -->
      <g style="fill: #262626" transform="translate(483.035938 254.207188) scale(0.1 -0.1)">
       <defs>
        <path id="ArialMT-38" d="M 1131 2484 
Q 781 2613 612 2850 
Q 444 3088 444 3419 
Q 444 3919 803 4259 
Q 1163 4600 1759 4600 
Q 2359 4600 2725 4251 
Q 3091 3903 3091 3403 
Q 3091 3084 2923 2848 
Q 2756 2613 2416 2484 
Q 2838 2347 3058 2040 
Q 3278 1734 3278 1309 
Q 3278 722 2862 322 
Q 2447 -78 1769 -78 
Q 1091 -78 675 323 
Q 259 725 259 1325 
Q 259 1772 486 2073 
Q 713 2375 1131 2484 
z
M 1019 3438 
Q 1019 3113 1228 2906 
Q 1438 2700 1772 2700 
Q 2097 2700 2305 2904 
Q 2513 3109 2513 3406 
Q 2513 3716 2298 3927 
Q 2084 4138 1766 4138 
Q 1444 4138 1231 3931 
Q 1019 3725 1019 3438 
z
M 838 1322 
Q 838 1081 952 856 
Q 1066 631 1291 507 
Q 1516 384 1775 384 
Q 2178 384 2440 643 
Q 2703 903 2703 1303 
Q 2703 1709 2433 1975 
Q 2163 2241 1756 2241 
Q 1359 2241 1098 1978 
Q 838 1716 838 1322 
z
" transform="scale(0.015625)"/>
       </defs>
       <use xlink:href="#ArialMT-30"/>
       <use xlink:href="#ArialMT-2e" transform="translate(55.615234 0)"/>
       <use xlink:href="#ArialMT-38" transform="translate(83.398438 0)"/>
      </g>
     </g>
    </g>
    <g id="xtick_6">
     <g id="line2d_11">
      <path d="M 601.585938 243.549375 
L 601.585938 21.789375 
" clip-path="url(#p3c25697f79)" style="fill: none; stroke: #cccccc; stroke-width: 0.8; stroke-linecap: round"/>
     </g>
     <g id="line2d_12"/>
     <g id="text_6">
      <!-- 1.0 -->
      <g style="fill: #262626" transform="translate(594.635937 254.207188) scale(0.1 -0.1)">
       <defs>
        <path id="ArialMT-31" d="M 2384 0 
L 1822 0 
L 1822 3584 
Q 1619 3391 1289 3197 
Q 959 3003 697 2906 
L 697 3450 
Q 1169 3672 1522 3987 
Q 1875 4303 2022 4600 
L 2384 4600 
L 2384 0 
z
" transform="scale(0.015625)"/>
       </defs>
       <use xlink:href="#ArialMT-31"/>
       <use xlink:href="#ArialMT-2e" transform="translate(55.615234 0)"/>
       <use xlink:href="#ArialMT-30" transform="translate(83.398438 0)"/>
      </g>
     </g>
    </g>
    <g id="text_7">
     <!-- mu-logistic-whaling-success -->
     <g style="fill: #262626" transform="translate(260.347656 267.3525) scale(0.1 -0.1)">
      <defs>
       <path id="ArialMT-6d" d="M 422 0 
L 422 3319 
L 925 3319 
L 925 2853 
Q 1081 3097 1340 3245 
Q 1600 3394 1931 3394 
Q 2300 3394 2536 3241 
Q 2772 3088 2869 2813 
Q 3263 3394 3894 3394 
Q 4388 3394 4653 3120 
Q 4919 2847 4919 2278 
L 4919 0 
L 4359 0 
L 4359 2091 
Q 4359 2428 4304 2576 
Q 4250 2725 4106 2815 
Q 3963 2906 3769 2906 
Q 3419 2906 3187 2673 
Q 2956 2441 2956 1928 
L 2956 0 
L 2394 0 
L 2394 2156 
Q 2394 2531 2256 2718 
Q 2119 2906 1806 2906 
Q 1569 2906 1367 2781 
Q 1166 2656 1075 2415 
Q 984 2175 984 1722 
L 984 0 
L 422 0 
z
" transform="scale(0.015625)"/>
       <path id="ArialMT-75" d="M 2597 0 
L 2597 488 
Q 2209 -75 1544 -75 
Q 1250 -75 995 37 
Q 741 150 617 320 
Q 494 491 444 738 
Q 409 903 409 1263 
L 409 3319 
L 972 3319 
L 972 1478 
Q 972 1038 1006 884 
Q 1059 663 1231 536 
Q 1403 409 1656 409 
Q 1909 409 2131 539 
Q 2353 669 2445 892 
Q 2538 1116 2538 1541 
L 2538 3319 
L 3100 3319 
L 3100 0 
L 2597 0 
z
" transform="scale(0.015625)"/>
       <path id="ArialMT-2d" d="M 203 1375 
L 203 1941 
L 1931 1941 
L 1931 1375 
L 203 1375 
z
" transform="scale(0.015625)"/>
       <path id="ArialMT-6c" d="M 409 0 
L 409 4581 
L 972 4581 
L 972 0 
L 409 0 
z
" transform="scale(0.015625)"/>
       <path id="ArialMT-6f" d="M 213 1659 
Q 213 2581 725 3025 
Q 1153 3394 1769 3394 
Q 2453 3394 2887 2945 
Q 3322 2497 3322 1706 
Q 3322 1066 3130 698 
Q 2938 331 2570 128 
Q 2203 -75 1769 -75 
Q 1072 -75 642 372 
Q 213 819 213 1659 
z
M 791 1659 
Q 791 1022 1069 705 
Q 1347 388 1769 388 
Q 2188 388 2466 706 
Q 2744 1025 2744 1678 
Q 2744 2294 2464 2611 
Q 2184 2928 1769 2928 
Q 1347 2928 1069 2612 
Q 791 2297 791 1659 
z
" transform="scale(0.015625)"/>
       <path id="ArialMT-67" d="M 319 -275 
L 866 -356 
Q 900 -609 1056 -725 
Q 1266 -881 1628 -881 
Q 2019 -881 2231 -725 
Q 2444 -569 2519 -288 
Q 2563 -116 2559 434 
Q 2191 0 1641 0 
Q 956 0 581 494 
Q 206 988 206 1678 
Q 206 2153 378 2554 
Q 550 2956 876 3175 
Q 1203 3394 1644 3394 
Q 2231 3394 2613 2919 
L 2613 3319 
L 3131 3319 
L 3131 450 
Q 3131 -325 2973 -648 
Q 2816 -972 2473 -1159 
Q 2131 -1347 1631 -1347 
Q 1038 -1347 672 -1080 
Q 306 -813 319 -275 
z
M 784 1719 
Q 784 1066 1043 766 
Q 1303 466 1694 466 
Q 2081 466 2343 764 
Q 2606 1063 2606 1700 
Q 2606 2309 2336 2618 
Q 2066 2928 1684 2928 
Q 1309 2928 1046 2623 
Q 784 2319 784 1719 
z
" transform="scale(0.015625)"/>
       <path id="ArialMT-69" d="M 425 3934 
L 425 4581 
L 988 4581 
L 988 3934 
L 425 3934 
z
M 425 0 
L 425 3319 
L 988 3319 
L 988 0 
L 425 0 
z
" transform="scale(0.015625)"/>
       <path id="ArialMT-73" d="M 197 991 
L 753 1078 
Q 800 744 1014 566 
Q 1228 388 1613 388 
Q 2000 388 2187 545 
Q 2375 703 2375 916 
Q 2375 1106 2209 1216 
Q 2094 1291 1634 1406 
Q 1016 1563 777 1677 
Q 538 1791 414 1992 
Q 291 2194 291 2438 
Q 291 2659 392 2848 
Q 494 3038 669 3163 
Q 800 3259 1026 3326 
Q 1253 3394 1513 3394 
Q 1903 3394 2198 3281 
Q 2494 3169 2634 2976 
Q 2775 2784 2828 2463 
L 2278 2388 
Q 2241 2644 2061 2787 
Q 1881 2931 1553 2931 
Q 1166 2931 1000 2803 
Q 834 2675 834 2503 
Q 834 2394 903 2306 
Q 972 2216 1119 2156 
Q 1203 2125 1616 2013 
Q 2213 1853 2448 1751 
Q 2684 1650 2818 1456 
Q 2953 1263 2953 975 
Q 2953 694 2789 445 
Q 2625 197 2315 61 
Q 2006 -75 1616 -75 
Q 969 -75 630 194 
Q 291 463 197 991 
z
" transform="scale(0.015625)"/>
       <path id="ArialMT-74" d="M 1650 503 
L 1731 6 
Q 1494 -44 1306 -44 
Q 1000 -44 831 53 
Q 663 150 594 308 
Q 525 466 525 972 
L 525 2881 
L 113 2881 
L 113 3319 
L 525 3319 
L 525 4141 
L 1084 4478 
L 1084 3319 
L 1650 3319 
L 1650 2881 
L 1084 2881 
L 1084 941 
Q 1084 700 1114 631 
Q 1144 563 1211 522 
Q 1278 481 1403 481 
Q 1497 481 1650 503 
z
" transform="scale(0.015625)"/>
       <path id="ArialMT-63" d="M 2588 1216 
L 3141 1144 
Q 3050 572 2676 248 
Q 2303 -75 1759 -75 
Q 1078 -75 664 370 
Q 250 816 250 1647 
Q 250 2184 428 2587 
Q 606 2991 970 3192 
Q 1334 3394 1763 3394 
Q 2303 3394 2647 3120 
Q 2991 2847 3088 2344 
L 2541 2259 
Q 2463 2594 2264 2762 
Q 2066 2931 1784 2931 
Q 1359 2931 1093 2626 
Q 828 2322 828 1663 
Q 828 994 1084 691 
Q 1341 388 1753 388 
Q 2084 388 2306 591 
Q 2528 794 2588 1216 
z
" transform="scale(0.015625)"/>
       <path id="ArialMT-77" d="M 1034 0 
L 19 3319 
L 600 3319 
L 1128 1403 
L 1325 691 
Q 1338 744 1497 1375 
L 2025 3319 
L 2603 3319 
L 3100 1394 
L 3266 759 
L 3456 1400 
L 4025 3319 
L 4572 3319 
L 3534 0 
L 2950 0 
L 2422 1988 
L 2294 2553 
L 1622 0 
L 1034 0 
z
" transform="scale(0.015625)"/>
       <path id="ArialMT-68" d="M 422 0 
L 422 4581 
L 984 4581 
L 984 2938 
Q 1378 3394 1978 3394 
Q 2347 3394 2619 3248 
Q 2891 3103 3008 2847 
Q 3125 2591 3125 2103 
L 3125 0 
L 2563 0 
L 2563 2103 
Q 2563 2525 2380 2717 
Q 2197 2909 1863 2909 
Q 1613 2909 1392 2779 
Q 1172 2650 1078 2428 
Q 984 2206 984 1816 
L 984 0 
L 422 0 
z
" transform="scale(0.015625)"/>
       <path id="ArialMT-61" d="M 2588 409 
Q 2275 144 1986 34 
Q 1697 -75 1366 -75 
Q 819 -75 525 192 
Q 231 459 231 875 
Q 231 1119 342 1320 
Q 453 1522 633 1644 
Q 813 1766 1038 1828 
Q 1203 1872 1538 1913 
Q 2219 1994 2541 2106 
Q 2544 2222 2544 2253 
Q 2544 2597 2384 2738 
Q 2169 2928 1744 2928 
Q 1347 2928 1158 2789 
Q 969 2650 878 2297 
L 328 2372 
Q 403 2725 575 2942 
Q 747 3159 1072 3276 
Q 1397 3394 1825 3394 
Q 2250 3394 2515 3294 
Q 2781 3194 2906 3042 
Q 3031 2891 3081 2659 
Q 3109 2516 3109 2141 
L 3109 1391 
Q 3109 606 3145 398 
Q 3181 191 3288 0 
L 2700 0 
Q 2613 175 2588 409 
z
M 2541 1666 
Q 2234 1541 1622 1453 
Q 1275 1403 1131 1340 
Q 988 1278 909 1158 
Q 831 1038 831 891 
Q 831 666 1001 516 
Q 1172 366 1500 366 
Q 1825 366 2078 508 
Q 2331 650 2450 897 
Q 2541 1088 2541 1459 
L 2541 1666 
z
" transform="scale(0.015625)"/>
       <path id="ArialMT-6e" d="M 422 0 
L 422 3319 
L 928 3319 
L 928 2847 
Q 1294 3394 1984 3394 
Q 2284 3394 2536 3286 
Q 2788 3178 2913 3003 
Q 3038 2828 3088 2588 
Q 3119 2431 3119 2041 
L 3119 0 
L 2556 0 
L 2556 2019 
Q 2556 2363 2490 2533 
Q 2425 2703 2258 2804 
Q 2091 2906 1866 2906 
Q 1506 2906 1245 2678 
Q 984 2450 984 1813 
L 984 0 
L 422 0 
z
" transform="scale(0.015625)"/>
       <path id="ArialMT-65" d="M 2694 1069 
L 3275 997 
Q 3138 488 2766 206 
Q 2394 -75 1816 -75 
Q 1088 -75 661 373 
Q 234 822 234 1631 
Q 234 2469 665 2931 
Q 1097 3394 1784 3394 
Q 2450 3394 2872 2941 
Q 3294 2488 3294 1666 
Q 3294 1616 3291 1516 
L 816 1516 
Q 847 969 1125 678 
Q 1403 388 1819 388 
Q 2128 388 2347 550 
Q 2566 713 2694 1069 
z
M 847 1978 
L 2700 1978 
Q 2663 2397 2488 2606 
Q 2219 2931 1791 2931 
Q 1403 2931 1139 2672 
Q 875 2413 847 1978 
z
" transform="scale(0.015625)"/>
      </defs>
      <use xlink:href="#ArialMT-6d"/>
      <use xlink:href="#ArialMT-75" transform="translate(83.300781 0)"/>
      <use xlink:href="#ArialMT-2d" transform="translate(138.916016 0)"/>
      <use xlink:href="#ArialMT-6c" transform="translate(172.216797 0)"/>
      <use xlink:href="#ArialMT-6f" transform="translate(194.433594 0)"/>
      <use xlink:href="#ArialMT-67" transform="translate(250.048828 0)"/>
      <use xlink:href="#ArialMT-69" transform="translate(305.664062 0)"/>
      <use xlink:href="#ArialMT-73" transform="translate(327.880859 0)"/>
      <use xlink:href="#ArialMT-74" transform="translate(377.880859 0)"/>
      <use xlink:href="#ArialMT-69" transform="translate(405.664062 0)"/>
      <use xlink:href="#ArialMT-63" transform="translate(427.880859 0)"/>
      <use xlink:href="#ArialMT-2d" transform="translate(477.880859 0)"/>
      <use xlink:href="#ArialMT-77" transform="translate(511.181641 0)"/>
      <use xlink:href="#ArialMT-68" transform="translate(583.398438 0)"/>
      <use xlink:href="#ArialMT-61" transform="translate(639.013672 0)"/>
      <use xlink:href="#ArialMT-6c" transform="translate(694.628906 0)"/>
      <use xlink:href="#ArialMT-69" transform="translate(716.845703 0)"/>
      <use xlink:href="#ArialMT-6e" transform="translate(739.0625 0)"/>
      <use xlink:href="#ArialMT-67" transform="translate(794.677734 0)"/>
      <use xlink:href="#ArialMT-2d" transform="translate(850.292969 0)"/>
      <use xlink:href="#ArialMT-73" transform="translate(883.59375 0)"/>
      <use xlink:href="#ArialMT-75" transform="translate(933.59375 0)"/>
      <use xlink:href="#ArialMT-63" transform="translate(989.208984 0)"/>
      <use xlink:href="#ArialMT-63" transform="translate(1039.208984 0)"/>
      <use xlink:href="#ArialMT-65" transform="translate(1089.208984 0)"/>
      <use xlink:href="#ArialMT-73" transform="translate(1144.824219 0)"/>
      <use xlink:href="#ArialMT-73" transform="translate(1194.824219 0)"/>
     </g>
    </g>
   </g>
   <g id="matplotlib.axis_2">
    <g id="ytick_1">
     <g id="line2d_13">
      <path d="M 43.585938 243.549375 
L 601.585938 243.549375 
" clip-path="url(#p3c25697f79)" style="fill: none; stroke: #cccccc; stroke-width: 0.8; stroke-linecap: round"/>
     </g>
     <g id="line2d_14"/>
     <g id="text_8">
      <!-- −0.4 -->
      <g style="fill: #262626" transform="translate(20.345312 247.128281) scale(0.1 -0.1)">
       <defs>
        <path id="ArialMT-2212" d="M 3381 1997 
L 356 1997 
L 356 2522 
L 3381 2522 
L 3381 1997 
z
" transform="scale(0.015625)"/>
       </defs>
       <use xlink:href="#ArialMT-2212"/>
       <use xlink:href="#ArialMT-30" transform="translate(58.398438 0)"/>
       <use xlink:href="#ArialMT-2e" transform="translate(114.013672 0)"/>
       <use xlink:href="#ArialMT-34" transform="translate(141.796875 0)"/>
      </g>
     </g>
    </g>
    <g id="ytick_2">
     <g id="line2d_15">
      <path d="M 43.585938 211.869375 
L 601.585938 211.869375 
" clip-path="url(#p3c25697f79)" style="fill: none; stroke: #cccccc; stroke-width: 0.8; stroke-linecap: round"/>
     </g>
     <g id="line2d_16"/>
     <g id="text_9">
      <!-- −0.3 -->
      <g style="fill: #262626" transform="translate(20.345312 215.448281) scale(0.1 -0.1)">
       <defs>
        <path id="ArialMT-33" d="M 269 1209 
L 831 1284 
Q 928 806 1161 595 
Q 1394 384 1728 384 
Q 2125 384 2398 659 
Q 2672 934 2672 1341 
Q 2672 1728 2419 1979 
Q 2166 2231 1775 2231 
Q 1616 2231 1378 2169 
L 1441 2663 
Q 1497 2656 1531 2656 
Q 1891 2656 2178 2843 
Q 2466 3031 2466 3422 
Q 2466 3731 2256 3934 
Q 2047 4138 1716 4138 
Q 1388 4138 1169 3931 
Q 950 3725 888 3313 
L 325 3413 
Q 428 3978 793 4289 
Q 1159 4600 1703 4600 
Q 2078 4600 2393 4439 
Q 2709 4278 2876 4000 
Q 3044 3722 3044 3409 
Q 3044 3113 2884 2869 
Q 2725 2625 2413 2481 
Q 2819 2388 3044 2092 
Q 3269 1797 3269 1353 
Q 3269 753 2831 336 
Q 2394 -81 1725 -81 
Q 1122 -81 723 278 
Q 325 638 269 1209 
z
" transform="scale(0.015625)"/>
       </defs>
       <use xlink:href="#ArialMT-2212"/>
       <use xlink:href="#ArialMT-30" transform="translate(58.398438 0)"/>
       <use xlink:href="#ArialMT-2e" transform="translate(114.013672 0)"/>
       <use xlink:href="#ArialMT-33" transform="translate(141.796875 0)"/>
      </g>
     </g>
    </g>
    <g id="ytick_3">
     <g id="line2d_17">
      <path d="M 43.585938 180.189375 
L 601.585938 180.189375 
" clip-path="url(#p3c25697f79)" style="fill: none; stroke: #cccccc; stroke-width: 0.8; stroke-linecap: round"/>
     </g>
     <g id="line2d_18"/>
     <g id="text_10">
      <!-- −0.2 -->
      <g style="fill: #262626" transform="translate(20.345312 183.768281) scale(0.1 -0.1)">
       <use xlink:href="#ArialMT-2212"/>
       <use xlink:href="#ArialMT-30" transform="translate(58.398438 0)"/>
       <use xlink:href="#ArialMT-2e" transform="translate(114.013672 0)"/>
       <use xlink:href="#ArialMT-32" transform="translate(141.796875 0)"/>
      </g>
     </g>
    </g>
    <g id="ytick_4">
     <g id="line2d_19">
      <path d="M 43.585938 148.509375 
L 601.585938 148.509375 
" clip-path="url(#p3c25697f79)" style="fill: none; stroke: #cccccc; stroke-width: 0.8; stroke-linecap: round"/>
     </g>
     <g id="line2d_20"/>
     <g id="text_11">
      <!-- −0.1 -->
      <g style="fill: #262626" transform="translate(20.345312 152.088281) scale(0.1 -0.1)">
       <use xlink:href="#ArialMT-2212"/>
       <use xlink:href="#ArialMT-30" transform="translate(58.398438 0)"/>
       <use xlink:href="#ArialMT-2e" transform="translate(114.013672 0)"/>
       <use xlink:href="#ArialMT-31" transform="translate(141.796875 0)"/>
      </g>
     </g>
    </g>
    <g id="ytick_5">
     <g id="line2d_21">
      <path d="M 43.585938 116.829375 
L 601.585938 116.829375 
" clip-path="url(#p3c25697f79)" style="fill: none; stroke: #cccccc; stroke-width: 0.8; stroke-linecap: round"/>
     </g>
     <g id="line2d_22"/>
     <g id="text_12">
      <!-- 0.0 -->
      <g style="fill: #262626" transform="translate(26.185938 120.408281) scale(0.1 -0.1)">
       <use xlink:href="#ArialMT-30"/>
       <use xlink:href="#ArialMT-2e" transform="translate(55.615234 0)"/>
       <use xlink:href="#ArialMT-30" transform="translate(83.398438 0)"/>
      </g>
     </g>
    </g>
    <g id="ytick_6">
     <g id="line2d_23">
      <path d="M 43.585938 85.149375 
L 601.585938 85.149375 
" clip-path="url(#p3c25697f79)" style="fill: none; stroke: #cccccc; stroke-width: 0.8; stroke-linecap: round"/>
     </g>
     <g id="line2d_24"/>
     <g id="text_13">
      <!-- 0.1 -->
      <g style="fill: #262626" transform="translate(26.185938 88.728281) scale(0.1 -0.1)">
       <use xlink:href="#ArialMT-30"/>
       <use xlink:href="#ArialMT-2e" transform="translate(55.615234 0)"/>
       <use xlink:href="#ArialMT-31" transform="translate(83.398438 0)"/>
      </g>
     </g>
    </g>
    <g id="ytick_7">
     <g id="line2d_25">
      <path d="M 43.585938 53.469375 
L 601.585938 53.469375 
" clip-path="url(#p3c25697f79)" style="fill: none; stroke: #cccccc; stroke-width: 0.8; stroke-linecap: round"/>
     </g>
     <g id="line2d_26"/>
     <g id="text_14">
      <!-- 0.2 -->
      <g style="fill: #262626" transform="translate(26.185938 57.048281) scale(0.1 -0.1)">
       <use xlink:href="#ArialMT-30"/>
       <use xlink:href="#ArialMT-2e" transform="translate(55.615234 0)"/>
       <use xlink:href="#ArialMT-32" transform="translate(83.398438 0)"/>
      </g>
     </g>
    </g>
    <g id="ytick_8">
     <g id="line2d_27">
      <path d="M 43.585938 21.789375 
L 601.585938 21.789375 
" clip-path="url(#p3c25697f79)" style="fill: none; stroke: #cccccc; stroke-width: 0.8; stroke-linecap: round"/>
     </g>
     <g id="line2d_28"/>
     <g id="text_15">
      <!-- 0.3 -->
      <g style="fill: #262626" transform="translate(26.185938 25.368281) scale(0.1 -0.1)">
       <use xlink:href="#ArialMT-30"/>
       <use xlink:href="#ArialMT-2e" transform="translate(55.615234 0)"/>
       <use xlink:href="#ArialMT-33" transform="translate(83.398438 0)"/>
      </g>
     </g>
    </g>
    <g id="text_16">
     <!-- score -->
     <g style="fill: #262626" transform="translate(14.357812 144.895156) rotate(-90) scale(0.1 -0.1)">
      <defs>
       <path id="ArialMT-72" d="M 416 0 
L 416 3319 
L 922 3319 
L 922 2816 
Q 1116 3169 1280 3281 
Q 1444 3394 1641 3394 
Q 1925 3394 2219 3213 
L 2025 2691 
Q 1819 2813 1613 2813 
Q 1428 2813 1281 2702 
Q 1134 2591 1072 2394 
Q 978 2094 978 1738 
L 978 0 
L 416 0 
z
" transform="scale(0.015625)"/>
      </defs>
      <use xlink:href="#ArialMT-73"/>
      <use xlink:href="#ArialMT-63" transform="translate(50 0)"/>
      <use xlink:href="#ArialMT-6f" transform="translate(100 0)"/>
      <use xlink:href="#ArialMT-72" transform="translate(155.615234 0)"/>
      <use xlink:href="#ArialMT-65" transform="translate(188.916016 0)"/>
     </g>
    </g>
   </g>
   <g id="FillBetweenPolyCollection_1">
    <path d="M 44.227615 77.338014 
L 44.227615 89.079406 
L 45.359537 87.403235 
L 46.398053 86.208856 
L 47.211708 86.673957 
L 48.082252 86.962946 
L 48.799881 87.637982 
L 49.516404 87.949765 
L 50.391299 87.915103 
L 51.260518 87.656186 
L 51.82572 87.091658 
L 52.517462 86.90054 
L 53.589293 86.80312 
L 54.375771 86.919716 
L 55.052367 87.015366 
L 55.815548 86.922279 
L 56.951037 86.966818 
L 57.783161 87.104926 
L 58.485143 87.178554 
L 59.724626 87.173351 
L 60.60565 87.130809 
L 61.14291 87.004756 
L 62.026982 86.896122 
L 62.999146 86.702015 
L 63.695098 86.613463 
L 64.498402 86.54188 
L 65.229587 86.565674 
L 66.243024 86.601799 
L 67.340034 86.632324 
L 67.921458 86.80724 
L 68.433147 86.738453 
L 69.234586 86.630932 
L 70.074316 86.695754 
L 70.951539 86.784326 
L 71.990551 86.773904 
L 72.880596 86.775398 
L 73.659334 86.84257 
L 74.659111 86.910319 
L 75.447128 86.910668 
L 76.346636 86.930652 
L 77.159086 86.89197 
L 77.874365 86.744332 
L 78.665803 86.626127 
L 79.468235 86.683838 
L 80.642065 86.490674 
L 81.488315 86.410288 
L 82.346291 86.227293 
L 83.171712 86.00141 
L 83.765206 85.847845 
L 84.679586 85.80302 
L 85.400074 85.670381 
L 86.124605 85.662015 
L 86.960312 85.600609 
L 87.627032 85.59491 
L 88.716543 85.469608 
L 89.866652 85.507053 
L 90.63132 85.494935 
L 91.288183 85.393888 
L 92.141822 85.372225 
L 93.083114 85.456587 
L 93.929525 85.432111 
L 94.584977 85.411026 
L 95.304524 85.365163 
L 96.309679 85.354012 
L 97.1467 85.322535 
L 97.861292 85.195536 
L 98.599586 85.153333 
L 99.338919 85.136757 
L 100.374963 85.135747 
L 101.575298 85.022844 
L 102.341847 85.02905 
L 102.833196 85.160174 
L 103.902852 85.125233 
L 104.876018 85.086457 
L 105.662817 85.114022 
L 106.476722 85.156879 
L 106.977296 85.163257 
L 107.942084 85.268053 
L 108.858176 85.322301 
L 109.465573 85.357861 
L 110.295452 85.378086 
L 111.13743 85.458699 
L 112.111848 85.565137 
L 112.961451 85.647889 
L 113.60206 85.791652 
L 114.417897 85.871312 
L 115.403734 85.974484 
L 116.412072 86.167573 
L 117.100612 86.29676 
L 117.691519 86.505578 
L 118.512381 86.602102 
L 119.651597 86.72202 
L 120.550982 86.868004 
L 121.342256 86.954547 
L 122.386895 87.01718 
L 123.265339 87.309723 
L 123.905512 87.381093 
L 124.61663 87.547299 
L 125.50097 87.765164 
L 126.285799 87.843116 
L 127.184322 87.961476 
L 128.072539 88.080653 
L 129.087957 88.220058 
L 129.859809 88.379915 
L 130.517284 88.471429 
L 131.588365 88.629308 
L 132.302111 88.646845 
L 133.089289 88.85332 
L 133.922248 89.014504 
L 134.784696 89.330528 
L 135.937428 89.573925 
L 136.790365 89.695565 
L 137.621304 89.806121 
L 138.480682 90.145541 
L 139.144456 90.348318 
L 139.780468 90.452311 
L 140.699049 90.731841 
L 141.541309 91.041736 
L 142.319889 91.208587 
L 143.19137 91.376192 
L 144.048376 91.610051 
L 145.110252 91.824146 
L 146.090453 92.121047 
L 146.810101 92.233748 
L 147.561009 92.458634 
L 148.285094 92.658683 
L 148.850478 92.716103 
L 149.819785 92.818545 
L 150.874041 93.052813 
L 151.607135 93.302388 
L 152.485716 93.472915 
L 153.270839 93.905307 
L 154.143578 94.149247 
L 155.011178 94.373391 
L 155.831056 94.391978 
L 156.628141 94.539146 
L 157.163927 94.786543 
L 158.199709 94.897836 
L 159.250419 95.153166 
L 159.943609 95.4183 
L 160.826221 95.711755 
L 161.761163 95.917468 
L 162.39667 96.112553 
L 163.118966 96.223863 
L 164.045617 96.331519 
L 164.939563 96.512225 
L 165.650657 96.688798 
L 166.653754 96.826455 
L 167.622529 96.998481 
L 168.426306 97.023507 
L 169.264155 97.119639 
L 169.82372 97.289272 
L 170.666874 97.423208 
L 171.781716 97.566346 
L 172.782832 97.739903 
L 173.351872 97.928061 
L 174.097904 98.07635 
L 174.982295 98.184937 
L 175.598654 98.369006 
L 176.557838 98.60574 
L 177.774965 99.02504 
L 178.363408 99.427694 
L 178.939148 99.837764 
L 179.936795 100.189558 
L 180.883107 100.469191 
L 181.831006 100.728677 
L 182.44174 100.89506 
L 183.170032 101.296566 
L 184.150102 101.541022 
L 185.166587 101.744353 
L 186.197159 102.094096 
L 186.680062 102.46716 
L 187.572016 102.943363 
L 188.388427 103.367613 
L 189.22386 103.64008 
L 190.278102 103.885071 
L 190.926482 104.007198 
L 191.584875 104.223984 
L 192.302741 104.519424 
L 193.319826 104.703111 
L 194.29874 104.947997 
L 195.183411 104.975044 
L 195.794867 105.360564 
L 196.758666 105.475321 
L 197.731419 105.369531 
L 198.335913 105.599365 
L 199.389821 105.737123 
L 200.252429 105.517811 
L 201.113067 105.561213 
L 201.937875 105.519018 
L 202.455952 105.57416 
L 203.518562 105.486611 
L 204.350292 105.573092 
L 204.824494 105.815127 
L 205.620227 105.789389 
L 206.824529 105.743787 
L 207.642943 105.754854 
L 208.322449 105.750667 
L 209.314045 105.931448 
L 210.077638 106.004393 
L 210.803324 106.043264 
L 211.467193 106.429755 
L 212.460944 106.490951 
L 213.542808 106.709528 
L 214.489279 106.883954 
L 215.478256 106.996041 
L 216.092673 107.190875 
L 216.719659 107.326464 
L 217.67307 107.632452 
L 218.631978 107.875372 
L 219.666096 108.132167 
L 220.424382 108.217364 
L 221.208855 108.403105 
L 221.880102 108.635475 
L 222.416227 108.78415 
L 223.246935 108.990975 
L 224.055584 109.256158 
L 225.140411 109.596871 
L 226.277397 109.744826 
L 227.052173 109.767291 
L 227.646675 109.975437 
L 228.517369 109.989141 
L 229.323144 110.15413 
L 230.0706 110.27168 
L 230.948752 110.466365 
L 231.957569 110.620889 
L 232.776258 110.753629 
L 233.633492 110.848979 
L 234.620077 111.034256 
L 235.45988 111.288568 
L 236.309667 111.317886 
L 236.970833 111.306346 
L 237.840571 111.133433 
L 238.884007 111.206127 
L 239.719105 111.268369 
L 240.292472 111.262708 
L 241.003899 111.32815 
L 241.884111 111.404545 
L 242.843961 111.523756 
L 243.867645 111.73147 
L 244.795154 111.798413 
L 245.574298 111.894225 
L 246.083312 111.98806 
L 246.803639 112.03663 
L 247.887525 112.2623 
L 248.797905 112.289827 
L 249.595916 112.301168 
L 250.568355 112.426611 
L 251.545605 112.459141 
L 252.322673 112.51591 
L 253.168553 112.597837 
L 254.040196 112.727956 
L 254.8878 112.846148 
L 255.477162 112.920841 
L 256.04963 113.105752 
L 256.833793 113.161981 
L 257.598897 113.295363 
L 258.614258 113.391738 
L 259.553193 113.727101 
L 260.224073 113.841688 
L 261.156552 113.830347 
L 262.07848 113.783568 
L 262.865642 113.853686 
L 263.88397 114.006754 
L 264.827693 114.05555 
L 265.328927 114.195085 
L 266.217809 114.210147 
L 267.211246 114.038944 
L 267.864107 113.784338 
L 268.745543 113.785736 
L 269.688459 113.82846 
L 270.481548 113.943714 
L 271.13013 114.016223 
L 271.8151 114.073791 
L 272.790688 114.125439 
L 273.598973 114.251999 
L 274.33418 114.409867 
L 275.314815 114.75063 
L 276.26664 114.944326 
L 277.181914 115.060362 
L 277.972697 115.144786 
L 278.807675 115.350251 
L 279.583849 115.54999 
L 280.420209 115.732142 
L 281.244529 115.817124 
L 281.855052 116.091551 
L 282.935573 116.290174 
L 284.044139 116.51328 
L 284.722551 116.661374 
L 285.505421 117.040158 
L 286.306934 117.155881 
L 286.924579 117.206781 
L 287.879582 117.349884 
L 289.09543 117.461341 
L 289.770374 117.503376 
L 290.546139 117.532296 
L 291.440389 117.754237 
L 292.145023 117.914762 
L 292.782236 118.085855 
L 293.728538 118.257265 
L 294.981118 118.267944 
L 295.569703 118.271488 
L 296.01172 118.42517 
L 297.201934 118.541093 
L 298.383076 118.812323 
L 299.097547 118.906945 
L 299.972039 119.151735 
L 300.817941 119.29417 
L 301.285975 119.462063 
L 302.068156 119.557088 
L 303.079115 119.536422 
L 303.96005 119.517791 
L 304.765754 119.424872 
L 305.346552 119.425933 
L 306.257915 119.443203 
L 307.308732 119.502714 
L 308.193763 119.542398 
L 309.169915 119.529374 
L 310.039011 119.633233 
L 310.706614 119.731139 
L 311.252264 119.79548 
L 312.088436 119.948324 
L 313.132775 120.033208 
L 313.943882 120.033588 
L 314.576091 120.003679 
L 315.314693 119.875413 
L 316.182901 119.945687 
L 317.183103 119.967487 
L 317.971606 120.233051 
L 318.72844 120.396676 
L 319.838962 120.514611 
L 320.562585 120.507193 
L 321.43885 120.542414 
L 322.281346 120.579623 
L 323.036467 120.629715 
L 323.849496 120.625755 
L 324.583277 120.715237 
L 325.517654 120.798451 
L 326.244663 120.872513 
L 327.0545 120.946272 
L 328.18346 120.977185 
L 329.081924 121.004397 
L 329.739338 121.007442 
L 330.476895 121.041685 
L 331.170153 121.159593 
L 332.041031 121.167813 
L 333.162122 121.212414 
L 334.260344 121.225046 
L 334.941236 121.303223 
L 335.579608 121.353514 
L 336.425837 121.328683 
L 337.281295 121.372044 
L 338.024072 121.438133 
L 339.062979 121.47158 
L 339.994112 121.674392 
L 340.763825 121.728613 
L 341.746276 121.87977 
L 342.338225 122.033296 
L 342.897086 122.181646 
L 343.914946 122.433733 
L 345.053745 122.482762 
L 345.837236 122.652426 
L 346.414988 122.795899 
L 347.166004 122.946072 
L 348.022386 123.057866 
L 348.880058 123.138495 
L 349.688363 123.18261 
L 350.607315 123.228111 
L 351.512231 123.342381 
L 352.161615 123.450554 
L 353.136335 123.579233 
L 354.01719 123.621862 
L 354.687292 123.576282 
L 355.830347 123.565628 
L 356.882745 123.524758 
L 357.58995 123.639082 
L 358.212651 123.75277 
L 359.099266 123.765523 
L 359.987575 123.772097 
L 360.817487 123.792218 
L 361.774192 123.780006 
L 362.71913 123.717259 
L 363.299536 123.645762 
L 363.94724 123.745752 
L 365.069036 123.940916 
L 365.797272 124.003307 
L 366.555585 124.092769 
L 367.445312 124.215528 
L 368.333943 124.337487 
L 369.352967 124.39418 
L 369.942572 124.421991 
L 370.625512 124.664511 
L 371.520187 124.773424 
L 372.46572 124.916225 
L 373.607733 125.085322 
L 374.465236 125.387678 
L 375.024953 125.437979 
L 375.809699 125.519681 
L 376.921638 125.573018 
L 377.543446 125.646143 
L 378.234406 125.548006 
L 379.371248 125.658633 
L 380.196085 125.773958 
L 380.729292 125.779185 
L 381.538685 125.777245 
L 382.375156 125.798826 
L 383.283627 125.859604 
L 384.138581 125.998625 
L 384.909063 126.045655 
L 385.981905 126.113394 
L 386.816225 126.129553 
L 387.729229 126.225572 
L 388.512776 126.330903 
L 389.097299 126.429726 
L 389.973293 126.591811 
L 390.978682 126.716461 
L 391.878383 126.859963 
L 392.743191 127.017573 
L 393.495824 127.105313 
L 394.157832 127.299649 
L 394.86181 127.383792 
L 395.680766 127.436574 
L 396.741682 127.475944 
L 397.474529 127.508754 
L 398.143374 127.560253 
L 399.132598 127.583484 
L 400.27712 127.6386 
L 400.992217 127.629407 
L 401.55849 127.624404 
L 402.67452 127.625519 
L 403.621646 127.604118 
L 404.171579 127.598241 
L 404.968559 127.653517 
L 405.952741 127.554351 
L 406.928372 127.475921 
L 407.981956 127.386204 
L 408.678127 127.390514 
L 409.172931 127.324457 
L 410.106432 127.09014 
L 411.053457 126.999931 
L 411.851716 126.938129 
L 412.537321 126.865638 
L 413.519475 126.873589 
L 414.735496 126.831253 
L 415.425741 126.811616 
L 415.93253 126.747437 
L 416.798074 126.783304 
L 417.771914 126.750492 
L 418.403564 126.67713 
L 419.430034 126.607286 
L 420.484505 126.590191 
L 421.164393 126.632308 
L 421.989562 126.758267 
L 422.95497 126.693823 
L 423.646638 126.796772 
L 424.519408 126.768599 
L 425.289333 126.716309 
L 425.87861 126.719724 
L 426.661608 126.69298 
L 427.41593 126.662689 
L 428.270243 126.698206 
L 429.064036 126.691139 
L 430.214798 126.675242 
L 431.073576 126.698672 
L 431.709805 126.760304 
L 432.90387 126.750218 
L 433.728056 126.743974 
L 434.465273 126.768968 
L 435.536829 126.723524 
L 436.367533 126.725023 
L 437.243701 126.752861 
L 437.9206 126.757455 
L 438.536599 126.737929 
L 439.528671 126.75596 
L 440.386278 126.826839 
L 440.939232 126.911603 
L 441.747488 126.909899 
L 442.745643 126.962472 
L 443.436255 127.030667 
L 444.226574 127.064233 
L 445.070376 127.059443 
L 446.014209 127.059754 
L 447.224958 127.105113 
L 448.04065 127.078195 
L 448.895932 127.120961 
L 449.672042 127.132453 
L 450.349505 127.243971 
L 451.119556 127.291089 
L 452.051285 127.476479 
L 453.028361 127.304694 
L 453.534142 127.281329 
L 454.549783 127.324728 
L 455.752714 127.381222 
L 456.574317 127.356252 
L 457.256551 127.359562 
L 458.082555 127.413978 
L 458.833106 127.492906 
L 459.498509 127.505975 
L 460.434429 127.525786 
L 461.300297 127.541319 
L 462.163403 127.534799 
L 463.184239 127.556298 
L 463.877082 127.660231 
L 464.626546 127.692021 
L 465.631536 127.701827 
L 466.428755 127.844435 
L 467.284672 127.858833 
L 468.095223 127.875702 
L 468.829471 127.872352 
L 469.800246 127.887975 
L 470.788162 127.812148 
L 471.356067 127.823864 
L 471.973062 127.854931 
L 473.025796 127.838336 
L 473.8914 127.831673 
L 474.640105 127.908342 
L 475.705045 127.954649 
L 476.629206 127.993267 
L 477.448566 128.03568 
L 478.270017 128.064769 
L 479.057603 128.096313 
L 479.885122 128.168355 
L 480.569705 128.237932 
L 481.251976 128.301067 
L 482.272787 128.379958 
L 483.21944 128.418166 
L 483.709898 128.569396 
L 484.538113 128.675197 
L 485.394614 128.808849 
L 486.307823 129.073067 
L 487.176681 129.180526 
L 487.85107 129.312717 
L 488.789723 129.414807 
L 489.729412 129.533311 
L 490.418836 129.675597 
L 491.290688 129.753759 
L 492.184207 129.907725 
L 492.770857 130.037277 
L 493.670062 130.20199 
L 494.867489 130.313036 
L 495.720959 130.363 
L 496.163574 130.396084 
L 497.06618 130.484556 
L 497.928658 130.537389 
L 498.716049 130.654519 
L 499.513402 130.724889 
L 500.207918 130.742823 
L 501.075351 130.766315 
L 502.102805 130.740103 
L 503.18426 130.837113 
L 503.968159 130.846778 
L 504.894942 130.867213 
L 505.850494 130.888831 
L 506.37177 130.952382 
L 507.198526 131.052903 
L 508.283551 131.116181 
L 508.896599 131.16515 
L 509.489095 131.162851 
L 510.302504 131.180592 
L 511.152374 131.29982 
L 512.056061 131.353779 
L 513.005246 131.505168 
L 514.010129 131.526229 
L 515.054128 131.546599 
L 515.809435 131.597234 
L 516.562421 131.721077 
L 517.293502 131.757833 
L 517.879253 131.855864 
L 518.863584 131.879419 
L 520.046424 131.945895 
L 520.960623 132.011957 
L 521.698833 132.066952 
L 522.61293 132.168055 
L 523.377646 132.223042 
L 524.18691 132.218159 
L 525.030391 132.24337 
L 525.530035 132.18184 
L 526.387674 132.112841 
L 527.580383 132.071493 
L 528.247979 132.06482 
L 529.072168 132.089701 
L 530.017275 132.128304 
L 530.834681 132.072629 
L 531.758705 132.056013 
L 532.453554 132.229347 
L 533.206738 132.039888 
L 534.158163 132.01 
L 535.164267 132.003199 
L 535.841956 131.974809 
L 536.538774 131.979125 
L 537.279118 131.948806 
L 538.210992 132.049999 
L 539.22666 132.138352 
L 539.778151 132.159332 
L 540.425871 132.057788 
L 541.360249 132.033077 
L 542.433717 131.935756 
L 543.507824 131.947124 
L 544.188405 131.93532 
L 544.871802 131.911123 
L 545.605478 131.878167 
L 546.238732 131.852633 
L 547.173686 131.805023 
L 548.232101 131.794912 
L 549.193618 131.756542 
L 550.076368 131.656141 
L 550.740863 131.564345 
L 551.398576 131.479398 
L 552.442611 131.451294 
L 553.194425 131.320399 
L 554.104849 131.306373 
L 555.017968 131.306655 
L 555.697713 131.281659 
L 556.469764 131.278613 
L 557.252375 131.309951 
L 558.111784 131.259635 
L 559.092748 131.225368 
L 560.019751 131.262135 
L 560.871644 131.234933 
L 561.691257 131.298664 
L 562.45426 131.296428 
L 563.442439 131.328046 
L 564.116702 131.373631 
L 564.98594 131.395023 
L 566.059548 131.415352 
L 566.793268 131.42499 
L 567.622303 131.460674 
L 568.343568 131.4729 
L 569.312891 131.544451 
L 570.326657 131.559864 
L 570.943561 131.611562 
L 571.901792 131.628003 
L 572.852975 131.645161 
L 573.392653 131.53909 
L 573.97048 131.902056 
L 574.973852 131.7145 
L 576.082756 131.643478 
L 576.819429 131.618701 
L 577.510733 131.54161 
L 578.437574 131.512853 
L 579.204359 131.444436 
L 579.809316 131.470572 
L 580.914353 131.462297 
L 581.895186 131.431193 
L 582.456308 131.430491 
L 583.26271 131.410822 
L 584.121879 131.402754 
L 584.830304 131.469119 
L 585.713492 131.523433 
L 586.783798 131.596981 
L 587.742568 131.601166 
L 588.713247 131.58002 
L 589.376203 131.62304 
L 590.033973 131.666517 
L 591.004992 131.73821 
L 592.041164 131.90337 
L 593.024082 131.929531 
L 593.737196 132.020233 
L 594.329028 132.042873 
L 595.154766 132.048448 
L 595.895553 132.076879 
L 596.677113 132.106424 
L 597.555046 132.205021 
L 598.395632 132.189389 
L 599.254495 132.165388 
L 599.970397 132.155208 
L 600.920419 132.21628 
L 601.790672 132.27334 
L 602.795035 132.309467 
L 603.816888 132.318722 
L 604.386147 132.383427 
L 605.041941 132.459356 
L 605.968812 132.544629 
L 606.734503 132.632093 
L 607.363224 132.702516 
L 608.413806 132.733884 
L 609.611773 132.769319 
L 610.213728 132.7503 
L 611.034298 132.82861 
L 611.971646 132.807182 
L 612.523779 132.864829 
L 613.37243 132.903246 
L 614.212184 132.927654 
L 614.925754 132.882733 
L 615.986205 132.911418 
L 616.895544 132.949017 
L 617.762269 133.079445 
L 618.573132 133.153795 
L 619.236783 133.124115 
L 620.414548 133.099188 
L 621.353309 133.042712 
L 622.177102 132.989638 
L 623.024653 132.945952 
L 623.714743 132.886664 
L 624.634632 132.920842 
L 625.540523 132.87079 
L 626.058815 132.846633 
L 626.682431 132.765542 
L 627.673371 132.760079 
L 628.766714 132.763455 
L 629.509973 132.76316 
L 630.159685 132.794413 
L 631.305559 132.877044 
L 632.006033 132.836053 
L 632.837444 132.789922 
L 633.669874 132.780194 
L 634.412028 132.620268 
L 635.282759 132.536166 
L 635.892685 132.511926 
L 636.750631 132.495248 
L 637.55916 132.50281 
L 638.470041 132.563546 
L 639.540559 132.658744 
L 640.322427 132.720499 
L 641.292167 132.687622 
L 642.424923 132.676149 
L 643.084617 132.654213 
L 643.560815 132.644462 
L 644.535371 132.525753 
L 645.410405 132.513976 
L 646.290345 132.470417 
L 647.191363 132.471029 
L 647.643637 132.471069 
L 648.4175 132.492167 
L 649.572571 132.49416 
L 650.565413 132.516203 
L 651.344018 132.516396 
L 652.175246 132.595309 
L 653.087711 132.630553 
L 653.942899 132.649217 
L 654.731929 132.675516 
L 655.748114 132.675211 
L 656.453929 132.665847 
L 657.103098 132.67609 
L 658.107614 132.678744 
L 658.908199 132.745177 
L 659.439946 132.746488 
L 660.43382 132.743268 
L 661.50691 132.773356 
L 662.282874 132.766807 
L 663.006719 132.728216 
L 663.657059 132.711695 
L 664.543302 132.735749 
L 665.388813 132.666197 
L 666.201012 132.529497 
L 667.17561 132.554736 
L 667.863013 132.553678 
L 668.75233 132.54152 
L 669.935919 132.588043 
L 670.564048 132.613268 
L 671.218244 132.738718 
L 672.012856 132.821365 
L 672.823314 132.836829 
L 673.986703 132.847493 
L 674.75932 132.848593 
L 675.570536 132.827666 
L 676.388307 132.877918 
L 677.126394 132.81372 
L 678.074241 132.672558 
L 678.662677 132.658187 
L 679.708202 132.56087 
L 680.624054 132.508028 
L 681.329137 132.466264 
L 682.390578 132.345655 
L 683.14622 132.29316 
L 683.841118 132.27166 
L 684.662643 132.273514 
L 685.558993 132.267006 
L 686.447016 132.194254 
L 687.087322 132.06987 
L 687.848838 131.880522 
L 688.823679 131.791589 
L 689.518469 131.68466 
L 690.585735 131.557794 
L 691.781043 131.444462 
L 692.246075 131.390943 
L 692.774529 131.313785 
L 693.995787 131.302536 
L 694.825135 131.245693 
L 695.266037 131.222959 
L 696.071253 131.165618 
L 697.214298 131.143079 
L 698.061094 131.172115 
L 698.63752 131.182438 
L 699.587218 131.21618 
L 700.759544 131.225383 
L 701.79782 131.200826 
L 702.372271 131.163199 
L 703.094203 131.140569 
L 704.010863 131.114888 
L 704.853349 130.994715 
L 705.719208 130.9389 
L 706.478688 130.864993 
L 707.269892 130.752187 
L 708.15034 130.704625 
L 709.141476 130.670382 
L 709.870962 130.686657 
L 710.476858 130.638487 
L 711.35618 130.613807 
L 712.477721 130.51539 
L 713.538342 130.411423 
L 714.342069 130.605316 
L 714.82838 130.666195 
L 715.495057 130.862369 
L 716.587541 130.987992 
L 717.247662 131.031165 
L 718.068843 131.075088 
L 719.080649 131.110118 
L 719.740271 131.194175 
L 720.444413 131.328562 
L 721.57062 131.422954 
L 722.448229 131.573298 
L 723.110219 131.703553 
L 724.114951 131.842861 
L 724.865419 131.903036 
L 725.531756 132.010803 
L 726.657085 132.034741 
L 727.701615 131.987496 
L 728.336321 132.171066 
L 729.284043 131.889459 
L 730.148549 131.609757 
L 730.92994 131.487505 
L 731.598086 131.411055 
L 732.229691 131.332518 
L 733.182326 131.265939 
L 734.279268 131.191503 
L 735.336178 131.235908 
L 736.068873 131.149098 
L 736.776539 130.996809 
L 737.654226 130.793409 
L 738.2951 130.534839 
L 738.92824 130.353685 
L 740.109714 130.262746 
L 741.082079 130.127296 
L 741.802558 129.970254 
L 742.521076 129.745646 
L 743.424728 129.599529 
L 744.119297 129.312085 
L 744.801324 129.101095 
L 745.958981 128.817812 
L 746.624692 128.608263 
L 747.451998 128.224974 
L 748.420616 128.090122 
L 749.122463 127.813878 
L 750.124568 127.692712 
L 751.030441 127.617414 
L 751.749455 127.469965 
L 752.712175 127.394266 
L 753.416299 127.285801 
L 754.024713 127.198412 
L 754.935528 127.181421 
L 755.9535 127.103399 
L 756.879939 127.016223 
L 757.780081 126.996402 
L 758.402187 126.882941 
L 758.923526 126.901992 
L 759.756427 126.92263 
L 760.852238 126.85642 
L 762.059397 126.774427 
L 762.745368 126.636812 
L 763.252472 126.510809 
L 764.040089 126.42973 
L 764.839349 126.328035 
L 765.927414 126.183748 
L 766.802657 126.095111 
L 767.328766 126.067439 
L 768.464815 125.972474 
L 769.233144 125.942468 
L 770.040946 125.9185 
L 770.900157 125.769417 
L 771.665396 125.685205 
L 772.698718 125.705615 
L 773.572742 125.583858 
L 774.182071 125.495607 
L 774.807374 125.397564 
L 775.934495 125.336438 
L 776.921543 125.208071 
L 777.761713 125.095261 
L 778.632596 124.973912 
L 779.49671 124.834347 
L 780.45627 124.683541 
L 781.306829 124.614769 
L 782.002111 124.501797 
L 782.700929 124.248856 
L 783.523591 124.135435 
L 784.203459 124.095039 
L 784.910394 123.989179 
L 785.758833 123.837846 
L 786.62487 123.756774 
L 787.517057 123.699544 
L 788.597579 123.633834 
L 789.721725 123.56203 
L 790.338693 123.414049 
L 791.098836 123.324534 
L 792.121736 123.171117 
L 792.812648 123.051714 
L 793.604992 122.922978 
L 794.371333 122.7581 
L 795.065867 122.668109 
L 795.84221 122.612803 
L 796.845688 122.471829 
L 797.949908 122.379964 
L 798.871811 122.223489 
L 799.714812 122.059185 
L 800.25498 121.783304 
L 800.955814 121.605631 
L 801.914822 121.546754 
L 802.688783 121.403396 
L 803.591408 121.340709 
L 804.707088 121.252077 
L 805.552538 121.130591 
L 806.150548 121.058473 
L 806.843862 121.015726 
L 807.811152 120.960268 
L 808.669463 120.806591 
L 809.523608 120.762904 
L 810.206141 120.7189 
L 810.772647 120.677973 
L 811.711317 120.602155 
L 812.789993 120.574616 
L 813.562103 120.541983 
L 814.444151 120.566729 
L 815.468624 120.542591 
L 816.11661 120.489709 
L 816.818203 120.404146 
L 817.638367 120.294329 
L 818.768126 120.283669 
L 819.778214 120.218511 
L 820.430791 120.230087 
L 821.310174 120.168985 
L 822.249002 120.023374 
L 823.007967 119.979378 
L 823.581798 119.949697 
L 824.451493 119.933993 
L 825.479915 119.946991 
L 826.162176 119.905591 
L 826.970862 119.841587 
L 827.682609 119.846373 
L 828.660235 119.845304 
L 829.588684 119.828722 
L 830.224651 119.852369 
L 831.17504 119.835209 
L 832.161139 119.79709 
L 833.046261 119.775145 
L 833.920213 119.765405 
L 834.831979 119.845911 
L 835.395993 119.931195 
L 836.105505 119.930388 
L 836.867024 120.021145 
L 837.641556 120.155971 
L 838.527855 120.272433 
L 839.407399 120.390082 
L 840.51065 120.657374 
L 841.198579 120.742741 
L 841.896548 120.856858 
L 842.879164 120.967686 
L 843.531888 121.113961 
L 844.441408 121.423293 
L 845.685835 121.502571 
L 846.487675 121.630961 
L 847.263831 121.844793 
L 847.994615 122.001079 
L 848.878506 122.199618 
L 849.681257 122.347061 
L 850.259554 122.649307 
L 851.31248 122.840622 
L 852.307835 123.243314 
L 853.090294 123.652002 
L 853.829699 124.198935 
L 854.581093 124.636257 
L 855.536381 125.221204 
L 856.615866 125.930557 
L 857.226758 126.591484 
L 858.073651 127.123296 
L 858.917427 127.726982 
L 859.473777 128.243799 
L 860.383804 129.260062 
L 861.086543 129.942078 
L 861.834568 130.620385 
L 862.858877 131.308507 
L 863.873087 132.509162 
L 864.809608 133.472519 
L 865.669942 133.784185 
L 866.474249 134.499259 
L 867.237823 134.87238 
L 868.214564 135.207398 
L 869.194715 135.467038 
L 869.82539 135.638914 
L 870.500646 135.915783 
L 871.193198 136.088022 
L 871.899631 136.447842 
L 873.005538 136.904637 
L 873.834902 137.286753 
L 874.435453 137.979078 
L 875.555191 138.733891 
L 876.367018 139.532404 
L 876.907752 139.718521 
L 878.096679 139.341785 
L 878.902638 139.197605 
L 879.677981 138.711534 
L 880.43068 136.617643 
L 880.43068 122.98611 
L 880.43068 122.98611 
L 879.677981 123.418796 
L 878.902638 123.690235 
L 878.096679 123.67993 
L 876.907752 123.710374 
L 876.367018 123.419314 
L 875.555191 123.235821 
L 874.435453 123.050607 
L 873.834902 122.809779 
L 873.005538 122.795459 
L 871.899631 122.810986 
L 871.193198 122.727952 
L 870.500646 122.769006 
L 869.82539 122.808822 
L 869.194715 122.800162 
L 868.214564 122.789716 
L 867.237823 122.652098 
L 866.474249 122.512587 
L 865.669942 122.630775 
L 864.809608 122.511467 
L 863.873087 122.363003 
L 862.858877 122.091554 
L 861.834568 121.724531 
L 861.086543 121.159024 
L 860.383804 120.541175 
L 859.473777 120.011856 
L 858.917427 119.630771 
L 858.073651 119.119127 
L 857.226758 118.490682 
L 856.615866 117.993739 
L 855.536381 117.453657 
L 854.581093 117.024496 
L 853.829699 116.515436 
L 853.090294 115.989641 
L 852.307835 115.534837 
L 851.31248 115.125459 
L 850.259554 114.838917 
L 849.681257 114.562418 
L 848.878506 114.345137 
L 847.994615 114.166634 
L 847.263831 113.896666 
L 846.487675 113.57056 
L 845.685835 113.335333 
L 844.441408 113.139213 
L 843.531888 112.832336 
L 842.879164 112.440146 
L 841.896548 112.325502 
L 841.198579 112.179866 
L 840.51065 112.0702 
L 839.407399 112.039681 
L 838.527855 111.825859 
L 837.641556 111.770311 
L 836.867024 111.646573 
L 836.105505 111.342503 
L 835.395993 111.114359 
L 834.831979 110.891039 
L 833.920213 110.799088 
L 833.046261 110.689463 
L 832.161139 110.603277 
L 831.17504 110.680104 
L 830.224651 110.698306 
L 829.588684 110.464253 
L 828.660235 110.649438 
L 827.682609 110.735837 
L 826.970862 110.988882 
L 826.162176 111.183655 
L 825.479915 111.308024 
L 824.451493 111.540444 
L 823.581798 111.615361 
L 823.007967 111.620907 
L 822.249002 111.696706 
L 821.310174 111.853945 
L 820.430791 111.996527 
L 819.778214 112.146477 
L 818.768126 112.26207 
L 817.638367 112.547185 
L 816.818203 112.662298 
L 816.11661 112.89454 
L 815.468624 112.97112 
L 814.444151 113.067259 
L 813.562103 113.054884 
L 812.789993 113.137295 
L 811.711317 113.204525 
L 810.772647 113.385474 
L 810.206141 113.530204 
L 809.523608 113.530926 
L 808.669463 113.73577 
L 807.811152 113.960332 
L 806.843862 114.103247 
L 806.150548 114.350736 
L 805.552538 114.608507 
L 804.707088 114.818151 
L 803.591408 115.137383 
L 802.688783 115.365906 
L 801.914822 115.732331 
L 800.955814 116.079002 
L 800.25498 116.429379 
L 799.714812 116.852541 
L 798.871811 117.136544 
L 797.949908 117.187602 
L 796.845688 117.443182 
L 795.84221 117.669256 
L 795.065867 118.098984 
L 794.371333 118.362454 
L 793.604992 118.680492 
L 792.812648 119.081789 
L 792.121736 119.215408 
L 791.098836 119.445322 
L 790.338693 119.627545 
L 789.721725 119.717639 
L 788.597579 119.739113 
L 787.517057 119.732542 
L 786.62487 119.82421 
L 785.758833 119.868682 
L 784.910394 120.027056 
L 784.203459 120.207719 
L 783.523591 120.414593 
L 782.700929 120.597894 
L 782.002111 120.851709 
L 781.306829 121.080274 
L 780.45627 121.40526 
L 779.49671 121.580733 
L 778.632596 121.747315 
L 777.761713 121.937799 
L 776.921543 122.037874 
L 775.934495 122.146342 
L 774.807374 122.272971 
L 774.182071 122.373624 
L 773.572742 122.45603 
L 772.698718 122.602434 
L 771.665396 122.602728 
L 770.900157 122.687732 
L 770.040946 122.544208 
L 769.233144 122.52507 
L 768.464815 122.502541 
L 767.328766 122.467287 
L 766.802657 122.407058 
L 765.927414 122.488986 
L 764.839349 122.505542 
L 764.040089 122.614212 
L 763.252472 122.661593 
L 762.745368 122.706852 
L 762.059397 122.814377 
L 760.852238 122.892644 
L 759.756427 122.860608 
L 758.923526 122.948287 
L 758.402187 122.965046 
L 757.780081 123.221016 
L 756.879939 123.239534 
L 755.9535 123.33411 
L 754.935528 123.499585 
L 754.024713 123.582309 
L 753.416299 123.661638 
L 752.712175 123.732342 
L 751.749455 123.816438 
L 751.030441 123.965408 
L 750.124568 124.141208 
L 749.122463 124.328337 
L 748.420616 124.467662 
L 747.451998 124.824313 
L 746.624692 125.177101 
L 745.958981 125.398027 
L 744.801324 125.661044 
L 744.119297 125.726435 
L 743.424728 125.941928 
L 742.521076 126.097627 
L 741.802558 126.247384 
L 741.082079 126.322383 
L 740.109714 126.454131 
L 738.92824 126.508527 
L 738.2951 126.558537 
L 737.654226 126.626137 
L 736.776539 126.682205 
L 736.068873 126.818079 
L 735.336178 126.86143 
L 734.279268 126.871548 
L 733.182326 126.886167 
L 732.229691 126.862135 
L 731.598086 126.855402 
L 730.92994 126.882248 
L 730.148549 126.905015 
L 729.284043 126.951051 
L 728.336321 126.899271 
L 727.701615 126.977388 
L 726.657085 126.916517 
L 725.531756 126.902534 
L 724.865419 126.855856 
L 724.114951 126.856296 
L 723.110219 126.784526 
L 722.448229 126.738283 
L 721.57062 126.672894 
L 720.444413 126.664499 
L 719.740271 126.664319 
L 719.080649 126.638363 
L 718.068843 126.602145 
L 717.247662 126.572855 
L 716.587541 126.544709 
L 715.495057 126.513758 
L 714.82838 126.44971 
L 714.342069 126.397439 
L 713.538342 126.379953 
L 712.477721 126.385144 
L 711.35618 126.418486 
L 710.476858 126.483928 
L 709.870962 126.54963 
L 709.141476 126.603332 
L 708.15034 126.656052 
L 707.269892 126.681123 
L 706.478688 126.728087 
L 705.719208 126.79552 
L 704.853349 126.833152 
L 704.010863 126.920318 
L 703.094203 126.985036 
L 702.372271 127.006239 
L 701.79782 127.053268 
L 700.759544 127.057788 
L 699.587218 126.974111 
L 698.63752 126.980099 
L 698.061094 126.969271 
L 697.214298 126.964898 
L 696.071253 126.954273 
L 695.266037 127.082347 
L 694.825135 127.139198 
L 693.995787 127.168271 
L 692.774529 127.195048 
L 692.246075 127.191012 
L 691.781043 127.226634 
L 690.585735 127.286457 
L 689.518469 127.315417 
L 688.823679 127.34738 
L 687.848838 127.371333 
L 687.087322 127.39816 
L 686.447016 127.418931 
L 685.558993 127.443692 
L 684.662643 127.473001 
L 683.841118 127.484908 
L 683.14622 127.482248 
L 682.390578 127.514414 
L 681.329137 127.531919 
L 680.624054 127.545989 
L 679.708202 127.520033 
L 678.662677 127.61054 
L 678.074241 127.666758 
L 677.126394 127.738543 
L 676.388307 127.751332 
L 675.570536 127.76697 
L 674.75932 127.768547 
L 673.986703 127.738318 
L 672.823314 127.710704 
L 672.012856 127.66894 
L 671.218244 127.606286 
L 670.564048 127.587241 
L 669.935919 127.582838 
L 668.75233 127.57884 
L 667.863013 127.522419 
L 667.17561 127.518036 
L 666.201012 127.494766 
L 665.388813 127.59275 
L 664.543302 127.622511 
L 663.657059 127.631109 
L 663.006719 127.622263 
L 662.282874 127.683867 
L 661.50691 127.698773 
L 660.43382 127.687109 
L 659.439946 127.699038 
L 658.908199 127.680694 
L 658.107614 127.67298 
L 657.103098 127.682704 
L 656.453929 127.703783 
L 655.748114 127.718088 
L 654.731929 127.732393 
L 653.942899 127.712657 
L 653.087711 127.726311 
L 652.175246 127.755054 
L 651.344018 127.761563 
L 650.565413 127.792954 
L 649.572571 127.813015 
L 648.4175 127.835313 
L 647.643637 127.857683 
L 647.191363 127.850139 
L 646.290345 127.878774 
L 645.410405 127.900067 
L 644.535371 127.947835 
L 643.560815 127.952694 
L 643.084617 127.985058 
L 642.424923 127.996612 
L 641.292167 128.04564 
L 640.322427 128.064064 
L 639.540559 128.061865 
L 638.470041 128.06243 
L 637.55916 128.055121 
L 636.750631 128.073658 
L 635.892685 128.087722 
L 635.282759 128.088168 
L 634.412028 128.147658 
L 633.669874 128.203108 
L 632.837444 128.202665 
L 632.006033 128.239046 
L 631.305559 128.255037 
L 630.159685 128.238226 
L 629.509973 128.215561 
L 628.766714 128.236012 
L 627.673371 128.239131 
L 626.682431 128.25527 
L 626.058815 128.295522 
L 625.540523 128.309317 
L 624.634632 128.340157 
L 623.714743 128.382792 
L 623.024653 128.383868 
L 622.177102 128.368079 
L 621.353309 128.375068 
L 620.414548 128.376579 
L 619.236783 128.366701 
L 618.573132 128.345596 
L 617.762269 128.36823 
L 616.895544 128.233016 
L 615.986205 128.19184 
L 614.925754 128.234014 
L 614.212184 128.224035 
L 613.37243 128.21691 
L 612.523779 128.215388 
L 611.971646 128.22156 
L 611.034298 128.203512 
L 610.213728 128.180002 
L 609.611773 128.20972 
L 608.413806 128.179154 
L 607.363224 128.153092 
L 606.734503 128.150126 
L 605.968812 128.108675 
L 605.041941 128.03816 
L 604.386147 128.00714 
L 603.816888 127.965871 
L 602.795035 127.929846 
L 601.790672 127.903775 
L 600.920419 127.821493 
L 599.970397 127.771944 
L 599.254495 127.722167 
L 598.395632 127.682158 
L 597.555046 127.625907 
L 596.677113 127.617918 
L 595.895553 127.647097 
L 595.154766 127.512907 
L 594.329028 127.56334 
L 593.737196 127.633781 
L 593.024082 127.662816 
L 592.041164 127.56773 
L 591.004992 127.545593 
L 590.033973 127.563981 
L 589.376203 127.516719 
L 588.713247 127.502392 
L 587.742568 127.392477 
L 586.783798 127.376113 
L 585.713492 127.41162 
L 584.830304 127.378423 
L 584.121879 127.342704 
L 583.26271 127.350873 
L 582.456308 127.442516 
L 581.895186 127.353161 
L 580.914353 127.399289 
L 579.809316 127.393619 
L 579.204359 127.402009 
L 578.437574 127.513839 
L 577.510733 127.534545 
L 576.819429 127.58613 
L 576.082756 127.59516 
L 574.973852 127.726891 
L 573.97048 127.712008 
L 573.392653 127.812508 
L 572.852975 127.756733 
L 571.901792 127.766477 
L 570.943561 127.778221 
L 570.326657 127.721347 
L 569.312891 127.688886 
L 568.343568 127.518364 
L 567.622303 127.48891 
L 566.793268 127.468934 
L 566.059548 127.437493 
L 564.98594 127.363655 
L 564.116702 127.345739 
L 563.442439 127.250032 
L 562.45426 127.198545 
L 561.691257 127.141649 
L 560.871644 127.05732 
L 560.019751 127.008523 
L 559.092748 126.941707 
L 558.111784 126.936362 
L 557.252375 126.999473 
L 556.469764 127.02549 
L 555.697713 127.037632 
L 555.017968 127.02632 
L 554.104849 127.006253 
L 553.194425 126.980505 
L 552.442611 126.973722 
L 551.398576 127.027628 
L 550.740863 126.95837 
L 550.076368 127.004769 
L 549.193618 127.049463 
L 548.232101 127.213346 
L 547.173686 127.235889 
L 546.238732 127.256932 
L 545.605478 127.275721 
L 544.871802 127.280719 
L 544.188405 127.262247 
L 543.507824 127.322006 
L 542.433717 127.315992 
L 541.360249 127.295764 
L 540.425871 127.270724 
L 539.778151 127.253773 
L 539.22666 127.256248 
L 538.210992 127.208795 
L 537.279118 127.233909 
L 536.538774 127.267298 
L 535.841956 127.378251 
L 535.164267 127.448095 
L 534.158163 127.514579 
L 533.206738 127.645598 
L 532.453554 127.690107 
L 531.758705 127.843352 
L 530.834681 127.891741 
L 530.017275 127.954476 
L 529.072168 128.047763 
L 528.247979 128.075268 
L 527.580383 128.077344 
L 526.387674 128.071251 
L 525.530035 128.08327 
L 525.030391 128.056464 
L 524.18691 128.068497 
L 523.377646 128.050684 
L 522.61293 128.018165 
L 521.698833 127.977025 
L 520.960623 127.879793 
L 520.046424 127.846554 
L 518.863584 127.736032 
L 517.879253 127.589948 
L 517.293502 127.490511 
L 516.562421 127.456127 
L 515.809435 127.427491 
L 515.054128 127.370172 
L 514.010129 127.466999 
L 513.005246 127.358422 
L 512.056061 127.319397 
L 511.152374 127.328465 
L 510.302504 127.336962 
L 509.489095 127.310805 
L 508.896599 127.281758 
L 508.283551 127.245158 
L 507.198526 127.204738 
L 506.37177 127.124916 
L 505.850494 127.089376 
L 504.894942 127.06723 
L 503.968159 127.065083 
L 503.18426 127.032863 
L 502.102805 126.998039 
L 501.075351 126.993404 
L 500.207918 126.969257 
L 499.513402 126.944105 
L 498.716049 126.908349 
L 497.928658 126.847676 
L 497.06618 126.790845 
L 496.163574 126.670337 
L 495.720959 126.675232 
L 494.867489 126.575785 
L 493.670062 126.485673 
L 492.770857 126.393118 
L 492.184207 126.356763 
L 491.290688 126.291436 
L 490.418836 126.213048 
L 489.729412 126.192471 
L 488.789723 126.128238 
L 487.85107 126.016384 
L 487.176681 125.895688 
L 486.307823 125.758672 
L 485.394614 125.675887 
L 484.538113 125.511857 
L 483.709898 125.445042 
L 483.21944 125.362094 
L 482.272787 125.349679 
L 481.251976 125.234014 
L 480.569705 125.184464 
L 479.885122 125.198746 
L 479.057603 125.124064 
L 478.270017 124.945978 
L 477.448566 124.903315 
L 476.629206 124.957433 
L 475.705045 124.908073 
L 474.640105 124.888425 
L 473.8914 124.921582 
L 473.025796 124.794762 
L 471.973062 124.743729 
L 471.356067 124.750398 
L 470.788162 124.715135 
L 469.800246 124.727754 
L 468.829471 124.694096 
L 468.095223 124.691185 
L 467.284672 124.654227 
L 466.428755 124.586388 
L 465.631536 124.556855 
L 464.626546 124.498722 
L 463.877082 124.467978 
L 463.184239 124.388995 
L 462.163403 124.352006 
L 461.300297 124.355153 
L 460.434429 124.367207 
L 459.498509 124.322849 
L 458.833106 124.15948 
L 458.082555 124.062756 
L 457.256551 123.931038 
L 456.574317 123.922206 
L 455.752714 123.832046 
L 454.549783 123.911302 
L 453.534142 123.933273 
L 453.028361 123.918059 
L 452.051285 123.939598 
L 451.119556 123.915152 
L 450.349505 123.847281 
L 449.672042 123.845554 
L 448.895932 123.864601 
L 448.04065 123.803304 
L 447.224958 123.904392 
L 446.014209 123.939313 
L 445.070376 124.024981 
L 444.226574 124.052765 
L 443.436255 124.043931 
L 442.745643 123.977492 
L 441.747488 123.916699 
L 440.939232 123.866306 
L 440.386278 123.904853 
L 439.528671 123.903078 
L 438.536599 123.920783 
L 437.9206 123.893207 
L 437.243701 123.894194 
L 436.367533 123.90819 
L 435.536829 123.942233 
L 434.465273 123.961339 
L 433.728056 123.961135 
L 432.90387 124.022489 
L 431.709805 123.992277 
L 431.073576 123.991683 
L 430.214798 123.969092 
L 429.064036 123.886988 
L 428.270243 123.915776 
L 427.41593 123.879731 
L 426.661608 123.881976 
L 425.87861 123.971549 
L 425.289333 123.938289 
L 424.519408 124.049776 
L 423.646638 124.057898 
L 422.95497 124.079446 
L 421.989562 124.019504 
L 421.164393 124.026802 
L 420.484505 123.922344 
L 419.430034 123.915215 
L 418.403564 123.902943 
L 417.771914 123.951733 
L 416.798074 124.014994 
L 415.93253 124.019837 
L 415.425741 124.038069 
L 414.735496 124.036004 
L 413.519475 124.065317 
L 412.537321 124.127723 
L 411.851716 124.087792 
L 411.053457 124.134021 
L 410.106432 124.15427 
L 409.172931 124.124861 
L 408.678127 124.138751 
L 407.981956 124.107838 
L 406.928372 124.178993 
L 405.952741 124.195166 
L 404.968559 124.192416 
L 404.171579 124.196338 
L 403.621646 124.15027 
L 402.67452 124.121018 
L 401.55849 124.044976 
L 400.992217 124.025565 
L 400.27712 123.944166 
L 399.132598 123.914978 
L 398.143374 123.902894 
L 397.474529 123.85572 
L 396.741682 123.813447 
L 395.680766 123.754348 
L 394.86181 123.79675 
L 394.157832 123.734979 
L 393.495824 123.661996 
L 392.743191 123.593616 
L 391.878383 123.502911 
L 390.978682 123.266456 
L 389.973293 123.078908 
L 389.097299 122.965836 
L 388.512776 122.766625 
L 387.729229 122.650784 
L 386.816225 122.585591 
L 385.981905 122.461703 
L 384.909063 122.347895 
L 384.138581 122.259596 
L 383.283627 122.128376 
L 382.375156 122.070601 
L 381.538685 122.034876 
L 380.729292 122.044636 
L 380.196085 122.026301 
L 379.371248 121.975911 
L 378.234406 122.011096 
L 377.543446 121.964979 
L 376.921638 121.861648 
L 375.809699 121.827965 
L 375.024953 121.710865 
L 374.465236 121.671837 
L 373.607733 121.614294 
L 372.46572 121.53687 
L 371.520187 121.386228 
L 370.625512 121.267526 
L 369.942572 121.126267 
L 369.352967 121.058419 
L 368.333943 120.951627 
L 367.445312 120.830189 
L 366.555585 120.696516 
L 365.797272 120.589958 
L 365.069036 120.403112 
L 363.94724 120.356015 
L 363.299536 120.27644 
L 362.71913 120.285978 
L 361.774192 120.310139 
L 360.817487 120.388291 
L 359.987575 120.404199 
L 359.099266 120.293339 
L 358.212651 120.267915 
L 357.58995 120.256775 
L 356.882745 120.217279 
L 355.830347 120.095044 
L 354.687292 120.064371 
L 354.01719 120.028762 
L 353.136335 119.914964 
L 352.161615 119.820771 
L 351.512231 119.782115 
L 350.607315 119.723014 
L 349.688363 119.660363 
L 348.880058 119.649993 
L 348.022386 119.646839 
L 347.166004 119.537366 
L 346.414988 119.413882 
L 345.837236 119.256989 
L 345.053745 119.180655 
L 343.914946 119.204058 
L 342.897086 118.828687 
L 342.338225 118.587628 
L 341.746276 118.461385 
L 340.763825 118.404386 
L 339.994112 118.17656 
L 339.062979 118.085462 
L 338.024072 117.833182 
L 337.281295 117.731576 
L 336.425837 117.646721 
L 335.579608 117.461531 
L 334.941236 117.474943 
L 334.260344 117.350423 
L 333.162122 117.289303 
L 332.041031 117.284554 
L 331.170153 117.329623 
L 330.476895 117.262948 
L 329.739338 117.20093 
L 329.081924 117.030779 
L 328.18346 117.077234 
L 327.0545 117.072226 
L 326.244663 117.065925 
L 325.517654 116.99139 
L 324.583277 116.98446 
L 323.849496 117.002694 
L 323.036467 116.909697 
L 322.281346 117.057906 
L 321.43885 116.994206 
L 320.562585 116.976523 
L 319.838962 117.027411 
L 318.72844 116.923011 
L 317.971606 116.894542 
L 317.183103 117.060097 
L 316.182901 117.044546 
L 315.314693 117.150107 
L 314.576091 117.055578 
L 313.943882 116.976334 
L 313.132775 116.895974 
L 312.088436 116.809286 
L 311.252264 116.651695 
L 310.706614 116.561434 
L 310.039011 116.471527 
L 309.169915 116.442719 
L 308.193763 116.425049 
L 307.308732 116.251138 
L 306.257915 116.180491 
L 305.346552 116.185214 
L 304.765754 116.125547 
L 303.96005 116.028148 
L 303.079115 115.988796 
L 302.068156 115.838285 
L 301.285975 115.697858 
L 300.817941 115.622387 
L 299.972039 115.500984 
L 299.097547 115.504542 
L 298.383076 115.484277 
L 297.201934 115.360669 
L 296.01172 115.203116 
L 295.569703 115.140876 
L 294.981118 115.057709 
L 293.728538 114.921764 
L 292.782236 114.724323 
L 292.145023 114.530566 
L 291.440389 114.498665 
L 290.546139 114.357441 
L 289.770374 114.280716 
L 289.09543 114.060995 
L 287.879582 113.90503 
L 286.924579 113.792421 
L 286.306934 113.725453 
L 285.505421 113.676764 
L 284.722551 113.607594 
L 284.044139 113.582344 
L 282.935573 113.43583 
L 281.855052 113.356914 
L 281.244529 113.21871 
L 280.420209 113.132044 
L 279.583849 113.030359 
L 278.807675 112.895393 
L 277.972697 112.786334 
L 277.181914 112.470461 
L 276.26664 112.295232 
L 275.314815 112.218401 
L 274.33418 112.181434 
L 273.598973 111.87467 
L 272.790688 111.775983 
L 271.8151 111.612019 
L 271.13013 111.471798 
L 270.481548 111.244557 
L 269.688459 111.207506 
L 268.745543 111.24709 
L 267.864107 111.180437 
L 267.211246 111.093366 
L 266.217809 111.014017 
L 265.328927 111.001464 
L 264.827693 110.920364 
L 263.88397 110.860866 
L 262.865642 110.757619 
L 262.07848 110.697448 
L 261.156552 110.808314 
L 260.224073 110.69474 
L 259.553193 110.664901 
L 258.614258 110.477221 
L 257.598897 110.311019 
L 256.833793 110.166355 
L 256.04963 109.952311 
L 255.477162 109.888694 
L 254.8878 109.806358 
L 254.040196 109.634538 
L 253.168553 109.581211 
L 252.322673 109.478283 
L 251.545605 109.351516 
L 250.568355 109.183338 
L 249.595916 109.169669 
L 248.797905 108.997497 
L 247.887525 108.939164 
L 246.803639 108.702145 
L 246.083312 108.551004 
L 245.574298 108.363168 
L 244.795154 108.286046 
L 243.867645 108.120405 
L 242.843961 108.095946 
L 241.884111 107.994529 
L 241.003899 107.84346 
L 240.292472 107.671574 
L 239.719105 107.610386 
L 238.884007 107.506293 
L 237.840571 107.481585 
L 236.970833 107.311142 
L 236.309667 107.046126 
L 235.45988 106.932507 
L 234.620077 106.887471 
L 233.633492 106.80475 
L 232.776258 106.689907 
L 231.957569 106.551127 
L 230.948752 106.393416 
L 230.0706 106.153032 
L 229.323144 105.900905 
L 228.517369 105.830814 
L 227.646675 105.599565 
L 227.052173 105.466431 
L 226.277397 105.314131 
L 225.140411 105.190669 
L 224.055584 105.094487 
L 223.246935 105.026839 
L 222.416227 104.975213 
L 221.880102 104.931569 
L 221.208855 104.715123 
L 220.424382 104.338604 
L 219.666096 104.271467 
L 218.631978 104.14242 
L 217.67307 103.963084 
L 216.719659 103.792607 
L 216.092673 103.591912 
L 215.478256 103.451696 
L 214.489279 103.265511 
L 213.542808 103.120573 
L 212.460944 103.096641 
L 211.467193 102.967482 
L 210.803324 102.814761 
L 210.077638 102.586143 
L 209.314045 102.496973 
L 208.322449 102.341442 
L 207.642943 102.24089 
L 206.824529 102.003854 
L 205.620227 101.818298 
L 204.824494 101.632966 
L 204.350292 101.441201 
L 203.518562 101.235831 
L 202.455952 101.001986 
L 201.937875 100.8174 
L 201.113067 100.630954 
L 200.252429 100.41852 
L 199.389821 100.053663 
L 198.335913 99.812152 
L 197.731419 99.581804 
L 196.758666 99.359758 
L 195.794867 99.292826 
L 195.183411 99.225549 
L 194.29874 99.087995 
L 193.319826 98.856185 
L 192.302741 98.685041 
L 191.584875 98.513094 
L 190.926482 98.312691 
L 190.278102 98.182599 
L 189.22386 98.005608 
L 188.388427 97.85009 
L 187.572016 97.82129 
L 186.680062 97.634824 
L 186.197159 97.613406 
L 185.166587 97.343048 
L 184.150102 97.23151 
L 183.170032 96.886867 
L 182.44174 96.703306 
L 181.831006 96.413757 
L 180.883107 96.192327 
L 179.936795 96.077618 
L 178.939148 95.822389 
L 178.363408 95.715182 
L 177.774965 95.519151 
L 176.557838 95.155598 
L 175.598654 94.680324 
L 174.982295 94.403773 
L 174.097904 94.175588 
L 173.351872 93.921455 
L 172.782832 93.674752 
L 171.781716 93.473885 
L 170.666874 93.191757 
L 169.82372 92.790565 
L 169.264155 92.39448 
L 168.426306 92.19907 
L 167.622529 91.959332 
L 166.653754 91.810455 
L 165.650657 91.730703 
L 164.939563 91.628486 
L 164.045617 91.49096 
L 163.118966 91.304751 
L 162.39667 91.11118 
L 161.761163 90.889305 
L 160.826221 90.583971 
L 159.943609 90.419684 
L 159.250419 90.251397 
L 158.199709 90.091847 
L 157.163927 89.794775 
L 156.628141 89.594243 
L 155.831056 89.301367 
L 155.011178 88.941429 
L 154.143578 88.574043 
L 153.270839 88.432641 
L 152.485716 88.255021 
L 151.607135 88.064995 
L 150.874041 87.785539 
L 149.819785 87.544709 
L 148.850478 87.304988 
L 148.285094 87.213702 
L 147.561009 86.964848 
L 146.810101 86.698741 
L 146.090453 86.271087 
L 145.110252 86.059541 
L 144.048376 85.84675 
L 143.19137 85.653562 
L 142.319889 85.307477 
L 141.541309 85.136575 
L 140.699049 84.745122 
L 139.780468 84.312923 
L 139.144456 83.960688 
L 138.480682 83.665044 
L 137.621304 83.244771 
L 136.790365 82.855771 
L 135.937428 82.617166 
L 134.784696 82.319113 
L 133.922248 81.787453 
L 133.089289 81.396752 
L 132.302111 81.109801 
L 131.588365 80.529492 
L 130.517284 80.504291 
L 129.859809 80.029779 
L 129.087957 79.685768 
L 128.072539 79.444559 
L 127.184322 79.12393 
L 126.285799 78.927052 
L 125.50097 78.789533 
L 124.61663 78.746366 
L 123.905512 78.61055 
L 123.265339 78.5508 
L 122.386895 78.576709 
L 121.342256 78.506461 
L 120.550982 78.304396 
L 119.651597 78.348527 
L 118.512381 78.18126 
L 117.691519 78.034394 
L 117.100612 77.831427 
L 116.412072 77.55763 
L 115.403734 76.948396 
L 114.417897 76.517134 
L 113.60206 76.042272 
L 112.961451 75.502431 
L 112.111848 75.311958 
L 111.13743 75.132847 
L 110.295452 75.073723 
L 109.465573 74.893475 
L 108.858176 75.015359 
L 107.942084 74.8808 
L 106.977296 74.945581 
L 106.476722 74.926218 
L 105.662817 74.679508 
L 104.876018 74.516075 
L 103.902852 74.345603 
L 102.833196 74.407648 
L 102.341847 74.546986 
L 101.575298 74.689165 
L 100.374963 74.840816 
L 99.338919 75.004034 
L 98.599586 75.140301 
L 97.861292 75.362245 
L 97.1467 75.650906 
L 96.309679 75.941185 
L 95.304524 75.95383 
L 94.584977 76.238731 
L 93.929525 76.358232 
L 93.083114 76.472007 
L 92.141822 76.591922 
L 91.288183 76.780395 
L 90.63132 76.993771 
L 89.866652 77.238768 
L 88.716543 77.393516 
L 87.627032 77.675534 
L 86.960312 78.120354 
L 86.124605 78.478812 
L 85.400074 78.875939 
L 84.679586 79.191485 
L 83.765206 79.538994 
L 83.171712 79.840971 
L 82.346291 80.096296 
L 81.488315 80.464565 
L 80.642065 80.671399 
L 79.468235 80.791972 
L 78.665803 80.847504 
L 77.874365 81.117184 
L 77.159086 81.154303 
L 76.346636 81.224724 
L 75.447128 81.315253 
L 74.659111 81.371108 
L 73.659334 81.397581 
L 72.880596 81.482659 
L 71.990551 81.58255 
L 70.951539 81.729278 
L 70.074316 81.8501 
L 69.234586 81.817741 
L 68.433147 81.907464 
L 67.921458 81.847981 
L 67.340034 81.730485 
L 66.243024 81.466196 
L 65.229587 81.364467 
L 64.498402 81.280774 
L 63.695098 81.326611 
L 62.999146 81.522052 
L 62.026982 81.675013 
L 61.14291 81.734511 
L 60.60565 81.69251 
L 59.724626 81.663764 
L 58.485143 81.650308 
L 57.783161 81.566704 
L 56.951037 81.385518 
L 55.815548 81.22863 
L 55.052367 81.219213 
L 54.375771 81.02265 
L 53.589293 80.871553 
L 52.517462 80.98098 
L 51.82572 81.11203 
L 51.260518 81.129019 
L 50.391299 81.098392 
L 49.516404 81.096672 
L 48.799881 80.863594 
L 48.082252 80.447146 
L 47.211708 79.828319 
L 46.398053 78.046434 
L 45.359537 76.755416 
L 44.227615 77.338014 
z
" clip-path="url(#p3c25697f79)" style="fill: #808080; fill-opacity: 0.5; stroke: #808080; stroke-opacity: 0.5"/>
   </g>
   <g id="line2d_29">
    <path d="M 44.227615 83.20871 
L 45.359537 82.079326 
L 46.398053 82.127645 
L 47.211708 83.251138 
L 48.082252 83.705046 
L 48.799881 84.250788 
L 49.516404 84.523218 
L 51.260518 84.392603 
L 51.82572 84.101844 
L 52.517462 83.94076 
L 53.589293 83.837336 
L 55.052367 84.11729 
L 55.815548 84.075454 
L 60.60565 84.41166 
L 62.026982 84.285567 
L 64.498402 83.911327 
L 67.340034 84.181404 
L 67.921458 84.32761 
L 70.951539 84.256802 
L 73.659334 84.120075 
L 76.346636 84.077688 
L 77.874365 83.930758 
L 78.665803 83.736816 
L 79.468235 83.737905 
L 81.488315 83.437426 
L 85.400074 82.27316 
L 88.716543 81.431562 
L 90.63132 81.244353 
L 92.141822 80.982074 
L 94.584977 80.824878 
L 95.304524 80.659497 
L 96.309679 80.647598 
L 99.338919 80.070396 
L 103.902852 79.735418 
L 105.662817 79.896765 
L 106.977296 80.054419 
L 110.295452 80.225904 
L 112.111848 80.438547 
L 112.961451 80.57516 
L 113.60206 80.916962 
L 117.691519 82.269986 
L 121.342256 82.730504 
L 123.905512 82.995822 
L 125.50097 83.277348 
L 127.184322 83.542703 
L 129.859809 84.204847 
L 130.517284 84.48786 
L 131.588365 84.5794 
L 133.089289 85.125036 
L 133.922248 85.400979 
L 134.784696 85.82482 
L 137.621304 86.525446 
L 139.780468 87.382617 
L 142.319889 88.258032 
L 144.048376 88.728401 
L 146.090453 89.196067 
L 148.285094 89.936192 
L 149.819785 90.181627 
L 152.485716 90.863968 
L 153.270839 91.168974 
L 155.831056 91.846673 
L 163.118966 93.764307 
L 169.264155 94.757059 
L 169.82372 95.039918 
L 170.666874 95.307483 
L 173.351872 95.924758 
L 176.557838 96.880669 
L 178.363408 97.571438 
L 178.939148 97.830076 
L 180.883107 98.330759 
L 182.44174 98.799183 
L 184.150102 99.386266 
L 185.166587 99.543701 
L 190.278102 101.033835 
L 191.584875 101.368539 
L 192.302741 101.602233 
L 195.183411 102.100296 
L 195.794867 102.326695 
L 197.731419 102.475667 
L 198.335913 102.705758 
L 201.113067 103.096084 
L 203.518562 103.361221 
L 204.350292 103.507147 
L 204.824494 103.724046 
L 210.803324 104.429013 
L 211.467193 104.698618 
L 214.489279 105.074733 
L 216.092673 105.391394 
L 218.631978 106.008896 
L 221.208855 106.559114 
L 222.416227 106.879682 
L 229.323144 108.027518 
L 231.957569 108.586008 
L 235.45988 109.110538 
L 243.867645 109.925937 
L 246.803639 110.369387 
L 247.887525 110.600732 
L 250.568355 110.804975 
L 255.477162 111.404767 
L 257.598897 111.803191 
L 258.614258 111.93448 
L 260.224073 112.268214 
L 261.156552 112.319331 
L 262.07848 112.240508 
L 267.211246 112.566155 
L 267.864107 112.482388 
L 270.481548 112.594135 
L 271.8151 112.842905 
L 273.598973 113.063334 
L 274.33418 113.295651 
L 282.935573 114.863002 
L 287.879582 115.627457 
L 291.440389 116.126451 
L 292.782236 116.405089 
L 293.728538 116.589514 
L 296.01172 116.814143 
L 300.817941 117.458279 
L 302.068156 117.697687 
L 305.346552 117.805573 
L 307.308732 117.876926 
L 308.193763 117.983723 
L 310.039011 118.05238 
L 313.943882 118.504961 
L 316.182901 118.495117 
L 317.971606 118.563797 
L 319.838962 118.771011 
L 321.43885 118.76831 
L 324.583277 118.849848 
L 337.281295 119.55181 
L 339.994112 119.925476 
L 342.897086 120.505166 
L 343.914946 120.818895 
L 345.053745 120.831709 
L 348.880058 121.394244 
L 351.512231 121.562248 
L 354.687292 121.820326 
L 357.58995 121.947929 
L 359.987575 122.088148 
L 362.71913 122.001618 
L 363.299536 121.961101 
L 375.809699 123.673823 
L 383.283627 123.99399 
L 384.909063 124.196775 
L 388.512776 124.548764 
L 389.973293 124.83536 
L 394.86181 125.590271 
L 397.474529 125.682237 
L 400.27712 125.791383 
L 404.968559 125.922966 
L 420.484505 125.256267 
L 421.989562 125.388886 
L 441.747488 125.413299 
L 445.070376 125.542212 
L 448.04065 125.440749 
L 452.051285 125.708039 
L 453.534142 125.607301 
L 458.082555 125.738367 
L 460.434429 125.946496 
L 463.877082 126.064104 
L 471.973062 126.29933 
L 478.270017 126.505374 
L 480.569705 126.711198 
L 484.538113 127.093527 
L 488.789723 127.771523 
L 501.075351 128.87986 
L 503.968159 128.955931 
L 506.37177 129.038649 
L 508.896599 129.223454 
L 512.056061 129.336588 
L 514.010129 129.496614 
L 515.809435 129.512362 
L 522.61293 130.09311 
L 525.030391 130.149917 
L 535.841956 129.67653 
L 537.279118 129.591357 
L 541.360249 129.664421 
L 559.092748 129.083537 
L 571.901792 129.69724 
L 576.082756 129.619319 
L 578.437574 129.513346 
L 579.809316 129.432095 
L 587.742568 129.496821 
L 613.37243 130.560078 
L 616.735937 130.584103 
L 616.735937 130.584103 
" clip-path="url(#p3c25697f79)" style="fill: none; stroke: #1f77b4; stroke-width: 1.5; stroke-linecap: round"/>
   </g>
   <g id="patch_3">
    <path d="M 43.585938 243.549375 
L 43.585938 21.789375 
" style="fill: none; stroke: #cccccc; stroke-linejoin: miter; stroke-linecap: square"/>
   </g>
   <g id="patch_4">
    <path d="M 601.585938 243.549375 
L 601.585938 21.789375 
" style="fill: none; stroke: #cccccc; stroke-linejoin: miter; stroke-linecap: square"/>
   </g>
   <g id="patch_5">
    <path d="M 43.585938 243.549375 
L 601.585938 243.549375 
" style="fill: none; stroke: #cccccc; stroke-linejoin: miter; stroke-linecap: square"/>
   </g>
   <g id="patch_6">
    <path d="M 43.585938 21.789375 
L 601.585938 21.789375 
" style="fill: none; stroke: #cccccc; stroke-linejoin: miter; stroke-linecap: square"/>
   </g>
   <g id="text_17">
    <!-- whale hunt -->
    <g style="fill: #262626" transform="translate(293.566562 15.789375) scale(0.12 -0.12)">
     <defs>
      <path id="ArialMT-20" transform="scale(0.015625)"/>
     </defs>
     <use xlink:href="#ArialMT-77"/>
     <use xlink:href="#ArialMT-68" transform="translate(72.216797 0)"/>
     <use xlink:href="#ArialMT-61" transform="translate(127.832031 0)"/>
     <use xlink:href="#ArialMT-6c" transform="translate(183.447266 0)"/>
     <use xlink:href="#ArialMT-65" transform="translate(205.664062 0)"/>
     <use xlink:href="#ArialMT-20" transform="translate(261.279297 0)"/>
     <use xlink:href="#ArialMT-68" transform="translate(289.0625 0)"/>
     <use xlink:href="#ArialMT-75" transform="translate(344.677734 0)"/>
     <use xlink:href="#ArialMT-6e" transform="translate(400.292969 0)"/>
     <use xlink:href="#ArialMT-74" transform="translate(455.908203 0)"/>
    </g>
   </g>
  </g>
 </g>
 <defs>
  <clipPath id="p3c25697f79">
   <rect x="43.585938" y="21.789375" width="558" height="221.76"/>
  </clipPath>
 </defs>
</svg>
