<?xml version="1.0" encoding="utf-8" standalone="no"?>
<!DOCTYPE svg PUBLIC "-//W3C//DTD SVG 1.1//EN"
  "http://www.w3.org/Graphics/SVG/1.1/DTD/svg11.dtd">
<svg xmlns:xlink="http://www.w3.org/1999/xlink" width="615.735937pt" height="276.657188pt" viewBox="0 0 615.735937 276.657188" xmlns="http://www.w3.org/2000/svg" version="1.1">
 <metadata>
  <rdf:RDF xmlns:dc="http://purl.org/dc/elements/1.1/" xmlns:cc="http://creativecommons.org/ns#" xmlns:rdf="http://www.w3.org/1999/02/22-rdf-syntax-ns#">
   <cc:Work>
    <dc:type rdf:resource="http://purl.org/dc/dcmitype/StillImage"/>
    <dc:date>2025-05-12T17:00:17.704046</dc:date>
    <dc:format>image/svg+xml</dc:format>
    <dc:creator>
     <cc:Agent>
      <dc:title>Matplotlib v3.10.0, https://matplotlib.org/</dc:title>
     </cc:Agent>
    </dc:creator>
   </cc:Work>
  </rdf:RDF>
 </metadata>
 <defs>
  <style type="text/css">*{stroke-linejoin: round; stroke-linecap: butt}</style>
 </defs>
 <g id="figure_1">
  <g id="patch_1">
   <path d="M -0 276.657188 
L 615.735937 276.657188 
L 615.735937 0 
L -0 0 
z
" style="fill: #ffffff"/>
  </g>
  <g id="axes_1">
   <g id="patch_2">
    <path d="M 43.585938 243.549375 
L 601.585938 243.549375 
L 601.585938 21.789375 
L 43.585938 21.789375 
z
" style="fill: #ffffff"/>
   </g>
   <g id="matplotlib.axis_1">
    <g id="xtick_1">
     <g id="line2d_1">
      <path d="M 43.585938 243.549375 
L 43.585938 21.789375 
" clip-path="url(#p656d85c308)" style="fill: none; stroke: #cccccc; stroke-width: 0.8; stroke-linecap: round"/>
     </g>
     <g id="line2d_2"/>
     <g id="text_1">
      <!-- 0.0 -->
      <g style="fill: #262626" transform="translate(36.635937 254.207188) scale(0.1 -0.1)">
       <defs>
        <path id="ArialMT-30" d="M 266 2259 
Q 266 3072 433 3567 
Q 600 4063 929 4331 
Q 1259 4600 1759 4600 
Q 2128 4600 2406 4451 
Q 2684 4303 2865 4023 
Q 3047 3744 3150 3342 
Q 3253 2941 3253 2259 
Q 3253 1453 3087 958 
Q 2922 463 2592 192 
Q 2263 -78 1759 -78 
Q 1097 -78 719 397 
Q 266 969 266 2259 
z
M 844 2259 
Q 844 1131 1108 757 
Q 1372 384 1759 384 
Q 2147 384 2411 759 
Q 2675 1134 2675 2259 
Q 2675 3391 2411 3762 
Q 2147 4134 1753 4134 
Q 1366 4134 1134 3806 
Q 844 3388 844 2259 
z
" transform="scale(0.015625)"/>
        <path id="ArialMT-2e" d="M 581 0 
L 581 641 
L 1222 641 
L 1222 0 
L 581 0 
z
" transform="scale(0.015625)"/>
       </defs>
       <use xlink:href="#ArialMT-30"/>
       <use xlink:href="#ArialMT-2e" transform="translate(55.615234 0)"/>
       <use xlink:href="#ArialMT-30" transform="translate(83.398438 0)"/>
      </g>
     </g>
    </g>
    <g id="xtick_2">
     <g id="line2d_3">
      <path d="M 155.185938 243.549375 
L 155.185938 21.789375 
" clip-path="url(#p656d85c308)" style="fill: none; stroke: #cccccc; stroke-width: 0.8; stroke-linecap: round"/>
     </g>
     <g id="line2d_4"/>
     <g id="text_2">
      <!-- 0.2 -->
      <g style="fill: #262626" transform="translate(148.235938 254.207188) scale(0.1 -0.1)">
       <defs>
        <path id="ArialMT-32" d="M 3222 541 
L 3222 0 
L 194 0 
Q 188 203 259 391 
Q 375 700 629 1000 
Q 884 1300 1366 1694 
Q 2113 2306 2375 2664 
Q 2638 3022 2638 3341 
Q 2638 3675 2398 3904 
Q 2159 4134 1775 4134 
Q 1369 4134 1125 3890 
Q 881 3647 878 3216 
L 300 3275 
Q 359 3922 746 4261 
Q 1134 4600 1788 4600 
Q 2447 4600 2831 4234 
Q 3216 3869 3216 3328 
Q 3216 3053 3103 2787 
Q 2991 2522 2730 2228 
Q 2469 1934 1863 1422 
Q 1356 997 1212 845 
Q 1069 694 975 541 
L 3222 541 
z
" transform="scale(0.015625)"/>
       </defs>
       <use xlink:href="#ArialMT-30"/>
       <use xlink:href="#ArialMT-2e" transform="translate(55.615234 0)"/>
       <use xlink:href="#ArialMT-32" transform="translate(83.398438 0)"/>
      </g>
     </g>
    </g>
    <g id="xtick_3">
     <g id="line2d_5">
      <path d="M 266.785938 243.549375 
L 266.785938 21.789375 
" clip-path="url(#p656d85c308)" style="fill: none; stroke: #cccccc; stroke-width: 0.8; stroke-linecap: round"/>
     </g>
     <g id="line2d_6"/>
     <g id="text_3">
      <!-- 0.4 -->
      <g style="fill: #262626" transform="translate(259.835938 254.207188) scale(0.1 -0.1)">
       <defs>
        <path id="ArialMT-34" d="M 2069 0 
L 2069 1097 
L 81 1097 
L 81 1613 
L 2172 4581 
L 2631 4581 
L 2631 1613 
L 3250 1613 
L 3250 1097 
L 2631 1097 
L 2631 0 
L 2069 0 
z
M 2069 1613 
L 2069 3678 
L 634 1613 
L 2069 1613 
z
" transform="scale(0.015625)"/>
       </defs>
       <use xlink:href="#ArialMT-30"/>
       <use xlink:href="#ArialMT-2e" transform="translate(55.615234 0)"/>
       <use xlink:href="#ArialMT-34" transform="translate(83.398438 0)"/>
      </g>
     </g>
    </g>
    <g id="xtick_4">
     <g id="line2d_7">
      <path d="M 378.385938 243.549375 
L 378.385938 21.789375 
" clip-path="url(#p656d85c308)" style="fill: none; stroke: #cccccc; stroke-width: 0.8; stroke-linecap: round"/>
     </g>
     <g id="line2d_8"/>
     <g id="text_4">
      <!-- 0.6 -->
      <g style="fill: #262626" transform="translate(371.435938 254.207188) scale(0.1 -0.1)">
       <defs>
        <path id="ArialMT-36" d="M 3184 3459 
L 2625 3416 
Q 2550 3747 2413 3897 
Q 2184 4138 1850 4138 
Q 1581 4138 1378 3988 
Q 1113 3794 959 3422 
Q 806 3050 800 2363 
Q 1003 2672 1297 2822 
Q 1591 2972 1913 2972 
Q 2475 2972 2870 2558 
Q 3266 2144 3266 1488 
Q 3266 1056 3080 686 
Q 2894 316 2569 119 
Q 2244 -78 1831 -78 
Q 1128 -78 684 439 
Q 241 956 241 2144 
Q 241 3472 731 4075 
Q 1159 4600 1884 4600 
Q 2425 4600 2770 4297 
Q 3116 3994 3184 3459 
z
M 888 1484 
Q 888 1194 1011 928 
Q 1134 663 1356 523 
Q 1578 384 1822 384 
Q 2178 384 2434 671 
Q 2691 959 2691 1453 
Q 2691 1928 2437 2201 
Q 2184 2475 1800 2475 
Q 1419 2475 1153 2201 
Q 888 1928 888 1484 
z
" transform="scale(0.015625)"/>
       </defs>
       <use xlink:href="#ArialMT-30"/>
       <use xlink:href="#ArialMT-2e" transform="translate(55.615234 0)"/>
       <use xlink:href="#ArialMT-36" transform="translate(83.398438 0)"/>
      </g>
     </g>
    </g>
    <g id="xtick_5">
     <g id="line2d_9">
      <path d="M 489.985938 243.549375 
L 489.985938 21.789375 
" clip-path="url(#p656d85c308)" style="fill: none; stroke: #cccccc; stroke-width: 0.8; stroke-linecap: round"/>
     </g>
     <g id="line2d_10"/>
     <g id="text_5">
      <!-- 0.8 -->
      <g style="fill: #262626" transform="translate(483.035938 254.207188) scale(0.1 -0.1)">
       <defs>
        <path id="ArialMT-38" d="M 1131 2484 
Q 781 2613 612 2850 
Q 444 3088 444 3419 
Q 444 3919 803 4259 
Q 1163 4600 1759 4600 
Q 2359 4600 2725 4251 
Q 3091 3903 3091 3403 
Q 3091 3084 2923 2848 
Q 2756 2613 2416 2484 
Q 2838 2347 3058 2040 
Q 3278 1734 3278 1309 
Q 3278 722 2862 322 
Q 2447 -78 1769 -78 
Q 1091 -78 675 323 
Q 259 725 259 1325 
Q 259 1772 486 2073 
Q 713 2375 1131 2484 
z
M 1019 3438 
Q 1019 3113 1228 2906 
Q 1438 2700 1772 2700 
Q 2097 2700 2305 2904 
Q 2513 3109 2513 3406 
Q 2513 3716 2298 3927 
Q 2084 4138 1766 4138 
Q 1444 4138 1231 3931 
Q 1019 3725 1019 3438 
z
M 838 1322 
Q 838 1081 952 856 
Q 1066 631 1291 507 
Q 1516 384 1775 384 
Q 2178 384 2440 643 
Q 2703 903 2703 1303 
Q 2703 1709 2433 1975 
Q 2163 2241 1756 2241 
Q 1359 2241 1098 1978 
Q 838 1716 838 1322 
z
" transform="scale(0.015625)"/>
       </defs>
       <use xlink:href="#ArialMT-30"/>
       <use xlink:href="#ArialMT-2e" transform="translate(55.615234 0)"/>
       <use xlink:href="#ArialMT-38" transform="translate(83.398438 0)"/>
      </g>
     </g>
    </g>
    <g id="xtick_6">
     <g id="line2d_11">
      <path d="M 601.585938 243.549375 
L 601.585938 21.789375 
" clip-path="url(#p656d85c308)" style="fill: none; stroke: #cccccc; stroke-width: 0.8; stroke-linecap: round"/>
     </g>
     <g id="line2d_12"/>
     <g id="text_6">
      <!-- 1.0 -->
      <g style="fill: #262626" transform="translate(594.635937 254.207188) scale(0.1 -0.1)">
       <defs>
        <path id="ArialMT-31" d="M 2384 0 
L 1822 0 
L 1822 3584 
Q 1619 3391 1289 3197 
Q 959 3003 697 2906 
L 697 3450 
Q 1169 3672 1522 3987 
Q 1875 4303 2022 4600 
L 2384 4600 
L 2384 0 
z
" transform="scale(0.015625)"/>
       </defs>
       <use xlink:href="#ArialMT-31"/>
       <use xlink:href="#ArialMT-2e" transform="translate(55.615234 0)"/>
       <use xlink:href="#ArialMT-30" transform="translate(83.398438 0)"/>
      </g>
     </g>
    </g>
    <g id="text_7">
     <!-- whaling-harm-prob -->
     <g style="fill: #262626" transform="translate(280.904688 267.3525) scale(0.1 -0.1)">
      <defs>
       <path id="ArialMT-77" d="M 1034 0 
L 19 3319 
L 600 3319 
L 1128 1403 
L 1325 691 
Q 1338 744 1497 1375 
L 2025 3319 
L 2603 3319 
L 3100 1394 
L 3266 759 
L 3456 1400 
L 4025 3319 
L 4572 3319 
L 3534 0 
L 2950 0 
L 2422 1988 
L 2294 2553 
L 1622 0 
L 1034 0 
z
" transform="scale(0.015625)"/>
       <path id="ArialMT-68" d="M 422 0 
L 422 4581 
L 984 4581 
L 984 2938 
Q 1378 3394 1978 3394 
Q 2347 3394 2619 3248 
Q 2891 3103 3008 2847 
Q 3125 2591 3125 2103 
L 3125 0 
L 2563 0 
L 2563 2103 
Q 2563 2525 2380 2717 
Q 2197 2909 1863 2909 
Q 1613 2909 1392 2779 
Q 1172 2650 1078 2428 
Q 984 2206 984 1816 
L 984 0 
L 422 0 
z
" transform="scale(0.015625)"/>
       <path id="ArialMT-61" d="M 2588 409 
Q 2275 144 1986 34 
Q 1697 -75 1366 -75 
Q 819 -75 525 192 
Q 231 459 231 875 
Q 231 1119 342 1320 
Q 453 1522 633 1644 
Q 813 1766 1038 1828 
Q 1203 1872 1538 1913 
Q 2219 1994 2541 2106 
Q 2544 2222 2544 2253 
Q 2544 2597 2384 2738 
Q 2169 2928 1744 2928 
Q 1347 2928 1158 2789 
Q 969 2650 878 2297 
L 328 2372 
Q 403 2725 575 2942 
Q 747 3159 1072 3276 
Q 1397 3394 1825 3394 
Q 2250 3394 2515 3294 
Q 2781 3194 2906 3042 
Q 3031 2891 3081 2659 
Q 3109 2516 3109 2141 
L 3109 1391 
Q 3109 606 3145 398 
Q 3181 191 3288 0 
L 2700 0 
Q 2613 175 2588 409 
z
M 2541 1666 
Q 2234 1541 1622 1453 
Q 1275 1403 1131 1340 
Q 988 1278 909 1158 
Q 831 1038 831 891 
Q 831 666 1001 516 
Q 1172 366 1500 366 
Q 1825 366 2078 508 
Q 2331 650 2450 897 
Q 2541 1088 2541 1459 
L 2541 1666 
z
" transform="scale(0.015625)"/>
       <path id="ArialMT-6c" d="M 409 0 
L 409 4581 
L 972 4581 
L 972 0 
L 409 0 
z
" transform="scale(0.015625)"/>
       <path id="ArialMT-69" d="M 425 3934 
L 425 4581 
L 988 4581 
L 988 3934 
L 425 3934 
z
M 425 0 
L 425 3319 
L 988 3319 
L 988 0 
L 425 0 
z
" transform="scale(0.015625)"/>
       <path id="ArialMT-6e" d="M 422 0 
L 422 3319 
L 928 3319 
L 928 2847 
Q 1294 3394 1984 3394 
Q 2284 3394 2536 3286 
Q 2788 3178 2913 3003 
Q 3038 2828 3088 2588 
Q 3119 2431 3119 2041 
L 3119 0 
L 2556 0 
L 2556 2019 
Q 2556 2363 2490 2533 
Q 2425 2703 2258 2804 
Q 2091 2906 1866 2906 
Q 1506 2906 1245 2678 
Q 984 2450 984 1813 
L 984 0 
L 422 0 
z
" transform="scale(0.015625)"/>
       <path id="ArialMT-67" d="M 319 -275 
L 866 -356 
Q 900 -609 1056 -725 
Q 1266 -881 1628 -881 
Q 2019 -881 2231 -725 
Q 2444 -569 2519 -288 
Q 2563 -116 2559 434 
Q 2191 0 1641 0 
Q 956 0 581 494 
Q 206 988 206 1678 
Q 206 2153 378 2554 
Q 550 2956 876 3175 
Q 1203 3394 1644 3394 
Q 2231 3394 2613 2919 
L 2613 3319 
L 3131 3319 
L 3131 450 
Q 3131 -325 2973 -648 
Q 2816 -972 2473 -1159 
Q 2131 -1347 1631 -1347 
Q 1038 -1347 672 -1080 
Q 306 -813 319 -275 
z
M 784 1719 
Q 784 1066 1043 766 
Q 1303 466 1694 466 
Q 2081 466 2343 764 
Q 2606 1063 2606 1700 
Q 2606 2309 2336 2618 
Q 2066 2928 1684 2928 
Q 1309 2928 1046 2623 
Q 784 2319 784 1719 
z
" transform="scale(0.015625)"/>
       <path id="ArialMT-2d" d="M 203 1375 
L 203 1941 
L 1931 1941 
L 1931 1375 
L 203 1375 
z
" transform="scale(0.015625)"/>
       <path id="ArialMT-72" d="M 416 0 
L 416 3319 
L 922 3319 
L 922 2816 
Q 1116 3169 1280 3281 
Q 1444 3394 1641 3394 
Q 1925 3394 2219 3213 
L 2025 2691 
Q 1819 2813 1613 2813 
Q 1428 2813 1281 2702 
Q 1134 2591 1072 2394 
Q 978 2094 978 1738 
L 978 0 
L 416 0 
z
" transform="scale(0.015625)"/>
       <path id="ArialMT-6d" d="M 422 0 
L 422 3319 
L 925 3319 
L 925 2853 
Q 1081 3097 1340 3245 
Q 1600 3394 1931 3394 
Q 2300 3394 2536 3241 
Q 2772 3088 2869 2813 
Q 3263 3394 3894 3394 
Q 4388 3394 4653 3120 
Q 4919 2847 4919 2278 
L 4919 0 
L 4359 0 
L 4359 2091 
Q 4359 2428 4304 2576 
Q 4250 2725 4106 2815 
Q 3963 2906 3769 2906 
Q 3419 2906 3187 2673 
Q 2956 2441 2956 1928 
L 2956 0 
L 2394 0 
L 2394 2156 
Q 2394 2531 2256 2718 
Q 2119 2906 1806 2906 
Q 1569 2906 1367 2781 
Q 1166 2656 1075 2415 
Q 984 2175 984 1722 
L 984 0 
L 422 0 
z
" transform="scale(0.015625)"/>
       <path id="ArialMT-70" d="M 422 -1272 
L 422 3319 
L 934 3319 
L 934 2888 
Q 1116 3141 1344 3267 
Q 1572 3394 1897 3394 
Q 2322 3394 2647 3175 
Q 2972 2956 3137 2557 
Q 3303 2159 3303 1684 
Q 3303 1175 3120 767 
Q 2938 359 2589 142 
Q 2241 -75 1856 -75 
Q 1575 -75 1351 44 
Q 1128 163 984 344 
L 984 -1272 
L 422 -1272 
z
M 931 1641 
Q 931 1000 1190 694 
Q 1450 388 1819 388 
Q 2194 388 2461 705 
Q 2728 1022 2728 1688 
Q 2728 2322 2467 2637 
Q 2206 2953 1844 2953 
Q 1484 2953 1207 2617 
Q 931 2281 931 1641 
z
" transform="scale(0.015625)"/>
       <path id="ArialMT-6f" d="M 213 1659 
Q 213 2581 725 3025 
Q 1153 3394 1769 3394 
Q 2453 3394 2887 2945 
Q 3322 2497 3322 1706 
Q 3322 1066 3130 698 
Q 2938 331 2570 128 
Q 2203 -75 1769 -75 
Q 1072 -75 642 372 
Q 213 819 213 1659 
z
M 791 1659 
Q 791 1022 1069 705 
Q 1347 388 1769 388 
Q 2188 388 2466 706 
Q 2744 1025 2744 1678 
Q 2744 2294 2464 2611 
Q 2184 2928 1769 2928 
Q 1347 2928 1069 2612 
Q 791 2297 791 1659 
z
" transform="scale(0.015625)"/>
       <path id="ArialMT-62" d="M 941 0 
L 419 0 
L 419 4581 
L 981 4581 
L 981 2947 
Q 1338 3394 1891 3394 
Q 2197 3394 2470 3270 
Q 2744 3147 2920 2923 
Q 3097 2700 3197 2384 
Q 3297 2069 3297 1709 
Q 3297 856 2875 390 
Q 2453 -75 1863 -75 
Q 1275 -75 941 416 
L 941 0 
z
M 934 1684 
Q 934 1088 1097 822 
Q 1363 388 1816 388 
Q 2184 388 2453 708 
Q 2722 1028 2722 1663 
Q 2722 2313 2464 2622 
Q 2206 2931 1841 2931 
Q 1472 2931 1203 2611 
Q 934 2291 934 1684 
z
" transform="scale(0.015625)"/>
      </defs>
      <use xlink:href="#ArialMT-77"/>
      <use xlink:href="#ArialMT-68" transform="translate(72.216797 0)"/>
      <use xlink:href="#ArialMT-61" transform="translate(127.832031 0)"/>
      <use xlink:href="#ArialMT-6c" transform="translate(183.447266 0)"/>
      <use xlink:href="#ArialMT-69" transform="translate(205.664062 0)"/>
      <use xlink:href="#ArialMT-6e" transform="translate(227.880859 0)"/>
      <use xlink:href="#ArialMT-67" transform="translate(283.496094 0)"/>
      <use xlink:href="#ArialMT-2d" transform="translate(339.111328 0)"/>
      <use xlink:href="#ArialMT-68" transform="translate(372.412109 0)"/>
      <use xlink:href="#ArialMT-61" transform="translate(428.027344 0)"/>
      <use xlink:href="#ArialMT-72" transform="translate(483.642578 0)"/>
      <use xlink:href="#ArialMT-6d" transform="translate(516.943359 0)"/>
      <use xlink:href="#ArialMT-2d" transform="translate(600.244141 0)"/>
      <use xlink:href="#ArialMT-70" transform="translate(633.544922 0)"/>
      <use xlink:href="#ArialMT-72" transform="translate(689.160156 0)"/>
      <use xlink:href="#ArialMT-6f" transform="translate(722.460938 0)"/>
      <use xlink:href="#ArialMT-62" transform="translate(778.076172 0)"/>
     </g>
    </g>
   </g>
   <g id="matplotlib.axis_2">
    <g id="ytick_1">
     <g id="line2d_13">
      <path d="M 43.585938 232.461375 
L 601.585938 232.461375 
" clip-path="url(#p656d85c308)" style="fill: none; stroke: #cccccc; stroke-width: 0.8; stroke-linecap: round"/>
     </g>
     <g id="line2d_14"/>
     <g id="text_8">
      <!-- −0.4 -->
      <g style="fill: #262626" transform="translate(20.345312 236.040281) scale(0.1 -0.1)">
       <defs>
        <path id="ArialMT-2212" d="M 3381 1997 
L 356 1997 
L 356 2522 
L 3381 2522 
L 3381 1997 
z
" transform="scale(0.015625)"/>
       </defs>
       <use xlink:href="#ArialMT-2212"/>
       <use xlink:href="#ArialMT-30" transform="translate(58.398438 0)"/>
       <use xlink:href="#ArialMT-2e" transform="translate(114.013672 0)"/>
       <use xlink:href="#ArialMT-34" transform="translate(141.796875 0)"/>
      </g>
     </g>
    </g>
    <g id="ytick_2">
     <g id="line2d_15">
      <path d="M 43.585938 188.109375 
L 601.585938 188.109375 
" clip-path="url(#p656d85c308)" style="fill: none; stroke: #cccccc; stroke-width: 0.8; stroke-linecap: round"/>
     </g>
     <g id="line2d_16"/>
     <g id="text_9">
      <!-- −0.2 -->
      <g style="fill: #262626" transform="translate(20.345312 191.688281) scale(0.1 -0.1)">
       <use xlink:href="#ArialMT-2212"/>
       <use xlink:href="#ArialMT-30" transform="translate(58.398438 0)"/>
       <use xlink:href="#ArialMT-2e" transform="translate(114.013672 0)"/>
       <use xlink:href="#ArialMT-32" transform="translate(141.796875 0)"/>
      </g>
     </g>
    </g>
    <g id="ytick_3">
     <g id="line2d_17">
      <path d="M 43.585938 143.757375 
L 601.585938 143.757375 
" clip-path="url(#p656d85c308)" style="fill: none; stroke: #cccccc; stroke-width: 0.8; stroke-linecap: round"/>
     </g>
     <g id="line2d_18"/>
     <g id="text_10">
      <!-- 0.0 -->
      <g style="fill: #262626" transform="translate(26.185938 147.336281) scale(0.1 -0.1)">
       <use xlink:href="#ArialMT-30"/>
       <use xlink:href="#ArialMT-2e" transform="translate(55.615234 0)"/>
       <use xlink:href="#ArialMT-30" transform="translate(83.398438 0)"/>
      </g>
     </g>
    </g>
    <g id="ytick_4">
     <g id="line2d_19">
      <path d="M 43.585938 99.405375 
L 601.585938 99.405375 
" clip-path="url(#p656d85c308)" style="fill: none; stroke: #cccccc; stroke-width: 0.8; stroke-linecap: round"/>
     </g>
     <g id="line2d_20"/>
     <g id="text_11">
      <!-- 0.2 -->
      <g style="fill: #262626" transform="translate(26.185938 102.984281) scale(0.1 -0.1)">
       <use xlink:href="#ArialMT-30"/>
       <use xlink:href="#ArialMT-2e" transform="translate(55.615234 0)"/>
       <use xlink:href="#ArialMT-32" transform="translate(83.398438 0)"/>
      </g>
     </g>
    </g>
    <g id="ytick_5">
     <g id="line2d_21">
      <path d="M 43.585938 55.053375 
L 601.585938 55.053375 
" clip-path="url(#p656d85c308)" style="fill: none; stroke: #cccccc; stroke-width: 0.8; stroke-linecap: round"/>
     </g>
     <g id="line2d_22"/>
     <g id="text_12">
      <!-- 0.4 -->
      <g style="fill: #262626" transform="translate(26.185938 58.632281) scale(0.1 -0.1)">
       <use xlink:href="#ArialMT-30"/>
       <use xlink:href="#ArialMT-2e" transform="translate(55.615234 0)"/>
       <use xlink:href="#ArialMT-34" transform="translate(83.398438 0)"/>
      </g>
     </g>
    </g>
    <g id="text_13">
     <!-- score -->
     <g style="fill: #262626" transform="translate(14.357812 144.895156) rotate(-90) scale(0.1 -0.1)">
      <defs>
       <path id="ArialMT-73" d="M 197 991 
L 753 1078 
Q 800 744 1014 566 
Q 1228 388 1613 388 
Q 2000 388 2187 545 
Q 2375 703 2375 916 
Q 2375 1106 2209 1216 
Q 2094 1291 1634 1406 
Q 1016 1563 777 1677 
Q 538 1791 414 1992 
Q 291 2194 291 2438 
Q 291 2659 392 2848 
Q 494 3038 669 3163 
Q 800 3259 1026 3326 
Q 1253 3394 1513 3394 
Q 1903 3394 2198 3281 
Q 2494 3169 2634 2976 
Q 2775 2784 2828 2463 
L 2278 2388 
Q 2241 2644 2061 2787 
Q 1881 2931 1553 2931 
Q 1166 2931 1000 2803 
Q 834 2675 834 2503 
Q 834 2394 903 2306 
Q 972 2216 1119 2156 
Q 1203 2125 1616 2013 
Q 2213 1853 2448 1751 
Q 2684 1650 2818 1456 
Q 2953 1263 2953 975 
Q 2953 694 2789 445 
Q 2625 197 2315 61 
Q 2006 -75 1616 -75 
Q 969 -75 630 194 
Q 291 463 197 991 
z
" transform="scale(0.015625)"/>
       <path id="ArialMT-63" d="M 2588 1216 
L 3141 1144 
Q 3050 572 2676 248 
Q 2303 -75 1759 -75 
Q 1078 -75 664 370 
Q 250 816 250 1647 
Q 250 2184 428 2587 
Q 606 2991 970 3192 
Q 1334 3394 1763 3394 
Q 2303 3394 2647 3120 
Q 2991 2847 3088 2344 
L 2541 2259 
Q 2463 2594 2264 2762 
Q 2066 2931 1784 2931 
Q 1359 2931 1093 2626 
Q 828 2322 828 1663 
Q 828 994 1084 691 
Q 1341 388 1753 388 
Q 2084 388 2306 591 
Q 2528 794 2588 1216 
z
" transform="scale(0.015625)"/>
       <path id="ArialMT-65" d="M 2694 1069 
L 3275 997 
Q 3138 488 2766 206 
Q 2394 -75 1816 -75 
Q 1088 -75 661 373 
Q 234 822 234 1631 
Q 234 2469 665 2931 
Q 1097 3394 1784 3394 
Q 2450 3394 2872 2941 
Q 3294 2488 3294 1666 
Q 3294 1616 3291 1516 
L 816 1516 
Q 847 969 1125 678 
Q 1403 388 1819 388 
Q 2128 388 2347 550 
Q 2566 713 2694 1069 
z
M 847 1978 
L 2700 1978 
Q 2663 2397 2488 2606 
Q 2219 2931 1791 2931 
Q 1403 2931 1139 2672 
Q 875 2413 847 1978 
z
" transform="scale(0.015625)"/>
      </defs>
      <use xlink:href="#ArialMT-73"/>
      <use xlink:href="#ArialMT-63" transform="translate(50 0)"/>
      <use xlink:href="#ArialMT-6f" transform="translate(100 0)"/>
      <use xlink:href="#ArialMT-72" transform="translate(155.615234 0)"/>
      <use xlink:href="#ArialMT-65" transform="translate(188.916016 0)"/>
     </g>
    </g>
   </g>
   <g id="FillBetweenPolyCollection_1">
    <defs>
     <path id="mbde0314e67" d="M 44.077949 -115.175719 
L 44.077949 -104.932881 
L 44.668654 -104.290853 
L 45.186801 -103.374932 
L 45.825493 -102.671023 
L 46.438806 -101.50899 
L 47.068137 -100.736411 
L 47.716307 -100.214876 
L 48.004198 -100.284475 
L 48.405997 -100.124795 
L 48.961728 -99.87599 
L 49.518015 -99.573607 
L 50.345495 -99.965418 
L 51.043724 -100.175594 
L 51.410295 -100.260079 
L 51.856701 -100.06666 
L 52.573961 -100.551947 
L 53.047734 -101.43299 
L 53.484555 -102.151908 
L 54.218999 -102.617212 
L 54.905236 -102.863196 
L 55.298291 -103.172027 
L 55.835747 -103.200753 
L 56.543926 -103.285618 
L 56.918995 -103.317866 
L 57.575772 -103.449207 
L 58.12625 -103.550328 
L 58.542214 -103.65048 
L 59.282328 -103.750317 
L 59.82593 -103.952119 
L 60.321739 -104.007524 
L 60.863565 -103.972279 
L 61.500599 -104.049468 
L 62.148473 -104.074845 
L 62.639363 -104.036577 
L 63.209617 -104.007975 
L 63.640429 -103.981953 
L 63.996308 -103.863036 
L 64.631183 -103.797214 
L 65.360241 -103.737141 
L 65.977979 -103.671195 
L 66.478413 -103.60806 
L 67.078941 -103.533937 
L 67.664047 -103.507404 
L 68.066576 -103.440277 
L 68.686239 -103.40304 
L 69.24161 -103.413912 
L 69.85995 -103.398447 
L 70.505847 -103.296225 
L 71.043375 -103.139015 
L 71.626694 -103.057859 
L 72.129773 -102.985204 
L 72.560446 -102.896359 
L 72.948059 -102.764604 
L 73.617256 -102.632143 
L 74.220203 -102.546974 
L 74.688504 -102.433616 
L 75.259026 -102.277825 
L 75.831218 -102.21449 
L 76.394233 -102.046375 
L 76.992698 -101.99594 
L 77.705885 -101.965954 
L 78.377407 -101.931225 
L 78.928576 -101.885502 
L 79.502036 -101.844781 
L 80.040936 -101.822373 
L 80.448703 -101.822038 
L 80.93593 -101.732509 
L 81.448423 -101.604053 
L 81.976373 -101.472752 
L 82.730585 -101.349231 
L 83.292279 -101.187527 
L 83.677171 -101.054356 
L 84.395192 -100.992342 
L 85.065399 -100.902177 
L 85.59722 -100.807748 
L 85.971131 -100.748342 
L 86.356441 -100.765057 
L 87.06728 -100.649017 
L 87.583216 -100.522763 
L 88.144876 -100.316412 
L 88.785966 -100.149017 
L 89.289118 -100.069142 
L 89.739536 -99.941105 
L 90.274233 -99.803212 
L 91.00367 -99.494176 
L 91.734468 -99.291684 
L 92.210287 -98.828238 
L 92.663039 -98.60056 
L 93.31732 -98.103174 
L 93.762851 -97.982562 
L 94.353332 -97.793066 
L 94.960871 -97.484542 
L 95.311097 -97.395597 
L 95.837862 -97.41522 
L 96.622825 -97.276491 
L 97.202789 -97.26563 
L 97.578395 -97.166455 
L 98.079639 -96.898839 
L 98.754097 -96.49174 
L 99.543178 -96.175735 
L 99.961265 -95.806658 
L 100.31622 -95.389307 
L 101.062069 -94.932461 
L 101.710257 -94.461266 
L 102.280494 -94.131575 
L 102.780808 -93.532566 
L 103.373488 -93.406785 
L 104.067622 -93.147668 
L 104.601972 -93.066862 
L 104.966208 -93.163298 
L 105.515221 -93.277967 
L 106.288772 -93.434442 
L 106.635787 -93.811217 
L 107.100813 -94.149646 
L 107.834703 -94.56115 
L 108.452943 -94.869955 
L 108.983578 -95.180987 
L 109.394012 -95.476071 
L 109.929519 -95.64197 
L 110.430897 -95.884355 
L 111.039283 -96.20739 
L 111.847748 -96.411866 
L 112.28629 -96.596891 
L 112.601347 -96.651067 
L 113.096819 -96.742406 
L 113.703025 -96.863919 
L 114.316782 -96.978497 
L 114.822069 -97.076306 
L 115.570954 -97.264241 
L 116.260936 -97.648101 
L 116.74838 -97.843423 
L 117.366125 -98.080576 
L 117.766052 -98.339302 
L 118.269924 -98.660293 
L 118.839457 -98.85601 
L 119.271808 -98.893228 
L 120.047939 -99.02902 
L 120.683791 -99.092306 
L 120.990728 -99.286808 
L 121.460892 -99.586746 
L 122.146249 -99.738224 
L 122.866032 -99.866208 
L 123.422091 -100.019384 
L 123.934547 -100.165734 
L 124.501171 -100.364167 
L 125.108852 -100.628294 
L 125.594041 -100.771263 
L 126.096515 -100.847089 
L 126.814051 -100.968552 
L 127.311123 -101.06977 
L 127.828192 -101.274157 
L 128.41085 -101.487299 
L 128.825256 -101.61427 
L 129.336306 -101.774435 
L 129.883486 -101.913615 
L 130.620328 -102.10131 
L 131.192407 -102.329954 
L 131.640487 -102.443494 
L 132.340407 -102.488831 
L 132.875333 -102.635045 
L 133.282358 -102.897531 
L 133.95208 -102.968585 
L 134.594712 -103.130445 
L 135.133825 -103.284918 
L 135.693404 -103.338025 
L 136.269603 -103.346197 
L 136.705937 -103.434969 
L 137.068226 -103.589336 
L 137.879568 -103.731374 
L 138.687099 -103.833614 
L 139.095399 -104.066695 
L 139.513862 -104.248764 
L 140.13571 -104.385904 
L 140.604746 -104.437234 
L 141.03563 -104.543128 
L 141.795578 -104.730479 
L 142.56993 -104.815932 
L 143.10162 -104.99392 
L 143.581881 -104.988998 
L 144.097864 -104.994103 
L 144.659971 -105.06997 
L 145.133658 -105.103697 
L 145.691391 -105.201441 
L 146.299263 -105.178173 
L 146.718765 -105.151152 
L 147.188693 -105.094096 
L 147.924722 -105.12725 
L 148.617493 -105.113561 
L 149.111408 -105.102436 
L 149.567669 -105.088786 
L 150.19118 -105.084017 
L 150.787331 -105.010558 
L 151.198156 -105.038546 
L 151.839417 -104.912476 
L 152.41674 -104.827015 
L 152.887897 -104.794753 
L 153.357446 -104.741348 
L 153.907735 -104.79747 
L 154.569751 -104.643691 
L 155.21976 -104.746134 
L 155.837675 -104.719219 
L 156.249736 -104.793781 
L 156.73099 -104.98761 
L 157.418926 -105.007659 
L 158.109405 -105.056575 
L 158.695588 -105.210093 
L 159.07069 -105.32628 
L 159.581726 -105.316363 
L 160.189136 -105.262211 
L 160.64512 -105.228917 
L 161.23057 -105.352401 
L 161.769085 -105.456941 
L 162.381533 -105.675164 
L 163.124459 -105.902266 
L 163.629134 -106.062428 
L 164.007085 -106.300283 
L 164.585283 -106.382634 
L 165.237179 -106.502367 
L 165.699233 -106.602268 
L 166.296597 -106.689354 
L 167.059522 -106.799641 
L 167.614954 -107.035584 
L 168.123603 -107.061466 
L 168.742615 -107.111184 
L 169.18898 -107.139643 
L 169.595357 -107.272666 
L 170.08727 -107.384263 
L 170.712174 -107.447254 
L 171.271264 -107.527706 
L 171.832437 -107.577985 
L 172.371111 -107.555187 
L 172.833515 -107.588617 
L 173.594459 -107.671965 
L 174.297308 -107.745536 
L 174.707098 -107.790203 
L 175.228625 -107.820976 
L 175.88824 -107.845198 
L 176.468543 -107.815288 
L 176.941844 -107.86775 
L 177.359375 -107.936188 
L 177.867457 -107.985317 
L 178.445197 -108.046875 
L 179.170664 -108.080232 
L 179.749846 -108.139285 
L 180.334838 -108.169643 
L 180.906546 -108.178745 
L 181.259886 -108.17143 
L 181.829343 -108.134203 
L 182.42373 -108.083346 
L 182.908708 -108.159288 
L 183.426089 -108.140123 
L 183.99153 -108.125903 
L 184.689752 -108.072191 
L 185.4442 -108.049541 
L 186.063323 -108.095885 
L 186.49894 -108.181511 
L 187.007181 -108.264513 
L 187.574435 -108.265642 
L 188.039042 -108.248758 
L 188.673953 -108.403607 
L 189.214083 -108.491375 
L 189.598249 -108.53754 
L 190.098004 -108.569013 
L 190.85607 -108.574573 
L 191.671287 -108.541337 
L 192.218189 -108.593396 
L 192.700755 -108.6353 
L 193.124152 -108.642931 
L 193.603504 -108.805966 
L 194.196263 -108.898682 
L 194.894406 -108.958495 
L 195.464405 -108.99239 
L 195.909938 -109.113919 
L 196.387514 -109.206266 
L 196.926321 -109.314087 
L 197.55996 -109.408515 
L 198.068977 -109.562363 
L 198.66468 -109.742846 
L 199.340677 -109.778482 
L 199.954169 -109.932981 
L 200.506168 -110.088748 
L 201.094483 -110.073804 
L 201.6708 -110.093037 
L 202.080414 -110.107762 
L 202.540966 -110.143212 
L 203.141081 -110.346281 
L 203.684369 -110.399353 
L 204.248999 -110.702969 
L 204.839002 -110.783855 
L 205.263331 -110.832923 
L 205.796366 -110.908987 
L 206.540047 -110.983764 
L 207.085119 -111.038905 
L 207.64828 -111.014647 
L 208.324053 -111.039422 
L 208.795166 -111.055757 
L 209.410221 -111.069836 
L 209.97379 -111.062657 
L 210.372985 -111.064835 
L 210.846352 -111.152996 
L 211.420749 -111.300102 
L 212.159243 -111.467038 
L 212.771289 -111.493425 
L 213.349346 -111.570174 
L 213.950402 -111.594311 
L 214.460795 -111.681313 
L 214.973035 -111.69224 
L 215.370619 -111.597433 
L 215.917182 -111.581529 
L 216.537052 -111.512088 
L 217.028145 -111.498144 
L 217.687534 -111.398244 
L 218.322057 -111.29191 
L 218.71355 -111.1976 
L 219.269229 -111.162789 
L 220.007044 -110.930254 
L 220.563954 -110.822776 
L 221.182623 -110.779554 
L 221.65114 -110.836293 
L 222.149012 -110.829584 
L 222.67779 -110.781622 
L 223.164411 -110.918728 
L 223.857902 -110.995354 
L 224.484335 -111.003671 
L 224.975898 -111.115232 
L 225.601261 -111.118873 
L 226.163088 -111.312074 
L 226.654577 -111.357086 
L 227.137339 -111.378015 
L 227.643221 -111.373297 
L 228.170472 -111.335521 
L 228.693797 -111.36481 
L 229.263609 -111.248065 
L 229.857682 -111.18589 
L 230.421443 -111.220826 
L 230.870244 -111.105915 
L 231.508398 -111.093536 
L 232.186638 -110.965637 
L 232.799235 -111.036008 
L 233.240967 -111.037633 
L 233.640648 -110.960777 
L 234.267288 -110.90805 
L 235.004214 -110.992396 
L 235.624544 -110.997572 
L 236.144675 -110.943642 
L 236.622121 -110.872476 
L 237.0737 -110.74835 
L 237.723612 -110.717884 
L 238.424113 -110.668157 
L 239.038059 -110.657488 
L 239.574889 -110.642133 
L 240.12378 -110.625493 
L 240.775909 -110.680895 
L 241.281932 -110.744833 
L 241.816002 -110.841747 
L 242.198431 -111.016843 
L 242.626427 -111.127918 
L 243.218786 -111.120237 
L 243.86443 -111.272506 
L 244.592462 -111.399358 
L 245.06652 -111.480736 
L 245.469005 -111.563785 
L 246.071325 -111.700954 
L 246.634945 -111.867071 
L 247.148702 -112.080697 
L 247.811289 -112.191184 
L 248.326528 -112.187321 
L 248.907089 -112.261485 
L 249.600449 -112.284736 
L 250.02608 -112.239464 
L 250.483256 -112.074785 
L 251.224541 -112.194229 
L 251.788466 -112.034541 
L 252.255364 -112.195356 
L 252.751164 -112.061704 
L 253.304914 -112.06284 
L 254.065776 -112.088062 
L 254.591437 -112.127952 
L 254.998244 -112.158861 
L 255.448722 -112.290266 
L 255.928281 -112.432718 
L 256.487867 -112.584879 
L 257.0922 -112.771232 
L 257.756798 -112.888347 
L 258.437346 -112.851833 
L 258.983148 -112.847355 
L 259.528432 -113.131492 
L 260.20218 -113.330882 
L 260.751415 -113.452596 
L 261.275564 -113.598036 
L 261.853299 -113.804488 
L 262.452255 -113.780357 
L 263.029847 -113.744503 
L 263.59435 -113.916597 
L 264.020739 -114.07328 
L 264.372219 -114.210584 
L 265.097358 -114.328224 
L 265.756799 -114.343568 
L 266.330233 -114.491555 
L 266.799075 -114.560214 
L 267.186442 -114.58333 
L 267.853251 -114.887271 
L 268.40641 -114.946539 
L 269.017512 -115.086302 
L 269.747319 -115.288898 
L 270.252049 -115.611257 
L 270.667124 -115.905463 
L 271.322978 -115.987877 
L 271.824719 -116.259183 
L 272.304618 -116.458036 
L 272.927753 -116.567319 
L 273.417037 -116.934095 
L 274.005834 -117.192733 
L 274.581614 -117.423848 
L 275.216261 -117.689605 
L 275.815669 -117.97387 
L 276.152866 -118.322933 
L 276.675499 -118.4336 
L 277.47271 -118.552415 
L 278.027662 -118.737289 
L 278.429736 -119.068083 
L 278.959456 -119.30273 
L 279.652287 -119.655058 
L 280.359476 -119.798059 
L 280.73811 -120.049392 
L 281.297088 -120.415513 
L 282.036697 -120.55869 
L 282.573229 -120.933178 
L 283.178978 -121.357832 
L 283.653434 -121.766809 
L 284.077171 -122.246243 
L 284.535536 -122.642663 
L 285.010775 -122.906649 
L 285.646249 -123.280871 
L 286.269357 -123.708285 
L 286.907062 -123.911225 
L 287.567617 -124.132165 
L 287.943729 -124.384563 
L 288.326299 -124.719182 
L 289.089705 -125.091254 
L 289.629911 -125.46775 
L 290.012906 -125.847534 
L 290.713584 -126.20302 
L 291.237895 -126.45303 
L 291.875691 -126.81397 
L 292.65112 -127.371423 
L 293.136185 -127.761331 
L 293.672955 -128.281325 
L 294.208801 -128.712143 
L 294.793042 -129.091209 
L 295.203225 -129.34841 
L 295.626023 -129.695454 
L 296.25442 -130.099555 
L 296.986341 -130.64526 
L 297.53196 -130.950688 
L 298.057295 -131.439839 
L 298.597599 -131.705129 
L 298.979728 -132.259458 
L 299.721454 -132.543014 
L 300.484118 -132.725722 
L 301.067028 -133.182243 
L 301.566162 -133.512769 
L 302.089478 -133.785158 
L 302.70746 -134.286217 
L 303.321479 -134.784162 
L 303.713102 -135.276763 
L 304.033545 -135.778893 
L 304.511296 -136.266891 
L 305.18733 -136.813649 
L 305.820326 -137.098381 
L 306.495853 -137.480091 
L 307.056671 -137.981704 
L 307.526116 -138.434557 
L 307.990704 -138.881031 
L 308.361522 -139.309223 
L 309.191879 -139.730139 
L 310.019684 -140.153642 
L 310.504921 -140.740255 
L 310.910133 -141.02884 
L 311.375181 -141.441253 
L 312.078522 -141.862703 
L 312.653465 -142.582977 
L 313.033151 -142.956407 
L 313.536117 -143.304625 
L 314.248987 -143.686378 
L 314.78165 -144.357184 
L 315.170798 -144.670579 
L 315.766763 -145.112956 
L 316.34534 -145.550466 
L 316.968632 -146.110085 
L 317.714446 -146.48437 
L 318.244479 -146.789783 
L 318.799331 -147.251007 
L 319.484047 -147.531994 
L 319.942439 -147.820649 
L 320.369285 -148.214651 
L 320.918945 -148.721902 
L 321.513062 -149.052094 
L 321.973832 -149.368144 
L 322.444311 -149.821932 
L 323.024565 -150.234428 
L 323.652604 -150.51463 
L 324.376306 -150.794569 
L 325.003348 -150.986347 
L 325.564372 -151.281485 
L 326.157092 -151.622933 
L 326.67726 -151.758086 
L 327.267156 -152.055239 
L 327.869375 -152.219334 
L 328.292992 -152.339471 
L 328.64205 -152.657477 
L 329.328087 -152.864744 
L 330.000281 -153.030847 
L 330.51005 -153.025233 
L 331.14876 -153.3208 
L 331.554217 -153.445966 
L 331.962535 -153.590295 
L 332.582783 -153.800542 
L 333.098611 -153.910266 
L 333.64387 -154.072185 
L 334.155456 -154.135762 
L 334.736541 -154.397574 
L 335.43408 -154.604192 
L 336.089352 -154.722359 
L 336.735113 -154.885058 
L 337.123451 -155.142086 
L 337.491498 -155.451402 
L 338.206015 -155.660793 
L 338.84696 -155.919966 
L 339.351195 -156.008396 
L 339.944315 -156.142359 
L 340.540922 -156.385474 
L 341.036972 -156.662672 
L 341.407413 -156.855659 
L 341.866748 -157.079905 
L 342.430808 -157.221319 
L 343.145553 -157.388856 
L 343.927658 -157.515172 
L 344.516727 -157.769512 
L 345.068467 -157.954229 
L 345.702141 -158.059022 
L 346.196235 -158.244156 
L 346.599404 -158.50298 
L 347.095645 -158.749457 
L 347.813524 -158.941825 
L 348.528815 -159.053422 
L 348.824558 -159.339768 
L 349.246812 -159.478008 
L 350.047592 -159.600287 
L 350.520858 -159.651999 
L 350.86882 -159.844124 
L 351.403008 -160.112599 
L 351.969002 -160.38908 
L 352.751356 -160.581528 
L 353.498984 -160.872633 
L 353.916155 -161.030782 
L 354.334181 -161.087722 
L 354.898304 -161.113881 
L 355.568632 -161.117556 
L 356.13156 -161.206073 
L 356.64532 -161.325363 
L 357.250497 -161.532978 
L 357.725607 -161.717637 
L 358.2469 -161.885463 
L 358.886849 -162.03468 
L 359.466257 -162.265169 
L 360.120808 -162.361007 
L 360.549935 -162.538242 
L 360.904547 -162.718985 
L 361.686992 -162.964648 
L 362.391536 -163.056289 
L 362.961404 -163.117566 
L 363.359677 -163.224639 
L 363.719185 -163.409312 
L 364.317702 -163.660874 
L 365.008303 -163.726269 
L 365.621942 -163.86722 
L 366.049955 -164.177153 
L 366.551855 -164.285079 
L 367.256448 -164.524814 
L 367.834054 -164.657594 
L 368.330041 -164.901753 
L 368.911727 -165.163592 
L 369.322996 -165.485714 
L 369.941247 -165.628903 
L 370.650933 -165.577081 
L 371.28495 -165.653322 
L 371.889146 -165.670602 
L 372.176981 -165.731889 
L 372.642849 -165.824625 
L 373.444241 -165.902299 
L 374.066658 -165.965641 
L 374.480453 -166.004404 
L 374.894649 -166.099512 
L 375.551486 -166.205439 
L 376.093286 -166.291901 
L 376.478376 -166.351047 
L 377.034237 -166.40732 
L 377.71758 -166.495815 
L 378.404014 -166.617621 
L 378.966055 -166.59182 
L 379.476702 -166.677103 
L 379.896016 -166.653044 
L 380.46886 -166.670999 
L 381.105128 -166.601158 
L 381.55524 -166.65335 
L 382.259363 -166.728415 
L 382.935033 -166.771917 
L 383.299968 -166.770337 
L 383.815105 -166.86466 
L 384.354247 -166.905527 
L 384.857012 -166.956361 
L 385.557159 -166.993224 
L 386.195632 -167.02079 
L 386.710779 -167.141057 
L 387.346997 -167.10047 
L 387.914305 -167.134415 
L 388.34066 -167.156664 
L 388.965622 -167.252488 
L 389.509005 -167.372514 
L 390.0748 -167.504307 
L 390.740594 -167.705736 
L 391.357277 -167.783323 
L 391.934376 -167.844212 
L 392.354223 -167.984639 
L 392.95544 -168.12483 
L 393.381736 -168.204592 
L 393.82687 -168.294871 
L 394.4188 -168.486723 
L 394.91532 -168.651389 
L 395.633942 -168.68286 
L 396.431916 -168.72093 
L 396.833482 -168.841134 
L 397.294508 -169.085792 
L 398.06689 -169.141099 
L 398.712083 -169.39517 
L 399.102086 -169.333732 
L 399.63808 -169.481012 
L 400.252883 -169.434727 
L 400.807096 -169.439686 
L 401.497024 -169.382882 
L 401.884034 -169.425381 
L 402.417673 -169.368844 
L 402.959605 -169.329346 
L 403.422107 -169.263004 
L 404.010409 -169.194307 
L 404.476895 -169.061324 
L 404.957981 -168.974607 
L 405.676642 -169.060083 
L 406.47204 -169.037439 
L 406.840257 -169.042333 
L 407.355038 -168.938169 
L 408.148909 -168.802702 
L 408.528993 -168.720111 
L 408.8261 -168.627492 
L 409.596198 -168.530007 
L 410.292944 -168.467518 
L 410.811471 -168.385802 
L 411.229779 -168.302521 
L 411.843377 -168.360817 
L 412.665445 -168.325901 
L 413.206033 -168.265659 
L 413.740723 -168.260915 
L 414.324234 -168.105489 
L 414.648426 -168.082515 
L 415.063636 -167.715626 
L 415.745976 -167.519578 
L 416.458891 -167.363349 
L 417.102258 -167.210371 
L 417.503899 -167.066796 
L 417.901741 -167.008139 
L 418.517225 -166.882136 
L 419.145698 -166.821015 
L 419.763088 -166.665062 
L 420.415017 -166.734952 
L 420.803619 -166.724058 
L 421.396995 -166.736803 
L 422.094297 -166.858362 
L 422.623291 -166.85625 
L 422.990934 -166.715288 
L 423.382541 -166.682885 
L 424.032877 -166.65366 
L 424.744448 -166.635121 
L 425.277063 -166.617212 
L 425.657043 -166.603112 
L 426.268481 -166.530717 
L 426.884722 -166.46836 
L 427.526386 -166.380906 
L 428.129882 -166.266418 
L 428.619972 -166.175874 
L 429.140582 -165.91123 
L 429.716495 -165.682321 
L 430.355099 -165.643109 
L 430.885941 -165.52949 
L 431.527219 -165.562791 
L 431.974336 -165.494781 
L 432.416314 -165.411081 
L 433.215044 -165.362276 
L 433.874146 -165.259066 
L 434.196992 -165.10616 
L 434.529684 -164.89152 
L 435.228499 -164.830193 
L 435.959405 -164.740598 
L 436.375588 -164.827072 
L 436.882454 -164.780666 
L 437.597081 -164.750571 
L 438.274378 -164.674488 
L 438.821704 -164.667968 
L 439.270038 -164.614182 
L 439.766566 -164.572055 
L 440.228652 -164.490866 
L 440.929332 -164.538999 
L 441.532492 -164.714809 
L 442.012935 -164.634398 
L 442.581781 -164.491052 
L 442.994484 -164.436446 
L 443.621865 -164.353402 
L 444.354249 -164.307729 
L 444.927925 -164.290462 
L 445.376621 -164.24732 
L 445.963157 -164.235814 
L 446.673331 -164.189208 
L 447.055306 -164.183039 
L 447.408872 -164.11552 
L 448.177572 -164.131755 
L 448.809243 -164.037755 
L 449.209933 -164.082213 
L 449.788952 -164.044054 
L 450.448639 -164.026193 
L 451.134988 -163.947918 
L 451.665338 -163.859295 
L 452.234866 -163.727594 
L 452.611363 -163.549835 
L 453.162373 -163.508661 
L 453.934406 -163.397937 
L 454.265738 -163.429433 
L 454.782231 -163.33128 
L 455.367029 -163.209812 
L 455.831139 -163.112243 
L 456.558025 -162.999588 
L 457.204409 -162.963836 
L 457.643898 -162.826206 
L 458.168503 -162.639058 
L 458.83178 -162.508001 
L 459.250241 -162.261935 
L 459.622569 -162.085463 
L 460.239204 -162.014181 
L 460.864012 -161.998791 
L 461.393717 -161.829602 
L 462.117434 -161.714241 
L 462.701939 -161.632263 
L 463.154006 -161.563176 
L 463.829466 -161.37209 
L 464.246296 -161.201132 
L 464.871817 -161.100563 
L 465.545639 -160.892162 
L 465.929166 -160.893919 
L 466.581904 -160.828077 
L 467.284547 -160.685761 
L 467.610844 -160.522847 
L 468.02814 -160.526884 
L 468.595324 -160.418599 
L 469.24348 -160.343876 
L 470.03349 -160.231745 
L 470.486493 -160.077295 
L 470.887067 -159.986751 
L 471.424289 -159.854156 
L 471.992543 -159.667995 
L 472.689297 -159.471066 
L 473.337725 -159.332379 
L 473.94162 -159.211071 
L 474.353772 -159.131017 
L 474.687121 -159.009036 
L 475.379848 -158.912054 
L 476.071568 -158.787486 
L 476.706906 -158.78399 
L 477.280972 -158.409362 
L 477.601282 -158.102537 
L 478.120001 -157.908877 
L 478.887482 -157.651837 
L 479.606057 -157.019846 
L 480.064844 -156.799703 
L 480.525987 -156.511845 
L 481.150434 -156.134851 
L 481.613755 -155.91539 
L 482.050099 -155.611146 
L 482.542849 -155.457643 
L 483.158754 -155.238862 
L 483.862832 -155.078436 
L 484.310277 -154.933317 
L 484.924965 -154.778525 
L 485.595023 -154.642178 
L 485.999462 -154.516911 
L 486.452769 -154.446604 
L 486.957008 -154.366089 
L 487.733544 -154.137947 
L 488.457724 -153.90313 
L 489.001186 -153.782653 
L 489.387308 -153.655634 
L 489.968046 -153.450529 
L 490.790657 -153.122003 
L 491.175828 -152.918184 
L 491.480225 -152.793482 
L 492.213742 -152.613404 
L 492.758222 -152.43318 
L 493.082217 -152.170727 
L 493.829513 -151.779779 
L 494.366509 -151.457846 
L 494.983111 -151.262167 
L 495.814826 -151.12671 
L 496.308153 -150.877008 
L 496.831587 -150.677314 
L 497.424858 -150.39682 
L 497.792955 -150.081758 
L 498.306065 -149.874998 
L 498.951285 -149.664869 
L 499.436277 -149.499761 
L 499.906723 -149.388831 
L 500.501749 -149.185954 
L 501.077153 -148.892285 
L 501.753641 -148.726148 
L 502.390435 -148.592657 
L 502.921157 -148.453399 
L 503.455002 -148.210903 
L 503.818417 -147.932215 
L 504.525467 -147.61973 
L 505.095147 -147.364965 
L 505.508596 -147.077835 
L 506.086826 -146.946271 
L 506.667758 -146.755851 
L 507.29333 -146.650335 
L 507.762456 -146.540784 
L 508.273467 -146.391875 
L 508.79438 -146.249449 
L 509.281832 -146.015862 
L 510.076397 -145.883311 
L 510.648548 -145.804412 
L 511.177551 -145.704381 
L 511.784134 -145.463726 
L 512.263793 -145.162192 
L 512.82626 -144.885071 
L 513.396489 -144.712106 
L 514.061683 -144.496844 
L 514.666795 -144.31877 
L 515.133995 -143.951466 
L 515.516732 -143.732433 
L 516.039142 -143.374626 
L 516.64308 -143.05343 
L 517.273983 -142.813188 
L 517.815298 -142.581967 
L 518.440593 -142.201085 
L 519.135536 -141.94566 
L 519.493934 -141.726645 
L 520.042852 -141.447681 
L 520.818827 -141.193635 
L 521.358734 -140.970291 
L 521.935128 -140.471825 
L 522.593849 -140.189943 
L 523.071859 -139.779625 
L 523.545294 -139.426033 
L 524.187474 -139.124834 
L 524.709123 -138.867342 
L 525.170729 -138.530893 
L 525.645533 -138.028807 
L 526.182073 -137.689839 
L 526.675913 -137.462763 
L 527.113485 -137.182549 
L 527.892512 -136.996745 
L 528.500358 -136.72158 
L 528.894226 -136.483898 
L 529.492447 -136.265035 
L 530.006433 -136.179606 
L 530.632437 -135.946372 
L 531.427229 -135.778019 
L 531.921975 -135.555259 
L 532.221153 -135.479995 
L 532.822436 -135.150974 
L 533.548681 -135.108781 
L 534.058232 -134.820152 
L 534.591314 -134.749763 
L 535.118125 -134.617885 
L 535.732727 -134.541259 
L 536.243303 -134.388791 
L 536.78789 -134.40871 
L 537.391365 -134.391575 
L 537.906243 -134.349676 
L 538.40603 -134.240514 
L 538.916723 -134.116125 
L 539.603615 -133.91204 
L 540.339193 -133.662109 
L 541.008674 -133.428293 
L 541.486813 -133.214019 
L 541.996894 -133.015273 
L 542.488212 -132.78329 
L 542.882036 -132.627133 
L 543.505954 -132.519218 
L 544.21448 -132.378265 
L 544.729161 -132.19278 
L 545.299125 -132.132725 
L 545.906329 -132.045406 
L 546.445112 -131.987406 
L 546.95753 -131.911174 
L 547.390785 -131.680565 
L 548.01208 -131.525141 
L 548.643248 -131.307382 
L 549.112916 -130.993999 
L 549.670818 -130.805785 
L 550.23855 -130.603294 
L 550.94089 -130.440355 
L 551.490446 -130.209185 
L 551.789924 -130.091576 
L 552.463555 -129.991375 
L 553.123744 -129.918359 
L 553.646534 -129.520311 
L 554.252403 -129.268659 
L 554.663403 -129.015304 
L 555.1089 -128.819101 
L 555.80007 -128.464228 
L 556.468272 -128.299249 
L 556.869543 -128.183796 
L 557.270352 -128.002334 
L 558.046621 -127.775318 
L 558.752565 -127.613891 
L 559.272092 -127.381244 
L 559.841236 -127.241668 
L 560.289281 -127.233261 
L 560.812996 -127.260037 
L 561.329358 -127.182395 
L 561.940242 -127.149872 
L 562.566451 -127.06511 
L 563.21752 -126.981499 
L 563.84856 -126.925944 
L 564.186911 -126.96104 
L 564.757135 -126.942504 
L 565.370009 -126.983667 
L 565.930622 -126.982351 
L 566.425964 -127.179944 
L 566.936994 -127.309453 
L 567.45354 -127.294136 
L 567.83881 -127.353102 
L 568.555552 -127.452476 
L 569.320434 -127.527749 
L 569.962738 -127.539725 
L 570.538928 -127.428376 
L 571.008149 -127.395134 
L 571.58269 -127.339126 
L 572.109936 -127.265507 
L 572.529928 -127.139434 
L 573.038419 -127.047298 
L 573.662484 -126.966811 
L 574.372217 -126.953443 
L 574.82251 -127.001251 
L 575.413804 -126.963943 
L 575.944675 -126.803539 
L 576.492812 -126.551492 
L 577.276877 -126.440219 
L 577.64551 -126.295951 
L 577.987863 -125.910766 
L 578.634338 -125.80017 
L 579.204242 -125.565054 
L 579.843512 -125.393758 
L 580.384493 -125.401603 
L 580.807727 -125.225312 
L 581.491234 -125.046527 
L 582.107897 -124.821375 
L 582.621269 -125.003881 
L 583.192024 -124.942164 
L 583.77366 -125.086848 
L 584.420472 -125.00563 
L 585.031507 -124.898391 
L 585.600515 -124.858844 
L 586.096188 -124.776277 
L 586.649615 -124.553152 
L 587.182372 -124.249922 
L 587.5649 -124.077446 
L 588.232112 -123.919271 
L 588.960015 -123.798011 
L 589.433076 -123.549531 
L 589.996537 -123.38387 
L 590.56177 -123.217988 
L 591.075716 -122.91886 
L 591.545996 -122.304733 
L 592.101545 -121.902733 
L 592.795647 -121.487326 
L 593.136129 -121.205636 
L 593.521267 -120.882788 
L 594.201915 -120.424588 
L 594.965617 -119.937017 
L 595.568839 -119.688841 
L 596.174547 -119.353636 
L 596.757152 -119.043454 
L 597.204686 -118.516467 
L 597.728132 -117.868782 
L 598.161029 -117.21428 
L 598.755744 -116.578027 
L 599.30046 -115.629203 
L 599.933829 -114.31306 
L 600.624607 -112.408994 
L 601.043543 -111.433326 
L 601.298652 -113.815535 
L 601.298652 -121.128548 
L 601.298652 -121.128548 
L 601.043543 -120.528467 
L 600.624607 -120.309182 
L 599.933829 -120.854616 
L 599.30046 -120.950362 
L 598.755744 -121.171527 
L 598.161029 -121.441193 
L 597.728132 -121.717379 
L 597.204686 -121.958745 
L 596.757152 -122.29947 
L 596.174547 -122.48139 
L 595.568839 -122.603508 
L 594.965617 -122.770881 
L 594.201915 -123.130835 
L 593.521267 -123.410192 
L 593.136129 -123.721947 
L 592.795647 -123.990154 
L 592.101545 -124.520333 
L 591.545996 -124.887419 
L 591.075716 -125.206818 
L 590.56177 -125.603677 
L 589.996537 -125.7609 
L 589.433076 -125.961545 
L 588.960015 -126.158453 
L 588.232112 -126.209397 
L 587.5649 -126.401837 
L 587.182372 -126.562779 
L 586.649615 -126.754912 
L 586.096188 -126.885365 
L 585.600515 -127.062086 
L 585.031507 -127.309973 
L 584.420472 -127.478166 
L 583.77366 -127.628867 
L 583.192024 -127.742607 
L 582.621269 -127.895924 
L 582.107897 -128.116951 
L 581.491234 -128.309968 
L 580.807727 -128.353629 
L 580.384493 -128.433159 
L 579.843512 -128.44666 
L 579.204242 -128.556148 
L 578.634338 -128.699588 
L 577.987863 -128.805742 
L 577.64551 -129.06814 
L 577.276877 -129.276987 
L 576.492812 -129.39864 
L 575.944675 -129.669993 
L 575.413804 -129.952185 
L 574.82251 -130.035013 
L 574.372217 -130.044058 
L 573.662484 -130.059808 
L 573.038419 -130.148465 
L 572.529928 -130.239804 
L 572.109936 -130.436998 
L 571.58269 -130.577621 
L 571.008149 -130.696667 
L 570.538928 -130.835718 
L 569.962738 -130.91503 
L 569.320434 -130.948463 
L 568.555552 -130.931384 
L 567.83881 -130.940496 
L 567.45354 -130.9563 
L 566.936994 -131.024916 
L 566.425964 -131.040266 
L 565.930622 -131.046792 
L 565.370009 -131.04165 
L 564.757135 -131.088207 
L 564.186911 -131.173891 
L 563.84856 -131.163624 
L 563.21752 -131.273893 
L 562.566451 -131.340095 
L 561.940242 -131.473704 
L 561.329358 -131.600414 
L 560.812996 -131.702015 
L 560.289281 -131.841201 
L 559.841236 -131.994662 
L 559.272092 -132.050884 
L 558.752565 -132.181226 
L 558.046621 -132.389766 
L 557.270352 -132.607851 
L 556.869543 -132.720217 
L 556.468272 -132.935593 
L 555.80007 -133.059997 
L 555.1089 -133.489676 
L 554.663403 -133.658503 
L 554.252403 -133.800556 
L 553.646534 -133.902642 
L 553.123744 -134.237503 
L 552.463555 -134.356943 
L 551.789924 -134.547829 
L 551.490446 -134.611792 
L 550.94089 -134.707455 
L 550.23855 -134.950203 
L 549.670818 -135.157529 
L 549.112916 -135.310376 
L 548.643248 -135.478996 
L 548.01208 -135.744305 
L 547.390785 -136.00207 
L 546.95753 -136.153419 
L 546.445112 -136.19873 
L 545.906329 -136.325839 
L 545.299125 -136.452663 
L 544.729161 -136.727449 
L 544.21448 -136.797695 
L 543.505954 -137.007921 
L 542.882036 -137.293466 
L 542.488212 -137.492321 
L 541.996894 -137.525943 
L 541.486813 -137.704213 
L 541.008674 -137.973125 
L 540.339193 -138.186192 
L 539.603615 -138.339781 
L 538.916723 -138.506118 
L 538.40603 -138.681028 
L 537.906243 -138.794027 
L 537.391365 -138.922595 
L 536.78789 -138.902892 
L 536.243303 -139.045026 
L 535.732727 -139.031555 
L 535.118125 -139.256701 
L 534.591314 -139.383792 
L 534.058232 -139.488552 
L 533.548681 -139.569536 
L 532.822436 -139.69186 
L 532.221153 -139.828605 
L 531.921975 -140.010281 
L 531.427229 -140.181897 
L 530.632437 -140.340759 
L 530.006433 -140.382836 
L 529.492447 -140.53197 
L 528.894226 -140.583159 
L 528.500358 -140.928623 
L 527.892512 -141.213814 
L 527.113485 -141.438014 
L 526.675913 -141.549373 
L 526.182073 -141.859134 
L 525.645533 -142.07008 
L 525.170729 -142.266765 
L 524.709123 -142.540677 
L 524.187474 -142.72316 
L 523.545294 -142.942732 
L 523.071859 -143.121536 
L 522.593849 -143.397905 
L 521.935128 -143.645723 
L 521.358734 -143.89371 
L 520.818827 -144.12417 
L 520.042852 -144.349752 
L 519.493934 -144.661979 
L 519.135536 -144.851577 
L 518.440593 -145.092119 
L 517.815298 -145.364008 
L 517.273983 -145.679163 
L 516.64308 -145.884145 
L 516.039142 -146.114747 
L 515.516732 -146.308963 
L 515.133995 -146.516913 
L 514.666795 -146.784022 
L 514.061683 -147.031399 
L 513.396489 -147.245821 
L 512.82626 -147.428812 
L 512.263793 -147.612278 
L 511.784134 -147.743868 
L 511.177551 -147.966964 
L 510.648548 -148.047558 
L 510.076397 -148.271449 
L 509.281832 -148.363452 
L 508.79438 -148.42174 
L 508.273467 -148.589146 
L 507.762456 -148.788402 
L 507.29333 -149.006108 
L 506.667758 -149.221791 
L 506.086826 -149.385657 
L 505.508596 -149.698262 
L 505.095147 -149.978379 
L 504.525467 -150.183005 
L 503.818417 -150.438051 
L 503.455002 -150.633558 
L 502.921157 -150.91018 
L 502.390435 -151.004363 
L 501.753641 -151.198693 
L 501.077153 -151.518518 
L 500.501749 -151.702322 
L 499.906723 -151.930011 
L 499.436277 -151.982608 
L 498.951285 -152.18041 
L 498.306065 -152.338681 
L 497.792955 -152.544602 
L 497.424858 -152.664056 
L 496.831587 -152.847286 
L 496.308153 -153.137544 
L 495.814826 -153.381332 
L 494.983111 -153.772009 
L 494.366509 -154.005266 
L 493.829513 -154.322395 
L 493.082217 -154.498955 
L 492.758222 -154.89742 
L 492.213742 -155.167876 
L 491.480225 -155.427885 
L 491.175828 -155.527043 
L 490.790657 -155.65371 
L 489.968046 -155.839966 
L 489.387308 -156.043788 
L 489.001186 -156.281335 
L 488.457724 -156.48757 
L 487.733544 -156.732379 
L 486.957008 -156.992345 
L 486.452769 -157.11807 
L 485.999462 -157.209558 
L 485.595023 -157.452946 
L 484.924965 -157.565472 
L 484.310277 -157.652116 
L 483.862832 -157.913257 
L 483.158754 -158.145201 
L 482.542849 -158.354096 
L 482.050099 -158.702463 
L 481.613755 -159.015506 
L 481.150434 -159.315596 
L 480.525987 -159.825163 
L 480.064844 -160.316609 
L 479.606057 -160.528321 
L 478.887482 -160.988871 
L 478.120001 -161.146212 
L 477.601282 -161.24701 
L 477.280972 -161.381702 
L 476.706906 -161.603462 
L 476.071568 -161.773857 
L 475.379848 -161.895371 
L 474.687121 -162.073935 
L 474.353772 -162.194608 
L 473.94162 -162.214559 
L 473.337725 -162.341745 
L 472.689297 -162.513893 
L 471.992543 -162.771823 
L 471.424289 -162.870105 
L 470.887067 -163.005068 
L 470.486493 -163.012513 
L 470.03349 -162.996076 
L 469.24348 -163.004624 
L 468.595324 -163.092628 
L 468.02814 -163.210016 
L 467.610844 -163.318527 
L 467.284547 -163.393789 
L 466.581904 -163.488428 
L 465.929166 -163.629082 
L 465.545639 -163.83918 
L 464.871817 -164.03373 
L 464.246296 -164.163218 
L 463.829466 -164.320865 
L 463.154006 -164.583348 
L 462.701939 -164.695006 
L 462.117434 -164.846611 
L 461.393717 -165.050308 
L 460.864012 -165.15323 
L 460.239204 -165.214033 
L 459.622569 -165.324082 
L 459.250241 -165.486462 
L 458.83178 -165.760274 
L 458.168503 -165.949078 
L 457.643898 -166.282887 
L 457.204409 -166.537968 
L 456.558025 -166.821833 
L 455.831139 -167.052314 
L 455.367029 -167.248055 
L 454.782231 -167.53709 
L 454.265738 -167.588132 
L 453.934406 -167.674541 
L 453.162373 -167.882916 
L 452.611363 -168.017842 
L 452.234866 -168.19129 
L 451.665338 -168.316875 
L 451.134988 -168.3536 
L 450.448639 -168.422905 
L 449.788952 -168.330905 
L 449.209933 -168.192678 
L 448.809243 -168.118509 
L 448.177572 -168.132187 
L 447.408872 -168.043925 
L 447.055306 -168.022147 
L 446.673331 -167.899177 
L 445.963157 -167.852835 
L 445.376621 -167.937483 
L 444.927925 -167.969263 
L 444.354249 -168.081118 
L 443.621865 -168.111804 
L 442.994484 -168.114398 
L 442.581781 -168.331107 
L 442.012935 -168.428395 
L 441.532492 -168.504302 
L 440.929332 -168.453398 
L 440.228652 -168.430891 
L 439.766566 -168.446872 
L 439.270038 -168.563965 
L 438.821704 -168.509908 
L 438.274378 -168.44295 
L 437.597081 -168.411954 
L 436.882454 -168.400432 
L 436.375588 -168.466678 
L 435.959405 -168.538628 
L 435.228499 -168.709249 
L 434.529684 -168.83251 
L 434.196992 -169.13935 
L 433.874146 -169.461565 
L 433.215044 -169.621567 
L 432.416314 -169.591971 
L 431.974336 -169.684133 
L 431.527219 -169.803505 
L 430.885941 -169.839245 
L 430.355099 -169.821025 
L 429.716495 -169.854823 
L 429.140582 -170.009191 
L 428.619972 -170.177486 
L 428.129882 -170.168578 
L 427.526386 -170.26144 
L 426.884722 -170.27314 
L 426.268481 -170.314809 
L 425.657043 -170.402506 
L 425.277063 -170.365175 
L 424.744448 -170.421549 
L 424.032877 -170.358153 
L 423.382541 -170.415459 
L 422.990934 -170.489654 
L 422.623291 -170.545316 
L 422.094297 -170.487749 
L 421.396995 -170.507705 
L 420.803619 -170.601641 
L 420.415017 -170.57251 
L 419.763088 -170.597177 
L 419.145698 -170.632101 
L 418.517225 -170.702786 
L 417.901741 -170.824207 
L 417.503899 -170.954731 
L 417.102258 -171.200342 
L 416.458891 -171.389674 
L 415.745976 -171.661355 
L 415.063636 -171.929839 
L 414.648426 -172.3233 
L 414.324234 -172.466614 
L 413.740723 -172.572475 
L 413.206033 -172.512879 
L 412.665445 -172.690462 
L 411.843377 -172.853234 
L 411.229779 -172.883204 
L 410.811471 -172.928206 
L 410.292944 -173.089784 
L 409.596198 -173.260379 
L 408.8261 -173.31337 
L 408.528993 -173.472717 
L 408.148909 -173.615407 
L 407.355038 -173.714658 
L 406.840257 -173.753242 
L 406.47204 -173.930078 
L 405.676642 -173.939259 
L 404.957981 -173.916224 
L 404.476895 -174.160763 
L 404.010409 -174.403056 
L 403.422107 -174.485547 
L 402.959605 -174.619214 
L 402.417673 -174.754109 
L 401.884034 -174.815015 
L 401.497024 -175.102585 
L 400.807096 -175.298421 
L 400.252883 -175.274627 
L 399.63808 -175.273779 
L 399.102086 -175.228555 
L 398.712083 -175.114959 
L 398.06689 -175.040781 
L 397.294508 -174.905896 
L 396.833482 -174.830271 
L 396.431916 -174.848467 
L 395.633942 -174.700456 
L 394.91532 -174.636643 
L 394.4188 -174.600643 
L 393.82687 -174.369259 
L 393.381736 -174.09329 
L 392.95544 -173.732019 
L 392.354223 -173.481856 
L 391.934376 -173.144704 
L 391.357277 -172.902721 
L 390.740594 -172.605856 
L 390.0748 -172.424487 
L 389.509005 -172.178334 
L 388.965622 -171.967738 
L 388.34066 -171.935659 
L 387.914305 -171.912974 
L 387.346997 -171.825912 
L 386.710779 -171.906354 
L 386.195632 -172.013821 
L 385.557159 -171.964957 
L 384.857012 -171.950836 
L 384.354247 -171.914639 
L 383.815105 -171.924914 
L 383.299968 -171.852681 
L 382.935033 -171.750992 
L 382.259363 -171.711224 
L 381.55524 -171.663872 
L 381.105128 -171.787932 
L 380.46886 -171.826739 
L 379.896016 -171.924441 
L 379.476702 -172.011119 
L 378.966055 -171.886881 
L 378.404014 -171.897992 
L 377.71758 -171.759836 
L 377.034237 -171.917647 
L 376.478376 -171.939976 
L 376.093286 -171.932605 
L 375.551486 -172.055125 
L 374.894649 -172.223555 
L 374.480453 -172.227327 
L 374.066658 -172.264866 
L 373.444241 -172.38884 
L 372.642849 -172.556425 
L 372.176981 -172.535039 
L 371.889146 -172.480966 
L 371.28495 -172.172697 
L 370.650933 -172.137333 
L 369.941247 -172.135574 
L 369.322996 -172.066027 
L 368.911727 -171.938095 
L 368.330041 -171.678282 
L 367.834054 -171.567067 
L 367.256448 -171.298695 
L 366.551855 -171.079444 
L 366.049955 -170.767768 
L 365.621942 -170.483839 
L 365.008303 -170.323662 
L 364.317702 -170.140233 
L 363.719185 -169.948363 
L 363.359677 -169.77131 
L 362.961404 -169.669507 
L 362.391536 -169.429426 
L 361.686992 -169.280879 
L 360.904547 -168.91072 
L 360.549935 -168.642018 
L 360.120808 -168.27219 
L 359.466257 -167.968399 
L 358.886849 -167.693835 
L 358.2469 -167.535795 
L 357.725607 -167.448109 
L 357.250497 -167.369913 
L 356.64532 -167.227531 
L 356.13156 -167.130477 
L 355.568632 -167.057023 
L 354.898304 -167.024066 
L 354.334181 -167.143179 
L 353.916155 -167.127138 
L 353.498984 -167.148097 
L 352.751356 -167.052726 
L 351.969002 -166.816614 
L 351.403008 -166.521159 
L 350.86882 -166.175605 
L 350.520858 -165.994365 
L 350.047592 -165.911747 
L 349.246812 -165.805798 
L 348.824558 -165.554154 
L 348.528815 -165.455612 
L 347.813524 -165.136996 
L 347.095645 -164.645788 
L 346.599404 -164.229744 
L 346.196235 -163.753488 
L 345.702141 -163.481032 
L 345.068467 -163.171498 
L 344.516727 -162.842273 
L 343.927658 -162.634693 
L 343.145553 -162.264142 
L 342.430808 -161.883765 
L 341.866748 -161.627902 
L 341.407413 -161.414242 
L 341.036972 -161.189976 
L 340.540922 -161.077327 
L 339.944315 -160.815537 
L 339.351195 -160.534592 
L 338.84696 -160.241927 
L 338.206015 -159.880255 
L 337.491498 -159.603956 
L 337.123451 -159.49028 
L 336.735113 -159.45127 
L 336.089352 -159.236228 
L 335.43408 -159.137852 
L 334.736541 -159.106952 
L 334.155456 -158.911436 
L 333.64387 -158.886181 
L 333.098611 -158.925294 
L 332.582783 -158.998078 
L 331.962535 -158.896501 
L 331.554217 -158.979341 
L 331.14876 -158.982704 
L 330.51005 -158.832466 
L 330.000281 -158.676325 
L 329.328087 -158.721886 
L 328.64205 -158.448323 
L 328.292992 -158.015796 
L 327.869375 -157.561576 
L 327.267156 -157.258372 
L 326.67726 -156.76403 
L 326.157092 -156.249932 
L 325.564372 -156.028852 
L 325.003348 -155.510587 
L 324.376306 -154.89897 
L 323.652604 -154.11294 
L 323.024565 -153.856976 
L 322.444311 -153.499525 
L 321.973832 -153.037887 
L 321.513062 -152.628314 
L 320.918945 -152.212959 
L 320.369285 -151.82973 
L 319.942439 -151.252675 
L 319.484047 -150.767388 
L 318.799331 -150.420032 
L 318.244479 -149.814382 
L 317.714446 -149.305433 
L 316.968632 -148.871719 
L 316.34534 -148.29382 
L 315.766763 -147.941743 
L 315.170798 -147.613432 
L 314.78165 -146.964742 
L 314.248987 -146.552619 
L 313.536117 -146.190375 
L 313.033151 -145.860848 
L 312.653465 -145.364946 
L 312.078522 -145.071734 
L 311.375181 -144.640814 
L 310.910133 -144.384076 
L 310.504921 -144.05485 
L 310.019684 -143.643589 
L 309.191879 -143.310165 
L 308.361522 -142.946466 
L 307.990704 -142.538162 
L 307.526116 -142.265291 
L 307.056671 -141.938257 
L 306.495853 -141.614041 
L 305.820326 -141.248567 
L 305.18733 -140.845408 
L 304.511296 -140.444044 
L 304.033545 -139.992551 
L 303.713102 -139.84386 
L 303.321479 -139.479588 
L 302.70746 -139.177683 
L 302.089478 -138.842046 
L 301.566162 -138.547875 
L 301.067028 -138.342961 
L 300.484118 -138.065165 
L 299.721454 -137.832475 
L 298.979728 -137.578339 
L 298.597599 -137.130927 
L 298.057295 -136.823053 
L 297.53196 -136.503625 
L 296.986341 -136.180794 
L 296.25442 -135.735334 
L 295.626023 -135.407233 
L 295.203225 -134.933291 
L 294.793042 -134.562671 
L 294.208801 -134.301837 
L 293.672955 -133.983449 
L 293.136185 -133.779405 
L 292.65112 -133.589519 
L 291.875691 -133.411648 
L 291.237895 -133.180634 
L 290.713584 -132.701074 
L 290.012906 -132.344517 
L 289.629911 -132.202276 
L 289.089705 -131.999368 
L 288.326299 -131.649864 
L 287.943729 -131.244033 
L 287.567617 -131.047945 
L 286.907062 -130.831809 
L 286.269357 -130.679379 
L 285.646249 -130.502451 
L 285.010775 -130.255618 
L 284.535536 -130.050749 
L 284.077171 -129.81557 
L 283.653434 -129.531886 
L 283.178978 -129.237358 
L 282.573229 -128.948609 
L 282.036697 -128.675603 
L 281.297088 -128.557127 
L 280.73811 -128.323682 
L 280.359476 -128.211528 
L 279.652287 -127.931856 
L 278.959456 -127.662475 
L 278.429736 -127.449224 
L 278.027662 -127.12551 
L 277.47271 -126.917387 
L 276.675499 -126.798388 
L 276.152866 -126.477023 
L 275.815669 -126.152182 
L 275.216261 -125.886969 
L 274.581614 -125.770966 
L 274.005834 -125.550605 
L 273.417037 -125.356058 
L 272.927753 -125.180515 
L 272.304618 -125.066374 
L 271.824719 -124.851441 
L 271.322978 -124.609948 
L 270.667124 -124.416632 
L 270.252049 -124.204281 
L 269.747319 -123.901924 
L 269.017512 -123.458265 
L 268.40641 -123.305043 
L 267.853251 -123.20298 
L 267.186442 -123.038989 
L 266.799075 -122.898438 
L 266.330233 -122.695632 
L 265.756799 -122.480989 
L 265.097358 -122.362744 
L 264.372219 -122.082717 
L 264.020739 -121.910681 
L 263.59435 -121.675056 
L 263.029847 -121.488787 
L 262.452255 -121.42606 
L 261.853299 -121.380701 
L 261.275564 -121.076824 
L 260.751415 -121.016563 
L 260.20218 -120.614503 
L 259.528432 -120.355371 
L 258.983148 -120.133461 
L 258.437346 -119.957191 
L 257.756798 -119.694971 
L 257.0922 -119.438022 
L 256.487867 -119.310718 
L 255.928281 -119.140206 
L 255.448722 -119.016177 
L 254.998244 -118.893987 
L 254.591437 -118.730958 
L 254.065776 -118.459354 
L 253.304914 -118.383761 
L 252.751164 -118.394399 
L 252.255364 -118.31271 
L 251.788466 -118.115346 
L 251.224541 -117.961419 
L 250.483256 -117.838115 
L 250.02608 -117.820733 
L 249.600449 -117.622991 
L 248.907089 -117.525177 
L 248.326528 -117.34651 
L 247.811289 -117.293856 
L 247.148702 -117.206414 
L 246.634945 -117.195361 
L 246.071325 -117.034485 
L 245.469005 -117.000457 
L 245.06652 -116.807813 
L 244.592462 -116.797448 
L 243.86443 -116.557748 
L 243.218786 -116.472491 
L 242.626427 -116.345225 
L 242.198431 -116.258128 
L 241.816002 -116.050171 
L 241.281932 -115.925442 
L 240.775909 -115.931366 
L 240.12378 -115.850978 
L 239.574889 -115.793521 
L 239.038059 -115.64385 
L 238.424113 -115.461958 
L 237.723612 -115.391784 
L 237.0737 -115.29167 
L 236.622121 -115.298051 
L 236.144675 -115.179776 
L 235.624544 -115.185855 
L 235.004214 -115.172421 
L 234.267288 -115.08594 
L 233.640648 -115.108265 
L 233.240967 -115.12531 
L 232.799235 -115.109544 
L 232.186638 -115.023014 
L 231.508398 -115.029137 
L 230.870244 -114.952976 
L 230.421443 -114.968598 
L 229.857682 -115.0092 
L 229.263609 -114.964422 
L 228.693797 -114.934877 
L 228.170472 -114.873097 
L 227.643221 -114.813188 
L 227.137339 -114.767898 
L 226.654577 -114.73777 
L 226.163088 -114.687845 
L 225.601261 -114.500406 
L 224.975898 -114.453361 
L 224.484335 -114.366109 
L 223.857902 -114.286651 
L 223.164411 -114.267413 
L 222.67779 -114.209489 
L 222.149012 -114.249976 
L 221.65114 -114.259877 
L 221.182623 -114.298577 
L 220.563954 -114.319468 
L 220.007044 -114.372923 
L 219.269229 -114.399778 
L 218.71355 -114.456425 
L 218.322057 -114.53218 
L 217.687534 -114.525329 
L 217.028145 -114.580007 
L 216.537052 -114.575728 
L 215.917182 -114.50599 
L 215.370619 -114.431738 
L 214.973035 -114.316819 
L 214.460795 -114.420749 
L 213.950402 -114.364633 
L 213.349346 -114.25635 
L 212.771289 -114.184019 
L 212.159243 -114.141513 
L 211.420749 -113.980675 
L 210.846352 -113.879742 
L 210.372985 -113.902681 
L 209.97379 -113.882496 
L 209.410221 -113.901459 
L 208.795166 -113.856192 
L 208.324053 -113.849931 
L 207.64828 -113.790307 
L 207.085119 -113.647342 
L 206.540047 -113.629998 
L 205.796366 -113.558193 
L 205.263331 -113.49887 
L 204.839002 -113.375907 
L 204.248999 -113.278138 
L 203.684369 -113.086701 
L 203.141081 -112.918269 
L 202.540966 -112.853664 
L 202.080414 -112.721835 
L 201.6708 -112.689931 
L 201.094483 -112.545418 
L 200.506168 -112.536234 
L 199.954169 -112.50098 
L 199.340677 -112.400031 
L 198.66468 -112.310883 
L 198.068977 -112.281742 
L 197.55996 -112.092628 
L 196.926321 -111.97539 
L 196.387514 -111.930951 
L 195.909938 -111.821697 
L 195.464405 -111.724514 
L 194.894406 -111.727007 
L 194.196263 -111.562456 
L 193.603504 -111.339903 
L 193.124152 -111.186973 
L 192.700755 -110.955853 
L 192.218189 -110.855006 
L 191.671287 -110.807475 
L 190.85607 -110.843477 
L 190.098004 -110.85891 
L 189.598249 -110.819218 
L 189.214083 -110.869606 
L 188.673953 -110.75386 
L 188.039042 -110.747211 
L 187.574435 -110.75521 
L 187.007181 -110.716231 
L 186.49894 -110.609748 
L 186.063323 -110.587395 
L 185.4442 -110.580355 
L 184.689752 -110.618173 
L 183.99153 -110.620242 
L 183.426089 -110.672371 
L 182.908708 -110.699437 
L 182.42373 -110.663323 
L 181.829343 -110.670747 
L 181.259886 -110.753875 
L 180.906546 -110.854834 
L 180.334838 -110.874359 
L 179.749846 -110.906924 
L 179.170664 -110.918936 
L 178.445197 -110.926079 
L 177.867457 -110.840165 
L 177.359375 -110.782155 
L 176.941844 -110.690553 
L 176.468543 -110.652366 
L 175.88824 -110.658869 
L 175.228625 -110.588956 
L 174.707098 -110.57844 
L 174.297308 -110.587762 
L 173.594459 -110.501749 
L 172.833515 -110.407069 
L 172.371111 -110.360867 
L 171.832437 -110.417241 
L 171.271264 -110.45585 
L 170.712174 -110.408851 
L 170.08727 -110.362257 
L 169.595357 -110.373269 
L 169.18898 -110.338348 
L 168.742615 -110.304351 
L 168.123603 -110.234783 
L 167.614954 -110.076221 
L 167.059522 -110.045103 
L 166.296597 -109.923901 
L 165.699233 -109.910634 
L 165.237179 -109.74578 
L 164.585283 -109.681824 
L 164.007085 -109.609259 
L 163.629134 -109.477392 
L 163.124459 -109.322618 
L 162.381533 -109.13865 
L 161.769085 -108.927836 
L 161.23057 -108.858352 
L 160.64512 -108.654934 
L 160.189136 -108.675492 
L 159.581726 -108.539923 
L 159.07069 -108.248336 
L 158.695588 -108.131608 
L 158.109405 -107.991006 
L 157.418926 -107.729962 
L 156.73099 -107.457258 
L 156.249736 -107.408395 
L 155.837675 -107.532673 
L 155.21976 -107.578363 
L 154.569751 -107.42472 
L 153.907735 -107.467791 
L 153.357446 -107.696397 
L 152.887897 -107.803673 
L 152.41674 -108.008071 
L 151.839417 -108.306921 
L 151.198156 -108.443946 
L 150.787331 -108.536269 
L 150.19118 -108.644425 
L 149.567669 -108.752496 
L 149.111408 -108.747842 
L 148.617493 -108.843476 
L 147.924722 -108.952911 
L 147.188693 -108.968115 
L 146.718765 -108.954097 
L 146.299263 -108.979408 
L 145.691391 -109.051484 
L 145.133658 -109.122875 
L 144.659971 -109.098745 
L 144.097864 -109.146369 
L 143.581881 -109.073779 
L 143.10162 -109.045646 
L 142.56993 -109.010595 
L 141.795578 -108.89117 
L 141.03563 -108.704269 
L 140.604746 -108.600065 
L 140.13571 -108.479533 
L 139.513862 -108.457711 
L 139.095399 -108.332488 
L 138.687099 -108.193005 
L 137.879568 -108.158697 
L 137.068226 -108.032893 
L 136.705937 -107.959855 
L 136.269603 -107.885581 
L 135.693404 -107.834696 
L 135.133825 -107.640306 
L 134.594712 -107.583155 
L 133.95208 -107.482582 
L 133.282358 -107.147941 
L 132.875333 -106.956305 
L 132.340407 -106.765769 
L 131.640487 -106.418398 
L 131.192407 -106.163126 
L 130.620328 -105.985455 
L 129.883486 -105.737455 
L 129.336306 -105.449932 
L 128.825256 -105.151157 
L 128.41085 -104.846311 
L 127.828192 -104.609456 
L 127.311123 -104.463653 
L 126.814051 -104.49282 
L 126.096515 -104.253764 
L 125.594041 -104.062426 
L 125.108852 -103.624382 
L 124.501171 -103.447765 
L 123.934547 -103.200435 
L 123.422091 -102.971054 
L 122.866032 -102.803472 
L 122.146249 -102.598489 
L 121.460892 -102.400659 
L 120.990728 -102.203655 
L 120.683791 -101.996093 
L 120.047939 -101.875091 
L 119.271808 -101.816934 
L 118.839457 -101.638007 
L 118.269924 -101.384887 
L 117.766052 -101.353583 
L 117.366125 -101.166318 
L 116.74838 -100.979124 
L 116.260936 -100.753415 
L 115.570954 -100.585823 
L 114.822069 -100.465265 
L 114.316782 -100.131031 
L 113.703025 -100.038608 
L 113.096819 -100.092237 
L 112.601347 -99.976213 
L 112.28629 -99.768238 
L 111.847748 -99.693055 
L 111.039283 -99.578949 
L 110.430897 -99.397055 
L 109.929519 -99.324558 
L 109.394012 -99.191759 
L 108.983578 -99.130301 
L 108.452943 -99.028009 
L 107.834703 -98.872233 
L 107.100813 -98.795455 
L 106.635787 -98.776037 
L 106.288772 -98.689896 
L 105.515221 -98.569203 
L 104.966208 -98.569571 
L 104.601972 -98.466383 
L 104.067622 -98.485996 
L 103.373488 -98.401073 
L 102.780808 -98.414473 
L 102.280494 -98.77421 
L 101.710257 -98.817091 
L 101.062069 -98.913317 
L 100.31622 -99.109386 
L 99.961265 -99.206499 
L 99.543178 -99.394136 
L 98.754097 -99.575022 
L 98.079639 -99.677874 
L 97.578395 -99.767665 
L 97.202789 -99.744495 
L 96.622825 -99.779558 
L 95.837862 -99.853714 
L 95.311097 -99.984869 
L 94.960871 -100.040287 
L 94.353332 -100.178252 
L 93.762851 -100.497018 
L 93.31732 -100.714696 
L 92.663039 -101.067961 
L 92.210287 -101.449685 
L 91.734468 -101.845207 
L 91.00367 -102.201444 
L 90.274233 -102.582954 
L 89.739536 -102.927218 
L 89.289118 -103.107893 
L 88.785966 -103.483649 
L 88.144876 -103.894102 
L 87.583216 -104.199835 
L 87.06728 -104.458584 
L 86.356441 -104.703255 
L 85.971131 -104.894437 
L 85.59722 -105.060441 
L 85.065399 -105.291569 
L 84.395192 -105.693802 
L 83.677171 -106.07909 
L 83.292279 -106.423919 
L 82.730585 -106.751842 
L 81.976373 -107.034427 
L 81.448423 -107.378384 
L 80.93593 -107.693517 
L 80.448703 -107.862101 
L 80.040936 -108.086831 
L 79.502036 -108.189658 
L 78.928576 -108.195406 
L 78.377407 -108.306183 
L 77.705885 -108.344091 
L 76.992698 -108.356841 
L 76.394233 -108.399162 
L 75.831218 -108.498379 
L 75.259026 -108.50047 
L 74.688504 -108.749741 
L 74.220203 -108.934886 
L 73.617256 -109.082612 
L 72.948059 -109.302322 
L 72.560446 -109.419045 
L 72.129773 -109.543419 
L 71.626694 -109.670787 
L 71.043375 -109.816424 
L 70.505847 -109.860388 
L 69.85995 -109.959501 
L 69.24161 -109.839318 
L 68.686239 -109.757781 
L 68.066576 -109.733358 
L 67.664047 -109.747154 
L 67.078941 -109.669214 
L 66.478413 -109.841675 
L 65.977979 -109.835572 
L 65.360241 -109.76837 
L 64.631183 -109.792196 
L 63.996308 -109.789784 
L 63.640429 -109.799457 
L 63.209617 -109.710082 
L 62.639363 -109.571453 
L 62.148473 -109.460814 
L 61.500599 -109.252471 
L 60.863565 -108.988286 
L 60.321739 -108.745522 
L 59.82593 -108.493512 
L 59.282328 -108.057012 
L 58.542214 -107.730252 
L 58.12625 -107.49523 
L 57.575772 -107.590982 
L 56.918995 -107.433655 
L 56.543926 -107.45673 
L 55.835747 -107.211987 
L 55.298291 -106.89935 
L 54.905236 -106.358856 
L 54.218999 -105.961283 
L 53.484555 -105.478116 
L 53.047734 -104.906581 
L 52.573961 -103.920446 
L 51.856701 -103.604117 
L 51.410295 -103.811273 
L 51.043724 -104.15069 
L 50.345495 -104.161772 
L 49.518015 -104.296314 
L 48.961728 -104.781357 
L 48.405997 -105.213354 
L 48.004198 -105.69933 
L 47.716307 -106.088112 
L 47.068137 -107.343181 
L 46.438806 -108.398658 
L 45.825493 -109.944226 
L 45.186801 -112.013724 
L 44.668654 -114.219818 
L 44.077949 -115.175719 
z
" style="stroke: #808080; stroke-opacity: 0.5"/>
    </defs>
    <g clip-path="url(#p656d85c308)">
     <use xlink:href="#mbde0314e67" x="0" y="276.657188" style="fill: #808080; fill-opacity: 0.5; stroke: #808080; stroke-opacity: 0.5"/>
    </g>
   </g>
   <g id="line2d_23">
    <path d="M 44.077949 166.602888 
L 44.668654 167.401852 
L 45.186801 168.96286 
L 46.438806 171.703363 
L 47.716307 173.505693 
L 48.405997 173.988113 
L 49.518015 174.722227 
L 51.043724 174.494046 
L 51.856701 174.821799 
L 52.573961 174.420991 
L 53.484555 172.842176 
L 55.835747 171.450818 
L 57.575772 171.137093 
L 58.12625 171.134408 
L 60.321739 170.280664 
L 63.209617 169.798159 
L 63.996308 169.830778 
L 69.24161 170.030573 
L 69.85995 169.978214 
L 72.560446 170.499485 
L 75.259026 171.26804 
L 76.394233 171.434419 
L 80.448703 171.815118 
L 81.448423 172.165969 
L 81.976373 172.403598 
L 83.292279 172.851465 
L 83.677171 173.090464 
L 88.144876 174.55193 
L 91.734468 176.088742 
L 92.663039 176.822927 
L 93.762851 177.417397 
L 95.311097 177.966954 
L 98.079639 178.368831 
L 99.961265 179.150609 
L 100.31622 179.407841 
L 102.280494 180.204295 
L 102.780808 180.683668 
L 104.601972 180.890565 
L 105.515221 180.733602 
L 106.288772 180.595019 
L 107.100813 180.184637 
L 113.096819 178.239866 
L 114.316782 178.102423 
L 114.822069 177.886402 
L 115.570954 177.732156 
L 119.271808 176.302107 
L 120.683791 176.112988 
L 121.460892 175.663485 
L 123.934547 174.974103 
L 126.814051 173.926501 
L 127.311123 173.890476 
L 128.825256 173.274474 
L 129.883486 172.831653 
L 132.875333 171.861513 
L 133.282358 171.634452 
L 134.594712 171.300388 
L 137.879568 170.712152 
L 138.687099 170.643878 
L 139.513862 170.30395 
L 141.03563 170.033489 
L 143.10162 169.637405 
L 147.924722 169.617107 
L 151.839417 170.047489 
L 153.357446 170.438315 
L 154.569751 170.622982 
L 155.21976 170.494939 
L 156.249736 170.5561 
L 159.581726 169.729045 
L 161.23057 169.551811 
L 161.769085 169.464799 
L 164.007085 168.702416 
L 167.059522 168.234815 
L 168.123603 168.009063 
L 174.707098 167.472866 
L 177.867457 167.244446 
L 179.170664 167.157604 
L 180.906546 167.140398 
L 182.42373 167.283853 
L 183.426089 167.25094 
L 186.063323 167.315548 
L 189.598249 166.978809 
L 190.85607 166.948162 
L 192.218189 166.932987 
L 193.124152 166.742235 
L 194.196263 166.426618 
L 203.684369 164.914161 
L 204.248999 164.666634 
L 207.64828 164.254711 
L 211.420749 164.016799 
L 212.771289 163.818465 
L 214.460795 163.606157 
L 215.370619 163.642602 
L 217.028145 163.618112 
L 222.149012 164.117407 
L 222.67779 164.161632 
L 223.857902 164.016185 
L 225.601261 163.847548 
L 226.163088 163.657228 
L 228.693797 163.507344 
L 230.870244 163.627742 
L 233.240967 163.575716 
L 234.267288 163.660193 
L 235.624544 163.565474 
L 237.723612 163.602354 
L 239.038059 163.506519 
L 242.198431 163.019702 
L 244.592462 162.558785 
L 245.469005 162.375067 
L 246.634945 162.125971 
L 247.811289 161.914668 
L 248.907089 161.763857 
L 254.998244 161.130764 
L 258.437346 160.252676 
L 258.983148 160.16678 
L 260.751415 159.422608 
L 261.275564 159.319758 
L 261.853299 159.064593 
L 263.029847 159.040542 
L 266.799075 157.927861 
L 269.017512 157.384904 
L 270.252049 156.749418 
L 270.667124 156.49614 
L 271.322978 156.358275 
L 272.304618 155.894982 
L 272.927753 155.783271 
L 274.005834 155.285518 
L 275.815669 154.594162 
L 276.152866 154.25721 
L 276.675499 154.041193 
L 277.47271 153.922287 
L 278.027662 153.725788 
L 278.429736 153.398534 
L 281.297088 152.170867 
L 282.036697 152.040041 
L 283.653434 151.00784 
L 284.535536 150.310482 
L 286.269357 149.463355 
L 287.567617 149.067132 
L 287.943729 148.84289 
L 288.326299 148.472665 
L 290.012906 147.561162 
L 293.136185 145.88682 
L 298.597599 142.239159 
L 298.979728 141.738289 
L 301.067028 140.894586 
L 302.70746 139.925238 
L 303.321479 139.525312 
L 304.511296 138.30172 
L 305.820326 137.483714 
L 307.056671 136.697207 
L 308.361522 135.529343 
L 310.019684 134.758572 
L 310.910133 133.950729 
L 312.653465 132.683226 
L 313.033151 132.24856 
L 314.78165 130.996224 
L 315.170798 130.515182 
L 316.34534 129.735045 
L 316.968632 129.166286 
L 318.244479 128.355105 
L 318.799331 127.821668 
L 319.484047 127.507496 
L 323.024565 124.611486 
L 323.652604 124.343403 
L 325.564372 123.002019 
L 326.67726 122.396129 
L 327.267156 122.000382 
L 327.869375 121.766732 
L 328.292992 121.479554 
L 328.64205 121.104287 
L 329.328087 120.863873 
L 330.51005 120.728338 
L 331.554217 120.444534 
L 333.64387 120.178004 
L 334.155456 120.133589 
L 334.736541 119.904925 
L 336.735113 119.489024 
L 341.036972 117.730864 
L 341.866748 117.303284 
L 345.702141 115.88716 
L 346.196235 115.658365 
L 347.095645 114.959565 
L 347.813524 114.617777 
L 348.824558 114.210226 
L 349.246812 114.015284 
L 350.520858 113.834006 
L 351.969002 113.054341 
L 353.916155 112.578227 
L 354.898304 112.588214 
L 356.13156 112.488912 
L 358.2469 111.946559 
L 359.466257 111.540403 
L 360.120808 111.340589 
L 360.904547 110.842335 
L 361.686992 110.534424 
L 363.359677 110.159213 
L 364.317702 109.756634 
L 365.621942 109.481658 
L 366.049955 109.184727 
L 367.834054 108.544857 
L 368.911727 108.106344 
L 369.322996 107.881317 
L 369.941247 107.774949 
L 371.28495 107.744178 
L 372.642849 107.466662 
L 375.551486 107.526905 
L 377.71758 107.529362 
L 378.404014 107.399381 
L 378.966055 107.417837 
L 379.476702 107.313076 
L 381.55524 107.498577 
L 386.710779 107.133482 
L 387.346997 107.193996 
L 389.509005 106.881763 
L 393.82687 105.325123 
L 394.91532 105.013171 
L 396.833482 104.821485 
L 397.294508 104.661344 
L 400.807096 104.288134 
L 404.476895 105.046144 
L 404.957981 105.211772 
L 406.47204 105.173429 
L 407.355038 105.330774 
L 408.528993 105.560774 
L 408.8261 105.686756 
L 410.292944 105.878537 
L 411.229779 106.064325 
L 411.843377 106.050162 
L 414.648426 106.45428 
L 415.063636 106.834455 
L 417.901741 107.741015 
L 419.763088 108.026068 
L 422.623291 107.956404 
L 423.382541 108.108015 
L 428.619972 108.480508 
L 429.716495 108.888616 
L 431.974336 109.06773 
L 432.416314 109.155661 
L 433.215044 109.165266 
L 433.874146 109.296872 
L 434.529684 109.795173 
L 436.882454 110.066639 
L 442.581781 110.246108 
L 442.994484 110.381765 
L 447.408872 110.577465 
L 450.448639 110.432638 
L 452.234866 110.697745 
L 452.611363 110.873349 
L 454.782231 111.223002 
L 456.558025 111.746477 
L 457.643898 112.102641 
L 458.168503 112.363119 
L 458.83178 112.52305 
L 459.622569 112.952415 
L 463.154006 113.583925 
L 465.545639 114.291516 
L 466.581904 114.498935 
L 471.992543 115.437279 
L 473.337725 115.820125 
L 476.706906 116.463461 
L 478.120001 117.129643 
L 478.887482 117.336833 
L 481.150434 118.931964 
L 483.158754 119.965156 
L 489.387308 121.807477 
L 492.758222 122.991887 
L 493.082217 123.322347 
L 496.308153 124.649912 
L 498.306065 125.550348 
L 501.077153 126.451786 
L 502.390435 126.858678 
L 502.921157 126.975398 
L 506.086826 128.491223 
L 509.281832 129.467531 
L 511.177551 129.821515 
L 515.133995 131.422998 
L 516.64308 132.1884 
L 517.815298 132.6842 
L 520.042852 133.758471 
L 521.358734 134.225187 
L 521.935128 134.598414 
L 522.593849 134.863263 
L 523.545294 135.472805 
L 524.709123 135.953178 
L 526.675913 137.15112 
L 527.113485 137.346906 
L 527.892512 137.551908 
L 529.492447 138.258685 
L 531.921975 138.874418 
L 532.822436 139.235771 
L 533.548681 139.318029 
L 534.591314 139.59041 
L 536.243303 139.940279 
L 538.916723 140.346066 
L 541.008674 140.956479 
L 541.996894 141.386579 
L 548.643248 143.263998 
L 549.670818 143.675531 
L 551.789924 144.337485 
L 553.123744 144.579256 
L 553.646534 144.945711 
L 554.663403 145.320284 
L 557.270352 146.352095 
L 560.289281 147.119957 
L 565.930622 147.642616 
L 566.936994 147.490003 
L 567.83881 147.510388 
L 569.962738 147.42981 
L 572.109936 147.805935 
L 573.038419 148.059306 
L 574.372217 148.158437 
L 575.413804 148.199123 
L 576.492812 148.682121 
L 577.276877 148.798585 
L 577.64551 148.975142 
L 577.987863 149.298934 
L 579.204242 149.596586 
L 579.843512 149.736979 
L 580.384493 149.739806 
L 582.107897 150.188025 
L 583.77366 150.29933 
L 586.096188 150.826367 
L 587.182372 151.250837 
L 588.232112 151.592854 
L 588.960015 151.678956 
L 589.996537 152.084803 
L 590.56177 152.246355 
L 591.075716 152.594348 
L 591.545996 153.061111 
L 594.965617 155.303239 
L 596.757152 155.985726 
L 599.933829 159.073349 
L 600.624607 160.2981 
L 601.043543 160.676291 
L 601.298652 159.185146 
L 601.298652 159.185146 
" clip-path="url(#p656d85c308)" style="fill: none; stroke: #1f77b4; stroke-width: 1.5; stroke-linecap: round"/>
   </g>
   <g id="patch_3">
    <path d="M 43.585938 243.549375 
L 43.585938 21.789375 
" style="fill: none; stroke: #cccccc; stroke-linejoin: miter; stroke-linecap: square"/>
   </g>
   <g id="patch_4">
    <path d="M 601.585938 243.549375 
L 601.585938 21.789375 
" style="fill: none; stroke: #cccccc; stroke-linejoin: miter; stroke-linecap: square"/>
   </g>
   <g id="patch_5">
    <path d="M 43.585938 243.549375 
L 601.585938 243.549375 
" style="fill: none; stroke: #cccccc; stroke-linejoin: miter; stroke-linecap: square"/>
   </g>
   <g id="patch_6">
    <path d="M 43.585938 21.789375 
L 601.585938 21.789375 
" style="fill: none; stroke: #cccccc; stroke-linejoin: miter; stroke-linecap: square"/>
   </g>
   <g id="text_14">
    <!-- help others -->
    <g style="fill: #262626" transform="translate(292.901875 15.789375) scale(0.12 -0.12)">
     <defs>
      <path id="ArialMT-20" transform="scale(0.015625)"/>
      <path id="ArialMT-74" d="M 1650 503 
L 1731 6 
Q 1494 -44 1306 -44 
Q 1000 -44 831 53 
Q 663 150 594 308 
Q 525 466 525 972 
L 525 2881 
L 113 2881 
L 113 3319 
L 525 3319 
L 525 4141 
L 1084 4478 
L 1084 3319 
L 1650 3319 
L 1650 2881 
L 1084 2881 
L 1084 941 
Q 1084 700 1114 631 
Q 1144 563 1211 522 
Q 1278 481 1403 481 
Q 1497 481 1650 503 
z
" transform="scale(0.015625)"/>
     </defs>
     <use xlink:href="#ArialMT-68"/>
     <use xlink:href="#ArialMT-65" transform="translate(55.615234 0)"/>
     <use xlink:href="#ArialMT-6c" transform="translate(111.230469 0)"/>
     <use xlink:href="#ArialMT-70" transform="translate(133.447266 0)"/>
     <use xlink:href="#ArialMT-20" transform="translate(189.0625 0)"/>
     <use xlink:href="#ArialMT-6f" transform="translate(216.845703 0)"/>
     <use xlink:href="#ArialMT-74" transform="translate(272.460938 0)"/>
     <use xlink:href="#ArialMT-68" transform="translate(300.244141 0)"/>
     <use xlink:href="#ArialMT-65" transform="translate(355.859375 0)"/>
     <use xlink:href="#ArialMT-72" transform="translate(411.474609 0)"/>
     <use xlink:href="#ArialMT-73" transform="translate(444.775391 0)"/>
    </g>
   </g>
  </g>
 </g>
 <defs>
  <clipPath id="p656d85c308">
   <rect x="43.585938" y="21.789375" width="558" height="221.76"/>
  </clipPath>
 </defs>
</svg>
