<?xml version="1.0" encoding="utf-8" standalone="no"?>
<!DOCTYPE svg PUBLIC "-//W3C//DTD SVG 1.1//EN"
  "http://www.w3.org/Graphics/SVG/1.1/DTD/svg11.dtd">
<svg xmlns:xlink="http://www.w3.org/1999/xlink" width="627.248125pt" height="283.57pt" viewBox="0 0 627.248125 283.57" xmlns="http://www.w3.org/2000/svg" version="1.1">
 <metadata>
  <rdf:RDF xmlns:dc="http://purl.org/dc/elements/1.1/" xmlns:cc="http://creativecommons.org/ns#" xmlns:rdf="http://www.w3.org/1999/02/22-rdf-syntax-ns#">
   <cc:Work>
    <dc:type rdf:resource="http://purl.org/dc/dcmitype/StillImage"/>
    <dc:date>2024-03-18T11:19:51.706126</dc:date>
    <dc:format>image/svg+xml</dc:format>
    <dc:creator>
     <cc:Agent>
      <dc:title>Matplotlib v3.8.3, https://matplotlib.org/</dc:title>
     </cc:Agent>
    </dc:creator>
   </cc:Work>
  </rdf:RDF>
 </metadata>
 <defs>
  <style type="text/css">*{stroke-linejoin: round; stroke-linecap: butt}</style>
 </defs>
 <g id="figure_1">
  <g id="patch_1">
   <path d="M 0 283.57 
L 627.248125 283.57 
L 627.248125 0 
L 0 0 
z
" style="fill: #ffffff"/>
  </g>
  <g id="axes_1">
   <g id="patch_2">
    <path d="M 54.096563 244.078125 
L 612.096563 244.078125 
L 612.096563 22.318125 
L 54.096563 22.318125 
z
" style="fill: #e5e5e5"/>
   </g>
   <g id="matplotlib.axis_1">
    <g id="xtick_1">
     <g id="line2d_1">
      <path d="M 54.096563 244.078125 
L 54.096563 22.318125 
" clip-path="url(#p62a9c7aaed)" style="fill: none; stroke: #ffffff; stroke-width: 0.8; stroke-linecap: square"/>
     </g>
     <g id="line2d_2">
      <defs>
       <path id="mbd15ba6710" d="M 0 0 
L 0 3.5 
" style="stroke: #555555; stroke-width: 0.8"/>
      </defs>
      <g>
       <use xlink:href="#mbd15ba6710" x="54.096563" y="244.078125" style="fill: #555555; stroke: #555555; stroke-width: 0.8"/>
      </g>
     </g>
     <g id="text_1">
      <!-- 0.0 -->
      <g style="fill: #555555" transform="translate(46.145 258.676562) scale(0.1 -0.1)">
       <defs>
        <path id="DejaVuSans-30" d="M 2034 4250 
Q 1547 4250 1301 3770 
Q 1056 3291 1056 2328 
Q 1056 1369 1301 889 
Q 1547 409 2034 409 
Q 2525 409 2770 889 
Q 3016 1369 3016 2328 
Q 3016 3291 2770 3770 
Q 2525 4250 2034 4250 
z
M 2034 4750 
Q 2819 4750 3233 4129 
Q 3647 3509 3647 2328 
Q 3647 1150 3233 529 
Q 2819 -91 2034 -91 
Q 1250 -91 836 529 
Q 422 1150 422 2328 
Q 422 3509 836 4129 
Q 1250 4750 2034 4750 
z
" transform="scale(0.015625)"/>
        <path id="DejaVuSans-2e" d="M 684 794 
L 1344 794 
L 1344 0 
L 684 0 
L 684 794 
z
" transform="scale(0.015625)"/>
       </defs>
       <use xlink:href="#DejaVuSans-30"/>
       <use xlink:href="#DejaVuSans-2e" x="63.623047"/>
       <use xlink:href="#DejaVuSans-30" x="95.410156"/>
      </g>
     </g>
    </g>
    <g id="xtick_2">
     <g id="line2d_3">
      <path d="M 165.696563 244.078125 
L 165.696563 22.318125 
" clip-path="url(#p62a9c7aaed)" style="fill: none; stroke: #ffffff; stroke-width: 0.8; stroke-linecap: square"/>
     </g>
     <g id="line2d_4">
      <g>
       <use xlink:href="#mbd15ba6710" x="165.696563" y="244.078125" style="fill: #555555; stroke: #555555; stroke-width: 0.8"/>
      </g>
     </g>
     <g id="text_2">
      <!-- 0.2 -->
      <g style="fill: #555555" transform="translate(157.745 258.676562) scale(0.1 -0.1)">
       <defs>
        <path id="DejaVuSans-32" d="M 1228 531 
L 3431 531 
L 3431 0 
L 469 0 
L 469 531 
Q 828 903 1448 1529 
Q 2069 2156 2228 2338 
Q 2531 2678 2651 2914 
Q 2772 3150 2772 3378 
Q 2772 3750 2511 3984 
Q 2250 4219 1831 4219 
Q 1534 4219 1204 4116 
Q 875 4013 500 3803 
L 500 4441 
Q 881 4594 1212 4672 
Q 1544 4750 1819 4750 
Q 2544 4750 2975 4387 
Q 3406 4025 3406 3419 
Q 3406 3131 3298 2873 
Q 3191 2616 2906 2266 
Q 2828 2175 2409 1742 
Q 1991 1309 1228 531 
z
" transform="scale(0.015625)"/>
       </defs>
       <use xlink:href="#DejaVuSans-30"/>
       <use xlink:href="#DejaVuSans-2e" x="63.623047"/>
       <use xlink:href="#DejaVuSans-32" x="95.410156"/>
      </g>
     </g>
    </g>
    <g id="xtick_3">
     <g id="line2d_5">
      <path d="M 277.296563 244.078125 
L 277.296563 22.318125 
" clip-path="url(#p62a9c7aaed)" style="fill: none; stroke: #ffffff; stroke-width: 0.8; stroke-linecap: square"/>
     </g>
     <g id="line2d_6">
      <g>
       <use xlink:href="#mbd15ba6710" x="277.296563" y="244.078125" style="fill: #555555; stroke: #555555; stroke-width: 0.8"/>
      </g>
     </g>
     <g id="text_3">
      <!-- 0.4 -->
      <g style="fill: #555555" transform="translate(269.345 258.676562) scale(0.1 -0.1)">
       <defs>
        <path id="DejaVuSans-34" d="M 2419 4116 
L 825 1625 
L 2419 1625 
L 2419 4116 
z
M 2253 4666 
L 3047 4666 
L 3047 1625 
L 3713 1625 
L 3713 1100 
L 3047 1100 
L 3047 0 
L 2419 0 
L 2419 1100 
L 313 1100 
L 313 1709 
L 2253 4666 
z
" transform="scale(0.015625)"/>
       </defs>
       <use xlink:href="#DejaVuSans-30"/>
       <use xlink:href="#DejaVuSans-2e" x="63.623047"/>
       <use xlink:href="#DejaVuSans-34" x="95.410156"/>
      </g>
     </g>
    </g>
    <g id="xtick_4">
     <g id="line2d_7">
      <path d="M 388.896563 244.078125 
L 388.896563 22.318125 
" clip-path="url(#p62a9c7aaed)" style="fill: none; stroke: #ffffff; stroke-width: 0.8; stroke-linecap: square"/>
     </g>
     <g id="line2d_8">
      <g>
       <use xlink:href="#mbd15ba6710" x="388.896563" y="244.078125" style="fill: #555555; stroke: #555555; stroke-width: 0.8"/>
      </g>
     </g>
     <g id="text_4">
      <!-- 0.6 -->
      <g style="fill: #555555" transform="translate(380.945 258.676562) scale(0.1 -0.1)">
       <defs>
        <path id="DejaVuSans-36" d="M 2113 2584 
Q 1688 2584 1439 2293 
Q 1191 2003 1191 1497 
Q 1191 994 1439 701 
Q 1688 409 2113 409 
Q 2538 409 2786 701 
Q 3034 994 3034 1497 
Q 3034 2003 2786 2293 
Q 2538 2584 2113 2584 
z
M 3366 4563 
L 3366 3988 
Q 3128 4100 2886 4159 
Q 2644 4219 2406 4219 
Q 1781 4219 1451 3797 
Q 1122 3375 1075 2522 
Q 1259 2794 1537 2939 
Q 1816 3084 2150 3084 
Q 2853 3084 3261 2657 
Q 3669 2231 3669 1497 
Q 3669 778 3244 343 
Q 2819 -91 2113 -91 
Q 1303 -91 875 529 
Q 447 1150 447 2328 
Q 447 3434 972 4092 
Q 1497 4750 2381 4750 
Q 2619 4750 2861 4703 
Q 3103 4656 3366 4563 
z
" transform="scale(0.015625)"/>
       </defs>
       <use xlink:href="#DejaVuSans-30"/>
       <use xlink:href="#DejaVuSans-2e" x="63.623047"/>
       <use xlink:href="#DejaVuSans-36" x="95.410156"/>
      </g>
     </g>
    </g>
    <g id="xtick_5">
     <g id="line2d_9">
      <path d="M 500.496563 244.078125 
L 500.496563 22.318125 
" clip-path="url(#p62a9c7aaed)" style="fill: none; stroke: #ffffff; stroke-width: 0.8; stroke-linecap: square"/>
     </g>
     <g id="line2d_10">
      <g>
       <use xlink:href="#mbd15ba6710" x="500.496563" y="244.078125" style="fill: #555555; stroke: #555555; stroke-width: 0.8"/>
      </g>
     </g>
     <g id="text_5">
      <!-- 0.8 -->
      <g style="fill: #555555" transform="translate(492.545 258.676562) scale(0.1 -0.1)">
       <defs>
        <path id="DejaVuSans-38" d="M 2034 2216 
Q 1584 2216 1326 1975 
Q 1069 1734 1069 1313 
Q 1069 891 1326 650 
Q 1584 409 2034 409 
Q 2484 409 2743 651 
Q 3003 894 3003 1313 
Q 3003 1734 2745 1975 
Q 2488 2216 2034 2216 
z
M 1403 2484 
Q 997 2584 770 2862 
Q 544 3141 544 3541 
Q 544 4100 942 4425 
Q 1341 4750 2034 4750 
Q 2731 4750 3128 4425 
Q 3525 4100 3525 3541 
Q 3525 3141 3298 2862 
Q 3072 2584 2669 2484 
Q 3125 2378 3379 2068 
Q 3634 1759 3634 1313 
Q 3634 634 3220 271 
Q 2806 -91 2034 -91 
Q 1263 -91 848 271 
Q 434 634 434 1313 
Q 434 1759 690 2068 
Q 947 2378 1403 2484 
z
M 1172 3481 
Q 1172 3119 1398 2916 
Q 1625 2713 2034 2713 
Q 2441 2713 2670 2916 
Q 2900 3119 2900 3481 
Q 2900 3844 2670 4047 
Q 2441 4250 2034 4250 
Q 1625 4250 1398 4047 
Q 1172 3844 1172 3481 
z
" transform="scale(0.015625)"/>
       </defs>
       <use xlink:href="#DejaVuSans-30"/>
       <use xlink:href="#DejaVuSans-2e" x="63.623047"/>
       <use xlink:href="#DejaVuSans-38" x="95.410156"/>
      </g>
     </g>
    </g>
    <g id="xtick_6">
     <g id="line2d_11">
      <path d="M 612.096563 244.078125 
L 612.096563 22.318125 
" clip-path="url(#p62a9c7aaed)" style="fill: none; stroke: #ffffff; stroke-width: 0.8; stroke-linecap: square"/>
     </g>
     <g id="line2d_12">
      <g>
       <use xlink:href="#mbd15ba6710" x="612.096563" y="244.078125" style="fill: #555555; stroke: #555555; stroke-width: 0.8"/>
      </g>
     </g>
     <g id="text_6">
      <!-- 1.0 -->
      <g style="fill: #555555" transform="translate(604.145 258.676562) scale(0.1 -0.1)">
       <defs>
        <path id="DejaVuSans-31" d="M 794 531 
L 1825 531 
L 1825 4091 
L 703 3866 
L 703 4441 
L 1819 4666 
L 2450 4666 
L 2450 531 
L 3481 531 
L 3481 0 
L 794 0 
L 794 531 
z
" transform="scale(0.015625)"/>
       </defs>
       <use xlink:href="#DejaVuSans-31"/>
       <use xlink:href="#DejaVuSans-2e" x="63.623047"/>
       <use xlink:href="#DejaVuSans-30" x="95.410156"/>
      </g>
     </g>
    </g>
    <g id="text_7">
     <!-- whaling-harm-prob -->
     <g style="fill: #555555" transform="translate(276.129375 273.874375) scale(0.12 -0.12)">
      <defs>
       <path id="DejaVuSans-77" d="M 269 3500 
L 844 3500 
L 1563 769 
L 2278 3500 
L 2956 3500 
L 3675 769 
L 4391 3500 
L 4966 3500 
L 4050 0 
L 3372 0 
L 2619 2869 
L 1863 0 
L 1184 0 
L 269 3500 
z
" transform="scale(0.015625)"/>
       <path id="DejaVuSans-68" d="M 3513 2113 
L 3513 0 
L 2938 0 
L 2938 2094 
Q 2938 2591 2744 2837 
Q 2550 3084 2163 3084 
Q 1697 3084 1428 2787 
Q 1159 2491 1159 1978 
L 1159 0 
L 581 0 
L 581 4863 
L 1159 4863 
L 1159 2956 
Q 1366 3272 1645 3428 
Q 1925 3584 2291 3584 
Q 2894 3584 3203 3211 
Q 3513 2838 3513 2113 
z
" transform="scale(0.015625)"/>
       <path id="DejaVuSans-61" d="M 2194 1759 
Q 1497 1759 1228 1600 
Q 959 1441 959 1056 
Q 959 750 1161 570 
Q 1363 391 1709 391 
Q 2188 391 2477 730 
Q 2766 1069 2766 1631 
L 2766 1759 
L 2194 1759 
z
M 3341 1997 
L 3341 0 
L 2766 0 
L 2766 531 
Q 2569 213 2275 61 
Q 1981 -91 1556 -91 
Q 1019 -91 701 211 
Q 384 513 384 1019 
Q 384 1609 779 1909 
Q 1175 2209 1959 2209 
L 2766 2209 
L 2766 2266 
Q 2766 2663 2505 2880 
Q 2244 3097 1772 3097 
Q 1472 3097 1187 3025 
Q 903 2953 641 2809 
L 641 3341 
Q 956 3463 1253 3523 
Q 1550 3584 1831 3584 
Q 2591 3584 2966 3190 
Q 3341 2797 3341 1997 
z
" transform="scale(0.015625)"/>
       <path id="DejaVuSans-6c" d="M 603 4863 
L 1178 4863 
L 1178 0 
L 603 0 
L 603 4863 
z
" transform="scale(0.015625)"/>
       <path id="DejaVuSans-69" d="M 603 3500 
L 1178 3500 
L 1178 0 
L 603 0 
L 603 3500 
z
M 603 4863 
L 1178 4863 
L 1178 4134 
L 603 4134 
L 603 4863 
z
" transform="scale(0.015625)"/>
       <path id="DejaVuSans-6e" d="M 3513 2113 
L 3513 0 
L 2938 0 
L 2938 2094 
Q 2938 2591 2744 2837 
Q 2550 3084 2163 3084 
Q 1697 3084 1428 2787 
Q 1159 2491 1159 1978 
L 1159 0 
L 581 0 
L 581 3500 
L 1159 3500 
L 1159 2956 
Q 1366 3272 1645 3428 
Q 1925 3584 2291 3584 
Q 2894 3584 3203 3211 
Q 3513 2838 3513 2113 
z
" transform="scale(0.015625)"/>
       <path id="DejaVuSans-67" d="M 2906 1791 
Q 2906 2416 2648 2759 
Q 2391 3103 1925 3103 
Q 1463 3103 1205 2759 
Q 947 2416 947 1791 
Q 947 1169 1205 825 
Q 1463 481 1925 481 
Q 2391 481 2648 825 
Q 2906 1169 2906 1791 
z
M 3481 434 
Q 3481 -459 3084 -895 
Q 2688 -1331 1869 -1331 
Q 1566 -1331 1297 -1286 
Q 1028 -1241 775 -1147 
L 775 -588 
Q 1028 -725 1275 -790 
Q 1522 -856 1778 -856 
Q 2344 -856 2625 -561 
Q 2906 -266 2906 331 
L 2906 616 
Q 2728 306 2450 153 
Q 2172 0 1784 0 
Q 1141 0 747 490 
Q 353 981 353 1791 
Q 353 2603 747 3093 
Q 1141 3584 1784 3584 
Q 2172 3584 2450 3431 
Q 2728 3278 2906 2969 
L 2906 3500 
L 3481 3500 
L 3481 434 
z
" transform="scale(0.015625)"/>
       <path id="DejaVuSans-2d" d="M 313 2009 
L 1997 2009 
L 1997 1497 
L 313 1497 
L 313 2009 
z
" transform="scale(0.015625)"/>
       <path id="DejaVuSans-72" d="M 2631 2963 
Q 2534 3019 2420 3045 
Q 2306 3072 2169 3072 
Q 1681 3072 1420 2755 
Q 1159 2438 1159 1844 
L 1159 0 
L 581 0 
L 581 3500 
L 1159 3500 
L 1159 2956 
Q 1341 3275 1631 3429 
Q 1922 3584 2338 3584 
Q 2397 3584 2469 3576 
Q 2541 3569 2628 3553 
L 2631 2963 
z
" transform="scale(0.015625)"/>
       <path id="DejaVuSans-6d" d="M 3328 2828 
Q 3544 3216 3844 3400 
Q 4144 3584 4550 3584 
Q 5097 3584 5394 3201 
Q 5691 2819 5691 2113 
L 5691 0 
L 5113 0 
L 5113 2094 
Q 5113 2597 4934 2840 
Q 4756 3084 4391 3084 
Q 3944 3084 3684 2787 
Q 3425 2491 3425 1978 
L 3425 0 
L 2847 0 
L 2847 2094 
Q 2847 2600 2669 2842 
Q 2491 3084 2119 3084 
Q 1678 3084 1418 2786 
Q 1159 2488 1159 1978 
L 1159 0 
L 581 0 
L 581 3500 
L 1159 3500 
L 1159 2956 
Q 1356 3278 1631 3431 
Q 1906 3584 2284 3584 
Q 2666 3584 2933 3390 
Q 3200 3197 3328 2828 
z
" transform="scale(0.015625)"/>
       <path id="DejaVuSans-70" d="M 1159 525 
L 1159 -1331 
L 581 -1331 
L 581 3500 
L 1159 3500 
L 1159 2969 
Q 1341 3281 1617 3432 
Q 1894 3584 2278 3584 
Q 2916 3584 3314 3078 
Q 3713 2572 3713 1747 
Q 3713 922 3314 415 
Q 2916 -91 2278 -91 
Q 1894 -91 1617 61 
Q 1341 213 1159 525 
z
M 3116 1747 
Q 3116 2381 2855 2742 
Q 2594 3103 2138 3103 
Q 1681 3103 1420 2742 
Q 1159 2381 1159 1747 
Q 1159 1113 1420 752 
Q 1681 391 2138 391 
Q 2594 391 2855 752 
Q 3116 1113 3116 1747 
z
" transform="scale(0.015625)"/>
       <path id="DejaVuSans-6f" d="M 1959 3097 
Q 1497 3097 1228 2736 
Q 959 2375 959 1747 
Q 959 1119 1226 758 
Q 1494 397 1959 397 
Q 2419 397 2687 759 
Q 2956 1122 2956 1747 
Q 2956 2369 2687 2733 
Q 2419 3097 1959 3097 
z
M 1959 3584 
Q 2709 3584 3137 3096 
Q 3566 2609 3566 1747 
Q 3566 888 3137 398 
Q 2709 -91 1959 -91 
Q 1206 -91 779 398 
Q 353 888 353 1747 
Q 353 2609 779 3096 
Q 1206 3584 1959 3584 
z
" transform="scale(0.015625)"/>
       <path id="DejaVuSans-62" d="M 3116 1747 
Q 3116 2381 2855 2742 
Q 2594 3103 2138 3103 
Q 1681 3103 1420 2742 
Q 1159 2381 1159 1747 
Q 1159 1113 1420 752 
Q 1681 391 2138 391 
Q 2594 391 2855 752 
Q 3116 1113 3116 1747 
z
M 1159 2969 
Q 1341 3281 1617 3432 
Q 1894 3584 2278 3584 
Q 2916 3584 3314 3078 
Q 3713 2572 3713 1747 
Q 3713 922 3314 415 
Q 2916 -91 2278 -91 
Q 1894 -91 1617 61 
Q 1341 213 1159 525 
L 1159 0 
L 581 0 
L 581 4863 
L 1159 4863 
L 1159 2969 
z
" transform="scale(0.015625)"/>
      </defs>
      <use xlink:href="#DejaVuSans-77"/>
      <use xlink:href="#DejaVuSans-68" x="81.787109"/>
      <use xlink:href="#DejaVuSans-61" x="145.166016"/>
      <use xlink:href="#DejaVuSans-6c" x="206.445312"/>
      <use xlink:href="#DejaVuSans-69" x="234.228516"/>
      <use xlink:href="#DejaVuSans-6e" x="262.011719"/>
      <use xlink:href="#DejaVuSans-67" x="325.390625"/>
      <use xlink:href="#DejaVuSans-2d" x="388.867188"/>
      <use xlink:href="#DejaVuSans-68" x="424.951172"/>
      <use xlink:href="#DejaVuSans-61" x="488.330078"/>
      <use xlink:href="#DejaVuSans-72" x="549.609375"/>
      <use xlink:href="#DejaVuSans-6d" x="588.972656"/>
      <use xlink:href="#DejaVuSans-2d" x="686.384766"/>
      <use xlink:href="#DejaVuSans-70" x="722.46875"/>
      <use xlink:href="#DejaVuSans-72" x="785.945312"/>
      <use xlink:href="#DejaVuSans-6f" x="824.808594"/>
      <use xlink:href="#DejaVuSans-62" x="885.990234"/>
     </g>
    </g>
   </g>
   <g id="matplotlib.axis_2">
    <g id="ytick_1">
     <g id="line2d_13">
      <path d="M 54.096563 244.078125 
L 612.096563 244.078125 
" clip-path="url(#p62a9c7aaed)" style="fill: none; stroke: #ffffff; stroke-width: 0.8; stroke-linecap: square"/>
     </g>
     <g id="line2d_14">
      <defs>
       <path id="m8b7d3846f4" d="M 0 0 
L -3.5 0 
" style="stroke: #555555; stroke-width: 0.8"/>
      </defs>
      <g>
       <use xlink:href="#m8b7d3846f4" x="54.096563" y="244.078125" style="fill: #555555; stroke: #555555; stroke-width: 0.8"/>
      </g>
     </g>
     <g id="text_8">
      <!-- −0.4 -->
      <g style="fill: #555555" transform="translate(22.81375 247.877344) scale(0.1 -0.1)">
       <defs>
        <path id="DejaVuSans-2212" d="M 678 2272 
L 4684 2272 
L 4684 1741 
L 678 1741 
L 678 2272 
z
" transform="scale(0.015625)"/>
       </defs>
       <use xlink:href="#DejaVuSans-2212"/>
       <use xlink:href="#DejaVuSans-30" x="83.789062"/>
       <use xlink:href="#DejaVuSans-2e" x="147.412109"/>
       <use xlink:href="#DejaVuSans-34" x="179.199219"/>
      </g>
     </g>
    </g>
    <g id="ytick_2">
     <g id="line2d_15">
      <path d="M 54.096563 212.398125 
L 612.096563 212.398125 
" clip-path="url(#p62a9c7aaed)" style="fill: none; stroke: #ffffff; stroke-width: 0.8; stroke-linecap: square"/>
     </g>
     <g id="line2d_16">
      <g>
       <use xlink:href="#m8b7d3846f4" x="54.096563" y="212.398125" style="fill: #555555; stroke: #555555; stroke-width: 0.8"/>
      </g>
     </g>
     <g id="text_9">
      <!-- −0.3 -->
      <g style="fill: #555555" transform="translate(22.81375 216.197344) scale(0.1 -0.1)">
       <defs>
        <path id="DejaVuSans-33" d="M 2597 2516 
Q 3050 2419 3304 2112 
Q 3559 1806 3559 1356 
Q 3559 666 3084 287 
Q 2609 -91 1734 -91 
Q 1441 -91 1130 -33 
Q 819 25 488 141 
L 488 750 
Q 750 597 1062 519 
Q 1375 441 1716 441 
Q 2309 441 2620 675 
Q 2931 909 2931 1356 
Q 2931 1769 2642 2001 
Q 2353 2234 1838 2234 
L 1294 2234 
L 1294 2753 
L 1863 2753 
Q 2328 2753 2575 2939 
Q 2822 3125 2822 3475 
Q 2822 3834 2567 4026 
Q 2313 4219 1838 4219 
Q 1578 4219 1281 4162 
Q 984 4106 628 3988 
L 628 4550 
Q 988 4650 1302 4700 
Q 1616 4750 1894 4750 
Q 2613 4750 3031 4423 
Q 3450 4097 3450 3541 
Q 3450 3153 3228 2886 
Q 3006 2619 2597 2516 
z
" transform="scale(0.015625)"/>
       </defs>
       <use xlink:href="#DejaVuSans-2212"/>
       <use xlink:href="#DejaVuSans-30" x="83.789062"/>
       <use xlink:href="#DejaVuSans-2e" x="147.412109"/>
       <use xlink:href="#DejaVuSans-33" x="179.199219"/>
      </g>
     </g>
    </g>
    <g id="ytick_3">
     <g id="line2d_17">
      <path d="M 54.096563 180.718125 
L 612.096563 180.718125 
" clip-path="url(#p62a9c7aaed)" style="fill: none; stroke: #ffffff; stroke-width: 0.8; stroke-linecap: square"/>
     </g>
     <g id="line2d_18">
      <g>
       <use xlink:href="#m8b7d3846f4" x="54.096563" y="180.718125" style="fill: #555555; stroke: #555555; stroke-width: 0.8"/>
      </g>
     </g>
     <g id="text_10">
      <!-- −0.2 -->
      <g style="fill: #555555" transform="translate(22.81375 184.517344) scale(0.1 -0.1)">
       <use xlink:href="#DejaVuSans-2212"/>
       <use xlink:href="#DejaVuSans-30" x="83.789062"/>
       <use xlink:href="#DejaVuSans-2e" x="147.412109"/>
       <use xlink:href="#DejaVuSans-32" x="179.199219"/>
      </g>
     </g>
    </g>
    <g id="ytick_4">
     <g id="line2d_19">
      <path d="M 54.096563 149.038125 
L 612.096563 149.038125 
" clip-path="url(#p62a9c7aaed)" style="fill: none; stroke: #ffffff; stroke-width: 0.8; stroke-linecap: square"/>
     </g>
     <g id="line2d_20">
      <g>
       <use xlink:href="#m8b7d3846f4" x="54.096563" y="149.038125" style="fill: #555555; stroke: #555555; stroke-width: 0.8"/>
      </g>
     </g>
     <g id="text_11">
      <!-- −0.1 -->
      <g style="fill: #555555" transform="translate(22.81375 152.837344) scale(0.1 -0.1)">
       <use xlink:href="#DejaVuSans-2212"/>
       <use xlink:href="#DejaVuSans-30" x="83.789062"/>
       <use xlink:href="#DejaVuSans-2e" x="147.412109"/>
       <use xlink:href="#DejaVuSans-31" x="179.199219"/>
      </g>
     </g>
    </g>
    <g id="ytick_5">
     <g id="line2d_21">
      <path d="M 54.096563 117.358125 
L 612.096563 117.358125 
" clip-path="url(#p62a9c7aaed)" style="fill: none; stroke: #ffffff; stroke-width: 0.8; stroke-linecap: square"/>
     </g>
     <g id="line2d_22">
      <g>
       <use xlink:href="#m8b7d3846f4" x="54.096563" y="117.358125" style="fill: #555555; stroke: #555555; stroke-width: 0.8"/>
      </g>
     </g>
     <g id="text_12">
      <!-- 0.0 -->
      <g style="fill: #555555" transform="translate(31.193438 121.157344) scale(0.1 -0.1)">
       <use xlink:href="#DejaVuSans-30"/>
       <use xlink:href="#DejaVuSans-2e" x="63.623047"/>
       <use xlink:href="#DejaVuSans-30" x="95.410156"/>
      </g>
     </g>
    </g>
    <g id="ytick_6">
     <g id="line2d_23">
      <path d="M 54.096563 85.678125 
L 612.096563 85.678125 
" clip-path="url(#p62a9c7aaed)" style="fill: none; stroke: #ffffff; stroke-width: 0.8; stroke-linecap: square"/>
     </g>
     <g id="line2d_24">
      <g>
       <use xlink:href="#m8b7d3846f4" x="54.096563" y="85.678125" style="fill: #555555; stroke: #555555; stroke-width: 0.8"/>
      </g>
     </g>
     <g id="text_13">
      <!-- 0.1 -->
      <g style="fill: #555555" transform="translate(31.193438 89.477344) scale(0.1 -0.1)">
       <use xlink:href="#DejaVuSans-30"/>
       <use xlink:href="#DejaVuSans-2e" x="63.623047"/>
       <use xlink:href="#DejaVuSans-31" x="95.410156"/>
      </g>
     </g>
    </g>
    <g id="ytick_7">
     <g id="line2d_25">
      <path d="M 54.096563 53.998125 
L 612.096563 53.998125 
" clip-path="url(#p62a9c7aaed)" style="fill: none; stroke: #ffffff; stroke-width: 0.8; stroke-linecap: square"/>
     </g>
     <g id="line2d_26">
      <g>
       <use xlink:href="#m8b7d3846f4" x="54.096563" y="53.998125" style="fill: #555555; stroke: #555555; stroke-width: 0.8"/>
      </g>
     </g>
     <g id="text_14">
      <!-- 0.2 -->
      <g style="fill: #555555" transform="translate(31.193438 57.797344) scale(0.1 -0.1)">
       <use xlink:href="#DejaVuSans-30"/>
       <use xlink:href="#DejaVuSans-2e" x="63.623047"/>
       <use xlink:href="#DejaVuSans-32" x="95.410156"/>
      </g>
     </g>
    </g>
    <g id="ytick_8">
     <g id="line2d_27">
      <path d="M 54.096563 22.318125 
L 612.096563 22.318125 
" clip-path="url(#p62a9c7aaed)" style="fill: none; stroke: #ffffff; stroke-width: 0.8; stroke-linecap: square"/>
     </g>
     <g id="line2d_28">
      <g>
       <use xlink:href="#m8b7d3846f4" x="54.096563" y="22.318125" style="fill: #555555; stroke: #555555; stroke-width: 0.8"/>
      </g>
     </g>
     <g id="text_15">
      <!-- 0.3 -->
      <g style="fill: #555555" transform="translate(31.193438 26.117344) scale(0.1 -0.1)">
       <use xlink:href="#DejaVuSans-30"/>
       <use xlink:href="#DejaVuSans-2e" x="63.623047"/>
       <use xlink:href="#DejaVuSans-33" x="95.410156"/>
      </g>
     </g>
    </g>
    <g id="text_16">
     <!-- score -->
     <g style="fill: #555555" transform="translate(16.318125 149.3175) rotate(-90) scale(0.12 -0.12)">
      <defs>
       <path id="DejaVuSans-73" d="M 2834 3397 
L 2834 2853 
Q 2591 2978 2328 3040 
Q 2066 3103 1784 3103 
Q 1356 3103 1142 2972 
Q 928 2841 928 2578 
Q 928 2378 1081 2264 
Q 1234 2150 1697 2047 
L 1894 2003 
Q 2506 1872 2764 1633 
Q 3022 1394 3022 966 
Q 3022 478 2636 193 
Q 2250 -91 1575 -91 
Q 1294 -91 989 -36 
Q 684 19 347 128 
L 347 722 
Q 666 556 975 473 
Q 1284 391 1588 391 
Q 1994 391 2212 530 
Q 2431 669 2431 922 
Q 2431 1156 2273 1281 
Q 2116 1406 1581 1522 
L 1381 1569 
Q 847 1681 609 1914 
Q 372 2147 372 2553 
Q 372 3047 722 3315 
Q 1072 3584 1716 3584 
Q 2034 3584 2315 3537 
Q 2597 3491 2834 3397 
z
" transform="scale(0.015625)"/>
       <path id="DejaVuSans-63" d="M 3122 3366 
L 3122 2828 
Q 2878 2963 2633 3030 
Q 2388 3097 2138 3097 
Q 1578 3097 1268 2742 
Q 959 2388 959 1747 
Q 959 1106 1268 751 
Q 1578 397 2138 397 
Q 2388 397 2633 464 
Q 2878 531 3122 666 
L 3122 134 
Q 2881 22 2623 -34 
Q 2366 -91 2075 -91 
Q 1284 -91 818 406 
Q 353 903 353 1747 
Q 353 2603 823 3093 
Q 1294 3584 2113 3584 
Q 2378 3584 2631 3529 
Q 2884 3475 3122 3366 
z
" transform="scale(0.015625)"/>
       <path id="DejaVuSans-65" d="M 3597 1894 
L 3597 1613 
L 953 1613 
Q 991 1019 1311 708 
Q 1631 397 2203 397 
Q 2534 397 2845 478 
Q 3156 559 3463 722 
L 3463 178 
Q 3153 47 2828 -22 
Q 2503 -91 2169 -91 
Q 1331 -91 842 396 
Q 353 884 353 1716 
Q 353 2575 817 3079 
Q 1281 3584 2069 3584 
Q 2775 3584 3186 3129 
Q 3597 2675 3597 1894 
z
M 3022 2063 
Q 3016 2534 2758 2815 
Q 2500 3097 2075 3097 
Q 1594 3097 1305 2825 
Q 1016 2553 972 2059 
L 3022 2063 
z
" transform="scale(0.015625)"/>
      </defs>
      <use xlink:href="#DejaVuSans-73"/>
      <use xlink:href="#DejaVuSans-63" x="52.099609"/>
      <use xlink:href="#DejaVuSans-6f" x="107.080078"/>
      <use xlink:href="#DejaVuSans-72" x="168.261719"/>
      <use xlink:href="#DejaVuSans-65" x="207.125"/>
     </g>
    </g>
   </g>
   <g id="PolyCollection_1">
    <defs>
     <path id="ma40ce4642f" d="M 54.588574 -251.636384 
L 54.588574 -235.724171 
L 55.179279 -238.03092 
L 55.697426 -240.362304 
L 56.336118 -242.076115 
L 56.949431 -242.733108 
L 57.578762 -242.875731 
L 58.226932 -243.063439 
L 58.514823 -243.218038 
L 58.916622 -243.093861 
L 59.472353 -242.679991 
L 60.02864 -242.267153 
L 60.85612 -242.207237 
L 61.554349 -241.721256 
L 61.92092 -241.38281 
L 62.367326 -241.092518 
L 63.084586 -241.020022 
L 63.558359 -240.859748 
L 63.99518 -240.588536 
L 64.729624 -240.428343 
L 65.415861 -240.299179 
L 65.808916 -240.211307 
L 66.346372 -240.162443 
L 67.054551 -239.942328 
L 67.42962 -239.813222 
L 68.086397 -239.600893 
L 68.636875 -239.513331 
L 69.052839 -239.466706 
L 69.792953 -239.230729 
L 70.336555 -239.182469 
L 70.832364 -239.115475 
L 71.37419 -239.010396 
L 72.011224 -238.755187 
L 72.659098 -238.702806 
L 73.149988 -238.740596 
L 73.720242 -238.697776 
L 74.151054 -238.648235 
L 74.506933 -238.680081 
L 75.141808 -238.557739 
L 75.870866 -238.535821 
L 76.488604 -238.398792 
L 76.989038 -238.190647 
L 77.589566 -238.081521 
L 78.174672 -237.852782 
L 78.577201 -237.71903 
L 79.196864 -237.649078 
L 79.752235 -237.58713 
L 80.370575 -237.447877 
L 81.016472 -237.297763 
L 81.554 -237.114194 
L 82.137319 -236.896681 
L 82.640398 -236.808848 
L 83.071071 -236.804726 
L 83.458684 -236.617438 
L 84.127881 -236.565972 
L 84.730828 -236.460852 
L 85.199129 -236.316457 
L 85.769651 -236.121526 
L 86.341843 -236.020528 
L 86.904858 -235.943517 
L 87.503323 -235.811332 
L 88.21651 -235.550971 
L 88.888032 -235.55256 
L 89.439201 -235.473981 
L 90.012661 -235.373269 
L 90.551561 -235.267376 
L 90.959328 -235.187046 
L 91.446555 -235.140027 
L 91.959048 -235.008178 
L 92.486998 -234.778193 
L 93.24121 -234.738734 
L 93.802904 -234.693341 
L 94.187796 -234.540474 
L 94.905817 -234.368874 
L 95.576024 -234.260911 
L 96.107845 -234.145444 
L 96.481756 -233.979676 
L 96.867066 -233.882041 
L 97.577905 -233.616484 
L 98.093841 -233.43067 
L 98.655501 -233.277948 
L 99.296591 -233.222719 
L 99.799743 -233.12691 
L 100.250161 -232.932113 
L 100.784858 -232.867085 
L 101.514295 -232.665023 
L 102.245093 -232.489161 
L 102.720912 -232.363003 
L 103.173664 -232.224915 
L 103.827945 -232.146574 
L 104.273476 -231.866266 
L 104.863957 -231.580727 
L 105.471496 -231.37636 
L 105.821722 -231.093165 
L 106.348487 -230.905484 
L 107.13345 -230.677009 
L 107.713414 -230.362545 
L 108.08902 -229.926987 
L 108.590264 -229.612951 
L 109.264722 -229.45659 
L 110.053803 -229.315532 
L 110.47189 -229.090064 
L 110.826845 -228.792688 
L 111.572694 -228.541964 
L 112.220882 -228.327208 
L 112.791119 -228.037163 
L 113.291433 -227.847957 
L 113.884113 -227.480104 
L 114.578247 -227.198923 
L 115.112597 -226.837834 
L 115.476833 -226.558876 
L 116.025846 -226.334793 
L 116.799397 -226.238554 
L 117.146412 -226.211992 
L 117.611438 -226.150565 
L 118.345328 -226.122328 
L 118.963568 -225.894536 
L 119.494203 -225.889593 
L 119.904637 -225.655756 
L 120.440144 -225.468097 
L 120.941522 -225.427347 
L 121.549908 -225.341647 
L 122.358373 -225.354121 
L 122.796915 -225.247744 
L 123.111972 -225.149055 
L 123.607444 -224.978789 
L 124.21365 -224.771004 
L 124.827407 -224.640125 
L 125.332694 -224.488256 
L 126.081579 -224.471865 
L 126.771561 -224.335233 
L 127.259005 -224.351531 
L 127.87675 -224.327956 
L 128.276677 -224.176237 
L 128.780549 -224.044517 
L 129.350082 -223.881402 
L 129.782433 -223.801295 
L 130.558564 -223.80252 
L 131.194416 -223.68776 
L 131.501353 -223.692637 
L 131.971517 -223.543783 
L 132.656874 -223.507152 
L 133.376657 -223.42373 
L 133.932716 -223.323627 
L 134.445172 -223.384632 
L 135.011796 -223.424217 
L 135.619477 -223.115456 
L 136.104666 -223.053811 
L 136.60714 -222.970383 
L 137.324676 -222.891868 
L 137.821748 -222.846142 
L 138.338817 -222.784105 
L 138.921475 -222.726641 
L 139.335881 -222.722501 
L 139.846931 -222.710426 
L 140.394111 -222.645181 
L 141.130953 -222.432895 
L 141.703032 -222.327628 
L 142.151112 -222.242177 
L 142.851032 -221.844362 
L 143.385958 -221.724843 
L 143.792983 -221.494454 
L 144.462705 -221.227108 
L 145.105337 -221.09121 
L 145.64445 -220.951375 
L 146.204029 -220.691382 
L 146.780228 -220.541857 
L 147.216562 -220.587909 
L 147.578851 -220.589727 
L 148.390193 -220.347944 
L 149.197724 -220.317088 
L 149.606024 -220.251216 
L 150.024487 -220.096331 
L 150.646335 -220.044286 
L 151.115371 -219.95961 
L 151.546255 -219.692698 
L 152.306203 -219.525868 
L 153.080555 -219.431903 
L 153.612245 -219.29796 
L 154.092506 -219.17747 
L 154.608489 -219.122947 
L 155.170596 -218.826336 
L 155.644283 -218.76923 
L 156.202016 -218.581881 
L 156.809888 -218.569331 
L 157.22939 -218.324673 
L 157.699318 -218.194877 
L 158.435347 -218.088369 
L 159.128118 -218.03082 
L 159.622033 -217.947454 
L 160.078294 -217.644217 
L 160.701805 -217.471162 
L 161.297956 -217.41988 
L 161.708781 -217.240553 
L 162.350042 -216.926353 
L 162.927365 -216.705119 
L 163.398522 -216.538185 
L 163.868071 -216.344416 
L 164.41836 -216.140685 
L 165.080376 -215.900441 
L 165.730385 -215.552077 
L 166.3483 -215.428054 
L 166.760361 -215.298877 
L 167.241615 -215.053072 
L 167.929551 -215.047083 
L 168.62003 -214.893622 
L 169.206213 -214.627976 
L 169.581315 -214.546116 
L 170.092351 -214.35063 
L 170.699761 -214.221166 
L 171.155745 -214.217716 
L 171.741195 -214.174672 
L 172.27971 -214.193707 
L 172.892158 -214.133241 
L 173.635084 -214.009399 
L 174.139759 -213.884509 
L 174.51771 -213.785249 
L 175.095908 -213.721215 
L 175.747804 -213.454514 
L 176.209858 -213.048407 
L 176.807222 -212.988894 
L 177.570147 -212.834341 
L 178.125579 -212.615434 
L 178.634228 -212.461744 
L 179.25324 -212.440882 
L 179.699605 -212.32584 
L 180.105982 -212.25807 
L 180.597895 -212.406627 
L 181.222799 -212.284311 
L 181.781889 -212.113576 
L 182.343062 -211.945782 
L 182.881736 -211.910668 
L 183.34414 -211.958208 
L 184.105084 -211.811375 
L 184.807933 -211.708984 
L 185.217723 -211.752595 
L 185.73925 -211.671187 
L 186.398865 -211.566456 
L 186.979168 -211.579604 
L 187.452469 -211.586722 
L 187.87 -211.453886 
L 188.378082 -211.518039 
L 188.955822 -211.272559 
L 189.681289 -211.248947 
L 190.260471 -211.266089 
L 190.845463 -211.257298 
L 191.417171 -211.162221 
L 191.770511 -211.080918 
L 192.339968 -211.080497 
L 192.934355 -210.853879 
L 193.419333 -210.745351 
L 193.936714 -210.760498 
L 194.502155 -210.717675 
L 195.200377 -210.646542 
L 195.954825 -210.59572 
L 196.573948 -210.492985 
L 197.009565 -210.466861 
L 197.517806 -210.350465 
L 198.08506 -210.322406 
L 198.549667 -210.284347 
L 199.184578 -209.961162 
L 199.724708 -209.673138 
L 200.108874 -209.570032 
L 200.608629 -209.361322 
L 201.366695 -209.326067 
L 202.181912 -209.197584 
L 202.728814 -209.114977 
L 203.21138 -208.976359 
L 203.634777 -208.847094 
L 204.114129 -208.677312 
L 204.706888 -208.478883 
L 205.405031 -208.449327 
L 205.97503 -208.431218 
L 206.420563 -208.311565 
L 206.898139 -208.037744 
L 207.436946 -207.794974 
L 208.070585 -207.72969 
L 208.579602 -207.581816 
L 209.175305 -207.386646 
L 209.851302 -207.313993 
L 210.464794 -207.177148 
L 211.016793 -207.133916 
L 211.605108 -207.119721 
L 212.181425 -206.951981 
L 212.591039 -206.971042 
L 213.051591 -206.835878 
L 213.651706 -206.631923 
L 214.194994 -206.41088 
L 214.759624 -206.090623 
L 215.349627 -205.771467 
L 215.773956 -205.64508 
L 216.306991 -205.462808 
L 217.050672 -205.125786 
L 217.595744 -204.774664 
L 218.158905 -204.444552 
L 218.834678 -204.195181 
L 219.305791 -204.052262 
L 219.920846 -203.842512 
L 220.484415 -203.830985 
L 220.88361 -203.733493 
L 221.356977 -203.608293 
L 221.931374 -203.441152 
L 222.669868 -203.293239 
L 223.281914 -203.315469 
L 223.859971 -203.318209 
L 224.461027 -203.133534 
L 224.97142 -202.983031 
L 225.48366 -202.712551 
L 225.881244 -202.412163 
L 226.427807 -202.061614 
L 227.047677 -201.734319 
L 227.53877 -201.631064 
L 228.198159 -201.528343 
L 228.832682 -201.358925 
L 229.224175 -201.164345 
L 229.779854 -201.08892 
L 230.517669 -200.938005 
L 231.074579 -200.709852 
L 231.693248 -200.587402 
L 232.161765 -200.466539 
L 232.659637 -200.334177 
L 233.188415 -200.278365 
L 233.675036 -200.181174 
L 234.368527 -200.094694 
L 234.99496 -200.085559 
L 235.486523 -199.614034 
L 236.111886 -199.437025 
L 236.673713 -199.079106 
L 237.165202 -198.787118 
L 237.647964 -198.549148 
L 238.153846 -198.453547 
L 238.681097 -198.234241 
L 239.204422 -197.959915 
L 239.774234 -197.877208 
L 240.368307 -197.832557 
L 240.932068 -197.692178 
L 241.380869 -197.611107 
L 242.019023 -197.431901 
L 242.697263 -197.239477 
L 243.30986 -197.006299 
L 243.751592 -196.814535 
L 244.151273 -196.701496 
L 244.777913 -196.664598 
L 245.514839 -196.475927 
L 246.135169 -196.278562 
L 246.6553 -196.015132 
L 247.132746 -195.680477 
L 247.584325 -195.567196 
L 248.234237 -195.250713 
L 248.934738 -195.174843 
L 249.548684 -194.872804 
L 250.085514 -194.727119 
L 250.634405 -194.511672 
L 251.286534 -194.408723 
L 251.792557 -194.153543 
L 252.326627 -193.954371 
L 252.709056 -193.532859 
L 253.137052 -193.335623 
L 253.729411 -193.103406 
L 254.375055 -193.036883 
L 255.103087 -192.71834 
L 255.577145 -192.476431 
L 255.97963 -192.265604 
L 256.58195 -192.087643 
L 257.14557 -191.779774 
L 257.659327 -191.49146 
L 258.321914 -191.296143 
L 258.837153 -191.253739 
L 259.417714 -190.980671 
L 260.111074 -190.570346 
L 260.536705 -190.31577 
L 260.993881 -190.23929 
L 261.735166 -189.856546 
L 262.299091 -189.500538 
L 262.765989 -189.243505 
L 263.261789 -189.190915 
L 263.815539 -188.975748 
L 264.576401 -188.869043 
L 265.102062 -188.833506 
L 265.508869 -188.696437 
L 265.959347 -188.442214 
L 266.438906 -188.130674 
L 266.998492 -187.912528 
L 267.602825 -187.684955 
L 268.267423 -187.534001 
L 268.947971 -187.413051 
L 269.493773 -187.216066 
L 270.039057 -186.872042 
L 270.712805 -186.542931 
L 271.26204 -186.216477 
L 271.786189 -185.964628 
L 272.363924 -185.524493 
L 272.96288 -185.305442 
L 273.540472 -185.158989 
L 274.104975 -184.827924 
L 274.531364 -184.583802 
L 274.882844 -184.288945 
L 275.607983 -184.023212 
L 276.267424 -183.718971 
L 276.840858 -183.542679 
L 277.3097 -183.358502 
L 277.697067 -183.276874 
L 278.363876 -182.998264 
L 278.917035 -182.877669 
L 279.528137 -182.722155 
L 280.257944 -182.41026 
L 280.762674 -182.238953 
L 281.177749 -181.911413 
L 281.833603 -181.789843 
L 282.335344 -181.408328 
L 282.815243 -181.188171 
L 283.438378 -181.090366 
L 283.927662 -180.872079 
L 284.516459 -180.682884 
L 285.092239 -180.494512 
L 285.726886 -180.249416 
L 286.326294 -180.032643 
L 286.663491 -179.740843 
L 287.186124 -179.422338 
L 287.983335 -179.275509 
L 288.538287 -179.074662 
L 288.940361 -178.761551 
L 289.470081 -178.613537 
L 290.162912 -178.20534 
L 290.870101 -177.998049 
L 291.248735 -177.723631 
L 291.807713 -177.595889 
L 292.547322 -177.519611 
L 293.083854 -177.251936 
L 293.689603 -176.81829 
L 294.164059 -176.487251 
L 294.587796 -176.194956 
L 295.046161 -175.870065 
L 295.5214 -175.608581 
L 296.156874 -175.11981 
L 296.779982 -174.961081 
L 297.417687 -174.748241 
L 298.078242 -174.637721 
L 298.454354 -174.387884 
L 298.836924 -173.998975 
L 299.60033 -173.671636 
L 300.140536 -173.223871 
L 300.523531 -173.010158 
L 301.224209 -172.916723 
L 301.74852 -172.590184 
L 302.386316 -172.514434 
L 303.161745 -172.218047 
L 303.64681 -171.860404 
L 304.18358 -171.532075 
L 304.719426 -171.378992 
L 305.303667 -171.078079 
L 305.71385 -170.644927 
L 306.136648 -170.282154 
L 306.765045 -170.017278 
L 307.496966 -169.618477 
L 308.042585 -169.403656 
L 308.56792 -168.911198 
L 309.108224 -168.776909 
L 309.490353 -168.475381 
L 310.232079 -168.309649 
L 310.994743 -168.17338 
L 311.577653 -167.838843 
L 312.076787 -167.759288 
L 312.600103 -167.605508 
L 313.218085 -167.271609 
L 313.832104 -166.942107 
L 314.223727 -166.813344 
L 314.54417 -166.737707 
L 315.021921 -166.524363 
L 315.697955 -166.380573 
L 316.330951 -166.396228 
L 317.006478 -166.135821 
L 317.567296 -165.836534 
L 318.036741 -165.724658 
L 318.501329 -165.455788 
L 318.872147 -164.995737 
L 319.702504 -164.80559 
L 320.530309 -164.679251 
L 321.015546 -164.337567 
L 321.420758 -164.228373 
L 321.885806 -164.16402 
L 322.589147 -163.806153 
L 323.16409 -163.578802 
L 323.543776 -163.316203 
L 324.046742 -163.192937 
L 324.759612 -162.751315 
L 325.292275 -162.419645 
L 325.681423 -161.757455 
L 326.277388 -161.561438 
L 326.855965 -161.572678 
L 327.479257 -161.1925 
L 328.225071 -160.898031 
L 328.755104 -160.804831 
L 329.309956 -160.691084 
L 329.994672 -160.72707 
L 330.453064 -160.620343 
L 330.87991 -160.386382 
L 331.42957 -160.354848 
L 332.023687 -160.067342 
L 332.484457 -159.957836 
L 332.954936 -159.75184 
L 333.53519 -159.696746 
L 334.163229 -159.697305 
L 334.886931 -159.690279 
L 335.513973 -159.43114 
L 336.074997 -159.35169 
L 336.667717 -159.258798 
L 337.187885 -159.35217 
L 337.777781 -159.044756 
L 338.38 -159.010242 
L 338.803617 -158.963206 
L 339.152675 -158.890729 
L 339.838712 -158.62514 
L 340.510906 -158.314478 
L 341.020675 -158.223686 
L 341.659385 -157.845429 
L 342.064842 -157.594992 
L 342.47316 -157.527885 
L 343.093408 -157.155778 
L 343.609236 -156.950694 
L 344.154495 -156.623967 
L 344.666081 -156.433074 
L 345.247166 -156.020713 
L 345.944705 -155.615059 
L 346.599977 -155.456617 
L 347.245738 -155.163897 
L 347.634076 -154.991129 
L 348.002123 -154.863404 
L 348.71664 -154.793979 
L 349.357585 -154.60121 
L 349.86182 -154.476778 
L 350.45494 -154.458233 
L 351.051547 -154.339723 
L 351.547597 -154.013067 
L 351.918038 -153.974676 
L 352.377373 -153.7776 
L 352.941433 -153.644908 
L 353.656178 -153.486796 
L 354.438283 -153.342913 
L 355.027352 -153.293875 
L 355.579092 -153.265637 
L 356.212766 -153.270323 
L 356.70686 -153.267095 
L 357.110029 -153.336046 
L 357.60627 -153.280727 
L 358.324149 -153.37439 
L 359.03944 -153.335225 
L 359.335183 -153.285432 
L 359.757437 -153.279135 
L 360.558217 -153.044337 
L 361.031483 -153.056699 
L 361.379445 -152.988303 
L 361.913633 -152.786508 
L 362.479627 -152.658114 
L 363.261981 -152.644952 
L 364.009609 -152.618395 
L 364.42678 -152.590175 
L 364.844806 -152.187567 
L 365.408929 -152.020114 
L 366.079257 -151.955317 
L 366.642185 -151.825781 
L 367.155945 -151.911594 
L 367.761122 -151.72278 
L 368.236232 -151.479002 
L 368.757525 -151.43719 
L 369.397474 -151.479523 
L 369.976882 -151.469869 
L 370.631433 -151.287996 
L 371.06056 -151.338919 
L 371.415172 -151.046293 
L 372.197617 -150.860615 
L 372.902161 -150.839526 
L 373.472029 -150.77969 
L 373.870302 -150.781533 
L 374.22981 -150.679292 
L 374.828327 -150.392754 
L 375.518928 -150.3277 
L 376.132567 -150.18676 
L 376.56058 -150.139257 
L 377.06248 -150.12468 
L 377.767073 -150.100852 
L 378.344679 -150.057404 
L 378.840666 -150.026362 
L 379.422352 -149.91353 
L 379.833621 -149.719695 
L 380.451872 -149.719961 
L 381.161558 -149.758177 
L 381.795575 -149.751325 
L 382.399771 -149.772434 
L 382.687606 -149.68878 
L 383.153474 -149.661261 
L 383.954866 -149.552166 
L 384.577283 -149.452213 
L 384.991078 -149.401719 
L 385.405274 -149.233217 
L 386.062111 -148.86597 
L 386.603911 -148.634113 
L 386.989001 -148.6536 
L 387.544862 -148.533543 
L 388.228205 -148.351227 
L 388.914639 -148.223059 
L 389.47668 -148.100494 
L 389.987327 -148.106547 
L 390.406641 -147.934083 
L 390.979485 -147.938373 
L 391.615753 -147.928334 
L 392.065865 -147.963769 
L 392.769988 -147.94617 
L 393.445658 -147.964983 
L 393.810593 -147.881542 
L 394.32573 -147.773171 
L 394.864872 -147.832796 
L 395.367637 -147.861191 
L 396.067784 -147.695238 
L 396.706257 -147.469138 
L 397.221404 -147.054404 
L 397.857622 -147.054454 
L 398.42493 -146.982922 
L 398.851285 -146.887758 
L 399.476247 -146.729416 
L 400.01963 -146.647428 
L 400.585425 -146.474667 
L 401.251219 -146.441693 
L 401.867902 -146.623222 
L 402.445001 -146.684942 
L 402.864848 -146.491757 
L 403.466065 -146.484876 
L 403.892361 -146.497186 
L 404.337495 -146.305582 
L 404.929425 -146.114326 
L 405.425945 -146.110619 
L 406.144567 -146.078937 
L 406.942541 -146.03152 
L 407.344107 -146.059622 
L 407.805133 -145.943521 
L 408.577515 -145.97577 
L 409.222708 -145.958314 
L 409.612711 -145.844092 
L 410.148705 -145.727479 
L 410.763508 -145.489137 
L 411.317721 -145.422357 
L 412.007649 -145.134204 
L 412.394659 -145.082549 
L 412.928298 -144.9426 
L 413.47023 -144.75867 
L 413.932732 -144.666596 
L 414.521034 -144.295261 
L 414.98752 -144.171922 
L 415.468606 -144.069256 
L 416.187267 -143.826832 
L 416.982665 -143.849463 
L 417.350882 -143.709116 
L 417.865663 -143.648002 
L 418.659534 -143.540379 
L 419.039618 -143.339226 
L 419.336725 -143.263333 
L 420.106823 -143.29451 
L 420.803569 -143.295774 
L 421.322096 -143.005894 
L 421.740404 -142.869443 
L 422.354002 -142.637453 
L 423.17607 -142.561573 
L 423.716658 -142.261947 
L 424.251348 -142.319876 
L 424.834859 -142.249618 
L 425.159051 -142.145337 
L 425.574261 -141.914562 
L 426.256601 -141.436446 
L 426.969516 -141.214324 
L 427.612883 -141.037672 
L 428.014524 -140.638234 
L 428.412366 -140.659413 
L 429.02785 -140.622504 
L 429.656323 -140.40604 
L 430.273713 -140.313606 
L 430.925642 -140.042661 
L 431.314244 -140.013074 
L 431.90762 -139.945141 
L 432.604922 -139.800383 
L 433.133916 -139.586897 
L 433.501559 -139.433076 
L 433.893166 -139.28421 
L 434.543502 -139.248334 
L 435.255073 -139.064856 
L 435.787688 -138.980858 
L 436.167668 -138.878257 
L 436.779106 -138.801209 
L 437.395347 -138.694133 
L 438.037011 -138.517364 
L 438.640507 -138.355619 
L 439.130597 -138.19169 
L 439.651207 -138.103619 
L 440.22712 -137.90576 
L 440.865724 -137.815414 
L 441.396566 -137.834725 
L 442.037844 -137.673644 
L 442.484961 -137.463836 
L 442.926939 -137.318339 
L 443.725669 -137.222356 
L 444.384771 -137.07765 
L 444.707617 -136.967261 
L 445.040309 -136.846702 
L 445.739124 -136.674316 
L 446.47003 -136.566786 
L 446.886213 -136.381978 
L 447.393079 -135.983545 
L 448.107706 -135.881977 
L 448.785003 -135.730149 
L 449.332329 -135.72226 
L 449.780663 -135.656676 
L 450.277191 -135.535644 
L 450.739277 -135.421578 
L 451.439957 -135.267075 
L 452.043117 -135.14141 
L 452.52356 -135.076735 
L 453.092406 -134.999124 
L 453.505109 -134.83771 
L 454.13249 -134.720859 
L 454.864874 -134.650293 
L 455.43855 -134.617492 
L 455.887246 -134.43656 
L 456.473782 -134.265695 
L 457.183956 -134.228122 
L 457.565931 -133.905011 
L 457.919497 -133.835555 
L 458.688197 -133.682662 
L 459.319868 -133.562679 
L 459.720558 -133.430633 
L 460.299577 -133.295607 
L 460.959264 -133.234492 
L 461.645613 -133.133622 
L 462.175963 -132.85091 
L 462.745491 -132.66271 
L 463.121988 -132.581281 
L 463.672998 -132.486301 
L 464.445031 -132.15476 
L 464.776363 -132.016651 
L 465.292856 -131.765168 
L 465.877654 -131.520644 
L 466.341764 -131.364614 
L 467.06865 -131.236783 
L 467.715034 -130.965385 
L 468.154523 -130.732393 
L 468.679128 -130.587208 
L 469.342405 -130.414533 
L 469.760866 -130.213642 
L 470.133194 -130.241874 
L 470.749829 -130.21078 
L 471.374637 -130.280655 
L 471.904342 -130.156614 
L 472.628059 -129.987919 
L 473.212564 -129.892671 
L 473.664631 -129.868625 
L 474.340091 -129.636927 
L 474.756921 -129.613971 
L 475.382442 -129.425924 
L 476.056264 -129.439271 
L 476.439791 -129.048125 
L 477.092529 -128.927096 
L 477.795172 -128.727071 
L 478.121469 -128.666022 
L 478.538765 -128.481634 
L 479.105949 -128.202921 
L 479.754105 -128.1321 
L 480.544115 -127.794408 
L 480.997118 -127.637987 
L 481.397692 -127.468602 
L 481.934914 -127.290948 
L 482.503168 -126.979519 
L 483.199922 -126.619524 
L 483.84835 -126.483917 
L 484.452245 -126.387962 
L 484.864397 -126.12875 
L 485.197746 -126.024855 
L 485.890473 -125.841256 
L 486.582193 -125.648583 
L 487.217531 -125.496894 
L 487.791597 -125.022308 
L 488.111907 -124.667517 
L 488.630626 -124.398665 
L 489.398107 -123.999586 
L 490.116682 -123.1816 
L 490.575469 -123.021157 
L 491.036612 -122.735759 
L 491.661059 -122.150927 
L 492.12438 -121.781828 
L 492.560724 -121.491699 
L 493.053474 -121.21412 
L 493.669379 -120.840487 
L 494.373457 -120.698896 
L 494.820902 -120.48362 
L 495.43559 -120.184898 
L 496.105648 -119.925932 
L 496.510087 -119.665805 
L 496.963394 -119.435939 
L 497.467633 -119.038133 
L 498.244169 -118.554757 
L 498.968349 -118.14658 
L 499.511811 -117.661648 
L 499.897933 -117.333255 
L 500.478671 -116.953814 
L 501.301282 -116.632864 
L 501.686453 -116.273702 
L 501.99085 -115.971991 
L 502.724367 -115.625631 
L 503.268847 -115.279376 
L 503.592842 -114.781199 
L 504.340138 -114.390168 
L 504.877134 -113.850813 
L 505.493736 -113.636089 
L 506.325451 -113.355683 
L 506.818778 -112.878173 
L 507.342212 -112.738462 
L 507.935483 -112.217521 
L 508.30358 -111.654532 
L 508.81669 -111.38055 
L 509.46191 -111.084502 
L 509.946902 -110.895199 
L 510.417348 -110.78592 
L 511.012374 -110.411766 
L 511.587778 -110.175233 
L 512.264266 -109.959827 
L 512.90106 -109.787545 
L 513.431782 -109.715002 
L 513.965627 -109.58316 
L 514.329042 -109.027796 
L 515.036092 -108.549154 
L 515.605772 -108.32249 
L 516.019221 -107.872719 
L 516.597451 -107.573744 
L 517.178383 -107.378501 
L 517.803955 -107.338307 
L 518.273081 -107.178854 
L 518.784092 -106.836718 
L 519.305005 -106.385712 
L 519.792457 -106.171451 
L 520.587022 -105.975677 
L 521.159173 -105.733189 
L 521.688176 -105.498918 
L 522.294759 -105.107069 
L 522.774418 -104.647229 
L 523.336885 -103.983836 
L 523.907114 -103.698307 
L 524.572308 -103.512721 
L 525.17742 -102.926846 
L 525.64462 -102.355116 
L 526.027357 -102.146699 
L 526.549767 -101.652296 
L 527.153705 -101.367361 
L 527.784608 -100.948741 
L 528.325923 -100.66997 
L 528.951218 -100.183561 
L 529.646161 -99.686986 
L 530.004559 -99.449635 
L 530.553477 -99.050051 
L 531.329452 -98.554451 
L 531.869359 -97.996804 
L 532.445753 -97.271344 
L 533.104474 -96.829983 
L 533.582484 -96.284521 
L 534.055919 -95.874607 
L 534.698099 -95.477958 
L 535.219748 -95.156783 
L 535.681354 -94.617048 
L 536.156158 -94.139243 
L 536.692698 -93.687658 
L 537.186538 -93.246765 
L 537.62411 -92.752165 
L 538.403137 -92.388155 
L 539.010983 -91.848846 
L 539.404851 -91.459941 
L 540.003072 -91.022161 
L 540.517058 -90.821882 
L 541.143062 -90.612544 
L 541.937854 -90.374634 
L 542.4326 -89.970742 
L 542.731778 -89.869802 
L 543.333061 -89.40426 
L 544.059306 -89.304613 
L 544.568857 -88.730433 
L 545.101939 -88.559329 
L 545.62875 -88.333832 
L 546.243352 -88.136347 
L 546.753928 -87.925537 
L 547.298515 -87.689048 
L 547.90199 -87.62117 
L 548.416868 -87.532969 
L 548.916655 -87.271022 
L 549.427348 -87.057251 
L 550.11424 -86.75423 
L 550.849818 -86.600747 
L 551.519299 -86.386543 
L 551.997438 -86.01682 
L 552.507519 -85.711276 
L 552.998837 -85.557995 
L 553.392661 -85.537607 
L 554.016579 -85.281338 
L 554.725105 -85.106599 
L 555.239786 -85.037417 
L 555.80975 -84.962642 
L 556.416954 -84.886508 
L 556.955737 -84.89419 
L 557.468155 -84.954116 
L 557.90141 -84.846369 
L 558.522705 -84.682372 
L 559.153873 -84.552221 
L 559.623541 -84.513258 
L 560.181443 -84.425696 
L 560.749175 -84.276491 
L 561.451515 -84.254957 
L 562.001071 -84.273673 
L 562.300549 -84.441057 
L 562.97418 -84.471869 
L 563.634369 -84.778978 
L 564.157159 -84.730211 
L 564.763028 -84.887276 
L 565.174028 -84.947349 
L 565.619525 -84.800179 
L 566.310695 -84.483427 
L 566.978897 -84.369601 
L 567.380168 -84.372666 
L 567.780977 -84.296623 
L 568.557246 -84.134715 
L 569.26319 -83.724894 
L 569.782717 -83.458042 
L 570.351861 -83.243443 
L 570.799906 -83.248729 
L 571.323621 -83.215284 
L 571.839983 -83.327397 
L 572.450867 -83.58207 
L 573.077076 -83.621217 
L 573.728145 -83.68922 
L 574.359185 -83.935768 
L 574.697536 -84.36334 
L 575.26776 -84.629466 
L 575.880634 -84.776678 
L 576.441247 -85.058891 
L 576.936589 -85.294583 
L 577.447619 -85.517227 
L 577.964165 -85.447278 
L 578.349435 -85.460429 
L 579.066177 -85.512656 
L 579.831059 -85.494235 
L 580.473363 -85.481581 
L 581.049553 -85.346562 
L 581.518774 -85.246144 
L 582.093315 -85.224019 
L 582.620561 -85.086973 
L 583.040553 -84.913769 
L 583.549044 -85.004974 
L 584.173109 -84.714771 
L 584.882842 -84.692133 
L 585.333135 -84.714114 
L 585.924429 -84.569086 
L 586.4553 -84.232581 
L 587.003437 -84.043143 
L 587.787502 -83.831672 
L 588.156135 -83.542001 
L 588.498488 -83.217065 
L 589.144963 -82.929885 
L 589.714867 -82.532062 
L 590.354137 -82.201273 
L 590.895118 -81.995617 
L 591.318352 -81.683324 
L 592.001859 -81.297448 
L 592.618522 -80.336913 
L 593.131894 -79.828639 
L 593.702649 -79.1913 
L 594.284285 -78.698728 
L 594.931097 -77.989015 
L 595.542132 -77.434313 
L 596.11114 -76.530053 
L 596.606813 -76.052378 
L 597.16024 -75.353367 
L 597.692997 -74.701544 
L 598.075525 -74.291301 
L 598.742737 -73.962325 
L 599.47064 -73.280093 
L 599.943701 -72.39509 
L 600.507162 -71.904379 
L 601.072395 -71.290419 
L 601.586341 -70.499047 
L 602.056621 -69.217509 
L 602.61217 -68.027621 
L 603.306272 -67.169474 
L 603.646754 -66.508113 
L 604.031892 -66.022973 
L 604.71254 -65.021479 
L 605.476242 -64.094697 
L 606.079464 -63.455125 
L 606.685172 -62.901836 
L 607.267777 -62.426958 
L 607.715311 -61.737415 
L 608.238757 -60.742718 
L 608.671654 -59.819885 
L 609.266369 -59.183868 
L 609.811085 -58.308436 
L 610.444454 -57.162009 
L 611.135232 -55.379276 
L 611.554168 -54.784705 
L 611.809277 -59.305207 
L 611.809277 -73.861181 
L 611.809277 -73.861181 
L 611.554168 -73.253877 
L 611.135232 -73.035182 
L 610.444454 -73.500603 
L 609.811085 -73.450585 
L 609.266369 -73.812639 
L 608.671654 -74.227282 
L 608.238757 -74.629038 
L 607.715311 -75.19864 
L 607.267777 -75.633436 
L 606.685172 -75.807026 
L 606.079464 -76.03269 
L 605.476242 -76.365263 
L 604.71254 -76.94269 
L 604.031892 -77.334995 
L 603.646754 -77.915278 
L 603.306272 -78.313584 
L 602.61217 -79.192868 
L 602.056621 -79.718475 
L 601.586341 -80.163556 
L 601.072395 -80.629646 
L 600.507162 -80.840567 
L 599.943701 -81.275177 
L 599.47064 -81.611418 
L 598.742737 -81.806974 
L 598.075525 -82.352985 
L 597.692997 -82.664417 
L 597.16024 -83.311391 
L 596.606813 -83.64828 
L 596.11114 -83.929685 
L 595.542132 -83.994138 
L 594.931097 -84.252024 
L 594.284285 -84.366069 
L 593.702649 -84.83877 
L 593.131894 -85.174218 
L 592.618522 -85.367393 
L 592.001859 -85.511731 
L 591.318352 -85.645514 
L 590.895118 -85.974801 
L 590.354137 -86.071225 
L 589.714867 -86.433051 
L 589.144963 -86.945202 
L 588.498488 -87.225456 
L 588.156135 -87.919961 
L 587.787502 -88.286801 
L 587.003437 -88.660813 
L 586.4553 -89.168543 
L 585.924429 -89.494531 
L 585.333135 -89.564094 
L 584.882842 -89.557712 
L 584.173109 -89.487298 
L 583.549044 -89.494203 
L 583.040553 -89.430449 
L 582.620561 -89.723967 
L 582.093315 -89.76763 
L 581.518774 -89.602489 
L 581.049553 -89.452982 
L 580.473363 -89.3583 
L 579.831059 -89.241681 
L 579.066177 -88.9788 
L 578.349435 -88.880026 
L 577.964165 -88.868575 
L 577.447619 -88.842318 
L 576.936589 -88.734743 
L 576.441247 -88.733488 
L 575.880634 -88.69536 
L 575.26776 -88.617411 
L 574.697536 -88.720935 
L 574.359185 -88.822478 
L 573.728145 -88.885247 
L 573.077076 -88.91945 
L 572.450867 -89.094216 
L 571.839983 -89.361927 
L 571.323621 -89.559135 
L 570.799906 -89.769591 
L 570.351861 -89.943676 
L 569.782717 -90.056162 
L 569.26319 -90.288389 
L 568.557246 -90.473435 
L 567.780977 -90.634366 
L 567.380168 -90.74497 
L 566.978897 -90.827637 
L 566.310695 -90.906722 
L 565.619525 -91.316631 
L 565.174028 -91.419177 
L 564.763028 -91.562677 
L 564.157159 -91.578528 
L 563.634369 -91.81346 
L 562.97418 -91.979403 
L 562.300549 -91.943896 
L 562.001071 -92.105789 
L 561.451515 -92.359494 
L 560.749175 -92.468705 
L 560.181443 -92.59998 
L 559.623541 -92.659448 
L 559.153873 -92.958216 
L 558.522705 -93.152648 
L 557.90141 -93.352588 
L 557.468155 -93.489083 
L 556.955737 -93.589096 
L 556.416954 -93.694028 
L 555.80975 -93.815969 
L 555.239786 -94.063037 
L 554.725105 -94.165731 
L 554.016579 -94.38981 
L 553.392661 -94.753153 
L 552.998837 -95.067171 
L 552.507519 -95.220805 
L 551.997438 -95.307343 
L 551.519299 -95.757382 
L 550.849818 -95.96562 
L 550.11424 -96.260262 
L 549.427348 -96.425427 
L 548.916655 -96.550589 
L 548.416868 -96.764258 
L 547.90199 -96.940278 
L 547.298515 -97.031612 
L 546.753928 -97.286754 
L 546.243352 -97.45926 
L 545.62875 -98.01112 
L 545.101939 -98.147042 
L 544.568857 -98.255453 
L 544.059306 -98.325964 
L 543.333061 -98.428947 
L 542.731778 -98.739482 
L 542.4326 -99.072126 
L 541.937854 -99.342869 
L 541.143062 -99.543081 
L 540.517058 -99.810689 
L 540.003072 -99.904195 
L 539.404851 -100.030422 
L 539.010983 -100.427901 
L 538.403137 -100.868147 
L 537.62411 -101.083791 
L 537.186538 -101.245079 
L 536.692698 -101.633491 
L 536.156158 -102.07343 
L 535.681354 -102.772019 
L 535.219748 -103.198174 
L 534.698099 -103.39613 
L 534.055919 -103.718608 
L 533.582484 -104.040065 
L 533.104474 -104.546719 
L 532.445753 -104.819159 
L 531.869359 -105.274323 
L 531.329452 -105.664143 
L 530.553477 -106.089775 
L 530.004559 -106.543804 
L 529.646161 -106.867996 
L 528.951218 -107.03869 
L 528.325923 -107.408202 
L 527.784608 -107.884608 
L 527.153705 -108.181695 
L 526.549767 -108.706713 
L 526.027357 -109.095841 
L 525.64462 -109.260479 
L 525.17742 -109.795363 
L 524.572308 -110.053253 
L 523.907114 -110.434076 
L 523.336885 -110.702295 
L 522.774418 -110.883226 
L 522.294759 -110.969375 
L 521.688176 -111.385953 
L 521.159173 -111.663448 
L 520.587022 -112.130985 
L 519.792457 -112.212377 
L 519.305005 -112.359347 
L 518.784092 -112.380034 
L 518.273081 -112.467139 
L 517.803955 -112.609281 
L 517.178383 -112.745494 
L 516.597451 -112.910028 
L 516.019221 -113.175171 
L 515.605772 -113.333422 
L 515.036092 -113.507566 
L 514.329042 -113.805115 
L 513.965627 -114.065436 
L 513.431782 -114.304787 
L 512.90106 -114.542353 
L 512.264266 -114.800882 
L 511.587778 -115.162873 
L 511.012374 -115.360554 
L 510.417348 -115.844389 
L 509.946902 -115.918603 
L 509.46191 -116.261102 
L 508.81669 -116.411811 
L 508.30358 -116.55376 
L 507.935483 -116.822746 
L 507.342212 -116.992263 
L 506.818778 -117.469736 
L 506.325451 -117.63897 
L 505.493736 -118.027545 
L 504.877134 -118.447054 
L 504.340138 -118.709333 
L 503.592842 -118.96697 
L 503.268847 -119.485139 
L 502.724367 -119.848124 
L 501.99085 -120.298058 
L 501.686453 -120.484789 
L 501.301282 -120.673437 
L 500.478671 -120.976878 
L 499.897933 -121.23447 
L 499.511811 -121.739294 
L 498.968349 -121.989873 
L 498.244169 -122.389938 
L 497.467633 -122.662477 
L 496.963394 -122.960536 
L 496.510087 -123.148886 
L 496.105648 -123.586077 
L 495.43559 -123.862143 
L 494.820902 -124.088871 
L 494.373457 -124.365505 
L 493.669379 -124.90002 
L 493.053474 -125.183229 
L 492.560724 -125.467193 
L 492.12438 -125.813875 
L 491.661059 -126.03964 
L 491.036612 -126.246643 
L 490.575469 -126.629692 
L 490.116682 -126.903548 
L 489.398107 -127.471407 
L 488.630626 -127.672355 
L 488.111907 -127.907932 
L 487.791597 -128.300891 
L 487.217531 -128.495521 
L 486.582193 -128.711636 
L 485.890473 -128.949331 
L 485.197746 -129.390526 
L 484.864397 -129.993352 
L 484.452245 -130.117712 
L 483.84835 -130.510201 
L 483.199922 -130.949258 
L 482.503168 -131.452499 
L 481.934914 -131.738963 
L 481.397692 -132.146997 
L 480.997118 -132.203361 
L 480.544115 -132.401042 
L 479.754105 -132.565328 
L 479.105949 -132.917986 
L 478.538765 -133.035223 
L 478.121469 -133.041109 
L 477.795172 -133.121322 
L 477.092529 -133.272518 
L 476.439791 -133.35101 
L 476.056264 -133.49582 
L 475.382442 -133.625685 
L 474.756921 -133.713658 
L 474.340091 -134.107748 
L 473.664631 -134.250468 
L 473.212564 -134.327328 
L 472.628059 -134.391931 
L 471.904342 -134.431845 
L 471.374637 -134.508405 
L 470.749829 -134.891314 
L 470.133194 -134.891022 
L 469.760866 -135.169823 
L 469.342405 -135.256817 
L 468.679128 -135.446327 
L 468.154523 -135.585953 
L 467.715034 -135.770147 
L 467.06865 -135.755455 
L 466.341764 -136.120205 
L 465.877654 -136.168951 
L 465.292856 -136.364088 
L 464.776363 -136.544211 
L 464.445031 -136.597393 
L 463.672998 -136.663761 
L 463.121988 -136.842727 
L 462.745491 -137.129683 
L 462.175963 -137.230131 
L 461.645613 -137.42527 
L 460.959264 -137.61161 
L 460.299577 -137.825034 
L 459.720558 -138.224172 
L 459.319868 -138.528372 
L 458.688197 -138.598787 
L 457.919497 -139.073532 
L 457.565931 -139.132276 
L 457.183956 -139.244394 
L 456.473782 -139.267858 
L 455.887246 -139.286385 
L 455.43855 -139.506006 
L 454.864874 -139.993178 
L 454.13249 -140.101091 
L 453.505109 -140.231023 
L 453.092406 -140.454079 
L 452.52356 -140.588166 
L 452.043117 -140.743087 
L 451.439957 -140.759482 
L 450.739277 -140.875089 
L 450.277191 -140.877063 
L 449.780663 -141.01446 
L 449.332329 -141.108755 
L 448.785003 -141.349277 
L 448.107706 -141.443548 
L 447.393079 -141.450814 
L 446.886213 -141.510118 
L 446.47003 -141.556873 
L 445.739124 -141.665854 
L 445.040309 -141.66875 
L 444.707617 -142.160974 
L 444.384771 -142.419484 
L 443.725669 -142.598134 
L 442.926939 -142.566768 
L 442.484961 -142.556748 
L 442.037844 -142.689434 
L 441.396566 -143.062872 
L 440.865724 -143.16999 
L 440.22712 -143.331522 
L 439.651207 -143.429629 
L 439.130597 -143.77057 
L 438.640507 -143.86191 
L 438.037011 -144.045346 
L 437.395347 -144.09476 
L 436.779106 -144.26857 
L 436.167668 -144.318767 
L 435.787688 -144.369296 
L 435.255073 -144.392582 
L 434.543502 -144.308589 
L 433.893166 -144.419234 
L 433.501559 -144.38579 
L 433.133916 -144.368931 
L 432.604922 -144.430341 
L 431.90762 -144.593113 
L 431.314244 -144.773648 
L 430.925642 -144.869203 
L 430.273713 -144.897374 
L 429.656323 -144.899432 
L 429.02785 -144.918559 
L 428.412366 -145.019599 
L 428.014524 -145.233636 
L 427.612883 -145.395699 
L 426.969516 -145.716648 
L 426.256601 -145.902511 
L 425.574261 -146.293978 
L 425.159051 -146.527897 
L 424.834859 -146.546473 
L 424.251348 -146.503557 
L 423.716658 -146.644321 
L 423.17607 -146.731193 
L 422.354002 -146.765849 
L 421.740404 -146.837951 
L 421.322096 -146.867682 
L 420.803569 -146.899828 
L 420.106823 -146.919634 
L 419.336725 -147.044846 
L 419.039618 -147.298644 
L 418.659534 -147.491261 
L 417.865663 -147.603003 
L 417.350882 -147.694939 
L 416.982665 -147.874832 
L 416.187267 -148.005677 
L 415.468606 -148.333493 
L 414.98752 -148.606164 
L 414.521034 -148.876076 
L 413.932732 -149.012589 
L 413.47023 -148.958377 
L 412.928298 -149.152343 
L 412.394659 -149.315429 
L 412.007649 -149.446638 
L 411.317721 -149.573707 
L 410.763508 -149.599593 
L 410.148705 -149.559713 
L 409.612711 -149.439827 
L 409.222708 -149.470352 
L 408.577515 -149.35504 
L 407.805133 -149.001258 
L 407.344107 -149.071851 
L 406.942541 -149.474748 
L 406.144567 -149.422091 
L 405.425945 -149.555764 
L 404.929425 -149.636907 
L 404.337495 -149.749876 
L 403.892361 -149.809812 
L 403.466065 -149.780237 
L 402.864848 -149.885847 
L 402.445001 -150.016074 
L 401.867902 -149.992686 
L 401.251219 -149.998253 
L 400.585425 -149.900183 
L 400.01963 -149.872235 
L 399.476247 -149.730936 
L 398.851285 -149.7503 
L 398.42493 -149.881823 
L 397.857622 -149.868306 
L 397.221404 -149.911453 
L 396.706257 -149.790544 
L 396.067784 -149.778673 
L 395.367637 -149.798024 
L 394.864872 -150.030911 
L 394.32573 -150.183601 
L 393.810593 -150.210008 
L 393.445658 -150.288331 
L 392.769988 -150.455812 
L 392.065865 -150.538189 
L 391.615753 -150.550436 
L 390.979485 -150.616723 
L 390.406641 -150.807434 
L 389.987327 -150.848955 
L 389.47668 -150.872247 
L 388.914639 -150.931082 
L 388.228205 -151.029066 
L 387.544862 -151.029953 
L 386.989001 -151.427845 
L 386.603911 -151.426265 
L 386.062111 -151.423248 
L 385.405274 -151.587912 
L 384.991078 -151.657052 
L 384.577283 -151.979361 
L 383.954866 -152.07181 
L 383.153474 -152.242923 
L 382.687606 -152.403574 
L 382.399771 -152.488697 
L 381.795575 -152.726886 
L 381.161558 -152.767459 
L 380.451872 -152.907575 
L 379.833621 -153.038163 
L 379.422352 -152.873142 
L 378.840666 -153.063921 
L 378.344679 -153.226268 
L 377.767073 -153.344233 
L 377.06248 -153.460718 
L 376.56058 -153.471098 
L 376.132567 -153.786038 
L 375.518928 -153.871201 
L 374.828327 -153.85921 
L 374.22981 -154.028793 
L 373.870302 -154.395055 
L 373.472029 -154.386602 
L 372.902161 -154.46226 
L 372.197617 -154.376604 
L 371.415172 -154.478391 
L 371.06056 -154.610196 
L 370.631433 -154.653408 
L 369.976882 -154.786624 
L 369.397474 -154.694359 
L 368.757525 -154.810324 
L 368.236232 -154.910703 
L 367.761122 -154.929183 
L 367.155945 -155.1598 
L 366.642185 -155.184971 
L 366.079257 -155.569532 
L 365.408929 -155.846788 
L 364.844806 -155.924241 
L 364.42678 -156.244058 
L 364.009609 -156.628951 
L 363.261981 -156.739628 
L 362.479627 -156.757285 
L 361.913633 -156.911938 
L 361.379445 -156.906324 
L 361.031483 -157.027622 
L 360.558217 -157.109594 
L 359.757437 -157.28212 
L 359.335183 -157.303512 
L 359.03944 -157.398215 
L 358.324149 -157.470817 
L 357.60627 -157.568976 
L 357.110029 -157.594209 
L 356.70686 -158.072709 
L 356.212766 -158.26974 
L 355.579092 -158.356935 
L 355.027352 -158.404578 
L 354.438283 -158.538773 
L 353.656178 -158.622433 
L 352.941433 -158.840961 
L 352.377373 -158.911366 
L 351.918038 -159.055918 
L 351.547597 -159.113251 
L 351.051547 -159.168246 
L 350.45494 -159.284973 
L 349.86182 -159.558017 
L 349.357585 -159.758767 
L 348.71664 -159.951988 
L 348.002123 -160.159278 
L 347.634076 -160.411796 
L 347.245738 -160.323869 
L 346.599977 -160.599574 
L 345.944705 -160.667635 
L 345.247166 -160.832542 
L 344.666081 -161.107399 
L 344.154495 -161.313558 
L 343.609236 -161.587523 
L 343.093408 -161.807002 
L 342.47316 -162.043741 
L 342.064842 -162.185313 
L 341.659385 -162.429788 
L 341.020675 -162.602158 
L 340.510906 -162.717829 
L 339.838712 -162.860212 
L 339.152675 -163.087235 
L 338.803617 -163.145422 
L 338.38 -163.292838 
L 337.777781 -163.458163 
L 337.187885 -163.631649 
L 336.667717 -163.890867 
L 336.074997 -164.065636 
L 335.513973 -164.321902 
L 334.886931 -164.563473 
L 334.163229 -164.707026 
L 333.53519 -164.727349 
L 332.954936 -164.909967 
L 332.484457 -165.175018 
L 332.023687 -165.387057 
L 331.42957 -165.574478 
L 330.87991 -165.775059 
L 330.453064 -165.822862 
L 329.994672 -165.966763 
L 329.309956 -166.079211 
L 328.755104 -166.208258 
L 328.225071 -166.28203 
L 327.479257 -166.347383 
L 326.855965 -166.37538 
L 326.277388 -166.644969 
L 325.681423 -166.786091 
L 325.292275 -167.075753 
L 324.759612 -167.352911 
L 324.046742 -167.483371 
L 323.543776 -167.712066 
L 323.16409 -167.864083 
L 322.589147 -168.125454 
L 321.885806 -168.392557 
L 321.420758 -168.584389 
L 321.015546 -168.71128 
L 320.530309 -169.06139 
L 319.702504 -169.272145 
L 318.872147 -169.430162 
L 318.501329 -169.744666 
L 318.036741 -169.926671 
L 317.567296 -170.210652 
L 317.006478 -170.372642 
L 316.330951 -170.445664 
L 315.697955 -170.542954 
L 315.021921 -170.808868 
L 314.54417 -171.247468 
L 314.223727 -171.454594 
L 313.832104 -171.622807 
L 313.218085 -171.803751 
L 312.600103 -172.029395 
L 312.076787 -172.206839 
L 311.577653 -172.245567 
L 310.994743 -172.333557 
L 310.232079 -172.528912 
L 309.490353 -172.699198 
L 309.108224 -172.986754 
L 308.56792 -173.233815 
L 308.042585 -173.557057 
L 307.496966 -173.890338 
L 306.765045 -174.325997 
L 306.136648 -174.651765 
L 305.71385 -174.879897 
L 305.303667 -175.002014 
L 304.719426 -175.207278 
L 304.18358 -175.369109 
L 303.64681 -175.598722 
L 303.161745 -175.769741 
L 302.386316 -176.109027 
L 301.74852 -176.233789 
L 301.224209 -176.36502 
L 300.523531 -176.520467 
L 300.140536 -176.915507 
L 299.60033 -177.051352 
L 298.836924 -177.342931 
L 298.454354 -177.599372 
L 298.078242 -177.769221 
L 297.417687 -178.090217 
L 296.779982 -178.168428 
L 296.156874 -178.451892 
L 295.5214 -178.594794 
L 295.046161 -178.818545 
L 294.587796 -179.12641 
L 294.164059 -179.655474 
L 293.689603 -180.161408 
L 293.083854 -180.611539 
L 292.547322 -180.960996 
L 291.807713 -181.073558 
L 291.248735 -181.655043 
L 290.870101 -181.941572 
L 290.162912 -182.209602 
L 289.470081 -182.488878 
L 288.940361 -182.792102 
L 288.538287 -183.111621 
L 287.983335 -183.287283 
L 287.186124 -183.374862 
L 286.663491 -183.49996 
L 286.326294 -183.867938 
L 285.726886 -184.156881 
L 285.092239 -184.267947 
L 284.516459 -184.418528 
L 283.927662 -184.623153 
L 283.438378 -184.661608 
L 282.815243 -184.704155 
L 282.335344 -184.907451 
L 281.833603 -185.047615 
L 281.177749 -185.237977 
L 280.762674 -185.466289 
L 280.257944 -185.746763 
L 279.528137 -186.013664 
L 278.917035 -186.190002 
L 278.363876 -186.243013 
L 277.697067 -186.512265 
L 277.3097 -186.60166 
L 276.840858 -186.972778 
L 276.267424 -187.276045 
L 275.607983 -187.305247 
L 274.882844 -187.445323 
L 274.531364 -187.71721 
L 274.104975 -187.86547 
L 273.540472 -188.04842 
L 272.96288 -188.145899 
L 272.363924 -188.222579 
L 271.786189 -188.593421 
L 271.26204 -188.973219 
L 270.712805 -189.129548 
L 270.039057 -189.489509 
L 269.493773 -189.695448 
L 268.947971 -189.894633 
L 268.267423 -190.18825 
L 267.602825 -190.399124 
L 266.998492 -190.584562 
L 266.438906 -190.799307 
L 265.959347 -191.082122 
L 265.508869 -191.261947 
L 265.102062 -191.363671 
L 264.576401 -191.597284 
L 263.815539 -191.806785 
L 263.261789 -191.955082 
L 262.765989 -192.217534 
L 262.299091 -192.548411 
L 261.735166 -192.692048 
L 260.993881 -192.96304 
L 260.536705 -193.061895 
L 260.111074 -193.342774 
L 259.417714 -193.541113 
L 258.837153 -193.774368 
L 258.321914 -194.058482 
L 257.659327 -194.281854 
L 257.14557 -194.413813 
L 256.58195 -194.739051 
L 255.97963 -195.09106 
L 255.577145 -195.58949 
L 255.103087 -195.689358 
L 254.375055 -195.815763 
L 253.729411 -196.470218 
L 253.137052 -196.714417 
L 252.709056 -197.014891 
L 252.326627 -197.347781 
L 251.792557 -197.817637 
L 251.286534 -197.961993 
L 250.634405 -198.339936 
L 250.085514 -198.536765 
L 249.548684 -198.658991 
L 248.934738 -198.861361 
L 248.234237 -199.307914 
L 247.584325 -199.621213 
L 247.132746 -199.712257 
L 246.6553 -199.853091 
L 246.135169 -199.88953 
L 245.514839 -200.069514 
L 244.777913 -200.432119 
L 244.151273 -200.445427 
L 243.751592 -200.480537 
L 243.30986 -200.698256 
L 242.697263 -200.876258 
L 242.019023 -200.920522 
L 241.380869 -201.195695 
L 240.932068 -201.283872 
L 240.368307 -201.334778 
L 239.774234 -201.696975 
L 239.204422 -201.813191 
L 238.681097 -201.979603 
L 238.153846 -202.172901 
L 237.647964 -202.38356 
L 237.165202 -202.706903 
L 236.673713 -202.756143 
L 236.111886 -203.170312 
L 235.486523 -203.320018 
L 234.99496 -203.626035 
L 234.368527 -203.939967 
L 233.675036 -204.225024 
L 233.188415 -204.277174 
L 232.659637 -204.714633 
L 232.161765 -204.952456 
L 231.693248 -205.183282 
L 231.074579 -205.319274 
L 230.517669 -205.455686 
L 229.779854 -205.501274 
L 229.224175 -205.985474 
L 228.832682 -206.038973 
L 228.198159 -206.002101 
L 227.53877 -206.042025 
L 227.047677 -206.105067 
L 226.427807 -206.140526 
L 225.881244 -206.203959 
L 225.48366 -205.967499 
L 224.97142 -205.819492 
L 224.461027 -205.890466 
L 223.859971 -206.03367 
L 223.281914 -206.042843 
L 222.669868 -206.042826 
L 221.931374 -206.362854 
L 221.356977 -206.453062 
L 220.88361 -206.483249 
L 220.484415 -206.565776 
L 219.920846 -206.703092 
L 219.305791 -206.832654 
L 218.834678 -206.958872 
L 218.158905 -207.12522 
L 217.595744 -207.356284 
L 217.050672 -207.451542 
L 216.306991 -207.531432 
L 215.773956 -207.844877 
L 215.349627 -207.998301 
L 214.759624 -208.132687 
L 214.194994 -208.462416 
L 213.651706 -208.648295 
L 213.051591 -208.756842 
L 212.591039 -208.79877 
L 212.181425 -209.128756 
L 211.605108 -209.325151 
L 211.016793 -209.406052 
L 210.464794 -209.618114 
L 209.851302 -210.008867 
L 209.175305 -210.081066 
L 208.579602 -210.161064 
L 208.070585 -210.328249 
L 207.436946 -210.448891 
L 206.898139 -210.693599 
L 206.420563 -210.839806 
L 205.97503 -210.996379 
L 205.405031 -211.169202 
L 204.706888 -211.377674 
L 204.114129 -211.342663 
L 203.634777 -211.446647 
L 203.21138 -211.493189 
L 202.728814 -211.737134 
L 202.181912 -212.142536 
L 201.366695 -212.274173 
L 200.608629 -212.376432 
L 200.108874 -212.466852 
L 199.724708 -212.626041 
L 199.184578 -212.733958 
L 198.549667 -212.939799 
L 198.08506 -213.032035 
L 197.517806 -213.069886 
L 197.009565 -213.287415 
L 196.573948 -213.316478 
L 195.954825 -213.551272 
L 195.200377 -213.863467 
L 194.502155 -213.866348 
L 193.936714 -213.970614 
L 193.419333 -214.060349 
L 192.934355 -214.158337 
L 192.339968 -214.243502 
L 191.770511 -214.597441 
L 191.417171 -214.626442 
L 190.845463 -214.681642 
L 190.260471 -214.894162 
L 189.681289 -214.997214 
L 188.955822 -215.043711 
L 188.378082 -215.066117 
L 187.87 -215.175601 
L 187.452469 -215.240541 
L 186.979168 -215.338005 
L 186.398865 -215.315362 
L 185.73925 -215.200796 
L 185.217723 -215.148621 
L 184.807933 -215.122279 
L 184.105084 -215.192711 
L 183.34414 -215.304936 
L 182.881736 -215.387645 
L 182.343062 -215.385636 
L 181.781889 -215.494913 
L 181.222799 -215.659593 
L 180.597895 -215.72151 
L 180.105982 -215.918907 
L 179.699605 -216.144539 
L 179.25324 -216.163215 
L 178.634228 -216.198585 
L 178.125579 -216.267761 
L 177.570147 -216.363989 
L 176.807222 -216.478973 
L 176.209858 -216.516974 
L 175.747804 -216.645546 
L 175.095908 -216.73503 
L 174.51771 -216.822373 
L 174.139759 -217.013244 
L 173.635084 -217.139023 
L 172.892158 -217.26001 
L 172.27971 -217.378888 
L 171.741195 -217.482295 
L 171.155745 -217.644597 
L 170.699761 -217.640177 
L 170.092351 -217.807948 
L 169.581315 -218.043119 
L 169.206213 -218.160078 
L 168.62003 -218.440617 
L 167.929551 -218.479363 
L 167.241615 -218.496909 
L 166.760361 -218.629583 
L 166.3483 -218.75119 
L 165.730385 -218.81765 
L 165.080376 -219.032255 
L 164.41836 -219.122534 
L 163.868071 -219.418019 
L 163.398522 -219.608006 
L 162.927365 -219.779021 
L 162.350042 -220.087285 
L 161.708781 -220.225674 
L 161.297956 -220.465355 
L 160.701805 -220.626573 
L 160.078294 -220.875466 
L 159.622033 -221.149876 
L 159.128118 -221.347827 
L 158.435347 -221.525414 
L 157.699318 -221.730539 
L 157.22939 -221.90334 
L 156.809888 -222.031541 
L 156.202016 -222.136006 
L 155.644283 -222.277019 
L 155.170596 -222.59783 
L 154.608489 -222.721727 
L 154.092506 -222.936941 
L 153.612245 -223.218167 
L 153.080555 -223.331366 
L 152.306203 -223.362766 
L 151.546255 -223.652897 
L 151.115371 -223.682536 
L 150.646335 -223.70737 
L 150.024487 -223.853852 
L 149.606024 -223.898742 
L 149.197724 -224.056004 
L 148.390193 -224.056705 
L 147.578851 -224.178083 
L 147.216562 -224.365388 
L 146.780228 -224.384986 
L 146.204029 -224.635674 
L 145.64445 -224.711477 
L 145.105337 -224.828706 
L 144.462705 -225.026658 
L 143.792983 -225.399746 
L 143.385958 -225.662977 
L 142.851032 -225.764922 
L 142.151112 -225.746177 
L 141.703032 -225.899064 
L 141.130953 -225.979724 
L 140.394111 -225.920617 
L 139.846931 -225.965466 
L 139.335881 -226.112877 
L 138.921475 -226.128032 
L 138.338817 -226.123247 
L 137.821748 -226.316157 
L 137.324676 -226.441234 
L 136.60714 -226.576474 
L 136.104666 -226.543181 
L 135.619477 -226.794424 
L 135.011796 -226.773203 
L 134.445172 -226.971449 
L 133.932716 -227.031532 
L 133.376657 -227.092521 
L 132.656874 -227.28138 
L 131.971517 -227.383362 
L 131.501353 -227.458629 
L 131.194416 -227.675377 
L 130.558564 -227.764629 
L 129.782433 -227.949294 
L 129.350082 -228.023164 
L 128.780549 -228.181354 
L 128.276677 -228.275968 
L 127.87675 -228.522329 
L 127.259005 -228.638225 
L 126.771561 -228.625137 
L 126.081579 -228.63891 
L 125.332694 -228.652344 
L 124.827407 -228.750431 
L 124.21365 -228.83844 
L 123.607444 -228.863633 
L 123.111972 -228.910016 
L 122.796915 -229.024229 
L 122.358373 -229.066957 
L 121.549908 -229.096554 
L 120.941522 -229.225946 
L 120.440144 -229.35473 
L 119.904637 -229.474848 
L 119.494203 -229.458611 
L 118.963568 -229.722361 
L 118.345328 -229.740676 
L 117.611438 -229.981767 
L 117.146412 -230.137837 
L 116.799397 -230.2218 
L 116.025846 -230.265101 
L 115.476833 -230.392797 
L 115.112597 -230.633416 
L 114.578247 -230.723126 
L 113.884113 -230.892896 
L 113.291433 -230.979726 
L 112.791119 -231.234087 
L 112.220882 -231.443556 
L 111.572694 -231.717089 
L 110.826845 -232.039653 
L 110.47189 -232.393672 
L 110.053803 -232.604271 
L 109.264722 -232.966356 
L 108.590264 -233.365344 
L 108.08902 -233.709485 
L 107.713414 -234.019471 
L 107.13345 -234.462758 
L 106.348487 -234.811397 
L 105.821722 -235.20623 
L 105.471496 -235.521327 
L 104.863957 -235.784624 
L 104.273476 -236.160629 
L 103.827945 -236.42356 
L 103.173664 -236.846093 
L 102.720912 -237.126195 
L 102.245093 -237.63761 
L 101.514295 -237.894443 
L 100.784858 -238.231497 
L 100.250161 -238.590277 
L 99.799743 -238.774687 
L 99.296591 -238.95994 
L 98.655501 -239.279458 
L 98.093841 -239.399509 
L 97.577905 -239.672342 
L 96.867066 -240.015612 
L 96.481756 -240.390165 
L 96.107845 -240.479101 
L 95.576024 -240.538615 
L 94.905817 -240.697187 
L 94.187796 -240.846133 
L 93.802904 -241.002319 
L 93.24121 -241.111472 
L 92.486998 -241.353726 
L 91.959048 -241.291369 
L 91.446555 -241.33223 
L 90.959328 -241.461139 
L 90.551561 -241.562686 
L 90.012661 -241.75798 
L 89.439201 -241.730415 
L 88.888032 -241.577313 
L 88.21651 -241.447892 
L 87.503323 -241.244633 
L 86.904858 -241.331968 
L 86.341843 -241.316394 
L 85.769651 -241.214954 
L 85.199129 -241.203593 
L 84.730828 -241.278198 
L 84.127881 -241.458831 
L 83.458684 -241.514456 
L 83.071071 -241.730863 
L 82.640398 -241.729768 
L 82.137319 -242.083618 
L 81.554 -242.30357 
L 81.016472 -242.586028 
L 80.370575 -242.547983 
L 79.752235 -242.677038 
L 79.196864 -242.823924 
L 78.577201 -243.084746 
L 78.174672 -243.395435 
L 77.589566 -243.825053 
L 76.989038 -244.112162 
L 76.488604 -244.25746 
L 75.870866 -244.379248 
L 75.141808 -244.605945 
L 74.506933 -245.099293 
L 74.151054 -245.286419 
L 73.720242 -245.513314 
L 73.149988 -245.520003 
L 72.659098 -245.390083 
L 72.011224 -245.46875 
L 71.37419 -245.567277 
L 70.832364 -245.484655 
L 70.336555 -245.269049 
L 69.792953 -245.267651 
L 69.052839 -245.033112 
L 68.636875 -245.073601 
L 68.086397 -245.060492 
L 67.42962 -245.073423 
L 67.054551 -245.376265 
L 66.346372 -245.750443 
L 65.808916 -245.709333 
L 65.415861 -246.234231 
L 64.729624 -246.51652 
L 63.99518 -246.715865 
L 63.558359 -247.183373 
L 63.084586 -247.330206 
L 62.367326 -247.738868 
L 61.92092 -248.407074 
L 61.554349 -249.512461 
L 60.85612 -250.06088 
L 60.02864 -250.310117 
L 59.472353 -250.944894 
L 58.916622 -251.385904 
L 58.514823 -251.703564 
L 58.226932 -251.498777 
L 57.578762 -251.435613 
L 56.949431 -251.863885 
L 56.336118 -252.884229 
L 55.697426 -252.935123 
L 55.179279 -252.292172 
L 54.588574 -251.636384 
z
" style="stroke: #808080; stroke-opacity: 0.5; stroke-width: 0.5"/>
    </defs>
    <g clip-path="url(#p62a9c7aaed)">
     <use xlink:href="#ma40ce4642f" x="0" y="283.57" style="fill: #808080; fill-opacity: 0.5; stroke: #808080; stroke-opacity: 0.5; stroke-width: 0.5"/>
    </g>
   </g>
   <g id="line2d_29">
    <path d="M 54.588574 39.889722 
L 55.697426 36.921287 
L 56.336118 36.089828 
L 57.578762 36.414328 
L 58.226932 36.288892 
L 58.514823 36.109199 
L 59.472353 36.757558 
L 60.02864 37.281365 
L 60.85612 37.435942 
L 61.554349 37.953142 
L 61.92092 38.675058 
L 62.367326 39.154307 
L 63.558359 39.54844 
L 63.99518 39.9178 
L 65.415861 40.303295 
L 65.808916 40.60968 
L 66.346372 40.613557 
L 68.086397 41.239308 
L 70.336555 41.344241 
L 71.37419 41.281163 
L 72.659098 41.523555 
L 73.149988 41.439701 
L 73.720242 41.464455 
L 78.174672 42.945891 
L 78.577201 43.168112 
L 80.370575 43.57207 
L 81.016472 43.628104 
L 82.640398 44.300692 
L 83.071071 44.302205 
L 83.458684 44.504053 
L 84.730828 44.700475 
L 85.769651 44.90176 
L 86.904858 44.932258 
L 88.21651 45.070569 
L 90.012661 45.004376 
L 91.446555 45.333872 
L 94.187796 45.876696 
L 96.481756 46.385079 
L 96.867066 46.621174 
L 98.655501 47.291297 
L 100.784858 48.020709 
L 102.720912 48.825401 
L 105.471496 50.121157 
L 105.821722 50.420303 
L 106.348487 50.711559 
L 107.13345 51.000117 
L 109.264722 52.358527 
L 110.47189 52.828132 
L 110.826845 53.153829 
L 115.112597 54.834375 
L 115.476833 55.094164 
L 116.025846 55.270053 
L 117.611438 55.503834 
L 119.904637 56.004698 
L 120.941522 56.243354 
L 121.549908 56.350899 
L 122.796915 56.434013 
L 123.607444 56.648789 
L 126.081579 57.014613 
L 128.276677 57.343897 
L 131.971517 58.106427 
L 135.011796 58.47129 
L 136.60714 58.796571 
L 143.385958 59.87609 
L 144.462705 60.443117 
L 148.390193 61.367676 
L 149.606024 61.495021 
L 152.306203 62.125683 
L 153.612245 62.311937 
L 155.644283 63.046876 
L 156.202016 63.211056 
L 156.809888 63.269564 
L 157.699318 63.607292 
L 159.622033 64.021335 
L 160.078294 64.310158 
L 163.868071 65.688783 
L 164.41836 65.938391 
L 165.080376 66.103652 
L 165.730385 66.385136 
L 166.760361 66.60577 
L 167.241615 66.795009 
L 168.62003 66.90288 
L 170.092351 67.490711 
L 171.155745 67.638843 
L 175.747804 68.51997 
L 176.209858 68.787309 
L 177.570147 68.970835 
L 178.634228 69.239835 
L 179.699605 69.33481 
L 180.105982 69.481512 
L 181.222799 69.598048 
L 182.343062 69.904291 
L 184.105084 70.067957 
L 185.217723 70.119392 
L 188.378082 70.277922 
L 188.955822 70.411865 
L 190.845463 70.60053 
L 192.339968 70.908 
L 193.419333 71.16715 
L 195.200377 71.314996 
L 197.517806 71.859825 
L 198.549667 71.957927 
L 200.608629 72.701123 
L 202.181912 72.89994 
L 203.21138 73.335226 
L 206.898139 74.204329 
L 207.436946 74.448067 
L 208.579602 74.69856 
L 213.651706 75.929891 
L 214.759624 76.458345 
L 219.305791 78.127542 
L 220.88361 78.461629 
L 221.931374 78.667997 
L 222.669868 78.901968 
L 223.859971 78.89406 
L 225.48366 79.229975 
L 225.881244 79.261939 
L 227.047677 79.650307 
L 229.224175 79.99509 
L 229.779854 80.274903 
L 231.074579 80.555437 
L 232.161765 80.860503 
L 233.675036 81.366901 
L 234.99496 81.714203 
L 235.486523 82.102974 
L 236.111886 82.266332 
L 236.673713 82.652375 
L 238.681097 83.463078 
L 239.204422 83.683447 
L 241.380869 84.166599 
L 242.019023 84.393788 
L 243.30986 84.717722 
L 244.151273 84.996538 
L 244.777913 85.021642 
L 252.326627 87.918924 
L 252.709056 88.296125 
L 254.375055 89.143677 
L 255.577145 89.53704 
L 255.97963 89.891668 
L 260.536705 91.881167 
L 260.993881 91.968835 
L 263.815539 93.178733 
L 265.508869 93.590808 
L 267.602825 94.52796 
L 269.493773 95.114243 
L 271.786189 96.290976 
L 272.363924 96.696464 
L 274.104975 97.223303 
L 275.607983 97.90577 
L 276.840858 98.312272 
L 277.3097 98.589919 
L 277.697067 98.67543 
L 278.363876 98.949361 
L 279.528137 99.20209 
L 280.762674 99.717379 
L 281.177749 99.995305 
L 281.833603 100.151271 
L 282.815243 100.623837 
L 283.927662 100.822384 
L 286.326294 101.61971 
L 286.663491 101.949598 
L 287.186124 102.1714 
L 288.538287 102.476859 
L 288.940361 102.793173 
L 291.248735 103.880663 
L 291.807713 104.235276 
L 292.547322 104.329697 
L 293.689603 105.080151 
L 295.046161 106.225695 
L 296.779982 107.005246 
L 298.078242 107.366529 
L 300.523531 108.804687 
L 301.224209 108.929129 
L 301.74852 109.158014 
L 302.386316 109.25827 
L 303.64681 109.840437 
L 304.719426 110.276865 
L 305.71385 110.807588 
L 306.136648 111.103041 
L 308.042585 112.089644 
L 308.56792 112.497493 
L 309.108224 112.688168 
L 309.490353 112.982711 
L 312.600103 113.752549 
L 315.697955 115.108236 
L 316.330951 115.149054 
L 317.567296 115.546407 
L 318.501329 115.969773 
L 318.872147 116.357051 
L 320.530309 116.69968 
L 321.015546 117.045577 
L 322.589147 117.604197 
L 325.292275 118.822301 
L 325.681423 119.298227 
L 328.755104 120.063455 
L 332.023687 120.8428 
L 333.53519 121.357953 
L 334.886931 121.443124 
L 336.074997 121.861337 
L 339.152675 122.581018 
L 343.093408 124.08861 
L 344.666081 124.799763 
L 345.944705 125.428653 
L 346.599977 125.541905 
L 347.245738 125.826117 
L 347.634076 125.868538 
L 348.002123 126.058659 
L 349.357585 126.390011 
L 350.45494 126.698397 
L 351.918038 127.054703 
L 352.941433 127.327066 
L 354.438283 127.629157 
L 358.324149 128.147396 
L 359.757437 128.289372 
L 361.379445 128.622687 
L 363.261981 128.87771 
L 364.009609 128.946327 
L 364.42678 129.152884 
L 364.844806 129.514096 
L 366.079257 129.807575 
L 366.642185 130.064624 
L 367.155945 130.034303 
L 368.236232 130.375147 
L 369.397474 130.483059 
L 369.976882 130.441753 
L 372.197617 130.95139 
L 373.870302 130.981706 
L 374.22981 131.215958 
L 374.828327 131.444018 
L 376.132567 131.583601 
L 376.56058 131.764823 
L 377.767073 131.847458 
L 384.577283 132.854213 
L 386.062111 133.425391 
L 389.47668 134.08363 
L 390.406641 134.199242 
L 391.615753 134.330615 
L 392.769988 134.369009 
L 396.067784 134.833045 
L 399.476247 135.339824 
L 402.445001 135.219492 
L 402.864848 135.381198 
L 404.337495 135.542271 
L 405.425945 135.736808 
L 407.805133 136.09761 
L 409.222708 135.855667 
L 410.148705 135.926404 
L 412.394659 136.371011 
L 414.98752 137.180957 
L 416.187267 137.653745 
L 416.982665 137.707852 
L 417.350882 137.867972 
L 418.659534 138.05418 
L 419.336725 138.41591 
L 421.322096 138.633212 
L 424.251348 139.158283 
L 425.159051 139.233383 
L 426.256601 139.900522 
L 427.612883 140.353314 
L 428.014524 140.634065 
L 429.02785 140.799469 
L 434.543502 141.791538 
L 436.779106 142.035111 
L 439.651207 142.803376 
L 440.865724 143.077298 
L 441.396566 143.121201 
L 442.484961 143.559708 
L 444.707617 144.005883 
L 445.040309 144.312274 
L 446.886213 144.623952 
L 447.393079 144.852821 
L 448.785003 145.030287 
L 451.439957 145.556721 
L 453.092406 145.843399 
L 453.505109 146.035634 
L 455.43855 146.508251 
L 455.887246 146.708528 
L 457.919497 147.115456 
L 458.688197 147.429276 
L 459.319868 147.524475 
L 460.299577 148.009679 
L 461.645613 148.290554 
L 463.121988 148.857996 
L 465.292856 149.505372 
L 467.06865 150.073881 
L 467.715034 150.202234 
L 468.679128 150.553233 
L 471.374637 151.17547 
L 476.056264 152.102455 
L 476.439791 152.370433 
L 478.121469 152.716434 
L 479.105949 153.009546 
L 481.397692 153.7622 
L 484.452245 155.317163 
L 484.864397 155.508949 
L 485.197746 155.86231 
L 486.582193 156.38989 
L 487.217531 156.573793 
L 487.791597 156.9084 
L 488.111907 157.282276 
L 489.398107 157.834503 
L 490.116682 158.527426 
L 491.036612 159.078799 
L 493.669379 160.699746 
L 496.963394 162.371763 
L 497.467633 162.719695 
L 498.968349 163.501773 
L 499.511811 163.869529 
L 499.897933 164.286138 
L 500.478671 164.604654 
L 501.301282 164.91685 
L 503.268847 166.187743 
L 503.592842 166.695915 
L 504.340138 167.02025 
L 504.877134 167.421067 
L 507.935483 169.049867 
L 508.30358 169.465854 
L 510.417348 170.254846 
L 511.012374 170.68384 
L 513.965627 171.745702 
L 514.329042 172.153545 
L 516.597451 173.328114 
L 520.587022 174.516669 
L 523.907114 176.503809 
L 524.572308 176.787013 
L 525.17742 177.208896 
L 525.64462 177.762202 
L 526.027357 177.94873 
L 527.153705 178.795472 
L 528.325923 179.530914 
L 528.951218 179.958875 
L 530.004559 180.573281 
L 530.553477 181.000087 
L 531.329452 181.460703 
L 534.055919 183.773392 
L 535.219748 184.392522 
L 537.186538 186.324078 
L 537.62411 186.652022 
L 538.403137 186.941849 
L 540.003072 188.106822 
L 541.937854 188.711248 
L 543.333061 189.653396 
L 544.059306 189.754712 
L 544.568857 190.077057 
L 545.62875 190.397524 
L 546.753928 190.963855 
L 547.298515 191.20967 
L 548.416868 191.421386 
L 549.427348 191.828661 
L 551.519299 192.498038 
L 551.997438 192.907919 
L 554.725105 193.933835 
L 558.522705 194.65249 
L 560.749175 195.197402 
L 562.97418 195.344364 
L 563.634369 195.273781 
L 564.157159 195.415631 
L 565.174028 195.386737 
L 565.619525 195.511595 
L 566.310695 195.874925 
L 568.557246 196.265925 
L 570.351861 196.976441 
L 571.839983 197.225338 
L 574.359185 197.190877 
L 574.697536 197.027862 
L 576.441247 196.67381 
L 577.964165 196.412073 
L 579.066177 196.324272 
L 580.473363 196.150059 
L 581.518774 196.145683 
L 582.093315 196.074176 
L 582.620561 196.16453 
L 583.040553 196.397891 
L 583.549044 196.320412 
L 584.173109 196.468966 
L 585.333135 196.430896 
L 585.924429 196.538192 
L 587.003437 197.218022 
L 587.787502 197.510763 
L 588.156135 197.839019 
L 588.498488 198.348739 
L 589.144963 198.632456 
L 589.714867 199.087443 
L 590.354137 199.433751 
L 590.895118 199.584791 
L 591.318352 199.905581 
L 592.001859 200.16541 
L 593.702649 201.554965 
L 594.931097 202.449481 
L 596.11114 203.340131 
L 597.16024 204.237621 
L 598.075525 205.247857 
L 599.47064 206.124244 
L 599.943701 206.734866 
L 601.072395 207.609968 
L 601.586341 208.238699 
L 602.61217 209.959755 
L 604.71254 212.587915 
L 606.079464 213.826092 
L 607.267777 214.539803 
L 608.238757 215.884122 
L 608.671654 216.546417 
L 610.444454 218.238694 
L 611.135232 219.362771 
L 611.554168 219.550709 
L 611.809277 216.986806 
L 611.809277 216.986806 
" clip-path="url(#p62a9c7aaed)" style="fill: none; stroke: #e24a33; stroke-width: 1.5; stroke-linecap: square"/>
   </g>
   <g id="patch_3">
    <path d="M 54.096563 244.078125 
L 54.096563 22.318125 
" style="fill: none; stroke: #ffffff; stroke-linejoin: miter; stroke-linecap: square"/>
   </g>
   <g id="patch_4">
    <path d="M 612.096563 244.078125 
L 612.096563 22.318125 
" style="fill: none; stroke: #ffffff; stroke-linejoin: miter; stroke-linecap: square"/>
   </g>
   <g id="patch_5">
    <path d="M 54.096563 244.078125 
L 612.096563 244.078125 
" style="fill: none; stroke: #ffffff; stroke-linejoin: miter; stroke-linecap: square"/>
   </g>
   <g id="patch_6">
    <path d="M 54.096563 22.318125 
L 612.096563 22.318125 
" style="fill: none; stroke: #ffffff; stroke-linejoin: miter; stroke-linecap: square"/>
   </g>
   <g id="text_17">
    <!-- whale hunt -->
    <g transform="translate(299.685 16.318125) scale(0.12 -0.12)">
     <defs>
      <path id="DejaVuSans-20" transform="scale(0.015625)"/>
      <path id="DejaVuSans-75" d="M 544 1381 
L 544 3500 
L 1119 3500 
L 1119 1403 
Q 1119 906 1312 657 
Q 1506 409 1894 409 
Q 2359 409 2629 706 
Q 2900 1003 2900 1516 
L 2900 3500 
L 3475 3500 
L 3475 0 
L 2900 0 
L 2900 538 
Q 2691 219 2414 64 
Q 2138 -91 1772 -91 
Q 1169 -91 856 284 
Q 544 659 544 1381 
z
M 1991 3584 
L 1991 3584 
z
" transform="scale(0.015625)"/>
      <path id="DejaVuSans-74" d="M 1172 4494 
L 1172 3500 
L 2356 3500 
L 2356 3053 
L 1172 3053 
L 1172 1153 
Q 1172 725 1289 603 
Q 1406 481 1766 481 
L 2356 481 
L 2356 0 
L 1766 0 
Q 1100 0 847 248 
Q 594 497 594 1153 
L 594 3053 
L 172 3053 
L 172 3500 
L 594 3500 
L 594 4494 
L 1172 4494 
z
" transform="scale(0.015625)"/>
     </defs>
     <use xlink:href="#DejaVuSans-77"/>
     <use xlink:href="#DejaVuSans-68" x="81.787109"/>
     <use xlink:href="#DejaVuSans-61" x="145.166016"/>
     <use xlink:href="#DejaVuSans-6c" x="206.445312"/>
     <use xlink:href="#DejaVuSans-65" x="234.228516"/>
     <use xlink:href="#DejaVuSans-20" x="295.751953"/>
     <use xlink:href="#DejaVuSans-68" x="327.539062"/>
     <use xlink:href="#DejaVuSans-75" x="390.917969"/>
     <use xlink:href="#DejaVuSans-6e" x="454.296875"/>
     <use xlink:href="#DejaVuSans-74" x="517.675781"/>
    </g>
   </g>
  </g>
 </g>
 <defs>
  <clipPath id="p62a9c7aaed">
   <rect x="54.096563" y="22.318125" width="558" height="221.76"/>
  </clipPath>
 </defs>
</svg>
