<?xml version="1.0" encoding="utf-8" standalone="no"?>
<!DOCTYPE svg PUBLIC "-//W3C//DTD SVG 1.1//EN"
  "http://www.w3.org/Graphics/SVG/1.1/DTD/svg11.dtd">
<svg xmlns:xlink="http://www.w3.org/1999/xlink" width="630.429375pt" height="283.57pt" viewBox="0 0 630.429375 283.57" xmlns="http://www.w3.org/2000/svg" version="1.1">
 <metadata>
  <rdf:RDF xmlns:dc="http://purl.org/dc/elements/1.1/" xmlns:cc="http://creativecommons.org/ns#" xmlns:rdf="http://www.w3.org/1999/02/22-rdf-syntax-ns#">
   <cc:Work>
    <dc:type rdf:resource="http://purl.org/dc/dcmitype/StillImage"/>
    <dc:date>2024-03-18T11:20:32.552868</dc:date>
    <dc:format>image/svg+xml</dc:format>
    <dc:creator>
     <cc:Agent>
      <dc:title>Matplotlib v3.8.3, https://matplotlib.org/</dc:title>
     </cc:Agent>
    </dc:creator>
   </cc:Work>
  </rdf:RDF>
 </metadata>
 <defs>
  <style type="text/css">*{stroke-linejoin: round; stroke-linecap: butt}</style>
 </defs>
 <g id="figure_1">
  <g id="patch_1">
   <path d="M 0 283.57 
L 630.429375 283.57 
L 630.429375 0 
L 0 0 
z
" style="fill: #ffffff"/>
  </g>
  <g id="axes_1">
   <g id="patch_2">
    <path d="M 54.096563 244.078125 
L 612.096563 244.078125 
L 612.096563 22.318125 
L 54.096563 22.318125 
z
" style="fill: #e5e5e5"/>
   </g>
   <g id="matplotlib.axis_1">
    <g id="xtick_1">
     <g id="line2d_1">
      <path d="M 54.096563 244.078125 
L 54.096563 22.318125 
" clip-path="url(#p1e4e6b2ef6)" style="fill: none; stroke: #ffffff; stroke-width: 0.8; stroke-linecap: square"/>
     </g>
     <g id="line2d_2">
      <defs>
       <path id="m16435e9468" d="M 0 0 
L 0 3.5 
" style="stroke: #555555; stroke-width: 0.8"/>
      </defs>
      <g>
       <use xlink:href="#m16435e9468" x="54.096563" y="244.078125" style="fill: #555555; stroke: #555555; stroke-width: 0.8"/>
      </g>
     </g>
     <g id="text_1">
      <!-- 0.00 -->
      <g style="fill: #555555" transform="translate(42.96375 258.676562) scale(0.1 -0.1)">
       <defs>
        <path id="DejaVuSans-30" d="M 2034 4250 
Q 1547 4250 1301 3770 
Q 1056 3291 1056 2328 
Q 1056 1369 1301 889 
Q 1547 409 2034 409 
Q 2525 409 2770 889 
Q 3016 1369 3016 2328 
Q 3016 3291 2770 3770 
Q 2525 4250 2034 4250 
z
M 2034 4750 
Q 2819 4750 3233 4129 
Q 3647 3509 3647 2328 
Q 3647 1150 3233 529 
Q 2819 -91 2034 -91 
Q 1250 -91 836 529 
Q 422 1150 422 2328 
Q 422 3509 836 4129 
Q 1250 4750 2034 4750 
z
" transform="scale(0.015625)"/>
        <path id="DejaVuSans-2e" d="M 684 794 
L 1344 794 
L 1344 0 
L 684 0 
L 684 794 
z
" transform="scale(0.015625)"/>
       </defs>
       <use xlink:href="#DejaVuSans-30"/>
       <use xlink:href="#DejaVuSans-2e" x="63.623047"/>
       <use xlink:href="#DejaVuSans-30" x="95.410156"/>
       <use xlink:href="#DejaVuSans-30" x="159.033203"/>
      </g>
     </g>
    </g>
    <g id="xtick_2">
     <g id="line2d_3">
      <path d="M 165.696563 244.078125 
L 165.696563 22.318125 
" clip-path="url(#p1e4e6b2ef6)" style="fill: none; stroke: #ffffff; stroke-width: 0.8; stroke-linecap: square"/>
     </g>
     <g id="line2d_4">
      <g>
       <use xlink:href="#m16435e9468" x="165.696563" y="244.078125" style="fill: #555555; stroke: #555555; stroke-width: 0.8"/>
      </g>
     </g>
     <g id="text_2">
      <!-- 0.02 -->
      <g style="fill: #555555" transform="translate(154.56375 258.676562) scale(0.1 -0.1)">
       <defs>
        <path id="DejaVuSans-32" d="M 1228 531 
L 3431 531 
L 3431 0 
L 469 0 
L 469 531 
Q 828 903 1448 1529 
Q 2069 2156 2228 2338 
Q 2531 2678 2651 2914 
Q 2772 3150 2772 3378 
Q 2772 3750 2511 3984 
Q 2250 4219 1831 4219 
Q 1534 4219 1204 4116 
Q 875 4013 500 3803 
L 500 4441 
Q 881 4594 1212 4672 
Q 1544 4750 1819 4750 
Q 2544 4750 2975 4387 
Q 3406 4025 3406 3419 
Q 3406 3131 3298 2873 
Q 3191 2616 2906 2266 
Q 2828 2175 2409 1742 
Q 1991 1309 1228 531 
z
" transform="scale(0.015625)"/>
       </defs>
       <use xlink:href="#DejaVuSans-30"/>
       <use xlink:href="#DejaVuSans-2e" x="63.623047"/>
       <use xlink:href="#DejaVuSans-30" x="95.410156"/>
       <use xlink:href="#DejaVuSans-32" x="159.033203"/>
      </g>
     </g>
    </g>
    <g id="xtick_3">
     <g id="line2d_5">
      <path d="M 277.296563 244.078125 
L 277.296563 22.318125 
" clip-path="url(#p1e4e6b2ef6)" style="fill: none; stroke: #ffffff; stroke-width: 0.8; stroke-linecap: square"/>
     </g>
     <g id="line2d_6">
      <g>
       <use xlink:href="#m16435e9468" x="277.296563" y="244.078125" style="fill: #555555; stroke: #555555; stroke-width: 0.8"/>
      </g>
     </g>
     <g id="text_3">
      <!-- 0.04 -->
      <g style="fill: #555555" transform="translate(266.16375 258.676562) scale(0.1 -0.1)">
       <defs>
        <path id="DejaVuSans-34" d="M 2419 4116 
L 825 1625 
L 2419 1625 
L 2419 4116 
z
M 2253 4666 
L 3047 4666 
L 3047 1625 
L 3713 1625 
L 3713 1100 
L 3047 1100 
L 3047 0 
L 2419 0 
L 2419 1100 
L 313 1100 
L 313 1709 
L 2253 4666 
z
" transform="scale(0.015625)"/>
       </defs>
       <use xlink:href="#DejaVuSans-30"/>
       <use xlink:href="#DejaVuSans-2e" x="63.623047"/>
       <use xlink:href="#DejaVuSans-30" x="95.410156"/>
       <use xlink:href="#DejaVuSans-34" x="159.033203"/>
      </g>
     </g>
    </g>
    <g id="xtick_4">
     <g id="line2d_7">
      <path d="M 388.896563 244.078125 
L 388.896563 22.318125 
" clip-path="url(#p1e4e6b2ef6)" style="fill: none; stroke: #ffffff; stroke-width: 0.8; stroke-linecap: square"/>
     </g>
     <g id="line2d_8">
      <g>
       <use xlink:href="#m16435e9468" x="388.896563" y="244.078125" style="fill: #555555; stroke: #555555; stroke-width: 0.8"/>
      </g>
     </g>
     <g id="text_4">
      <!-- 0.06 -->
      <g style="fill: #555555" transform="translate(377.76375 258.676562) scale(0.1 -0.1)">
       <defs>
        <path id="DejaVuSans-36" d="M 2113 2584 
Q 1688 2584 1439 2293 
Q 1191 2003 1191 1497 
Q 1191 994 1439 701 
Q 1688 409 2113 409 
Q 2538 409 2786 701 
Q 3034 994 3034 1497 
Q 3034 2003 2786 2293 
Q 2538 2584 2113 2584 
z
M 3366 4563 
L 3366 3988 
Q 3128 4100 2886 4159 
Q 2644 4219 2406 4219 
Q 1781 4219 1451 3797 
Q 1122 3375 1075 2522 
Q 1259 2794 1537 2939 
Q 1816 3084 2150 3084 
Q 2853 3084 3261 2657 
Q 3669 2231 3669 1497 
Q 3669 778 3244 343 
Q 2819 -91 2113 -91 
Q 1303 -91 875 529 
Q 447 1150 447 2328 
Q 447 3434 972 4092 
Q 1497 4750 2381 4750 
Q 2619 4750 2861 4703 
Q 3103 4656 3366 4563 
z
" transform="scale(0.015625)"/>
       </defs>
       <use xlink:href="#DejaVuSans-30"/>
       <use xlink:href="#DejaVuSans-2e" x="63.623047"/>
       <use xlink:href="#DejaVuSans-30" x="95.410156"/>
       <use xlink:href="#DejaVuSans-36" x="159.033203"/>
      </g>
     </g>
    </g>
    <g id="xtick_5">
     <g id="line2d_9">
      <path d="M 500.496563 244.078125 
L 500.496563 22.318125 
" clip-path="url(#p1e4e6b2ef6)" style="fill: none; stroke: #ffffff; stroke-width: 0.8; stroke-linecap: square"/>
     </g>
     <g id="line2d_10">
      <g>
       <use xlink:href="#m16435e9468" x="500.496563" y="244.078125" style="fill: #555555; stroke: #555555; stroke-width: 0.8"/>
      </g>
     </g>
     <g id="text_5">
      <!-- 0.08 -->
      <g style="fill: #555555" transform="translate(489.36375 258.676562) scale(0.1 -0.1)">
       <defs>
        <path id="DejaVuSans-38" d="M 2034 2216 
Q 1584 2216 1326 1975 
Q 1069 1734 1069 1313 
Q 1069 891 1326 650 
Q 1584 409 2034 409 
Q 2484 409 2743 651 
Q 3003 894 3003 1313 
Q 3003 1734 2745 1975 
Q 2488 2216 2034 2216 
z
M 1403 2484 
Q 997 2584 770 2862 
Q 544 3141 544 3541 
Q 544 4100 942 4425 
Q 1341 4750 2034 4750 
Q 2731 4750 3128 4425 
Q 3525 4100 3525 3541 
Q 3525 3141 3298 2862 
Q 3072 2584 2669 2484 
Q 3125 2378 3379 2068 
Q 3634 1759 3634 1313 
Q 3634 634 3220 271 
Q 2806 -91 2034 -91 
Q 1263 -91 848 271 
Q 434 634 434 1313 
Q 434 1759 690 2068 
Q 947 2378 1403 2484 
z
M 1172 3481 
Q 1172 3119 1398 2916 
Q 1625 2713 2034 2713 
Q 2441 2713 2670 2916 
Q 2900 3119 2900 3481 
Q 2900 3844 2670 4047 
Q 2441 4250 2034 4250 
Q 1625 4250 1398 4047 
Q 1172 3844 1172 3481 
z
" transform="scale(0.015625)"/>
       </defs>
       <use xlink:href="#DejaVuSans-30"/>
       <use xlink:href="#DejaVuSans-2e" x="63.623047"/>
       <use xlink:href="#DejaVuSans-30" x="95.410156"/>
       <use xlink:href="#DejaVuSans-38" x="159.033203"/>
      </g>
     </g>
    </g>
    <g id="xtick_6">
     <g id="line2d_11">
      <path d="M 612.096563 244.078125 
L 612.096563 22.318125 
" clip-path="url(#p1e4e6b2ef6)" style="fill: none; stroke: #ffffff; stroke-width: 0.8; stroke-linecap: square"/>
     </g>
     <g id="line2d_12">
      <g>
       <use xlink:href="#m16435e9468" x="612.096563" y="244.078125" style="fill: #555555; stroke: #555555; stroke-width: 0.8"/>
      </g>
     </g>
     <g id="text_6">
      <!-- 0.10 -->
      <g style="fill: #555555" transform="translate(600.96375 258.676562) scale(0.1 -0.1)">
       <defs>
        <path id="DejaVuSans-31" d="M 794 531 
L 1825 531 
L 1825 4091 
L 703 3866 
L 703 4441 
L 1819 4666 
L 2450 4666 
L 2450 531 
L 3481 531 
L 3481 0 
L 794 0 
L 794 531 
z
" transform="scale(0.015625)"/>
       </defs>
       <use xlink:href="#DejaVuSans-30"/>
       <use xlink:href="#DejaVuSans-2e" x="63.623047"/>
       <use xlink:href="#DejaVuSans-31" x="95.410156"/>
       <use xlink:href="#DejaVuSans-30" x="159.033203"/>
      </g>
     </g>
    </g>
    <g id="text_7">
     <!-- mutation-prob -->
     <g style="fill: #555555" transform="translate(290.142187 273.874375) scale(0.12 -0.12)">
      <defs>
       <path id="DejaVuSans-6d" d="M 3328 2828 
Q 3544 3216 3844 3400 
Q 4144 3584 4550 3584 
Q 5097 3584 5394 3201 
Q 5691 2819 5691 2113 
L 5691 0 
L 5113 0 
L 5113 2094 
Q 5113 2597 4934 2840 
Q 4756 3084 4391 3084 
Q 3944 3084 3684 2787 
Q 3425 2491 3425 1978 
L 3425 0 
L 2847 0 
L 2847 2094 
Q 2847 2600 2669 2842 
Q 2491 3084 2119 3084 
Q 1678 3084 1418 2786 
Q 1159 2488 1159 1978 
L 1159 0 
L 581 0 
L 581 3500 
L 1159 3500 
L 1159 2956 
Q 1356 3278 1631 3431 
Q 1906 3584 2284 3584 
Q 2666 3584 2933 3390 
Q 3200 3197 3328 2828 
z
" transform="scale(0.015625)"/>
       <path id="DejaVuSans-75" d="M 544 1381 
L 544 3500 
L 1119 3500 
L 1119 1403 
Q 1119 906 1312 657 
Q 1506 409 1894 409 
Q 2359 409 2629 706 
Q 2900 1003 2900 1516 
L 2900 3500 
L 3475 3500 
L 3475 0 
L 2900 0 
L 2900 538 
Q 2691 219 2414 64 
Q 2138 -91 1772 -91 
Q 1169 -91 856 284 
Q 544 659 544 1381 
z
M 1991 3584 
L 1991 3584 
z
" transform="scale(0.015625)"/>
       <path id="DejaVuSans-74" d="M 1172 4494 
L 1172 3500 
L 2356 3500 
L 2356 3053 
L 1172 3053 
L 1172 1153 
Q 1172 725 1289 603 
Q 1406 481 1766 481 
L 2356 481 
L 2356 0 
L 1766 0 
Q 1100 0 847 248 
Q 594 497 594 1153 
L 594 3053 
L 172 3053 
L 172 3500 
L 594 3500 
L 594 4494 
L 1172 4494 
z
" transform="scale(0.015625)"/>
       <path id="DejaVuSans-61" d="M 2194 1759 
Q 1497 1759 1228 1600 
Q 959 1441 959 1056 
Q 959 750 1161 570 
Q 1363 391 1709 391 
Q 2188 391 2477 730 
Q 2766 1069 2766 1631 
L 2766 1759 
L 2194 1759 
z
M 3341 1997 
L 3341 0 
L 2766 0 
L 2766 531 
Q 2569 213 2275 61 
Q 1981 -91 1556 -91 
Q 1019 -91 701 211 
Q 384 513 384 1019 
Q 384 1609 779 1909 
Q 1175 2209 1959 2209 
L 2766 2209 
L 2766 2266 
Q 2766 2663 2505 2880 
Q 2244 3097 1772 3097 
Q 1472 3097 1187 3025 
Q 903 2953 641 2809 
L 641 3341 
Q 956 3463 1253 3523 
Q 1550 3584 1831 3584 
Q 2591 3584 2966 3190 
Q 3341 2797 3341 1997 
z
" transform="scale(0.015625)"/>
       <path id="DejaVuSans-69" d="M 603 3500 
L 1178 3500 
L 1178 0 
L 603 0 
L 603 3500 
z
M 603 4863 
L 1178 4863 
L 1178 4134 
L 603 4134 
L 603 4863 
z
" transform="scale(0.015625)"/>
       <path id="DejaVuSans-6f" d="M 1959 3097 
Q 1497 3097 1228 2736 
Q 959 2375 959 1747 
Q 959 1119 1226 758 
Q 1494 397 1959 397 
Q 2419 397 2687 759 
Q 2956 1122 2956 1747 
Q 2956 2369 2687 2733 
Q 2419 3097 1959 3097 
z
M 1959 3584 
Q 2709 3584 3137 3096 
Q 3566 2609 3566 1747 
Q 3566 888 3137 398 
Q 2709 -91 1959 -91 
Q 1206 -91 779 398 
Q 353 888 353 1747 
Q 353 2609 779 3096 
Q 1206 3584 1959 3584 
z
" transform="scale(0.015625)"/>
       <path id="DejaVuSans-6e" d="M 3513 2113 
L 3513 0 
L 2938 0 
L 2938 2094 
Q 2938 2591 2744 2837 
Q 2550 3084 2163 3084 
Q 1697 3084 1428 2787 
Q 1159 2491 1159 1978 
L 1159 0 
L 581 0 
L 581 3500 
L 1159 3500 
L 1159 2956 
Q 1366 3272 1645 3428 
Q 1925 3584 2291 3584 
Q 2894 3584 3203 3211 
Q 3513 2838 3513 2113 
z
" transform="scale(0.015625)"/>
       <path id="DejaVuSans-2d" d="M 313 2009 
L 1997 2009 
L 1997 1497 
L 313 1497 
L 313 2009 
z
" transform="scale(0.015625)"/>
       <path id="DejaVuSans-70" d="M 1159 525 
L 1159 -1331 
L 581 -1331 
L 581 3500 
L 1159 3500 
L 1159 2969 
Q 1341 3281 1617 3432 
Q 1894 3584 2278 3584 
Q 2916 3584 3314 3078 
Q 3713 2572 3713 1747 
Q 3713 922 3314 415 
Q 2916 -91 2278 -91 
Q 1894 -91 1617 61 
Q 1341 213 1159 525 
z
M 3116 1747 
Q 3116 2381 2855 2742 
Q 2594 3103 2138 3103 
Q 1681 3103 1420 2742 
Q 1159 2381 1159 1747 
Q 1159 1113 1420 752 
Q 1681 391 2138 391 
Q 2594 391 2855 752 
Q 3116 1113 3116 1747 
z
" transform="scale(0.015625)"/>
       <path id="DejaVuSans-72" d="M 2631 2963 
Q 2534 3019 2420 3045 
Q 2306 3072 2169 3072 
Q 1681 3072 1420 2755 
Q 1159 2438 1159 1844 
L 1159 0 
L 581 0 
L 581 3500 
L 1159 3500 
L 1159 2956 
Q 1341 3275 1631 3429 
Q 1922 3584 2338 3584 
Q 2397 3584 2469 3576 
Q 2541 3569 2628 3553 
L 2631 2963 
z
" transform="scale(0.015625)"/>
       <path id="DejaVuSans-62" d="M 3116 1747 
Q 3116 2381 2855 2742 
Q 2594 3103 2138 3103 
Q 1681 3103 1420 2742 
Q 1159 2381 1159 1747 
Q 1159 1113 1420 752 
Q 1681 391 2138 391 
Q 2594 391 2855 752 
Q 3116 1113 3116 1747 
z
M 1159 2969 
Q 1341 3281 1617 3432 
Q 1894 3584 2278 3584 
Q 2916 3584 3314 3078 
Q 3713 2572 3713 1747 
Q 3713 922 3314 415 
Q 2916 -91 2278 -91 
Q 1894 -91 1617 61 
Q 1341 213 1159 525 
L 1159 0 
L 581 0 
L 581 4863 
L 1159 4863 
L 1159 2969 
z
" transform="scale(0.015625)"/>
      </defs>
      <use xlink:href="#DejaVuSans-6d"/>
      <use xlink:href="#DejaVuSans-75" x="97.412109"/>
      <use xlink:href="#DejaVuSans-74" x="160.791016"/>
      <use xlink:href="#DejaVuSans-61" x="200"/>
      <use xlink:href="#DejaVuSans-74" x="261.279297"/>
      <use xlink:href="#DejaVuSans-69" x="300.488281"/>
      <use xlink:href="#DejaVuSans-6f" x="328.271484"/>
      <use xlink:href="#DejaVuSans-6e" x="389.453125"/>
      <use xlink:href="#DejaVuSans-2d" x="452.832031"/>
      <use xlink:href="#DejaVuSans-70" x="488.916016"/>
      <use xlink:href="#DejaVuSans-72" x="552.392578"/>
      <use xlink:href="#DejaVuSans-6f" x="591.255859"/>
      <use xlink:href="#DejaVuSans-62" x="652.4375"/>
     </g>
    </g>
   </g>
   <g id="matplotlib.axis_2">
    <g id="ytick_1">
     <g id="line2d_13">
      <path d="M 54.096563 232.990125 
L 612.096563 232.990125 
" clip-path="url(#p1e4e6b2ef6)" style="fill: none; stroke: #ffffff; stroke-width: 0.8; stroke-linecap: square"/>
     </g>
     <g id="line2d_14">
      <defs>
       <path id="m94ed0057f4" d="M 0 0 
L -3.5 0 
" style="stroke: #555555; stroke-width: 0.8"/>
      </defs>
      <g>
       <use xlink:href="#m94ed0057f4" x="54.096563" y="232.990125" style="fill: #555555; stroke: #555555; stroke-width: 0.8"/>
      </g>
     </g>
     <g id="text_8">
      <!-- −0.4 -->
      <g style="fill: #555555" transform="translate(22.81375 236.789344) scale(0.1 -0.1)">
       <defs>
        <path id="DejaVuSans-2212" d="M 678 2272 
L 4684 2272 
L 4684 1741 
L 678 1741 
L 678 2272 
z
" transform="scale(0.015625)"/>
       </defs>
       <use xlink:href="#DejaVuSans-2212"/>
       <use xlink:href="#DejaVuSans-30" x="83.789062"/>
       <use xlink:href="#DejaVuSans-2e" x="147.412109"/>
       <use xlink:href="#DejaVuSans-34" x="179.199219"/>
      </g>
     </g>
    </g>
    <g id="ytick_2">
     <g id="line2d_15">
      <path d="M 54.096563 188.638125 
L 612.096563 188.638125 
" clip-path="url(#p1e4e6b2ef6)" style="fill: none; stroke: #ffffff; stroke-width: 0.8; stroke-linecap: square"/>
     </g>
     <g id="line2d_16">
      <g>
       <use xlink:href="#m94ed0057f4" x="54.096563" y="188.638125" style="fill: #555555; stroke: #555555; stroke-width: 0.8"/>
      </g>
     </g>
     <g id="text_9">
      <!-- −0.2 -->
      <g style="fill: #555555" transform="translate(22.81375 192.437344) scale(0.1 -0.1)">
       <use xlink:href="#DejaVuSans-2212"/>
       <use xlink:href="#DejaVuSans-30" x="83.789062"/>
       <use xlink:href="#DejaVuSans-2e" x="147.412109"/>
       <use xlink:href="#DejaVuSans-32" x="179.199219"/>
      </g>
     </g>
    </g>
    <g id="ytick_3">
     <g id="line2d_17">
      <path d="M 54.096563 144.286125 
L 612.096563 144.286125 
" clip-path="url(#p1e4e6b2ef6)" style="fill: none; stroke: #ffffff; stroke-width: 0.8; stroke-linecap: square"/>
     </g>
     <g id="line2d_18">
      <g>
       <use xlink:href="#m94ed0057f4" x="54.096563" y="144.286125" style="fill: #555555; stroke: #555555; stroke-width: 0.8"/>
      </g>
     </g>
     <g id="text_10">
      <!-- 0.0 -->
      <g style="fill: #555555" transform="translate(31.193438 148.085344) scale(0.1 -0.1)">
       <use xlink:href="#DejaVuSans-30"/>
       <use xlink:href="#DejaVuSans-2e" x="63.623047"/>
       <use xlink:href="#DejaVuSans-30" x="95.410156"/>
      </g>
     </g>
    </g>
    <g id="ytick_4">
     <g id="line2d_19">
      <path d="M 54.096563 99.934125 
L 612.096563 99.934125 
" clip-path="url(#p1e4e6b2ef6)" style="fill: none; stroke: #ffffff; stroke-width: 0.8; stroke-linecap: square"/>
     </g>
     <g id="line2d_20">
      <g>
       <use xlink:href="#m94ed0057f4" x="54.096563" y="99.934125" style="fill: #555555; stroke: #555555; stroke-width: 0.8"/>
      </g>
     </g>
     <g id="text_11">
      <!-- 0.2 -->
      <g style="fill: #555555" transform="translate(31.193438 103.733344) scale(0.1 -0.1)">
       <use xlink:href="#DejaVuSans-30"/>
       <use xlink:href="#DejaVuSans-2e" x="63.623047"/>
       <use xlink:href="#DejaVuSans-32" x="95.410156"/>
      </g>
     </g>
    </g>
    <g id="ytick_5">
     <g id="line2d_21">
      <path d="M 54.096563 55.582125 
L 612.096563 55.582125 
" clip-path="url(#p1e4e6b2ef6)" style="fill: none; stroke: #ffffff; stroke-width: 0.8; stroke-linecap: square"/>
     </g>
     <g id="line2d_22">
      <g>
       <use xlink:href="#m94ed0057f4" x="54.096563" y="55.582125" style="fill: #555555; stroke: #555555; stroke-width: 0.8"/>
      </g>
     </g>
     <g id="text_12">
      <!-- 0.4 -->
      <g style="fill: #555555" transform="translate(31.193438 59.381344) scale(0.1 -0.1)">
       <use xlink:href="#DejaVuSans-30"/>
       <use xlink:href="#DejaVuSans-2e" x="63.623047"/>
       <use xlink:href="#DejaVuSans-34" x="95.410156"/>
      </g>
     </g>
    </g>
    <g id="text_13">
     <!-- score -->
     <g style="fill: #555555" transform="translate(16.318125 149.3175) rotate(-90) scale(0.12 -0.12)">
      <defs>
       <path id="DejaVuSans-73" d="M 2834 3397 
L 2834 2853 
Q 2591 2978 2328 3040 
Q 2066 3103 1784 3103 
Q 1356 3103 1142 2972 
Q 928 2841 928 2578 
Q 928 2378 1081 2264 
Q 1234 2150 1697 2047 
L 1894 2003 
Q 2506 1872 2764 1633 
Q 3022 1394 3022 966 
Q 3022 478 2636 193 
Q 2250 -91 1575 -91 
Q 1294 -91 989 -36 
Q 684 19 347 128 
L 347 722 
Q 666 556 975 473 
Q 1284 391 1588 391 
Q 1994 391 2212 530 
Q 2431 669 2431 922 
Q 2431 1156 2273 1281 
Q 2116 1406 1581 1522 
L 1381 1569 
Q 847 1681 609 1914 
Q 372 2147 372 2553 
Q 372 3047 722 3315 
Q 1072 3584 1716 3584 
Q 2034 3584 2315 3537 
Q 2597 3491 2834 3397 
z
" transform="scale(0.015625)"/>
       <path id="DejaVuSans-63" d="M 3122 3366 
L 3122 2828 
Q 2878 2963 2633 3030 
Q 2388 3097 2138 3097 
Q 1578 3097 1268 2742 
Q 959 2388 959 1747 
Q 959 1106 1268 751 
Q 1578 397 2138 397 
Q 2388 397 2633 464 
Q 2878 531 3122 666 
L 3122 134 
Q 2881 22 2623 -34 
Q 2366 -91 2075 -91 
Q 1284 -91 818 406 
Q 353 903 353 1747 
Q 353 2603 823 3093 
Q 1294 3584 2113 3584 
Q 2378 3584 2631 3529 
Q 2884 3475 3122 3366 
z
" transform="scale(0.015625)"/>
       <path id="DejaVuSans-65" d="M 3597 1894 
L 3597 1613 
L 953 1613 
Q 991 1019 1311 708 
Q 1631 397 2203 397 
Q 2534 397 2845 478 
Q 3156 559 3463 722 
L 3463 178 
Q 3153 47 2828 -22 
Q 2503 -91 2169 -91 
Q 1331 -91 842 396 
Q 353 884 353 1716 
Q 353 2575 817 3079 
Q 1281 3584 2069 3584 
Q 2775 3584 3186 3129 
Q 3597 2675 3597 1894 
z
M 3022 2063 
Q 3016 2534 2758 2815 
Q 2500 3097 2075 3097 
Q 1594 3097 1305 2825 
Q 1016 2553 972 2059 
L 3022 2063 
z
" transform="scale(0.015625)"/>
      </defs>
      <use xlink:href="#DejaVuSans-73"/>
      <use xlink:href="#DejaVuSans-63" x="52.099609"/>
      <use xlink:href="#DejaVuSans-6f" x="107.080078"/>
      <use xlink:href="#DejaVuSans-72" x="168.261719"/>
      <use xlink:href="#DejaVuSans-65" x="207.125"/>
     </g>
    </g>
   </g>
   <g id="PolyCollection_1">
    <defs>
     <path id="m2f1af70c9f" d="M 54.657776 -127.9384 
L 54.657776 -120.031358 
L 55.159727 -119.782059 
L 55.803804 -120.587771 
L 56.357059 -121.484706 
L 56.929048 -122.403418 
L 57.486582 -123.59665 
L 58.168725 -124.563042 
L 58.798795 -125.008966 
L 59.259412 -125.747114 
L 59.814463 -126.243459 
L 60.477932 -126.556908 
L 60.930685 -126.77631 
L 61.481509 -127.017517 
L 61.940204 -127.131422 
L 62.301031 -127.412118 
L 62.966093 -127.49698 
L 63.558507 -127.647565 
L 64.170119 -127.684355 
L 64.784479 -127.472791 
L 65.355415 -127.653148 
L 65.956446 -127.72759 
L 66.45976 -127.792448 
L 67.073543 -127.878764 
L 67.488214 -127.947931 
L 67.906969 -128.09894 
L 68.630412 -128.269807 
L 69.254909 -128.324083 
L 69.778706 -128.348922 
L 70.386649 -128.253332 
L 70.834015 -128.037995 
L 71.341505 -127.950784 
L 71.957523 -127.812207 
L 72.591382 -127.779066 
L 73.269128 -127.732828 
L 73.572181 -127.788501 
L 74.113768 -127.722355 
L 74.809525 -127.57462 
L 75.238498 -127.440779 
L 75.80493 -127.363861 
L 76.497248 -127.078503 
L 77.024006 -126.869335 
L 77.611455 -126.759499 
L 78.065114 -126.687218 
L 78.459564 -126.616074 
L 79.282693 -126.431478 
L 79.917803 -126.250546 
L 80.369992 -126.157059 
L 81.003778 -126.129654 
L 81.603358 -126.140978 
L 82.072449 -126.247518 
L 82.594015 -126.404887 
L 83.117474 -126.510114 
L 83.536518 -126.652983 
L 84.050054 -126.865033 
L 84.699172 -127.169936 
L 85.385377 -127.400211 
L 85.823541 -127.423111 
L 86.31849 -127.573667 
L 87.009261 -127.706796 
L 87.711104 -128.004595 
L 88.145502 -128.368478 
L 88.59468 -128.724671 
L 89.254487 -129.079731 
L 89.791081 -129.359045 
L 90.336328 -129.73789 
L 90.772221 -129.820639 
L 91.396084 -129.910168 
L 91.949045 -129.978222 
L 92.367275 -130.199718 
L 92.934561 -130.46576 
L 93.486605 -130.732034 
L 94.030083 -130.963404 
L 94.791006 -131.059012 
L 95.509527 -131.271973 
L 95.848893 -131.430838 
L 96.279727 -131.518853 
L 97.001039 -131.709899 
L 97.60836 -131.864409 
L 98.089448 -131.961905 
L 98.625741 -132.221961 
L 99.249133 -132.404869 
L 99.902804 -132.499991 
L 100.483895 -132.744289 
L 100.940125 -132.993971 
L 101.39731 -133.054635 
L 102.145809 -133.376908 
L 102.647258 -133.609683 
L 103.192434 -133.811672 
L 103.752713 -134.159603 
L 104.108269 -134.127588 
L 104.766473 -134.256295 
L 105.560485 -134.311363 
L 106.186508 -134.394107 
L 106.553089 -134.456175 
L 107.007527 -134.565711 
L 107.707365 -134.631481 
L 108.264165 -134.664752 
L 108.819885 -134.675341 
L 109.536514 -134.686685 
L 109.933246 -134.684994 
L 110.462741 -134.737635 
L 111.2346 -134.735805 
L 111.758079 -134.678206 
L 112.183575 -134.437422 
L 112.620998 -134.390328 
L 113.162389 -134.602337 
L 113.89993 -134.549242 
L 114.410839 -134.579048 
L 114.994985 -134.652578 
L 115.622191 -134.685001 
L 115.913002 -134.772726 
L 116.558873 -134.831144 
L 117.358126 -135.005572 
L 117.729266 -135.084488 
L 118.255499 -135.131685 
L 118.996963 -135.219948 
L 119.450075 -135.239242 
L 119.986562 -135.299795 
L 120.645113 -135.379374 
L 121.243578 -135.449865 
L 121.863438 -135.493225 
L 122.311709 -135.484752 
L 122.765116 -135.530381 
L 123.240505 -135.584461 
L 123.671047 -135.618694 
L 124.43441 -135.651538 
L 125.0716 -135.7299 
L 125.524972 -135.755735 
L 126.177475 -135.808582 
L 126.785615 -135.857642 
L 127.218905 -135.794591 
L 127.659299 -135.749478 
L 128.128776 -135.769822 
L 128.620093 -135.822364 
L 129.250099 -135.891574 
L 130.051215 -135.913189 
L 130.713855 -135.917251 
L 131.099237 -135.956455 
L 131.737195 -135.954264 
L 132.213223 -135.921518 
L 132.632726 -135.847721 
L 133.275405 -135.764721 
L 133.817181 -135.846676 
L 134.327225 -135.830684 
L 134.834954 -135.903851 
L 135.521805 -135.914794 
L 136.285913 -135.913388 
L 136.872062 -135.902043 
L 137.36337 -135.967985 
L 137.924858 -135.966915 
L 138.29674 -135.923557 
L 138.670336 -135.891314 
L 139.384063 -135.873134 
L 140.114881 -135.841126 
L 140.51696 -135.787634 
L 140.941486 -135.773733 
L 141.611028 -135.74731 
L 142.117906 -135.662883 
L 142.745282 -135.614666 
L 143.334636 -135.521305 
L 143.853335 -135.364781 
L 144.609213 -135.250383 
L 145.064873 -135.195605 
L 145.55386 -135.185703 
L 146.165728 -135.106855 
L 146.622895 -135.062033 
L 147.356856 -135.165649 
L 147.862581 -135.206397 
L 148.379691 -135.375508 
L 149.118186 -135.485416 
L 149.486036 -135.685571 
L 149.861138 -135.765807 
L 150.604502 -135.87696 
L 151.339685 -135.998001 
L 151.902095 -136.172711 
L 152.335788 -136.295067 
L 152.895254 -136.456541 
L 153.390173 -136.592143 
L 153.899954 -136.705148 
L 154.508542 -136.89231 
L 155.075436 -136.939119 
L 155.692896 -136.909114 
L 156.161295 -136.899141 
L 156.869178 -137.025297 
L 157.386638 -136.99718 
L 157.768226 -137.013849 
L 158.443032 -137.059749 
L 159.032341 -137.003654 
L 159.415023 -136.994198 
L 160.067976 -136.912072 
L 160.802848 -136.868393 
L 161.30529 -136.792077 
L 161.910293 -136.723348 
L 162.309956 -136.695778 
L 162.72298 -136.634839 
L 163.488162 -136.589339 
L 164.059611 -136.498021 
L 164.431228 -136.426351 
L 165.021548 -136.456128 
L 165.581949 -136.465233 
L 166.083684 -136.495996 
L 166.860519 -136.535305 
L 167.46921 -136.582283 
L 167.845129 -136.721122 
L 168.416111 -136.885264 
L 169.083141 -137.020775 
L 169.575684 -137.107197 
L 170.223996 -137.154555 
L 170.950583 -137.202321 
L 171.296319 -137.206426 
L 171.73486 -137.205388 
L 172.432497 -137.203863 
L 173.110074 -137.218624 
L 173.595766 -137.286227 
L 174.090818 -137.296006 
L 174.683887 -137.30029 
L 175.266018 -137.342587 
L 175.897832 -137.411021 
L 176.460782 -137.436226 
L 177.067223 -137.506623 
L 177.485162 -137.481756 
L 177.805672 -137.493326 
L 178.434714 -137.401991 
L 179.21869 -137.286772 
L 179.908759 -137.183217 
L 180.462033 -136.938146 
L 180.853016 -136.913558 
L 181.212836 -136.965541 
L 181.937003 -136.969294 
L 182.530936 -137.012541 
L 183.037048 -137.1578 
L 183.765571 -137.364481 
L 184.350166 -137.500448 
L 184.715323 -137.472542 
L 185.031484 -137.541752 
L 185.602236 -137.613676 
L 186.388692 -137.635905 
L 186.998146 -137.693557 
L 187.565121 -137.843987 
L 188.214012 -137.965912 
L 188.598548 -138.062441 
L 189.059802 -138.178094 
L 189.683212 -138.304943 
L 190.199955 -138.375435 
L 190.779569 -138.522097 
L 191.433559 -138.559606 
L 191.974218 -138.697643 
L 192.611478 -138.778311 
L 193.166129 -138.929213 
L 193.679632 -138.953909 
L 194.29151 -139.069677 
L 194.732799 -139.095225 
L 195.104075 -139.131302 
L 195.631531 -138.994868 
L 196.242505 -138.994547 
L 196.834824 -138.996302 
L 197.409145 -139.035983 
L 197.891854 -138.941392 
L 198.461623 -138.816167 
L 199.153137 -138.802708 
L 199.742738 -138.656525 
L 200.262128 -138.496407 
L 200.741344 -138.444274 
L 201.243262 -138.328612 
L 201.820075 -138.242703 
L 202.436567 -138.138603 
L 202.963317 -138.022136 
L 203.620583 -137.87781 
L 204.393042 -137.801901 
L 204.856549 -137.766869 
L 205.223489 -137.719353 
L 205.84346 -137.679382 
L 206.5929 -137.641665 
L 206.96368 -137.575672 
L 207.33709 -137.491512 
L 207.906826 -137.424706 
L 208.557401 -137.361985 
L 209.171991 -137.332242 
L 209.592304 -137.296324 
L 210.340627 -137.232565 
L 210.929411 -137.174103 
L 211.402944 -137.034821 
L 212.050282 -136.908896 
L 212.481681 -136.822703 
L 213.05294 -136.79045 
L 213.669503 -136.772148 
L 214.311909 -136.709925 
L 214.903484 -136.695667 
L 215.434598 -136.614759 
L 215.856637 -136.588987 
L 216.294318 -136.556674 
L 216.961732 -136.590111 
L 217.641102 -136.563927 
L 218.13923 -136.52964 
L 218.580899 -136.656402 
L 219.271276 -136.598978 
L 219.960222 -136.435619 
L 220.442914 -136.297351 
L 220.885584 -136.227446 
L 221.564893 -136.153642 
L 222.064953 -135.966899 
L 222.541109 -135.906906 
L 223.062057 -135.7955 
L 223.713411 -135.666201 
L 224.390498 -135.449549 
L 224.816679 -135.38954 
L 225.49829 -135.267898 
L 226.132479 -135.082553 
L 226.661016 -134.830848 
L 227.204015 -134.632216 
L 227.695119 -134.180992 
L 228.1461 -133.996736 
L 228.689289 -133.83402 
L 229.261905 -133.66266 
L 229.711185 -133.546189 
L 230.303369 -133.114433 
L 231.071664 -133.44673 
L 231.727407 -133.553143 
L 232.110089 -133.690611 
L 232.536214 -133.670724 
L 233.200998 -133.710227 
L 233.708572 -133.73076 
L 234.275859 -133.736555 
L 235.029922 -133.780413 
L 235.538763 -133.75782 
L 236.121547 -133.816914 
L 236.787664 -133.802213 
L 237.294067 -133.782595 
L 237.738317 -133.68061 
L 238.324426 -133.481243 
L 238.794535 -133.377482 
L 239.31995 -133.168599 
L 240.022011 -132.912742 
L 240.619176 -132.479214 
L 241.180799 -132.252289 
L 241.726104 -132.117682 
L 242.363208 -131.893606 
L 242.733982 -131.68999 
L 243.044153 -131.527033 
L 243.808401 -131.332489 
L 244.428273 -131.084527 
L 244.918718 -130.935388 
L 245.401666 -130.929216 
L 245.995081 -130.856552 
L 246.579996 -130.824572 
L 246.92026 -130.693686 
L 247.677323 -130.649019 
L 248.487121 -130.47802 
L 249.090465 -130.403738 
L 249.504739 -130.358655 
L 249.819526 -130.184364 
L 250.34447 -130.109327 
L 250.989101 -130.063713 
L 251.693657 -130.123255 
L 252.348105 -130.147527 
L 252.941343 -130.276202 
L 253.294097 -130.657911 
L 253.642692 -130.903031 
L 254.220259 -131.173782 
L 254.934162 -131.273375 
L 255.648515 -131.171128 
L 256.112448 -131.38643 
L 256.585688 -131.53772 
L 257.248436 -131.726964 
L 257.720894 -131.893226 
L 258.229495 -132.003731 
L 259.03124 -132.241881 
L 259.62095 -132.539888 
L 259.954339 -132.72465 
L 260.358951 -132.992776 
L 261.079259 -133.104408 
L 261.850747 -133.384783 
L 262.474207 -133.678432 
L 262.889949 -133.876611 
L 263.242677 -134.157271 
L 263.899151 -134.374938 
L 264.427414 -134.478887 
L 264.952986 -134.644209 
L 265.523494 -134.806305 
L 266.014404 -135.011434 
L 266.704934 -135.220259 
L 267.205265 -135.438555 
L 267.720312 -135.631909 
L 268.243678 -135.795608 
L 268.737135 -135.933198 
L 269.355584 -135.978122 
L 269.988681 -136.065757 
L 270.669451 -136.143567 
L 271.15758 -136.121145 
L 271.783022 -136.19474 
L 272.530074 -136.265006 
L 272.940471 -136.297785 
L 273.481 -136.461611 
L 273.954647 -136.548201 
L 274.437599 -136.647508 
L 275.051926 -136.733263 
L 275.56709 -136.864126 
L 276.15886 -136.955732 
L 276.815894 -137.17933 
L 277.438278 -137.205739 
L 278.016715 -137.298317 
L 278.655753 -137.454961 
L 279.081092 -137.552755 
L 279.441596 -137.670105 
L 280.009453 -137.938734 
L 280.750294 -138.02396 
L 281.414358 -138.102203 
L 281.868842 -138.30258 
L 282.462277 -138.465209 
L 283.060514 -138.578549 
L 283.541412 -138.798974 
L 284.034616 -139.123698 
L 284.455853 -139.369692 
L 284.985177 -139.62299 
L 285.77265 -139.837929 
L 286.482005 -140.050154 
L 286.890585 -140.402716 
L 287.294955 -140.519274 
L 287.935969 -140.571977 
L 288.518643 -140.626378 
L 289.008299 -140.714846 
L 289.618153 -140.76317 
L 290.123811 -140.865474 
L 290.662341 -140.939289 
L 291.382739 -140.9334 
L 291.877192 -141.002641 
L 292.352728 -141.075967 
L 293.005759 -141.128405 
L 293.5776 -141.192375 
L 293.956717 -141.212394 
L 294.452516 -141.204298 
L 295.012255 -141.235019 
L 295.589947 -141.220643 
L 296.347659 -141.187484 
L 296.866553 -141.253329 
L 297.208872 -141.330348 
L 297.72762 -141.461077 
L 298.341975 -141.541384 
L 299.018494 -141.682128 
L 299.55607 -141.782538 
L 300.037884 -141.865947 
L 300.733863 -141.950172 
L 301.23383 -141.95108 
L 301.816658 -142.040363 
L 302.357543 -142.144284 
L 302.786158 -142.20697 
L 303.449059 -142.24856 
L 304.206508 -142.260788 
L 304.681827 -142.339682 
L 305.145888 -142.40036 
L 305.653596 -142.417052 
L 306.290169 -142.428891 
L 306.937698 -142.417688 
L 307.326746 -142.458072 
L 307.866397 -142.454847 
L 308.465388 -142.492978 
L 309.139343 -142.458596 
L 309.590727 -142.49352 
L 310.191111 -142.431602 
L 310.819527 -142.450641 
L 311.302763 -142.431991 
L 311.822678 -142.326083 
L 312.31735 -142.55895 
L 312.840139 -142.591205 
L 313.395119 -142.587464 
L 314.020471 -142.600956 
L 314.762924 -142.641942 
L 315.294208 -142.671886 
L 315.617408 -142.624334 
L 316.227488 -142.599952 
L 316.915499 -142.582918 
L 317.393921 -142.480583 
L 317.828603 -142.524831 
L 318.364804 -142.471912 
L 319.103615 -142.405455 
L 319.740728 -142.378367 
L 320.122441 -142.341522 
L 320.71835 -142.31782 
L 321.298515 -142.306916 
L 321.992183 -142.215389 
L 322.638258 -142.201708 
L 323.127217 -142.201732 
L 323.776602 -142.118674 
L 324.404547 -142.032359 
L 324.818244 -141.961882 
L 325.122514 -141.950477 
L 325.635796 -141.918706 
L 326.197968 -141.932669 
L 326.902876 -141.907524 
L 327.525476 -142.016466 
L 327.976765 -142.009701 
L 328.692146 -142.024328 
L 329.375967 -142.033833 
L 329.776733 -142.119664 
L 330.373267 -142.133614 
L 331.050809 -142.096852 
L 331.391414 -142.080573 
L 331.941022 -142.002789 
L 332.529142 -141.92907 
L 333.026434 -141.886761 
L 333.768701 -141.929574 
L 334.269971 -141.845512 
L 334.708884 -141.794337 
L 335.455451 -141.745074 
L 335.9168 -141.748631 
L 336.387046 -141.686185 
L 337.026954 -141.683858 
L 337.547549 -141.628325 
L 338.040247 -141.606857 
L 338.607489 -141.549594 
L 339.201049 -141.471306 
L 339.707466 -141.440349 
L 340.358819 -141.284368 
L 341.013833 -141.074864 
L 341.646587 -140.931677 
L 342.222942 -140.767414 
L 342.644395 -140.665044 
L 343.139051 -140.529903 
L 343.753728 -140.454948 
L 344.436169 -140.439673 
L 344.985707 -140.438871 
L 345.426541 -140.455625 
L 345.935019 -140.411621 
L 346.542979 -140.399462 
L 347.195084 -140.424282 
L 347.589511 -140.485473 
L 348.168258 -140.501467 
L 348.809617 -140.423875 
L 349.352947 -140.441807 
L 349.938949 -140.438113 
L 350.468036 -140.39787 
L 351.098693 -140.461716 
L 351.465261 -140.326015 
L 352.075357 -140.272594 
L 352.873774 -140.194352 
L 353.339857 -140.156673 
L 353.736498 -140.097436 
L 354.382601 -140.038097 
L 354.999118 -139.979518 
L 355.436276 -139.830404 
L 355.987255 -139.651213 
L 356.58687 -139.49828 
L 357.258793 -139.384156 
L 357.796004 -139.262532 
L 358.303869 -139.168098 
L 358.741523 -139.165917 
L 359.120281 -139.160111 
L 359.833146 -139.126286 
L 360.532892 -139.095478 
L 360.895382 -139.050462 
L 361.356702 -138.986353 
L 362.095741 -138.972535 
L 362.731613 -138.964435 
L 363.277886 -138.94022 
L 363.806937 -138.924306 
L 364.428429 -138.99323 
L 365.128601 -138.943154 
L 365.462539 -139.078519 
L 365.785637 -138.946014 
L 366.340694 -138.88301 
L 366.895454 -138.75715 
L 367.466193 -138.794422 
L 368.09553 -138.761786 
L 368.655765 -138.75409 
L 369.24444 -138.686792 
L 370.009665 -138.490739 
L 370.532283 -138.214223 
L 370.86588 -138.086563 
L 371.551224 -137.963018 
L 372.098141 -137.761174 
L 372.439879 -137.579628 
L 373.215665 -137.457101 
L 373.886994 -137.419392 
L 374.482031 -137.379378 
L 375.096128 -137.258945 
L 375.452664 -137.232546 
L 376.11043 -137.18934 
L 376.692652 -137.194359 
L 377.175816 -137.139497 
L 377.933154 -137.069555 
L 378.565677 -136.934313 
L 378.976707 -136.786851 
L 379.356833 -136.749471 
L 380.01535 -136.804464 
L 380.611486 -136.76888 
L 380.947704 -136.783971 
L 381.47455 -136.655207 
L 382.101047 -136.513588 
L 382.695217 -136.268395 
L 383.228007 -136.173963 
L 383.809892 -136.183579 
L 384.571975 -136.212964 
L 385.061321 -136.288186 
L 385.541698 -136.293188 
L 386.226319 -136.263674 
L 386.673123 -136.28337 
L 387.035202 -136.330448 
L 387.773978 -136.313764 
L 388.384263 -136.407184 
L 388.951831 -136.590312 
L 389.630843 -136.779977 
L 390.161905 -137.047239 
L 390.535014 -137.403595 
L 390.912398 -137.251806 
L 391.53778 -137.29803 
L 392.06612 -137.363852 
L 392.703486 -137.478244 
L 393.280325 -137.589263 
L 393.710013 -137.740974 
L 394.356368 -137.862544 
L 395.147193 -137.93295 
L 395.80456 -138.05281 
L 396.343728 -138.186234 
L 396.805523 -138.277527 
L 397.295223 -138.345318 
L 397.972061 -138.426083 
L 398.450511 -138.521488 
L 398.868926 -138.640062 
L 399.512906 -138.74221 
L 400.128336 -138.78616 
L 400.651203 -138.99076 
L 401.046982 -139.054076 
L 401.572757 -139.021155 
L 402.163811 -139.104206 
L 402.737248 -139.152412 
L 403.331807 -139.230229 
L 403.875606 -139.272768 
L 404.604848 -139.311211 
L 405.139807 -139.261264 
L 405.579345 -139.263909 
L 406.224076 -139.286414 
L 406.84327 -139.319665 
L 407.466886 -139.323301 
L 407.948847 -139.324148 
L 408.522966 -139.277254 
L 408.969493 -139.164063 
L 409.308324 -139.146706 
L 410.026456 -139.133307 
L 410.788003 -139.030361 
L 411.298181 -139.007311 
L 411.851557 -138.919911 
L 412.346029 -138.860481 
L 412.760848 -138.858147 
L 413.541427 -138.804566 
L 414.072875 -138.73772 
L 414.630029 -138.721344 
L 415.132001 -138.61245 
L 415.534056 -138.632565 
L 416.13775 -138.614578 
L 416.610419 -138.616279 
L 417.277715 -138.545025 
L 417.813153 -138.662143 
L 418.276123 -138.696802 
L 418.894355 -138.747673 
L 419.456288 -138.81752 
L 419.973055 -138.835397 
L 420.715221 -138.90402 
L 421.470315 -138.95109 
L 422.025394 -138.96383 
L 422.576176 -138.829416 
L 423.069909 -138.660636 
L 423.48081 -138.566216 
L 424.002866 -138.427567 
L 424.717324 -138.222948 
L 425.383426 -138.007669 
L 425.824501 -137.732852 
L 426.383869 -137.652024 
L 426.842251 -137.476488 
L 427.292935 -137.503332 
L 427.970118 -137.479406 
L 428.622088 -137.444803 
L 429.175603 -137.38884 
L 429.58041 -137.249278 
L 430.217198 -137.237274 
L 430.754077 -137.248236 
L 431.216434 -137.200128 
L 431.878339 -137.23446 
L 432.472006 -137.329573 
L 432.939868 -137.367746 
L 433.631379 -137.357151 
L 434.169093 -137.402084 
L 434.695227 -137.46781 
L 435.283895 -137.608874 
L 435.865964 -137.755261 
L 436.384387 -137.876876 
L 436.809214 -138.000442 
L 437.382892 -138.108832 
L 438.00873 -138.076164 
L 438.574725 -138.018217 
L 439.009408 -137.949166 
L 439.702547 -137.801588 
L 440.410836 -137.673204 
L 440.907758 -137.403482 
L 441.385658 -137.438787 
L 441.812975 -137.32216 
L 442.461286 -137.305149 
L 443.038654 -137.127929 
L 443.541488 -137.062538 
L 444.255279 -137.125154 
L 444.693702 -137.136787 
L 445.13316 -137.125071 
L 445.728478 -137.099738 
L 446.461403 -137.114512 
L 446.997782 -137.076707 
L 447.342726 -137.028574 
L 447.9998 -136.967684 
L 448.654689 -136.937039 
L 449.149562 -136.922661 
L 449.803637 -136.877116 
L 450.263156 -136.832462 
L 450.83412 -136.871397 
L 451.473713 -136.835401 
L 451.870308 -136.818845 
L 452.424727 -136.765309 
L 453.014624 -136.787117 
L 453.640691 -136.792507 
L 454.290538 -136.823314 
L 454.941068 -136.760586 
L 455.479928 -136.830975 
L 456.056256 -136.860994 
L 456.500973 -136.865637 
L 457.047765 -136.886715 
L 457.640741 -136.942615 
L 458.133922 -136.985094 
L 458.816612 -137.146341 
L 459.267391 -137.264062 
L 459.795013 -137.354902 
L 460.45002 -137.485874 
L 460.818115 -137.615692 
L 461.406692 -137.770608 
L 462.197074 -137.875245 
L 462.779685 -138.079944 
L 463.157066 -138.3411 
L 463.630133 -138.552598 
L 464.319443 -138.71628 
L 464.786602 -138.924219 
L 465.155473 -139.157896 
L 465.675136 -139.359672 
L 466.320665 -139.556332 
L 467.078781 -139.725556 
L 467.745549 -139.879011 
L 468.14517 -140.076184 
L 468.673109 -140.253607 
L 469.231754 -140.390164 
L 469.793379 -140.496147 
L 470.335772 -140.654187 
L 470.720908 -140.81159 
L 471.408547 -140.948537 
L 472.114155 -141.04243 
L 472.640371 -141.201851 
L 473.076965 -141.299185 
L 473.63905 -141.373152 
L 474.19698 -141.456541 
L 474.664006 -141.531789 
L 475.441226 -141.603883 
L 476.043466 -141.74377 
L 476.436932 -141.852898 
L 477.04303 -141.853632 
L 477.696465 -141.859727 
L 478.13552 -141.908299 
L 478.57162 -141.930494 
L 479.263744 -141.956737 
L 479.783541 -142.006587 
L 480.230515 -142.042205 
L 480.767868 -142.049362 
L 481.482399 -142.073757 
L 482.234865 -142.087519 
L 482.680706 -142.119928 
L 483.226995 -142.137884 
L 483.906813 -142.181842 
L 484.270483 -142.176442 
L 484.634615 -142.227918 
L 485.278594 -142.266207 
L 486.018438 -142.280923 
L 486.60266 -142.298167 
L 487.209748 -142.289817 
L 487.915002 -142.276497 
L 488.359391 -142.280471 
L 488.818025 -142.262534 
L 489.314782 -142.266754 
L 489.935377 -142.3502 
L 490.675296 -142.446488 
L 491.042351 -142.504534 
L 491.358002 -142.553749 
L 491.882441 -142.631843 
L 492.636141 -142.649451 
L 493.248831 -142.795697 
L 493.680288 -142.81008 
L 494.271307 -142.839928 
L 494.948166 -142.832094 
L 495.507506 -142.863488 
L 495.871463 -142.900109 
L 496.36078 -142.931457 
L 497.048866 -142.927486 
L 497.750486 -142.928615 
L 498.407179 -142.911515 
L 498.966921 -142.85347 
L 499.305939 -142.845655 
L 499.965398 -142.805471 
L 500.668456 -142.72861 
L 500.98732 -142.617289 
L 501.544732 -142.648492 
L 502.095946 -142.611946 
L 502.599565 -142.588487 
L 503.169839 -142.550848 
L 503.857865 -142.499565 
L 504.4594 -142.392986 
L 505.001946 -142.341255 
L 505.508092 -142.326597 
L 505.860039 -142.201438 
L 506.557336 -142.110111 
L 507.223596 -142.058141 
L 507.641626 -141.925664 
L 508.103212 -141.782381 
L 508.658401 -141.537425 
L 509.385495 -141.418892 
L 509.931922 -141.253607 
L 510.446011 -141.138107 
L 511.124464 -140.946077 
L 511.5114 -140.847231 
L 511.989837 -140.777969 
L 512.585009 -140.549832 
L 513.257134 -140.438755 
L 513.808376 -140.265361 
L 514.328177 -140.109141 
L 514.869144 -139.851094 
L 515.527883 -139.776114 
L 516.267561 -139.56663 
L 516.753596 -139.226761 
L 517.341312 -139.087264 
L 517.833363 -138.799173 
L 518.335732 -138.507845 
L 518.878647 -138.26446 
L 519.45919 -137.965606 
L 520.005884 -137.756243 
L 520.640247 -137.577958 
L 521.14683 -137.457003 
L 521.453003 -137.074254 
L 522.034365 -136.931902 
L 522.820719 -136.85866 
L 523.531022 -136.754411 
L 524.121345 -136.685966 
L 524.62085 -136.724381 
L 525.123896 -136.727489 
L 525.79144 -136.658149 
L 526.252676 -136.737636 
L 526.62155 -136.61249 
L 527.059172 -136.437869 
L 527.81668 -136.350396 
L 528.498973 -136.339569 
L 529.026061 -136.232184 
L 529.707109 -136.166992 
L 530.068615 -136.211346 
L 530.447022 -136.288065 
L 531.155662 -136.349295 
L 531.789372 -136.438483 
L 532.295178 -136.447675 
L 532.927565 -136.581732 
L 533.42403 -136.755488 
L 533.832963 -136.847713 
L 534.609803 -136.904143 
L 535.16191 -137.008929 
L 535.525498 -137.115694 
L 536.193972 -137.215141 
L 536.866073 -137.238571 
L 537.35649 -137.260388 
L 537.949489 -137.20052 
L 538.623567 -137.260592 
L 539.189 -137.26464 
L 539.75135 -137.379562 
L 540.212695 -137.439936 
L 540.569571 -137.556941 
L 541.142004 -137.593197 
L 541.832357 -137.605057 
L 542.457997 -137.734201 
L 542.997555 -137.835763 
L 543.604911 -138.023675 
L 544.22038 -138.104132 
L 544.742032 -138.194477 
L 545.148797 -138.217922 
L 545.4683 -138.240275 
L 546.12594 -138.316384 
L 546.806673 -138.422039 
L 547.338218 -138.496531 
L 547.879989 -138.5189 
L 548.318318 -138.610968 
L 548.951381 -138.693389 
L 549.730282 -138.889916 
L 550.223238 -139.082603 
L 550.642714 -139.283303 
L 551.114855 -139.467442 
L 551.748529 -139.606904 
L 552.308508 -139.770852 
L 552.919908 -139.861877 
L 553.637975 -139.9916 
L 554.071533 -140.087533 
L 554.591781 -140.350834 
L 555.317184 -140.421215 
L 555.984549 -140.479599 
L 556.353804 -140.64047 
L 556.83814 -140.793294 
L 557.350399 -140.782582 
L 557.849555 -140.881475 
L 558.600411 -140.948488 
L 559.105372 -141.013917 
L 559.510581 -141.151787 
L 560.078238 -141.247301 
L 560.648829 -141.334144 
L 561.359865 -141.380891 
L 562.031049 -141.467126 
L 562.475333 -141.576398 
L 563.080421 -141.654533 
L 563.737309 -141.700482 
L 564.319015 -141.696594 
L 564.67703 -141.758656 
L 565.1708 -141.855618 
L 565.83385 -141.896004 
L 566.229848 -141.947844 
L 566.725598 -141.971786 
L 567.33715 -142.127754 
L 567.983208 -142.263978 
L 568.585773 -142.340647 
L 568.98601 -142.43297 
L 569.568602 -142.471976 
L 570.34717 -142.43045 
L 570.765379 -142.413092 
L 571.233603 -142.393084 
L 571.97971 -142.388304 
L 572.496368 -142.381002 
L 573.001928 -142.426682 
L 573.683396 -142.423631 
L 574.259228 -142.424971 
L 574.76924 -142.399509 
L 575.233386 -142.34461 
L 575.825798 -142.382498 
L 576.370708 -142.470051 
L 576.793001 -142.473389 
L 577.302589 -142.434041 
L 578.03211 -142.445742 
L 578.606949 -142.403624 
L 579.088612 -142.371015 
L 579.681213 -142.323441 
L 580.284067 -142.385929 
L 580.824331 -142.292003 
L 581.3636 -142.278073 
L 582.138637 -142.179827 
L 582.681246 -142.232281 
L 583.090508 -142.201837 
L 583.66229 -142.239461 
L 584.358201 -142.223181 
L 584.91638 -142.168807 
L 585.232081 -142.131469 
L 585.781703 -142.082923 
L 586.408703 -141.982602 
L 586.934568 -141.922529 
L 587.633329 -141.84286 
L 588.119053 -141.677697 
L 588.653132 -141.645683 
L 589.261024 -141.562009 
L 589.629581 -141.452353 
L 590.247167 -141.375127 
L 591.049422 -141.268615 
L 591.577913 -141.076651 
L 591.888067 -140.822567 
L 592.33243 -140.867371 
L 593.097259 -140.96662 
L 593.776943 -141.108563 
L 594.19945 -141.167099 
L 594.641739 -141.137184 
L 595.349183 -141.071191 
L 595.930271 -141.061205 
L 596.402605 -140.94146 
L 597.03413 -140.869868 
L 597.631703 -140.794797 
L 598.283921 -140.689873 
L 598.901302 -140.581384 
L 599.331236 -140.428998 
L 599.860675 -140.363718 
L 600.577511 -140.154983 
L 601.092607 -140.155497 
L 601.436899 -140.119129 
L 602.009103 -140.17889 
L 602.559737 -140.133149 
L 603.113411 -140.377299 
L 603.838584 -140.611255 
L 604.244094 -140.836978 
L 604.720066 -140.98959 
L 605.385298 -141.17305 
L 605.89066 -141.293445 
L 606.382813 -141.660843 
L 607.086293 -141.931188 
L 607.784797 -142.347568 
L 608.148123 -142.494882 
L 608.729264 -142.58835 
L 609.358641 -142.41532 
L 609.736347 -142.647086 
L 610.234608 -142.639247 
L 610.962823 -142.264491 
L 611.685143 -141.436513 
L 611.945327 -139.441564 
L 611.945327 -145.210297 
L 611.945327 -145.210297 
L 611.685143 -145.59228 
L 610.962823 -145.447733 
L 610.234608 -145.299698 
L 609.736347 -145.336354 
L 609.358641 -145.313314 
L 608.729264 -145.761568 
L 608.148123 -145.984965 
L 607.784797 -146.154029 
L 607.086293 -145.612648 
L 606.382813 -145.259916 
L 605.89066 -144.96082 
L 605.385298 -144.72686 
L 604.720066 -144.528201 
L 604.244094 -144.449522 
L 603.838584 -144.218506 
L 603.113411 -144.049485 
L 602.559737 -143.997261 
L 602.009103 -144.021406 
L 601.436899 -144.02234 
L 601.092607 -144.087282 
L 600.577511 -144.295931 
L 599.860675 -144.500976 
L 599.331236 -144.618622 
L 598.901302 -144.745682 
L 598.283921 -144.878409 
L 597.631703 -145.146201 
L 597.03413 -145.275787 
L 596.402605 -145.492576 
L 595.930271 -145.640355 
L 595.349183 -145.766792 
L 594.641739 -145.875694 
L 594.19945 -145.918788 
L 593.776943 -145.85308 
L 593.097259 -145.706999 
L 592.33243 -145.719674 
L 591.888067 -145.810723 
L 591.577913 -145.976488 
L 591.049422 -146.197831 
L 590.247167 -146.358041 
L 589.629581 -146.496979 
L 589.261024 -146.648219 
L 588.653132 -146.796265 
L 588.119053 -146.939495 
L 587.633329 -147.197671 
L 586.934568 -147.364003 
L 586.408703 -147.49702 
L 585.781703 -147.684144 
L 585.232081 -147.902113 
L 584.91638 -148.051253 
L 584.358201 -148.172548 
L 583.66229 -148.312366 
L 583.090508 -148.384333 
L 582.681246 -148.501798 
L 582.138637 -148.514933 
L 581.3636 -148.660022 
L 580.824331 -148.898601 
L 580.284067 -149.050779 
L 579.681213 -149.290719 
L 579.088612 -149.531373 
L 578.606949 -149.441898 
L 578.03211 -149.433616 
L 577.302589 -149.358342 
L 576.793001 -149.233491 
L 576.370708 -149.165363 
L 575.825798 -149.030133 
L 575.233386 -148.911191 
L 574.76924 -148.72491 
L 574.259228 -148.643107 
L 573.683396 -148.416702 
L 573.001928 -148.272578 
L 572.496368 -148.026891 
L 571.97971 -147.932207 
L 571.233603 -147.901928 
L 570.765379 -147.840986 
L 570.34717 -147.945386 
L 569.568602 -147.835411 
L 568.98601 -147.776587 
L 568.585773 -147.415989 
L 567.983208 -147.06818 
L 567.33715 -146.705604 
L 566.725598 -146.360649 
L 566.229848 -146.041096 
L 565.83385 -145.822767 
L 565.1708 -145.609103 
L 564.67703 -145.439025 
L 564.319015 -145.291916 
L 563.737309 -145.201355 
L 563.080421 -145.018156 
L 562.475333 -144.740369 
L 562.031049 -144.555638 
L 561.359865 -144.487306 
L 560.648829 -144.415801 
L 560.078238 -144.275841 
L 559.510581 -143.997219 
L 559.105372 -143.896266 
L 558.600411 -143.744474 
L 557.849555 -143.620135 
L 557.350399 -143.484227 
L 556.83814 -143.424248 
L 556.353804 -143.317461 
L 555.984549 -143.15648 
L 555.317184 -143.1154 
L 554.591781 -143.083992 
L 554.071533 -142.88955 
L 553.637975 -142.783536 
L 552.919908 -142.647817 
L 552.308508 -142.509516 
L 551.748529 -142.40009 
L 551.114855 -142.322682 
L 550.642714 -142.220607 
L 550.223238 -142.06928 
L 549.730282 -141.878608 
L 548.951381 -141.805123 
L 548.318318 -141.678058 
L 547.879989 -141.611343 
L 547.338218 -141.524558 
L 546.806673 -141.494185 
L 546.12594 -141.383597 
L 545.4683 -141.33619 
L 545.148797 -141.311878 
L 544.742032 -141.289323 
L 544.22038 -141.204188 
L 543.604911 -141.140166 
L 542.997555 -141.004061 
L 542.457997 -140.926643 
L 541.832357 -140.885084 
L 541.142004 -140.86382 
L 540.569571 -140.839513 
L 540.212695 -140.794431 
L 539.75135 -140.793002 
L 539.189 -140.805273 
L 538.623567 -140.817602 
L 537.949489 -140.839524 
L 537.35649 -140.84756 
L 536.866073 -140.871188 
L 536.193972 -140.89324 
L 535.525498 -140.8119 
L 535.16191 -140.754135 
L 534.609803 -140.746162 
L 533.832963 -140.673053 
L 533.42403 -140.633153 
L 532.927565 -140.607978 
L 532.295178 -140.603024 
L 531.789372 -140.649425 
L 531.155662 -140.611287 
L 530.447022 -140.646059 
L 530.068615 -140.563463 
L 529.707109 -140.510882 
L 529.026061 -140.51335 
L 528.498973 -140.56256 
L 527.81668 -140.603764 
L 527.059172 -140.645226 
L 526.62155 -140.670516 
L 526.252676 -140.672528 
L 525.79144 -140.744132 
L 525.123896 -140.777163 
L 524.62085 -140.768844 
L 524.121345 -140.825629 
L 523.531022 -140.889189 
L 522.820719 -140.959168 
L 522.034365 -141.047517 
L 521.453003 -141.075812 
L 521.14683 -141.235252 
L 520.640247 -141.348781 
L 520.005884 -141.526854 
L 519.45919 -141.716964 
L 518.878647 -141.886143 
L 518.335732 -142.108341 
L 517.833363 -142.266522 
L 517.341312 -142.36497 
L 516.753596 -142.548996 
L 516.267561 -142.732151 
L 515.527883 -142.935153 
L 514.869144 -143.060934 
L 514.328177 -143.258107 
L 513.808376 -143.426277 
L 513.257134 -143.517902 
L 512.585009 -143.712149 
L 511.989837 -143.895173 
L 511.5114 -144.110299 
L 511.124464 -144.312452 
L 510.446011 -144.654283 
L 509.931922 -144.905763 
L 509.385495 -145.153077 
L 508.658401 -145.409949 
L 508.103212 -145.786981 
L 507.641626 -146.053248 
L 507.223596 -146.254657 
L 506.557336 -146.570849 
L 505.860039 -146.761881 
L 505.508092 -146.921673 
L 505.001946 -146.985319 
L 504.4594 -147.088662 
L 503.857865 -147.159835 
L 503.169839 -147.285622 
L 502.599565 -147.378036 
L 502.095946 -147.389937 
L 501.544732 -147.457991 
L 500.98732 -147.542547 
L 500.668456 -147.582873 
L 499.965398 -147.651544 
L 499.305939 -147.890618 
L 498.966921 -147.995795 
L 498.407179 -148.039671 
L 497.750486 -148.043166 
L 497.048866 -148.177036 
L 496.36078 -148.196868 
L 495.871463 -148.15404 
L 495.507506 -148.044846 
L 494.948166 -147.941724 
L 494.271307 -147.885307 
L 493.680288 -147.757029 
L 493.248831 -147.375554 
L 492.636141 -147.110976 
L 491.882441 -146.803725 
L 491.358002 -146.621089 
L 491.042351 -146.445747 
L 490.675296 -146.354801 
L 489.935377 -146.192492 
L 489.314782 -145.978024 
L 488.818025 -145.814385 
L 488.359391 -145.797766 
L 487.915002 -145.684869 
L 487.209748 -145.634575 
L 486.60266 -145.555674 
L 486.018438 -145.481167 
L 485.278594 -145.499953 
L 484.634615 -145.385264 
L 484.270483 -145.326434 
L 483.906813 -145.257913 
L 483.226995 -145.118301 
L 482.680706 -145.02476 
L 482.234865 -144.958021 
L 481.482399 -144.875241 
L 480.767868 -144.768466 
L 480.230515 -144.657481 
L 479.783541 -144.658958 
L 479.263744 -144.482913 
L 478.57162 -144.410853 
L 478.13552 -144.301016 
L 477.696465 -144.195285 
L 477.04303 -144.081714 
L 476.436932 -144.054942 
L 476.043466 -143.857728 
L 475.441226 -143.619084 
L 474.664006 -143.411786 
L 474.19698 -143.222065 
L 473.63905 -143.075724 
L 473.076965 -142.887865 
L 472.640371 -142.702761 
L 472.114155 -142.472631 
L 471.408547 -142.336514 
L 470.720908 -142.236356 
L 470.335772 -142.062356 
L 469.793379 -141.916716 
L 469.231754 -141.815252 
L 468.673109 -141.746021 
L 468.14517 -141.661313 
L 467.745549 -141.607778 
L 467.078781 -141.508567 
L 466.320665 -141.46939 
L 465.675136 -141.300892 
L 465.155473 -141.24469 
L 464.786602 -141.157224 
L 464.319443 -141.093476 
L 463.630133 -141.013814 
L 463.157066 -140.96977 
L 462.779685 -140.892941 
L 462.197074 -140.853821 
L 461.406692 -140.753963 
L 460.818115 -140.665023 
L 460.45002 -140.612845 
L 459.795013 -140.52976 
L 459.267391 -140.547673 
L 458.816612 -140.578858 
L 458.133922 -140.546017 
L 457.640741 -140.495895 
L 457.047765 -140.520474 
L 456.500973 -140.519885 
L 456.056256 -140.554085 
L 455.479928 -140.593862 
L 454.941068 -140.587079 
L 454.290538 -140.619125 
L 453.640691 -140.583603 
L 453.014624 -140.58153 
L 452.424727 -140.577919 
L 451.870308 -140.585988 
L 451.473713 -140.55045 
L 450.83412 -140.579137 
L 450.263156 -140.606327 
L 449.803637 -140.630288 
L 449.149562 -140.675811 
L 448.654689 -140.720097 
L 447.9998 -140.749263 
L 447.342726 -140.755825 
L 446.997782 -140.804997 
L 446.461403 -140.82036 
L 445.728478 -140.860968 
L 445.13316 -140.955399 
L 444.693702 -140.946073 
L 444.255279 -140.919954 
L 443.541488 -140.950898 
L 443.038654 -140.976159 
L 442.461286 -141.056575 
L 441.812975 -141.041203 
L 441.385658 -141.100961 
L 440.907758 -141.247858 
L 440.410836 -141.238271 
L 439.702547 -141.290714 
L 439.009408 -141.369686 
L 438.574725 -141.431268 
L 438.00873 -141.490297 
L 437.382892 -141.516899 
L 436.809214 -141.476561 
L 436.384387 -141.508062 
L 435.865964 -141.512381 
L 435.283895 -141.533471 
L 434.695227 -141.585707 
L 434.169093 -141.590447 
L 433.631379 -141.548351 
L 432.939868 -141.507386 
L 432.472006 -141.492373 
L 431.878339 -141.479837 
L 431.216434 -141.463086 
L 430.754077 -141.442 
L 430.217198 -141.44595 
L 429.58041 -141.508764 
L 429.175603 -141.531811 
L 428.622088 -141.568155 
L 427.970118 -141.537805 
L 427.292935 -141.532817 
L 426.842251 -141.555084 
L 426.383869 -141.674597 
L 425.824501 -141.735058 
L 425.383426 -141.739882 
L 424.717324 -141.826586 
L 424.002866 -141.909669 
L 423.48081 -142.020999 
L 423.069909 -142.06126 
L 422.576176 -142.108723 
L 422.025394 -142.215476 
L 421.470315 -142.192355 
L 420.715221 -142.105868 
L 419.973055 -142.039741 
L 419.456288 -141.953853 
L 418.894355 -141.884833 
L 418.276123 -141.831882 
L 417.813153 -141.822949 
L 417.277715 -141.788035 
L 416.610419 -141.76751 
L 416.13775 -141.844982 
L 415.534056 -141.863586 
L 415.132001 -141.892144 
L 414.630029 -142.026007 
L 414.072875 -142.039988 
L 413.541427 -141.981125 
L 412.760848 -141.988178 
L 412.346029 -141.941415 
L 411.851557 -141.938105 
L 411.298181 -141.920186 
L 410.788003 -141.913651 
L 410.026456 -141.906847 
L 409.308324 -141.912126 
L 408.969493 -141.916648 
L 408.522966 -141.939752 
L 407.948847 -141.971259 
L 407.466886 -141.973117 
L 406.84327 -141.990816 
L 406.224076 -141.950431 
L 405.579345 -141.966789 
L 405.139807 -141.926941 
L 404.604848 -141.984103 
L 403.875606 -141.922533 
L 403.331807 -141.839056 
L 402.737248 -141.819362 
L 402.163811 -141.755337 
L 401.572757 -141.683531 
L 401.046982 -141.638558 
L 400.651203 -141.629579 
L 400.128336 -141.563272 
L 399.512906 -141.504038 
L 398.868926 -141.445134 
L 398.450511 -141.419476 
L 397.972061 -141.364844 
L 397.295223 -141.330363 
L 396.805523 -141.296295 
L 396.343728 -141.247563 
L 395.80456 -141.174053 
L 395.147193 -141.117799 
L 394.356368 -141.046437 
L 393.710013 -140.936676 
L 393.280325 -140.859661 
L 392.703486 -140.76453 
L 392.06612 -140.669488 
L 391.53778 -140.612193 
L 390.912398 -140.596503 
L 390.535014 -140.532513 
L 390.161905 -140.350986 
L 389.630843 -140.295165 
L 388.951831 -140.112099 
L 388.384263 -139.995904 
L 387.773978 -139.954025 
L 387.035202 -139.951717 
L 386.673123 -139.936473 
L 386.226319 -139.929328 
L 385.541698 -139.909944 
L 385.061321 -139.875035 
L 384.571975 -139.87452 
L 383.809892 -139.887736 
L 383.228007 -139.912178 
L 382.695217 -139.973248 
L 382.101047 -139.983492 
L 381.47455 -140.071955 
L 380.947704 -140.101073 
L 380.611486 -140.155085 
L 380.01535 -140.160064 
L 379.356833 -140.194167 
L 378.976707 -140.221451 
L 378.565677 -140.279227 
L 377.933154 -140.303664 
L 377.175816 -140.446102 
L 376.692652 -140.460776 
L 376.11043 -140.495853 
L 375.452664 -140.518805 
L 375.096128 -140.51297 
L 374.482031 -140.537865 
L 373.886994 -140.585707 
L 373.215665 -140.646876 
L 372.439879 -140.679055 
L 372.098141 -140.713704 
L 371.551224 -140.84665 
L 370.86588 -140.921699 
L 370.532283 -141.022 
L 370.009665 -141.141124 
L 369.24444 -141.181814 
L 368.655765 -141.247319 
L 368.09553 -141.251029 
L 367.466193 -141.243921 
L 366.895454 -141.201267 
L 366.340694 -141.264559 
L 365.785637 -141.304131 
L 365.462539 -141.313646 
L 365.128601 -141.417472 
L 364.428429 -141.416708 
L 363.806937 -141.459695 
L 363.277886 -141.49168 
L 362.731613 -141.5069 
L 362.095741 -141.503495 
L 361.356702 -141.594635 
L 360.895382 -141.687836 
L 360.532892 -141.810554 
L 359.833146 -141.896297 
L 359.120281 -141.970541 
L 358.741523 -141.953941 
L 358.303869 -142.018296 
L 357.796004 -142.091556 
L 357.258793 -142.147637 
L 356.58687 -142.240635 
L 355.987255 -142.332854 
L 355.436276 -142.401669 
L 354.999118 -142.481584 
L 354.382601 -142.641871 
L 353.736498 -142.674041 
L 353.339857 -142.765075 
L 352.873774 -142.859498 
L 352.075357 -142.944748 
L 351.465261 -142.956555 
L 351.098693 -143.043818 
L 350.468036 -143.115233 
L 349.938949 -143.16846 
L 349.352947 -143.223887 
L 348.809617 -143.248214 
L 348.168258 -143.270979 
L 347.589511 -143.301226 
L 347.195084 -143.331013 
L 346.542979 -143.36819 
L 345.935019 -143.411012 
L 345.426541 -143.451081 
L 344.985707 -143.51634 
L 344.436169 -143.539223 
L 343.753728 -143.602406 
L 343.139051 -143.65646 
L 342.644395 -143.761747 
L 342.222942 -143.825145 
L 341.646587 -144.013009 
L 341.013833 -144.109732 
L 340.358819 -144.2553 
L 339.707466 -144.260603 
L 339.201049 -144.320995 
L 338.607489 -144.341673 
L 338.040247 -144.420651 
L 337.547549 -144.484925 
L 337.026954 -144.605831 
L 336.387046 -144.646045 
L 335.9168 -144.633509 
L 335.455451 -144.47529 
L 334.708884 -144.523297 
L 334.269971 -144.577012 
L 333.768701 -144.656128 
L 333.026434 -144.74692 
L 332.529142 -144.852932 
L 331.941022 -144.989146 
L 331.391414 -145.064843 
L 331.050809 -145.185513 
L 330.373267 -145.394501 
L 329.776733 -145.31658 
L 329.375967 -145.249674 
L 328.692146 -145.02812 
L 327.976765 -144.952149 
L 327.525476 -144.871749 
L 326.902876 -144.760819 
L 326.197968 -144.666818 
L 325.635796 -144.623006 
L 325.122514 -144.554651 
L 324.818244 -144.581 
L 324.404547 -144.56374 
L 323.776602 -144.605128 
L 323.127217 -144.676661 
L 322.638258 -144.756401 
L 321.992183 -144.779506 
L 321.298515 -144.784973 
L 320.71835 -144.770536 
L 320.122441 -144.810531 
L 319.740728 -144.845762 
L 319.103615 -144.852275 
L 318.364804 -144.940584 
L 317.828603 -144.987843 
L 317.393921 -145.318621 
L 316.915499 -145.08473 
L 316.227488 -145.078217 
L 315.617408 -145.114224 
L 315.294208 -145.256341 
L 314.762924 -145.318565 
L 314.020471 -145.327541 
L 313.395119 -145.349247 
L 312.840139 -145.343689 
L 312.31735 -145.32969 
L 311.822678 -145.285465 
L 311.302763 -145.305934 
L 310.819527 -145.340622 
L 310.191111 -145.435221 
L 309.590727 -145.535377 
L 309.139343 -145.492664 
L 308.465388 -145.46963 
L 307.866397 -145.466647 
L 307.326746 -145.418497 
L 306.937698 -145.38903 
L 306.290169 -145.349323 
L 305.653596 -145.285738 
L 305.145888 -145.294564 
L 304.681827 -145.238911 
L 304.206508 -145.210608 
L 303.449059 -145.181482 
L 302.786158 -145.126624 
L 302.357543 -145.322236 
L 301.816658 -145.197468 
L 301.23383 -144.992103 
L 300.733863 -144.910977 
L 300.037884 -144.823342 
L 299.55607 -144.742135 
L 299.018494 -144.695855 
L 298.341975 -144.581062 
L 297.72762 -144.502537 
L 297.208872 -144.357271 
L 296.866553 -144.26752 
L 296.347659 -144.253763 
L 295.589947 -144.301645 
L 295.012255 -144.325501 
L 294.452516 -144.335333 
L 293.956717 -144.310762 
L 293.5776 -144.244484 
L 293.005759 -144.108443 
L 292.352728 -144.223577 
L 291.877192 -144.260241 
L 291.382739 -144.208101 
L 290.662341 -144.126649 
L 290.123811 -144.090054 
L 289.618153 -144.000902 
L 289.008299 -143.838243 
L 288.518643 -143.765504 
L 287.935969 -143.634128 
L 287.294955 -143.469839 
L 286.890585 -143.156135 
L 286.482005 -142.733016 
L 285.77265 -142.445086 
L 284.985177 -142.08269 
L 284.455853 -141.798081 
L 284.034616 -141.560946 
L 283.541412 -141.346042 
L 283.060514 -140.994497 
L 282.462277 -140.935475 
L 281.868842 -140.724622 
L 281.414358 -140.55936 
L 280.750294 -140.39206 
L 280.009453 -140.189706 
L 279.441596 -139.933901 
L 279.081092 -139.795138 
L 278.655753 -139.705517 
L 278.016715 -139.540808 
L 277.438278 -139.466673 
L 276.815894 -139.435188 
L 276.15886 -139.358392 
L 275.56709 -139.278196 
L 275.051926 -139.20484 
L 274.437599 -139.200522 
L 273.954647 -139.134088 
L 273.481 -139.091132 
L 272.940471 -139.033547 
L 272.530074 -138.785143 
L 271.783022 -138.742539 
L 271.15758 -138.927457 
L 270.669451 -138.913444 
L 269.988681 -138.840541 
L 269.355584 -138.770309 
L 268.737135 -138.692754 
L 268.243678 -138.5832 
L 267.720312 -138.489019 
L 267.205265 -138.361899 
L 266.704934 -138.184984 
L 266.014404 -138.021251 
L 265.523494 -137.94708 
L 264.952986 -137.870775 
L 264.427414 -137.806981 
L 263.899151 -137.767675 
L 263.242677 -137.66016 
L 262.889949 -137.537575 
L 262.474207 -137.392157 
L 261.850747 -137.282632 
L 261.079259 -137.219202 
L 260.358951 -137.129648 
L 259.954339 -137.032991 
L 259.62095 -136.941818 
L 259.03124 -136.852851 
L 258.229495 -136.826454 
L 257.720894 -136.650573 
L 257.248436 -136.517202 
L 256.585688 -136.448559 
L 256.112448 -136.424023 
L 255.648515 -136.412338 
L 254.934162 -136.339714 
L 254.220259 -136.292286 
L 253.642692 -136.325015 
L 253.294097 -136.236018 
L 252.941343 -136.243204 
L 252.348105 -136.129028 
L 251.693657 -136.11186 
L 250.989101 -136.063862 
L 250.34447 -136.07905 
L 249.819526 -136.077608 
L 249.504739 -136.070376 
L 249.090465 -136.073799 
L 248.487121 -136.128769 
L 247.677323 -136.154569 
L 246.92026 -136.21402 
L 246.579996 -136.223382 
L 245.995081 -136.318037 
L 245.401666 -136.361501 
L 244.918718 -136.390552 
L 244.428273 -136.438159 
L 243.808401 -136.505022 
L 243.044153 -136.574399 
L 242.733982 -136.615545 
L 242.363208 -136.675151 
L 241.726104 -136.693727 
L 241.180799 -136.693721 
L 240.619176 -136.722075 
L 240.022011 -136.942592 
L 239.31995 -137.125992 
L 238.794535 -137.253775 
L 238.324426 -137.386821 
L 237.738317 -137.546814 
L 237.294067 -137.59516 
L 236.787664 -137.56972 
L 236.121547 -137.604458 
L 235.538763 -137.607372 
L 235.029922 -137.654958 
L 234.275859 -137.606737 
L 233.708572 -137.575896 
L 233.200998 -137.542317 
L 232.536214 -137.497334 
L 232.110089 -137.498956 
L 231.727407 -137.503009 
L 231.071664 -137.519329 
L 230.303369 -137.672082 
L 229.711185 -137.60696 
L 229.261905 -137.660658 
L 228.689289 -137.738838 
L 228.1461 -137.970002 
L 227.695119 -138.126995 
L 227.204015 -138.312319 
L 226.661016 -138.351339 
L 226.132479 -138.599814 
L 225.49829 -138.80551 
L 224.816679 -138.812024 
L 224.390498 -138.90169 
L 223.713411 -139.15369 
L 223.062057 -139.460357 
L 222.541109 -139.597509 
L 222.064953 -139.874453 
L 221.564893 -140.013164 
L 220.885584 -140.05175 
L 220.442914 -140.122711 
L 219.960222 -139.835304 
L 219.271276 -139.928759 
L 218.580899 -140.010564 
L 218.13923 -140.002933 
L 217.641102 -139.816221 
L 216.961732 -139.766761 
L 216.294318 -139.682268 
L 215.856637 -139.684528 
L 215.434598 -139.712571 
L 214.903484 -139.681045 
L 214.311909 -139.712301 
L 213.669503 -139.725373 
L 213.05294 -139.722989 
L 212.481681 -139.767735 
L 212.050282 -139.866108 
L 211.402944 -139.969656 
L 210.929411 -140.058199 
L 210.340627 -140.137 
L 209.592304 -140.204577 
L 209.171991 -140.27957 
L 208.557401 -140.318983 
L 207.906826 -140.369838 
L 207.33709 -140.434535 
L 206.96368 -140.543629 
L 206.5929 -140.627664 
L 205.84346 -140.642346 
L 205.223489 -140.686091 
L 204.856549 -140.753991 
L 204.393042 -140.777699 
L 203.620583 -140.858104 
L 202.963317 -141.02747 
L 202.436567 -141.264619 
L 201.820075 -141.435633 
L 201.243262 -141.639894 
L 200.741344 -141.889717 
L 200.262128 -142.148048 
L 199.742738 -142.316681 
L 199.153137 -142.494048 
L 198.461623 -142.701728 
L 197.891854 -142.827849 
L 197.409145 -142.910895 
L 196.834824 -142.900628 
L 196.242505 -142.844687 
L 195.631531 -142.791833 
L 195.104075 -142.855076 
L 194.732799 -142.844002 
L 194.29151 -142.791705 
L 193.679632 -142.706677 
L 193.166129 -142.537278 
L 192.611478 -142.335141 
L 191.974218 -142.06324 
L 191.433559 -141.784901 
L 190.779569 -141.586194 
L 190.199955 -141.165225 
L 189.683212 -140.718608 
L 189.059802 -140.491046 
L 188.598548 -140.332115 
L 188.214012 -140.20747 
L 187.565121 -140.064455 
L 186.998146 -139.982065 
L 186.388692 -139.884347 
L 185.602236 -139.729699 
L 185.031484 -139.591202 
L 184.715323 -139.416702 
L 184.350166 -139.374586 
L 183.765571 -139.275021 
L 183.037048 -139.252248 
L 182.530936 -139.284697 
L 181.937003 -139.22176 
L 181.212836 -139.236429 
L 180.853016 -139.261945 
L 180.462033 -139.337506 
L 179.908759 -139.295197 
L 179.21869 -139.31174 
L 178.434714 -139.363835 
L 177.805672 -139.385048 
L 177.485162 -139.393209 
L 177.067223 -139.434394 
L 176.460782 -139.40607 
L 175.897832 -139.362472 
L 175.266018 -139.253342 
L 174.683887 -139.210286 
L 174.090818 -139.20425 
L 173.595766 -139.156217 
L 173.110074 -139.008568 
L 172.432497 -139.025885 
L 171.73486 -138.995338 
L 171.296319 -138.988293 
L 170.950583 -138.908019 
L 170.223996 -138.788861 
L 169.575684 -138.729304 
L 169.083141 -138.66489 
L 168.416111 -138.588549 
L 167.845129 -138.487521 
L 167.46921 -138.381543 
L 166.860519 -138.34457 
L 166.083684 -138.358255 
L 165.581949 -138.52143 
L 165.021548 -138.536598 
L 164.431228 -138.677852 
L 164.059611 -138.709729 
L 163.488162 -138.6999 
L 162.72298 -138.720378 
L 162.309956 -138.69567 
L 161.910293 -138.761053 
L 161.30529 -138.831475 
L 160.802848 -138.898385 
L 160.067976 -138.966066 
L 159.415023 -139.11258 
L 159.032341 -139.146366 
L 158.443032 -139.21136 
L 157.768226 -139.2493 
L 157.386638 -139.299314 
L 156.869178 -139.333391 
L 156.161295 -139.243817 
L 155.692896 -139.224578 
L 155.075436 -139.122064 
L 154.508542 -139.107554 
L 153.899954 -139.040359 
L 153.390173 -138.973396 
L 152.895254 -138.818964 
L 152.335788 -138.744145 
L 151.902095 -138.61022 
L 151.339685 -138.51895 
L 150.604502 -138.46428 
L 149.861138 -138.352052 
L 149.486036 -138.269637 
L 149.118186 -138.139056 
L 148.379691 -138.103511 
L 147.862581 -138.103072 
L 147.356856 -138.096379 
L 146.622895 -138.087352 
L 146.165728 -138.056769 
L 145.55386 -138.022998 
L 145.064873 -138.00647 
L 144.609213 -138.041309 
L 143.853335 -138.110324 
L 143.334636 -138.201014 
L 142.745282 -138.261388 
L 142.117906 -138.290249 
L 141.611028 -138.324931 
L 140.941486 -138.333546 
L 140.51696 -138.395955 
L 140.114881 -138.382242 
L 139.384063 -138.398216 
L 138.670336 -138.443864 
L 138.29674 -138.431645 
L 137.924858 -138.396126 
L 137.36337 -138.406105 
L 136.872062 -138.366438 
L 136.285913 -138.394716 
L 135.521805 -138.404477 
L 134.834954 -138.423984 
L 134.327225 -138.453519 
L 133.817181 -138.426481 
L 133.275405 -138.401192 
L 132.632726 -138.40658 
L 132.213223 -138.466005 
L 131.737195 -138.545563 
L 131.099237 -138.563704 
L 130.713855 -138.580841 
L 130.051215 -138.542029 
L 129.250099 -138.552603 
L 128.620093 -138.471606 
L 128.128776 -138.443564 
L 127.659299 -138.455056 
L 127.218905 -138.52156 
L 126.785615 -138.655725 
L 126.177475 -138.641169 
L 125.524972 -138.659469 
L 125.0716 -138.685334 
L 124.43441 -138.66076 
L 123.671047 -138.47165 
L 123.240505 -138.702774 
L 122.765116 -138.667723 
L 122.311709 -138.744862 
L 121.863438 -138.821831 
L 121.243578 -138.924507 
L 120.645113 -138.883032 
L 119.986562 -138.897919 
L 119.450075 -138.915984 
L 118.996963 -139.085537 
L 118.255499 -139.388497 
L 117.729266 -139.440511 
L 117.358126 -139.389999 
L 116.558873 -139.280933 
L 115.913002 -139.067001 
L 115.622191 -139.069094 
L 114.994985 -139.100663 
L 114.410839 -139.165418 
L 113.89993 -139.277125 
L 113.162389 -139.381135 
L 112.620998 -139.490947 
L 112.183575 -139.73516 
L 111.758079 -139.771908 
L 111.2346 -139.813302 
L 110.462741 -139.822807 
L 109.933246 -139.789682 
L 109.536514 -139.798231 
L 108.819885 -139.828163 
L 108.264165 -140.034696 
L 107.707365 -139.974871 
L 107.007527 -139.827148 
L 106.553089 -139.769531 
L 106.186508 -139.710125 
L 105.560485 -139.619822 
L 104.766473 -139.667708 
L 104.108269 -139.527775 
L 103.752713 -139.413355 
L 103.192434 -139.18646 
L 102.647258 -138.894686 
L 102.145809 -138.689743 
L 101.39731 -138.320143 
L 100.940125 -138.050223 
L 100.483895 -137.740394 
L 99.902804 -137.561928 
L 99.249133 -137.178457 
L 98.625741 -136.932395 
L 98.089448 -136.562277 
L 97.60836 -136.435256 
L 97.001039 -136.251209 
L 96.279727 -136.10187 
L 95.848893 -136.021578 
L 95.509527 -135.909879 
L 94.791006 -135.686861 
L 94.030083 -135.55262 
L 93.486605 -135.315754 
L 92.934561 -134.961906 
L 92.367275 -134.599768 
L 91.949045 -134.330694 
L 91.396084 -134.199068 
L 90.772221 -133.985332 
L 90.336328 -133.704532 
L 89.791081 -133.385045 
L 89.254487 -133.119709 
L 88.59468 -132.662927 
L 88.145502 -132.230068 
L 87.711104 -131.959472 
L 87.009261 -131.707231 
L 86.31849 -131.455066 
L 85.823541 -131.352385 
L 85.385377 -131.359135 
L 84.699172 -131.288667 
L 84.050054 -131.10987 
L 83.536518 -130.898892 
L 83.117474 -130.843094 
L 82.594015 -130.84905 
L 82.072449 -130.72612 
L 81.603358 -130.734163 
L 81.003778 -130.787719 
L 80.369992 -130.857901 
L 79.917803 -131.03448 
L 79.282693 -131.182405 
L 78.459564 -131.390752 
L 78.065114 -131.542486 
L 77.611455 -131.666257 
L 77.024006 -131.70609 
L 76.497248 -131.790748 
L 75.80493 -131.928577 
L 75.238498 -131.981136 
L 74.809525 -132.179125 
L 74.113768 -132.451858 
L 73.572181 -132.636322 
L 73.269128 -132.778255 
L 72.591382 -132.885991 
L 71.957523 -133.15488 
L 71.341505 -133.508923 
L 70.834015 -133.93908 
L 70.386649 -134.366143 
L 69.778706 -134.78891 
L 69.254909 -135.125372 
L 68.630412 -134.979384 
L 67.906969 -134.59702 
L 67.488214 -134.426584 
L 67.073543 -134.387521 
L 66.45976 -134.361334 
L 65.956446 -134.392786 
L 65.355415 -134.545928 
L 64.784479 -134.679642 
L 64.170119 -134.92802 
L 63.558507 -135.078333 
L 62.966093 -135.099164 
L 62.301031 -134.884812 
L 61.940204 -134.47689 
L 61.481509 -134.420071 
L 60.930685 -134.115765 
L 60.477932 -133.889241 
L 59.814463 -133.367104 
L 59.259412 -132.736091 
L 58.798795 -131.6186 
L 58.168725 -131.184363 
L 57.486582 -130.521352 
L 56.929048 -128.944942 
L 56.357059 -128.27954 
L 55.803804 -127.744529 
L 55.159727 -127.554915 
L 54.657776 -127.9384 
z
" style="stroke: #808080; stroke-opacity: 0.5; stroke-width: 0.5"/>
    </defs>
    <g clip-path="url(#p1e4e6b2ef6)">
     <use xlink:href="#m2f1af70c9f" x="0" y="283.57" style="fill: #808080; fill-opacity: 0.5; stroke: #808080; stroke-opacity: 0.5; stroke-width: 0.5"/>
    </g>
   </g>
   <g id="line2d_23">
    <path d="M 54.657776 159.585121 
L 55.159727 159.901513 
L 55.803804 159.40385 
L 56.929048 157.89582 
L 57.486582 156.510999 
L 58.168725 155.696298 
L 58.798795 155.256217 
L 59.259412 154.328397 
L 59.814463 153.764718 
L 60.930685 153.123962 
L 61.481509 152.851206 
L 61.940204 152.765844 
L 62.301031 152.421535 
L 63.558507 152.207051 
L 64.170119 152.263812 
L 64.784479 152.493783 
L 67.488214 152.382742 
L 68.630412 151.945404 
L 69.254909 151.845273 
L 70.386649 152.260263 
L 71.341505 152.840146 
L 72.591382 153.237472 
L 74.113768 153.482893 
L 77.024006 154.282288 
L 78.459564 154.566587 
L 81.003778 155.111313 
L 82.072449 155.083181 
L 87.711104 153.587966 
L 89.791081 152.197955 
L 90.772221 151.667014 
L 92.367275 151.170257 
L 94.030083 150.311988 
L 95.509527 149.979074 
L 96.279727 149.759638 
L 98.089448 149.307909 
L 98.625741 148.992822 
L 100.483895 148.327658 
L 101.39731 147.882611 
L 104.108269 146.742318 
L 104.766473 146.607999 
L 106.186508 146.517884 
L 108.264165 146.220276 
L 108.819885 146.318248 
L 111.758079 146.344943 
L 112.620998 146.629362 
L 113.162389 146.578264 
L 114.994985 146.693379 
L 115.913002 146.650137 
L 117.729266 146.307501 
L 118.996963 146.417257 
L 119.986562 146.471143 
L 122.311709 146.455193 
L 123.671047 146.524828 
L 125.524972 146.362398 
L 127.218905 146.411925 
L 128.128776 146.463307 
L 131.099237 146.309921 
L 132.632726 146.44285 
L 133.817181 146.433422 
L 140.114881 146.458316 
L 143.334636 146.708841 
L 144.609213 146.924154 
L 146.165728 146.988188 
L 147.862581 146.915265 
L 151.902095 146.178534 
L 153.899954 145.697246 
L 155.075436 145.539408 
L 158.443032 145.434446 
L 166.083684 146.142875 
L 167.46921 146.088087 
L 168.416111 145.833093 
L 171.296319 145.472641 
L 173.595766 145.348778 
L 177.805672 145.130813 
L 181.937003 145.474473 
L 183.765571 145.250249 
L 186.388692 144.809874 
L 188.214012 144.483309 
L 190.199955 143.79967 
L 190.779569 143.515855 
L 191.974218 143.189559 
L 194.29151 142.639309 
L 195.104075 142.576811 
L 195.631531 142.676649 
L 197.891854 142.685379 
L 200.741344 143.403004 
L 201.820075 143.730832 
L 204.856549 144.30957 
L 205.84346 144.409136 
L 206.96368 144.510349 
L 207.906826 144.672728 
L 211.402944 145.067761 
L 213.05294 145.31328 
L 218.13923 145.303713 
L 218.580899 145.236517 
L 222.064953 145.649324 
L 224.390498 146.394381 
L 226.132479 146.728817 
L 226.661016 146.978907 
L 227.204015 147.097733 
L 228.1461 147.586631 
L 229.261905 147.908341 
L 230.303369 148.176743 
L 233.200998 147.943728 
L 236.121547 147.859314 
L 237.738317 147.956288 
L 240.022011 148.642333 
L 240.619176 148.969356 
L 244.918718 149.90703 
L 246.579996 150.046023 
L 247.677323 150.168206 
L 250.989101 150.506212 
L 252.941343 150.310297 
L 253.642692 149.955977 
L 254.934162 149.763455 
L 255.648515 149.778267 
L 259.954339 148.69118 
L 260.358951 148.508788 
L 261.850747 148.236293 
L 262.889949 147.862907 
L 263.242677 147.661284 
L 269.355584 146.195784 
L 271.15758 146.045699 
L 271.783022 146.10136 
L 272.940471 145.904334 
L 274.437599 145.645985 
L 276.15886 145.412938 
L 277.438278 145.233794 
L 279.081092 144.896054 
L 280.750294 144.36199 
L 281.868842 144.056399 
L 283.541412 143.497492 
L 284.985177 142.71716 
L 286.482005 142.178415 
L 286.890585 141.790574 
L 287.294955 141.575443 
L 290.662341 141.037031 
L 297.72762 140.588193 
L 301.816658 139.951085 
L 302.357543 139.83674 
L 302.786158 139.903203 
L 308.465388 139.588696 
L 311.302763 139.701038 
L 311.822678 139.764226 
L 312.31735 139.62568 
L 314.762924 139.589746 
L 317.393921 139.670398 
L 317.828603 139.813663 
L 320.71835 140.025822 
L 322.638258 140.090946 
L 326.197968 140.270256 
L 328.692146 140.043776 
L 330.373267 139.805943 
L 333.026434 140.253159 
L 334.708884 140.411183 
L 335.9168 140.37893 
L 338.607489 140.624367 
L 340.358819 140.800166 
L 343.139051 141.476819 
L 345.935019 141.658683 
L 352.873774 142.043075 
L 355.987255 142.577966 
L 358.303869 142.976803 
L 365.128601 143.389687 
L 365.785637 143.444927 
L 368.09553 143.563593 
L 369.24444 143.635697 
L 370.009665 143.754068 
L 370.86588 144.065869 
L 372.098141 144.332561 
L 372.439879 144.440659 
L 376.11043 144.727404 
L 377.933154 144.883391 
L 380.01535 145.087736 
L 381.47455 145.206419 
L 383.809892 145.534343 
L 387.773978 145.436105 
L 388.951831 145.218795 
L 390.161905 144.870888 
L 390.535014 144.601946 
L 391.53778 144.614888 
L 393.280325 144.345538 
L 394.356368 144.11551 
L 396.343728 143.853101 
L 399.512906 143.446876 
L 406.84327 142.914759 
L 410.026456 143.049923 
L 413.541427 143.177155 
L 414.630029 143.196324 
L 415.534056 143.321925 
L 418.276123 143.305658 
L 422.025394 142.980347 
L 427.292935 144.051926 
L 429.58041 144.190979 
L 431.216434 144.238393 
L 435.283895 143.998827 
L 438.00873 143.786769 
L 440.410836 144.114263 
L 441.812975 144.388318 
L 442.461286 144.389138 
L 443.541488 144.563282 
L 446.461403 144.602564 
L 453.640691 144.881945 
L 456.056256 144.86246 
L 457.640741 144.850745 
L 460.45002 144.520641 
L 461.406692 144.307715 
L 462.779685 144.083558 
L 463.630133 143.786794 
L 464.786602 143.529279 
L 465.675136 143.239718 
L 467.078781 142.952939 
L 469.793379 142.363568 
L 474.664006 141.098213 
L 476.043466 140.769251 
L 476.436932 140.61608 
L 477.696465 140.542494 
L 479.783541 140.237228 
L 482.234865 140.04723 
L 486.60266 139.643079 
L 489.314782 139.447611 
L 494.948166 138.183091 
L 497.048866 138.017739 
L 504.4594 138.829176 
L 506.557336 139.22952 
L 507.641626 139.580544 
L 509.931922 140.490315 
L 513.257134 141.591672 
L 514.328177 141.886376 
L 514.869144 142.113986 
L 516.267561 142.420609 
L 516.753596 142.682121 
L 517.833363 143.037152 
L 520.005884 143.928452 
L 521.14683 144.223873 
L 521.453003 144.494967 
L 524.121345 144.814203 
L 526.62155 144.928497 
L 527.81668 145.09292 
L 530.447022 145.102938 
L 532.927565 144.975145 
L 534.609803 144.744847 
L 537.35649 144.516026 
L 539.189 144.535043 
L 542.997555 144.150088 
L 544.22038 143.91584 
L 545.4683 143.781767 
L 548.318318 143.425487 
L 549.730282 143.185738 
L 551.114855 142.674938 
L 554.071533 142.081458 
L 554.591781 141.852587 
L 555.984549 141.75196 
L 556.83814 141.461229 
L 557.849555 141.319195 
L 559.105372 141.114909 
L 560.648829 140.695027 
L 562.031049 140.558618 
L 563.080421 140.233655 
L 566.229848 139.57553 
L 568.585773 138.691682 
L 568.98601 138.465221 
L 570.34717 138.382082 
L 571.233603 138.422494 
L 572.496368 138.366053 
L 573.001928 138.22037 
L 575.825798 137.863685 
L 577.302589 137.673809 
L 579.088612 137.618806 
L 581.3636 138.100953 
L 583.090508 138.276915 
L 584.358201 138.372135 
L 585.781703 138.686466 
L 591.577913 140.04343 
L 591.888067 140.253355 
L 593.097259 140.23319 
L 594.19945 140.027057 
L 595.930271 140.21922 
L 598.283921 140.785859 
L 600.577511 141.344543 
L 601.436899 141.499265 
L 603.113411 141.356608 
L 603.838584 141.155119 
L 604.244094 140.92675 
L 605.89066 140.442868 
L 606.382813 140.10962 
L 607.086293 139.798082 
L 607.784797 139.319201 
L 608.729264 139.395041 
L 609.358641 139.705683 
L 609.736347 139.57828 
L 610.962823 139.713888 
L 611.685143 140.055603 
L 611.945327 141.24407 
L 611.945327 141.24407 
" clip-path="url(#p1e4e6b2ef6)" style="fill: none; stroke: #e24a33; stroke-width: 1.5; stroke-linecap: square"/>
   </g>
   <g id="patch_3">
    <path d="M 54.096563 244.078125 
L 54.096563 22.318125 
" style="fill: none; stroke: #ffffff; stroke-linejoin: miter; stroke-linecap: square"/>
   </g>
   <g id="patch_4">
    <path d="M 612.096563 244.078125 
L 612.096563 22.318125 
" style="fill: none; stroke: #ffffff; stroke-linejoin: miter; stroke-linecap: square"/>
   </g>
   <g id="patch_5">
    <path d="M 54.096563 244.078125 
L 612.096563 244.078125 
" style="fill: none; stroke: #ffffff; stroke-linejoin: miter; stroke-linecap: square"/>
   </g>
   <g id="patch_6">
    <path d="M 54.096563 22.318125 
L 612.096563 22.318125 
" style="fill: none; stroke: #ffffff; stroke-linejoin: miter; stroke-linecap: square"/>
   </g>
   <g id="text_14">
    <!-- help others -->
    <g transform="translate(299.109375 16.318125) scale(0.12 -0.12)">
     <defs>
      <path id="DejaVuSans-68" d="M 3513 2113 
L 3513 0 
L 2938 0 
L 2938 2094 
Q 2938 2591 2744 2837 
Q 2550 3084 2163 3084 
Q 1697 3084 1428 2787 
Q 1159 2491 1159 1978 
L 1159 0 
L 581 0 
L 581 4863 
L 1159 4863 
L 1159 2956 
Q 1366 3272 1645 3428 
Q 1925 3584 2291 3584 
Q 2894 3584 3203 3211 
Q 3513 2838 3513 2113 
z
" transform="scale(0.015625)"/>
      <path id="DejaVuSans-6c" d="M 603 4863 
L 1178 4863 
L 1178 0 
L 603 0 
L 603 4863 
z
" transform="scale(0.015625)"/>
      <path id="DejaVuSans-20" transform="scale(0.015625)"/>
     </defs>
     <use xlink:href="#DejaVuSans-68"/>
     <use xlink:href="#DejaVuSans-65" x="63.378906"/>
     <use xlink:href="#DejaVuSans-6c" x="124.902344"/>
     <use xlink:href="#DejaVuSans-70" x="152.685547"/>
     <use xlink:href="#DejaVuSans-20" x="216.162109"/>
     <use xlink:href="#DejaVuSans-6f" x="247.949219"/>
     <use xlink:href="#DejaVuSans-74" x="309.130859"/>
     <use xlink:href="#DejaVuSans-68" x="348.339844"/>
     <use xlink:href="#DejaVuSans-65" x="411.71875"/>
     <use xlink:href="#DejaVuSans-72" x="473.242188"/>
     <use xlink:href="#DejaVuSans-73" x="514.355469"/>
    </g>
   </g>
  </g>
 </g>
 <defs>
  <clipPath id="p1e4e6b2ef6">
   <rect x="54.096563" y="22.318125" width="558" height="221.76"/>
  </clipPath>
 </defs>
</svg>
