<?xml version="1.0" encoding="utf-8" standalone="no"?>
<!DOCTYPE svg PUBLIC "-//W3C//DTD SVG 1.1//EN"
  "http://www.w3.org/Graphics/SVG/1.1/DTD/svg11.dtd">
<svg xmlns:xlink="http://www.w3.org/1999/xlink" width="615.735937pt" height="276.54pt" viewBox="0 0 615.735937 276.54" xmlns="http://www.w3.org/2000/svg" version="1.1">
 <metadata>
  <rdf:RDF xmlns:dc="http://purl.org/dc/elements/1.1/" xmlns:cc="http://creativecommons.org/ns#" xmlns:rdf="http://www.w3.org/1999/02/22-rdf-syntax-ns#">
   <cc:Work>
    <dc:type rdf:resource="http://purl.org/dc/dcmitype/StillImage"/>
    <dc:date>2025-05-12T17:00:17.895006</dc:date>
    <dc:format>image/svg+xml</dc:format>
    <dc:creator>
     <cc:Agent>
      <dc:title>Matplotlib v3.10.0, https://matplotlib.org/</dc:title>
     </cc:Agent>
    </dc:creator>
   </cc:Work>
  </rdf:RDF>
 </metadata>
 <defs>
  <style type="text/css">*{stroke-linejoin: round; stroke-linecap: butt}</style>
 </defs>
 <g id="figure_1">
  <g id="patch_1">
   <path d="M -0 276.54 
L 615.735937 276.54 
L 615.735937 0 
L -0 0 
z
" style="fill: #ffffff"/>
  </g>
  <g id="axes_1">
   <g id="patch_2">
    <path d="M 43.585938 243.549375 
L 601.585938 243.549375 
L 601.585938 21.789375 
L 43.585938 21.789375 
z
" style="fill: #ffffff"/>
   </g>
   <g id="matplotlib.axis_1">
    <g id="xtick_1">
     <g id="line2d_1">
      <path d="M 43.585938 243.549375 
L 43.585938 21.789375 
" clip-path="url(#p1f16e8e87d)" style="fill: none; stroke: #cccccc; stroke-width: 0.8; stroke-linecap: round"/>
     </g>
     <g id="line2d_2"/>
     <g id="text_1">
      <!-- 0.0 -->
      <g style="fill: #262626" transform="translate(36.635937 254.207188) scale(0.1 -0.1)">
       <defs>
        <path id="ArialMT-30" d="M 266 2259 
Q 266 3072 433 3567 
Q 600 4063 929 4331 
Q 1259 4600 1759 4600 
Q 2128 4600 2406 4451 
Q 2684 4303 2865 4023 
Q 3047 3744 3150 3342 
Q 3253 2941 3253 2259 
Q 3253 1453 3087 958 
Q 2922 463 2592 192 
Q 2263 -78 1759 -78 
Q 1097 -78 719 397 
Q 266 969 266 2259 
z
M 844 2259 
Q 844 1131 1108 757 
Q 1372 384 1759 384 
Q 2147 384 2411 759 
Q 2675 1134 2675 2259 
Q 2675 3391 2411 3762 
Q 2147 4134 1753 4134 
Q 1366 4134 1134 3806 
Q 844 3388 844 2259 
z
" transform="scale(0.015625)"/>
        <path id="ArialMT-2e" d="M 581 0 
L 581 641 
L 1222 641 
L 1222 0 
L 581 0 
z
" transform="scale(0.015625)"/>
       </defs>
       <use xlink:href="#ArialMT-30"/>
       <use xlink:href="#ArialMT-2e" transform="translate(55.615234 0)"/>
       <use xlink:href="#ArialMT-30" transform="translate(83.398438 0)"/>
      </g>
     </g>
    </g>
    <g id="xtick_2">
     <g id="line2d_3">
      <path d="M 155.185938 243.549375 
L 155.185938 21.789375 
" clip-path="url(#p1f16e8e87d)" style="fill: none; stroke: #cccccc; stroke-width: 0.8; stroke-linecap: round"/>
     </g>
     <g id="line2d_4"/>
     <g id="text_2">
      <!-- 0.2 -->
      <g style="fill: #262626" transform="translate(148.235938 254.207188) scale(0.1 -0.1)">
       <defs>
        <path id="ArialMT-32" d="M 3222 541 
L 3222 0 
L 194 0 
Q 188 203 259 391 
Q 375 700 629 1000 
Q 884 1300 1366 1694 
Q 2113 2306 2375 2664 
Q 2638 3022 2638 3341 
Q 2638 3675 2398 3904 
Q 2159 4134 1775 4134 
Q 1369 4134 1125 3890 
Q 881 3647 878 3216 
L 300 3275 
Q 359 3922 746 4261 
Q 1134 4600 1788 4600 
Q 2447 4600 2831 4234 
Q 3216 3869 3216 3328 
Q 3216 3053 3103 2787 
Q 2991 2522 2730 2228 
Q 2469 1934 1863 1422 
Q 1356 997 1212 845 
Q 1069 694 975 541 
L 3222 541 
z
" transform="scale(0.015625)"/>
       </defs>
       <use xlink:href="#ArialMT-30"/>
       <use xlink:href="#ArialMT-2e" transform="translate(55.615234 0)"/>
       <use xlink:href="#ArialMT-32" transform="translate(83.398438 0)"/>
      </g>
     </g>
    </g>
    <g id="xtick_3">
     <g id="line2d_5">
      <path d="M 266.785938 243.549375 
L 266.785938 21.789375 
" clip-path="url(#p1f16e8e87d)" style="fill: none; stroke: #cccccc; stroke-width: 0.8; stroke-linecap: round"/>
     </g>
     <g id="line2d_6"/>
     <g id="text_3">
      <!-- 0.4 -->
      <g style="fill: #262626" transform="translate(259.835938 254.207188) scale(0.1 -0.1)">
       <defs>
        <path id="ArialMT-34" d="M 2069 0 
L 2069 1097 
L 81 1097 
L 81 1613 
L 2172 4581 
L 2631 4581 
L 2631 1613 
L 3250 1613 
L 3250 1097 
L 2631 1097 
L 2631 0 
L 2069 0 
z
M 2069 1613 
L 2069 3678 
L 634 1613 
L 2069 1613 
z
" transform="scale(0.015625)"/>
       </defs>
       <use xlink:href="#ArialMT-30"/>
       <use xlink:href="#ArialMT-2e" transform="translate(55.615234 0)"/>
       <use xlink:href="#ArialMT-34" transform="translate(83.398438 0)"/>
      </g>
     </g>
    </g>
    <g id="xtick_4">
     <g id="line2d_7">
      <path d="M 378.385938 243.549375 
L 378.385938 21.789375 
" clip-path="url(#p1f16e8e87d)" style="fill: none; stroke: #cccccc; stroke-width: 0.8; stroke-linecap: round"/>
     </g>
     <g id="line2d_8"/>
     <g id="text_4">
      <!-- 0.6 -->
      <g style="fill: #262626" transform="translate(371.435938 254.207188) scale(0.1 -0.1)">
       <defs>
        <path id="ArialMT-36" d="M 3184 3459 
L 2625 3416 
Q 2550 3747 2413 3897 
Q 2184 4138 1850 4138 
Q 1581 4138 1378 3988 
Q 1113 3794 959 3422 
Q 806 3050 800 2363 
Q 1003 2672 1297 2822 
Q 1591 2972 1913 2972 
Q 2475 2972 2870 2558 
Q 3266 2144 3266 1488 
Q 3266 1056 3080 686 
Q 2894 316 2569 119 
Q 2244 -78 1831 -78 
Q 1128 -78 684 439 
Q 241 956 241 2144 
Q 241 3472 731 4075 
Q 1159 4600 1884 4600 
Q 2425 4600 2770 4297 
Q 3116 3994 3184 3459 
z
M 888 1484 
Q 888 1194 1011 928 
Q 1134 663 1356 523 
Q 1578 384 1822 384 
Q 2178 384 2434 671 
Q 2691 959 2691 1453 
Q 2691 1928 2437 2201 
Q 2184 2475 1800 2475 
Q 1419 2475 1153 2201 
Q 888 1928 888 1484 
z
" transform="scale(0.015625)"/>
       </defs>
       <use xlink:href="#ArialMT-30"/>
       <use xlink:href="#ArialMT-2e" transform="translate(55.615234 0)"/>
       <use xlink:href="#ArialMT-36" transform="translate(83.398438 0)"/>
      </g>
     </g>
    </g>
    <g id="xtick_5">
     <g id="line2d_9">
      <path d="M 489.985938 243.549375 
L 489.985938 21.789375 
" clip-path="url(#p1f16e8e87d)" style="fill: none; stroke: #cccccc; stroke-width: 0.8; stroke-linecap: round"/>
     </g>
     <g id="line2d_10"/>
     <g id="text_5">
      <!-- 0.8 -->
      <g style="fill: #262626" transform="translate(483.035938 254.207188) scale(0.1 -0.1)">
       <defs>
        <path id="ArialMT-38" d="M 1131 2484 
Q 781 2613 612 2850 
Q 444 3088 444 3419 
Q 444 3919 803 4259 
Q 1163 4600 1759 4600 
Q 2359 4600 2725 4251 
Q 3091 3903 3091 3403 
Q 3091 3084 2923 2848 
Q 2756 2613 2416 2484 
Q 2838 2347 3058 2040 
Q 3278 1734 3278 1309 
Q 3278 722 2862 322 
Q 2447 -78 1769 -78 
Q 1091 -78 675 323 
Q 259 725 259 1325 
Q 259 1772 486 2073 
Q 713 2375 1131 2484 
z
M 1019 3438 
Q 1019 3113 1228 2906 
Q 1438 2700 1772 2700 
Q 2097 2700 2305 2904 
Q 2513 3109 2513 3406 
Q 2513 3716 2298 3927 
Q 2084 4138 1766 4138 
Q 1444 4138 1231 3931 
Q 1019 3725 1019 3438 
z
M 838 1322 
Q 838 1081 952 856 
Q 1066 631 1291 507 
Q 1516 384 1775 384 
Q 2178 384 2440 643 
Q 2703 903 2703 1303 
Q 2703 1709 2433 1975 
Q 2163 2241 1756 2241 
Q 1359 2241 1098 1978 
Q 838 1716 838 1322 
z
" transform="scale(0.015625)"/>
       </defs>
       <use xlink:href="#ArialMT-30"/>
       <use xlink:href="#ArialMT-2e" transform="translate(55.615234 0)"/>
       <use xlink:href="#ArialMT-38" transform="translate(83.398438 0)"/>
      </g>
     </g>
    </g>
    <g id="xtick_6">
     <g id="line2d_11">
      <path d="M 601.585938 243.549375 
L 601.585938 21.789375 
" clip-path="url(#p1f16e8e87d)" style="fill: none; stroke: #cccccc; stroke-width: 0.8; stroke-linecap: round"/>
     </g>
     <g id="line2d_12"/>
     <g id="text_6">
      <!-- 1.0 -->
      <g style="fill: #262626" transform="translate(594.635937 254.207188) scale(0.1 -0.1)">
       <defs>
        <path id="ArialMT-31" d="M 2384 0 
L 1822 0 
L 1822 3584 
Q 1619 3391 1289 3197 
Q 959 3003 697 2906 
L 697 3450 
Q 1169 3672 1522 3987 
Q 1875 4303 2022 4600 
L 2384 4600 
L 2384 0 
z
" transform="scale(0.015625)"/>
       </defs>
       <use xlink:href="#ArialMT-31"/>
       <use xlink:href="#ArialMT-2e" transform="translate(55.615234 0)"/>
       <use xlink:href="#ArialMT-30" transform="translate(83.398438 0)"/>
      </g>
     </g>
    </g>
    <g id="text_7">
     <!-- theta -->
     <g style="fill: #262626" transform="translate(311.466406 267.3525) scale(0.1 -0.1)">
      <defs>
       <path id="ArialMT-74" d="M 1650 503 
L 1731 6 
Q 1494 -44 1306 -44 
Q 1000 -44 831 53 
Q 663 150 594 308 
Q 525 466 525 972 
L 525 2881 
L 113 2881 
L 113 3319 
L 525 3319 
L 525 4141 
L 1084 4478 
L 1084 3319 
L 1650 3319 
L 1650 2881 
L 1084 2881 
L 1084 941 
Q 1084 700 1114 631 
Q 1144 563 1211 522 
Q 1278 481 1403 481 
Q 1497 481 1650 503 
z
" transform="scale(0.015625)"/>
       <path id="ArialMT-68" d="M 422 0 
L 422 4581 
L 984 4581 
L 984 2938 
Q 1378 3394 1978 3394 
Q 2347 3394 2619 3248 
Q 2891 3103 3008 2847 
Q 3125 2591 3125 2103 
L 3125 0 
L 2563 0 
L 2563 2103 
Q 2563 2525 2380 2717 
Q 2197 2909 1863 2909 
Q 1613 2909 1392 2779 
Q 1172 2650 1078 2428 
Q 984 2206 984 1816 
L 984 0 
L 422 0 
z
" transform="scale(0.015625)"/>
       <path id="ArialMT-65" d="M 2694 1069 
L 3275 997 
Q 3138 488 2766 206 
Q 2394 -75 1816 -75 
Q 1088 -75 661 373 
Q 234 822 234 1631 
Q 234 2469 665 2931 
Q 1097 3394 1784 3394 
Q 2450 3394 2872 2941 
Q 3294 2488 3294 1666 
Q 3294 1616 3291 1516 
L 816 1516 
Q 847 969 1125 678 
Q 1403 388 1819 388 
Q 2128 388 2347 550 
Q 2566 713 2694 1069 
z
M 847 1978 
L 2700 1978 
Q 2663 2397 2488 2606 
Q 2219 2931 1791 2931 
Q 1403 2931 1139 2672 
Q 875 2413 847 1978 
z
" transform="scale(0.015625)"/>
       <path id="ArialMT-61" d="M 2588 409 
Q 2275 144 1986 34 
Q 1697 -75 1366 -75 
Q 819 -75 525 192 
Q 231 459 231 875 
Q 231 1119 342 1320 
Q 453 1522 633 1644 
Q 813 1766 1038 1828 
Q 1203 1872 1538 1913 
Q 2219 1994 2541 2106 
Q 2544 2222 2544 2253 
Q 2544 2597 2384 2738 
Q 2169 2928 1744 2928 
Q 1347 2928 1158 2789 
Q 969 2650 878 2297 
L 328 2372 
Q 403 2725 575 2942 
Q 747 3159 1072 3276 
Q 1397 3394 1825 3394 
Q 2250 3394 2515 3294 
Q 2781 3194 2906 3042 
Q 3031 2891 3081 2659 
Q 3109 2516 3109 2141 
L 3109 1391 
Q 3109 606 3145 398 
Q 3181 191 3288 0 
L 2700 0 
Q 2613 175 2588 409 
z
M 2541 1666 
Q 2234 1541 1622 1453 
Q 1275 1403 1131 1340 
Q 988 1278 909 1158 
Q 831 1038 831 891 
Q 831 666 1001 516 
Q 1172 366 1500 366 
Q 1825 366 2078 508 
Q 2331 650 2450 897 
Q 2541 1088 2541 1459 
L 2541 1666 
z
" transform="scale(0.015625)"/>
      </defs>
      <use xlink:href="#ArialMT-74"/>
      <use xlink:href="#ArialMT-68" transform="translate(27.783203 0)"/>
      <use xlink:href="#ArialMT-65" transform="translate(83.398438 0)"/>
      <use xlink:href="#ArialMT-74" transform="translate(139.013672 0)"/>
      <use xlink:href="#ArialMT-61" transform="translate(166.796875 0)"/>
     </g>
    </g>
   </g>
   <g id="matplotlib.axis_2">
    <g id="ytick_1">
     <g id="line2d_13">
      <path d="M 43.585938 232.461375 
L 601.585938 232.461375 
" clip-path="url(#p1f16e8e87d)" style="fill: none; stroke: #cccccc; stroke-width: 0.8; stroke-linecap: round"/>
     </g>
     <g id="line2d_14"/>
     <g id="text_8">
      <!-- −0.4 -->
      <g style="fill: #262626" transform="translate(20.345312 236.040281) scale(0.1 -0.1)">
       <defs>
        <path id="ArialMT-2212" d="M 3381 1997 
L 356 1997 
L 356 2522 
L 3381 2522 
L 3381 1997 
z
" transform="scale(0.015625)"/>
       </defs>
       <use xlink:href="#ArialMT-2212"/>
       <use xlink:href="#ArialMT-30" transform="translate(58.398438 0)"/>
       <use xlink:href="#ArialMT-2e" transform="translate(114.013672 0)"/>
       <use xlink:href="#ArialMT-34" transform="translate(141.796875 0)"/>
      </g>
     </g>
    </g>
    <g id="ytick_2">
     <g id="line2d_15">
      <path d="M 43.585938 188.109375 
L 601.585938 188.109375 
" clip-path="url(#p1f16e8e87d)" style="fill: none; stroke: #cccccc; stroke-width: 0.8; stroke-linecap: round"/>
     </g>
     <g id="line2d_16"/>
     <g id="text_9">
      <!-- −0.2 -->
      <g style="fill: #262626" transform="translate(20.345312 191.688281) scale(0.1 -0.1)">
       <use xlink:href="#ArialMT-2212"/>
       <use xlink:href="#ArialMT-30" transform="translate(58.398438 0)"/>
       <use xlink:href="#ArialMT-2e" transform="translate(114.013672 0)"/>
       <use xlink:href="#ArialMT-32" transform="translate(141.796875 0)"/>
      </g>
     </g>
    </g>
    <g id="ytick_3">
     <g id="line2d_17">
      <path d="M 43.585938 143.757375 
L 601.585938 143.757375 
" clip-path="url(#p1f16e8e87d)" style="fill: none; stroke: #cccccc; stroke-width: 0.8; stroke-linecap: round"/>
     </g>
     <g id="line2d_18"/>
     <g id="text_10">
      <!-- 0.0 -->
      <g style="fill: #262626" transform="translate(26.185938 147.336281) scale(0.1 -0.1)">
       <use xlink:href="#ArialMT-30"/>
       <use xlink:href="#ArialMT-2e" transform="translate(55.615234 0)"/>
       <use xlink:href="#ArialMT-30" transform="translate(83.398438 0)"/>
      </g>
     </g>
    </g>
    <g id="ytick_4">
     <g id="line2d_19">
      <path d="M 43.585938 99.405375 
L 601.585938 99.405375 
" clip-path="url(#p1f16e8e87d)" style="fill: none; stroke: #cccccc; stroke-width: 0.8; stroke-linecap: round"/>
     </g>
     <g id="line2d_20"/>
     <g id="text_11">
      <!-- 0.2 -->
      <g style="fill: #262626" transform="translate(26.185938 102.984281) scale(0.1 -0.1)">
       <use xlink:href="#ArialMT-30"/>
       <use xlink:href="#ArialMT-2e" transform="translate(55.615234 0)"/>
       <use xlink:href="#ArialMT-32" transform="translate(83.398438 0)"/>
      </g>
     </g>
    </g>
    <g id="ytick_5">
     <g id="line2d_21">
      <path d="M 43.585938 55.053375 
L 601.585938 55.053375 
" clip-path="url(#p1f16e8e87d)" style="fill: none; stroke: #cccccc; stroke-width: 0.8; stroke-linecap: round"/>
     </g>
     <g id="line2d_22"/>
     <g id="text_12">
      <!-- 0.4 -->
      <g style="fill: #262626" transform="translate(26.185938 58.632281) scale(0.1 -0.1)">
       <use xlink:href="#ArialMT-30"/>
       <use xlink:href="#ArialMT-2e" transform="translate(55.615234 0)"/>
       <use xlink:href="#ArialMT-34" transform="translate(83.398438 0)"/>
      </g>
     </g>
    </g>
    <g id="text_13">
     <!-- score -->
     <g style="fill: #262626" transform="translate(14.357812 144.895156) rotate(-90) scale(0.1 -0.1)">
      <defs>
       <path id="ArialMT-73" d="M 197 991 
L 753 1078 
Q 800 744 1014 566 
Q 1228 388 1613 388 
Q 2000 388 2187 545 
Q 2375 703 2375 916 
Q 2375 1106 2209 1216 
Q 2094 1291 1634 1406 
Q 1016 1563 777 1677 
Q 538 1791 414 1992 
Q 291 2194 291 2438 
Q 291 2659 392 2848 
Q 494 3038 669 3163 
Q 800 3259 1026 3326 
Q 1253 3394 1513 3394 
Q 1903 3394 2198 3281 
Q 2494 3169 2634 2976 
Q 2775 2784 2828 2463 
L 2278 2388 
Q 2241 2644 2061 2787 
Q 1881 2931 1553 2931 
Q 1166 2931 1000 2803 
Q 834 2675 834 2503 
Q 834 2394 903 2306 
Q 972 2216 1119 2156 
Q 1203 2125 1616 2013 
Q 2213 1853 2448 1751 
Q 2684 1650 2818 1456 
Q 2953 1263 2953 975 
Q 2953 694 2789 445 
Q 2625 197 2315 61 
Q 2006 -75 1616 -75 
Q 969 -75 630 194 
Q 291 463 197 991 
z
" transform="scale(0.015625)"/>
       <path id="ArialMT-63" d="M 2588 1216 
L 3141 1144 
Q 3050 572 2676 248 
Q 2303 -75 1759 -75 
Q 1078 -75 664 370 
Q 250 816 250 1647 
Q 250 2184 428 2587 
Q 606 2991 970 3192 
Q 1334 3394 1763 3394 
Q 2303 3394 2647 3120 
Q 2991 2847 3088 2344 
L 2541 2259 
Q 2463 2594 2264 2762 
Q 2066 2931 1784 2931 
Q 1359 2931 1093 2626 
Q 828 2322 828 1663 
Q 828 994 1084 691 
Q 1341 388 1753 388 
Q 2084 388 2306 591 
Q 2528 794 2588 1216 
z
" transform="scale(0.015625)"/>
       <path id="ArialMT-6f" d="M 213 1659 
Q 213 2581 725 3025 
Q 1153 3394 1769 3394 
Q 2453 3394 2887 2945 
Q 3322 2497 3322 1706 
Q 3322 1066 3130 698 
Q 2938 331 2570 128 
Q 2203 -75 1769 -75 
Q 1072 -75 642 372 
Q 213 819 213 1659 
z
M 791 1659 
Q 791 1022 1069 705 
Q 1347 388 1769 388 
Q 2188 388 2466 706 
Q 2744 1025 2744 1678 
Q 2744 2294 2464 2611 
Q 2184 2928 1769 2928 
Q 1347 2928 1069 2612 
Q 791 2297 791 1659 
z
" transform="scale(0.015625)"/>
       <path id="ArialMT-72" d="M 416 0 
L 416 3319 
L 922 3319 
L 922 2816 
Q 1116 3169 1280 3281 
Q 1444 3394 1641 3394 
Q 1925 3394 2219 3213 
L 2025 2691 
Q 1819 2813 1613 2813 
Q 1428 2813 1281 2702 
Q 1134 2591 1072 2394 
Q 978 2094 978 1738 
L 978 0 
L 416 0 
z
" transform="scale(0.015625)"/>
      </defs>
      <use xlink:href="#ArialMT-73"/>
      <use xlink:href="#ArialMT-63" transform="translate(50 0)"/>
      <use xlink:href="#ArialMT-6f" transform="translate(100 0)"/>
      <use xlink:href="#ArialMT-72" transform="translate(155.615234 0)"/>
      <use xlink:href="#ArialMT-65" transform="translate(188.916016 0)"/>
     </g>
    </g>
   </g>
   <g id="FillBetweenPolyCollection_1">
    <defs>
     <path id="mefcdfe35ef" d="M 44.110091 -245.041323 
L 44.110091 -239.714612 
L 44.750317 -240.173283 
L 45.131218 -240.616928 
L 45.655604 -240.847638 
L 46.174815 -240.461692 
L 46.951378 -239.715655 
L 47.621869 -239.233654 
L 48.070656 -238.420191 
L 48.546616 -237.924571 
L 49.047887 -237.347386 
L 49.748371 -236.749737 
L 50.295902 -236.54365 
L 50.879859 -236.379912 
L 51.442128 -236.429755 
L 51.861515 -236.86112 
L 52.345749 -237.059283 
L 52.970613 -237.35282 
L 53.607611 -237.521974 
L 54.096973 -237.701224 
L 54.764116 -238.041643 
L 55.354714 -238.018448 
L 55.750179 -238.057675 
L 56.354446 -238.10979 
L 56.917911 -238.170223 
L 57.372036 -238.018413 
L 57.950067 -237.810013 
L 58.638713 -237.765345 
L 59.302616 -237.540605 
L 59.815252 -237.401414 
L 60.204584 -237.235406 
L 60.802023 -237.18737 
L 61.471995 -236.922814 
L 61.921734 -236.888169 
L 62.406865 -236.641032 
L 62.977739 -236.576987 
L 63.631702 -236.524636 
L 64.346386 -236.568586 
L 64.892426 -236.575337 
L 65.339906 -236.75782 
L 65.930317 -236.799074 
L 66.404454 -237.008611 
L 66.834177 -237.177322 
L 67.430594 -237.095544 
L 68.161704 -236.807368 
L 68.80102 -236.613982 
L 69.396072 -236.893892 
L 69.789957 -236.742088 
L 70.111548 -236.588668 
L 70.944461 -236.658812 
L 71.493739 -236.673981 
L 71.832254 -236.739116 
L 72.54719 -236.737708 
L 73.247199 -236.936887 
L 73.744412 -237.000918 
L 74.363753 -237.111155 
L 75.019263 -237.138108 
L 75.437457 -237.308645 
L 76.053581 -237.187453 
L 76.693533 -237.298975 
L 77.263539 -237.470472 
L 77.647263 -237.777776 
L 78.078167 -238.007156 
L 78.852301 -238.233923 
L 79.464164 -238.454971 
L 79.859634 -238.76069 
L 80.238711 -238.940846 
L 80.930798 -239.109701 
L 81.554408 -238.982877 
L 81.91263 -239.178921 
L 82.632907 -239.450077 
L 83.248752 -239.759628 
L 83.5725 -239.666063 
L 84.108689 -239.947714 
L 84.880936 -240.014667 
L 85.419251 -240.200175 
L 85.948672 -240.346962 
L 86.61124 -240.466099 
L 87.174515 -240.445556 
L 87.73639 -240.60641 
L 88.290725 -240.489662 
L 88.958644 -240.56395 
L 89.421619 -240.562784 
L 89.901681 -240.622553 
L 90.453893 -240.647823 
L 90.936988 -240.829932 
L 91.608918 -241.114574 
L 92.32112 -241.211039 
L 92.702739 -241.095514 
L 93.025723 -241.081277 
L 93.760292 -240.983153 
L 94.307404 -241.125932 
L 94.814411 -241.024603 
L 95.594018 -241.044847 
L 96.119967 -241.054235 
L 96.726572 -241.235179 
L 97.290191 -241.438641 
L 97.808045 -241.650034 
L 98.285478 -241.741052 
L 98.80891 -241.93816 
L 99.52546 -242.184345 
L 100.041036 -242.254314 
L 100.57743 -242.254121 
L 101.247158 -242.505892 
L 101.876878 -242.62225 
L 102.439035 -242.676738 
L 102.940885 -242.59496 
L 103.377238 -242.939631 
L 103.818534 -243.108946 
L 104.424849 -243.295542 
L 105.090991 -243.390658 
L 105.675245 -243.415276 
L 106.085781 -243.506699 
L 106.583633 -243.657602 
L 107.186107 -243.763263 
L 107.708376 -243.806173 
L 108.181148 -243.769259 
L 108.661585 -243.927339 
L 109.257716 -244.137876 
L 109.810426 -244.153395 
L 110.58697 -244.237546 
L 111.342969 -244.313312 
L 111.88961 -244.22107 
L 112.300067 -244.250588 
L 112.71697 -244.261519 
L 113.263134 -244.337029 
L 113.772067 -244.209317 
L 114.336679 -244.09699 
L 114.873764 -244.09603 
L 115.593761 -243.968693 
L 116.336894 -243.792779 
L 116.859433 -243.813235 
L 117.295538 -243.625781 
L 117.867692 -243.656993 
L 118.351545 -243.732131 
L 118.87265 -243.62207 
L 119.587229 -243.771368 
L 120.028209 -243.633872 
L 120.543521 -243.709911 
L 121.272867 -243.750655 
L 121.933114 -243.592547 
L 122.42153 -243.643094 
L 122.749674 -243.55738 
L 123.369088 -243.594643 
L 124.17435 -243.50285 
L 124.543625 -243.552693 
L 124.851144 -243.433976 
L 125.54388 -243.459276 
L 126.124749 -243.384706 
L 126.505277 -243.40216 
L 127.274398 -243.345633 
L 128.007561 -243.404795 
L 128.576175 -243.487494 
L 129.004828 -243.506456 
L 129.45761 -243.373505 
L 130.178803 -243.443078 
L 130.807046 -243.497962 
L 131.255568 -243.45086 
L 131.74128 -243.325677 
L 132.297296 -243.196243 
L 132.876592 -243.264984 
L 133.508402 -243.252268 
L 134.034567 -243.320988 
L 134.647462 -242.763709 
L 135.244384 -242.72865 
L 135.568356 -242.445053 
L 136.215483 -242.363602 
L 136.96032 -242.02769 
L 137.297082 -241.800751 
L 137.73191 -241.581739 
L 138.307351 -241.384753 
L 138.955737 -241.287208 
L 139.452904 -241.048246 
L 139.890314 -241.065043 
L 140.659498 -240.716171 
L 141.275363 -240.549671 
L 141.673721 -240.317476 
L 142.255983 -240.151248 
L 142.931383 -240.005906 
L 143.472894 -239.853737 
L 144.065204 -239.797643 
L 144.791234 -239.622631 
L 145.291901 -239.670036 
L 145.812573 -239.145003 
L 146.416783 -239.222323 
L 146.759684 -239.185976 
L 147.313557 -239.151451 
L 148.054273 -238.806442 
L 148.546179 -238.602586 
L 149.075535 -238.608262 
L 149.508973 -238.391527 
L 150.024754 -238.336462 
L 150.625586 -238.297705 
L 151.082851 -238.296518 
L 151.768271 -238.152673 
L 152.557257 -237.963416 
L 153.019071 -238.05329 
L 153.33627 -237.664521 
L 154.064506 -237.636584 
L 154.720751 -237.620725 
L 155.030568 -237.337181 
L 155.580078 -237.444802 
L 156.215243 -237.327127 
L 156.784389 -237.396864 
L 157.507421 -237.446636 
L 158.164383 -237.20311 
L 158.506096 -237.036214 
L 159.024845 -237.030089 
L 159.774176 -236.853147 
L 160.196947 -236.506795 
L 160.614317 -236.386419 
L 161.36098 -236.234987 
L 161.941577 -236.198113 
L 162.543918 -235.975455 
L 163.245443 -235.796008 
L 163.615297 -235.695861 
L 164.114588 -235.340308 
L 164.773809 -235.292047 
L 165.345815 -235.322495 
L 165.826436 -235.21705 
L 166.207377 -235.30879 
L 166.714619 -235.207166 
L 167.398926 -235.051854 
L 168.03572 -235.063359 
L 168.526152 -234.888274 
L 169.018861 -234.736173 
L 169.574393 -234.560709 
L 170.3037 -234.545151 
L 170.880232 -234.545502 
L 171.360685 -234.280848 
L 171.898524 -234.038266 
L 172.34057 -233.876248 
L 173.040054 -233.38038 
L 173.769771 -233.111053 
L 174.133671 -232.934619 
L 174.487521 -232.844236 
L 175.151617 -232.647726 
L 175.954499 -232.39677 
L 176.637629 -231.989661 
L 177.159202 -231.688807 
L 177.512645 -231.142819 
L 177.928029 -230.898384 
L 178.510466 -230.744844 
L 179.045183 -230.454308 
L 179.759623 -230.098322 
L 180.385554 -229.655032 
L 180.86341 -229.434788 
L 181.384447 -229.26908 
L 181.862254 -228.863659 
L 182.564805 -228.612969 
L 183.19336 -228.23768 
L 183.581655 -227.991849 
L 184.207803 -228.010502 
L 184.943736 -227.550445 
L 185.350654 -227.440133 
L 185.914709 -227.072155 
L 186.563891 -227.105561 
L 186.937726 -227.048834 
L 187.476435 -226.634094 
L 188.185638 -226.298547 
L 188.781651 -225.793648 
L 189.184847 -225.38195 
L 189.606843 -225.34622 
L 190.138444 -225.071091 
L 190.872451 -224.958406 
L 191.45198 -224.245417 
L 191.923078 -224.155498 
L 192.508841 -223.710516 
L 193.193264 -223.230533 
L 193.804598 -223.150983 
L 194.273052 -222.805673 
L 194.897752 -222.600808 
L 195.397237 -222.4272 
L 195.880168 -222.08793 
L 196.382103 -221.685993 
L 197.046304 -221.083708 
L 197.798179 -220.647062 
L 198.159206 -220.379478 
L 198.534651 -220.167969 
L 199.052918 -220.011044 
L 199.676166 -219.901698 
L 200.359304 -219.433903 
L 200.928139 -219.030281 
L 201.492228 -218.595921 
L 202.130934 -217.815349 
L 202.821157 -217.606485 
L 203.426574 -217.002955 
L 203.971155 -216.553197 
L 204.466273 -216.188714 
L 205.014353 -215.847819 
L 205.378865 -215.455818 
L 205.937599 -214.801711 
L 206.589946 -214.209114 
L 206.939512 -213.915284 
L 207.518072 -213.596529 
L 208.29427 -213.275158 
L 208.911294 -212.688423 
L 209.459446 -212.434372 
L 210.088649 -212.110187 
L 210.619183 -211.816505 
L 211.151804 -211.218303 
L 211.764318 -210.737613 
L 212.171279 -210.666623 
L 212.506086 -210.257384 
L 213.246181 -210.012303 
L 213.962782 -209.756771 
L 214.364919 -209.342157 
L 214.883417 -209.049758 
L 215.408859 -208.406037 
L 215.987008 -207.929544 
L 216.492715 -207.737523 
L 217.116631 -207.332424 
L 217.900682 -206.97275 
L 218.243509 -206.478526 
L 218.644965 -205.742432 
L 219.269491 -205.207005 
L 219.850942 -204.802953 
L 220.496142 -204.183241 
L 221.050389 -203.489198 
L 221.61354 -202.836597 
L 222.106232 -201.904074 
L 222.631414 -201.380481 
L 223.172527 -200.705096 
L 223.727204 -200.283938 
L 224.271573 -199.396561 
L 224.780625 -198.976411 
L 225.446592 -198.582582 
L 226.0764 -197.678846 
L 226.604217 -197.065977 
L 227.114837 -196.403598 
L 227.586393 -195.555801 
L 228.071716 -195.05748 
L 228.903649 -194.644683 
L 229.460356 -193.66637 
L 229.88644 -193.204629 
L 230.422892 -192.365444 
L 230.861508 -192.131192 
L 231.4363 -191.41212 
L 232.204899 -190.735361 
L 232.952095 -190.183523 
L 233.489999 -189.71647 
L 233.823952 -188.9866 
L 234.267228 -188.647285 
L 235.016644 -188.261508 
L 235.614009 -187.830451 
L 236.120752 -186.948181 
L 236.728272 -186.634249 
L 237.277951 -185.75801 
L 237.865892 -185.268637 
L 238.499197 -184.443724 
L 239.053141 -183.625562 
L 239.534085 -183.033992 
L 239.904403 -182.188501 
L 240.474467 -181.319988 
L 241.193805 -180.671867 
L 241.853308 -179.720062 
L 242.382436 -178.390699 
L 242.695973 -177.213095 
L 243.25477 -176.714241 
L 243.907418 -176.00343 
L 244.560799 -175.225032 
L 245.242631 -174.476096 
L 245.620951 -173.356337 
L 245.951348 -172.467574 
L 246.623782 -171.862117 
L 247.282416 -171.035066 
L 247.730533 -170.081599 
L 248.332059 -169.201071 
L 248.870656 -167.866087 
L 249.495257 -166.771047 
L 250.192045 -165.789504 
L 250.727517 -165.29064 
L 251.217048 -164.183182 
L 251.62007 -163.68732 
L 252.315503 -162.625911 
L 252.910478 -162.21375 
L 253.369442 -161.182129 
L 254.044766 -160.466437 
L 254.450343 -159.807945 
L 254.989446 -158.608419 
L 255.601953 -158.089169 
L 256.051617 -157.730183 
L 256.809406 -156.664403 
L 257.476456 -155.866332 
L 258.004086 -155.479702 
L 258.647956 -154.650094 
L 259.120105 -153.746612 
L 259.418582 -153.076401 
L 259.9463 -151.733895 
L 260.607824 -150.823719 
L 261.21392 -150.570105 
L 261.775759 -149.488474 
L 262.291392 -148.867169 
L 262.887089 -148.374221 
L 263.531258 -148.012844 
L 263.957944 -147.197909 
L 264.432801 -147.06998 
L 265.087063 -146.738162 
L 265.679956 -146.313571 
L 266.30057 -145.965418 
L 266.954434 -145.411621 
L 267.381965 -144.752627 
L 267.842249 -144.501028 
L 268.448908 -144.142777 
L 269.046887 -143.342389 
L 269.642194 -143.292581 
L 270.03896 -142.89467 
L 270.677816 -142.632784 
L 271.332122 -142.180827 
L 271.689283 -141.704807 
L 272.216465 -141.556324 
L 272.961627 -141.290759 
L 273.533355 -140.479631 
L 273.976419 -139.903532 
L 274.525197 -139.376072 
L 275.239566 -139.340101 
L 275.766685 -138.469956 
L 276.222064 -138.412864 
L 276.934408 -137.912877 
L 277.557398 -137.608101 
L 278.085146 -137.317102 
L 278.511274 -137.072031 
L 278.859985 -136.497966 
L 279.589234 -135.923259 
L 280.193321 -135.654518 
L 280.709249 -135.017577 
L 281.495955 -134.90458 
L 282.096514 -134.550932 
L 282.410565 -134.374966 
L 282.847838 -133.986417 
L 283.623909 -133.525007 
L 284.110678 -132.815669 
L 284.456075 -132.346184 
L 285.226191 -132.093979 
L 285.757019 -131.649294 
L 286.217195 -131.064941 
L 286.913165 -130.687431 
L 287.452497 -129.808905 
L 287.994486 -129.180976 
L 288.419454 -128.441157 
L 289.104073 -128.0576 
L 289.849173 -127.733041 
L 290.194879 -126.991001 
L 290.719351 -126.058715 
L 291.395927 -125.55175 
L 291.853592 -124.882056 
L 292.470503 -124.216837 
L 293.074102 -123.394519 
L 293.421903 -122.934743 
L 294.077938 -122.669762 
L 294.7669 -122.434565 
L 295.185392 -121.966657 
L 295.786737 -121.316063 
L 296.510069 -120.506582 
L 297.120348 -120.290263 
L 297.639338 -119.967597 
L 298.053907 -119.7395 
L 298.461796 -119.241089 
L 299.032509 -119.051369 
L 299.617111 -118.638779 
L 300.109511 -118.663328 
L 300.634235 -118.250308 
L 301.177102 -118.427793 
L 301.732238 -118.022532 
L 302.463448 -117.803267 
L 303.123026 -117.425023 
L 303.486828 -117.222817 
L 303.949735 -116.788129 
L 304.651015 -116.333724 
L 305.38583 -116.075638 
L 305.976108 -115.87053 
L 306.559331 -115.577119 
L 307.133655 -115.239699 
L 307.543099 -115.370232 
L 308.062693 -115.064563 
L 308.549222 -114.894121 
L 308.970425 -114.679911 
L 309.694053 -114.237272 
L 310.392105 -114.059787 
L 310.753983 -113.631481 
L 311.248893 -113.70592 
L 311.998365 -113.626795 
L 312.597243 -113.608337 
L 312.995223 -113.32288 
L 313.542176 -113.04813 
L 314.267041 -113.23811 
L 314.787354 -113.140614 
L 315.36953 -113.257148 
L 316.073372 -113.099705 
L 316.446771 -112.88189 
L 316.79441 -112.882091 
L 317.323333 -112.875432 
L 317.886431 -112.45887 
L 318.674822 -112.552708 
L 319.315786 -112.407737 
L 319.90312 -111.645101 
L 320.542241 -111.545836 
L 320.902818 -111.13427 
L 321.532344 -110.98776 
L 322.140398 -110.684047 
L 322.54214 -110.274195 
L 323.190826 -110.208517 
L 323.699148 -109.766117 
L 324.317055 -109.550764 
L 324.895154 -109.057493 
L 325.228568 -108.724425 
L 325.930717 -108.38745 
L 326.643091 -107.786329 
L 327.081573 -107.639034 
L 327.604198 -106.998318 
L 328.138181 -106.869492 
L 328.607631 -106.718865 
L 329.147821 -106.195322 
L 329.754568 -106.005058 
L 330.418181 -105.844541 
L 330.983654 -105.818875 
L 331.509334 -105.395753 
L 332.117797 -105.599529 
L 332.573789 -105.417048 
L 332.960046 -105.207485 
L 333.525905 -104.956514 
L 334.109138 -104.981809 
L 334.782283 -104.502082 
L 335.40671 -103.817583 
L 335.86646 -103.534263 
L 336.407707 -103.20254 
L 336.934442 -103.101208 
L 337.456416 -102.960138 
L 338.139698 -102.697587 
L 338.795401 -102.661625 
L 339.464486 -102.375025 
L 340.065048 -101.687767 
L 340.618009 -101.419513 
L 341.166034 -101.301543 
L 341.628859 -100.882757 
L 342.191762 -100.504669 
L 342.767699 -100.053878 
L 343.372046 -99.711626 
L 343.993582 -99.50047 
L 344.328626 -99.297192 
L 344.788287 -98.887534 
L 345.359998 -98.336928 
L 345.892695 -98.105705 
L 346.488963 -97.778215 
L 346.9657 -97.382007 
L 347.521367 -96.966054 
L 348.261451 -96.406136 
L 348.958301 -95.824512 
L 349.296835 -95.854841 
L 349.816839 -95.565131 
L 350.44485 -95.27654 
L 350.848864 -95.01647 
L 351.601142 -94.822243 
L 352.25489 -94.555058 
L 352.553882 -94.444913 
L 353.280752 -93.971651 
L 354.068912 -93.717633 
L 354.388594 -93.269212 
L 354.909708 -92.947711 
L 355.549397 -92.576795 
L 356.179733 -92.276401 
L 356.763471 -91.958627 
L 357.057158 -91.530476 
L 357.562863 -91.401369 
L 358.274573 -91.331017 
L 358.849229 -91.122235 
L 359.402084 -90.499671 
L 360.010587 -90.295251 
L 360.587771 -89.966455 
L 361.121769 -89.480013 
L 361.592128 -89.005243 
L 362.167008 -88.303483 
L 362.901393 -87.870678 
L 363.463171 -87.738663 
L 363.780545 -87.348281 
L 364.189076 -86.664072 
L 364.887274 -86.333858 
L 365.546574 -86.320323 
L 366.013102 -85.953348 
L 366.587356 -85.820228 
L 367.114863 -85.501149 
L 367.577429 -85.031321 
L 368.301679 -84.588961 
L 369.077322 -84.264036 
L 369.651503 -83.922567 
L 370.017801 -83.608813 
L 370.464357 -83.504968 
L 371.020779 -82.578025 
L 371.639103 -82.463864 
L 372.16228 -82.414947 
L 372.548057 -82.172399 
L 373.205153 -81.720399 
L 373.908317 -81.607743 
L 374.462587 -81.194076 
L 375.03347 -81.049166 
L 375.692737 -80.729837 
L 376.126048 -80.245847 
L 376.617276 -80.319058 
L 377.375749 -80.062094 
L 377.997805 -79.331788 
L 378.361885 -79.045426 
L 378.72796 -78.316434 
L 379.260398 -77.98649 
L 380.012611 -77.656674 
L 380.786783 -76.986369 
L 381.386139 -76.507067 
L 381.929717 -75.95039 
L 382.379754 -75.467781 
L 382.794052 -75.071249 
L 383.355355 -74.258479 
L 384.093591 -73.917804 
L 384.575877 -73.599645 
L 385.072334 -73.003951 
L 385.761252 -72.61769 
L 386.265404 -72.102367 
L 386.861933 -71.612991 
L 387.372757 -70.864856 
L 387.720769 -70.392755 
L 388.246014 -69.665444 
L 389.022797 -69.365236 
L 389.700963 -69.024718 
L 390.138539 -68.757808 
L 390.551092 -68.174366 
L 391.181674 -67.553042 
L 391.733822 -67.066054 
L 392.184018 -66.885479 
L 392.80282 -66.673396 
L 393.433686 -66.232307 
L 393.96308 -65.964648 
L 394.533927 -65.186806 
L 395.228634 -64.52695 
L 395.87324 -64.311106 
L 396.246862 -63.716074 
L 396.648096 -63.282583 
L 397.406543 -63.054943 
L 397.985085 -62.669491 
L 398.600329 -62.440884 
L 399.046458 -62.035188 
L 399.375174 -61.488427 
L 400.056174 -61.290094 
L 400.776595 -61.234795 
L 401.339736 -60.771226 
L 401.930722 -60.401403 
L 402.603165 -60.278294 
L 403.133684 -60.166719 
L 403.694381 -60.031623 
L 404.156668 -59.701476 
L 404.48826 -59.579105 
L 404.962108 -59.245819 
L 405.661295 -58.841461 
L 406.268422 -58.630572 
L 406.698907 -58.372881 
L 407.201057 -58.223128 
L 407.837431 -57.888477 
L 408.384869 -57.478571 
L 408.890171 -57.291535 
L 409.61154 -57.094896 
L 410.265237 -56.918818 
L 410.854844 -56.786693 
L 411.28992 -56.327691 
L 411.64596 -56.045144 
L 412.320909 -55.944718 
L 412.980365 -55.705416 
L 413.56456 -55.695622 
L 414.026547 -55.53688 
L 414.527778 -55.242865 
L 415.28947 -54.879505 
L 415.933172 -54.528264 
L 416.281611 -54.1594 
L 416.739705 -53.806619 
L 417.407982 -53.676669 
L 417.899311 -53.632012 
L 418.517022 -53.634193 
L 419.279679 -53.52296 
L 419.901642 -53.532242 
L 420.287386 -53.703659 
L 420.684903 -53.41549 
L 421.375119 -53.335563 
L 422.075736 -52.855258 
L 422.665535 -52.643279 
L 423.198788 -52.597177 
L 423.533413 -52.249109 
L 424.082886 -52.211638 
L 424.648121 -52.233506 
L 425.080303 -52.162955 
L 425.80575 -52.302777 
L 426.493793 -52.357066 
L 426.879157 -52.253265 
L 427.281311 -52.282353 
L 427.834821 -52.233036 
L 428.500805 -52.329292 
L 429.1848 -52.325102 
L 429.843409 -52.473999 
L 430.352001 -52.438176 
L 430.863835 -52.48219 
L 431.500017 -52.438735 
L 432.022768 -52.438284 
L 432.411697 -52.697061 
L 432.805771 -52.830914 
L 433.358768 -52.905133 
L 434.157768 -52.819994 
L 434.739548 -52.836933 
L 435.078295 -52.819015 
L 435.768219 -53.025029 
L 436.571405 -52.942106 
L 437.030409 -52.959691 
L 437.426109 -53.135239 
L 437.930664 -53.169422 
L 438.530626 -53.306356 
L 439.267068 -53.340548 
L 439.808391 -53.376737 
L 440.338007 -53.405672 
L 440.983151 -53.451569 
L 441.471097 -53.344571 
L 442.005476 -53.272074 
L 442.713397 -53.204863 
L 443.34853 -53.057236 
L 443.773326 -53.027293 
L 444.336149 -52.647094 
L 444.954709 -52.585823 
L 445.378884 -52.331721 
L 445.95105 -52.161645 
L 446.409216 -51.891967 
L 446.828729 -51.835988 
L 447.55167 -51.754216 
L 448.134714 -51.733331 
L 448.726437 -51.840139 
L 449.328676 -51.898603 
L 449.904929 -51.787491 
L 450.520047 -51.809636 
L 450.868187 -51.769961 
L 451.381402 -51.867479 
L 452.118602 -51.803119 
L 452.553512 -51.693374 
L 452.975469 -51.456356 
L 453.565989 -51.141392 
L 454.058746 -51.105858 
L 454.790389 -50.942803 
L 455.443464 -50.896702 
L 455.965019 -50.907612 
L 456.483898 -50.624942 
L 457.08047 -50.456372 
L 457.693436 -50.44755 
L 458.124371 -50.445596 
L 458.662658 -50.257207 
L 459.200463 -50.255794 
L 459.872684 -50.071194 
L 460.386652 -49.979336 
L 460.725034 -49.969651 
L 461.41566 -49.897433 
L 462.14515 -49.756214 
L 462.576698 -49.559697 
L 463.101974 -49.527343 
L 463.849302 -49.408294 
L 464.514752 -49.372158 
L 465.002725 -49.272033 
L 465.35051 -49.216631 
L 465.849445 -49.273974 
L 466.583966 -48.947579 
L 467.335316 -48.968344 
L 467.76982 -48.954008 
L 468.138414 -48.87719 
L 468.824102 -48.872904 
L 469.331026 -48.927667 
L 469.696813 -48.80863 
L 470.242087 -48.843852 
L 470.993513 -48.594971 
L 471.751843 -48.469957 
L 472.205544 -48.378282 
L 472.783417 -48.247201 
L 473.360996 -48.17505 
L 473.832935 -47.869503 
L 474.438404 -47.633601 
L 475.109136 -47.323104 
L 475.720267 -47.050463 
L 476.265007 -46.785403 
L 476.783316 -46.596213 
L 477.277143 -46.425794 
L 477.845981 -46.145705 
L 478.367634 -45.837802 
L 478.842247 -45.747206 
L 479.364125 -45.68045 
L 479.953266 -45.497351 
L 480.519869 -45.182175 
L 481.08252 -44.98999 
L 481.615423 -44.89616 
L 482.212039 -44.831533 
L 482.680128 -44.657429 
L 483.14631 -44.560618 
L 483.855004 -44.581394 
L 484.387644 -44.303833 
L 484.784363 -44.280381 
L 485.267933 -43.93323 
L 486.022052 -43.924503 
L 486.671141 -43.712821 
L 487.26589 -43.729996 
L 487.766958 -43.76802 
L 488.280978 -43.634535 
L 488.984479 -43.475246 
L 489.624749 -43.42212 
L 490.043461 -43.450491 
L 490.473695 -43.197346 
L 491.177792 -42.91185 
L 491.59431 -42.927294 
L 492.139612 -42.977822 
L 492.874947 -43.073361 
L 493.374989 -43.090566 
L 493.811173 -43.043252 
L 494.40174 -43.008431 
L 494.950275 -43.004995 
L 495.461433 -42.989659 
L 496.114168 -43.074788 
L 496.627775 -43.145779 
L 497.16561 -43.147916 
L 497.723636 -43.002337 
L 498.255021 -42.992427 
L 498.79336 -42.876129 
L 499.509186 -42.916423 
L 500.132982 -43.065412 
L 500.507284 -43.22003 
L 501.008198 -43.125599 
L 501.685434 -43.13151 
L 502.24781 -43.285239 
L 502.61699 -43.100287 
L 503.363038 -43.128434 
L 503.923103 -43.180008 
L 504.407725 -43.274568 
L 505.015846 -43.369882 
L 505.553908 -43.419592 
L 506.05505 -43.381016 
L 506.590635 -43.369967 
L 507.211591 -43.396771 
L 507.666139 -43.483805 
L 508.343331 -43.519342 
L 509.055992 -43.551707 
L 509.640693 -43.323648 
L 510.158293 -43.294395 
L 510.712239 -43.239219 
L 511.264607 -43.210721 
L 511.857538 -42.958885 
L 512.488896 -42.97057 
L 512.963495 -43.117851 
L 513.301286 -43.078092 
L 513.8057 -42.889916 
L 514.395593 -43.019579 
L 514.919677 -43.024365 
L 515.472484 -43.066093 
L 516.148123 -43.004206 
L 516.767628 -42.981966 
L 517.205167 -43.008495 
L 517.763465 -42.950734 
L 518.517509 -42.987645 
L 519.255802 -42.982987 
L 519.605987 -42.775589 
L 519.982097 -42.779667 
L 520.62896 -42.761675 
L 521.229199 -42.787152 
L 521.729746 -42.747839 
L 522.315397 -42.85716 
L 522.845025 -42.918225 
L 523.432855 -42.952602 
L 524.010584 -42.92722 
L 524.505215 -42.889706 
L 525.158048 -42.986802 
L 525.733759 -43.05191 
L 526.268129 -42.986905 
L 526.860377 -42.925655 
L 527.356359 -42.795026 
L 527.962639 -42.622528 
L 528.625488 -42.590228 
L 529.049615 -42.560725 
L 529.551985 -42.4883 
L 530.274549 -42.349959 
L 530.71257 -42.354356 
L 531.151702 -42.330075 
L 531.702609 -42.381199 
L 532.254201 -42.295087 
L 532.836486 -42.198706 
L 533.297881 -42.248859 
L 533.990399 -42.304217 
L 534.722198 -42.302912 
L 535.346084 -42.424623 
L 535.818338 -42.374622 
L 536.279814 -42.449215 
L 536.885575 -42.457277 
L 537.515618 -42.475168 
L 538.174122 -42.533446 
L 538.727823 -42.633685 
L 539.255737 -42.535871 
L 539.820504 -42.56744 
L 540.34185 -42.63251 
L 540.697357 -42.625248 
L 541.095968 -42.480975 
L 541.801319 -42.394392 
L 542.349595 -42.434261 
L 542.856791 -42.399623 
L 543.462589 -42.47819 
L 543.929132 -42.413504 
L 544.518118 -42.433191 
L 545.095605 -42.441817 
L 545.629961 -42.51641 
L 546.241658 -42.458581 
L 546.773198 -42.520624 
L 547.336124 -42.545612 
L 548.000204 -42.617997 
L 548.583746 -42.465982 
L 549.022563 -42.41686 
L 549.73243 -42.243715 
L 550.365454 -42.181626 
L 550.763861 -42.061047 
L 551.308001 -41.807943 
L 551.779211 -41.788353 
L 552.436147 -41.613315 
L 553.111065 -41.474295 
L 553.663932 -41.431194 
L 554.122189 -41.427391 
L 554.586268 -41.39285 
L 555.292526 -41.331511 
L 555.859788 -41.259843 
L 556.363404 -41.126629 
L 556.804809 -41.056844 
L 557.437826 -40.986202 
L 558.229421 -40.940836 
L 558.811439 -40.951555 
L 559.146382 -40.897121 
L 559.726528 -40.877513 
L 560.368374 -40.860837 
L 560.882257 -40.734916 
L 561.521009 -40.755142 
L 562.048326 -40.648188 
L 562.512312 -40.536061 
L 562.914906 -40.039388 
L 563.533976 -39.944025 
L 564.233461 -39.947011 
L 564.787148 -39.921929 
L 565.234118 -39.844876 
L 565.687733 -39.779673 
L 566.237708 -39.573898 
L 566.854179 -39.610992 
L 567.572703 -39.601064 
L 568.079829 -39.680433 
L 568.622667 -39.49126 
L 569.164158 -39.390953 
L 569.53679 -39.379311 
L 570.145654 -39.397945 
L 570.815085 -39.376806 
L 571.524197 -39.3281 
L 572.094638 -39.126112 
L 572.556414 -39.132851 
L 573.049538 -39.185563 
L 573.628008 -39.321782 
L 574.273574 -39.314141 
L 574.800943 -39.351803 
L 575.235368 -39.386511 
L 575.872953 -39.375591 
L 576.587559 -39.460672 
L 577.215751 -39.499466 
L 577.648677 -39.63029 
L 577.965333 -39.71592 
L 578.490231 -39.67792 
L 579.182522 -39.719419 
L 579.959471 -39.871506 
L 580.47656 -39.921007 
L 580.811078 -40.059163 
L 581.458468 -40.247824 
L 581.993732 -40.368338 
L 582.389937 -40.478212 
L 582.976436 -40.601185 
L 583.757839 -40.576409 
L 584.430662 -40.54667 
L 584.751199 -40.598591 
L 585.436827 -40.662276 
L 586.163483 -40.765413 
L 586.504257 -40.830622 
L 586.875296 -40.94881 
L 587.439525 -41.055135 
L 588.248537 -41.089979 
L 588.930057 -41.078318 
L 589.35745 -41.031396 
L 589.879366 -40.938036 
L 590.476657 -40.869508 
L 590.929481 -40.72891 
L 591.442089 -40.666397 
L 592.068369 -40.660162 
L 592.733811 -40.677505 
L 593.293554 -40.439048 
L 593.781508 -40.318065 
L 594.348745 -40.20951 
L 595.00745 -40.137692 
L 595.625681 -40.102236 
L 595.996707 -39.948439 
L 596.568705 -39.799468 
L 597.235148 -39.699187 
L 597.617071 -39.735131 
L 598.109325 -39.813341 
L 598.717965 -39.739122 
L 599.369305 -39.324644 
L 599.922794 -38.939786 
L 600.435774 -39.371883 
L 601.076607 -39.931965 
L 601.33003 -40.25708 
L 601.33003 -47.07557 
L 601.33003 -47.07557 
L 601.076607 -45.992104 
L 600.435774 -44.81652 
L 599.922794 -44.177999 
L 599.369305 -43.99957 
L 598.717965 -43.944353 
L 598.109325 -43.684729 
L 597.617071 -43.252336 
L 597.235148 -43.118849 
L 596.568705 -43.059456 
L 595.996707 -43.2093 
L 595.625681 -43.186515 
L 595.00745 -43.018018 
L 594.348745 -43.014943 
L 593.781508 -43.211043 
L 593.293554 -43.450415 
L 592.733811 -43.54418 
L 592.068369 -43.709488 
L 591.442089 -43.656974 
L 590.929481 -43.703567 
L 590.476657 -43.809491 
L 589.879366 -43.874888 
L 589.35745 -44.023387 
L 588.930057 -44.027966 
L 588.248537 -43.909672 
L 587.439525 -43.800479 
L 586.875296 -43.718324 
L 586.504257 -43.585199 
L 586.163483 -43.460844 
L 585.436827 -43.341776 
L 584.751199 -43.257754 
L 584.430662 -43.333872 
L 583.757839 -43.319223 
L 582.976436 -43.246471 
L 582.389937 -43.046523 
L 581.993732 -42.895845 
L 581.458468 -42.703771 
L 580.811078 -42.536993 
L 580.47656 -42.476777 
L 579.959471 -42.500201 
L 579.182522 -42.440867 
L 578.490231 -42.392756 
L 577.965333 -42.352156 
L 577.648677 -42.378924 
L 577.215751 -42.31334 
L 576.587559 -42.293087 
L 575.872953 -42.232512 
L 575.235368 -42.314318 
L 574.800943 -42.489292 
L 574.273574 -42.503152 
L 573.628008 -42.467779 
L 573.049538 -42.587634 
L 572.556414 -42.529679 
L 572.094638 -42.482048 
L 571.524197 -42.474835 
L 570.815085 -42.491088 
L 570.145654 -42.523859 
L 569.53679 -42.516456 
L 569.164158 -42.475576 
L 568.622667 -42.422885 
L 568.079829 -42.431526 
L 567.572703 -42.607056 
L 566.854179 -42.700307 
L 566.237708 -42.854645 
L 565.687733 -42.847066 
L 565.234118 -42.850837 
L 564.787148 -42.8148 
L 564.233461 -42.800285 
L 563.533976 -42.85886 
L 562.914906 -42.930961 
L 562.512312 -43.307287 
L 562.048326 -43.408358 
L 561.521009 -43.554506 
L 560.882257 -43.780032 
L 560.368374 -43.827998 
L 559.726528 -43.95569 
L 559.146382 -44.099526 
L 558.811439 -44.254446 
L 558.229421 -44.661876 
L 557.437826 -44.727787 
L 556.804809 -44.9213 
L 556.363404 -44.968885 
L 555.859788 -45.225692 
L 555.292526 -45.328025 
L 554.586268 -45.446198 
L 554.122189 -45.52241 
L 553.663932 -45.750036 
L 553.111065 -45.847184 
L 552.436147 -45.903359 
L 551.779211 -46.119911 
L 551.308001 -46.22524 
L 550.763861 -46.335465 
L 550.365454 -46.837858 
L 549.73243 -46.785125 
L 549.022563 -47.08548 
L 548.583746 -47.164624 
L 548.000204 -47.2395 
L 547.336124 -47.493198 
L 546.773198 -47.370114 
L 546.241658 -47.272802 
L 545.629961 -47.257708 
L 545.095605 -47.292923 
L 544.518118 -47.251278 
L 543.929132 -47.18104 
L 543.462589 -47.081948 
L 542.856791 -46.994464 
L 542.349595 -47.063678 
L 541.801319 -46.960585 
L 541.095968 -46.906359 
L 540.697357 -46.774322 
L 540.34185 -46.625791 
L 539.820504 -46.533433 
L 539.255737 -46.3642 
L 538.727823 -46.095824 
L 538.174122 -45.869511 
L 537.515618 -45.943829 
L 536.885575 -45.817899 
L 536.279814 -45.690214 
L 535.818338 -45.422007 
L 535.346084 -45.419741 
L 534.722198 -45.368166 
L 533.990399 -45.31177 
L 533.297881 -45.34136 
L 532.836486 -45.230255 
L 532.254201 -45.165952 
L 531.702609 -45.04719 
L 531.151702 -44.926138 
L 530.71257 -44.909126 
L 530.274549 -44.945267 
L 529.551985 -44.886878 
L 529.049615 -44.911911 
L 528.625488 -44.752398 
L 527.962639 -44.73558 
L 527.356359 -44.917598 
L 526.860377 -45.068251 
L 526.268129 -45.213121 
L 525.733759 -45.174644 
L 525.158048 -45.02494 
L 524.505215 -44.812209 
L 524.010584 -44.669186 
L 523.432855 -44.438247 
L 522.845025 -44.259326 
L 522.315397 -44.173507 
L 521.729746 -44.038711 
L 521.229199 -44.018317 
L 520.62896 -44.093995 
L 519.982097 -44.149971 
L 519.605987 -44.153815 
L 519.255802 -44.205917 
L 518.517509 -44.057183 
L 517.763465 -43.984718 
L 517.205167 -44.058802 
L 516.767628 -43.99877 
L 516.148123 -44.074402 
L 515.472484 -44.242882 
L 514.919677 -44.239545 
L 514.395593 -44.239213 
L 513.8057 -44.3417 
L 513.301286 -44.35986 
L 512.963495 -44.349847 
L 512.488896 -44.688511 
L 511.857538 -44.692537 
L 511.264607 -44.739482 
L 510.712239 -44.726622 
L 510.158293 -44.787367 
L 509.640693 -44.824452 
L 509.055992 -45.245593 
L 508.343331 -45.286318 
L 507.666139 -45.219224 
L 507.211591 -45.209861 
L 506.590635 -45.183409 
L 506.05505 -45.095586 
L 505.553908 -45.179774 
L 505.015846 -45.113151 
L 504.407725 -45.138286 
L 503.923103 -45.155332 
L 503.363038 -45.086293 
L 502.61699 -45.045774 
L 502.24781 -45.115407 
L 501.685434 -45.050583 
L 501.008198 -45.190046 
L 500.507284 -45.280809 
L 500.132982 -45.331669 
L 499.509186 -45.360937 
L 498.79336 -45.332415 
L 498.255021 -45.355928 
L 497.723636 -45.333272 
L 497.16561 -45.458616 
L 496.627775 -45.418924 
L 496.114168 -45.625408 
L 495.461433 -45.615065 
L 494.950275 -45.778236 
L 494.40174 -45.778836 
L 493.811173 -45.816356 
L 493.374989 -45.838362 
L 492.874947 -45.805524 
L 492.139612 -45.756172 
L 491.59431 -45.822855 
L 491.177792 -45.984148 
L 490.473695 -46.096542 
L 490.043461 -46.499136 
L 489.624749 -46.648788 
L 488.984479 -46.737908 
L 488.280978 -46.962287 
L 487.766958 -47.120982 
L 487.26589 -47.216947 
L 486.671141 -47.402461 
L 486.022052 -47.59757 
L 485.267933 -47.667244 
L 484.784363 -47.841104 
L 484.387644 -47.963232 
L 483.855004 -48.156254 
L 483.14631 -48.176608 
L 482.680128 -48.26662 
L 482.212039 -48.414124 
L 481.615423 -48.630214 
L 481.08252 -49.0258 
L 480.519869 -49.077134 
L 479.953266 -49.282202 
L 479.364125 -49.464147 
L 478.842247 -49.829897 
L 478.367634 -50.073443 
L 477.845981 -50.278054 
L 477.277143 -50.359401 
L 476.783316 -50.493008 
L 476.265007 -50.704068 
L 475.720267 -50.937942 
L 475.109136 -51.142731 
L 474.438404 -51.328919 
L 473.832935 -51.847621 
L 473.360996 -51.841973 
L 472.783417 -52.114774 
L 472.205544 -52.220891 
L 471.751843 -52.467149 
L 470.993513 -52.655797 
L 470.242087 -53.029763 
L 469.696813 -53.234029 
L 469.331026 -53.846089 
L 468.824102 -54.120241 
L 468.138414 -54.303074 
L 467.76982 -54.451382 
L 467.335316 -54.518339 
L 466.583966 -54.540249 
L 465.849445 -54.900547 
L 465.35051 -54.908267 
L 465.002725 -54.750586 
L 464.514752 -54.756969 
L 463.849302 -54.710048 
L 463.101974 -54.605114 
L 462.576698 -54.579088 
L 462.14515 -54.696279 
L 461.41566 -54.663803 
L 460.725034 -54.77025 
L 460.386652 -54.811007 
L 459.872684 -54.780896 
L 459.200463 -55.0704 
L 458.662658 -55.106144 
L 458.124371 -55.115967 
L 457.693436 -55.226451 
L 457.08047 -55.484363 
L 456.483898 -55.49614 
L 455.965019 -55.515276 
L 455.443464 -55.637622 
L 454.790389 -55.733288 
L 454.058746 -55.750314 
L 453.565989 -56.176276 
L 452.975469 -56.441409 
L 452.553512 -56.530546 
L 452.118602 -56.724543 
L 451.381402 -56.802225 
L 450.868187 -56.8967 
L 450.520047 -57.304976 
L 449.904929 -57.534674 
L 449.328676 -57.516257 
L 448.726437 -57.520669 
L 448.134714 -57.579434 
L 447.55167 -57.811623 
L 446.828729 -57.754333 
L 446.409216 -57.85293 
L 445.95105 -57.918146 
L 445.378884 -58.102317 
L 444.954709 -58.131476 
L 444.336149 -58.281209 
L 443.773326 -58.496376 
L 443.34853 -58.677713 
L 442.713397 -58.932616 
L 442.005476 -58.855383 
L 441.471097 -58.783066 
L 440.983151 -58.838631 
L 440.338007 -58.687623 
L 439.808391 -58.607596 
L 439.267068 -58.401482 
L 438.530626 -58.256438 
L 437.930664 -58.028015 
L 437.426109 -57.944248 
L 437.030409 -57.799521 
L 436.571405 -57.590709 
L 435.768219 -57.487501 
L 435.078295 -57.488714 
L 434.739548 -57.434961 
L 434.157768 -57.451904 
L 433.358768 -57.502222 
L 432.805771 -57.603824 
L 432.411697 -57.541842 
L 432.022768 -57.830127 
L 431.500017 -57.728763 
L 430.863835 -57.892627 
L 430.352001 -57.765081 
L 429.843409 -57.8084 
L 429.1848 -57.808085 
L 428.500805 -57.900823 
L 427.834821 -58.219427 
L 427.281311 -58.328248 
L 426.879157 -58.555707 
L 426.493793 -58.474129 
L 425.80575 -58.404725 
L 425.080303 -58.460939 
L 424.648121 -58.544258 
L 424.082886 -58.616811 
L 423.533413 -58.751478 
L 423.198788 -58.858531 
L 422.665535 -58.995981 
L 422.075736 -59.227556 
L 421.375119 -59.424124 
L 420.684903 -59.542399 
L 420.287386 -59.78063 
L 419.901642 -60.17413 
L 419.279679 -60.215215 
L 418.517022 -60.402802 
L 417.899311 -60.394667 
L 417.407982 -60.507546 
L 416.739705 -61.022829 
L 416.281611 -61.267334 
L 415.933172 -61.378061 
L 415.28947 -61.516077 
L 414.527778 -61.604492 
L 414.026547 -61.891923 
L 413.56456 -62.068492 
L 412.980365 -62.085025 
L 412.320909 -62.285641 
L 411.64596 -62.538708 
L 411.28992 -62.524041 
L 410.854844 -62.813099 
L 410.265237 -63.215848 
L 409.61154 -63.390202 
L 408.890171 -63.604039 
L 408.384869 -63.82771 
L 407.837431 -64.047566 
L 407.201057 -64.469716 
L 406.698907 -64.938765 
L 406.268422 -65.046202 
L 405.661295 -65.337379 
L 404.962108 -65.545009 
L 404.48826 -65.793156 
L 404.156668 -66.120816 
L 403.694381 -66.456036 
L 403.133684 -66.658303 
L 402.603165 -66.866542 
L 401.930722 -67.404896 
L 401.339736 -67.583662 
L 400.776595 -67.96864 
L 400.056174 -68.21583 
L 399.375174 -68.408897 
L 399.046458 -68.503999 
L 398.600329 -68.89378 
L 397.985085 -69.173135 
L 397.406543 -69.345101 
L 396.648096 -69.763503 
L 396.246862 -70.092122 
L 395.87324 -70.432233 
L 395.228634 -70.833582 
L 394.533927 -71.203575 
L 393.96308 -71.480545 
L 393.433686 -71.777756 
L 392.80282 -71.921985 
L 392.184018 -72.018775 
L 391.733822 -72.688017 
L 391.181674 -73.058317 
L 390.551092 -73.520425 
L 390.138539 -73.729474 
L 389.700963 -74.109152 
L 389.022797 -74.266465 
L 388.246014 -74.723908 
L 387.720769 -74.871644 
L 387.372757 -75.432426 
L 386.861933 -75.987808 
L 386.265404 -76.424729 
L 385.761252 -76.973082 
L 385.072334 -77.153644 
L 384.575877 -77.508695 
L 384.093591 -77.88867 
L 383.355355 -78.401529 
L 382.794052 -78.717671 
L 382.379754 -79.388623 
L 381.929717 -79.936469 
L 381.386139 -80.152597 
L 380.786783 -80.55028 
L 380.012611 -81.031428 
L 379.260398 -81.369867 
L 378.72796 -81.616472 
L 378.361885 -82.547413 
L 377.997805 -82.937159 
L 377.375749 -83.00363 
L 376.617276 -83.0265 
L 376.126048 -83.355256 
L 375.692737 -83.515924 
L 375.03347 -83.993803 
L 374.462587 -84.08093 
L 373.908317 -84.414582 
L 373.205153 -84.596218 
L 372.548057 -84.736656 
L 372.16228 -85.16561 
L 371.639103 -85.774597 
L 371.020779 -86.099417 
L 370.464357 -86.648509 
L 370.017801 -86.982017 
L 369.651503 -87.299035 
L 369.077322 -87.877702 
L 368.301679 -88.420553 
L 367.577429 -88.59878 
L 367.114863 -89.152046 
L 366.587356 -89.480913 
L 366.013102 -89.774018 
L 365.546574 -89.975163 
L 364.887274 -91.075708 
L 364.189076 -91.553989 
L 363.780545 -92.206562 
L 363.463171 -92.379143 
L 362.901393 -92.675744 
L 362.167008 -92.842536 
L 361.592128 -93.272254 
L 361.121769 -93.663934 
L 360.587771 -93.984935 
L 360.010587 -94.159818 
L 359.402084 -94.580348 
L 358.849229 -94.726944 
L 358.274573 -94.837875 
L 357.562863 -94.973911 
L 357.057158 -95.248737 
L 356.763471 -95.683768 
L 356.179733 -96.08287 
L 355.549397 -96.487937 
L 354.909708 -97.06782 
L 354.388594 -97.345955 
L 354.068912 -98.192245 
L 353.280752 -98.516379 
L 352.553882 -98.754 
L 352.25489 -99.138686 
L 351.601142 -99.52781 
L 350.848864 -100.205069 
L 350.44485 -100.709975 
L 349.816839 -100.728001 
L 349.296835 -101.075144 
L 348.958301 -101.127264 
L 348.261451 -101.44225 
L 347.521367 -101.894561 
L 346.9657 -102.009975 
L 346.488963 -102.162477 
L 345.892695 -102.466251 
L 345.359998 -102.711171 
L 344.788287 -102.928756 
L 344.328626 -103.076159 
L 343.993582 -103.177619 
L 343.372046 -103.503745 
L 342.767699 -103.632284 
L 342.191762 -103.722416 
L 341.628859 -104.367698 
L 341.166034 -104.822509 
L 340.618009 -105.006661 
L 340.065048 -105.029391 
L 339.464486 -105.426172 
L 338.795401 -105.713654 
L 338.139698 -106.075756 
L 337.456416 -106.322926 
L 336.934442 -106.777169 
L 336.407707 -107.007507 
L 335.86646 -107.409571 
L 335.40671 -107.735706 
L 334.782283 -108.096997 
L 334.109138 -108.442275 
L 333.525905 -108.816107 
L 332.960046 -109.029582 
L 332.573789 -109.380903 
L 332.117797 -109.674109 
L 331.509334 -110.280853 
L 330.983654 -110.546788 
L 330.418181 -110.989951 
L 329.754568 -111.160908 
L 329.147821 -111.499449 
L 328.607631 -111.766935 
L 328.138181 -111.926164 
L 327.604198 -112.252643 
L 327.081573 -112.780594 
L 326.643091 -113.035439 
L 325.930717 -113.499312 
L 325.228568 -114.062444 
L 324.895154 -114.365131 
L 324.317055 -114.507493 
L 323.699148 -114.783801 
L 323.190826 -115.1902 
L 322.54214 -115.425139 
L 322.140398 -115.917197 
L 321.532344 -116.179528 
L 320.902818 -116.451545 
L 320.542241 -116.824467 
L 319.90312 -117.063612 
L 319.315786 -117.006865 
L 318.674822 -117.20571 
L 317.886431 -117.200304 
L 317.323333 -117.552384 
L 316.79441 -117.534642 
L 316.446771 -117.833644 
L 316.073372 -117.959864 
L 315.36953 -118.242631 
L 314.787354 -118.224278 
L 314.267041 -118.686946 
L 313.542176 -118.857046 
L 312.995223 -119.007077 
L 312.597243 -119.28263 
L 311.998365 -119.655092 
L 311.248893 -119.742763 
L 310.753983 -119.813062 
L 310.392105 -120.197811 
L 309.694053 -120.72939 
L 308.970425 -120.79536 
L 308.549222 -120.710697 
L 308.062693 -121.112158 
L 307.543099 -121.227887 
L 307.133655 -121.414055 
L 306.559331 -121.509823 
L 305.976108 -122.005263 
L 305.38583 -122.293063 
L 304.651015 -122.497216 
L 303.949735 -122.948323 
L 303.486828 -123.435284 
L 303.123026 -124.08411 
L 302.463448 -124.614629 
L 301.732238 -124.711762 
L 301.177102 -125.251045 
L 300.634235 -125.163423 
L 300.109511 -125.204545 
L 299.617111 -125.319733 
L 299.032509 -126.1534 
L 298.461796 -126.472301 
L 298.053907 -126.603902 
L 297.639338 -127.56951 
L 297.120348 -128.027759 
L 296.510069 -128.411438 
L 295.786737 -128.999431 
L 295.185392 -129.659188 
L 294.7669 -130.227222 
L 294.077938 -130.356079 
L 293.421903 -130.758217 
L 293.074102 -130.996885 
L 292.470503 -131.197721 
L 291.853592 -131.396703 
L 291.395927 -131.494769 
L 290.719351 -131.793055 
L 290.194879 -132.233134 
L 289.849173 -133.232174 
L 289.104073 -134.202155 
L 288.419454 -134.747811 
L 287.994486 -135.44907 
L 287.452497 -136.215218 
L 286.913165 -136.695749 
L 286.217195 -136.906888 
L 285.757019 -137.526789 
L 285.226191 -137.91597 
L 284.456075 -138.399191 
L 284.110678 -139.124725 
L 283.623909 -139.410521 
L 282.847838 -139.875489 
L 282.410565 -140.208971 
L 282.096514 -140.545701 
L 281.495955 -140.625642 
L 280.709249 -141.203067 
L 280.193321 -141.504166 
L 279.589234 -142.163589 
L 278.859985 -142.27731 
L 278.511274 -143.369422 
L 278.085146 -143.798698 
L 277.557398 -144.134958 
L 276.934408 -144.658299 
L 276.222064 -144.876602 
L 275.766685 -145.10125 
L 275.239566 -145.592301 
L 274.525197 -146.101354 
L 273.976419 -146.66126 
L 273.533355 -146.860612 
L 272.961627 -147.164093 
L 272.216465 -148.145028 
L 271.689283 -148.963387 
L 271.332122 -149.587337 
L 270.677816 -150.563111 
L 270.03896 -150.941082 
L 269.642194 -151.422177 
L 269.046887 -152.105724 
L 268.448908 -152.422798 
L 267.842249 -152.587204 
L 267.381965 -153.079301 
L 266.954434 -153.839572 
L 266.30057 -154.115624 
L 265.679956 -154.45084 
L 265.087063 -155.206942 
L 264.432801 -155.674318 
L 263.957944 -156.045971 
L 263.531258 -156.431596 
L 262.887089 -157.17839 
L 262.291392 -157.88289 
L 261.775759 -158.53129 
L 261.21392 -158.709914 
L 260.607824 -160.040242 
L 259.9463 -160.511328 
L 259.418582 -161.175204 
L 259.120105 -162.221701 
L 258.647956 -162.967574 
L 258.004086 -163.559091 
L 257.476456 -164.278927 
L 256.809406 -164.948738 
L 256.051617 -165.298159 
L 255.601953 -165.724061 
L 254.989446 -166.355176 
L 254.450343 -167.054745 
L 254.044766 -167.440869 
L 253.369442 -168.794113 
L 252.910478 -169.426537 
L 252.315503 -170.215634 
L 251.62007 -170.689116 
L 251.217048 -171.392553 
L 250.727517 -172.01634 
L 250.192045 -172.630892 
L 249.495257 -173.53995 
L 248.870656 -174.372476 
L 248.332059 -174.984765 
L 247.730533 -175.754479 
L 247.282416 -176.70371 
L 246.623782 -177.503578 
L 245.951348 -178.570862 
L 245.620951 -179.540347 
L 245.242631 -180.278847 
L 244.560799 -181.145923 
L 243.907418 -181.784069 
L 243.25477 -182.593201 
L 242.695973 -183.246629 
L 242.382436 -183.976538 
L 241.853308 -184.992456 
L 241.193805 -185.689171 
L 240.474467 -186.467597 
L 239.904403 -187.00856 
L 239.534085 -188.023478 
L 239.053141 -188.614176 
L 238.499197 -189.312031 
L 237.865892 -190.059349 
L 237.277951 -190.465223 
L 236.728272 -191.044055 
L 236.120752 -191.648318 
L 235.614009 -191.811029 
L 235.016644 -192.333164 
L 234.267228 -192.817744 
L 233.823952 -193.374763 
L 233.489999 -193.934703 
L 232.952095 -194.422908 
L 232.204899 -194.99805 
L 231.4363 -196.205926 
L 230.861508 -197.041458 
L 230.422892 -197.720821 
L 229.88644 -198.149377 
L 229.460356 -198.777373 
L 228.903649 -199.723953 
L 228.071716 -200.462532 
L 227.586393 -201.102312 
L 227.114837 -201.866456 
L 226.604217 -202.55461 
L 226.0764 -203.435869 
L 225.446592 -204.022229 
L 224.780625 -205.032207 
L 224.271573 -205.658212 
L 223.727204 -207.018057 
L 223.172527 -208.354116 
L 222.631414 -209.356446 
L 222.106232 -210.49764 
L 221.61354 -211.450474 
L 221.050389 -211.98369 
L 220.496142 -212.576222 
L 219.850942 -213.367912 
L 219.269491 -213.783144 
L 218.644965 -214.277837 
L 218.243509 -214.910736 
L 217.900682 -215.44475 
L 217.116631 -215.882415 
L 216.492715 -216.638795 
L 215.987008 -217.227215 
L 215.408859 -218.315783 
L 214.883417 -219.075468 
L 214.364919 -219.405786 
L 213.962782 -219.884237 
L 213.246181 -220.48801 
L 212.506086 -221.08761 
L 212.171279 -221.892107 
L 211.764318 -222.806339 
L 211.151804 -223.343882 
L 210.619183 -223.613816 
L 210.088649 -224.178981 
L 209.459446 -224.689147 
L 208.911294 -224.974358 
L 208.29427 -225.833977 
L 207.518072 -226.55309 
L 206.939512 -226.970754 
L 206.589946 -227.315139 
L 205.937599 -228.225293 
L 205.378865 -228.459937 
L 205.014353 -228.958151 
L 204.466273 -229.096738 
L 203.971155 -229.71573 
L 203.426574 -230.242801 
L 202.821157 -230.527838 
L 202.130934 -231.059114 
L 201.492228 -231.610048 
L 200.928139 -231.891633 
L 200.359304 -232.330432 
L 199.676166 -232.62892 
L 199.052918 -232.898482 
L 198.534651 -233.617575 
L 198.159206 -233.765583 
L 197.798179 -233.721658 
L 197.046304 -233.882293 
L 196.382103 -234.063505 
L 195.880168 -234.000069 
L 195.397237 -234.316856 
L 194.897752 -234.499484 
L 194.273052 -234.602459 
L 193.804598 -234.678999 
L 193.193264 -234.883977 
L 192.508841 -235.071435 
L 191.923078 -235.546722 
L 191.45198 -235.642401 
L 190.872451 -235.991482 
L 190.138444 -236.173656 
L 189.606843 -236.917945 
L 189.184847 -237.134435 
L 188.781651 -237.414578 
L 188.185638 -237.505716 
L 187.476435 -237.89394 
L 186.937726 -237.877598 
L 186.563891 -237.868376 
L 185.914709 -237.758117 
L 185.350654 -237.79406 
L 184.943736 -237.900313 
L 184.207803 -238.310385 
L 183.581655 -238.527175 
L 183.19336 -238.584694 
L 182.564805 -238.440802 
L 181.862254 -238.385602 
L 181.384447 -238.367879 
L 180.86341 -238.464126 
L 180.385554 -238.766534 
L 179.759623 -239.030325 
L 179.045183 -239.213417 
L 178.510466 -239.299901 
L 177.928029 -239.426326 
L 177.512645 -239.414606 
L 177.159202 -239.73505 
L 176.637629 -240.161618 
L 175.954499 -240.577196 
L 175.151617 -240.701435 
L 174.487521 -240.761404 
L 174.133671 -240.754127 
L 173.769771 -240.833681 
L 173.040054 -241.087644 
L 172.34057 -241.050391 
L 171.898524 -241.0235 
L 171.360685 -241.135852 
L 170.880232 -241.189818 
L 170.3037 -241.191426 
L 169.574393 -241.60106 
L 169.018861 -241.663767 
L 168.526152 -241.800728 
L 168.03572 -242.003425 
L 167.398926 -241.89197 
L 166.714619 -241.913155 
L 166.207377 -241.905729 
L 165.826436 -241.877299 
L 165.345815 -242.017991 
L 164.773809 -242.185735 
L 164.114588 -242.056489 
L 163.615297 -242.212547 
L 163.245443 -242.11086 
L 162.543918 -242.103995 
L 161.941577 -242.057957 
L 161.36098 -241.95015 
L 160.614317 -241.899412 
L 160.196947 -241.88471 
L 159.774176 -241.849819 
L 159.024845 -242.051969 
L 158.506096 -242.048579 
L 158.164383 -241.79575 
L 157.507421 -241.734206 
L 156.784389 -241.590869 
L 156.215243 -241.670749 
L 155.580078 -241.798781 
L 155.030568 -241.782864 
L 154.720751 -241.711897 
L 154.064506 -241.70773 
L 153.33627 -241.712695 
L 153.019071 -241.702846 
L 152.557257 -241.863452 
L 151.768271 -242.132994 
L 151.082851 -242.321472 
L 150.625586 -242.400784 
L 150.024754 -242.756956 
L 149.508973 -242.910824 
L 149.075535 -243.072032 
L 148.546179 -243.202491 
L 148.054273 -243.056934 
L 147.313557 -243.310878 
L 146.759684 -243.395459 
L 146.416783 -243.599247 
L 145.812573 -243.630241 
L 145.291901 -243.75824 
L 144.791234 -243.905096 
L 144.065204 -244.198179 
L 143.472894 -244.254231 
L 142.931383 -244.466037 
L 142.255983 -244.657143 
L 141.673721 -244.880576 
L 141.275363 -245.046243 
L 140.659498 -245.511032 
L 139.890314 -246.020019 
L 139.452904 -245.971596 
L 138.955737 -245.9823 
L 138.307351 -246.034103 
L 137.73191 -246.097012 
L 137.297082 -246.226675 
L 136.96032 -246.487009 
L 136.215483 -246.707658 
L 135.568356 -246.807207 
L 135.244384 -246.967805 
L 134.647462 -247.01402 
L 134.034567 -246.89729 
L 133.508402 -247.022041 
L 132.876592 -247.146136 
L 132.297296 -247.092578 
L 131.74128 -247.170395 
L 131.255568 -247.330989 
L 130.807046 -247.285486 
L 130.178803 -247.313877 
L 129.45761 -247.167646 
L 129.004828 -247.275542 
L 128.576175 -247.209873 
L 128.007561 -247.228852 
L 127.274398 -247.130642 
L 126.505277 -247.123729 
L 126.124749 -247.11083 
L 125.54388 -247.162834 
L 124.851144 -247.189946 
L 124.543625 -247.388291 
L 124.17435 -247.410225 
L 123.369088 -247.476712 
L 122.749674 -247.437171 
L 122.42153 -247.345501 
L 121.933114 -247.289266 
L 121.272867 -247.213861 
L 120.543521 -247.240163 
L 120.028209 -247.120783 
L 119.587229 -247.243725 
L 118.87265 -247.092627 
L 118.351545 -247.068873 
L 117.867692 -247.097522 
L 117.295538 -247.261064 
L 116.859433 -247.171418 
L 116.336894 -247.119844 
L 115.593761 -247.123212 
L 114.873764 -247.074629 
L 114.336679 -247.124932 
L 113.772067 -246.924491 
L 113.263134 -246.815954 
L 112.71697 -246.871174 
L 112.300067 -246.827307 
L 111.88961 -246.745706 
L 111.342969 -246.643414 
L 110.58697 -246.55509 
L 109.810426 -246.449965 
L 109.257716 -246.469855 
L 108.661585 -246.41901 
L 108.181148 -246.319546 
L 107.708376 -246.121658 
L 107.186107 -246.229417 
L 106.583633 -246.06089 
L 106.085781 -246.020284 
L 105.675245 -246.094842 
L 105.090991 -245.959432 
L 104.424849 -245.8907 
L 103.818534 -245.975556 
L 103.377238 -245.924365 
L 102.940885 -245.818 
L 102.439035 -245.894803 
L 101.876878 -245.924501 
L 101.247158 -245.747503 
L 100.57743 -245.59554 
L 100.041036 -245.660787 
L 99.52546 -245.610838 
L 98.80891 -245.55057 
L 98.285478 -245.427438 
L 97.808045 -245.417692 
L 97.290191 -245.402395 
L 96.726572 -245.784232 
L 96.119967 -245.757965 
L 95.594018 -245.818586 
L 94.814411 -245.667952 
L 94.307404 -245.485662 
L 93.760292 -245.439358 
L 93.025723 -245.375089 
L 92.702739 -245.557513 
L 92.32112 -245.63044 
L 91.608918 -245.632785 
L 90.936988 -245.526654 
L 90.453893 -245.42207 
L 89.901681 -245.458885 
L 89.421619 -245.442965 
L 88.958644 -245.559352 
L 88.290725 -245.581559 
L 87.73639 -245.696108 
L 87.174515 -245.636306 
L 86.61124 -245.546336 
L 85.948672 -245.407426 
L 85.419251 -245.471337 
L 84.880936 -245.326498 
L 84.108689 -245.239094 
L 83.5725 -245.099371 
L 83.248752 -244.944982 
L 82.632907 -245.030849 
L 81.91263 -244.962005 
L 81.554408 -244.927755 
L 80.930798 -245.011672 
L 80.238711 -245.11743 
L 79.859634 -245.074871 
L 79.464164 -244.816813 
L 78.852301 -244.583115 
L 78.078167 -244.452391 
L 77.647263 -244.417767 
L 77.263539 -244.524925 
L 76.693533 -244.451615 
L 76.053581 -244.374917 
L 75.437457 -244.28046 
L 75.019263 -244.37871 
L 74.363753 -244.178652 
L 73.744412 -244.173219 
L 73.247199 -244.199253 
L 72.54719 -244.158239 
L 71.832254 -244.157877 
L 71.493739 -244.059644 
L 70.944461 -243.923795 
L 70.111548 -243.974209 
L 69.789957 -244.015572 
L 69.396072 -244.061268 
L 68.80102 -243.942359 
L 68.161704 -243.989478 
L 67.430594 -243.939371 
L 66.834177 -243.830383 
L 66.404454 -243.772669 
L 65.930317 -243.646084 
L 65.339906 -243.52083 
L 64.892426 -243.388876 
L 64.346386 -243.334682 
L 63.631702 -243.295779 
L 62.977739 -243.33973 
L 62.406865 -243.257836 
L 61.921734 -243.181746 
L 61.471995 -243.087472 
L 60.802023 -243.057208 
L 60.204584 -243.10091 
L 59.815252 -243.055599 
L 59.302616 -243.061939 
L 58.638713 -243.226419 
L 57.950067 -243.1224 
L 57.372036 -243.050202 
L 56.917911 -242.953298 
L 56.354446 -242.866292 
L 55.750179 -242.836951 
L 55.354714 -242.762318 
L 54.764116 -242.640508 
L 54.096973 -242.495925 
L 53.607611 -242.450735 
L 52.970613 -242.5596 
L 52.345749 -242.666633 
L 51.861515 -242.811906 
L 51.442128 -242.645869 
L 50.879859 -242.716925 
L 50.295902 -242.808266 
L 49.748371 -242.852389 
L 49.047887 -243.185409 
L 48.546616 -243.487467 
L 48.070656 -243.767979 
L 47.621869 -244.299842 
L 46.951378 -244.763946 
L 46.174815 -245.386769 
L 45.655604 -245.764856 
L 45.131218 -246.011728 
L 44.750317 -245.696662 
L 44.110091 -245.041323 
z
" style="stroke: #808080; stroke-opacity: 0.5"/>
    </defs>
    <g clip-path="url(#p1f16e8e87d)">
     <use xlink:href="#mefcdfe35ef" x="0" y="276.54" style="fill: #808080; fill-opacity: 0.5; stroke: #808080; stroke-opacity: 0.5"/>
    </g>
   </g>
   <g id="line2d_23">
    <path d="M 44.110091 34.162033 
L 45.131218 33.225672 
L 45.655604 33.233753 
L 47.621869 34.773252 
L 48.070656 35.445915 
L 49.748371 36.738937 
L 50.879859 36.991581 
L 51.442128 37.002188 
L 51.861515 36.703487 
L 53.607611 36.553646 
L 55.750179 36.092687 
L 57.372036 36.005693 
L 62.977739 36.581641 
L 64.346386 36.588366 
L 64.892426 36.557893 
L 65.339906 36.400675 
L 66.404454 36.14936 
L 66.834177 36.036147 
L 67.430594 36.022543 
L 68.80102 36.261829 
L 69.396072 36.06242 
L 70.111548 36.258561 
L 71.493739 36.173188 
L 71.832254 36.091504 
L 72.54719 36.092027 
L 73.744412 35.952931 
L 77.263539 35.542302 
L 79.464164 34.904108 
L 79.859634 34.62222 
L 80.238711 34.510862 
L 80.930798 34.479313 
L 81.554408 34.584684 
L 82.632907 34.299537 
L 87.73639 33.388741 
L 88.290725 33.50439 
L 90.936988 33.361707 
L 91.608918 33.166321 
L 92.32112 33.11926 
L 93.025723 33.311817 
L 94.307404 33.234203 
L 96.726572 33.030294 
L 97.290191 33.119482 
L 100.041036 32.58245 
L 100.57743 32.61517 
L 101.876878 32.266625 
L 102.940885 32.33352 
L 103.818534 31.997749 
L 106.583633 31.680754 
L 107.186107 31.54366 
L 108.181148 31.495597 
L 109.257716 31.236134 
L 110.58697 31.143682 
L 113.263134 30.963509 
L 117.295538 31.096577 
L 118.87265 31.182651 
L 119.587229 31.032454 
L 120.028209 31.162672 
L 120.543521 31.064963 
L 124.543625 31.069508 
L 124.851144 31.228039 
L 131.74128 31.291964 
L 132.297296 31.39559 
L 132.876592 31.33444 
L 134.034567 31.430861 
L 134.647462 31.651136 
L 135.244384 31.691772 
L 135.568356 31.91387 
L 136.215483 32.00437 
L 137.297082 32.526287 
L 138.307351 32.830572 
L 139.890314 32.997469 
L 141.673721 33.940974 
L 143.472894 34.486016 
L 144.065204 34.542089 
L 145.812573 35.152378 
L 146.416783 35.129215 
L 146.759684 35.249283 
L 147.313557 35.308835 
L 148.054273 35.608312 
L 149.075535 35.699853 
L 150.024754 35.993291 
L 151.082851 36.231005 
L 154.064506 36.867843 
L 155.580078 36.918208 
L 156.784389 37.046134 
L 157.507421 36.949579 
L 158.506096 36.997604 
L 159.024845 36.998971 
L 160.614317 37.397085 
L 163.615297 37.585796 
L 164.114588 37.841601 
L 165.345815 37.869757 
L 165.826436 37.992826 
L 166.207377 37.93274 
L 168.526152 38.195499 
L 170.3037 38.671711 
L 170.880232 38.67234 
L 174.133671 39.695627 
L 175.151617 39.865419 
L 175.954499 40.053017 
L 177.159202 40.828072 
L 177.512645 41.261287 
L 179.759623 41.975676 
L 180.86341 42.590543 
L 184.207803 43.379557 
L 184.943736 43.814621 
L 185.914709 44.124864 
L 186.937726 44.076784 
L 188.185638 44.637868 
L 188.781651 44.935887 
L 189.184847 45.281808 
L 189.606843 45.407918 
L 190.138444 45.917626 
L 190.872451 46.065056 
L 191.45198 46.596091 
L 191.923078 46.68889 
L 192.508841 47.149024 
L 193.193264 47.482745 
L 194.897752 47.989854 
L 195.397237 48.167972 
L 195.880168 48.496 
L 196.382103 48.665251 
L 197.046304 49.056999 
L 198.534651 49.647228 
L 199.052918 50.085237 
L 199.676166 50.274691 
L 200.928139 51.079043 
L 201.492228 51.437015 
L 202.130934 52.102769 
L 203.426574 52.917122 
L 204.466273 53.897274 
L 205.014353 54.137015 
L 205.378865 54.582123 
L 205.937599 55.026498 
L 206.939512 56.096981 
L 208.29427 56.985433 
L 208.911294 57.70861 
L 210.088649 58.395416 
L 211.764318 59.768024 
L 212.171279 60.260635 
L 212.506086 60.867503 
L 213.962782 61.719496 
L 214.364919 62.166028 
L 214.883417 62.477387 
L 215.987008 63.961621 
L 217.900682 65.33125 
L 218.644965 66.529865 
L 220.496142 68.160268 
L 221.61354 69.396464 
L 222.631414 71.171537 
L 223.727204 72.889003 
L 224.271573 74.012614 
L 226.0764 75.982643 
L 228.071716 78.779994 
L 228.903649 79.355682 
L 229.88644 80.862997 
L 232.204899 83.673294 
L 233.489999 84.714414 
L 233.823952 85.359318 
L 234.267228 85.807485 
L 235.016644 86.242664 
L 236.728272 87.700848 
L 237.277951 88.428384 
L 237.865892 88.876007 
L 239.534085 91.011265 
L 239.904403 91.94147 
L 241.853308 94.183741 
L 242.695973 96.310138 
L 244.560799 98.354523 
L 245.242631 99.162528 
L 245.951348 101.020782 
L 247.282416 102.670612 
L 247.730533 103.621961 
L 248.332059 104.447082 
L 249.495257 106.384501 
L 252.315503 110.119228 
L 252.910478 110.719857 
L 254.044766 112.586347 
L 254.450343 113.108655 
L 254.989446 114.058202 
L 258.004086 117.020604 
L 258.647956 117.731166 
L 259.120105 118.555843 
L 259.418582 119.414198 
L 259.9463 120.417389 
L 261.21392 121.89999 
L 262.887089 123.763695 
L 263.531258 124.31778 
L 263.957944 124.91806 
L 265.087063 125.567448 
L 265.679956 126.157794 
L 266.954434 126.914403 
L 267.381965 127.624036 
L 267.842249 127.995884 
L 268.448908 128.257213 
L 269.046887 128.815944 
L 269.642194 129.182621 
L 270.03896 129.622124 
L 270.677816 129.942052 
L 272.961627 132.312574 
L 274.525197 133.801287 
L 275.239566 134.073799 
L 275.766685 134.754397 
L 276.222064 134.895267 
L 277.557398 135.668471 
L 278.511274 136.319274 
L 278.859985 137.152362 
L 279.589234 137.496576 
L 280.709249 138.429678 
L 282.410565 139.248031 
L 282.847838 139.609047 
L 283.623909 140.072236 
L 284.110678 140.569803 
L 284.456075 141.167313 
L 285.226191 141.535026 
L 285.757019 141.951958 
L 286.217195 142.554085 
L 286.913165 142.84841 
L 287.994486 144.224977 
L 288.419454 144.945516 
L 289.104073 145.410123 
L 289.849173 146.057393 
L 290.194879 146.927932 
L 290.719351 147.614115 
L 291.853592 148.400621 
L 293.074102 149.344298 
L 293.421903 149.69352 
L 294.077938 150.02708 
L 294.7669 150.209107 
L 295.786737 151.382253 
L 296.510069 152.08099 
L 297.120348 152.380989 
L 297.639338 152.771447 
L 298.053907 153.368299 
L 298.461796 153.683305 
L 299.032509 153.937615 
L 299.617111 154.560744 
L 300.109511 154.606064 
L 300.634235 154.833134 
L 301.177102 154.700581 
L 301.732238 155.172853 
L 302.463448 155.331052 
L 303.123026 155.785434 
L 303.949735 156.671774 
L 304.651015 157.12453 
L 305.976108 157.602103 
L 306.559331 157.996529 
L 307.133655 158.213123 
L 307.543099 158.240941 
L 310.392105 159.411201 
L 310.753983 159.817729 
L 311.998365 159.899056 
L 312.597243 160.094517 
L 312.995223 160.375022 
L 313.542176 160.587412 
L 314.267041 160.577472 
L 314.787354 160.857554 
L 315.36953 160.79011 
L 317.323333 161.326092 
L 317.886431 161.710413 
L 318.674822 161.660791 
L 319.315786 161.832699 
L 319.90312 162.185644 
L 320.542241 162.354848 
L 320.902818 162.747093 
L 322.140398 163.239378 
L 322.54214 163.690333 
L 323.190826 163.840641 
L 323.699148 164.265041 
L 324.895154 164.828688 
L 325.228568 165.146566 
L 327.081573 166.330186 
L 327.604198 166.914519 
L 329.147821 167.692614 
L 329.754568 167.957017 
L 330.983654 168.357168 
L 331.509334 168.701697 
L 332.573789 169.141025 
L 332.960046 169.421466 
L 334.782283 170.240461 
L 335.86646 171.068083 
L 336.407707 171.434977 
L 336.934442 171.600812 
L 337.456416 171.898468 
L 339.464486 172.639401 
L 340.065048 173.181421 
L 341.166034 173.477974 
L 342.191762 174.426458 
L 345.892695 176.254022 
L 348.261451 177.615807 
L 348.958301 178.064112 
L 349.296835 178.075008 
L 349.816839 178.393434 
L 350.44485 178.546743 
L 350.848864 178.92923 
L 353.280752 180.295985 
L 354.068912 180.585061 
L 354.388594 181.232416 
L 356.763471 182.718803 
L 357.057158 183.150393 
L 357.562863 183.35236 
L 358.849229 183.61541 
L 360.010587 184.312466 
L 360.587771 184.564305 
L 361.592128 185.401252 
L 362.167008 185.966991 
L 363.463171 186.481097 
L 363.780545 186.762579 
L 364.189076 187.43097 
L 364.887274 187.835217 
L 366.013102 188.676317 
L 366.587356 188.88943 
L 367.114863 189.213402 
L 367.577429 189.72495 
L 369.077322 190.469131 
L 370.464357 191.463261 
L 371.020779 192.201279 
L 371.639103 192.42077 
L 373.205153 193.381691 
L 373.908317 193.528838 
L 374.462587 193.902497 
L 375.03347 194.018515 
L 376.617276 194.867221 
L 377.375749 195.007138 
L 378.361885 195.74358 
L 378.72796 196.573547 
L 380.786783 197.771675 
L 381.929717 198.59657 
L 383.355355 200.209996 
L 384.575877 200.98583 
L 385.072334 201.461202 
L 385.761252 201.744614 
L 386.265404 202.276452 
L 386.861933 202.739601 
L 388.246014 204.345324 
L 390.138539 205.296359 
L 391.181674 206.234321 
L 392.184018 207.087873 
L 392.80282 207.24231 
L 393.96308 207.817403 
L 395.228634 208.859734 
L 395.87324 209.168331 
L 396.648096 210.016957 
L 398.600329 210.872668 
L 399.375174 211.591338 
L 400.776595 211.938282 
L 401.339736 212.362556 
L 403.133684 213.127489 
L 403.694381 213.29617 
L 404.962108 214.144586 
L 407.201057 215.193578 
L 408.890171 216.092213 
L 410.854844 216.740104 
L 411.28992 217.114134 
L 412.980365 217.64478 
L 413.56456 217.657943 
L 415.933172 218.586837 
L 416.739705 219.125276 
L 417.407982 219.447893 
L 419.279679 219.670913 
L 420.287386 219.797855 
L 420.684903 220.061056 
L 421.375119 220.160157 
L 422.665535 220.72037 
L 423.198788 220.812146 
L 423.533413 221.039706 
L 425.080303 221.228053 
L 426.879157 221.135514 
L 428.500805 221.424942 
L 429.1848 221.473406 
L 430.863835 221.352591 
L 431.500017 221.456251 
L 433.358768 221.336322 
L 435.078295 221.386135 
L 437.930664 220.941281 
L 438.530626 220.758603 
L 441.471097 220.476182 
L 442.713397 220.47126 
L 446.828729 221.744839 
L 447.55167 221.757081 
L 448.134714 221.883617 
L 449.904929 221.878917 
L 450.520047 221.982694 
L 450.868187 222.20667 
L 452.118602 222.276169 
L 453.565989 222.881166 
L 454.058746 223.111914 
L 457.08047 223.569633 
L 458.662658 223.858325 
L 459.200463 223.876903 
L 459.872684 224.113955 
L 462.14515 224.313753 
L 462.576698 224.470607 
L 465.849445 224.452739 
L 466.583966 224.796086 
L 467.76982 224.837305 
L 468.824102 225.043427 
L 469.331026 225.153122 
L 469.696813 225.518671 
L 470.242087 225.603192 
L 470.993513 225.914616 
L 472.783417 226.359013 
L 473.832935 226.681438 
L 474.438404 227.05874 
L 483.14631 230.171387 
L 483.855004 230.171176 
L 485.267933 230.739763 
L 486.022052 230.778964 
L 487.26589 231.066528 
L 487.766958 231.095499 
L 488.984479 231.433423 
L 490.043461 231.565186 
L 490.473695 231.893056 
L 491.59431 232.164925 
L 492.874947 232.100557 
L 493.811173 232.110196 
L 499.509186 232.40132 
L 500.507284 232.28958 
L 501.685434 232.448953 
L 502.24781 232.339677 
L 502.61699 232.466969 
L 509.055992 232.14135 
L 509.640693 232.46595 
L 512.488896 232.71046 
L 513.8057 232.924192 
L 515.472484 232.885512 
L 516.767628 233.049632 
L 517.205167 233.006351 
L 517.763465 233.072274 
L 519.255802 232.945548 
L 519.605987 233.075298 
L 522.315397 233.024666 
L 525.158048 232.534129 
L 526.268129 232.439987 
L 527.356359 232.683688 
L 527.962639 232.860946 
L 532.836486 232.82552 
L 533.990399 232.732007 
L 535.818338 232.641685 
L 536.279814 232.470285 
L 540.34185 231.910849 
L 541.095968 231.846333 
L 542.856791 231.842956 
L 544.518118 231.697765 
L 548.000204 231.611251 
L 550.365454 232.030258 
L 550.763861 232.341744 
L 551.779211 232.585868 
L 553.111065 232.87926 
L 555.859788 233.297233 
L 556.804809 233.550928 
L 560.368374 234.195582 
L 562.512312 234.618326 
L 562.914906 235.054825 
L 564.233461 235.166352 
L 565.687733 235.226631 
L 566.854179 235.384351 
L 572.556414 235.708735 
L 573.628008 235.645219 
L 575.235368 235.689585 
L 575.872953 235.735948 
L 581.458468 235.064202 
L 582.976436 234.616172 
L 586.163483 234.426872 
L 587.439525 234.112193 
L 589.35745 234.012608 
L 590.929481 234.323761 
L 593.293554 234.595269 
L 594.348745 234.927774 
L 597.617071 235.046267 
L 598.109325 234.790965 
L 598.717965 234.698262 
L 599.922794 234.981107 
L 600.435774 234.445799 
L 601.076607 233.577965 
L 601.33003 232.873675 
L 601.33003 232.873675 
" clip-path="url(#p1f16e8e87d)" style="fill: none; stroke: #1f77b4; stroke-width: 1.5; stroke-linecap: round"/>
   </g>
   <g id="patch_3">
    <path d="M 43.585938 243.549375 
L 43.585938 21.789375 
" style="fill: none; stroke: #cccccc; stroke-linejoin: miter; stroke-linecap: square"/>
   </g>
   <g id="patch_4">
    <path d="M 601.585938 243.549375 
L 601.585938 21.789375 
" style="fill: none; stroke: #cccccc; stroke-linejoin: miter; stroke-linecap: square"/>
   </g>
   <g id="patch_5">
    <path d="M 43.585938 243.549375 
L 601.585938 243.549375 
" style="fill: none; stroke: #cccccc; stroke-linejoin: miter; stroke-linecap: square"/>
   </g>
   <g id="patch_6">
    <path d="M 43.585938 21.789375 
L 601.585938 21.789375 
" style="fill: none; stroke: #cccccc; stroke-linejoin: miter; stroke-linecap: square"/>
   </g>
   <g id="text_14">
    <!-- help others -->
    <g style="fill: #262626" transform="translate(292.901875 15.789375) scale(0.12 -0.12)">
     <defs>
      <path id="ArialMT-6c" d="M 409 0 
L 409 4581 
L 972 4581 
L 972 0 
L 409 0 
z
" transform="scale(0.015625)"/>
      <path id="ArialMT-70" d="M 422 -1272 
L 422 3319 
L 934 3319 
L 934 2888 
Q 1116 3141 1344 3267 
Q 1572 3394 1897 3394 
Q 2322 3394 2647 3175 
Q 2972 2956 3137 2557 
Q 3303 2159 3303 1684 
Q 3303 1175 3120 767 
Q 2938 359 2589 142 
Q 2241 -75 1856 -75 
Q 1575 -75 1351 44 
Q 1128 163 984 344 
L 984 -1272 
L 422 -1272 
z
M 931 1641 
Q 931 1000 1190 694 
Q 1450 388 1819 388 
Q 2194 388 2461 705 
Q 2728 1022 2728 1688 
Q 2728 2322 2467 2637 
Q 2206 2953 1844 2953 
Q 1484 2953 1207 2617 
Q 931 2281 931 1641 
z
" transform="scale(0.015625)"/>
      <path id="ArialMT-20" transform="scale(0.015625)"/>
     </defs>
     <use xlink:href="#ArialMT-68"/>
     <use xlink:href="#ArialMT-65" transform="translate(55.615234 0)"/>
     <use xlink:href="#ArialMT-6c" transform="translate(111.230469 0)"/>
     <use xlink:href="#ArialMT-70" transform="translate(133.447266 0)"/>
     <use xlink:href="#ArialMT-20" transform="translate(189.0625 0)"/>
     <use xlink:href="#ArialMT-6f" transform="translate(216.845703 0)"/>
     <use xlink:href="#ArialMT-74" transform="translate(272.460938 0)"/>
     <use xlink:href="#ArialMT-68" transform="translate(300.244141 0)"/>
     <use xlink:href="#ArialMT-65" transform="translate(355.859375 0)"/>
     <use xlink:href="#ArialMT-72" transform="translate(411.474609 0)"/>
     <use xlink:href="#ArialMT-73" transform="translate(444.775391 0)"/>
    </g>
   </g>
  </g>
 </g>
 <defs>
  <clipPath id="p1f16e8e87d">
   <rect x="43.585938" y="21.789375" width="558" height="221.76"/>
  </clipPath>
 </defs>
</svg>
