<?xml version="1.0" encoding="utf-8" standalone="no"?>
<!DOCTYPE svg PUBLIC "-//W3C//DTD SVG 1.1//EN"
  "http://www.w3.org/Graphics/SVG/1.1/DTD/svg11.dtd">
<svg xmlns:xlink="http://www.w3.org/1999/xlink" width="630.429375pt" height="283.57pt" viewBox="0 0 630.429375 283.57" xmlns="http://www.w3.org/2000/svg" version="1.1">
 <metadata>
  <rdf:RDF xmlns:dc="http://purl.org/dc/elements/1.1/" xmlns:cc="http://creativecommons.org/ns#" xmlns:rdf="http://www.w3.org/1999/02/22-rdf-syntax-ns#">
   <cc:Work>
    <dc:type rdf:resource="http://purl.org/dc/dcmitype/StillImage"/>
    <dc:date>2024-03-18T11:19:52.121566</dc:date>
    <dc:format>image/svg+xml</dc:format>
    <dc:creator>
     <cc:Agent>
      <dc:title>Matplotlib v3.8.3, https://matplotlib.org/</dc:title>
     </cc:Agent>
    </dc:creator>
   </cc:Work>
  </rdf:RDF>
 </metadata>
 <defs>
  <style type="text/css">*{stroke-linejoin: round; stroke-linecap: butt}</style>
 </defs>
 <g id="figure_1">
  <g id="patch_1">
   <path d="M 0 283.57 
L 630.429375 283.57 
L 630.429375 0 
L 0 0 
z
" style="fill: #ffffff"/>
  </g>
  <g id="axes_1">
   <g id="patch_2">
    <path d="M 54.096563 244.078125 
L 612.096563 244.078125 
L 612.096563 22.318125 
L 54.096563 22.318125 
z
" style="fill: #e5e5e5"/>
   </g>
   <g id="matplotlib.axis_1">
    <g id="xtick_1">
     <g id="line2d_1">
      <path d="M 54.096563 244.078125 
L 54.096563 22.318125 
" clip-path="url(#pd95e6b7263)" style="fill: none; stroke: #ffffff; stroke-width: 0.8; stroke-linecap: square"/>
     </g>
     <g id="line2d_2">
      <defs>
       <path id="m91fefdd10b" d="M 0 0 
L 0 3.5 
" style="stroke: #555555; stroke-width: 0.8"/>
      </defs>
      <g>
       <use xlink:href="#m91fefdd10b" x="54.096563" y="244.078125" style="fill: #555555; stroke: #555555; stroke-width: 0.8"/>
      </g>
     </g>
     <g id="text_1">
      <!-- 0.00 -->
      <g style="fill: #555555" transform="translate(42.96375 258.676562) scale(0.1 -0.1)">
       <defs>
        <path id="DejaVuSans-30" d="M 2034 4250 
Q 1547 4250 1301 3770 
Q 1056 3291 1056 2328 
Q 1056 1369 1301 889 
Q 1547 409 2034 409 
Q 2525 409 2770 889 
Q 3016 1369 3016 2328 
Q 3016 3291 2770 3770 
Q 2525 4250 2034 4250 
z
M 2034 4750 
Q 2819 4750 3233 4129 
Q 3647 3509 3647 2328 
Q 3647 1150 3233 529 
Q 2819 -91 2034 -91 
Q 1250 -91 836 529 
Q 422 1150 422 2328 
Q 422 3509 836 4129 
Q 1250 4750 2034 4750 
z
" transform="scale(0.015625)"/>
        <path id="DejaVuSans-2e" d="M 684 794 
L 1344 794 
L 1344 0 
L 684 0 
L 684 794 
z
" transform="scale(0.015625)"/>
       </defs>
       <use xlink:href="#DejaVuSans-30"/>
       <use xlink:href="#DejaVuSans-2e" x="63.623047"/>
       <use xlink:href="#DejaVuSans-30" x="95.410156"/>
       <use xlink:href="#DejaVuSans-30" x="159.033203"/>
      </g>
     </g>
    </g>
    <g id="xtick_2">
     <g id="line2d_3">
      <path d="M 165.696563 244.078125 
L 165.696563 22.318125 
" clip-path="url(#pd95e6b7263)" style="fill: none; stroke: #ffffff; stroke-width: 0.8; stroke-linecap: square"/>
     </g>
     <g id="line2d_4">
      <g>
       <use xlink:href="#m91fefdd10b" x="165.696563" y="244.078125" style="fill: #555555; stroke: #555555; stroke-width: 0.8"/>
      </g>
     </g>
     <g id="text_2">
      <!-- 0.02 -->
      <g style="fill: #555555" transform="translate(154.56375 258.676562) scale(0.1 -0.1)">
       <defs>
        <path id="DejaVuSans-32" d="M 1228 531 
L 3431 531 
L 3431 0 
L 469 0 
L 469 531 
Q 828 903 1448 1529 
Q 2069 2156 2228 2338 
Q 2531 2678 2651 2914 
Q 2772 3150 2772 3378 
Q 2772 3750 2511 3984 
Q 2250 4219 1831 4219 
Q 1534 4219 1204 4116 
Q 875 4013 500 3803 
L 500 4441 
Q 881 4594 1212 4672 
Q 1544 4750 1819 4750 
Q 2544 4750 2975 4387 
Q 3406 4025 3406 3419 
Q 3406 3131 3298 2873 
Q 3191 2616 2906 2266 
Q 2828 2175 2409 1742 
Q 1991 1309 1228 531 
z
" transform="scale(0.015625)"/>
       </defs>
       <use xlink:href="#DejaVuSans-30"/>
       <use xlink:href="#DejaVuSans-2e" x="63.623047"/>
       <use xlink:href="#DejaVuSans-30" x="95.410156"/>
       <use xlink:href="#DejaVuSans-32" x="159.033203"/>
      </g>
     </g>
    </g>
    <g id="xtick_3">
     <g id="line2d_5">
      <path d="M 277.296563 244.078125 
L 277.296563 22.318125 
" clip-path="url(#pd95e6b7263)" style="fill: none; stroke: #ffffff; stroke-width: 0.8; stroke-linecap: square"/>
     </g>
     <g id="line2d_6">
      <g>
       <use xlink:href="#m91fefdd10b" x="277.296563" y="244.078125" style="fill: #555555; stroke: #555555; stroke-width: 0.8"/>
      </g>
     </g>
     <g id="text_3">
      <!-- 0.04 -->
      <g style="fill: #555555" transform="translate(266.16375 258.676562) scale(0.1 -0.1)">
       <defs>
        <path id="DejaVuSans-34" d="M 2419 4116 
L 825 1625 
L 2419 1625 
L 2419 4116 
z
M 2253 4666 
L 3047 4666 
L 3047 1625 
L 3713 1625 
L 3713 1100 
L 3047 1100 
L 3047 0 
L 2419 0 
L 2419 1100 
L 313 1100 
L 313 1709 
L 2253 4666 
z
" transform="scale(0.015625)"/>
       </defs>
       <use xlink:href="#DejaVuSans-30"/>
       <use xlink:href="#DejaVuSans-2e" x="63.623047"/>
       <use xlink:href="#DejaVuSans-30" x="95.410156"/>
       <use xlink:href="#DejaVuSans-34" x="159.033203"/>
      </g>
     </g>
    </g>
    <g id="xtick_4">
     <g id="line2d_7">
      <path d="M 388.896563 244.078125 
L 388.896563 22.318125 
" clip-path="url(#pd95e6b7263)" style="fill: none; stroke: #ffffff; stroke-width: 0.8; stroke-linecap: square"/>
     </g>
     <g id="line2d_8">
      <g>
       <use xlink:href="#m91fefdd10b" x="388.896563" y="244.078125" style="fill: #555555; stroke: #555555; stroke-width: 0.8"/>
      </g>
     </g>
     <g id="text_4">
      <!-- 0.06 -->
      <g style="fill: #555555" transform="translate(377.76375 258.676562) scale(0.1 -0.1)">
       <defs>
        <path id="DejaVuSans-36" d="M 2113 2584 
Q 1688 2584 1439 2293 
Q 1191 2003 1191 1497 
Q 1191 994 1439 701 
Q 1688 409 2113 409 
Q 2538 409 2786 701 
Q 3034 994 3034 1497 
Q 3034 2003 2786 2293 
Q 2538 2584 2113 2584 
z
M 3366 4563 
L 3366 3988 
Q 3128 4100 2886 4159 
Q 2644 4219 2406 4219 
Q 1781 4219 1451 3797 
Q 1122 3375 1075 2522 
Q 1259 2794 1537 2939 
Q 1816 3084 2150 3084 
Q 2853 3084 3261 2657 
Q 3669 2231 3669 1497 
Q 3669 778 3244 343 
Q 2819 -91 2113 -91 
Q 1303 -91 875 529 
Q 447 1150 447 2328 
Q 447 3434 972 4092 
Q 1497 4750 2381 4750 
Q 2619 4750 2861 4703 
Q 3103 4656 3366 4563 
z
" transform="scale(0.015625)"/>
       </defs>
       <use xlink:href="#DejaVuSans-30"/>
       <use xlink:href="#DejaVuSans-2e" x="63.623047"/>
       <use xlink:href="#DejaVuSans-30" x="95.410156"/>
       <use xlink:href="#DejaVuSans-36" x="159.033203"/>
      </g>
     </g>
    </g>
    <g id="xtick_5">
     <g id="line2d_9">
      <path d="M 500.496563 244.078125 
L 500.496563 22.318125 
" clip-path="url(#pd95e6b7263)" style="fill: none; stroke: #ffffff; stroke-width: 0.8; stroke-linecap: square"/>
     </g>
     <g id="line2d_10">
      <g>
       <use xlink:href="#m91fefdd10b" x="500.496563" y="244.078125" style="fill: #555555; stroke: #555555; stroke-width: 0.8"/>
      </g>
     </g>
     <g id="text_5">
      <!-- 0.08 -->
      <g style="fill: #555555" transform="translate(489.36375 258.676562) scale(0.1 -0.1)">
       <defs>
        <path id="DejaVuSans-38" d="M 2034 2216 
Q 1584 2216 1326 1975 
Q 1069 1734 1069 1313 
Q 1069 891 1326 650 
Q 1584 409 2034 409 
Q 2484 409 2743 651 
Q 3003 894 3003 1313 
Q 3003 1734 2745 1975 
Q 2488 2216 2034 2216 
z
M 1403 2484 
Q 997 2584 770 2862 
Q 544 3141 544 3541 
Q 544 4100 942 4425 
Q 1341 4750 2034 4750 
Q 2731 4750 3128 4425 
Q 3525 4100 3525 3541 
Q 3525 3141 3298 2862 
Q 3072 2584 2669 2484 
Q 3125 2378 3379 2068 
Q 3634 1759 3634 1313 
Q 3634 634 3220 271 
Q 2806 -91 2034 -91 
Q 1263 -91 848 271 
Q 434 634 434 1313 
Q 434 1759 690 2068 
Q 947 2378 1403 2484 
z
M 1172 3481 
Q 1172 3119 1398 2916 
Q 1625 2713 2034 2713 
Q 2441 2713 2670 2916 
Q 2900 3119 2900 3481 
Q 2900 3844 2670 4047 
Q 2441 4250 2034 4250 
Q 1625 4250 1398 4047 
Q 1172 3844 1172 3481 
z
" transform="scale(0.015625)"/>
       </defs>
       <use xlink:href="#DejaVuSans-30"/>
       <use xlink:href="#DejaVuSans-2e" x="63.623047"/>
       <use xlink:href="#DejaVuSans-30" x="95.410156"/>
       <use xlink:href="#DejaVuSans-38" x="159.033203"/>
      </g>
     </g>
    </g>
    <g id="xtick_6">
     <g id="line2d_11">
      <path d="M 612.096563 244.078125 
L 612.096563 22.318125 
" clip-path="url(#pd95e6b7263)" style="fill: none; stroke: #ffffff; stroke-width: 0.8; stroke-linecap: square"/>
     </g>
     <g id="line2d_12">
      <g>
       <use xlink:href="#m91fefdd10b" x="612.096563" y="244.078125" style="fill: #555555; stroke: #555555; stroke-width: 0.8"/>
      </g>
     </g>
     <g id="text_6">
      <!-- 0.10 -->
      <g style="fill: #555555" transform="translate(600.96375 258.676562) scale(0.1 -0.1)">
       <defs>
        <path id="DejaVuSans-31" d="M 794 531 
L 1825 531 
L 1825 4091 
L 703 3866 
L 703 4441 
L 1819 4666 
L 2450 4666 
L 2450 531 
L 3481 531 
L 3481 0 
L 794 0 
L 794 531 
z
" transform="scale(0.015625)"/>
       </defs>
       <use xlink:href="#DejaVuSans-30"/>
       <use xlink:href="#DejaVuSans-2e" x="63.623047"/>
       <use xlink:href="#DejaVuSans-31" x="95.410156"/>
       <use xlink:href="#DejaVuSans-30" x="159.033203"/>
      </g>
     </g>
    </g>
    <g id="text_7">
     <!-- mutation-prob -->
     <g style="fill: #555555" transform="translate(290.142187 273.874375) scale(0.12 -0.12)">
      <defs>
       <path id="DejaVuSans-6d" d="M 3328 2828 
Q 3544 3216 3844 3400 
Q 4144 3584 4550 3584 
Q 5097 3584 5394 3201 
Q 5691 2819 5691 2113 
L 5691 0 
L 5113 0 
L 5113 2094 
Q 5113 2597 4934 2840 
Q 4756 3084 4391 3084 
Q 3944 3084 3684 2787 
Q 3425 2491 3425 1978 
L 3425 0 
L 2847 0 
L 2847 2094 
Q 2847 2600 2669 2842 
Q 2491 3084 2119 3084 
Q 1678 3084 1418 2786 
Q 1159 2488 1159 1978 
L 1159 0 
L 581 0 
L 581 3500 
L 1159 3500 
L 1159 2956 
Q 1356 3278 1631 3431 
Q 1906 3584 2284 3584 
Q 2666 3584 2933 3390 
Q 3200 3197 3328 2828 
z
" transform="scale(0.015625)"/>
       <path id="DejaVuSans-75" d="M 544 1381 
L 544 3500 
L 1119 3500 
L 1119 1403 
Q 1119 906 1312 657 
Q 1506 409 1894 409 
Q 2359 409 2629 706 
Q 2900 1003 2900 1516 
L 2900 3500 
L 3475 3500 
L 3475 0 
L 2900 0 
L 2900 538 
Q 2691 219 2414 64 
Q 2138 -91 1772 -91 
Q 1169 -91 856 284 
Q 544 659 544 1381 
z
M 1991 3584 
L 1991 3584 
z
" transform="scale(0.015625)"/>
       <path id="DejaVuSans-74" d="M 1172 4494 
L 1172 3500 
L 2356 3500 
L 2356 3053 
L 1172 3053 
L 1172 1153 
Q 1172 725 1289 603 
Q 1406 481 1766 481 
L 2356 481 
L 2356 0 
L 1766 0 
Q 1100 0 847 248 
Q 594 497 594 1153 
L 594 3053 
L 172 3053 
L 172 3500 
L 594 3500 
L 594 4494 
L 1172 4494 
z
" transform="scale(0.015625)"/>
       <path id="DejaVuSans-61" d="M 2194 1759 
Q 1497 1759 1228 1600 
Q 959 1441 959 1056 
Q 959 750 1161 570 
Q 1363 391 1709 391 
Q 2188 391 2477 730 
Q 2766 1069 2766 1631 
L 2766 1759 
L 2194 1759 
z
M 3341 1997 
L 3341 0 
L 2766 0 
L 2766 531 
Q 2569 213 2275 61 
Q 1981 -91 1556 -91 
Q 1019 -91 701 211 
Q 384 513 384 1019 
Q 384 1609 779 1909 
Q 1175 2209 1959 2209 
L 2766 2209 
L 2766 2266 
Q 2766 2663 2505 2880 
Q 2244 3097 1772 3097 
Q 1472 3097 1187 3025 
Q 903 2953 641 2809 
L 641 3341 
Q 956 3463 1253 3523 
Q 1550 3584 1831 3584 
Q 2591 3584 2966 3190 
Q 3341 2797 3341 1997 
z
" transform="scale(0.015625)"/>
       <path id="DejaVuSans-69" d="M 603 3500 
L 1178 3500 
L 1178 0 
L 603 0 
L 603 3500 
z
M 603 4863 
L 1178 4863 
L 1178 4134 
L 603 4134 
L 603 4863 
z
" transform="scale(0.015625)"/>
       <path id="DejaVuSans-6f" d="M 1959 3097 
Q 1497 3097 1228 2736 
Q 959 2375 959 1747 
Q 959 1119 1226 758 
Q 1494 397 1959 397 
Q 2419 397 2687 759 
Q 2956 1122 2956 1747 
Q 2956 2369 2687 2733 
Q 2419 3097 1959 3097 
z
M 1959 3584 
Q 2709 3584 3137 3096 
Q 3566 2609 3566 1747 
Q 3566 888 3137 398 
Q 2709 -91 1959 -91 
Q 1206 -91 779 398 
Q 353 888 353 1747 
Q 353 2609 779 3096 
Q 1206 3584 1959 3584 
z
" transform="scale(0.015625)"/>
       <path id="DejaVuSans-6e" d="M 3513 2113 
L 3513 0 
L 2938 0 
L 2938 2094 
Q 2938 2591 2744 2837 
Q 2550 3084 2163 3084 
Q 1697 3084 1428 2787 
Q 1159 2491 1159 1978 
L 1159 0 
L 581 0 
L 581 3500 
L 1159 3500 
L 1159 2956 
Q 1366 3272 1645 3428 
Q 1925 3584 2291 3584 
Q 2894 3584 3203 3211 
Q 3513 2838 3513 2113 
z
" transform="scale(0.015625)"/>
       <path id="DejaVuSans-2d" d="M 313 2009 
L 1997 2009 
L 1997 1497 
L 313 1497 
L 313 2009 
z
" transform="scale(0.015625)"/>
       <path id="DejaVuSans-70" d="M 1159 525 
L 1159 -1331 
L 581 -1331 
L 581 3500 
L 1159 3500 
L 1159 2969 
Q 1341 3281 1617 3432 
Q 1894 3584 2278 3584 
Q 2916 3584 3314 3078 
Q 3713 2572 3713 1747 
Q 3713 922 3314 415 
Q 2916 -91 2278 -91 
Q 1894 -91 1617 61 
Q 1341 213 1159 525 
z
M 3116 1747 
Q 3116 2381 2855 2742 
Q 2594 3103 2138 3103 
Q 1681 3103 1420 2742 
Q 1159 2381 1159 1747 
Q 1159 1113 1420 752 
Q 1681 391 2138 391 
Q 2594 391 2855 752 
Q 3116 1113 3116 1747 
z
" transform="scale(0.015625)"/>
       <path id="DejaVuSans-72" d="M 2631 2963 
Q 2534 3019 2420 3045 
Q 2306 3072 2169 3072 
Q 1681 3072 1420 2755 
Q 1159 2438 1159 1844 
L 1159 0 
L 581 0 
L 581 3500 
L 1159 3500 
L 1159 2956 
Q 1341 3275 1631 3429 
Q 1922 3584 2338 3584 
Q 2397 3584 2469 3576 
Q 2541 3569 2628 3553 
L 2631 2963 
z
" transform="scale(0.015625)"/>
       <path id="DejaVuSans-62" d="M 3116 1747 
Q 3116 2381 2855 2742 
Q 2594 3103 2138 3103 
Q 1681 3103 1420 2742 
Q 1159 2381 1159 1747 
Q 1159 1113 1420 752 
Q 1681 391 2138 391 
Q 2594 391 2855 752 
Q 3116 1113 3116 1747 
z
M 1159 2969 
Q 1341 3281 1617 3432 
Q 1894 3584 2278 3584 
Q 2916 3584 3314 3078 
Q 3713 2572 3713 1747 
Q 3713 922 3314 415 
Q 2916 -91 2278 -91 
Q 1894 -91 1617 61 
Q 1341 213 1159 525 
L 1159 0 
L 581 0 
L 581 4863 
L 1159 4863 
L 1159 2969 
z
" transform="scale(0.015625)"/>
      </defs>
      <use xlink:href="#DejaVuSans-6d"/>
      <use xlink:href="#DejaVuSans-75" x="97.412109"/>
      <use xlink:href="#DejaVuSans-74" x="160.791016"/>
      <use xlink:href="#DejaVuSans-61" x="200"/>
      <use xlink:href="#DejaVuSans-74" x="261.279297"/>
      <use xlink:href="#DejaVuSans-69" x="300.488281"/>
      <use xlink:href="#DejaVuSans-6f" x="328.271484"/>
      <use xlink:href="#DejaVuSans-6e" x="389.453125"/>
      <use xlink:href="#DejaVuSans-2d" x="452.832031"/>
      <use xlink:href="#DejaVuSans-70" x="488.916016"/>
      <use xlink:href="#DejaVuSans-72" x="552.392578"/>
      <use xlink:href="#DejaVuSans-6f" x="591.255859"/>
      <use xlink:href="#DejaVuSans-62" x="652.4375"/>
     </g>
    </g>
   </g>
   <g id="matplotlib.axis_2">
    <g id="ytick_1">
     <g id="line2d_13">
      <path d="M 54.096563 244.078125 
L 612.096563 244.078125 
" clip-path="url(#pd95e6b7263)" style="fill: none; stroke: #ffffff; stroke-width: 0.8; stroke-linecap: square"/>
     </g>
     <g id="line2d_14">
      <defs>
       <path id="m507e7424ae" d="M 0 0 
L -3.5 0 
" style="stroke: #555555; stroke-width: 0.8"/>
      </defs>
      <g>
       <use xlink:href="#m507e7424ae" x="54.096563" y="244.078125" style="fill: #555555; stroke: #555555; stroke-width: 0.8"/>
      </g>
     </g>
     <g id="text_8">
      <!-- −0.4 -->
      <g style="fill: #555555" transform="translate(22.81375 247.877344) scale(0.1 -0.1)">
       <defs>
        <path id="DejaVuSans-2212" d="M 678 2272 
L 4684 2272 
L 4684 1741 
L 678 1741 
L 678 2272 
z
" transform="scale(0.015625)"/>
       </defs>
       <use xlink:href="#DejaVuSans-2212"/>
       <use xlink:href="#DejaVuSans-30" x="83.789062"/>
       <use xlink:href="#DejaVuSans-2e" x="147.412109"/>
       <use xlink:href="#DejaVuSans-34" x="179.199219"/>
      </g>
     </g>
    </g>
    <g id="ytick_2">
     <g id="line2d_15">
      <path d="M 54.096563 212.398125 
L 612.096563 212.398125 
" clip-path="url(#pd95e6b7263)" style="fill: none; stroke: #ffffff; stroke-width: 0.8; stroke-linecap: square"/>
     </g>
     <g id="line2d_16">
      <g>
       <use xlink:href="#m507e7424ae" x="54.096563" y="212.398125" style="fill: #555555; stroke: #555555; stroke-width: 0.8"/>
      </g>
     </g>
     <g id="text_9">
      <!-- −0.3 -->
      <g style="fill: #555555" transform="translate(22.81375 216.197344) scale(0.1 -0.1)">
       <defs>
        <path id="DejaVuSans-33" d="M 2597 2516 
Q 3050 2419 3304 2112 
Q 3559 1806 3559 1356 
Q 3559 666 3084 287 
Q 2609 -91 1734 -91 
Q 1441 -91 1130 -33 
Q 819 25 488 141 
L 488 750 
Q 750 597 1062 519 
Q 1375 441 1716 441 
Q 2309 441 2620 675 
Q 2931 909 2931 1356 
Q 2931 1769 2642 2001 
Q 2353 2234 1838 2234 
L 1294 2234 
L 1294 2753 
L 1863 2753 
Q 2328 2753 2575 2939 
Q 2822 3125 2822 3475 
Q 2822 3834 2567 4026 
Q 2313 4219 1838 4219 
Q 1578 4219 1281 4162 
Q 984 4106 628 3988 
L 628 4550 
Q 988 4650 1302 4700 
Q 1616 4750 1894 4750 
Q 2613 4750 3031 4423 
Q 3450 4097 3450 3541 
Q 3450 3153 3228 2886 
Q 3006 2619 2597 2516 
z
" transform="scale(0.015625)"/>
       </defs>
       <use xlink:href="#DejaVuSans-2212"/>
       <use xlink:href="#DejaVuSans-30" x="83.789062"/>
       <use xlink:href="#DejaVuSans-2e" x="147.412109"/>
       <use xlink:href="#DejaVuSans-33" x="179.199219"/>
      </g>
     </g>
    </g>
    <g id="ytick_3">
     <g id="line2d_17">
      <path d="M 54.096563 180.718125 
L 612.096563 180.718125 
" clip-path="url(#pd95e6b7263)" style="fill: none; stroke: #ffffff; stroke-width: 0.8; stroke-linecap: square"/>
     </g>
     <g id="line2d_18">
      <g>
       <use xlink:href="#m507e7424ae" x="54.096563" y="180.718125" style="fill: #555555; stroke: #555555; stroke-width: 0.8"/>
      </g>
     </g>
     <g id="text_10">
      <!-- −0.2 -->
      <g style="fill: #555555" transform="translate(22.81375 184.517344) scale(0.1 -0.1)">
       <use xlink:href="#DejaVuSans-2212"/>
       <use xlink:href="#DejaVuSans-30" x="83.789062"/>
       <use xlink:href="#DejaVuSans-2e" x="147.412109"/>
       <use xlink:href="#DejaVuSans-32" x="179.199219"/>
      </g>
     </g>
    </g>
    <g id="ytick_4">
     <g id="line2d_19">
      <path d="M 54.096563 149.038125 
L 612.096563 149.038125 
" clip-path="url(#pd95e6b7263)" style="fill: none; stroke: #ffffff; stroke-width: 0.8; stroke-linecap: square"/>
     </g>
     <g id="line2d_20">
      <g>
       <use xlink:href="#m507e7424ae" x="54.096563" y="149.038125" style="fill: #555555; stroke: #555555; stroke-width: 0.8"/>
      </g>
     </g>
     <g id="text_11">
      <!-- −0.1 -->
      <g style="fill: #555555" transform="translate(22.81375 152.837344) scale(0.1 -0.1)">
       <use xlink:href="#DejaVuSans-2212"/>
       <use xlink:href="#DejaVuSans-30" x="83.789062"/>
       <use xlink:href="#DejaVuSans-2e" x="147.412109"/>
       <use xlink:href="#DejaVuSans-31" x="179.199219"/>
      </g>
     </g>
    </g>
    <g id="ytick_5">
     <g id="line2d_21">
      <path d="M 54.096563 117.358125 
L 612.096563 117.358125 
" clip-path="url(#pd95e6b7263)" style="fill: none; stroke: #ffffff; stroke-width: 0.8; stroke-linecap: square"/>
     </g>
     <g id="line2d_22">
      <g>
       <use xlink:href="#m507e7424ae" x="54.096563" y="117.358125" style="fill: #555555; stroke: #555555; stroke-width: 0.8"/>
      </g>
     </g>
     <g id="text_12">
      <!-- 0.0 -->
      <g style="fill: #555555" transform="translate(31.193438 121.157344) scale(0.1 -0.1)">
       <use xlink:href="#DejaVuSans-30"/>
       <use xlink:href="#DejaVuSans-2e" x="63.623047"/>
       <use xlink:href="#DejaVuSans-30" x="95.410156"/>
      </g>
     </g>
    </g>
    <g id="ytick_6">
     <g id="line2d_23">
      <path d="M 54.096563 85.678125 
L 612.096563 85.678125 
" clip-path="url(#pd95e6b7263)" style="fill: none; stroke: #ffffff; stroke-width: 0.8; stroke-linecap: square"/>
     </g>
     <g id="line2d_24">
      <g>
       <use xlink:href="#m507e7424ae" x="54.096563" y="85.678125" style="fill: #555555; stroke: #555555; stroke-width: 0.8"/>
      </g>
     </g>
     <g id="text_13">
      <!-- 0.1 -->
      <g style="fill: #555555" transform="translate(31.193438 89.477344) scale(0.1 -0.1)">
       <use xlink:href="#DejaVuSans-30"/>
       <use xlink:href="#DejaVuSans-2e" x="63.623047"/>
       <use xlink:href="#DejaVuSans-31" x="95.410156"/>
      </g>
     </g>
    </g>
    <g id="ytick_7">
     <g id="line2d_25">
      <path d="M 54.096563 53.998125 
L 612.096563 53.998125 
" clip-path="url(#pd95e6b7263)" style="fill: none; stroke: #ffffff; stroke-width: 0.8; stroke-linecap: square"/>
     </g>
     <g id="line2d_26">
      <g>
       <use xlink:href="#m507e7424ae" x="54.096563" y="53.998125" style="fill: #555555; stroke: #555555; stroke-width: 0.8"/>
      </g>
     </g>
     <g id="text_14">
      <!-- 0.2 -->
      <g style="fill: #555555" transform="translate(31.193438 57.797344) scale(0.1 -0.1)">
       <use xlink:href="#DejaVuSans-30"/>
       <use xlink:href="#DejaVuSans-2e" x="63.623047"/>
       <use xlink:href="#DejaVuSans-32" x="95.410156"/>
      </g>
     </g>
    </g>
    <g id="ytick_8">
     <g id="line2d_27">
      <path d="M 54.096563 22.318125 
L 612.096563 22.318125 
" clip-path="url(#pd95e6b7263)" style="fill: none; stroke: #ffffff; stroke-width: 0.8; stroke-linecap: square"/>
     </g>
     <g id="line2d_28">
      <g>
       <use xlink:href="#m507e7424ae" x="54.096563" y="22.318125" style="fill: #555555; stroke: #555555; stroke-width: 0.8"/>
      </g>
     </g>
     <g id="text_15">
      <!-- 0.3 -->
      <g style="fill: #555555" transform="translate(31.193438 26.117344) scale(0.1 -0.1)">
       <use xlink:href="#DejaVuSans-30"/>
       <use xlink:href="#DejaVuSans-2e" x="63.623047"/>
       <use xlink:href="#DejaVuSans-33" x="95.410156"/>
      </g>
     </g>
    </g>
    <g id="text_16">
     <!-- score -->
     <g style="fill: #555555" transform="translate(16.318125 149.3175) rotate(-90) scale(0.12 -0.12)">
      <defs>
       <path id="DejaVuSans-73" d="M 2834 3397 
L 2834 2853 
Q 2591 2978 2328 3040 
Q 2066 3103 1784 3103 
Q 1356 3103 1142 2972 
Q 928 2841 928 2578 
Q 928 2378 1081 2264 
Q 1234 2150 1697 2047 
L 1894 2003 
Q 2506 1872 2764 1633 
Q 3022 1394 3022 966 
Q 3022 478 2636 193 
Q 2250 -91 1575 -91 
Q 1294 -91 989 -36 
Q 684 19 347 128 
L 347 722 
Q 666 556 975 473 
Q 1284 391 1588 391 
Q 1994 391 2212 530 
Q 2431 669 2431 922 
Q 2431 1156 2273 1281 
Q 2116 1406 1581 1522 
L 1381 1569 
Q 847 1681 609 1914 
Q 372 2147 372 2553 
Q 372 3047 722 3315 
Q 1072 3584 1716 3584 
Q 2034 3584 2315 3537 
Q 2597 3491 2834 3397 
z
" transform="scale(0.015625)"/>
       <path id="DejaVuSans-63" d="M 3122 3366 
L 3122 2828 
Q 2878 2963 2633 3030 
Q 2388 3097 2138 3097 
Q 1578 3097 1268 2742 
Q 959 2388 959 1747 
Q 959 1106 1268 751 
Q 1578 397 2138 397 
Q 2388 397 2633 464 
Q 2878 531 3122 666 
L 3122 134 
Q 2881 22 2623 -34 
Q 2366 -91 2075 -91 
Q 1284 -91 818 406 
Q 353 903 353 1747 
Q 353 2603 823 3093 
Q 1294 3584 2113 3584 
Q 2378 3584 2631 3529 
Q 2884 3475 3122 3366 
z
" transform="scale(0.015625)"/>
       <path id="DejaVuSans-65" d="M 3597 1894 
L 3597 1613 
L 953 1613 
Q 991 1019 1311 708 
Q 1631 397 2203 397 
Q 2534 397 2845 478 
Q 3156 559 3463 722 
L 3463 178 
Q 3153 47 2828 -22 
Q 2503 -91 2169 -91 
Q 1331 -91 842 396 
Q 353 884 353 1716 
Q 353 2575 817 3079 
Q 1281 3584 2069 3584 
Q 2775 3584 3186 3129 
Q 3597 2675 3597 1894 
z
M 3022 2063 
Q 3016 2534 2758 2815 
Q 2500 3097 2075 3097 
Q 1594 3097 1305 2825 
Q 1016 2553 972 2059 
L 3022 2063 
z
" transform="scale(0.015625)"/>
      </defs>
      <use xlink:href="#DejaVuSans-73"/>
      <use xlink:href="#DejaVuSans-63" x="52.099609"/>
      <use xlink:href="#DejaVuSans-6f" x="107.080078"/>
      <use xlink:href="#DejaVuSans-72" x="168.261719"/>
      <use xlink:href="#DejaVuSans-65" x="207.125"/>
     </g>
    </g>
   </g>
   <g id="PolyCollection_1">
    <defs>
     <path id="m475e8d8271" d="M 54.657776 -166.827087 
L 54.657776 -146.485906 
L 55.159727 -143.890471 
L 55.803804 -144.846808 
L 56.357059 -144.497388 
L 56.929048 -144.622404 
L 57.486582 -145.648584 
L 58.168725 -146.027372 
L 58.798795 -146.603151 
L 59.259412 -148.109238 
L 59.814463 -148.748003 
L 60.477932 -148.931267 
L 60.930685 -149.328993 
L 61.481509 -149.823624 
L 61.940204 -150.108028 
L 62.301031 -150.477665 
L 62.966093 -151.328246 
L 63.558507 -151.992016 
L 64.170119 -152.546821 
L 64.784479 -152.375258 
L 65.355415 -153.235653 
L 65.956446 -153.651378 
L 66.45976 -154.004857 
L 67.073543 -154.215194 
L 67.488214 -154.232609 
L 67.906969 -154.422014 
L 68.630412 -154.702246 
L 69.254909 -154.90208 
L 69.778706 -155.098335 
L 70.386649 -155.192787 
L 70.834015 -155.180304 
L 71.341505 -155.234846 
L 71.957523 -155.222417 
L 72.591382 -155.320885 
L 73.269128 -155.490995 
L 73.572181 -155.737696 
L 74.113768 -155.747313 
L 74.809525 -155.815072 
L 75.238498 -155.822386 
L 75.80493 -155.991079 
L 76.497248 -156.075063 
L 77.024006 -156.131566 
L 77.611455 -156.218717 
L 78.065114 -156.316536 
L 78.459564 -156.314557 
L 79.282693 -156.275582 
L 79.917803 -156.243217 
L 80.369992 -156.20287 
L 81.003778 -156.323988 
L 81.603358 -156.563217 
L 82.072449 -156.682191 
L 82.594015 -156.941899 
L 83.117474 -157.231776 
L 83.536518 -157.562364 
L 84.050054 -157.723488 
L 84.699172 -158.045303 
L 85.385377 -158.365216 
L 85.823541 -158.520154 
L 86.31849 -158.649483 
L 87.009261 -158.823712 
L 87.711104 -159.265881 
L 88.145502 -159.686089 
L 88.59468 -159.952342 
L 89.254487 -160.299585 
L 89.791081 -160.513799 
L 90.336328 -160.848587 
L 90.772221 -160.97326 
L 91.396084 -161.137302 
L 91.949045 -161.317387 
L 92.367275 -161.549561 
L 92.934561 -161.732441 
L 93.486605 -161.870403 
L 94.030083 -162.052896 
L 94.791006 -162.139889 
L 95.509527 -162.221182 
L 95.848893 -162.301826 
L 96.279727 -162.254864 
L 97.001039 -162.23299 
L 97.60836 -162.233832 
L 98.089448 -162.104777 
L 98.625741 -162.266502 
L 99.249133 -162.339819 
L 99.902804 -162.345128 
L 100.483895 -162.298667 
L 100.940125 -162.268966 
L 101.39731 -162.23304 
L 102.145809 -162.301423 
L 102.647258 -162.403935 
L 103.192434 -162.429967 
L 103.752713 -162.620675 
L 104.108269 -162.478295 
L 104.766473 -162.450507 
L 105.560485 -162.480807 
L 106.186508 -162.542896 
L 106.553089 -162.577349 
L 107.007527 -162.649866 
L 107.707365 -162.584471 
L 108.264165 -162.594457 
L 108.819885 -162.685049 
L 109.536514 -162.662342 
L 109.933246 -162.502 
L 110.462741 -162.4368 
L 111.2346 -162.412165 
L 111.758079 -162.376758 
L 112.183575 -161.95042 
L 112.620998 -161.797405 
L 113.162389 -162.03884 
L 113.89993 -161.934575 
L 114.410839 -161.748838 
L 114.994985 -161.650562 
L 115.622191 -161.61923 
L 115.913002 -161.55989 
L 116.558873 -161.570669 
L 117.358126 -161.711831 
L 117.729266 -161.816173 
L 118.255499 -161.97749 
L 118.996963 -162.059069 
L 119.450075 -162.135449 
L 119.986562 -162.178708 
L 120.645113 -162.138901 
L 121.243578 -162.179091 
L 121.863438 -162.222575 
L 122.311709 -162.288466 
L 122.765116 -162.30426 
L 123.240505 -162.326553 
L 123.671047 -162.270949 
L 124.43441 -162.274293 
L 125.0716 -162.268944 
L 125.524972 -162.247065 
L 126.177475 -162.315649 
L 126.785615 -162.336461 
L 127.218905 -162.360097 
L 127.659299 -162.369521 
L 128.128776 -162.446954 
L 128.620093 -162.535482 
L 129.250099 -162.572362 
L 130.051215 -162.585527 
L 130.713855 -162.61474 
L 131.099237 -162.705309 
L 131.737195 -162.718431 
L 132.213223 -162.765776 
L 132.632726 -162.757895 
L 133.275405 -162.762204 
L 133.817181 -162.824588 
L 134.327225 -162.861751 
L 134.834954 -162.766192 
L 135.521805 -162.709218 
L 136.285913 -162.647443 
L 136.872062 -162.566134 
L 137.36337 -162.544791 
L 137.924858 -162.505855 
L 138.29674 -162.428462 
L 138.670336 -162.371714 
L 139.384063 -162.380588 
L 140.114881 -162.396289 
L 140.51696 -162.345101 
L 140.941486 -162.287957 
L 141.611028 -162.239011 
L 142.117906 -162.16592 
L 142.745282 -162.110471 
L 143.334636 -162.042528 
L 143.853335 -161.971366 
L 144.609213 -161.882955 
L 145.064873 -161.716932 
L 145.55386 -161.61642 
L 146.165728 -161.505322 
L 146.622895 -161.411642 
L 147.356856 -161.300359 
L 147.862581 -161.249977 
L 148.379691 -161.194984 
L 149.118186 -161.12048 
L 149.486036 -161.046065 
L 149.861138 -160.949046 
L 150.604502 -160.831108 
L 151.339685 -160.702777 
L 151.902095 -160.613171 
L 152.335788 -160.458369 
L 152.895254 -160.397917 
L 153.390173 -160.302693 
L 153.899954 -160.177137 
L 154.508542 -159.985562 
L 155.075436 -159.904188 
L 155.692896 -159.744571 
L 156.161295 -159.439815 
L 156.869178 -159.585708 
L 157.386638 -159.408811 
L 157.768226 -159.270715 
L 158.443032 -159.146324 
L 159.032341 -158.941509 
L 159.415023 -158.829696 
L 160.067976 -158.737643 
L 160.802848 -158.495186 
L 161.30529 -158.338197 
L 161.910293 -158.240796 
L 162.309956 -157.81515 
L 162.72298 -157.626459 
L 163.488162 -157.361944 
L 164.059611 -156.946591 
L 164.431228 -156.491024 
L 165.021548 -156.25816 
L 165.581949 -156.164731 
L 166.083684 -155.594856 
L 166.860519 -155.317656 
L 167.46921 -155.068494 
L 167.845129 -154.758237 
L 168.416111 -154.492243 
L 169.083141 -154.284311 
L 169.575684 -154.025048 
L 170.223996 -153.722467 
L 170.950583 -153.428204 
L 171.296319 -153.207422 
L 171.73486 -153.073667 
L 172.432497 -152.933547 
L 173.110074 -152.947602 
L 173.595766 -153.211903 
L 174.090818 -153.145397 
L 174.683887 -153.051747 
L 175.266018 -153.027431 
L 175.897832 -152.979146 
L 176.460782 -152.920213 
L 177.067223 -152.895895 
L 177.485162 -152.763989 
L 177.805672 -152.636408 
L 178.434714 -152.542015 
L 179.21869 -152.432767 
L 179.908759 -152.357185 
L 180.462033 -152.219789 
L 180.853016 -152.162893 
L 181.212836 -152.233935 
L 181.937003 -152.065135 
L 182.530936 -152.112538 
L 183.037048 -152.054017 
L 183.765571 -151.994161 
L 184.350166 -151.99379 
L 184.715323 -151.909891 
L 185.031484 -151.950403 
L 185.602236 -151.941199 
L 186.388692 -152.095804 
L 186.998146 -152.088609 
L 187.565121 -152.178089 
L 188.214012 -152.187725 
L 188.598548 -152.155437 
L 189.059802 -152.108205 
L 189.683212 -152.048155 
L 190.199955 -152.143371 
L 190.779569 -152.143113 
L 191.433559 -152.163924 
L 191.974218 -152.19816 
L 192.611478 -152.076891 
L 193.166129 -152.101163 
L 193.679632 -152.038027 
L 194.29151 -151.934974 
L 194.732799 -151.851416 
L 195.104075 -151.805509 
L 195.631531 -151.69087 
L 196.242505 -151.602883 
L 196.834824 -151.620338 
L 197.409145 -151.563235 
L 197.891854 -151.363612 
L 198.461623 -151.240967 
L 199.153137 -151.001278 
L 199.742738 -150.858857 
L 200.262128 -150.491416 
L 200.741344 -150.379897 
L 201.243262 -150.156858 
L 201.820075 -150.02442 
L 202.436567 -149.872899 
L 202.963317 -149.598796 
L 203.620583 -149.400948 
L 204.393042 -149.281491 
L 204.856549 -149.232058 
L 205.223489 -149.079524 
L 205.84346 -149.058669 
L 206.5929 -149.029259 
L 206.96368 -149.041965 
L 207.33709 -148.95388 
L 207.906826 -148.881552 
L 208.557401 -148.775857 
L 209.171991 -148.736051 
L 209.592304 -148.508003 
L 210.340627 -148.482167 
L 210.929411 -148.544591 
L 211.402944 -148.542822 
L 212.050282 -148.486841 
L 212.481681 -148.251117 
L 213.05294 -148.19069 
L 213.669503 -148.188363 
L 214.311909 -148.136922 
L 214.903484 -148.152438 
L 215.434598 -148.250382 
L 215.856637 -148.298614 
L 216.294318 -148.390491 
L 216.961732 -148.418227 
L 217.641102 -148.503609 
L 218.13923 -148.572009 
L 218.580899 -148.80856 
L 219.271276 -149.069884 
L 219.960222 -149.197206 
L 220.442914 -149.28446 
L 220.885584 -149.36703 
L 221.564893 -149.477974 
L 222.064953 -149.601013 
L 222.541109 -149.633753 
L 223.062057 -149.672725 
L 223.713411 -149.692591 
L 224.390498 -149.660496 
L 224.816679 -149.86349 
L 225.49829 -150.078068 
L 226.132479 -150.252597 
L 226.661016 -150.391803 
L 227.204015 -150.573525 
L 227.695119 -150.703638 
L 228.1461 -150.726871 
L 228.689289 -150.88418 
L 229.261905 -150.894409 
L 229.711185 -150.975887 
L 230.303369 -151.101863 
L 231.071664 -151.208834 
L 231.727407 -151.396775 
L 232.110089 -151.600428 
L 232.536214 -151.696909 
L 233.200998 -151.801688 
L 233.708572 -151.921508 
L 234.275859 -152.082498 
L 235.029922 -152.179886 
L 235.538763 -152.268446 
L 236.121547 -152.508177 
L 236.787664 -152.643705 
L 237.294067 -152.848794 
L 237.738317 -152.982932 
L 238.324426 -153.160478 
L 238.794535 -153.265062 
L 239.31995 -153.382454 
L 240.022011 -153.409382 
L 240.619176 -153.362702 
L 241.180799 -153.378978 
L 241.726104 -153.396996 
L 242.363208 -153.416116 
L 242.733982 -153.527278 
L 243.044153 -153.665341 
L 243.808401 -153.722984 
L 244.428273 -153.913112 
L 244.918718 -154.010723 
L 245.401666 -154.255042 
L 245.995081 -154.297157 
L 246.579996 -154.318785 
L 246.92026 -154.383557 
L 247.677323 -154.313071 
L 248.487121 -154.307163 
L 249.090465 -154.342306 
L 249.504739 -154.393706 
L 249.819526 -154.127814 
L 250.34447 -154.078682 
L 250.989101 -154.139058 
L 251.693657 -154.185603 
L 252.348105 -154.231432 
L 252.941343 -154.290893 
L 253.294097 -154.764946 
L 253.642692 -155.013889 
L 254.220259 -155.275091 
L 254.934162 -155.423425 
L 255.648515 -155.6139 
L 256.112448 -155.747492 
L 256.585688 -155.874205 
L 257.248436 -156.007 
L 257.720894 -156.178889 
L 258.229495 -156.260733 
L 259.03124 -156.429175 
L 259.62095 -156.909192 
L 259.954339 -157.052339 
L 260.358951 -157.081102 
L 261.079259 -157.135058 
L 261.850747 -157.394204 
L 262.474207 -157.612638 
L 262.889949 -157.776516 
L 263.242677 -158.024451 
L 263.899151 -158.199612 
L 264.427414 -158.342293 
L 264.952986 -158.580858 
L 265.523494 -158.711404 
L 266.014404 -158.870993 
L 266.704934 -159.21584 
L 267.205265 -159.510266 
L 267.720312 -159.746346 
L 268.243678 -160.079821 
L 268.737135 -160.378252 
L 269.355584 -160.599681 
L 269.988681 -160.796687 
L 270.669451 -161.128515 
L 271.15758 -161.353865 
L 271.783022 -161.617968 
L 272.530074 -161.960639 
L 272.940471 -162.137487 
L 273.481 -162.509971 
L 273.954647 -162.739412 
L 274.437599 -162.828793 
L 275.051926 -163.045802 
L 275.56709 -163.401015 
L 276.15886 -163.604405 
L 276.815894 -163.741951 
L 277.438278 -163.980165 
L 278.016715 -164.117513 
L 278.655753 -164.208978 
L 279.081092 -164.278764 
L 279.441596 -164.400711 
L 280.009453 -164.640384 
L 280.750294 -164.724304 
L 281.414358 -164.855472 
L 281.868842 -165.144681 
L 282.462277 -165.419601 
L 283.060514 -165.640944 
L 283.541412 -165.655868 
L 284.034616 -165.751695 
L 284.455853 -165.819991 
L 284.985177 -165.977805 
L 285.77265 -166.165329 
L 286.482005 -166.335033 
L 286.890585 -166.436195 
L 287.294955 -166.531352 
L 287.935969 -166.626629 
L 288.518643 -166.659196 
L 289.008299 -166.735767 
L 289.618153 -166.818808 
L 290.123811 -166.890251 
L 290.662341 -166.992852 
L 291.382739 -167.02199 
L 291.877192 -167.074001 
L 292.352728 -167.117838 
L 293.005759 -167.213399 
L 293.5776 -167.360116 
L 293.956717 -167.384248 
L 294.452516 -167.4105 
L 295.012255 -167.480569 
L 295.589947 -167.479649 
L 296.347659 -167.532303 
L 296.866553 -167.556602 
L 297.208872 -167.636061 
L 297.72762 -167.659619 
L 298.341975 -167.704099 
L 299.018494 -167.723144 
L 299.55607 -167.743687 
L 300.037884 -167.736766 
L 300.733863 -167.761011 
L 301.23383 -167.821281 
L 301.816658 -167.756217 
L 302.357543 -167.774048 
L 302.786158 -167.811231 
L 303.449059 -167.911415 
L 304.206508 -167.917977 
L 304.681827 -167.948146 
L 305.145888 -167.976872 
L 305.653596 -167.971662 
L 306.290169 -168.001645 
L 306.937698 -168.027369 
L 307.326746 -167.801959 
L 307.866397 -167.551912 
L 308.465388 -167.446444 
L 309.139343 -167.520274 
L 309.590727 -167.472979 
L 310.191111 -167.200068 
L 310.819527 -167.095574 
L 311.302763 -167.11371 
L 311.822678 -167.05466 
L 312.31735 -167.454109 
L 312.840139 -167.543106 
L 313.395119 -167.498121 
L 314.020471 -167.461912 
L 314.762924 -167.506991 
L 315.294208 -167.552615 
L 315.617408 -167.528331 
L 316.227488 -167.553859 
L 316.915499 -167.567054 
L 317.393921 -167.590553 
L 317.828603 -167.660439 
L 318.364804 -167.613479 
L 319.103615 -167.584482 
L 319.740728 -167.555735 
L 320.122441 -167.520073 
L 320.71835 -167.496279 
L 321.298515 -167.443332 
L 321.992183 -167.453641 
L 322.638258 -167.506222 
L 323.127217 -167.512521 
L 323.776602 -167.554879 
L 324.404547 -167.570265 
L 324.818244 -167.572146 
L 325.122514 -167.642476 
L 325.635796 -167.62951 
L 326.197968 -167.632867 
L 326.902876 -167.634406 
L 327.525476 -167.749538 
L 327.976765 -167.772697 
L 328.692146 -167.780833 
L 329.375967 -167.817488 
L 329.776733 -167.896851 
L 330.373267 -167.891966 
L 331.050809 -167.89426 
L 331.391414 -167.887983 
L 331.941022 -167.763611 
L 332.529142 -167.760299 
L 333.026434 -167.794151 
L 333.768701 -167.758305 
L 334.269971 -167.764094 
L 334.708884 -167.745203 
L 335.455451 -167.737138 
L 335.9168 -167.782622 
L 336.387046 -167.743967 
L 337.026954 -167.716522 
L 337.547549 -167.642456 
L 338.040247 -167.611213 
L 338.607489 -167.546775 
L 339.201049 -167.494074 
L 339.707466 -167.419228 
L 340.358819 -167.228584 
L 341.013833 -167.204259 
L 341.646587 -167.106509 
L 342.222942 -166.955921 
L 342.644395 -166.894132 
L 343.139051 -166.852958 
L 343.753728 -166.719507 
L 344.436169 -166.628632 
L 344.985707 -166.555459 
L 345.426541 -166.561531 
L 345.935019 -166.510115 
L 346.542979 -166.469368 
L 347.195084 -166.362019 
L 347.589511 -166.290779 
L 348.168258 -166.239919 
L 348.809617 -166.195559 
L 349.352947 -166.169072 
L 349.938949 -166.130751 
L 350.468036 -166.079146 
L 351.098693 -165.985136 
L 351.465261 -165.856173 
L 352.075357 -165.80502 
L 352.873774 -165.685275 
L 353.339857 -165.665311 
L 353.736498 -165.697082 
L 354.382601 -165.724639 
L 354.999118 -165.685491 
L 355.436276 -165.632045 
L 355.987255 -165.48562 
L 356.58687 -165.395479 
L 357.258793 -165.262664 
L 357.796004 -165.178633 
L 358.303869 -165.118662 
L 358.741523 -165.06104 
L 359.120281 -165.019868 
L 359.833146 -164.922174 
L 360.532892 -164.879788 
L 360.895382 -164.762288 
L 361.356702 -164.768439 
L 362.095741 -164.597928 
L 362.731613 -164.611101 
L 363.277886 -164.577829 
L 363.806937 -164.578684 
L 364.428429 -164.600486 
L 365.128601 -164.583247 
L 365.462539 -164.574851 
L 365.785637 -164.522382 
L 366.340694 -164.497039 
L 366.895454 -164.47306 
L 367.466193 -164.522689 
L 368.09553 -164.605055 
L 368.655765 -164.648608 
L 369.24444 -164.69022 
L 370.009665 -164.73663 
L 370.532283 -164.751733 
L 370.86588 -164.748286 
L 371.551224 -164.777134 
L 372.098141 -164.673537 
L 372.439879 -164.654867 
L 373.215665 -164.676817 
L 373.886994 -164.73483 
L 374.482031 -164.674818 
L 375.096128 -164.623014 
L 375.452664 -164.638329 
L 376.11043 -164.656675 
L 376.692652 -164.67555 
L 377.175816 -164.68844 
L 377.933154 -164.66398 
L 378.565677 -164.632002 
L 378.976707 -164.626687 
L 379.356833 -164.633827 
L 380.01535 -164.644852 
L 380.611486 -164.682809 
L 380.947704 -164.716481 
L 381.47455 -164.714699 
L 382.101047 -164.700962 
L 382.695217 -164.682428 
L 383.228007 -164.608515 
L 383.809892 -164.61755 
L 384.571975 -164.64169 
L 385.061321 -164.620617 
L 385.541698 -164.594155 
L 386.226319 -164.573848 
L 386.673123 -164.587049 
L 387.035202 -164.602542 
L 387.773978 -164.584575 
L 388.384263 -164.60225 
L 388.951831 -164.588279 
L 389.630843 -164.661111 
L 390.161905 -164.708768 
L 390.535014 -164.887642 
L 390.912398 -164.69108 
L 391.53778 -164.716951 
L 392.06612 -164.707075 
L 392.703486 -164.715273 
L 393.280325 -164.683564 
L 393.710013 -164.679254 
L 394.356368 -164.819263 
L 395.147193 -164.86648 
L 395.80456 -164.802585 
L 396.343728 -164.780565 
L 396.805523 -164.813908 
L 397.295223 -164.813283 
L 397.972061 -164.643095 
L 398.450511 -164.645023 
L 398.868926 -164.743224 
L 399.512906 -164.772119 
L 400.128336 -164.769466 
L 400.651203 -164.815989 
L 401.046982 -164.846136 
L 401.572757 -164.91215 
L 402.163811 -165.012894 
L 402.737248 -165.172194 
L 403.331807 -165.313059 
L 403.875606 -165.434317 
L 404.604848 -165.531802 
L 405.139807 -165.531392 
L 405.579345 -165.574253 
L 406.224076 -165.715704 
L 406.84327 -165.815349 
L 407.466886 -165.88498 
L 407.948847 -165.919068 
L 408.522966 -165.981601 
L 408.969493 -165.949102 
L 409.308324 -166.011413 
L 410.026456 -166.055166 
L 410.788003 -166.13615 
L 411.298181 -166.242555 
L 411.851557 -166.359922 
L 412.346029 -166.358773 
L 412.760848 -166.408982 
L 413.541427 -166.43701 
L 414.072875 -166.415706 
L 414.630029 -166.419577 
L 415.132001 -166.425869 
L 415.534056 -166.477716 
L 416.13775 -166.516684 
L 416.610419 -166.52965 
L 417.277715 -166.590228 
L 417.813153 -166.626765 
L 418.276123 -166.623536 
L 418.894355 -166.792904 
L 419.456288 -166.856584 
L 419.973055 -166.943403 
L 420.715221 -167.086864 
L 421.470315 -167.219064 
L 422.025394 -167.383446 
L 422.576176 -167.415935 
L 423.069909 -167.472777 
L 423.48081 -167.465763 
L 424.002866 -167.427872 
L 424.717324 -167.398576 
L 425.383426 -167.327049 
L 425.824501 -167.305907 
L 426.383869 -167.291943 
L 426.842251 -167.239225 
L 427.292935 -167.124902 
L 427.970118 -167.069658 
L 428.622088 -166.917221 
L 429.175603 -166.767604 
L 429.58041 -166.570201 
L 430.217198 -166.535417 
L 430.754077 -166.448842 
L 431.216434 -166.290552 
L 431.878339 -166.173297 
L 432.472006 -166.092429 
L 432.939868 -166.004629 
L 433.631379 -165.891988 
L 434.169093 -165.762085 
L 434.695227 -165.596368 
L 435.283895 -165.427262 
L 435.865964 -165.286632 
L 436.384387 -165.200821 
L 436.809214 -165.160714 
L 437.382892 -165.064564 
L 438.00873 -164.900474 
L 438.574725 -164.813982 
L 439.009408 -164.708313 
L 439.702547 -164.650391 
L 440.410836 -164.568038 
L 440.907758 -164.478843 
L 441.385658 -164.314334 
L 441.812975 -164.270693 
L 442.461286 -164.189142 
L 443.038654 -164.119958 
L 443.541488 -164.125446 
L 444.255279 -164.063358 
L 444.693702 -164.048672 
L 445.13316 -164.012866 
L 445.728478 -163.998753 
L 446.461403 -164.002913 
L 446.997782 -164.026891 
L 447.342726 -164.024322 
L 447.9998 -163.88026 
L 448.654689 -163.900786 
L 449.149562 -164.138013 
L 449.803637 -164.334663 
L 450.263156 -164.557273 
L 450.83412 -164.632254 
L 451.473713 -164.643474 
L 451.870308 -164.718615 
L 452.424727 -164.596973 
L 453.014624 -164.561817 
L 453.640691 -164.606027 
L 454.290538 -164.575265 
L 454.941068 -164.593332 
L 455.479928 -164.541714 
L 456.056256 -164.443568 
L 456.500973 -164.440167 
L 457.047765 -164.488878 
L 457.640741 -164.551332 
L 458.133922 -164.498326 
L 458.816612 -164.668964 
L 459.267391 -164.74208 
L 459.795013 -164.686788 
L 460.45002 -164.957237 
L 460.818115 -165.036273 
L 461.406692 -165.222713 
L 462.197074 -165.278045 
L 462.779685 -165.310478 
L 463.157066 -165.451754 
L 463.630133 -165.596785 
L 464.319443 -165.722795 
L 464.786602 -165.795624 
L 465.155473 -165.872012 
L 465.675136 -165.925939 
L 466.320665 -166.187029 
L 467.078781 -166.321975 
L 467.745549 -166.432551 
L 468.14517 -166.541739 
L 468.673109 -166.703693 
L 469.231754 -166.85797 
L 469.793379 -166.940271 
L 470.335772 -167.124067 
L 470.720908 -167.39359 
L 471.408547 -167.557323 
L 472.114155 -167.677686 
L 472.640371 -167.81476 
L 473.076965 -167.924388 
L 473.63905 -168.102684 
L 474.19698 -168.265612 
L 474.664006 -168.448814 
L 475.441226 -168.678011 
L 476.043466 -168.849811 
L 476.436932 -168.946788 
L 477.04303 -169.047224 
L 477.696465 -169.134472 
L 478.13552 -169.342199 
L 478.57162 -169.392832 
L 479.263744 -169.458486 
L 479.783541 -169.524478 
L 480.230515 -169.566536 
L 480.767868 -169.558155 
L 481.482399 -169.591373 
L 482.234865 -169.655484 
L 482.680706 -169.698238 
L 483.226995 -169.801598 
L 483.906813 -169.814282 
L 484.270483 -169.80759 
L 484.634615 -169.828047 
L 485.278594 -169.852306 
L 486.018438 -169.910994 
L 486.60266 -169.966427 
L 487.209748 -169.981171 
L 487.915002 -170.059085 
L 488.359391 -170.101481 
L 488.818025 -170.175409 
L 489.314782 -170.245808 
L 489.935377 -170.290986 
L 490.675296 -170.313739 
L 491.042351 -170.416624 
L 491.358002 -170.487634 
L 491.882441 -170.567092 
L 492.636141 -170.716727 
L 493.248831 -170.796582 
L 493.680288 -170.828096 
L 494.271307 -170.898772 
L 494.948166 -170.995836 
L 495.507506 -171.066113 
L 495.871463 -171.124212 
L 496.36078 -171.137186 
L 497.048866 -171.147445 
L 497.750486 -171.162858 
L 498.407179 -171.22476 
L 498.966921 -171.336372 
L 499.305939 -171.389335 
L 499.965398 -171.441011 
L 500.668456 -171.523487 
L 500.98732 -171.533755 
L 501.544732 -171.608159 
L 502.095946 -171.642019 
L 502.599565 -171.703777 
L 503.169839 -171.824062 
L 503.857865 -171.877512 
L 504.4594 -171.966857 
L 505.001946 -171.931626 
L 505.508092 -171.961729 
L 505.860039 -171.987392 
L 506.557336 -171.963434 
L 507.223596 -171.956339 
L 507.641626 -171.934994 
L 508.103212 -171.909602 
L 508.658401 -171.92529 
L 509.385495 -171.960656 
L 509.931922 -172.024233 
L 510.446011 -172.005352 
L 511.124464 -171.997597 
L 511.5114 -172.028926 
L 511.989837 -172.025508 
L 512.585009 -172.096502 
L 513.257134 -172.239284 
L 513.808376 -172.358231 
L 514.328177 -172.480891 
L 514.869144 -172.523843 
L 515.527883 -172.587756 
L 516.267561 -172.602325 
L 516.753596 -172.640308 
L 517.341312 -172.63607 
L 517.833363 -172.672692 
L 518.335732 -172.683809 
L 518.878647 -172.689615 
L 519.45919 -172.733199 
L 520.005884 -172.764668 
L 520.640247 -172.809627 
L 521.14683 -172.885836 
L 521.453003 -172.943638 
L 522.034365 -172.960055 
L 522.820719 -173.012572 
L 523.531022 -173.006756 
L 524.121345 -173.017561 
L 524.62085 -173.038212 
L 525.123896 -173.043715 
L 525.79144 -173.092264 
L 526.252676 -173.16875 
L 526.62155 -173.232936 
L 527.059172 -173.233947 
L 527.81668 -173.217577 
L 528.498973 -173.306966 
L 529.026061 -173.302323 
L 529.707109 -173.292769 
L 530.068615 -173.347485 
L 530.447022 -173.374633 
L 531.155662 -173.399716 
L 531.789372 -173.425463 
L 532.295178 -173.458172 
L 532.927565 -173.532098 
L 533.42403 -173.555755 
L 533.832963 -173.559201 
L 534.609803 -173.543517 
L 535.16191 -173.507368 
L 535.525498 -173.539883 
L 536.193972 -173.593721 
L 536.866073 -173.499163 
L 537.35649 -173.414819 
L 537.949489 -173.304519 
L 538.623567 -173.117346 
L 539.189 -173.033387 
L 539.75135 -173.016545 
L 540.212695 -172.977042 
L 540.569571 -172.940985 
L 541.142004 -172.825329 
L 541.832357 -172.798438 
L 542.457997 -172.717127 
L 542.997555 -172.688869 
L 543.604911 -172.676123 
L 544.22038 -172.706186 
L 544.742032 -172.773899 
L 545.148797 -172.868009 
L 545.4683 -172.93015 
L 546.12594 -173.105828 
L 546.806673 -173.291898 
L 547.338218 -173.376352 
L 547.879989 -173.404069 
L 548.318318 -173.430249 
L 548.951381 -173.553639 
L 549.730282 -173.635693 
L 550.223238 -173.695037 
L 550.642714 -173.808099 
L 551.114855 -173.941203 
L 551.748529 -173.968683 
L 552.308508 -174.124448 
L 552.919908 -174.224229 
L 553.637975 -174.384893 
L 554.071533 -174.57604 
L 554.591781 -174.720511 
L 555.317184 -174.855981 
L 555.984549 -174.908551 
L 556.353804 -174.980533 
L 556.83814 -175.071957 
L 557.350399 -175.111182 
L 557.849555 -175.156441 
L 558.600411 -175.226623 
L 559.105372 -175.283579 
L 559.510581 -175.294142 
L 560.078238 -175.313734 
L 560.648829 -175.315298 
L 561.359865 -175.323642 
L 562.031049 -175.381307 
L 562.475333 -175.440047 
L 563.080421 -175.441198 
L 563.737309 -175.450276 
L 564.319015 -175.447604 
L 564.67703 -175.448877 
L 565.1708 -175.434163 
L 565.83385 -175.467781 
L 566.229848 -175.512347 
L 566.725598 -175.540945 
L 567.33715 -175.589567 
L 567.983208 -175.623854 
L 568.585773 -175.604376 
L 568.98601 -175.563278 
L 569.568602 -175.569093 
L 570.34717 -175.587614 
L 570.765379 -175.533168 
L 571.233603 -175.553394 
L 571.97971 -175.52639 
L 572.496368 -175.481978 
L 573.001928 -175.519002 
L 573.683396 -175.509537 
L 574.259228 -175.459256 
L 574.76924 -175.435661 
L 575.233386 -175.366863 
L 575.825798 -175.372239 
L 576.370708 -175.428904 
L 576.793001 -175.395809 
L 577.302589 -175.350149 
L 578.03211 -175.198186 
L 578.606949 -175.176549 
L 579.088612 -175.087114 
L 579.681213 -174.96735 
L 580.284067 -174.839318 
L 580.824331 -174.806182 
L 581.3636 -174.723268 
L 582.138637 -174.728361 
L 582.681246 -174.625521 
L 583.090508 -174.517382 
L 583.66229 -174.467746 
L 584.358201 -174.362785 
L 584.91638 -174.295737 
L 585.232081 -174.261453 
L 585.781703 -174.209081 
L 586.408703 -173.98739 
L 586.934568 -173.883189 
L 587.633329 -173.757886 
L 588.119053 -173.63141 
L 588.653132 -173.540173 
L 589.261024 -173.396879 
L 589.629581 -173.29092 
L 590.247167 -173.093572 
L 591.049422 -172.912765 
L 591.577913 -172.8558 
L 591.888067 -172.823449 
L 592.33243 -172.816097 
L 593.097259 -172.756329 
L 593.776943 -172.775273 
L 594.19945 -172.760715 
L 594.641739 -172.700847 
L 595.349183 -172.664337 
L 595.930271 -172.73749 
L 596.402605 -172.669181 
L 597.03413 -172.661584 
L 597.631703 -172.593143 
L 598.283921 -172.576833 
L 598.901302 -172.552945 
L 599.331236 -172.532412 
L 599.860675 -172.482064 
L 600.577511 -172.481008 
L 601.092607 -172.4817 
L 601.436899 -172.46641 
L 602.009103 -172.457089 
L 602.559737 -172.452333 
L 603.113411 -172.477074 
L 603.838584 -172.347814 
L 604.244094 -172.279341 
L 604.720066 -172.216632 
L 605.385298 -172.146845 
L 605.89066 -172.100152 
L 606.382813 -172.166985 
L 607.086293 -172.327289 
L 607.784797 -172.345235 
L 608.148123 -172.298863 
L 608.729264 -172.580283 
L 609.358641 -172.833237 
L 609.736347 -173.003959 
L 610.234608 -173.160278 
L 610.962823 -173.329895 
L 611.685143 -173.54467 
L 611.945327 -173.35193 
L 611.945327 -183.035842 
L 611.945327 -183.035842 
L 611.685143 -184.800402 
L 610.962823 -183.874548 
L 610.234608 -182.8826 
L 609.736347 -181.971746 
L 609.358641 -181.110552 
L 608.729264 -180.422663 
L 608.148123 -179.681492 
L 607.784797 -179.257396 
L 607.086293 -178.72867 
L 606.382813 -178.119369 
L 605.89066 -177.560584 
L 605.385298 -177.240316 
L 604.720066 -177.241498 
L 604.244094 -177.130255 
L 603.838584 -176.775315 
L 603.113411 -176.681082 
L 602.559737 -176.587417 
L 602.009103 -176.488628 
L 601.436899 -176.500377 
L 601.092607 -176.173801 
L 600.577511 -176.175647 
L 599.860675 -176.220214 
L 599.331236 -176.318207 
L 598.901302 -176.43185 
L 598.283921 -176.445629 
L 597.631703 -176.450544 
L 597.03413 -176.47978 
L 596.402605 -176.54623 
L 595.930271 -176.689919 
L 595.349183 -176.60192 
L 594.641739 -176.66334 
L 594.19945 -176.738001 
L 593.776943 -176.65922 
L 593.097259 -176.6828 
L 592.33243 -176.803449 
L 591.888067 -176.867155 
L 591.577913 -176.95475 
L 591.049422 -177.106276 
L 590.247167 -177.352414 
L 589.629581 -177.510852 
L 589.261024 -177.64965 
L 588.653132 -177.946481 
L 588.119053 -178.132812 
L 587.633329 -178.53045 
L 586.934568 -178.968676 
L 586.408703 -179.363841 
L 585.781703 -179.695056 
L 585.232081 -179.97748 
L 584.91638 -180.196552 
L 584.358201 -180.482223 
L 583.66229 -180.713076 
L 583.090508 -180.901295 
L 582.681246 -181.124668 
L 582.138637 -181.548872 
L 581.3636 -181.85536 
L 580.824331 -182.042579 
L 580.284067 -182.422388 
L 579.681213 -182.648677 
L 579.088612 -183.003651 
L 578.606949 -183.18285 
L 578.03211 -183.317036 
L 577.302589 -183.38602 
L 576.793001 -183.434092 
L 576.370708 -183.4791 
L 575.825798 -183.453236 
L 575.233386 -183.363467 
L 574.76924 -183.292466 
L 574.259228 -183.247892 
L 573.683396 -183.076003 
L 573.001928 -182.988144 
L 572.496368 -182.801094 
L 571.97971 -182.581756 
L 571.233603 -182.420082 
L 570.765379 -182.20564 
L 570.34717 -182.030805 
L 569.568602 -181.879909 
L 568.98601 -181.652921 
L 568.585773 -181.201115 
L 567.983208 -180.842143 
L 567.33715 -180.459548 
L 566.725598 -180.24764 
L 566.229848 -180.018303 
L 565.83385 -179.874177 
L 565.1708 -179.692289 
L 564.67703 -179.478408 
L 564.319015 -179.297095 
L 563.737309 -179.224594 
L 563.080421 -179.027385 
L 562.475333 -178.88403 
L 562.031049 -178.741017 
L 561.359865 -178.535852 
L 560.648829 -178.414877 
L 560.078238 -178.295844 
L 559.510581 -178.237342 
L 559.105372 -178.154758 
L 558.600411 -178.052288 
L 557.849555 -177.922377 
L 557.350399 -177.8055 
L 556.83814 -177.726511 
L 556.353804 -177.639022 
L 555.984549 -177.512396 
L 555.317184 -177.395644 
L 554.591781 -177.299982 
L 554.071533 -177.13219 
L 553.637975 -177.041284 
L 552.919908 -176.920178 
L 552.308508 -176.82472 
L 551.748529 -176.748426 
L 551.114855 -176.668038 
L 550.642714 -176.614683 
L 550.223238 -176.533772 
L 549.730282 -176.420568 
L 548.951381 -176.369169 
L 548.318318 -176.290848 
L 547.879989 -176.230415 
L 547.338218 -176.211142 
L 546.806673 -176.104034 
L 546.12594 -175.930917 
L 545.4683 -175.857442 
L 545.148797 -175.814162 
L 544.742032 -175.698295 
L 544.22038 -175.666019 
L 543.604911 -175.641955 
L 542.997555 -175.636614 
L 542.457997 -175.625384 
L 541.832357 -175.606069 
L 541.142004 -175.593162 
L 540.569571 -175.569579 
L 540.212695 -175.528278 
L 539.75135 -175.436687 
L 539.189 -175.441254 
L 538.623567 -175.444687 
L 537.949489 -175.451966 
L 537.35649 -175.472964 
L 536.866073 -175.553425 
L 536.193972 -175.656434 
L 535.525498 -175.729934 
L 535.16191 -175.754141 
L 534.609803 -175.807259 
L 533.832963 -175.818014 
L 533.42403 -175.837102 
L 532.927565 -175.795637 
L 532.295178 -175.814277 
L 531.789372 -175.798536 
L 531.155662 -175.778187 
L 530.447022 -175.729084 
L 530.068615 -175.709189 
L 529.707109 -175.61826 
L 529.026061 -175.629559 
L 528.498973 -175.695851 
L 527.81668 -175.727655 
L 527.059172 -175.779228 
L 526.62155 -175.873678 
L 526.252676 -175.955662 
L 525.79144 -175.868792 
L 525.123896 -175.637989 
L 524.62085 -175.623575 
L 524.121345 -175.616055 
L 523.531022 -175.618026 
L 522.820719 -175.57572 
L 522.034365 -175.459367 
L 521.453003 -175.365512 
L 521.14683 -175.341601 
L 520.640247 -175.401521 
L 520.005884 -175.422546 
L 519.45919 -175.449111 
L 518.878647 -175.465968 
L 518.335732 -175.378671 
L 517.833363 -175.356985 
L 517.341312 -175.337722 
L 516.753596 -175.243432 
L 516.267561 -175.139652 
L 515.527883 -175.051907 
L 514.869144 -175.020281 
L 514.328177 -174.892832 
L 513.808376 -174.82885 
L 513.257134 -174.725699 
L 512.585009 -174.631249 
L 511.989837 -174.593686 
L 511.5114 -174.586836 
L 511.124464 -174.548538 
L 510.446011 -174.557162 
L 509.931922 -174.588384 
L 509.385495 -174.635438 
L 508.658401 -174.665532 
L 508.103212 -174.81427 
L 507.641626 -174.82865 
L 507.223596 -174.857565 
L 506.557336 -174.929738 
L 505.860039 -174.821155 
L 505.508092 -174.830458 
L 505.001946 -174.818924 
L 504.4594 -174.83471 
L 503.857865 -174.824328 
L 503.169839 -174.788639 
L 502.599565 -174.762027 
L 502.095946 -174.591263 
L 501.544732 -174.597789 
L 500.98732 -174.493835 
L 500.668456 -174.589385 
L 499.965398 -174.63092 
L 499.305939 -174.846421 
L 498.966921 -174.843446 
L 498.407179 -174.799496 
L 497.750486 -174.760298 
L 497.048866 -174.819001 
L 496.36078 -174.853519 
L 495.871463 -174.837869 
L 495.507506 -174.848678 
L 494.948166 -174.816724 
L 494.271307 -174.746899 
L 493.680288 -174.758715 
L 493.248831 -174.706073 
L 492.636141 -174.446549 
L 491.882441 -174.402796 
L 491.358002 -174.397801 
L 491.042351 -174.408019 
L 490.675296 -174.322655 
L 489.935377 -174.277084 
L 489.314782 -174.150351 
L 488.818025 -174.09592 
L 488.359391 -174.016451 
L 487.915002 -173.884082 
L 487.209748 -173.889298 
L 486.60266 -173.817901 
L 486.018438 -173.754341 
L 485.278594 -173.696546 
L 484.634615 -173.632853 
L 484.270483 -173.593385 
L 483.906813 -173.514993 
L 483.226995 -173.378612 
L 482.680706 -173.289491 
L 482.234865 -173.180385 
L 481.482399 -173.095152 
L 480.767868 -173.002421 
L 480.230515 -172.78747 
L 479.783541 -172.622217 
L 479.263744 -172.572374 
L 478.57162 -172.41693 
L 478.13552 -172.170298 
L 477.696465 -172.05664 
L 477.04303 -171.863247 
L 476.436932 -171.736288 
L 476.043466 -171.591126 
L 475.441226 -171.474869 
L 474.664006 -171.335746 
L 474.19698 -171.058917 
L 473.63905 -170.955519 
L 473.076965 -170.852637 
L 472.640371 -170.745726 
L 472.114155 -170.531489 
L 471.408547 -170.391281 
L 470.720908 -170.349591 
L 470.335772 -170.227753 
L 469.793379 -170.060758 
L 469.231754 -169.938781 
L 468.673109 -169.851095 
L 468.14517 -169.73217 
L 467.745549 -169.628033 
L 467.078781 -169.499576 
L 466.320665 -169.436525 
L 465.675136 -169.341575 
L 465.155473 -169.228134 
L 464.786602 -169.242689 
L 464.319443 -169.195362 
L 463.630133 -169.138623 
L 463.157066 -168.985384 
L 462.779685 -168.967212 
L 462.197074 -168.910955 
L 461.406692 -168.851136 
L 460.818115 -168.797552 
L 460.45002 -168.752085 
L 459.795013 -168.662967 
L 459.267391 -168.663953 
L 458.816612 -168.654284 
L 458.133922 -168.62033 
L 457.640741 -168.52747 
L 457.047765 -168.537367 
L 456.500973 -168.510031 
L 456.056256 -168.565092 
L 455.479928 -168.601729 
L 454.941068 -168.59376 
L 454.290538 -168.577378 
L 453.640691 -168.597968 
L 453.014624 -168.648617 
L 452.424727 -168.674076 
L 451.870308 -168.748773 
L 451.473713 -168.686622 
L 450.83412 -168.703343 
L 450.263156 -168.67797 
L 449.803637 -168.748677 
L 449.149562 -168.801272 
L 448.654689 -168.907781 
L 447.9998 -168.913895 
L 447.342726 -168.83157 
L 446.997782 -168.857906 
L 446.461403 -168.893678 
L 445.728478 -168.903381 
L 445.13316 -168.968774 
L 444.693702 -169.016958 
L 444.255279 -169.05418 
L 443.541488 -169.040547 
L 443.038654 -169.040734 
L 442.461286 -169.018056 
L 441.812975 -169.006442 
L 441.385658 -169.09922 
L 440.907758 -169.085805 
L 440.410836 -169.105471 
L 439.702547 -169.090029 
L 439.009408 -169.134128 
L 438.574725 -169.188326 
L 438.00873 -169.246771 
L 437.382892 -169.311138 
L 436.809214 -169.372482 
L 436.384387 -169.42418 
L 435.865964 -169.458392 
L 435.283895 -169.471313 
L 434.695227 -169.635958 
L 434.169093 -169.647269 
L 433.631379 -169.72333 
L 432.939868 -169.780091 
L 432.472006 -169.810195 
L 431.878339 -169.887878 
L 431.216434 -169.898 
L 430.754077 -169.955837 
L 430.217198 -169.969081 
L 429.58041 -170.033679 
L 429.175603 -170.054476 
L 428.622088 -170.174534 
L 427.970118 -170.239269 
L 427.292935 -170.268729 
L 426.842251 -170.419139 
L 426.383869 -170.477922 
L 425.824501 -170.552838 
L 425.383426 -170.58797 
L 424.717324 -170.592059 
L 424.002866 -170.676843 
L 423.48081 -170.707894 
L 423.069909 -170.693052 
L 422.576176 -170.66053 
L 422.025394 -170.714182 
L 421.470315 -170.712428 
L 420.715221 -170.618706 
L 419.973055 -170.52232 
L 419.456288 -170.42774 
L 418.894355 -170.36389 
L 418.276123 -170.226032 
L 417.813153 -170.202497 
L 417.277715 -170.180082 
L 416.610419 -170.092682 
L 416.13775 -170.087375 
L 415.534056 -170.088379 
L 415.132001 -170.08314 
L 414.630029 -170.090561 
L 414.072875 -170.048714 
L 413.541427 -169.990597 
L 412.760848 -169.987302 
L 412.346029 -169.914276 
L 411.851557 -169.836634 
L 411.298181 -169.805563 
L 410.788003 -169.694654 
L 410.026456 -169.667519 
L 409.308324 -169.65258 
L 408.969493 -169.608763 
L 408.522966 -169.571159 
L 407.948847 -169.55185 
L 407.466886 -169.465374 
L 406.84327 -169.430147 
L 406.224076 -169.35016 
L 405.579345 -169.343424 
L 405.139807 -169.26536 
L 404.604848 -169.23619 
L 403.875606 -169.113974 
L 403.331807 -169.076649 
L 402.737248 -169.067281 
L 402.163811 -168.999606 
L 401.572757 -168.950898 
L 401.046982 -168.91806 
L 400.651203 -168.901482 
L 400.128336 -168.873657 
L 399.512906 -168.845911 
L 398.868926 -168.786595 
L 398.450511 -168.796399 
L 397.972061 -168.794959 
L 397.295223 -168.900082 
L 396.805523 -168.89094 
L 396.343728 -168.819144 
L 395.80456 -168.760794 
L 395.147193 -168.776869 
L 394.356368 -168.764489 
L 393.710013 -168.696275 
L 393.280325 -168.626761 
L 392.703486 -168.53719 
L 392.06612 -168.455881 
L 391.53778 -168.455151 
L 390.912398 -168.494654 
L 390.535014 -168.445443 
L 390.161905 -168.347194 
L 389.630843 -168.330925 
L 388.951831 -168.295846 
L 388.384263 -168.294871 
L 387.773978 -168.282528 
L 387.035202 -168.28116 
L 386.673123 -168.246543 
L 386.226319 -168.215125 
L 385.541698 -168.236797 
L 385.061321 -168.256499 
L 384.571975 -168.280113 
L 383.809892 -168.252439 
L 383.228007 -168.263854 
L 382.695217 -168.233261 
L 382.101047 -168.237645 
L 381.47455 -168.252339 
L 380.947704 -168.24449 
L 380.611486 -168.148265 
L 380.01535 -168.13235 
L 379.356833 -168.119037 
L 378.976707 -168.134281 
L 378.565677 -168.108109 
L 377.933154 -168.091837 
L 377.175816 -168.111674 
L 376.692652 -168.088564 
L 376.11043 -168.090614 
L 375.452664 -168.099242 
L 375.096128 -168.10679 
L 374.482031 -168.142914 
L 373.886994 -168.158959 
L 373.215665 -168.149768 
L 372.439879 -168.132474 
L 372.098141 -168.152801 
L 371.551224 -168.19575 
L 370.86588 -168.214383 
L 370.532283 -168.175269 
L 370.009665 -168.158146 
L 369.24444 -168.147175 
L 368.655765 -168.075422 
L 368.09553 -167.981021 
L 367.466193 -167.967512 
L 366.895454 -167.891284 
L 366.340694 -167.789904 
L 365.785637 -167.806231 
L 365.462539 -167.792273 
L 365.128601 -167.811107 
L 364.428429 -167.818691 
L 363.806937 -167.806807 
L 363.277886 -167.794038 
L 362.731613 -167.849169 
L 362.095741 -167.842154 
L 361.356702 -167.87944 
L 360.895382 -167.923265 
L 360.532892 -167.999507 
L 359.833146 -168.068459 
L 359.120281 -168.097436 
L 358.741523 -168.121423 
L 358.303869 -168.19618 
L 357.796004 -168.304442 
L 357.258793 -168.405025 
L 356.58687 -168.468145 
L 355.987255 -168.535125 
L 355.436276 -168.62604 
L 354.999118 -168.711006 
L 354.382601 -168.776121 
L 353.736498 -168.727977 
L 353.339857 -168.746661 
L 352.873774 -168.774163 
L 352.075357 -168.813987 
L 351.465261 -168.899588 
L 351.098693 -169.047553 
L 350.468036 -169.164436 
L 349.938949 -169.228011 
L 349.352947 -169.270806 
L 348.809617 -169.295618 
L 348.168258 -169.379442 
L 347.589511 -169.480101 
L 347.195084 -169.513388 
L 346.542979 -169.585222 
L 345.935019 -169.571249 
L 345.426541 -169.663718 
L 344.985707 -169.744428 
L 344.436169 -169.804166 
L 343.753728 -169.920605 
L 343.139051 -169.9782 
L 342.644395 -170.152328 
L 342.222942 -170.267812 
L 341.646587 -170.507969 
L 341.013833 -170.665128 
L 340.358819 -170.909341 
L 339.707466 -171.140248 
L 339.201049 -171.341226 
L 338.607489 -171.474443 
L 338.040247 -171.643697 
L 337.547549 -171.789133 
L 337.026954 -172.017832 
L 336.387046 -172.188338 
L 335.9168 -172.392917 
L 335.455451 -172.457018 
L 334.708884 -172.544885 
L 334.269971 -172.734256 
L 333.768701 -172.834973 
L 333.026434 -172.96978 
L 332.529142 -173.13651 
L 331.941022 -173.398074 
L 331.391414 -173.480756 
L 331.050809 -173.626091 
L 330.373267 -173.749433 
L 329.776733 -173.714569 
L 329.375967 -173.607264 
L 328.692146 -173.635954 
L 327.976765 -173.592657 
L 327.525476 -173.59754 
L 326.902876 -173.57827 
L 326.197968 -173.538122 
L 325.635796 -173.544833 
L 325.122514 -173.454098 
L 324.818244 -173.481034 
L 324.404547 -173.476472 
L 323.776602 -173.611878 
L 323.127217 -173.618513 
L 322.638258 -173.592314 
L 321.992183 -173.620133 
L 321.298515 -173.601616 
L 320.71835 -173.42426 
L 320.122441 -173.419713 
L 319.740728 -173.493076 
L 319.103615 -173.529062 
L 318.364804 -173.54543 
L 317.828603 -173.600589 
L 317.393921 -173.839658 
L 316.915499 -173.768907 
L 316.227488 -173.655749 
L 315.617408 -173.647732 
L 315.294208 -173.692407 
L 314.762924 -173.710988 
L 314.020471 -173.690908 
L 313.395119 -173.702745 
L 312.840139 -173.818281 
L 312.31735 -173.868178 
L 311.822678 -173.861704 
L 311.302763 -174.039723 
L 310.819527 -174.146154 
L 310.191111 -174.22645 
L 309.590727 -174.428516 
L 309.139343 -174.590539 
L 308.465388 -174.664554 
L 307.866397 -174.776324 
L 307.326746 -174.89077 
L 306.937698 -174.973322 
L 306.290169 -175.25242 
L 305.653596 -175.540618 
L 305.145888 -175.913535 
L 304.681827 -175.950641 
L 304.206508 -176.109873 
L 303.449059 -176.131267 
L 302.786158 -176.2617 
L 302.357543 -176.416169 
L 301.816658 -176.159614 
L 301.23383 -175.982833 
L 300.733863 -176.051727 
L 300.037884 -175.856129 
L 299.55607 -175.596386 
L 299.018494 -175.508219 
L 298.341975 -175.317836 
L 297.72762 -175.284482 
L 297.208872 -175.127739 
L 296.866553 -175.005873 
L 296.347659 -175.094434 
L 295.589947 -175.03759 
L 295.012255 -174.941182 
L 294.452516 -174.881035 
L 293.956717 -174.750051 
L 293.5776 -174.591264 
L 293.005759 -174.451919 
L 292.352728 -174.31 
L 291.877192 -173.996739 
L 291.382739 -173.788756 
L 290.662341 -173.599377 
L 290.123811 -173.385992 
L 289.618153 -173.170638 
L 289.008299 -172.828167 
L 288.518643 -172.715597 
L 287.935969 -172.577325 
L 287.294955 -172.264977 
L 286.890585 -171.982789 
L 286.482005 -171.599554 
L 285.77265 -171.172649 
L 284.985177 -170.847977 
L 284.455853 -170.445923 
L 284.034616 -170.241683 
L 283.541412 -169.679481 
L 283.060514 -169.414212 
L 282.462277 -169.069735 
L 281.868842 -168.694429 
L 281.414358 -168.43072 
L 280.750294 -168.282885 
L 280.009453 -168.194276 
L 279.441596 -167.939105 
L 279.081092 -167.770263 
L 278.655753 -167.534001 
L 278.016715 -167.278348 
L 277.438278 -167.081841 
L 276.815894 -167.059504 
L 276.15886 -166.585237 
L 275.56709 -166.24335 
L 275.051926 -165.98325 
L 274.437599 -165.773255 
L 273.954647 -165.568289 
L 273.481 -165.26127 
L 272.940471 -165.051444 
L 272.530074 -164.749799 
L 271.783022 -164.617275 
L 271.15758 -164.601184 
L 270.669451 -164.484584 
L 269.988681 -164.262923 
L 269.355584 -164.020864 
L 268.737135 -163.997367 
L 268.243678 -163.888817 
L 267.720312 -163.73026 
L 267.205265 -163.522262 
L 266.704934 -163.416367 
L 266.014404 -163.360751 
L 265.523494 -163.344853 
L 264.952986 -163.243272 
L 264.427414 -163.113428 
L 263.899151 -163.020953 
L 263.242677 -162.88846 
L 262.889949 -162.838604 
L 262.474207 -162.636302 
L 261.850747 -162.496615 
L 261.079259 -162.454545 
L 260.358951 -162.339427 
L 259.954339 -162.193702 
L 259.62095 -162.024939 
L 259.03124 -162.159965 
L 258.229495 -162.088546 
L 257.720894 -161.910905 
L 257.248436 -161.867082 
L 256.585688 -161.739234 
L 256.112448 -161.72709 
L 255.648515 -161.69076 
L 254.934162 -161.655231 
L 254.220259 -161.61618 
L 253.642692 -161.468667 
L 253.294097 -161.296616 
L 252.941343 -161.383189 
L 252.348105 -161.220243 
L 251.693657 -161.195788 
L 250.989101 -161.10839 
L 250.34447 -161.108195 
L 249.819526 -160.999726 
L 249.504739 -160.872931 
L 249.090465 -160.785463 
L 248.487121 -160.767827 
L 247.677323 -160.702482 
L 246.92026 -160.685537 
L 246.579996 -160.622424 
L 245.995081 -160.584306 
L 245.401666 -160.453676 
L 244.918718 -160.454379 
L 244.428273 -160.379939 
L 243.808401 -160.202273 
L 243.044153 -160.056817 
L 242.733982 -159.943794 
L 242.363208 -159.921248 
L 241.726104 -159.926739 
L 241.180799 -159.771032 
L 240.619176 -159.677552 
L 240.022011 -159.612443 
L 239.31995 -159.547395 
L 238.794535 -159.466802 
L 238.324426 -159.400301 
L 237.738317 -159.336262 
L 237.294067 -159.179408 
L 236.787664 -159.126399 
L 236.121547 -159.047909 
L 235.538763 -158.932443 
L 235.029922 -158.762329 
L 234.275859 -158.716028 
L 233.708572 -158.564303 
L 233.200998 -158.454337 
L 232.536214 -158.401664 
L 232.110089 -158.316194 
L 231.727407 -158.163078 
L 231.071664 -157.988334 
L 230.303369 -157.920141 
L 229.711185 -157.835946 
L 229.261905 -157.741023 
L 228.689289 -157.705123 
L 228.1461 -157.623423 
L 227.695119 -157.598433 
L 227.204015 -157.59759 
L 226.661016 -157.517542 
L 226.132479 -157.513769 
L 225.49829 -157.456132 
L 224.816679 -157.368329 
L 224.390498 -157.132379 
L 223.713411 -157.234657 
L 223.062057 -157.205813 
L 222.541109 -157.179837 
L 222.064953 -157.147372 
L 221.564893 -157.201207 
L 220.885584 -157.157793 
L 220.442914 -157.025715 
L 219.960222 -156.828535 
L 219.271276 -156.776763 
L 218.580899 -156.73905 
L 218.13923 -156.657394 
L 217.641102 -156.596145 
L 216.961732 -156.59094 
L 216.294318 -156.448802 
L 215.856637 -156.43619 
L 215.434598 -156.421352 
L 214.903484 -156.444483 
L 214.311909 -156.415787 
L 213.669503 -156.4035 
L 213.05294 -156.408036 
L 212.481681 -156.36546 
L 212.050282 -156.372742 
L 211.402944 -156.380732 
L 210.929411 -156.346371 
L 210.340627 -156.347273 
L 209.592304 -156.325499 
L 209.171991 -156.342498 
L 208.557401 -156.315881 
L 207.906826 -156.353311 
L 207.33709 -156.351915 
L 206.96368 -156.354403 
L 206.5929 -156.310054 
L 205.84346 -156.252773 
L 205.223489 -156.265416 
L 204.856549 -156.279946 
L 204.393042 -156.288453 
L 203.620583 -156.327757 
L 202.963317 -156.34065 
L 202.436567 -156.431733 
L 201.820075 -156.490695 
L 201.243262 -156.627578 
L 200.741344 -156.79941 
L 200.262128 -156.86574 
L 199.742738 -156.828246 
L 199.153137 -156.992932 
L 198.461623 -156.980404 
L 197.891854 -157.043445 
L 197.409145 -157.122005 
L 196.834824 -157.151306 
L 196.242505 -157.119767 
L 195.631531 -157.107451 
L 195.104075 -157.099165 
L 194.732799 -157.137276 
L 194.29151 -157.216842 
L 193.679632 -157.177916 
L 193.166129 -157.202239 
L 192.611478 -157.133255 
L 191.974218 -157.136695 
L 191.433559 -157.144895 
L 190.779569 -157.139341 
L 190.199955 -157.106225 
L 189.683212 -157.145464 
L 189.059802 -157.208721 
L 188.598548 -157.213828 
L 188.214012 -157.237677 
L 187.565121 -157.221688 
L 186.998146 -157.142154 
L 186.388692 -157.185577 
L 185.602236 -157.179874 
L 185.031484 -157.271554 
L 184.715323 -157.296353 
L 184.350166 -157.317678 
L 183.765571 -157.348746 
L 183.037048 -157.197237 
L 182.530936 -157.174473 
L 181.937003 -157.165796 
L 181.212836 -157.174061 
L 180.853016 -157.262842 
L 180.462033 -157.35673 
L 179.908759 -157.574166 
L 179.21869 -157.539179 
L 178.434714 -157.617658 
L 177.805672 -157.758803 
L 177.485162 -157.859942 
L 177.067223 -157.865972 
L 176.460782 -157.975754 
L 175.897832 -158.071015 
L 175.266018 -158.123852 
L 174.683887 -158.202267 
L 174.090818 -158.253648 
L 173.595766 -158.263775 
L 173.110074 -158.401661 
L 172.432497 -158.462661 
L 171.73486 -158.479292 
L 171.296319 -158.592542 
L 170.950583 -158.63214 
L 170.223996 -158.659785 
L 169.575684 -158.765381 
L 169.083141 -158.868892 
L 168.416111 -158.992226 
L 167.845129 -159.066841 
L 167.46921 -159.089136 
L 166.860519 -159.210667 
L 166.083684 -159.273496 
L 165.581949 -159.419712 
L 165.021548 -159.582878 
L 164.431228 -159.744744 
L 164.059611 -159.836621 
L 163.488162 -160.037529 
L 162.72298 -160.137072 
L 162.309956 -160.443884 
L 161.910293 -160.71763 
L 161.30529 -161.192739 
L 160.802848 -161.526199 
L 160.067976 -161.654687 
L 159.415023 -161.891993 
L 159.032341 -162.098391 
L 158.443032 -162.14453 
L 157.768226 -162.337371 
L 157.386638 -162.492757 
L 156.869178 -162.634936 
L 156.161295 -162.795007 
L 155.692896 -162.786181 
L 155.075436 -162.814243 
L 154.508542 -162.946467 
L 153.899954 -163.090249 
L 153.390173 -163.175926 
L 152.895254 -163.326534 
L 152.335788 -163.40283 
L 151.902095 -163.461137 
L 151.339685 -163.605358 
L 150.604502 -163.605584 
L 149.861138 -163.612447 
L 149.486036 -163.810595 
L 149.118186 -163.942999 
L 148.379691 -164.104013 
L 147.862581 -164.288957 
L 147.356856 -164.409181 
L 146.622895 -164.577272 
L 146.165728 -164.798516 
L 145.55386 -164.908613 
L 145.064873 -165.113632 
L 144.609213 -165.340503 
L 143.853335 -165.523661 
L 143.334636 -165.69007 
L 142.745282 -165.792327 
L 142.117906 -165.918011 
L 141.611028 -166.008497 
L 140.941486 -166.085541 
L 140.51696 -166.098811 
L 140.114881 -166.168979 
L 139.384063 -166.11907 
L 138.670336 -166.127148 
L 138.29674 -166.277355 
L 137.924858 -166.323679 
L 137.36337 -166.375591 
L 136.872062 -166.349038 
L 136.285913 -166.53533 
L 135.521805 -166.594732 
L 134.834954 -166.640591 
L 134.327225 -166.696647 
L 133.817181 -166.644573 
L 133.275405 -166.549293 
L 132.632726 -166.529512 
L 132.213223 -166.498766 
L 131.737195 -166.428422 
L 131.099237 -166.316533 
L 130.713855 -166.321832 
L 130.051215 -166.301358 
L 129.250099 -166.223882 
L 128.620093 -166.115216 
L 128.128776 -165.969601 
L 127.659299 -165.897819 
L 127.218905 -165.869551 
L 126.785615 -165.892785 
L 126.177475 -165.823903 
L 125.524972 -165.830602 
L 125.0716 -165.860227 
L 124.43441 -165.875548 
L 123.671047 -165.830496 
L 123.240505 -165.771754 
L 122.765116 -165.79496 
L 122.311709 -165.808229 
L 121.863438 -165.802504 
L 121.243578 -165.823793 
L 120.645113 -165.806876 
L 119.986562 -165.79638 
L 119.450075 -165.77018 
L 118.996963 -165.684244 
L 118.255499 -165.560204 
L 117.729266 -165.452412 
L 117.358126 -165.373833 
L 116.558873 -165.282541 
L 115.913002 -165.314941 
L 115.622191 -165.385533 
L 114.994985 -165.446257 
L 114.410839 -165.595475 
L 113.89993 -165.679885 
L 113.162389 -165.819216 
L 112.620998 -166.04716 
L 112.183575 -166.388341 
L 111.758079 -166.587137 
L 111.2346 -166.725142 
L 110.462741 -166.868385 
L 109.933246 -166.97716 
L 109.536514 -167.277775 
L 108.819885 -167.510821 
L 108.264165 -167.832178 
L 107.707365 -167.928427 
L 107.007527 -168.109607 
L 106.553089 -168.230692 
L 106.186508 -168.295453 
L 105.560485 -168.26268 
L 104.766473 -168.363653 
L 104.108269 -168.411642 
L 103.752713 -168.441962 
L 103.192434 -168.484828 
L 102.647258 -168.501005 
L 102.145809 -168.526301 
L 101.39731 -168.264446 
L 100.940125 -168.364612 
L 100.483895 -168.467336 
L 99.902804 -168.640686 
L 99.249133 -168.499856 
L 98.625741 -168.47844 
L 98.089448 -168.393534 
L 97.60836 -168.429094 
L 97.001039 -168.438503 
L 96.279727 -168.550311 
L 95.848893 -168.549567 
L 95.509527 -168.528275 
L 94.791006 -168.345002 
L 94.030083 -168.166941 
L 93.486605 -167.922258 
L 92.934561 -167.712144 
L 92.367275 -167.456042 
L 91.949045 -167.059102 
L 91.396084 -166.922177 
L 90.772221 -166.475657 
L 90.336328 -166.108602 
L 89.791081 -165.730068 
L 89.254487 -165.473525 
L 88.59468 -165.081522 
L 88.145502 -164.752987 
L 87.711104 -164.487264 
L 87.009261 -164.055889 
L 86.31849 -163.990552 
L 85.823541 -163.858339 
L 85.385377 -163.746205 
L 84.699172 -163.583823 
L 84.050054 -163.514161 
L 83.536518 -163.339823 
L 83.117474 -163.146342 
L 82.594015 -163.037094 
L 82.072449 -162.888681 
L 81.603358 -162.819054 
L 81.003778 -162.766816 
L 80.369992 -162.808423 
L 79.917803 -162.956028 
L 79.282693 -162.981466 
L 78.459564 -163.183693 
L 78.065114 -163.388931 
L 77.611455 -163.363199 
L 77.024006 -163.407797 
L 76.497248 -163.46802 
L 75.80493 -163.472291 
L 75.238498 -163.48773 
L 74.809525 -163.614565 
L 74.113768 -163.770684 
L 73.572181 -163.969276 
L 73.269128 -164.031382 
L 72.591382 -164.005432 
L 71.957523 -164.147811 
L 71.341505 -164.259625 
L 70.834015 -164.427343 
L 70.386649 -164.579573 
L 69.778706 -164.770436 
L 69.254909 -164.810958 
L 68.630412 -164.608304 
L 67.906969 -164.384035 
L 67.488214 -164.321313 
L 67.073543 -164.421883 
L 66.45976 -164.425679 
L 65.956446 -164.348251 
L 65.355415 -164.121242 
L 64.784479 -164.028621 
L 64.170119 -163.690582 
L 63.558507 -163.458107 
L 62.966093 -163.07629 
L 62.301031 -162.532506 
L 61.940204 -162.122553 
L 61.481509 -162.000372 
L 60.930685 -161.754206 
L 60.477932 -161.722 
L 59.814463 -161.677726 
L 59.259412 -161.32346 
L 58.798795 -160.754964 
L 58.168725 -160.586682 
L 57.486582 -160.935498 
L 56.929048 -161.06 
L 56.357059 -161.308009 
L 55.803804 -163.932852 
L 55.159727 -164.610928 
L 54.657776 -166.827087 
z
" style="stroke: #808080; stroke-opacity: 0.5; stroke-width: 0.5"/>
    </defs>
    <g clip-path="url(#pd95e6b7263)">
     <use xlink:href="#m475e8d8271" x="0" y="283.57" style="fill: #808080; fill-opacity: 0.5; stroke: #808080; stroke-opacity: 0.5; stroke-width: 0.5"/>
    </g>
   </g>
   <g id="line2d_29">
    <path d="M 54.657776 126.913504 
L 55.159727 129.3193 
L 55.803804 129.18017 
L 56.357059 130.667302 
L 56.929048 130.728798 
L 57.486582 130.277959 
L 58.168725 130.262973 
L 58.798795 129.890943 
L 59.259412 128.853651 
L 59.814463 128.357135 
L 60.477932 128.243367 
L 61.940204 127.454709 
L 63.558507 125.844938 
L 64.170119 125.451299 
L 64.784479 125.36806 
L 65.355415 124.891552 
L 66.45976 124.354732 
L 68.630412 123.914725 
L 69.778706 123.635614 
L 73.269128 123.808811 
L 73.572181 123.716514 
L 75.238498 123.914942 
L 76.497248 123.798458 
L 78.459564 123.820875 
L 80.369992 124.064353 
L 81.603358 123.878864 
L 82.594015 123.580504 
L 86.31849 122.249983 
L 87.009261 122.1302 
L 90.772221 119.845542 
L 92.934561 118.847707 
L 94.791006 118.327555 
L 95.848893 118.144304 
L 98.625741 118.197529 
L 99.902804 118.077093 
L 101.39731 118.321257 
L 102.647258 118.11753 
L 106.553089 118.165979 
L 108.264165 118.356683 
L 109.536514 118.599941 
L 109.933246 118.83042 
L 111.758079 119.088052 
L 112.620998 119.647717 
L 113.162389 119.640972 
L 116.558873 120.143395 
L 121.243578 119.568558 
L 128.128776 119.361723 
L 129.250099 119.171878 
L 135.521805 118.918025 
L 138.29674 119.217091 
L 138.670336 119.320569 
L 140.941486 119.383251 
L 143.334636 119.703701 
L 146.165728 120.418081 
L 147.356856 120.71523 
L 149.486036 121.14167 
L 149.861138 121.289254 
L 151.902095 121.532846 
L 155.075436 122.210785 
L 157.386638 122.619216 
L 158.443032 122.924573 
L 160.067976 123.373835 
L 160.802848 123.559308 
L 161.910293 124.090787 
L 162.72298 124.688234 
L 163.488162 124.870264 
L 165.021548 125.649481 
L 165.581949 125.777779 
L 166.083684 126.135824 
L 167.46921 126.491185 
L 168.416111 126.827766 
L 170.950583 127.539828 
L 171.73486 127.79352 
L 173.110074 127.895368 
L 174.090818 127.870478 
L 179.908759 128.604324 
L 180.853016 128.857133 
L 186.998146 128.954618 
L 188.214012 128.857299 
L 190.199955 128.945202 
L 193.166129 128.918299 
L 198.461623 129.459315 
L 199.742738 129.726448 
L 201.820075 130.312442 
L 205.84346 130.914279 
L 207.906826 130.952568 
L 210.340627 131.15528 
L 212.050282 131.140208 
L 212.481681 131.261711 
L 215.434598 131.234133 
L 218.13923 130.955298 
L 219.271276 130.646676 
L 220.442914 130.414912 
L 221.564893 130.23041 
L 223.713411 130.106376 
L 224.390498 130.173563 
L 224.816679 129.954091 
L 227.695119 129.418964 
L 229.261905 129.252284 
L 235.538763 127.969556 
L 236.787664 127.684948 
L 239.31995 127.105076 
L 242.733982 126.834464 
L 243.044153 126.708921 
L 244.428273 126.423475 
L 246.92026 126.035453 
L 249.090465 126.006115 
L 249.504739 125.936681 
L 249.819526 126.00623 
L 252.941343 125.732959 
L 254.220259 125.124365 
L 257.248436 124.632959 
L 262.889949 123.26244 
L 263.242677 123.113544 
L 266.704934 122.253897 
L 270.669451 120.763451 
L 273.481 119.68438 
L 274.437599 119.268976 
L 275.051926 119.055474 
L 276.15886 118.475179 
L 276.815894 118.169272 
L 278.655753 117.69851 
L 280.009453 117.15267 
L 281.414358 116.926904 
L 283.060514 116.042422 
L 283.541412 115.902326 
L 284.034616 115.573311 
L 285.77265 114.901011 
L 287.935969 113.968023 
L 289.008299 113.788033 
L 290.662341 113.273885 
L 291.877192 113.03463 
L 292.352728 112.856081 
L 295.589947 112.311381 
L 299.018494 111.954318 
L 300.037884 111.773553 
L 301.23383 111.667943 
L 303.449059 111.548659 
L 305.145888 111.624796 
L 306.290169 111.942968 
L 307.326746 112.223635 
L 308.465388 112.514501 
L 309.590727 112.619253 
L 310.191111 112.856741 
L 311.822678 113.111818 
L 312.31735 112.908856 
L 313.395119 112.969567 
L 315.617408 112.981968 
L 318.364804 112.990546 
L 322.638258 113.020732 
L 331.050809 112.809824 
L 333.026434 113.188034 
L 337.026954 113.702823 
L 338.607489 114.059391 
L 339.707466 114.290262 
L 341.013833 114.635307 
L 345.935019 115.529318 
L 347.195084 115.632296 
L 349.938949 115.890619 
L 351.098693 116.053655 
L 351.465261 116.19212 
L 353.736498 116.357471 
L 354.999118 116.371751 
L 359.833146 117.074683 
L 364.428429 117.360412 
L 367.466193 117.3249 
L 371.551224 117.083558 
L 372.439879 117.17633 
L 375.452664 117.201215 
L 390.161905 117.042019 
L 390.535014 116.903457 
L 390.912398 116.977133 
L 393.280325 116.914837 
L 397.295223 116.713318 
L 398.450511 116.849289 
L 400.651203 116.711264 
L 402.163811 116.56375 
L 404.604848 116.186004 
L 406.224076 116.037068 
L 408.522966 115.79362 
L 410.026456 115.708658 
L 412.346029 115.433475 
L 413.541427 115.356196 
L 418.276123 115.145216 
L 419.973055 114.837138 
L 422.025394 114.521186 
L 426.383869 114.685067 
L 428.622088 115.024122 
L 430.217198 115.317751 
L 432.939868 115.67764 
L 434.695227 115.953837 
L 435.865964 116.197488 
L 443.541488 116.987004 
L 449.149562 117.100358 
L 451.870308 116.836306 
L 453.014624 116.964783 
L 456.056256 117.06567 
L 457.047765 117.056878 
L 459.795013 116.895123 
L 461.406692 116.533076 
L 463.157066 116.351431 
L 463.630133 116.202296 
L 467.078781 115.659225 
L 469.793379 115.069486 
L 471.408547 114.595698 
L 473.076965 114.181488 
L 478.13552 112.813751 
L 478.57162 112.665119 
L 483.906813 111.905363 
L 492.636141 110.988362 
L 493.680288 110.776595 
L 500.668456 110.513564 
L 500.98732 110.556205 
L 503.169839 110.26365 
L 506.557336 110.123414 
L 511.124464 110.296933 
L 513.808376 109.976459 
L 515.527883 109.750169 
L 524.121345 109.253192 
L 525.123896 109.229148 
L 526.62155 109.016693 
L 527.81668 109.097384 
L 534.609803 108.894612 
L 541.832357 109.367746 
L 544.22038 109.383898 
L 545.4683 109.176204 
L 548.951381 108.608596 
L 550.642714 108.358609 
L 557.849555 107.030591 
L 566.229848 105.804675 
L 568.585773 105.167255 
L 568.98601 104.961901 
L 571.233603 104.583262 
L 576.793001 104.155049 
L 578.606949 104.3903 
L 580.284067 104.939147 
L 581.3636 105.280686 
L 582.138637 105.431383 
L 583.090508 105.860661 
L 584.91638 106.323856 
L 590.247167 108.347007 
L 591.888067 108.724698 
L 595.349183 108.936872 
L 595.930271 108.856295 
L 597.03413 108.999318 
L 601.092607 109.242249 
L 601.436899 109.086607 
L 602.559737 109.050125 
L 604.720066 108.840935 
L 605.385298 108.876419 
L 605.89066 108.739632 
L 607.086293 108.04202 
L 608.148123 107.579823 
L 609.736347 106.082148 
L 610.234608 105.548561 
L 611.685143 104.397464 
L 611.945327 105.376114 
L 611.945327 105.376114 
" clip-path="url(#pd95e6b7263)" style="fill: none; stroke: #e24a33; stroke-width: 1.5; stroke-linecap: square"/>
   </g>
   <g id="patch_3">
    <path d="M 54.096563 244.078125 
L 54.096563 22.318125 
" style="fill: none; stroke: #ffffff; stroke-linejoin: miter; stroke-linecap: square"/>
   </g>
   <g id="patch_4">
    <path d="M 612.096563 244.078125 
L 612.096563 22.318125 
" style="fill: none; stroke: #ffffff; stroke-linejoin: miter; stroke-linecap: square"/>
   </g>
   <g id="patch_5">
    <path d="M 54.096563 244.078125 
L 612.096563 244.078125 
" style="fill: none; stroke: #ffffff; stroke-linejoin: miter; stroke-linecap: square"/>
   </g>
   <g id="patch_6">
    <path d="M 54.096563 22.318125 
L 612.096563 22.318125 
" style="fill: none; stroke: #ffffff; stroke-linejoin: miter; stroke-linecap: square"/>
   </g>
   <g id="text_17">
    <!-- whale hunt -->
    <g transform="translate(299.685 16.318125) scale(0.12 -0.12)">
     <defs>
      <path id="DejaVuSans-77" d="M 269 3500 
L 844 3500 
L 1563 769 
L 2278 3500 
L 2956 3500 
L 3675 769 
L 4391 3500 
L 4966 3500 
L 4050 0 
L 3372 0 
L 2619 2869 
L 1863 0 
L 1184 0 
L 269 3500 
z
" transform="scale(0.015625)"/>
      <path id="DejaVuSans-68" d="M 3513 2113 
L 3513 0 
L 2938 0 
L 2938 2094 
Q 2938 2591 2744 2837 
Q 2550 3084 2163 3084 
Q 1697 3084 1428 2787 
Q 1159 2491 1159 1978 
L 1159 0 
L 581 0 
L 581 4863 
L 1159 4863 
L 1159 2956 
Q 1366 3272 1645 3428 
Q 1925 3584 2291 3584 
Q 2894 3584 3203 3211 
Q 3513 2838 3513 2113 
z
" transform="scale(0.015625)"/>
      <path id="DejaVuSans-6c" d="M 603 4863 
L 1178 4863 
L 1178 0 
L 603 0 
L 603 4863 
z
" transform="scale(0.015625)"/>
      <path id="DejaVuSans-20" transform="scale(0.015625)"/>
     </defs>
     <use xlink:href="#DejaVuSans-77"/>
     <use xlink:href="#DejaVuSans-68" x="81.787109"/>
     <use xlink:href="#DejaVuSans-61" x="145.166016"/>
     <use xlink:href="#DejaVuSans-6c" x="206.445312"/>
     <use xlink:href="#DejaVuSans-65" x="234.228516"/>
     <use xlink:href="#DejaVuSans-20" x="295.751953"/>
     <use xlink:href="#DejaVuSans-68" x="327.539062"/>
     <use xlink:href="#DejaVuSans-75" x="390.917969"/>
     <use xlink:href="#DejaVuSans-6e" x="454.296875"/>
     <use xlink:href="#DejaVuSans-74" x="517.675781"/>
    </g>
   </g>
  </g>
 </g>
 <defs>
  <clipPath id="pd95e6b7263">
   <rect x="54.096563" y="22.318125" width="558" height="221.76"/>
  </clipPath>
 </defs>
</svg>
