<?xml version="1.0" encoding="utf-8" standalone="no"?>
<!DOCTYPE svg PUBLIC "-//W3C//DTD SVG 1.1//EN"
  "http://www.w3.org/Graphics/SVG/1.1/DTD/svg11.dtd">
<svg xmlns:xlink="http://www.w3.org/1999/xlink" width="627.248125pt" height="283.57pt" viewBox="0 0 627.248125 283.57" xmlns="http://www.w3.org/2000/svg" version="1.1">
 <metadata>
  <rdf:RDF xmlns:dc="http://purl.org/dc/elements/1.1/" xmlns:cc="http://creativecommons.org/ns#" xmlns:rdf="http://www.w3.org/1999/02/22-rdf-syntax-ns#">
   <cc:Work>
    <dc:type rdf:resource="http://purl.org/dc/dcmitype/StillImage"/>
    <dc:date>2024-03-18T11:20:32.114515</dc:date>
    <dc:format>image/svg+xml</dc:format>
    <dc:creator>
     <cc:Agent>
      <dc:title>Matplotlib v3.8.3, https://matplotlib.org/</dc:title>
     </cc:Agent>
    </dc:creator>
   </cc:Work>
  </rdf:RDF>
 </metadata>
 <defs>
  <style type="text/css">*{stroke-linejoin: round; stroke-linecap: butt}</style>
 </defs>
 <g id="figure_1">
  <g id="patch_1">
   <path d="M 0 283.57 
L 627.248125 283.57 
L 627.248125 0 
L 0 0 
z
" style="fill: #ffffff"/>
  </g>
  <g id="axes_1">
   <g id="patch_2">
    <path d="M 54.096563 244.078125 
L 612.096563 244.078125 
L 612.096563 22.318125 
L 54.096563 22.318125 
z
" style="fill: #e5e5e5"/>
   </g>
   <g id="matplotlib.axis_1">
    <g id="xtick_1">
     <g id="line2d_1">
      <path d="M 54.096563 244.078125 
L 54.096563 22.318125 
" clip-path="url(#pe69bc6e9ce)" style="fill: none; stroke: #ffffff; stroke-width: 0.8; stroke-linecap: square"/>
     </g>
     <g id="line2d_2">
      <defs>
       <path id="m338f88a154" d="M 0 0 
L 0 3.5 
" style="stroke: #555555; stroke-width: 0.8"/>
      </defs>
      <g>
       <use xlink:href="#m338f88a154" x="54.096563" y="244.078125" style="fill: #555555; stroke: #555555; stroke-width: 0.8"/>
      </g>
     </g>
     <g id="text_1">
      <!-- 0.0 -->
      <g style="fill: #555555" transform="translate(46.145 258.676562) scale(0.1 -0.1)">
       <defs>
        <path id="DejaVuSans-30" d="M 2034 4250 
Q 1547 4250 1301 3770 
Q 1056 3291 1056 2328 
Q 1056 1369 1301 889 
Q 1547 409 2034 409 
Q 2525 409 2770 889 
Q 3016 1369 3016 2328 
Q 3016 3291 2770 3770 
Q 2525 4250 2034 4250 
z
M 2034 4750 
Q 2819 4750 3233 4129 
Q 3647 3509 3647 2328 
Q 3647 1150 3233 529 
Q 2819 -91 2034 -91 
Q 1250 -91 836 529 
Q 422 1150 422 2328 
Q 422 3509 836 4129 
Q 1250 4750 2034 4750 
z
" transform="scale(0.015625)"/>
        <path id="DejaVuSans-2e" d="M 684 794 
L 1344 794 
L 1344 0 
L 684 0 
L 684 794 
z
" transform="scale(0.015625)"/>
       </defs>
       <use xlink:href="#DejaVuSans-30"/>
       <use xlink:href="#DejaVuSans-2e" x="63.623047"/>
       <use xlink:href="#DejaVuSans-30" x="95.410156"/>
      </g>
     </g>
    </g>
    <g id="xtick_2">
     <g id="line2d_3">
      <path d="M 165.696563 244.078125 
L 165.696563 22.318125 
" clip-path="url(#pe69bc6e9ce)" style="fill: none; stroke: #ffffff; stroke-width: 0.8; stroke-linecap: square"/>
     </g>
     <g id="line2d_4">
      <g>
       <use xlink:href="#m338f88a154" x="165.696563" y="244.078125" style="fill: #555555; stroke: #555555; stroke-width: 0.8"/>
      </g>
     </g>
     <g id="text_2">
      <!-- 0.2 -->
      <g style="fill: #555555" transform="translate(157.745 258.676562) scale(0.1 -0.1)">
       <defs>
        <path id="DejaVuSans-32" d="M 1228 531 
L 3431 531 
L 3431 0 
L 469 0 
L 469 531 
Q 828 903 1448 1529 
Q 2069 2156 2228 2338 
Q 2531 2678 2651 2914 
Q 2772 3150 2772 3378 
Q 2772 3750 2511 3984 
Q 2250 4219 1831 4219 
Q 1534 4219 1204 4116 
Q 875 4013 500 3803 
L 500 4441 
Q 881 4594 1212 4672 
Q 1544 4750 1819 4750 
Q 2544 4750 2975 4387 
Q 3406 4025 3406 3419 
Q 3406 3131 3298 2873 
Q 3191 2616 2906 2266 
Q 2828 2175 2409 1742 
Q 1991 1309 1228 531 
z
" transform="scale(0.015625)"/>
       </defs>
       <use xlink:href="#DejaVuSans-30"/>
       <use xlink:href="#DejaVuSans-2e" x="63.623047"/>
       <use xlink:href="#DejaVuSans-32" x="95.410156"/>
      </g>
     </g>
    </g>
    <g id="xtick_3">
     <g id="line2d_5">
      <path d="M 277.296563 244.078125 
L 277.296563 22.318125 
" clip-path="url(#pe69bc6e9ce)" style="fill: none; stroke: #ffffff; stroke-width: 0.8; stroke-linecap: square"/>
     </g>
     <g id="line2d_6">
      <g>
       <use xlink:href="#m338f88a154" x="277.296563" y="244.078125" style="fill: #555555; stroke: #555555; stroke-width: 0.8"/>
      </g>
     </g>
     <g id="text_3">
      <!-- 0.4 -->
      <g style="fill: #555555" transform="translate(269.345 258.676562) scale(0.1 -0.1)">
       <defs>
        <path id="DejaVuSans-34" d="M 2419 4116 
L 825 1625 
L 2419 1625 
L 2419 4116 
z
M 2253 4666 
L 3047 4666 
L 3047 1625 
L 3713 1625 
L 3713 1100 
L 3047 1100 
L 3047 0 
L 2419 0 
L 2419 1100 
L 313 1100 
L 313 1709 
L 2253 4666 
z
" transform="scale(0.015625)"/>
       </defs>
       <use xlink:href="#DejaVuSans-30"/>
       <use xlink:href="#DejaVuSans-2e" x="63.623047"/>
       <use xlink:href="#DejaVuSans-34" x="95.410156"/>
      </g>
     </g>
    </g>
    <g id="xtick_4">
     <g id="line2d_7">
      <path d="M 388.896563 244.078125 
L 388.896563 22.318125 
" clip-path="url(#pe69bc6e9ce)" style="fill: none; stroke: #ffffff; stroke-width: 0.8; stroke-linecap: square"/>
     </g>
     <g id="line2d_8">
      <g>
       <use xlink:href="#m338f88a154" x="388.896563" y="244.078125" style="fill: #555555; stroke: #555555; stroke-width: 0.8"/>
      </g>
     </g>
     <g id="text_4">
      <!-- 0.6 -->
      <g style="fill: #555555" transform="translate(380.945 258.676562) scale(0.1 -0.1)">
       <defs>
        <path id="DejaVuSans-36" d="M 2113 2584 
Q 1688 2584 1439 2293 
Q 1191 2003 1191 1497 
Q 1191 994 1439 701 
Q 1688 409 2113 409 
Q 2538 409 2786 701 
Q 3034 994 3034 1497 
Q 3034 2003 2786 2293 
Q 2538 2584 2113 2584 
z
M 3366 4563 
L 3366 3988 
Q 3128 4100 2886 4159 
Q 2644 4219 2406 4219 
Q 1781 4219 1451 3797 
Q 1122 3375 1075 2522 
Q 1259 2794 1537 2939 
Q 1816 3084 2150 3084 
Q 2853 3084 3261 2657 
Q 3669 2231 3669 1497 
Q 3669 778 3244 343 
Q 2819 -91 2113 -91 
Q 1303 -91 875 529 
Q 447 1150 447 2328 
Q 447 3434 972 4092 
Q 1497 4750 2381 4750 
Q 2619 4750 2861 4703 
Q 3103 4656 3366 4563 
z
" transform="scale(0.015625)"/>
       </defs>
       <use xlink:href="#DejaVuSans-30"/>
       <use xlink:href="#DejaVuSans-2e" x="63.623047"/>
       <use xlink:href="#DejaVuSans-36" x="95.410156"/>
      </g>
     </g>
    </g>
    <g id="xtick_5">
     <g id="line2d_9">
      <path d="M 500.496563 244.078125 
L 500.496563 22.318125 
" clip-path="url(#pe69bc6e9ce)" style="fill: none; stroke: #ffffff; stroke-width: 0.8; stroke-linecap: square"/>
     </g>
     <g id="line2d_10">
      <g>
       <use xlink:href="#m338f88a154" x="500.496563" y="244.078125" style="fill: #555555; stroke: #555555; stroke-width: 0.8"/>
      </g>
     </g>
     <g id="text_5">
      <!-- 0.8 -->
      <g style="fill: #555555" transform="translate(492.545 258.676562) scale(0.1 -0.1)">
       <defs>
        <path id="DejaVuSans-38" d="M 2034 2216 
Q 1584 2216 1326 1975 
Q 1069 1734 1069 1313 
Q 1069 891 1326 650 
Q 1584 409 2034 409 
Q 2484 409 2743 651 
Q 3003 894 3003 1313 
Q 3003 1734 2745 1975 
Q 2488 2216 2034 2216 
z
M 1403 2484 
Q 997 2584 770 2862 
Q 544 3141 544 3541 
Q 544 4100 942 4425 
Q 1341 4750 2034 4750 
Q 2731 4750 3128 4425 
Q 3525 4100 3525 3541 
Q 3525 3141 3298 2862 
Q 3072 2584 2669 2484 
Q 3125 2378 3379 2068 
Q 3634 1759 3634 1313 
Q 3634 634 3220 271 
Q 2806 -91 2034 -91 
Q 1263 -91 848 271 
Q 434 634 434 1313 
Q 434 1759 690 2068 
Q 947 2378 1403 2484 
z
M 1172 3481 
Q 1172 3119 1398 2916 
Q 1625 2713 2034 2713 
Q 2441 2713 2670 2916 
Q 2900 3119 2900 3481 
Q 2900 3844 2670 4047 
Q 2441 4250 2034 4250 
Q 1625 4250 1398 4047 
Q 1172 3844 1172 3481 
z
" transform="scale(0.015625)"/>
       </defs>
       <use xlink:href="#DejaVuSans-30"/>
       <use xlink:href="#DejaVuSans-2e" x="63.623047"/>
       <use xlink:href="#DejaVuSans-38" x="95.410156"/>
      </g>
     </g>
    </g>
    <g id="xtick_6">
     <g id="line2d_11">
      <path d="M 612.096563 244.078125 
L 612.096563 22.318125 
" clip-path="url(#pe69bc6e9ce)" style="fill: none; stroke: #ffffff; stroke-width: 0.8; stroke-linecap: square"/>
     </g>
     <g id="line2d_12">
      <g>
       <use xlink:href="#m338f88a154" x="612.096563" y="244.078125" style="fill: #555555; stroke: #555555; stroke-width: 0.8"/>
      </g>
     </g>
     <g id="text_6">
      <!-- 1.0 -->
      <g style="fill: #555555" transform="translate(604.145 258.676562) scale(0.1 -0.1)">
       <defs>
        <path id="DejaVuSans-31" d="M 794 531 
L 1825 531 
L 1825 4091 
L 703 3866 
L 703 4441 
L 1819 4666 
L 2450 4666 
L 2450 531 
L 3481 531 
L 3481 0 
L 794 0 
L 794 531 
z
" transform="scale(0.015625)"/>
       </defs>
       <use xlink:href="#DejaVuSans-31"/>
       <use xlink:href="#DejaVuSans-2e" x="63.623047"/>
       <use xlink:href="#DejaVuSans-30" x="95.410156"/>
      </g>
     </g>
    </g>
    <g id="text_7">
     <!-- whaling-harm-prob -->
     <g style="fill: #555555" transform="translate(276.129375 273.874375) scale(0.12 -0.12)">
      <defs>
       <path id="DejaVuSans-77" d="M 269 3500 
L 844 3500 
L 1563 769 
L 2278 3500 
L 2956 3500 
L 3675 769 
L 4391 3500 
L 4966 3500 
L 4050 0 
L 3372 0 
L 2619 2869 
L 1863 0 
L 1184 0 
L 269 3500 
z
" transform="scale(0.015625)"/>
       <path id="DejaVuSans-68" d="M 3513 2113 
L 3513 0 
L 2938 0 
L 2938 2094 
Q 2938 2591 2744 2837 
Q 2550 3084 2163 3084 
Q 1697 3084 1428 2787 
Q 1159 2491 1159 1978 
L 1159 0 
L 581 0 
L 581 4863 
L 1159 4863 
L 1159 2956 
Q 1366 3272 1645 3428 
Q 1925 3584 2291 3584 
Q 2894 3584 3203 3211 
Q 3513 2838 3513 2113 
z
" transform="scale(0.015625)"/>
       <path id="DejaVuSans-61" d="M 2194 1759 
Q 1497 1759 1228 1600 
Q 959 1441 959 1056 
Q 959 750 1161 570 
Q 1363 391 1709 391 
Q 2188 391 2477 730 
Q 2766 1069 2766 1631 
L 2766 1759 
L 2194 1759 
z
M 3341 1997 
L 3341 0 
L 2766 0 
L 2766 531 
Q 2569 213 2275 61 
Q 1981 -91 1556 -91 
Q 1019 -91 701 211 
Q 384 513 384 1019 
Q 384 1609 779 1909 
Q 1175 2209 1959 2209 
L 2766 2209 
L 2766 2266 
Q 2766 2663 2505 2880 
Q 2244 3097 1772 3097 
Q 1472 3097 1187 3025 
Q 903 2953 641 2809 
L 641 3341 
Q 956 3463 1253 3523 
Q 1550 3584 1831 3584 
Q 2591 3584 2966 3190 
Q 3341 2797 3341 1997 
z
" transform="scale(0.015625)"/>
       <path id="DejaVuSans-6c" d="M 603 4863 
L 1178 4863 
L 1178 0 
L 603 0 
L 603 4863 
z
" transform="scale(0.015625)"/>
       <path id="DejaVuSans-69" d="M 603 3500 
L 1178 3500 
L 1178 0 
L 603 0 
L 603 3500 
z
M 603 4863 
L 1178 4863 
L 1178 4134 
L 603 4134 
L 603 4863 
z
" transform="scale(0.015625)"/>
       <path id="DejaVuSans-6e" d="M 3513 2113 
L 3513 0 
L 2938 0 
L 2938 2094 
Q 2938 2591 2744 2837 
Q 2550 3084 2163 3084 
Q 1697 3084 1428 2787 
Q 1159 2491 1159 1978 
L 1159 0 
L 581 0 
L 581 3500 
L 1159 3500 
L 1159 2956 
Q 1366 3272 1645 3428 
Q 1925 3584 2291 3584 
Q 2894 3584 3203 3211 
Q 3513 2838 3513 2113 
z
" transform="scale(0.015625)"/>
       <path id="DejaVuSans-67" d="M 2906 1791 
Q 2906 2416 2648 2759 
Q 2391 3103 1925 3103 
Q 1463 3103 1205 2759 
Q 947 2416 947 1791 
Q 947 1169 1205 825 
Q 1463 481 1925 481 
Q 2391 481 2648 825 
Q 2906 1169 2906 1791 
z
M 3481 434 
Q 3481 -459 3084 -895 
Q 2688 -1331 1869 -1331 
Q 1566 -1331 1297 -1286 
Q 1028 -1241 775 -1147 
L 775 -588 
Q 1028 -725 1275 -790 
Q 1522 -856 1778 -856 
Q 2344 -856 2625 -561 
Q 2906 -266 2906 331 
L 2906 616 
Q 2728 306 2450 153 
Q 2172 0 1784 0 
Q 1141 0 747 490 
Q 353 981 353 1791 
Q 353 2603 747 3093 
Q 1141 3584 1784 3584 
Q 2172 3584 2450 3431 
Q 2728 3278 2906 2969 
L 2906 3500 
L 3481 3500 
L 3481 434 
z
" transform="scale(0.015625)"/>
       <path id="DejaVuSans-2d" d="M 313 2009 
L 1997 2009 
L 1997 1497 
L 313 1497 
L 313 2009 
z
" transform="scale(0.015625)"/>
       <path id="DejaVuSans-72" d="M 2631 2963 
Q 2534 3019 2420 3045 
Q 2306 3072 2169 3072 
Q 1681 3072 1420 2755 
Q 1159 2438 1159 1844 
L 1159 0 
L 581 0 
L 581 3500 
L 1159 3500 
L 1159 2956 
Q 1341 3275 1631 3429 
Q 1922 3584 2338 3584 
Q 2397 3584 2469 3576 
Q 2541 3569 2628 3553 
L 2631 2963 
z
" transform="scale(0.015625)"/>
       <path id="DejaVuSans-6d" d="M 3328 2828 
Q 3544 3216 3844 3400 
Q 4144 3584 4550 3584 
Q 5097 3584 5394 3201 
Q 5691 2819 5691 2113 
L 5691 0 
L 5113 0 
L 5113 2094 
Q 5113 2597 4934 2840 
Q 4756 3084 4391 3084 
Q 3944 3084 3684 2787 
Q 3425 2491 3425 1978 
L 3425 0 
L 2847 0 
L 2847 2094 
Q 2847 2600 2669 2842 
Q 2491 3084 2119 3084 
Q 1678 3084 1418 2786 
Q 1159 2488 1159 1978 
L 1159 0 
L 581 0 
L 581 3500 
L 1159 3500 
L 1159 2956 
Q 1356 3278 1631 3431 
Q 1906 3584 2284 3584 
Q 2666 3584 2933 3390 
Q 3200 3197 3328 2828 
z
" transform="scale(0.015625)"/>
       <path id="DejaVuSans-70" d="M 1159 525 
L 1159 -1331 
L 581 -1331 
L 581 3500 
L 1159 3500 
L 1159 2969 
Q 1341 3281 1617 3432 
Q 1894 3584 2278 3584 
Q 2916 3584 3314 3078 
Q 3713 2572 3713 1747 
Q 3713 922 3314 415 
Q 2916 -91 2278 -91 
Q 1894 -91 1617 61 
Q 1341 213 1159 525 
z
M 3116 1747 
Q 3116 2381 2855 2742 
Q 2594 3103 2138 3103 
Q 1681 3103 1420 2742 
Q 1159 2381 1159 1747 
Q 1159 1113 1420 752 
Q 1681 391 2138 391 
Q 2594 391 2855 752 
Q 3116 1113 3116 1747 
z
" transform="scale(0.015625)"/>
       <path id="DejaVuSans-6f" d="M 1959 3097 
Q 1497 3097 1228 2736 
Q 959 2375 959 1747 
Q 959 1119 1226 758 
Q 1494 397 1959 397 
Q 2419 397 2687 759 
Q 2956 1122 2956 1747 
Q 2956 2369 2687 2733 
Q 2419 3097 1959 3097 
z
M 1959 3584 
Q 2709 3584 3137 3096 
Q 3566 2609 3566 1747 
Q 3566 888 3137 398 
Q 2709 -91 1959 -91 
Q 1206 -91 779 398 
Q 353 888 353 1747 
Q 353 2609 779 3096 
Q 1206 3584 1959 3584 
z
" transform="scale(0.015625)"/>
       <path id="DejaVuSans-62" d="M 3116 1747 
Q 3116 2381 2855 2742 
Q 2594 3103 2138 3103 
Q 1681 3103 1420 2742 
Q 1159 2381 1159 1747 
Q 1159 1113 1420 752 
Q 1681 391 2138 391 
Q 2594 391 2855 752 
Q 3116 1113 3116 1747 
z
M 1159 2969 
Q 1341 3281 1617 3432 
Q 1894 3584 2278 3584 
Q 2916 3584 3314 3078 
Q 3713 2572 3713 1747 
Q 3713 922 3314 415 
Q 2916 -91 2278 -91 
Q 1894 -91 1617 61 
Q 1341 213 1159 525 
L 1159 0 
L 581 0 
L 581 4863 
L 1159 4863 
L 1159 2969 
z
" transform="scale(0.015625)"/>
      </defs>
      <use xlink:href="#DejaVuSans-77"/>
      <use xlink:href="#DejaVuSans-68" x="81.787109"/>
      <use xlink:href="#DejaVuSans-61" x="145.166016"/>
      <use xlink:href="#DejaVuSans-6c" x="206.445312"/>
      <use xlink:href="#DejaVuSans-69" x="234.228516"/>
      <use xlink:href="#DejaVuSans-6e" x="262.011719"/>
      <use xlink:href="#DejaVuSans-67" x="325.390625"/>
      <use xlink:href="#DejaVuSans-2d" x="388.867188"/>
      <use xlink:href="#DejaVuSans-68" x="424.951172"/>
      <use xlink:href="#DejaVuSans-61" x="488.330078"/>
      <use xlink:href="#DejaVuSans-72" x="549.609375"/>
      <use xlink:href="#DejaVuSans-6d" x="588.972656"/>
      <use xlink:href="#DejaVuSans-2d" x="686.384766"/>
      <use xlink:href="#DejaVuSans-70" x="722.46875"/>
      <use xlink:href="#DejaVuSans-72" x="785.945312"/>
      <use xlink:href="#DejaVuSans-6f" x="824.808594"/>
      <use xlink:href="#DejaVuSans-62" x="885.990234"/>
     </g>
    </g>
   </g>
   <g id="matplotlib.axis_2">
    <g id="ytick_1">
     <g id="line2d_13">
      <path d="M 54.096563 232.990125 
L 612.096563 232.990125 
" clip-path="url(#pe69bc6e9ce)" style="fill: none; stroke: #ffffff; stroke-width: 0.8; stroke-linecap: square"/>
     </g>
     <g id="line2d_14">
      <defs>
       <path id="m22f73d41d6" d="M 0 0 
L -3.5 0 
" style="stroke: #555555; stroke-width: 0.8"/>
      </defs>
      <g>
       <use xlink:href="#m22f73d41d6" x="54.096563" y="232.990125" style="fill: #555555; stroke: #555555; stroke-width: 0.8"/>
      </g>
     </g>
     <g id="text_8">
      <!-- −0.4 -->
      <g style="fill: #555555" transform="translate(22.81375 236.789344) scale(0.1 -0.1)">
       <defs>
        <path id="DejaVuSans-2212" d="M 678 2272 
L 4684 2272 
L 4684 1741 
L 678 1741 
L 678 2272 
z
" transform="scale(0.015625)"/>
       </defs>
       <use xlink:href="#DejaVuSans-2212"/>
       <use xlink:href="#DejaVuSans-30" x="83.789062"/>
       <use xlink:href="#DejaVuSans-2e" x="147.412109"/>
       <use xlink:href="#DejaVuSans-34" x="179.199219"/>
      </g>
     </g>
    </g>
    <g id="ytick_2">
     <g id="line2d_15">
      <path d="M 54.096563 188.638125 
L 612.096563 188.638125 
" clip-path="url(#pe69bc6e9ce)" style="fill: none; stroke: #ffffff; stroke-width: 0.8; stroke-linecap: square"/>
     </g>
     <g id="line2d_16">
      <g>
       <use xlink:href="#m22f73d41d6" x="54.096563" y="188.638125" style="fill: #555555; stroke: #555555; stroke-width: 0.8"/>
      </g>
     </g>
     <g id="text_9">
      <!-- −0.2 -->
      <g style="fill: #555555" transform="translate(22.81375 192.437344) scale(0.1 -0.1)">
       <use xlink:href="#DejaVuSans-2212"/>
       <use xlink:href="#DejaVuSans-30" x="83.789062"/>
       <use xlink:href="#DejaVuSans-2e" x="147.412109"/>
       <use xlink:href="#DejaVuSans-32" x="179.199219"/>
      </g>
     </g>
    </g>
    <g id="ytick_3">
     <g id="line2d_17">
      <path d="M 54.096563 144.286125 
L 612.096563 144.286125 
" clip-path="url(#pe69bc6e9ce)" style="fill: none; stroke: #ffffff; stroke-width: 0.8; stroke-linecap: square"/>
     </g>
     <g id="line2d_18">
      <g>
       <use xlink:href="#m22f73d41d6" x="54.096563" y="144.286125" style="fill: #555555; stroke: #555555; stroke-width: 0.8"/>
      </g>
     </g>
     <g id="text_10">
      <!-- 0.0 -->
      <g style="fill: #555555" transform="translate(31.193438 148.085344) scale(0.1 -0.1)">
       <use xlink:href="#DejaVuSans-30"/>
       <use xlink:href="#DejaVuSans-2e" x="63.623047"/>
       <use xlink:href="#DejaVuSans-30" x="95.410156"/>
      </g>
     </g>
    </g>
    <g id="ytick_4">
     <g id="line2d_19">
      <path d="M 54.096563 99.934125 
L 612.096563 99.934125 
" clip-path="url(#pe69bc6e9ce)" style="fill: none; stroke: #ffffff; stroke-width: 0.8; stroke-linecap: square"/>
     </g>
     <g id="line2d_20">
      <g>
       <use xlink:href="#m22f73d41d6" x="54.096563" y="99.934125" style="fill: #555555; stroke: #555555; stroke-width: 0.8"/>
      </g>
     </g>
     <g id="text_11">
      <!-- 0.2 -->
      <g style="fill: #555555" transform="translate(31.193438 103.733344) scale(0.1 -0.1)">
       <use xlink:href="#DejaVuSans-30"/>
       <use xlink:href="#DejaVuSans-2e" x="63.623047"/>
       <use xlink:href="#DejaVuSans-32" x="95.410156"/>
      </g>
     </g>
    </g>
    <g id="ytick_5">
     <g id="line2d_21">
      <path d="M 54.096563 55.582125 
L 612.096563 55.582125 
" clip-path="url(#pe69bc6e9ce)" style="fill: none; stroke: #ffffff; stroke-width: 0.8; stroke-linecap: square"/>
     </g>
     <g id="line2d_22">
      <g>
       <use xlink:href="#m22f73d41d6" x="54.096563" y="55.582125" style="fill: #555555; stroke: #555555; stroke-width: 0.8"/>
      </g>
     </g>
     <g id="text_12">
      <!-- 0.4 -->
      <g style="fill: #555555" transform="translate(31.193438 59.381344) scale(0.1 -0.1)">
       <use xlink:href="#DejaVuSans-30"/>
       <use xlink:href="#DejaVuSans-2e" x="63.623047"/>
       <use xlink:href="#DejaVuSans-34" x="95.410156"/>
      </g>
     </g>
    </g>
    <g id="text_13">
     <!-- score -->
     <g style="fill: #555555" transform="translate(16.318125 149.3175) rotate(-90) scale(0.12 -0.12)">
      <defs>
       <path id="DejaVuSans-73" d="M 2834 3397 
L 2834 2853 
Q 2591 2978 2328 3040 
Q 2066 3103 1784 3103 
Q 1356 3103 1142 2972 
Q 928 2841 928 2578 
Q 928 2378 1081 2264 
Q 1234 2150 1697 2047 
L 1894 2003 
Q 2506 1872 2764 1633 
Q 3022 1394 3022 966 
Q 3022 478 2636 193 
Q 2250 -91 1575 -91 
Q 1294 -91 989 -36 
Q 684 19 347 128 
L 347 722 
Q 666 556 975 473 
Q 1284 391 1588 391 
Q 1994 391 2212 530 
Q 2431 669 2431 922 
Q 2431 1156 2273 1281 
Q 2116 1406 1581 1522 
L 1381 1569 
Q 847 1681 609 1914 
Q 372 2147 372 2553 
Q 372 3047 722 3315 
Q 1072 3584 1716 3584 
Q 2034 3584 2315 3537 
Q 2597 3491 2834 3397 
z
" transform="scale(0.015625)"/>
       <path id="DejaVuSans-63" d="M 3122 3366 
L 3122 2828 
Q 2878 2963 2633 3030 
Q 2388 3097 2138 3097 
Q 1578 3097 1268 2742 
Q 959 2388 959 1747 
Q 959 1106 1268 751 
Q 1578 397 2138 397 
Q 2388 397 2633 464 
Q 2878 531 3122 666 
L 3122 134 
Q 2881 22 2623 -34 
Q 2366 -91 2075 -91 
Q 1284 -91 818 406 
Q 353 903 353 1747 
Q 353 2603 823 3093 
Q 1294 3584 2113 3584 
Q 2378 3584 2631 3529 
Q 2884 3475 3122 3366 
z
" transform="scale(0.015625)"/>
       <path id="DejaVuSans-65" d="M 3597 1894 
L 3597 1613 
L 953 1613 
Q 991 1019 1311 708 
Q 1631 397 2203 397 
Q 2534 397 2845 478 
Q 3156 559 3463 722 
L 3463 178 
Q 3153 47 2828 -22 
Q 2503 -91 2169 -91 
Q 1331 -91 842 396 
Q 353 884 353 1716 
Q 353 2575 817 3079 
Q 1281 3584 2069 3584 
Q 2775 3584 3186 3129 
Q 3597 2675 3597 1894 
z
M 3022 2063 
Q 3016 2534 2758 2815 
Q 2500 3097 2075 3097 
Q 1594 3097 1305 2825 
Q 1016 2553 972 2059 
L 3022 2063 
z
" transform="scale(0.015625)"/>
      </defs>
      <use xlink:href="#DejaVuSans-73"/>
      <use xlink:href="#DejaVuSans-63" x="52.099609"/>
      <use xlink:href="#DejaVuSans-6f" x="107.080078"/>
      <use xlink:href="#DejaVuSans-72" x="168.261719"/>
      <use xlink:href="#DejaVuSans-65" x="207.125"/>
     </g>
    </g>
   </g>
   <g id="PolyCollection_1">
    <defs>
     <path id="me82a9c4310" d="M 54.588574 -121.559782 
L 54.588574 -111.316943 
L 55.179279 -110.674915 
L 55.697426 -109.758995 
L 56.336118 -109.055085 
L 56.949431 -107.893053 
L 57.578762 -107.120473 
L 58.226932 -106.598938 
L 58.514823 -106.668537 
L 58.916622 -106.508858 
L 59.472353 -106.260053 
L 60.02864 -105.95767 
L 60.85612 -106.349481 
L 61.554349 -106.559656 
L 61.92092 -106.644142 
L 62.367326 -106.450723 
L 63.084586 -106.936009 
L 63.558359 -107.817053 
L 63.99518 -108.53597 
L 64.729624 -109.001275 
L 65.415861 -109.247258 
L 65.808916 -109.556089 
L 66.346372 -109.584815 
L 67.054551 -109.669681 
L 67.42962 -109.701928 
L 68.086397 -109.833269 
L 68.636875 -109.93439 
L 69.052839 -110.034543 
L 69.792953 -110.134379 
L 70.336555 -110.336182 
L 70.832364 -110.391587 
L 71.37419 -110.356342 
L 72.011224 -110.43353 
L 72.659098 -110.458907 
L 73.149988 -110.420639 
L 73.720242 -110.392038 
L 74.151054 -110.366016 
L 74.506933 -110.247098 
L 75.141808 -110.181276 
L 75.870866 -110.121204 
L 76.488604 -110.055257 
L 76.989038 -109.992123 
L 77.589566 -109.917999 
L 78.174672 -109.891467 
L 78.577201 -109.82434 
L 79.196864 -109.787103 
L 79.752235 -109.797974 
L 80.370575 -109.78251 
L 81.016472 -109.680287 
L 81.554 -109.523078 
L 82.137319 -109.441922 
L 82.640398 -109.369266 
L 83.071071 -109.280422 
L 83.458684 -109.148667 
L 84.127881 -109.016206 
L 84.730828 -108.931037 
L 85.199129 -108.817679 
L 85.769651 -108.661888 
L 86.341843 -108.598552 
L 86.904858 -108.430438 
L 87.503323 -108.380003 
L 88.21651 -108.350016 
L 88.888032 -108.315288 
L 89.439201 -108.269564 
L 90.012661 -108.228844 
L 90.551561 -108.206435 
L 90.959328 -108.206101 
L 91.446555 -108.116571 
L 91.959048 -107.988115 
L 92.486998 -107.856815 
L 93.24121 -107.733293 
L 93.802904 -107.571589 
L 94.187796 -107.438419 
L 94.905817 -107.376405 
L 95.576024 -107.28624 
L 96.107845 -107.191811 
L 96.481756 -107.132405 
L 96.867066 -107.14912 
L 97.577905 -107.033079 
L 98.093841 -106.906826 
L 98.655501 -106.700474 
L 99.296591 -106.53308 
L 99.799743 -106.453204 
L 100.250161 -106.325167 
L 100.784858 -106.187275 
L 101.514295 -105.878239 
L 102.245093 -105.675747 
L 102.720912 -105.212301 
L 103.173664 -104.984623 
L 103.827945 -104.487236 
L 104.273476 -104.366624 
L 104.863957 -104.177129 
L 105.471496 -103.868605 
L 105.821722 -103.779659 
L 106.348487 -103.799282 
L 107.13345 -103.660554 
L 107.713414 -103.649692 
L 108.08902 -103.550517 
L 108.590264 -103.282902 
L 109.264722 -102.875803 
L 110.053803 -102.559797 
L 110.47189 -102.190721 
L 110.826845 -101.77337 
L 111.572694 -101.316523 
L 112.220882 -100.845328 
L 112.791119 -100.515638 
L 113.291433 -99.916628 
L 113.884113 -99.790848 
L 114.578247 -99.53173 
L 115.112597 -99.450924 
L 115.476833 -99.54736 
L 116.025846 -99.66203 
L 116.799397 -99.818504 
L 117.146412 -100.195279 
L 117.611438 -100.533708 
L 118.345328 -100.945213 
L 118.963568 -101.254017 
L 119.494203 -101.565049 
L 119.904637 -101.860134 
L 120.440144 -102.026033 
L 120.941522 -102.268417 
L 121.549908 -102.591452 
L 122.358373 -102.795928 
L 122.796915 -102.980954 
L 123.111972 -103.035129 
L 123.607444 -103.126468 
L 124.21365 -103.247982 
L 124.827407 -103.36256 
L 125.332694 -103.460369 
L 126.081579 -103.648303 
L 126.771561 -104.032164 
L 127.259005 -104.227485 
L 127.87675 -104.464639 
L 128.276677 -104.723364 
L 128.780549 -105.044356 
L 129.350082 -105.240072 
L 129.782433 -105.277291 
L 130.558564 -105.413082 
L 131.194416 -105.476368 
L 131.501353 -105.67087 
L 131.971517 -105.970809 
L 132.656874 -106.122287 
L 133.376657 -106.250271 
L 133.932716 -106.403447 
L 134.445172 -106.549796 
L 135.011796 -106.748229 
L 135.619477 -107.012356 
L 136.104666 -107.155326 
L 136.60714 -107.231152 
L 137.324676 -107.352615 
L 137.821748 -107.453832 
L 138.338817 -107.658219 
L 138.921475 -107.871362 
L 139.335881 -107.998333 
L 139.846931 -108.158497 
L 140.394111 -108.297678 
L 141.130953 -108.485372 
L 141.703032 -108.714016 
L 142.151112 -108.827556 
L 142.851032 -108.872893 
L 143.385958 -109.019107 
L 143.792983 -109.281593 
L 144.462705 -109.352647 
L 145.105337 -109.514507 
L 145.64445 -109.66898 
L 146.204029 -109.722088 
L 146.780228 -109.730259 
L 147.216562 -109.819031 
L 147.578851 -109.973399 
L 148.390193 -110.115436 
L 149.197724 -110.217677 
L 149.606024 -110.450758 
L 150.024487 -110.632826 
L 150.646335 -110.769966 
L 151.115371 -110.821296 
L 151.546255 -110.927191 
L 152.306203 -111.114542 
L 153.080555 -111.199995 
L 153.612245 -111.377983 
L 154.092506 -111.37306 
L 154.608489 -111.378166 
L 155.170596 -111.454032 
L 155.644283 -111.48776 
L 156.202016 -111.585504 
L 156.809888 -111.562236 
L 157.22939 -111.535215 
L 157.699318 -111.478159 
L 158.435347 -111.511312 
L 159.128118 -111.497623 
L 159.622033 -111.486499 
L 160.078294 -111.472848 
L 160.701805 -111.46808 
L 161.297956 -111.39462 
L 161.708781 -111.422608 
L 162.350042 -111.296538 
L 162.927365 -111.211078 
L 163.398522 -111.178815 
L 163.868071 -111.12541 
L 164.41836 -111.181533 
L 165.080376 -111.027753 
L 165.730385 -111.130196 
L 166.3483 -111.103282 
L 166.760361 -111.177844 
L 167.241615 -111.371672 
L 167.929551 -111.391722 
L 168.62003 -111.440638 
L 169.206213 -111.594155 
L 169.581315 -111.710342 
L 170.092351 -111.700426 
L 170.699761 -111.646274 
L 171.155745 -111.612979 
L 171.741195 -111.736463 
L 172.27971 -111.841003 
L 172.892158 -112.059227 
L 173.635084 -112.286329 
L 174.139759 -112.44649 
L 174.51771 -112.684346 
L 175.095908 -112.766696 
L 175.747804 -112.886429 
L 176.209858 -112.986331 
L 176.807222 -113.073417 
L 177.570147 -113.183704 
L 178.125579 -113.419647 
L 178.634228 -113.445528 
L 179.25324 -113.495247 
L 179.699605 -113.523706 
L 180.105982 -113.656728 
L 180.597895 -113.768326 
L 181.222799 -113.831317 
L 181.781889 -113.911769 
L 182.343062 -113.962048 
L 182.881736 -113.939249 
L 183.34414 -113.972679 
L 184.105084 -114.056028 
L 184.807933 -114.129599 
L 185.217723 -114.174266 
L 185.73925 -114.205039 
L 186.398865 -114.229261 
L 186.979168 -114.199351 
L 187.452469 -114.251813 
L 187.87 -114.320251 
L 188.378082 -114.36938 
L 188.955822 -114.430937 
L 189.681289 -114.464294 
L 190.260471 -114.523348 
L 190.845463 -114.553705 
L 191.417171 -114.562808 
L 191.770511 -114.555493 
L 192.339968 -114.518265 
L 192.934355 -114.467409 
L 193.419333 -114.54335 
L 193.936714 -114.524186 
L 194.502155 -114.509965 
L 195.200377 -114.456254 
L 195.954825 -114.433604 
L 196.573948 -114.479947 
L 197.009565 -114.565573 
L 197.517806 -114.648575 
L 198.08506 -114.649704 
L 198.549667 -114.632821 
L 199.184578 -114.787669 
L 199.724708 -114.875438 
L 200.108874 -114.921602 
L 200.608629 -114.953076 
L 201.366695 -114.958636 
L 202.181912 -114.9254 
L 202.728814 -114.977458 
L 203.21138 -115.019363 
L 203.634777 -115.026993 
L 204.114129 -115.190029 
L 204.706888 -115.282744 
L 205.405031 -115.342557 
L 205.97503 -115.376453 
L 206.420563 -115.497982 
L 206.898139 -115.590329 
L 207.436946 -115.69815 
L 208.070585 -115.792578 
L 208.579602 -115.946426 
L 209.175305 -116.126908 
L 209.851302 -116.162545 
L 210.464794 -116.317044 
L 211.016793 -116.47281 
L 211.605108 -116.457867 
L 212.181425 -116.4771 
L 212.591039 -116.491824 
L 213.051591 -116.527275 
L 213.651706 -116.730344 
L 214.194994 -116.783415 
L 214.759624 -117.087031 
L 215.349627 -117.167918 
L 215.773956 -117.216985 
L 216.306991 -117.29305 
L 217.050672 -117.367827 
L 217.595744 -117.422967 
L 218.158905 -117.39871 
L 218.834678 -117.423485 
L 219.305791 -117.43982 
L 219.920846 -117.453899 
L 220.484415 -117.44672 
L 220.88361 -117.448898 
L 221.356977 -117.537058 
L 221.931374 -117.684164 
L 222.669868 -117.851101 
L 223.281914 -117.877488 
L 223.859971 -117.954237 
L 224.461027 -117.978373 
L 224.97142 -118.065375 
L 225.48366 -118.076303 
L 225.881244 -117.981495 
L 226.427807 -117.965591 
L 227.047677 -117.896151 
L 227.53877 -117.882207 
L 228.198159 -117.782307 
L 228.832682 -117.675972 
L 229.224175 -117.581662 
L 229.779854 -117.546852 
L 230.517669 -117.314316 
L 231.074579 -117.206839 
L 231.693248 -117.163617 
L 232.161765 -117.220355 
L 232.659637 -117.213646 
L 233.188415 -117.165684 
L 233.675036 -117.302791 
L 234.368527 -117.379416 
L 234.99496 -117.387734 
L 235.486523 -117.499295 
L 236.111886 -117.502936 
L 236.673713 -117.696137 
L 237.165202 -117.741149 
L 237.647964 -117.762078 
L 238.153846 -117.75736 
L 238.681097 -117.719584 
L 239.204422 -117.748872 
L 239.774234 -117.632127 
L 240.368307 -117.569952 
L 240.932068 -117.604888 
L 241.380869 -117.489977 
L 242.019023 -117.477599 
L 242.697263 -117.349699 
L 243.30986 -117.42007 
L 243.751592 -117.421696 
L 244.151273 -117.34484 
L 244.777913 -117.292112 
L 245.514839 -117.376459 
L 246.135169 -117.381635 
L 246.6553 -117.327704 
L 247.132746 -117.256539 
L 247.584325 -117.132412 
L 248.234237 -117.101946 
L 248.934738 -117.052219 
L 249.548684 -117.041551 
L 250.085514 -117.026195 
L 250.634405 -117.009555 
L 251.286534 -117.064958 
L 251.792557 -117.128895 
L 252.326627 -117.22581 
L 252.709056 -117.400905 
L 253.137052 -117.51198 
L 253.729411 -117.5043 
L 254.375055 -117.656569 
L 255.103087 -117.78342 
L 255.577145 -117.864798 
L 255.97963 -117.947847 
L 256.58195 -118.085017 
L 257.14557 -118.251133 
L 257.659327 -118.464759 
L 258.321914 -118.575246 
L 258.837153 -118.571384 
L 259.417714 -118.645547 
L 260.111074 -118.668798 
L 260.536705 -118.623527 
L 260.993881 -118.458847 
L 261.735166 -118.578291 
L 262.299091 -118.418603 
L 262.765989 -118.579419 
L 263.261789 -118.445766 
L 263.815539 -118.446902 
L 264.576401 -118.472125 
L 265.102062 -118.512015 
L 265.508869 -118.542923 
L 265.959347 -118.674328 
L 266.438906 -118.81678 
L 266.998492 -118.968941 
L 267.602825 -119.155294 
L 268.267423 -119.272409 
L 268.947971 -119.235895 
L 269.493773 -119.231417 
L 270.039057 -119.515555 
L 270.712805 -119.714945 
L 271.26204 -119.836659 
L 271.786189 -119.982098 
L 272.363924 -120.18855 
L 272.96288 -120.164419 
L 273.540472 -120.128566 
L 274.104975 -120.30066 
L 274.531364 -120.457343 
L 274.882844 -120.594647 
L 275.607983 -120.712287 
L 276.267424 -120.727631 
L 276.840858 -120.875617 
L 277.3097 -120.944277 
L 277.697067 -120.967393 
L 278.363876 -121.271334 
L 278.917035 -121.330601 
L 279.528137 -121.470364 
L 280.257944 -121.67296 
L 280.762674 -121.99532 
L 281.177749 -122.289526 
L 281.833603 -122.371939 
L 282.335344 -122.643246 
L 282.815243 -122.842098 
L 283.438378 -122.951382 
L 283.927662 -123.318157 
L 284.516459 -123.576795 
L 285.092239 -123.807911 
L 285.726886 -124.073668 
L 286.326294 -124.357932 
L 286.663491 -124.706995 
L 287.186124 -124.817663 
L 287.983335 -124.936478 
L 288.538287 -125.121351 
L 288.940361 -125.452145 
L 289.470081 -125.686793 
L 290.162912 -126.03912 
L 290.870101 -126.182122 
L 291.248735 -126.433454 
L 291.807713 -126.799576 
L 292.547322 -126.942752 
L 293.083854 -127.317241 
L 293.689603 -127.741894 
L 294.164059 -128.150871 
L 294.587796 -128.630306 
L 295.046161 -129.026726 
L 295.5214 -129.290712 
L 296.156874 -129.664933 
L 296.779982 -130.092348 
L 297.417687 -130.295287 
L 298.078242 -130.516227 
L 298.454354 -130.768625 
L 298.836924 -131.103244 
L 299.60033 -131.475316 
L 300.140536 -131.851813 
L 300.523531 -132.231597 
L 301.224209 -132.587083 
L 301.74852 -132.837092 
L 302.386316 -133.198032 
L 303.161745 -133.755485 
L 303.64681 -134.145393 
L 304.18358 -134.665387 
L 304.719426 -135.096205 
L 305.303667 -135.475272 
L 305.71385 -135.732473 
L 306.136648 -136.079517 
L 306.765045 -136.483617 
L 307.496966 -137.029322 
L 308.042585 -137.33475 
L 308.56792 -137.823901 
L 309.108224 -138.089192 
L 309.490353 -138.643521 
L 310.232079 -138.927076 
L 310.994743 -139.109784 
L 311.577653 -139.566305 
L 312.076787 -139.896832 
L 312.600103 -140.169221 
L 313.218085 -140.670279 
L 313.832104 -141.168225 
L 314.223727 -141.660826 
L 314.54417 -142.162955 
L 315.021921 -142.650953 
L 315.697955 -143.197711 
L 316.330951 -143.482443 
L 317.006478 -143.864154 
L 317.567296 -144.365766 
L 318.036741 -144.81862 
L 318.501329 -145.265094 
L 318.872147 -145.693285 
L 319.702504 -146.114202 
L 320.530309 -146.537704 
L 321.015546 -147.124317 
L 321.420758 -147.412903 
L 321.885806 -147.825315 
L 322.589147 -148.246765 
L 323.16409 -148.96704 
L 323.543776 -149.34047 
L 324.046742 -149.688687 
L 324.759612 -150.070441 
L 325.292275 -150.741247 
L 325.681423 -151.054641 
L 326.277388 -151.497019 
L 326.855965 -151.934528 
L 327.479257 -152.494147 
L 328.225071 -152.868433 
L 328.755104 -153.173846 
L 329.309956 -153.635069 
L 329.994672 -153.916056 
L 330.453064 -154.204712 
L 330.87991 -154.598713 
L 331.42957 -155.105965 
L 332.023687 -155.436157 
L 332.484457 -155.752206 
L 332.954936 -156.205995 
L 333.53519 -156.61849 
L 334.163229 -156.898693 
L 334.886931 -157.178631 
L 335.513973 -157.370409 
L 336.074997 -157.665547 
L 336.667717 -158.006996 
L 337.187885 -158.142148 
L 337.777781 -158.439301 
L 338.38 -158.603397 
L 338.803617 -158.723534 
L 339.152675 -159.04154 
L 339.838712 -159.248806 
L 340.510906 -159.41491 
L 341.020675 -159.409296 
L 341.659385 -159.704862 
L 342.064842 -159.830029 
L 342.47316 -159.974358 
L 343.093408 -160.184604 
L 343.609236 -160.294328 
L 344.154495 -160.456248 
L 344.666081 -160.519824 
L 345.247166 -160.781637 
L 345.944705 -160.988254 
L 346.599977 -161.106421 
L 347.245738 -161.26912 
L 347.634076 -161.526148 
L 348.002123 -161.835464 
L 348.71664 -162.044855 
L 349.357585 -162.304028 
L 349.86182 -162.392459 
L 350.45494 -162.526421 
L 351.051547 -162.769537 
L 351.547597 -163.046734 
L 351.918038 -163.239722 
L 352.377373 -163.463967 
L 352.941433 -163.605382 
L 353.656178 -163.772919 
L 354.438283 -163.899234 
L 355.027352 -164.153575 
L 355.579092 -164.338291 
L 356.212766 -164.443085 
L 356.70686 -164.628219 
L 357.110029 -164.887042 
L 357.60627 -165.13352 
L 358.324149 -165.325888 
L 359.03944 -165.437484 
L 359.335183 -165.723831 
L 359.757437 -165.862071 
L 360.558217 -165.98435 
L 361.031483 -166.036061 
L 361.379445 -166.228186 
L 361.913633 -166.496661 
L 362.479627 -166.773142 
L 363.261981 -166.965591 
L 364.009609 -167.256695 
L 364.42678 -167.414844 
L 364.844806 -167.471784 
L 365.408929 -167.497944 
L 366.079257 -167.501619 
L 366.642185 -167.590136 
L 367.155945 -167.709425 
L 367.761122 -167.91704 
L 368.236232 -168.101699 
L 368.757525 -168.269525 
L 369.397474 -168.418742 
L 369.976882 -168.649232 
L 370.631433 -168.74507 
L 371.06056 -168.922305 
L 371.415172 -169.103048 
L 372.197617 -169.34871 
L 372.902161 -169.440351 
L 373.472029 -169.501628 
L 373.870302 -169.608701 
L 374.22981 -169.793374 
L 374.828327 -170.044936 
L 375.518928 -170.110331 
L 376.132567 -170.251283 
L 376.56058 -170.561215 
L 377.06248 -170.669142 
L 377.767073 -170.908877 
L 378.344679 -171.041656 
L 378.840666 -171.285816 
L 379.422352 -171.547655 
L 379.833621 -171.869776 
L 380.451872 -172.012966 
L 381.161558 -171.961144 
L 381.795575 -172.037385 
L 382.399771 -172.054664 
L 382.687606 -172.115952 
L 383.153474 -172.208688 
L 383.954866 -172.286362 
L 384.577283 -172.349704 
L 384.991078 -172.388466 
L 385.405274 -172.483574 
L 386.062111 -172.589502 
L 386.603911 -172.675964 
L 386.989001 -172.73511 
L 387.544862 -172.791382 
L 388.228205 -172.879878 
L 388.914639 -173.001683 
L 389.47668 -172.975883 
L 389.987327 -173.061166 
L 390.406641 -173.037107 
L 390.979485 -173.055062 
L 391.615753 -172.98522 
L 392.065865 -173.037413 
L 392.769988 -173.112478 
L 393.445658 -173.15598 
L 393.810593 -173.1544 
L 394.32573 -173.248723 
L 394.864872 -173.289589 
L 395.367637 -173.340423 
L 396.067784 -173.377286 
L 396.706257 -173.404853 
L 397.221404 -173.52512 
L 397.857622 -173.484533 
L 398.42493 -173.518478 
L 398.851285 -173.540727 
L 399.476247 -173.636551 
L 400.01963 -173.756577 
L 400.585425 -173.88837 
L 401.251219 -174.089798 
L 401.867902 -174.167386 
L 402.445001 -174.228275 
L 402.864848 -174.368702 
L 403.466065 -174.508893 
L 403.892361 -174.588655 
L 404.337495 -174.678933 
L 404.929425 -174.870785 
L 405.425945 -175.035451 
L 406.144567 -175.066922 
L 406.942541 -175.104992 
L 407.344107 -175.225196 
L 407.805133 -175.469854 
L 408.577515 -175.525161 
L 409.222708 -175.779233 
L 409.612711 -175.717794 
L 410.148705 -175.865075 
L 410.763508 -175.818789 
L 411.317721 -175.823749 
L 412.007649 -175.766945 
L 412.394659 -175.809443 
L 412.928298 -175.752907 
L 413.47023 -175.713409 
L 413.932732 -175.647066 
L 414.521034 -175.578369 
L 414.98752 -175.445387 
L 415.468606 -175.358669 
L 416.187267 -175.444145 
L 416.982665 -175.421502 
L 417.350882 -175.426395 
L 417.865663 -175.322232 
L 418.659534 -175.186765 
L 419.039618 -175.104173 
L 419.336725 -175.011555 
L 420.106823 -174.914069 
L 420.803569 -174.851581 
L 421.322096 -174.769865 
L 421.740404 -174.686584 
L 422.354002 -174.744879 
L 423.17607 -174.709964 
L 423.716658 -174.649722 
L 424.251348 -174.644978 
L 424.834859 -174.489551 
L 425.159051 -174.466577 
L 425.574261 -174.099689 
L 426.256601 -173.903641 
L 426.969516 -173.747412 
L 427.612883 -173.594433 
L 428.014524 -173.450859 
L 428.412366 -173.392201 
L 429.02785 -173.266199 
L 429.656323 -173.205078 
L 430.273713 -173.049124 
L 430.925642 -173.119014 
L 431.314244 -173.108121 
L 431.90762 -173.120865 
L 432.604922 -173.242424 
L 433.133916 -173.240312 
L 433.501559 -173.099351 
L 433.893166 -173.066948 
L 434.543502 -173.037723 
L 435.255073 -173.019184 
L 435.787688 -173.001275 
L 436.167668 -172.987175 
L 436.779106 -172.914779 
L 437.395347 -172.852422 
L 438.037011 -172.764968 
L 438.640507 -172.65048 
L 439.130597 -172.559936 
L 439.651207 -172.295293 
L 440.22712 -172.066383 
L 440.865724 -172.027172 
L 441.396566 -171.913553 
L 442.037844 -171.946854 
L 442.484961 -171.878844 
L 442.926939 -171.795143 
L 443.725669 -171.746338 
L 444.384771 -171.643129 
L 444.707617 -171.490223 
L 445.040309 -171.275582 
L 445.739124 -171.214256 
L 446.47003 -171.124661 
L 446.886213 -171.211134 
L 447.393079 -171.164729 
L 448.107706 -171.134633 
L 448.785003 -171.05855 
L 449.332329 -171.05203 
L 449.780663 -170.998244 
L 450.277191 -170.956118 
L 450.739277 -170.874929 
L 451.439957 -170.923061 
L 452.043117 -171.098871 
L 452.52356 -171.01846 
L 453.092406 -170.875114 
L 453.505109 -170.820509 
L 454.13249 -170.737465 
L 454.864874 -170.691792 
L 455.43855 -170.674524 
L 455.887246 -170.631382 
L 456.473782 -170.619876 
L 457.183956 -170.57327 
L 457.565931 -170.567102 
L 457.919497 -170.499583 
L 458.688197 -170.515817 
L 459.319868 -170.421817 
L 459.720558 -170.466275 
L 460.299577 -170.428116 
L 460.959264 -170.410256 
L 461.645613 -170.33198 
L 462.175963 -170.243357 
L 462.745491 -170.111657 
L 463.121988 -169.933897 
L 463.672998 -169.892724 
L 464.445031 -169.781999 
L 464.776363 -169.813496 
L 465.292856 -169.715343 
L 465.877654 -169.593875 
L 466.341764 -169.496306 
L 467.06865 -169.383651 
L 467.715034 -169.347898 
L 468.154523 -169.210268 
L 468.679128 -169.023121 
L 469.342405 -168.892063 
L 469.760866 -168.645998 
L 470.133194 -168.469526 
L 470.749829 -168.398244 
L 471.374637 -168.382853 
L 471.904342 -168.213664 
L 472.628059 -168.098304 
L 473.212564 -168.016326 
L 473.664631 -167.947239 
L 474.340091 -167.756153 
L 474.756921 -167.585195 
L 475.382442 -167.484626 
L 476.056264 -167.276225 
L 476.439791 -167.277982 
L 477.092529 -167.212139 
L 477.795172 -167.069823 
L 478.121469 -166.90691 
L 478.538765 -166.910947 
L 479.105949 -166.802662 
L 479.754105 -166.727938 
L 480.544115 -166.615807 
L 480.997118 -166.461357 
L 481.397692 -166.370814 
L 481.934914 -166.238218 
L 482.503168 -166.052057 
L 483.199922 -165.855128 
L 483.84835 -165.716442 
L 484.452245 -165.595133 
L 484.864397 -165.51508 
L 485.197746 -165.393098 
L 485.890473 -165.296117 
L 486.582193 -165.171549 
L 487.217531 -165.168053 
L 487.791597 -164.793424 
L 488.111907 -164.4866 
L 488.630626 -164.292939 
L 489.398107 -164.0359 
L 490.116682 -163.403909 
L 490.575469 -163.183766 
L 491.036612 -162.895907 
L 491.661059 -162.518914 
L 492.12438 -162.299452 
L 492.560724 -161.995208 
L 493.053474 -161.841706 
L 493.669379 -161.622925 
L 494.373457 -161.462499 
L 494.820902 -161.31738 
L 495.43559 -161.162587 
L 496.105648 -161.026241 
L 496.510087 -160.900974 
L 496.963394 -160.830666 
L 497.467633 -160.750151 
L 498.244169 -160.522009 
L 498.968349 -160.287192 
L 499.511811 -160.166715 
L 499.897933 -160.039697 
L 500.478671 -159.834592 
L 501.301282 -159.506066 
L 501.686453 -159.302246 
L 501.99085 -159.177544 
L 502.724367 -158.997466 
L 503.268847 -158.817243 
L 503.592842 -158.55479 
L 504.340138 -158.163842 
L 504.877134 -157.841908 
L 505.493736 -157.646229 
L 506.325451 -157.510773 
L 506.818778 -157.26107 
L 507.342212 -157.061376 
L 507.935483 -156.780883 
L 508.30358 -156.465821 
L 508.81669 -156.25906 
L 509.46191 -156.048932 
L 509.946902 -155.883823 
L 510.417348 -155.772893 
L 511.012374 -155.570016 
L 511.587778 -155.276348 
L 512.264266 -155.110211 
L 512.90106 -154.97672 
L 513.431782 -154.837462 
L 513.965627 -154.594965 
L 514.329042 -154.316277 
L 515.036092 -154.003792 
L 515.605772 -153.749027 
L 516.019221 -153.461897 
L 516.597451 -153.330334 
L 517.178383 -153.139914 
L 517.803955 -153.034398 
L 518.273081 -152.924846 
L 518.784092 -152.775937 
L 519.305005 -152.633511 
L 519.792457 -152.399924 
L 520.587022 -152.267373 
L 521.159173 -152.188474 
L 521.688176 -152.088444 
L 522.294759 -151.847789 
L 522.774418 -151.546254 
L 523.336885 -151.269134 
L 523.907114 -151.096169 
L 524.572308 -150.880907 
L 525.17742 -150.702833 
L 525.64462 -150.335528 
L 526.027357 -150.116495 
L 526.549767 -149.758689 
L 527.153705 -149.437493 
L 527.784608 -149.19725 
L 528.325923 -148.966029 
L 528.951218 -148.585148 
L 529.646161 -148.329723 
L 530.004559 -148.110708 
L 530.553477 -147.831743 
L 531.329452 -147.577698 
L 531.869359 -147.354354 
L 532.445753 -146.855888 
L 533.104474 -146.574006 
L 533.582484 -146.163687 
L 534.055919 -145.810095 
L 534.698099 -145.508896 
L 535.219748 -145.251404 
L 535.681354 -144.914955 
L 536.156158 -144.412869 
L 536.692698 -144.073901 
L 537.186538 -143.846825 
L 537.62411 -143.566612 
L 538.403137 -143.380807 
L 539.010983 -143.105642 
L 539.404851 -142.86796 
L 540.003072 -142.649097 
L 540.517058 -142.563668 
L 541.143062 -142.330434 
L 541.937854 -142.162082 
L 542.4326 -141.939321 
L 542.731778 -141.864058 
L 543.333061 -141.535037 
L 544.059306 -141.492844 
L 544.568857 -141.204214 
L 545.101939 -141.133825 
L 545.62875 -141.001948 
L 546.243352 -140.925321 
L 546.753928 -140.772854 
L 547.298515 -140.792772 
L 547.90199 -140.775638 
L 548.416868 -140.733739 
L 548.916655 -140.624577 
L 549.427348 -140.500188 
L 550.11424 -140.296103 
L 550.849818 -140.046172 
L 551.519299 -139.812355 
L 551.997438 -139.598081 
L 552.507519 -139.399336 
L 552.998837 -139.167352 
L 553.392661 -139.011196 
L 554.016579 -138.90328 
L 554.725105 -138.762327 
L 555.239786 -138.576842 
L 555.80975 -138.516787 
L 556.416954 -138.429469 
L 556.955737 -138.371469 
L 557.468155 -138.295237 
L 557.90141 -138.064627 
L 558.522705 -137.909203 
L 559.153873 -137.691445 
L 559.623541 -137.378061 
L 560.181443 -137.189847 
L 560.749175 -136.987356 
L 561.451515 -136.824418 
L 562.001071 -136.593248 
L 562.300549 -136.475638 
L 562.97418 -136.375437 
L 563.634369 -136.302421 
L 564.157159 -135.904374 
L 564.763028 -135.652722 
L 565.174028 -135.399367 
L 565.619525 -135.203163 
L 566.310695 -134.84829 
L 566.978897 -134.683311 
L 567.380168 -134.567859 
L 567.780977 -134.386396 
L 568.557246 -134.159381 
L 569.26319 -133.997954 
L 569.782717 -133.765307 
L 570.351861 -133.62573 
L 570.799906 -133.617323 
L 571.323621 -133.6441 
L 571.839983 -133.566458 
L 572.450867 -133.533935 
L 573.077076 -133.449173 
L 573.728145 -133.365561 
L 574.359185 -133.310007 
L 574.697536 -133.345102 
L 575.26776 -133.326567 
L 575.880634 -133.36773 
L 576.441247 -133.366413 
L 576.936589 -133.564007 
L 577.447619 -133.693516 
L 577.964165 -133.678199 
L 578.349435 -133.737165 
L 579.066177 -133.836538 
L 579.831059 -133.911812 
L 580.473363 -133.923787 
L 581.049553 -133.812439 
L 581.518774 -133.779196 
L 582.093315 -133.723188 
L 582.620561 -133.64957 
L 583.040553 -133.523497 
L 583.549044 -133.43136 
L 584.173109 -133.350874 
L 584.882842 -133.337506 
L 585.333135 -133.385313 
L 585.924429 -133.348006 
L 586.4553 -133.187602 
L 587.003437 -132.935555 
L 587.787502 -132.824281 
L 588.156135 -132.680014 
L 588.498488 -132.294829 
L 589.144963 -132.184233 
L 589.714867 -131.949116 
L 590.354137 -131.77782 
L 590.895118 -131.785665 
L 591.318352 -131.609374 
L 592.001859 -131.43059 
L 592.618522 -131.205437 
L 593.131894 -131.387944 
L 593.702649 -131.326226 
L 594.284285 -131.470911 
L 594.931097 -131.389693 
L 595.542132 -131.282454 
L 596.11114 -131.242907 
L 596.606813 -131.160339 
L 597.16024 -130.937214 
L 597.692997 -130.633985 
L 598.075525 -130.461509 
L 598.742737 -130.303333 
L 599.47064 -130.182074 
L 599.943701 -129.933594 
L 600.507162 -129.767932 
L 601.072395 -129.602051 
L 601.586341 -129.302923 
L 602.056621 -128.688796 
L 602.61217 -128.286796 
L 603.306272 -127.871388 
L 603.646754 -127.589699 
L 604.031892 -127.266851 
L 604.71254 -126.808651 
L 605.476242 -126.321079 
L 606.079464 -126.072904 
L 606.685172 -125.737699 
L 607.267777 -125.427516 
L 607.715311 -124.90053 
L 608.238757 -124.252845 
L 608.671654 -123.598343 
L 609.266369 -122.962089 
L 609.811085 -122.013266 
L 610.444454 -120.697123 
L 611.135232 -118.793056 
L 611.554168 -117.817389 
L 611.809277 -120.199597 
L 611.809277 -127.51261 
L 611.809277 -127.51261 
L 611.554168 -126.912529 
L 611.135232 -126.693245 
L 610.444454 -127.238679 
L 609.811085 -127.334424 
L 609.266369 -127.555589 
L 608.671654 -127.825256 
L 608.238757 -128.101441 
L 607.715311 -128.342807 
L 607.267777 -128.683532 
L 606.685172 -128.865453 
L 606.079464 -128.98757 
L 605.476242 -129.154943 
L 604.71254 -129.514898 
L 604.031892 -129.794254 
L 603.646754 -130.10601 
L 603.306272 -130.374217 
L 602.61217 -130.904396 
L 602.056621 -131.271481 
L 601.586341 -131.590881 
L 601.072395 -131.987739 
L 600.507162 -132.144963 
L 599.943701 -132.345607 
L 599.47064 -132.542515 
L 598.742737 -132.593459 
L 598.075525 -132.785899 
L 597.692997 -132.946841 
L 597.16024 -133.138975 
L 596.606813 -133.269427 
L 596.11114 -133.446148 
L 595.542132 -133.694035 
L 594.931097 -133.862228 
L 594.284285 -134.01293 
L 593.702649 -134.12667 
L 593.131894 -134.279986 
L 592.618522 -134.501013 
L 592.001859 -134.69403 
L 591.318352 -134.737691 
L 590.895118 -134.817222 
L 590.354137 -134.830723 
L 589.714867 -134.940211 
L 589.144963 -135.083651 
L 588.498488 -135.189804 
L 588.156135 -135.452202 
L 587.787502 -135.661049 
L 587.003437 -135.782702 
L 586.4553 -136.054055 
L 585.924429 -136.336247 
L 585.333135 -136.419075 
L 584.882842 -136.42812 
L 584.173109 -136.44387 
L 583.549044 -136.532528 
L 583.040553 -136.623866 
L 582.620561 -136.82106 
L 582.093315 -136.961684 
L 581.518774 -137.080729 
L 581.049553 -137.219781 
L 580.473363 -137.299093 
L 579.831059 -137.332525 
L 579.066177 -137.315447 
L 578.349435 -137.324559 
L 577.964165 -137.340362 
L 577.447619 -137.408978 
L 576.936589 -137.424329 
L 576.441247 -137.430854 
L 575.880634 -137.425712 
L 575.26776 -137.47227 
L 574.697536 -137.557954 
L 574.359185 -137.547687 
L 573.728145 -137.657955 
L 573.077076 -137.724157 
L 572.450867 -137.857767 
L 571.839983 -137.984476 
L 571.323621 -138.086077 
L 570.799906 -138.225264 
L 570.351861 -138.378724 
L 569.782717 -138.434947 
L 569.26319 -138.565288 
L 568.557246 -138.773829 
L 567.780977 -138.991914 
L 567.380168 -139.104279 
L 566.978897 -139.319656 
L 566.310695 -139.444059 
L 565.619525 -139.873738 
L 565.174028 -140.042566 
L 564.763028 -140.184618 
L 564.157159 -140.286704 
L 563.634369 -140.621566 
L 562.97418 -140.741006 
L 562.300549 -140.931891 
L 562.001071 -140.995854 
L 561.451515 -141.091518 
L 560.749175 -141.334266 
L 560.181443 -141.541591 
L 559.623541 -141.694439 
L 559.153873 -141.863058 
L 558.522705 -142.128367 
L 557.90141 -142.386133 
L 557.468155 -142.537481 
L 556.955737 -142.582792 
L 556.416954 -142.709902 
L 555.80975 -142.836725 
L 555.239786 -143.111512 
L 554.725105 -143.181758 
L 554.016579 -143.391983 
L 553.392661 -143.677529 
L 552.998837 -143.876384 
L 552.507519 -143.910006 
L 551.997438 -144.088276 
L 551.519299 -144.357188 
L 550.849818 -144.570255 
L 550.11424 -144.723844 
L 549.427348 -144.89018 
L 548.916655 -145.065091 
L 548.416868 -145.178089 
L 547.90199 -145.306657 
L 547.298515 -145.286955 
L 546.753928 -145.429088 
L 546.243352 -145.415617 
L 545.62875 -145.640764 
L 545.101939 -145.767855 
L 544.568857 -145.872615 
L 544.059306 -145.953598 
L 543.333061 -146.075922 
L 542.731778 -146.212667 
L 542.4326 -146.394344 
L 541.937854 -146.56596 
L 541.143062 -146.724821 
L 540.517058 -146.766898 
L 540.003072 -146.916033 
L 539.404851 -146.967221 
L 539.010983 -147.312686 
L 538.403137 -147.597877 
L 537.62411 -147.822077 
L 537.186538 -147.933435 
L 536.692698 -148.243196 
L 536.156158 -148.454143 
L 535.681354 -148.650827 
L 535.219748 -148.92474 
L 534.698099 -149.107223 
L 534.055919 -149.326794 
L 533.582484 -149.505599 
L 533.104474 -149.781968 
L 532.445753 -150.029785 
L 531.869359 -150.277773 
L 531.329452 -150.508232 
L 530.553477 -150.733815 
L 530.004559 -151.046042 
L 529.646161 -151.23564 
L 528.951218 -151.476181 
L 528.325923 -151.748071 
L 527.784608 -152.063226 
L 527.153705 -152.268207 
L 526.549767 -152.49881 
L 526.027357 -152.693025 
L 525.64462 -152.900975 
L 525.17742 -153.168084 
L 524.572308 -153.415462 
L 523.907114 -153.629884 
L 523.336885 -153.812874 
L 522.774418 -153.99634 
L 522.294759 -154.127931 
L 521.688176 -154.351026 
L 521.159173 -154.43162 
L 520.587022 -154.655512 
L 519.792457 -154.747514 
L 519.305005 -154.805802 
L 518.784092 -154.973209 
L 518.273081 -155.172465 
L 517.803955 -155.39017 
L 517.178383 -155.605854 
L 516.597451 -155.76972 
L 516.019221 -156.082324 
L 515.605772 -156.362441 
L 515.036092 -156.567067 
L 514.329042 -156.822113 
L 513.965627 -157.01762 
L 513.431782 -157.294243 
L 512.90106 -157.388425 
L 512.264266 -157.582755 
L 511.587778 -157.902581 
L 511.012374 -158.086384 
L 510.417348 -158.314074 
L 509.946902 -158.366671 
L 509.46191 -158.564472 
L 508.81669 -158.722743 
L 508.30358 -158.928664 
L 507.935483 -159.048118 
L 507.342212 -159.231348 
L 506.818778 -159.521607 
L 506.325451 -159.765395 
L 505.493736 -160.156071 
L 504.877134 -160.389328 
L 504.340138 -160.706458 
L 503.592842 -160.883017 
L 503.268847 -161.281483 
L 502.724367 -161.551938 
L 501.99085 -161.811948 
L 501.686453 -161.911106 
L 501.301282 -162.037772 
L 500.478671 -162.224028 
L 499.897933 -162.42785 
L 499.511811 -162.665397 
L 498.968349 -162.871632 
L 498.244169 -163.116442 
L 497.467633 -163.376407 
L 496.963394 -163.502133 
L 496.510087 -163.593621 
L 496.105648 -163.837008 
L 495.43559 -163.949535 
L 494.820902 -164.036179 
L 494.373457 -164.29732 
L 493.669379 -164.529264 
L 493.053474 -164.738159 
L 492.560724 -165.086526 
L 492.12438 -165.399569 
L 491.661059 -165.699658 
L 491.036612 -166.209226 
L 490.575469 -166.700672 
L 490.116682 -166.912383 
L 489.398107 -167.372933 
L 488.630626 -167.530274 
L 488.111907 -167.631073 
L 487.791597 -167.765765 
L 487.217531 -167.987524 
L 486.582193 -168.157919 
L 485.890473 -168.279434 
L 485.197746 -168.457997 
L 484.864397 -168.578671 
L 484.452245 -168.598622 
L 483.84835 -168.725807 
L 483.199922 -168.897955 
L 482.503168 -169.155885 
L 481.934914 -169.254168 
L 481.397692 -169.389131 
L 480.997118 -169.396575 
L 480.544115 -169.380139 
L 479.754105 -169.388686 
L 479.105949 -169.476691 
L 478.538765 -169.594079 
L 478.121469 -169.702589 
L 477.795172 -169.777851 
L 477.092529 -169.872491 
L 476.439791 -170.013145 
L 476.056264 -170.223242 
L 475.382442 -170.417793 
L 474.756921 -170.547281 
L 474.340091 -170.704928 
L 473.664631 -170.96741 
L 473.212564 -171.079068 
L 472.628059 -171.230673 
L 471.904342 -171.43437 
L 471.374637 -171.537292 
L 470.749829 -171.598096 
L 470.133194 -171.708144 
L 469.760866 -171.870525 
L 469.342405 -172.144337 
L 468.679128 -172.33314 
L 468.154523 -172.666949 
L 467.715034 -172.922031 
L 467.06865 -173.205895 
L 466.341764 -173.436377 
L 465.877654 -173.632117 
L 465.292856 -173.921152 
L 464.776363 -173.972194 
L 464.445031 -174.058604 
L 463.672998 -174.266978 
L 463.121988 -174.401905 
L 462.745491 -174.575352 
L 462.175963 -174.700937 
L 461.645613 -174.737662 
L 460.959264 -174.806968 
L 460.299577 -174.714967 
L 459.720558 -174.576741 
L 459.319868 -174.502571 
L 458.688197 -174.516249 
L 457.919497 -174.427987 
L 457.565931 -174.406209 
L 457.183956 -174.283239 
L 456.473782 -174.236897 
L 455.887246 -174.321546 
L 455.43855 -174.353325 
L 454.864874 -174.46518 
L 454.13249 -174.495867 
L 453.505109 -174.49846 
L 453.092406 -174.71517 
L 452.52356 -174.812457 
L 452.043117 -174.888364 
L 451.439957 -174.83746 
L 450.739277 -174.814953 
L 450.277191 -174.830935 
L 449.780663 -174.948028 
L 449.332329 -174.893971 
L 448.785003 -174.827013 
L 448.107706 -174.796017 
L 447.393079 -174.784494 
L 446.886213 -174.85074 
L 446.47003 -174.92269 
L 445.739124 -175.093312 
L 445.040309 -175.216573 
L 444.707617 -175.523412 
L 444.384771 -175.845628 
L 443.725669 -176.005629 
L 442.926939 -175.976034 
L 442.484961 -176.068196 
L 442.037844 -176.187568 
L 441.396566 -176.223308 
L 440.865724 -176.205088 
L 440.22712 -176.238885 
L 439.651207 -176.393254 
L 439.130597 -176.561549 
L 438.640507 -176.552641 
L 438.037011 -176.645502 
L 437.395347 -176.657203 
L 436.779106 -176.698871 
L 436.167668 -176.786568 
L 435.787688 -176.749237 
L 435.255073 -176.805612 
L 434.543502 -176.742216 
L 433.893166 -176.799521 
L 433.501559 -176.873717 
L 433.133916 -176.929379 
L 432.604922 -176.871812 
L 431.90762 -176.891768 
L 431.314244 -176.985703 
L 430.925642 -176.956573 
L 430.273713 -176.981239 
L 429.656323 -177.016163 
L 429.02785 -177.086849 
L 428.412366 -177.208269 
L 428.014524 -177.338793 
L 427.612883 -177.584405 
L 426.969516 -177.773736 
L 426.256601 -178.045418 
L 425.574261 -178.313901 
L 425.159051 -178.707362 
L 424.834859 -178.850677 
L 424.251348 -178.956538 
L 423.716658 -178.896941 
L 423.17607 -179.074524 
L 422.354002 -179.237296 
L 421.740404 -179.267267 
L 421.322096 -179.312269 
L 420.803569 -179.473846 
L 420.106823 -179.644441 
L 419.336725 -179.697433 
L 419.039618 -179.856779 
L 418.659534 -179.999469 
L 417.865663 -180.098721 
L 417.350882 -180.137304 
L 416.982665 -180.31414 
L 416.187267 -180.323321 
L 415.468606 -180.300287 
L 414.98752 -180.544826 
L 414.521034 -180.787119 
L 413.932732 -180.86961 
L 413.47023 -181.003276 
L 412.928298 -181.138172 
L 412.394659 -181.199077 
L 412.007649 -181.486648 
L 411.317721 -181.682483 
L 410.763508 -181.658689 
L 410.148705 -181.657841 
L 409.612711 -181.612618 
L 409.222708 -181.499021 
L 408.577515 -181.424843 
L 407.805133 -181.289958 
L 407.344107 -181.214334 
L 406.942541 -181.23253 
L 406.144567 -181.084519 
L 405.425945 -181.020706 
L 404.929425 -180.984705 
L 404.337495 -180.753321 
L 403.892361 -180.477353 
L 403.466065 -180.116082 
L 402.864848 -179.865919 
L 402.445001 -179.528766 
L 401.867902 -179.286784 
L 401.251219 -178.989918 
L 400.585425 -178.80855 
L 400.01963 -178.562397 
L 399.476247 -178.351801 
L 398.851285 -178.319721 
L 398.42493 -178.297036 
L 397.857622 -178.209975 
L 397.221404 -178.290416 
L 396.706257 -178.397883 
L 396.067784 -178.349019 
L 395.367637 -178.334899 
L 394.864872 -178.298701 
L 394.32573 -178.308977 
L 393.810593 -178.236743 
L 393.445658 -178.135054 
L 392.769988 -178.095286 
L 392.065865 -178.047934 
L 391.615753 -178.171995 
L 390.979485 -178.210802 
L 390.406641 -178.308504 
L 389.987327 -178.395181 
L 389.47668 -178.270944 
L 388.914639 -178.282054 
L 388.228205 -178.143898 
L 387.544862 -178.30171 
L 386.989001 -178.324038 
L 386.603911 -178.316668 
L 386.062111 -178.439188 
L 385.405274 -178.607617 
L 384.991078 -178.611389 
L 384.577283 -178.648928 
L 383.954866 -178.772902 
L 383.153474 -178.940488 
L 382.687606 -178.919101 
L 382.399771 -178.865029 
L 381.795575 -178.55676 
L 381.161558 -178.521396 
L 380.451872 -178.519636 
L 379.833621 -178.450089 
L 379.422352 -178.322158 
L 378.840666 -178.062344 
L 378.344679 -177.95113 
L 377.767073 -177.682757 
L 377.06248 -177.463506 
L 376.56058 -177.15183 
L 376.132567 -176.867902 
L 375.518928 -176.707725 
L 374.828327 -176.524295 
L 374.22981 -176.332425 
L 373.870302 -176.155372 
L 373.472029 -176.05357 
L 372.902161 -175.813488 
L 372.197617 -175.664941 
L 371.415172 -175.294783 
L 371.06056 -175.026081 
L 370.631433 -174.656253 
L 369.976882 -174.352462 
L 369.397474 -174.077898 
L 368.757525 -173.919857 
L 368.236232 -173.832172 
L 367.761122 -173.753976 
L 367.155945 -173.611593 
L 366.642185 -173.51454 
L 366.079257 -173.441086 
L 365.408929 -173.408129 
L 364.844806 -173.527242 
L 364.42678 -173.511201 
L 364.009609 -173.532159 
L 363.261981 -173.436788 
L 362.479627 -173.200676 
L 361.913633 -172.905221 
L 361.379445 -172.559667 
L 361.031483 -172.378428 
L 360.558217 -172.295809 
L 359.757437 -172.189861 
L 359.335183 -171.938217 
L 359.03944 -171.839675 
L 358.324149 -171.521058 
L 357.60627 -171.029851 
L 357.110029 -170.613806 
L 356.70686 -170.137551 
L 356.212766 -169.865095 
L 355.579092 -169.555561 
L 355.027352 -169.226336 
L 354.438283 -169.018756 
L 353.656178 -168.648204 
L 352.941433 -168.267828 
L 352.377373 -168.011964 
L 351.918038 -167.798304 
L 351.547597 -167.574039 
L 351.051547 -167.46139 
L 350.45494 -167.199599 
L 349.86182 -166.918654 
L 349.357585 -166.62599 
L 348.71664 -166.264318 
L 348.002123 -165.988019 
L 347.634076 -165.874342 
L 347.245738 -165.835332 
L 346.599977 -165.620291 
L 345.944705 -165.521915 
L 345.247166 -165.491014 
L 344.666081 -165.295499 
L 344.154495 -165.270244 
L 343.609236 -165.309356 
L 343.093408 -165.382141 
L 342.47316 -165.280563 
L 342.064842 -165.363404 
L 341.659385 -165.366767 
L 341.020675 -165.216529 
L 340.510906 -165.060388 
L 339.838712 -165.105948 
L 339.152675 -164.832385 
L 338.803617 -164.399858 
L 338.38 -163.945639 
L 337.777781 -163.642434 
L 337.187885 -163.148093 
L 336.667717 -162.633994 
L 336.074997 -162.412914 
L 335.513973 -161.894649 
L 334.886931 -161.283033 
L 334.163229 -160.497002 
L 333.53519 -160.241038 
L 332.954936 -159.883588 
L 332.484457 -159.421949 
L 332.023687 -159.012377 
L 331.42957 -158.597022 
L 330.87991 -158.213793 
L 330.453064 -157.636737 
L 329.994672 -157.151451 
L 329.309956 -156.804094 
L 328.755104 -156.198445 
L 328.225071 -155.689495 
L 327.479257 -155.255781 
L 326.855965 -154.677882 
L 326.277388 -154.325806 
L 325.681423 -153.997494 
L 325.292275 -153.348805 
L 324.759612 -152.936682 
L 324.046742 -152.574438 
L 323.543776 -152.24491 
L 323.16409 -151.749008 
L 322.589147 -151.455797 
L 321.885806 -151.024877 
L 321.420758 -150.768139 
L 321.015546 -150.438913 
L 320.530309 -150.027651 
L 319.702504 -149.694228 
L 318.872147 -149.330528 
L 318.501329 -148.922224 
L 318.036741 -148.649354 
L 317.567296 -148.32232 
L 317.006478 -147.998104 
L 316.330951 -147.632629 
L 315.697955 -147.22947 
L 315.021921 -146.828106 
L 314.54417 -146.376614 
L 314.223727 -146.227922 
L 313.832104 -145.86365 
L 313.218085 -145.561745 
L 312.600103 -145.226108 
L 312.076787 -144.931937 
L 311.577653 -144.727023 
L 310.994743 -144.449227 
L 310.232079 -144.216537 
L 309.490353 -143.962401 
L 309.108224 -143.51499 
L 308.56792 -143.207116 
L 308.042585 -142.887688 
L 307.496966 -142.564857 
L 306.765045 -142.119396 
L 306.136648 -141.791296 
L 305.71385 -141.317354 
L 305.303667 -140.946734 
L 304.719426 -140.6859 
L 304.18358 -140.367511 
L 303.64681 -140.163468 
L 303.161745 -139.973582 
L 302.386316 -139.795711 
L 301.74852 -139.564696 
L 301.224209 -139.085136 
L 300.523531 -138.72858 
L 300.140536 -138.586339 
L 299.60033 -138.383431 
L 298.836924 -138.033926 
L 298.454354 -137.628095 
L 298.078242 -137.432008 
L 297.417687 -137.215871 
L 296.779982 -137.063442 
L 296.156874 -136.886513 
L 295.5214 -136.639681 
L 295.046161 -136.434811 
L 294.587796 -136.199632 
L 294.164059 -135.915949 
L 293.689603 -135.621421 
L 293.083854 -135.332671 
L 292.547322 -135.059666 
L 291.807713 -134.941189 
L 291.248735 -134.707745 
L 290.870101 -134.59559 
L 290.162912 -134.315919 
L 289.470081 -134.046537 
L 288.940361 -133.833286 
L 288.538287 -133.509572 
L 287.983335 -133.301449 
L 287.186124 -133.182451 
L 286.663491 -132.861085 
L 286.326294 -132.536244 
L 285.726886 -132.271032 
L 285.092239 -132.155029 
L 284.516459 -131.934668 
L 283.927662 -131.740121 
L 283.438378 -131.564577 
L 282.815243 -131.450437 
L 282.335344 -131.235504 
L 281.833603 -130.994011 
L 281.177749 -130.800695 
L 280.762674 -130.588344 
L 280.257944 -130.285987 
L 279.528137 -129.842327 
L 278.917035 -129.689106 
L 278.363876 -129.587043 
L 277.697067 -129.423052 
L 277.3097 -129.282501 
L 276.840858 -129.079694 
L 276.267424 -128.865051 
L 275.607983 -128.746806 
L 274.882844 -128.466779 
L 274.531364 -128.294743 
L 274.104975 -128.059119 
L 273.540472 -127.87285 
L 272.96288 -127.810123 
L 272.363924 -127.764763 
L 271.786189 -127.460886 
L 271.26204 -127.400626 
L 270.712805 -126.998565 
L 270.039057 -126.739433 
L 269.493773 -126.517524 
L 268.947971 -126.341253 
L 268.267423 -126.079034 
L 267.602825 -125.822084 
L 266.998492 -125.69478 
L 266.438906 -125.524268 
L 265.959347 -125.400239 
L 265.508869 -125.27805 
L 265.102062 -125.11502 
L 264.576401 -124.843416 
L 263.815539 -124.767823 
L 263.261789 -124.778461 
L 262.765989 -124.696772 
L 262.299091 -124.499409 
L 261.735166 -124.345482 
L 260.993881 -124.222177 
L 260.536705 -124.204795 
L 260.111074 -124.007053 
L 259.417714 -123.90924 
L 258.837153 -123.730573 
L 258.321914 -123.677919 
L 257.659327 -123.590477 
L 257.14557 -123.579424 
L 256.58195 -123.418548 
L 255.97963 -123.384519 
L 255.577145 -123.191875 
L 255.103087 -123.181511 
L 254.375055 -122.94181 
L 253.729411 -122.856553 
L 253.137052 -122.729287 
L 252.709056 -122.642191 
L 252.326627 -122.434233 
L 251.792557 -122.309504 
L 251.286534 -122.315428 
L 250.634405 -122.23504 
L 250.085514 -122.177584 
L 249.548684 -122.027912 
L 248.934738 -121.84602 
L 248.234237 -121.775847 
L 247.584325 -121.675733 
L 247.132746 -121.682113 
L 246.6553 -121.563838 
L 246.135169 -121.569917 
L 245.514839 -121.556483 
L 244.777913 -121.470002 
L 244.151273 -121.492327 
L 243.751592 -121.509372 
L 243.30986 -121.493607 
L 242.697263 -121.407077 
L 242.019023 -121.413199 
L 241.380869 -121.337038 
L 240.932068 -121.35266 
L 240.368307 -121.393263 
L 239.774234 -121.348485 
L 239.204422 -121.31894 
L 238.681097 -121.25716 
L 238.153846 -121.197251 
L 237.647964 -121.151961 
L 237.165202 -121.121833 
L 236.673713 -121.071908 
L 236.111886 -120.884469 
L 235.486523 -120.837424 
L 234.99496 -120.750171 
L 234.368527 -120.670714 
L 233.675036 -120.651476 
L 233.188415 -120.593552 
L 232.659637 -120.634039 
L 232.161765 -120.64394 
L 231.693248 -120.682639 
L 231.074579 -120.703531 
L 230.517669 -120.756985 
L 229.779854 -120.783841 
L 229.224175 -120.840488 
L 228.832682 -120.916243 
L 228.198159 -120.909392 
L 227.53877 -120.96407 
L 227.047677 -120.95979 
L 226.427807 -120.890052 
L 225.881244 -120.8158 
L 225.48366 -120.700882 
L 224.97142 -120.804811 
L 224.461027 -120.748695 
L 223.859971 -120.640412 
L 223.281914 -120.568081 
L 222.669868 -120.525576 
L 221.931374 -120.364738 
L 221.356977 -120.263804 
L 220.88361 -120.286743 
L 220.484415 -120.266559 
L 219.920846 -120.285521 
L 219.305791 -120.240255 
L 218.834678 -120.233994 
L 218.158905 -120.174369 
L 217.595744 -120.031404 
L 217.050672 -120.01406 
L 216.306991 -119.942256 
L 215.773956 -119.882933 
L 215.349627 -119.759969 
L 214.759624 -119.662201 
L 214.194994 -119.470763 
L 213.651706 -119.302332 
L 213.051591 -119.237727 
L 212.591039 -119.105897 
L 212.181425 -119.073993 
L 211.605108 -118.929481 
L 211.016793 -118.920296 
L 210.464794 -118.885042 
L 209.851302 -118.784094 
L 209.175305 -118.694946 
L 208.579602 -118.665804 
L 208.070585 -118.476691 
L 207.436946 -118.359453 
L 206.898139 -118.315014 
L 206.420563 -118.20576 
L 205.97503 -118.108577 
L 205.405031 -118.111069 
L 204.706888 -117.946519 
L 204.114129 -117.723966 
L 203.634777 -117.571036 
L 203.21138 -117.339915 
L 202.728814 -117.239068 
L 202.181912 -117.191537 
L 201.366695 -117.22754 
L 200.608629 -117.242973 
L 200.108874 -117.20328 
L 199.724708 -117.253668 
L 199.184578 -117.137923 
L 198.549667 -117.131273 
L 198.08506 -117.139272 
L 197.517806 -117.100294 
L 197.009565 -116.99381 
L 196.573948 -116.971457 
L 195.954825 -116.964417 
L 195.200377 -117.002235 
L 194.502155 -117.004305 
L 193.936714 -117.056433 
L 193.419333 -117.0835 
L 192.934355 -117.047386 
L 192.339968 -117.05481 
L 191.770511 -117.137937 
L 191.417171 -117.238896 
L 190.845463 -117.258421 
L 190.260471 -117.290986 
L 189.681289 -117.302998 
L 188.955822 -117.310141 
L 188.378082 -117.224228 
L 187.87 -117.166218 
L 187.452469 -117.074615 
L 186.979168 -117.036428 
L 186.398865 -117.042931 
L 185.73925 -116.973019 
L 185.217723 -116.962502 
L 184.807933 -116.971825 
L 184.105084 -116.885811 
L 183.34414 -116.791132 
L 182.881736 -116.74493 
L 182.343062 -116.801303 
L 181.781889 -116.839913 
L 181.222799 -116.792913 
L 180.597895 -116.746319 
L 180.105982 -116.757331 
L 179.699605 -116.72241 
L 179.25324 -116.688413 
L 178.634228 -116.618845 
L 178.125579 -116.460284 
L 177.570147 -116.429166 
L 176.807222 -116.307963 
L 176.209858 -116.294697 
L 175.747804 -116.129842 
L 175.095908 -116.065887 
L 174.51771 -115.993322 
L 174.139759 -115.861455 
L 173.635084 -115.70668 
L 172.892158 -115.522712 
L 172.27971 -115.311898 
L 171.741195 -115.242414 
L 171.155745 -115.038996 
L 170.699761 -115.059555 
L 170.092351 -114.923985 
L 169.581315 -114.632399 
L 169.206213 -114.51567 
L 168.62003 -114.375068 
L 167.929551 -114.114025 
L 167.241615 -113.841321 
L 166.760361 -113.792457 
L 166.3483 -113.916735 
L 165.730385 -113.962426 
L 165.080376 -113.808782 
L 164.41836 -113.851854 
L 163.868071 -114.08046 
L 163.398522 -114.187736 
L 162.927365 -114.392133 
L 162.350042 -114.690983 
L 161.708781 -114.828008 
L 161.297956 -114.920331 
L 160.701805 -115.028487 
L 160.078294 -115.136559 
L 159.622033 -115.131905 
L 159.128118 -115.227538 
L 158.435347 -115.336974 
L 157.699318 -115.352178 
L 157.22939 -115.338159 
L 156.809888 -115.36347 
L 156.202016 -115.435547 
L 155.644283 -115.506938 
L 155.170596 -115.482808 
L 154.608489 -115.530432 
L 154.092506 -115.457841 
L 153.612245 -115.429708 
L 153.080555 -115.394657 
L 152.306203 -115.275233 
L 151.546255 -115.088331 
L 151.115371 -114.984127 
L 150.646335 -114.863595 
L 150.024487 -114.841774 
L 149.606024 -114.71655 
L 149.197724 -114.577067 
L 148.390193 -114.542759 
L 147.578851 -114.416956 
L 147.216562 -114.343918 
L 146.780228 -114.269644 
L 146.204029 -114.218759 
L 145.64445 -114.024368 
L 145.105337 -113.967218 
L 144.462705 -113.866645 
L 143.792983 -113.532003 
L 143.385958 -113.340367 
L 142.851032 -113.149831 
L 142.151112 -112.802461 
L 141.703032 -112.547189 
L 141.130953 -112.369517 
L 140.394111 -112.121517 
L 139.846931 -111.833994 
L 139.335881 -111.53522 
L 138.921475 -111.230373 
L 138.338817 -110.993519 
L 137.821748 -110.847715 
L 137.324676 -110.876883 
L 136.60714 -110.637827 
L 136.104666 -110.446489 
L 135.619477 -110.008445 
L 135.011796 -109.831828 
L 134.445172 -109.584498 
L 133.932716 -109.355117 
L 133.376657 -109.187535 
L 132.656874 -108.982551 
L 131.971517 -108.784722 
L 131.501353 -108.587718 
L 131.194416 -108.380156 
L 130.558564 -108.259153 
L 129.782433 -108.200996 
L 129.350082 -108.02207 
L 128.780549 -107.76895 
L 128.276677 -107.737645 
L 127.87675 -107.550381 
L 127.259005 -107.363186 
L 126.771561 -107.137477 
L 126.081579 -106.969885 
L 125.332694 -106.849327 
L 124.827407 -106.515094 
L 124.21365 -106.422671 
L 123.607444 -106.476299 
L 123.111972 -106.360276 
L 122.796915 -106.152301 
L 122.358373 -106.077117 
L 121.549908 -105.963012 
L 120.941522 -105.781118 
L 120.440144 -105.708621 
L 119.904637 -105.575822 
L 119.494203 -105.514363 
L 118.963568 -105.412071 
L 118.345328 -105.256295 
L 117.611438 -105.179518 
L 117.146412 -105.160099 
L 116.799397 -105.073959 
L 116.025846 -104.953265 
L 115.476833 -104.953633 
L 115.112597 -104.850445 
L 114.578247 -104.870059 
L 113.884113 -104.785135 
L 113.291433 -104.798536 
L 112.791119 -105.158273 
L 112.220882 -105.201154 
L 111.572694 -105.29738 
L 110.826845 -105.493448 
L 110.47189 -105.590561 
L 110.053803 -105.778199 
L 109.264722 -105.959084 
L 108.590264 -106.061936 
L 108.08902 -106.151728 
L 107.713414 -106.128558 
L 107.13345 -106.163621 
L 106.348487 -106.237776 
L 105.821722 -106.368932 
L 105.471496 -106.42435 
L 104.863957 -106.562314 
L 104.273476 -106.881081 
L 103.827945 -107.098758 
L 103.173664 -107.452023 
L 102.720912 -107.833748 
L 102.245093 -108.22927 
L 101.514295 -108.585506 
L 100.784858 -108.967017 
L 100.250161 -109.31128 
L 99.799743 -109.491955 
L 99.296591 -109.867712 
L 98.655501 -110.278165 
L 98.093841 -110.583897 
L 97.577905 -110.842647 
L 96.867066 -111.087318 
L 96.481756 -111.2785 
L 96.107845 -111.444504 
L 95.576024 -111.675632 
L 94.905817 -112.077864 
L 94.187796 -112.463152 
L 93.802904 -112.807981 
L 93.24121 -113.135904 
L 92.486998 -113.418489 
L 91.959048 -113.762446 
L 91.446555 -114.07758 
L 90.959328 -114.246164 
L 90.551561 -114.470893 
L 90.012661 -114.57372 
L 89.439201 -114.579468 
L 88.888032 -114.690246 
L 88.21651 -114.728153 
L 87.503323 -114.740904 
L 86.904858 -114.783224 
L 86.341843 -114.882441 
L 85.769651 -114.884532 
L 85.199129 -115.133804 
L 84.730828 -115.318948 
L 84.127881 -115.466674 
L 83.458684 -115.686385 
L 83.071071 -115.803108 
L 82.640398 -115.927481 
L 82.137319 -116.05485 
L 81.554 -116.200486 
L 81.016472 -116.24445 
L 80.370575 -116.343563 
L 79.752235 -116.22338 
L 79.196864 -116.141843 
L 78.577201 -116.11742 
L 78.174672 -116.131216 
L 77.589566 -116.053277 
L 76.989038 -116.225737 
L 76.488604 -116.219634 
L 75.870866 -116.152433 
L 75.141808 -116.176258 
L 74.506933 -116.173846 
L 74.151054 -116.18352 
L 73.720242 -116.094144 
L 73.149988 -115.955515 
L 72.659098 -115.844877 
L 72.011224 -115.636534 
L 71.37419 -115.372349 
L 70.832364 -115.129585 
L 70.336555 -114.877575 
L 69.792953 -114.441074 
L 69.052839 -114.114314 
L 68.636875 -113.879293 
L 68.086397 -113.975044 
L 67.42962 -113.817718 
L 67.054551 -113.840793 
L 66.346372 -113.596049 
L 65.808916 -113.283413 
L 65.415861 -112.742918 
L 64.729624 -112.345346 
L 63.99518 -111.862179 
L 63.558359 -111.290643 
L 63.084586 -110.304509 
L 62.367326 -109.988179 
L 61.92092 -110.195335 
L 61.554349 -110.534753 
L 60.85612 -110.545834 
L 60.02864 -110.680377 
L 59.472353 -111.165419 
L 58.916622 -111.597417 
L 58.514823 -112.083392 
L 58.226932 -112.472175 
L 57.578762 -113.727243 
L 56.949431 -114.782721 
L 56.336118 -116.328288 
L 55.697426 -118.397786 
L 55.179279 -120.603881 
L 54.588574 -121.559782 
z
" style="stroke: #808080; stroke-opacity: 0.5; stroke-width: 0.5"/>
    </defs>
    <g clip-path="url(#pe69bc6e9ce)">
     <use xlink:href="#me82a9c4310" x="0" y="283.57" style="fill: #808080; fill-opacity: 0.5; stroke: #808080; stroke-opacity: 0.5; stroke-width: 0.5"/>
    </g>
   </g>
   <g id="line2d_23">
    <path d="M 54.588574 167.131638 
L 55.179279 167.930602 
L 55.697426 169.49161 
L 56.949431 172.232113 
L 58.226932 174.034443 
L 58.916622 174.516863 
L 60.02864 175.250977 
L 61.554349 175.022796 
L 62.367326 175.350549 
L 63.084586 174.949741 
L 63.99518 173.370926 
L 66.346372 171.979568 
L 68.086397 171.665843 
L 68.636875 171.663158 
L 70.832364 170.809414 
L 73.720242 170.326909 
L 74.506933 170.359528 
L 79.752235 170.559323 
L 80.370575 170.506964 
L 83.071071 171.028235 
L 85.769651 171.79679 
L 86.904858 171.963169 
L 90.959328 172.343868 
L 91.959048 172.694719 
L 92.486998 172.932348 
L 93.802904 173.380215 
L 94.187796 173.619214 
L 98.655501 175.08068 
L 102.245093 176.617492 
L 103.173664 177.351677 
L 104.273476 177.946147 
L 105.821722 178.495704 
L 108.590264 178.897581 
L 110.47189 179.679359 
L 110.826845 179.936591 
L 112.791119 180.733045 
L 113.291433 181.212418 
L 115.112597 181.419315 
L 116.025846 181.262352 
L 116.799397 181.123769 
L 117.611438 180.713387 
L 123.607444 178.768616 
L 124.827407 178.631173 
L 125.332694 178.415152 
L 126.081579 178.260906 
L 129.782433 176.830857 
L 131.194416 176.641738 
L 131.971517 176.192235 
L 134.445172 175.502853 
L 137.324676 174.455251 
L 137.821748 174.419226 
L 139.335881 173.803224 
L 140.394111 173.360403 
L 143.385958 172.390263 
L 143.792983 172.163202 
L 145.105337 171.829138 
L 148.390193 171.240902 
L 149.197724 171.172628 
L 150.024487 170.8327 
L 151.546255 170.562239 
L 153.612245 170.166155 
L 158.435347 170.145857 
L 162.350042 170.576239 
L 163.868071 170.967065 
L 165.080376 171.151732 
L 165.730385 171.023689 
L 166.760361 171.08485 
L 170.092351 170.257795 
L 171.741195 170.080561 
L 172.27971 169.993549 
L 174.51771 169.231166 
L 177.570147 168.763565 
L 178.634228 168.537813 
L 185.217723 168.001616 
L 188.378082 167.773196 
L 189.681289 167.686354 
L 191.417171 167.669148 
L 192.934355 167.812603 
L 193.936714 167.77969 
L 196.573948 167.844298 
L 200.108874 167.507559 
L 201.366695 167.476912 
L 202.728814 167.461737 
L 203.634777 167.270985 
L 204.706888 166.955368 
L 214.194994 165.442911 
L 214.759624 165.195384 
L 218.158905 164.783461 
L 221.931374 164.545549 
L 223.281914 164.347215 
L 224.97142 164.134907 
L 225.881244 164.171352 
L 227.53877 164.146862 
L 232.659637 164.646157 
L 233.188415 164.690382 
L 234.368527 164.544935 
L 236.111886 164.376298 
L 236.673713 164.185978 
L 239.204422 164.036094 
L 241.380869 164.156492 
L 243.751592 164.104466 
L 244.777913 164.188943 
L 246.135169 164.094224 
L 248.234237 164.131104 
L 249.548684 164.035269 
L 252.709056 163.548452 
L 255.103087 163.087535 
L 255.97963 162.903817 
L 257.14557 162.654721 
L 258.321914 162.443418 
L 259.417714 162.292607 
L 265.508869 161.659514 
L 268.947971 160.781426 
L 269.493773 160.69553 
L 271.26204 159.951358 
L 271.786189 159.848508 
L 272.363924 159.593343 
L 273.540472 159.569292 
L 277.3097 158.456611 
L 279.528137 157.913654 
L 280.762674 157.278168 
L 281.177749 157.02489 
L 281.833603 156.887025 
L 282.815243 156.423732 
L 283.438378 156.312021 
L 284.516459 155.814268 
L 286.326294 155.122912 
L 286.663491 154.78596 
L 287.186124 154.569943 
L 287.983335 154.451037 
L 288.538287 154.254538 
L 288.940361 153.927284 
L 291.807713 152.699617 
L 292.547322 152.568791 
L 294.164059 151.53659 
L 295.046161 150.839232 
L 296.779982 149.992105 
L 298.078242 149.595882 
L 298.454354 149.37164 
L 298.836924 149.001415 
L 300.523531 148.089912 
L 303.64681 146.41557 
L 309.108224 142.767909 
L 309.490353 142.267039 
L 311.577653 141.423336 
L 313.218085 140.453988 
L 313.832104 140.054062 
L 315.021921 138.83047 
L 316.330951 138.012464 
L 317.567296 137.225957 
L 318.872147 136.058093 
L 320.530309 135.287322 
L 321.420758 134.479479 
L 323.16409 133.211976 
L 323.543776 132.77731 
L 325.292275 131.524974 
L 325.681423 131.043932 
L 326.855965 130.263795 
L 327.479257 129.695036 
L 328.755104 128.883855 
L 329.309956 128.350418 
L 329.994672 128.036246 
L 333.53519 125.140236 
L 334.163229 124.872153 
L 336.074997 123.530769 
L 337.187885 122.924879 
L 337.777781 122.529132 
L 338.38 122.295482 
L 338.803617 122.008304 
L 339.152675 121.633037 
L 339.838712 121.392623 
L 341.020675 121.257088 
L 342.064842 120.973284 
L 344.154495 120.706754 
L 344.666081 120.662339 
L 345.247166 120.433675 
L 347.245738 120.017774 
L 351.547597 118.259614 
L 352.377373 117.832034 
L 356.212766 116.41591 
L 356.70686 116.187115 
L 357.60627 115.488315 
L 358.324149 115.146527 
L 359.335183 114.738976 
L 359.757437 114.544034 
L 361.031483 114.362756 
L 362.479627 113.583091 
L 364.42678 113.106977 
L 365.408929 113.116964 
L 366.642185 113.017662 
L 368.757525 112.475309 
L 369.976882 112.069153 
L 370.631433 111.869339 
L 371.415172 111.371085 
L 372.197617 111.063174 
L 373.870302 110.687963 
L 374.828327 110.285384 
L 376.132567 110.010408 
L 376.56058 109.713477 
L 378.344679 109.073607 
L 379.422352 108.635094 
L 379.833621 108.410067 
L 380.451872 108.303699 
L 381.795575 108.272928 
L 383.153474 107.995412 
L 386.062111 108.055655 
L 388.228205 108.058112 
L 388.914639 107.928131 
L 389.47668 107.946587 
L 389.987327 107.841826 
L 392.065865 108.027327 
L 397.221404 107.662232 
L 397.857622 107.722746 
L 400.01963 107.410513 
L 404.337495 105.853873 
L 405.425945 105.541921 
L 407.344107 105.350235 
L 407.805133 105.190094 
L 411.317721 104.816884 
L 414.98752 105.574894 
L 415.468606 105.740522 
L 416.982665 105.702179 
L 417.865663 105.859524 
L 419.039618 106.089524 
L 419.336725 106.215506 
L 420.803569 106.407287 
L 421.740404 106.593075 
L 422.354002 106.578912 
L 425.159051 106.98303 
L 425.574261 107.363205 
L 428.412366 108.269765 
L 430.273713 108.554818 
L 433.133916 108.485154 
L 433.893166 108.636765 
L 439.130597 109.009258 
L 440.22712 109.417366 
L 442.484961 109.59648 
L 442.926939 109.684411 
L 443.725669 109.694016 
L 444.384771 109.825622 
L 445.040309 110.323923 
L 447.393079 110.595389 
L 453.092406 110.774858 
L 453.505109 110.910515 
L 457.919497 111.106215 
L 460.959264 110.961388 
L 462.745491 111.226495 
L 463.121988 111.402099 
L 465.292856 111.751752 
L 467.06865 112.275227 
L 468.154523 112.631391 
L 468.679128 112.891869 
L 469.342405 113.0518 
L 470.133194 113.481165 
L 473.664631 114.112675 
L 476.056264 114.820266 
L 477.092529 115.027685 
L 482.503168 115.966029 
L 483.84835 116.348875 
L 487.217531 116.992211 
L 488.630626 117.658393 
L 489.398107 117.865583 
L 491.661059 119.460714 
L 493.669379 120.493906 
L 499.897933 122.336227 
L 503.268847 123.520637 
L 503.592842 123.851097 
L 506.818778 125.178662 
L 508.81669 126.079098 
L 511.587778 126.980536 
L 512.90106 127.387428 
L 513.431782 127.504148 
L 516.597451 129.019973 
L 519.792457 129.996281 
L 521.688176 130.350265 
L 525.64462 131.951748 
L 527.153705 132.71715 
L 528.325923 133.21295 
L 530.553477 134.287221 
L 531.869359 134.753937 
L 532.445753 135.127164 
L 533.104474 135.392013 
L 534.055919 136.001555 
L 535.219748 136.481928 
L 537.186538 137.67987 
L 537.62411 137.875656 
L 538.403137 138.080658 
L 540.003072 138.787435 
L 542.4326 139.403168 
L 543.333061 139.764521 
L 544.059306 139.846779 
L 545.101939 140.11916 
L 546.753928 140.469029 
L 549.427348 140.874816 
L 551.519299 141.485229 
L 552.507519 141.915329 
L 559.153873 143.792748 
L 560.181443 144.204281 
L 562.300549 144.866235 
L 563.634369 145.108006 
L 564.157159 145.474461 
L 565.174028 145.849034 
L 567.780977 146.880845 
L 570.799906 147.648707 
L 576.441247 148.171366 
L 577.447619 148.018753 
L 578.349435 148.039138 
L 580.473363 147.95856 
L 582.620561 148.334685 
L 583.549044 148.588056 
L 584.882842 148.687187 
L 585.924429 148.727873 
L 587.003437 149.210871 
L 587.787502 149.327335 
L 588.156135 149.503892 
L 588.498488 149.827684 
L 589.714867 150.125336 
L 590.354137 150.265729 
L 590.895118 150.268556 
L 592.618522 150.716775 
L 594.284285 150.82808 
L 596.606813 151.355117 
L 597.692997 151.779587 
L 598.742737 152.121604 
L 599.47064 152.207706 
L 600.507162 152.613553 
L 601.072395 152.775105 
L 601.586341 153.123098 
L 602.056621 153.589861 
L 605.476242 155.831989 
L 607.267777 156.514476 
L 610.444454 159.602099 
L 611.135232 160.82685 
L 611.554168 161.205041 
L 611.809277 159.713896 
L 611.809277 159.713896 
" clip-path="url(#pe69bc6e9ce)" style="fill: none; stroke: #e24a33; stroke-width: 1.5; stroke-linecap: square"/>
   </g>
   <g id="patch_3">
    <path d="M 54.096563 244.078125 
L 54.096563 22.318125 
" style="fill: none; stroke: #ffffff; stroke-linejoin: miter; stroke-linecap: square"/>
   </g>
   <g id="patch_4">
    <path d="M 612.096563 244.078125 
L 612.096563 22.318125 
" style="fill: none; stroke: #ffffff; stroke-linejoin: miter; stroke-linecap: square"/>
   </g>
   <g id="patch_5">
    <path d="M 54.096563 244.078125 
L 612.096563 244.078125 
" style="fill: none; stroke: #ffffff; stroke-linejoin: miter; stroke-linecap: square"/>
   </g>
   <g id="patch_6">
    <path d="M 54.096563 22.318125 
L 612.096563 22.318125 
" style="fill: none; stroke: #ffffff; stroke-linejoin: miter; stroke-linecap: square"/>
   </g>
   <g id="text_14">
    <!-- help others -->
    <g transform="translate(299.109375 16.318125) scale(0.12 -0.12)">
     <defs>
      <path id="DejaVuSans-20" transform="scale(0.015625)"/>
      <path id="DejaVuSans-74" d="M 1172 4494 
L 1172 3500 
L 2356 3500 
L 2356 3053 
L 1172 3053 
L 1172 1153 
Q 1172 725 1289 603 
Q 1406 481 1766 481 
L 2356 481 
L 2356 0 
L 1766 0 
Q 1100 0 847 248 
Q 594 497 594 1153 
L 594 3053 
L 172 3053 
L 172 3500 
L 594 3500 
L 594 4494 
L 1172 4494 
z
" transform="scale(0.015625)"/>
     </defs>
     <use xlink:href="#DejaVuSans-68"/>
     <use xlink:href="#DejaVuSans-65" x="63.378906"/>
     <use xlink:href="#DejaVuSans-6c" x="124.902344"/>
     <use xlink:href="#DejaVuSans-70" x="152.685547"/>
     <use xlink:href="#DejaVuSans-20" x="216.162109"/>
     <use xlink:href="#DejaVuSans-6f" x="247.949219"/>
     <use xlink:href="#DejaVuSans-74" x="309.130859"/>
     <use xlink:href="#DejaVuSans-68" x="348.339844"/>
     <use xlink:href="#DejaVuSans-65" x="411.71875"/>
     <use xlink:href="#DejaVuSans-72" x="473.242188"/>
     <use xlink:href="#DejaVuSans-73" x="514.355469"/>
    </g>
   </g>
  </g>
 </g>
 <defs>
  <clipPath id="pe69bc6e9ce">
   <rect x="54.096563" y="22.318125" width="558" height="221.76"/>
  </clipPath>
 </defs>
</svg>
