<?xml version="1.0" encoding="utf-8" standalone="no"?>
<!DOCTYPE svg PUBLIC "-//W3C//DTD SVG 1.1//EN"
  "http://www.w3.org/Graphics/SVG/1.1/DTD/svg11.dtd">
<svg xmlns:xlink="http://www.w3.org/1999/xlink" width="627.248125pt" height="283.57pt" viewBox="0 0 627.248125 283.57" xmlns="http://www.w3.org/2000/svg" version="1.1">
 <metadata>
  <rdf:RDF xmlns:dc="http://purl.org/dc/elements/1.1/" xmlns:cc="http://creativecommons.org/ns#" xmlns:rdf="http://www.w3.org/1999/02/22-rdf-syntax-ns#">
   <cc:Work>
    <dc:type rdf:resource="http://purl.org/dc/dcmitype/StillImage"/>
    <dc:date>2024-03-18T11:20:31.922920</dc:date>
    <dc:format>image/svg+xml</dc:format>
    <dc:creator>
     <cc:Agent>
      <dc:title>Matplotlib v3.8.3, https://matplotlib.org/</dc:title>
     </cc:Agent>
    </dc:creator>
   </cc:Work>
  </rdf:RDF>
 </metadata>
 <defs>
  <style type="text/css">*{stroke-linejoin: round; stroke-linecap: butt}</style>
 </defs>
 <g id="figure_1">
  <g id="patch_1">
   <path d="M 0 283.57 
L 627.248125 283.57 
L 627.248125 0 
L 0 0 
z
" style="fill: #ffffff"/>
  </g>
  <g id="axes_1">
   <g id="patch_2">
    <path d="M 54.096563 244.078125 
L 612.096563 244.078125 
L 612.096563 22.318125 
L 54.096563 22.318125 
z
" style="fill: #e5e5e5"/>
   </g>
   <g id="matplotlib.axis_1">
    <g id="xtick_1">
     <g id="line2d_1">
      <path d="M 54.096563 244.078125 
L 54.096563 22.318125 
" clip-path="url(#p21b9b33618)" style="fill: none; stroke: #ffffff; stroke-width: 0.8; stroke-linecap: square"/>
     </g>
     <g id="line2d_2">
      <defs>
       <path id="m3988efa2fc" d="M 0 0 
L 0 3.5 
" style="stroke: #555555; stroke-width: 0.8"/>
      </defs>
      <g>
       <use xlink:href="#m3988efa2fc" x="54.096563" y="244.078125" style="fill: #555555; stroke: #555555; stroke-width: 0.8"/>
      </g>
     </g>
     <g id="text_1">
      <!-- 0.0 -->
      <g style="fill: #555555" transform="translate(46.145 258.676562) scale(0.1 -0.1)">
       <defs>
        <path id="DejaVuSans-30" d="M 2034 4250 
Q 1547 4250 1301 3770 
Q 1056 3291 1056 2328 
Q 1056 1369 1301 889 
Q 1547 409 2034 409 
Q 2525 409 2770 889 
Q 3016 1369 3016 2328 
Q 3016 3291 2770 3770 
Q 2525 4250 2034 4250 
z
M 2034 4750 
Q 2819 4750 3233 4129 
Q 3647 3509 3647 2328 
Q 3647 1150 3233 529 
Q 2819 -91 2034 -91 
Q 1250 -91 836 529 
Q 422 1150 422 2328 
Q 422 3509 836 4129 
Q 1250 4750 2034 4750 
z
" transform="scale(0.015625)"/>
        <path id="DejaVuSans-2e" d="M 684 794 
L 1344 794 
L 1344 0 
L 684 0 
L 684 794 
z
" transform="scale(0.015625)"/>
       </defs>
       <use xlink:href="#DejaVuSans-30"/>
       <use xlink:href="#DejaVuSans-2e" x="63.623047"/>
       <use xlink:href="#DejaVuSans-30" x="95.410156"/>
      </g>
     </g>
    </g>
    <g id="xtick_2">
     <g id="line2d_3">
      <path d="M 165.696563 244.078125 
L 165.696563 22.318125 
" clip-path="url(#p21b9b33618)" style="fill: none; stroke: #ffffff; stroke-width: 0.8; stroke-linecap: square"/>
     </g>
     <g id="line2d_4">
      <g>
       <use xlink:href="#m3988efa2fc" x="165.696563" y="244.078125" style="fill: #555555; stroke: #555555; stroke-width: 0.8"/>
      </g>
     </g>
     <g id="text_2">
      <!-- 0.2 -->
      <g style="fill: #555555" transform="translate(157.745 258.676562) scale(0.1 -0.1)">
       <defs>
        <path id="DejaVuSans-32" d="M 1228 531 
L 3431 531 
L 3431 0 
L 469 0 
L 469 531 
Q 828 903 1448 1529 
Q 2069 2156 2228 2338 
Q 2531 2678 2651 2914 
Q 2772 3150 2772 3378 
Q 2772 3750 2511 3984 
Q 2250 4219 1831 4219 
Q 1534 4219 1204 4116 
Q 875 4013 500 3803 
L 500 4441 
Q 881 4594 1212 4672 
Q 1544 4750 1819 4750 
Q 2544 4750 2975 4387 
Q 3406 4025 3406 3419 
Q 3406 3131 3298 2873 
Q 3191 2616 2906 2266 
Q 2828 2175 2409 1742 
Q 1991 1309 1228 531 
z
" transform="scale(0.015625)"/>
       </defs>
       <use xlink:href="#DejaVuSans-30"/>
       <use xlink:href="#DejaVuSans-2e" x="63.623047"/>
       <use xlink:href="#DejaVuSans-32" x="95.410156"/>
      </g>
     </g>
    </g>
    <g id="xtick_3">
     <g id="line2d_5">
      <path d="M 277.296563 244.078125 
L 277.296563 22.318125 
" clip-path="url(#p21b9b33618)" style="fill: none; stroke: #ffffff; stroke-width: 0.8; stroke-linecap: square"/>
     </g>
     <g id="line2d_6">
      <g>
       <use xlink:href="#m3988efa2fc" x="277.296563" y="244.078125" style="fill: #555555; stroke: #555555; stroke-width: 0.8"/>
      </g>
     </g>
     <g id="text_3">
      <!-- 0.4 -->
      <g style="fill: #555555" transform="translate(269.345 258.676562) scale(0.1 -0.1)">
       <defs>
        <path id="DejaVuSans-34" d="M 2419 4116 
L 825 1625 
L 2419 1625 
L 2419 4116 
z
M 2253 4666 
L 3047 4666 
L 3047 1625 
L 3713 1625 
L 3713 1100 
L 3047 1100 
L 3047 0 
L 2419 0 
L 2419 1100 
L 313 1100 
L 313 1709 
L 2253 4666 
z
" transform="scale(0.015625)"/>
       </defs>
       <use xlink:href="#DejaVuSans-30"/>
       <use xlink:href="#DejaVuSans-2e" x="63.623047"/>
       <use xlink:href="#DejaVuSans-34" x="95.410156"/>
      </g>
     </g>
    </g>
    <g id="xtick_4">
     <g id="line2d_7">
      <path d="M 388.896563 244.078125 
L 388.896563 22.318125 
" clip-path="url(#p21b9b33618)" style="fill: none; stroke: #ffffff; stroke-width: 0.8; stroke-linecap: square"/>
     </g>
     <g id="line2d_8">
      <g>
       <use xlink:href="#m3988efa2fc" x="388.896563" y="244.078125" style="fill: #555555; stroke: #555555; stroke-width: 0.8"/>
      </g>
     </g>
     <g id="text_4">
      <!-- 0.6 -->
      <g style="fill: #555555" transform="translate(380.945 258.676562) scale(0.1 -0.1)">
       <defs>
        <path id="DejaVuSans-36" d="M 2113 2584 
Q 1688 2584 1439 2293 
Q 1191 2003 1191 1497 
Q 1191 994 1439 701 
Q 1688 409 2113 409 
Q 2538 409 2786 701 
Q 3034 994 3034 1497 
Q 3034 2003 2786 2293 
Q 2538 2584 2113 2584 
z
M 3366 4563 
L 3366 3988 
Q 3128 4100 2886 4159 
Q 2644 4219 2406 4219 
Q 1781 4219 1451 3797 
Q 1122 3375 1075 2522 
Q 1259 2794 1537 2939 
Q 1816 3084 2150 3084 
Q 2853 3084 3261 2657 
Q 3669 2231 3669 1497 
Q 3669 778 3244 343 
Q 2819 -91 2113 -91 
Q 1303 -91 875 529 
Q 447 1150 447 2328 
Q 447 3434 972 4092 
Q 1497 4750 2381 4750 
Q 2619 4750 2861 4703 
Q 3103 4656 3366 4563 
z
" transform="scale(0.015625)"/>
       </defs>
       <use xlink:href="#DejaVuSans-30"/>
       <use xlink:href="#DejaVuSans-2e" x="63.623047"/>
       <use xlink:href="#DejaVuSans-36" x="95.410156"/>
      </g>
     </g>
    </g>
    <g id="xtick_5">
     <g id="line2d_9">
      <path d="M 500.496563 244.078125 
L 500.496563 22.318125 
" clip-path="url(#p21b9b33618)" style="fill: none; stroke: #ffffff; stroke-width: 0.8; stroke-linecap: square"/>
     </g>
     <g id="line2d_10">
      <g>
       <use xlink:href="#m3988efa2fc" x="500.496563" y="244.078125" style="fill: #555555; stroke: #555555; stroke-width: 0.8"/>
      </g>
     </g>
     <g id="text_5">
      <!-- 0.8 -->
      <g style="fill: #555555" transform="translate(492.545 258.676562) scale(0.1 -0.1)">
       <defs>
        <path id="DejaVuSans-38" d="M 2034 2216 
Q 1584 2216 1326 1975 
Q 1069 1734 1069 1313 
Q 1069 891 1326 650 
Q 1584 409 2034 409 
Q 2484 409 2743 651 
Q 3003 894 3003 1313 
Q 3003 1734 2745 1975 
Q 2488 2216 2034 2216 
z
M 1403 2484 
Q 997 2584 770 2862 
Q 544 3141 544 3541 
Q 544 4100 942 4425 
Q 1341 4750 2034 4750 
Q 2731 4750 3128 4425 
Q 3525 4100 3525 3541 
Q 3525 3141 3298 2862 
Q 3072 2584 2669 2484 
Q 3125 2378 3379 2068 
Q 3634 1759 3634 1313 
Q 3634 634 3220 271 
Q 2806 -91 2034 -91 
Q 1263 -91 848 271 
Q 434 634 434 1313 
Q 434 1759 690 2068 
Q 947 2378 1403 2484 
z
M 1172 3481 
Q 1172 3119 1398 2916 
Q 1625 2713 2034 2713 
Q 2441 2713 2670 2916 
Q 2900 3119 2900 3481 
Q 2900 3844 2670 4047 
Q 2441 4250 2034 4250 
Q 1625 4250 1398 4047 
Q 1172 3844 1172 3481 
z
" transform="scale(0.015625)"/>
       </defs>
       <use xlink:href="#DejaVuSans-30"/>
       <use xlink:href="#DejaVuSans-2e" x="63.623047"/>
       <use xlink:href="#DejaVuSans-38" x="95.410156"/>
      </g>
     </g>
    </g>
    <g id="xtick_6">
     <g id="line2d_11">
      <path d="M 612.096563 244.078125 
L 612.096563 22.318125 
" clip-path="url(#p21b9b33618)" style="fill: none; stroke: #ffffff; stroke-width: 0.8; stroke-linecap: square"/>
     </g>
     <g id="line2d_12">
      <g>
       <use xlink:href="#m3988efa2fc" x="612.096563" y="244.078125" style="fill: #555555; stroke: #555555; stroke-width: 0.8"/>
      </g>
     </g>
     <g id="text_6">
      <!-- 1.0 -->
      <g style="fill: #555555" transform="translate(604.145 258.676562) scale(0.1 -0.1)">
       <defs>
        <path id="DejaVuSans-31" d="M 794 531 
L 1825 531 
L 1825 4091 
L 703 3866 
L 703 4441 
L 1819 4666 
L 2450 4666 
L 2450 531 
L 3481 531 
L 3481 0 
L 794 0 
L 794 531 
z
" transform="scale(0.015625)"/>
       </defs>
       <use xlink:href="#DejaVuSans-31"/>
       <use xlink:href="#DejaVuSans-2e" x="63.623047"/>
       <use xlink:href="#DejaVuSans-30" x="95.410156"/>
      </g>
     </g>
    </g>
    <g id="text_7">
     <!-- mu-logistic-whaling-success -->
     <g style="fill: #555555" transform="translate(248.896875 273.874375) scale(0.12 -0.12)">
      <defs>
       <path id="DejaVuSans-6d" d="M 3328 2828 
Q 3544 3216 3844 3400 
Q 4144 3584 4550 3584 
Q 5097 3584 5394 3201 
Q 5691 2819 5691 2113 
L 5691 0 
L 5113 0 
L 5113 2094 
Q 5113 2597 4934 2840 
Q 4756 3084 4391 3084 
Q 3944 3084 3684 2787 
Q 3425 2491 3425 1978 
L 3425 0 
L 2847 0 
L 2847 2094 
Q 2847 2600 2669 2842 
Q 2491 3084 2119 3084 
Q 1678 3084 1418 2786 
Q 1159 2488 1159 1978 
L 1159 0 
L 581 0 
L 581 3500 
L 1159 3500 
L 1159 2956 
Q 1356 3278 1631 3431 
Q 1906 3584 2284 3584 
Q 2666 3584 2933 3390 
Q 3200 3197 3328 2828 
z
" transform="scale(0.015625)"/>
       <path id="DejaVuSans-75" d="M 544 1381 
L 544 3500 
L 1119 3500 
L 1119 1403 
Q 1119 906 1312 657 
Q 1506 409 1894 409 
Q 2359 409 2629 706 
Q 2900 1003 2900 1516 
L 2900 3500 
L 3475 3500 
L 3475 0 
L 2900 0 
L 2900 538 
Q 2691 219 2414 64 
Q 2138 -91 1772 -91 
Q 1169 -91 856 284 
Q 544 659 544 1381 
z
M 1991 3584 
L 1991 3584 
z
" transform="scale(0.015625)"/>
       <path id="DejaVuSans-2d" d="M 313 2009 
L 1997 2009 
L 1997 1497 
L 313 1497 
L 313 2009 
z
" transform="scale(0.015625)"/>
       <path id="DejaVuSans-6c" d="M 603 4863 
L 1178 4863 
L 1178 0 
L 603 0 
L 603 4863 
z
" transform="scale(0.015625)"/>
       <path id="DejaVuSans-6f" d="M 1959 3097 
Q 1497 3097 1228 2736 
Q 959 2375 959 1747 
Q 959 1119 1226 758 
Q 1494 397 1959 397 
Q 2419 397 2687 759 
Q 2956 1122 2956 1747 
Q 2956 2369 2687 2733 
Q 2419 3097 1959 3097 
z
M 1959 3584 
Q 2709 3584 3137 3096 
Q 3566 2609 3566 1747 
Q 3566 888 3137 398 
Q 2709 -91 1959 -91 
Q 1206 -91 779 398 
Q 353 888 353 1747 
Q 353 2609 779 3096 
Q 1206 3584 1959 3584 
z
" transform="scale(0.015625)"/>
       <path id="DejaVuSans-67" d="M 2906 1791 
Q 2906 2416 2648 2759 
Q 2391 3103 1925 3103 
Q 1463 3103 1205 2759 
Q 947 2416 947 1791 
Q 947 1169 1205 825 
Q 1463 481 1925 481 
Q 2391 481 2648 825 
Q 2906 1169 2906 1791 
z
M 3481 434 
Q 3481 -459 3084 -895 
Q 2688 -1331 1869 -1331 
Q 1566 -1331 1297 -1286 
Q 1028 -1241 775 -1147 
L 775 -588 
Q 1028 -725 1275 -790 
Q 1522 -856 1778 -856 
Q 2344 -856 2625 -561 
Q 2906 -266 2906 331 
L 2906 616 
Q 2728 306 2450 153 
Q 2172 0 1784 0 
Q 1141 0 747 490 
Q 353 981 353 1791 
Q 353 2603 747 3093 
Q 1141 3584 1784 3584 
Q 2172 3584 2450 3431 
Q 2728 3278 2906 2969 
L 2906 3500 
L 3481 3500 
L 3481 434 
z
" transform="scale(0.015625)"/>
       <path id="DejaVuSans-69" d="M 603 3500 
L 1178 3500 
L 1178 0 
L 603 0 
L 603 3500 
z
M 603 4863 
L 1178 4863 
L 1178 4134 
L 603 4134 
L 603 4863 
z
" transform="scale(0.015625)"/>
       <path id="DejaVuSans-73" d="M 2834 3397 
L 2834 2853 
Q 2591 2978 2328 3040 
Q 2066 3103 1784 3103 
Q 1356 3103 1142 2972 
Q 928 2841 928 2578 
Q 928 2378 1081 2264 
Q 1234 2150 1697 2047 
L 1894 2003 
Q 2506 1872 2764 1633 
Q 3022 1394 3022 966 
Q 3022 478 2636 193 
Q 2250 -91 1575 -91 
Q 1294 -91 989 -36 
Q 684 19 347 128 
L 347 722 
Q 666 556 975 473 
Q 1284 391 1588 391 
Q 1994 391 2212 530 
Q 2431 669 2431 922 
Q 2431 1156 2273 1281 
Q 2116 1406 1581 1522 
L 1381 1569 
Q 847 1681 609 1914 
Q 372 2147 372 2553 
Q 372 3047 722 3315 
Q 1072 3584 1716 3584 
Q 2034 3584 2315 3537 
Q 2597 3491 2834 3397 
z
" transform="scale(0.015625)"/>
       <path id="DejaVuSans-74" d="M 1172 4494 
L 1172 3500 
L 2356 3500 
L 2356 3053 
L 1172 3053 
L 1172 1153 
Q 1172 725 1289 603 
Q 1406 481 1766 481 
L 2356 481 
L 2356 0 
L 1766 0 
Q 1100 0 847 248 
Q 594 497 594 1153 
L 594 3053 
L 172 3053 
L 172 3500 
L 594 3500 
L 594 4494 
L 1172 4494 
z
" transform="scale(0.015625)"/>
       <path id="DejaVuSans-63" d="M 3122 3366 
L 3122 2828 
Q 2878 2963 2633 3030 
Q 2388 3097 2138 3097 
Q 1578 3097 1268 2742 
Q 959 2388 959 1747 
Q 959 1106 1268 751 
Q 1578 397 2138 397 
Q 2388 397 2633 464 
Q 2878 531 3122 666 
L 3122 134 
Q 2881 22 2623 -34 
Q 2366 -91 2075 -91 
Q 1284 -91 818 406 
Q 353 903 353 1747 
Q 353 2603 823 3093 
Q 1294 3584 2113 3584 
Q 2378 3584 2631 3529 
Q 2884 3475 3122 3366 
z
" transform="scale(0.015625)"/>
       <path id="DejaVuSans-77" d="M 269 3500 
L 844 3500 
L 1563 769 
L 2278 3500 
L 2956 3500 
L 3675 769 
L 4391 3500 
L 4966 3500 
L 4050 0 
L 3372 0 
L 2619 2869 
L 1863 0 
L 1184 0 
L 269 3500 
z
" transform="scale(0.015625)"/>
       <path id="DejaVuSans-68" d="M 3513 2113 
L 3513 0 
L 2938 0 
L 2938 2094 
Q 2938 2591 2744 2837 
Q 2550 3084 2163 3084 
Q 1697 3084 1428 2787 
Q 1159 2491 1159 1978 
L 1159 0 
L 581 0 
L 581 4863 
L 1159 4863 
L 1159 2956 
Q 1366 3272 1645 3428 
Q 1925 3584 2291 3584 
Q 2894 3584 3203 3211 
Q 3513 2838 3513 2113 
z
" transform="scale(0.015625)"/>
       <path id="DejaVuSans-61" d="M 2194 1759 
Q 1497 1759 1228 1600 
Q 959 1441 959 1056 
Q 959 750 1161 570 
Q 1363 391 1709 391 
Q 2188 391 2477 730 
Q 2766 1069 2766 1631 
L 2766 1759 
L 2194 1759 
z
M 3341 1997 
L 3341 0 
L 2766 0 
L 2766 531 
Q 2569 213 2275 61 
Q 1981 -91 1556 -91 
Q 1019 -91 701 211 
Q 384 513 384 1019 
Q 384 1609 779 1909 
Q 1175 2209 1959 2209 
L 2766 2209 
L 2766 2266 
Q 2766 2663 2505 2880 
Q 2244 3097 1772 3097 
Q 1472 3097 1187 3025 
Q 903 2953 641 2809 
L 641 3341 
Q 956 3463 1253 3523 
Q 1550 3584 1831 3584 
Q 2591 3584 2966 3190 
Q 3341 2797 3341 1997 
z
" transform="scale(0.015625)"/>
       <path id="DejaVuSans-6e" d="M 3513 2113 
L 3513 0 
L 2938 0 
L 2938 2094 
Q 2938 2591 2744 2837 
Q 2550 3084 2163 3084 
Q 1697 3084 1428 2787 
Q 1159 2491 1159 1978 
L 1159 0 
L 581 0 
L 581 3500 
L 1159 3500 
L 1159 2956 
Q 1366 3272 1645 3428 
Q 1925 3584 2291 3584 
Q 2894 3584 3203 3211 
Q 3513 2838 3513 2113 
z
" transform="scale(0.015625)"/>
       <path id="DejaVuSans-65" d="M 3597 1894 
L 3597 1613 
L 953 1613 
Q 991 1019 1311 708 
Q 1631 397 2203 397 
Q 2534 397 2845 478 
Q 3156 559 3463 722 
L 3463 178 
Q 3153 47 2828 -22 
Q 2503 -91 2169 -91 
Q 1331 -91 842 396 
Q 353 884 353 1716 
Q 353 2575 817 3079 
Q 1281 3584 2069 3584 
Q 2775 3584 3186 3129 
Q 3597 2675 3597 1894 
z
M 3022 2063 
Q 3016 2534 2758 2815 
Q 2500 3097 2075 3097 
Q 1594 3097 1305 2825 
Q 1016 2553 972 2059 
L 3022 2063 
z
" transform="scale(0.015625)"/>
      </defs>
      <use xlink:href="#DejaVuSans-6d"/>
      <use xlink:href="#DejaVuSans-75" x="97.412109"/>
      <use xlink:href="#DejaVuSans-2d" x="160.791016"/>
      <use xlink:href="#DejaVuSans-6c" x="196.875"/>
      <use xlink:href="#DejaVuSans-6f" x="224.658203"/>
      <use xlink:href="#DejaVuSans-67" x="285.839844"/>
      <use xlink:href="#DejaVuSans-69" x="349.316406"/>
      <use xlink:href="#DejaVuSans-73" x="377.099609"/>
      <use xlink:href="#DejaVuSans-74" x="429.199219"/>
      <use xlink:href="#DejaVuSans-69" x="468.408203"/>
      <use xlink:href="#DejaVuSans-63" x="496.191406"/>
      <use xlink:href="#DejaVuSans-2d" x="551.171875"/>
      <use xlink:href="#DejaVuSans-77" x="587.255859"/>
      <use xlink:href="#DejaVuSans-68" x="669.042969"/>
      <use xlink:href="#DejaVuSans-61" x="732.421875"/>
      <use xlink:href="#DejaVuSans-6c" x="793.701172"/>
      <use xlink:href="#DejaVuSans-69" x="821.484375"/>
      <use xlink:href="#DejaVuSans-6e" x="849.267578"/>
      <use xlink:href="#DejaVuSans-67" x="912.646484"/>
      <use xlink:href="#DejaVuSans-2d" x="976.123047"/>
      <use xlink:href="#DejaVuSans-73" x="1012.207031"/>
      <use xlink:href="#DejaVuSans-75" x="1064.306641"/>
      <use xlink:href="#DejaVuSans-63" x="1127.685547"/>
      <use xlink:href="#DejaVuSans-63" x="1182.666016"/>
      <use xlink:href="#DejaVuSans-65" x="1237.646484"/>
      <use xlink:href="#DejaVuSans-73" x="1299.169922"/>
      <use xlink:href="#DejaVuSans-73" x="1351.269531"/>
     </g>
    </g>
   </g>
   <g id="matplotlib.axis_2">
    <g id="ytick_1">
     <g id="line2d_13">
      <path d="M 54.096563 232.990125 
L 612.096563 232.990125 
" clip-path="url(#p21b9b33618)" style="fill: none; stroke: #ffffff; stroke-width: 0.8; stroke-linecap: square"/>
     </g>
     <g id="line2d_14">
      <defs>
       <path id="m1a4acdeb0d" d="M 0 0 
L -3.5 0 
" style="stroke: #555555; stroke-width: 0.8"/>
      </defs>
      <g>
       <use xlink:href="#m1a4acdeb0d" x="54.096563" y="232.990125" style="fill: #555555; stroke: #555555; stroke-width: 0.8"/>
      </g>
     </g>
     <g id="text_8">
      <!-- −0.4 -->
      <g style="fill: #555555" transform="translate(22.81375 236.789344) scale(0.1 -0.1)">
       <defs>
        <path id="DejaVuSans-2212" d="M 678 2272 
L 4684 2272 
L 4684 1741 
L 678 1741 
L 678 2272 
z
" transform="scale(0.015625)"/>
       </defs>
       <use xlink:href="#DejaVuSans-2212"/>
       <use xlink:href="#DejaVuSans-30" x="83.789062"/>
       <use xlink:href="#DejaVuSans-2e" x="147.412109"/>
       <use xlink:href="#DejaVuSans-34" x="179.199219"/>
      </g>
     </g>
    </g>
    <g id="ytick_2">
     <g id="line2d_15">
      <path d="M 54.096563 188.638125 
L 612.096563 188.638125 
" clip-path="url(#p21b9b33618)" style="fill: none; stroke: #ffffff; stroke-width: 0.8; stroke-linecap: square"/>
     </g>
     <g id="line2d_16">
      <g>
       <use xlink:href="#m1a4acdeb0d" x="54.096563" y="188.638125" style="fill: #555555; stroke: #555555; stroke-width: 0.8"/>
      </g>
     </g>
     <g id="text_9">
      <!-- −0.2 -->
      <g style="fill: #555555" transform="translate(22.81375 192.437344) scale(0.1 -0.1)">
       <use xlink:href="#DejaVuSans-2212"/>
       <use xlink:href="#DejaVuSans-30" x="83.789062"/>
       <use xlink:href="#DejaVuSans-2e" x="147.412109"/>
       <use xlink:href="#DejaVuSans-32" x="179.199219"/>
      </g>
     </g>
    </g>
    <g id="ytick_3">
     <g id="line2d_17">
      <path d="M 54.096563 144.286125 
L 612.096563 144.286125 
" clip-path="url(#p21b9b33618)" style="fill: none; stroke: #ffffff; stroke-width: 0.8; stroke-linecap: square"/>
     </g>
     <g id="line2d_18">
      <g>
       <use xlink:href="#m1a4acdeb0d" x="54.096563" y="144.286125" style="fill: #555555; stroke: #555555; stroke-width: 0.8"/>
      </g>
     </g>
     <g id="text_10">
      <!-- 0.0 -->
      <g style="fill: #555555" transform="translate(31.193438 148.085344) scale(0.1 -0.1)">
       <use xlink:href="#DejaVuSans-30"/>
       <use xlink:href="#DejaVuSans-2e" x="63.623047"/>
       <use xlink:href="#DejaVuSans-30" x="95.410156"/>
      </g>
     </g>
    </g>
    <g id="ytick_4">
     <g id="line2d_19">
      <path d="M 54.096563 99.934125 
L 612.096563 99.934125 
" clip-path="url(#p21b9b33618)" style="fill: none; stroke: #ffffff; stroke-width: 0.8; stroke-linecap: square"/>
     </g>
     <g id="line2d_20">
      <g>
       <use xlink:href="#m1a4acdeb0d" x="54.096563" y="99.934125" style="fill: #555555; stroke: #555555; stroke-width: 0.8"/>
      </g>
     </g>
     <g id="text_11">
      <!-- 0.2 -->
      <g style="fill: #555555" transform="translate(31.193438 103.733344) scale(0.1 -0.1)">
       <use xlink:href="#DejaVuSans-30"/>
       <use xlink:href="#DejaVuSans-2e" x="63.623047"/>
       <use xlink:href="#DejaVuSans-32" x="95.410156"/>
      </g>
     </g>
    </g>
    <g id="ytick_5">
     <g id="line2d_21">
      <path d="M 54.096563 55.582125 
L 612.096563 55.582125 
" clip-path="url(#p21b9b33618)" style="fill: none; stroke: #ffffff; stroke-width: 0.8; stroke-linecap: square"/>
     </g>
     <g id="line2d_22">
      <g>
       <use xlink:href="#m1a4acdeb0d" x="54.096563" y="55.582125" style="fill: #555555; stroke: #555555; stroke-width: 0.8"/>
      </g>
     </g>
     <g id="text_12">
      <!-- 0.4 -->
      <g style="fill: #555555" transform="translate(31.193438 59.381344) scale(0.1 -0.1)">
       <use xlink:href="#DejaVuSans-30"/>
       <use xlink:href="#DejaVuSans-2e" x="63.623047"/>
       <use xlink:href="#DejaVuSans-34" x="95.410156"/>
      </g>
     </g>
    </g>
    <g id="text_13">
     <!-- score -->
     <g style="fill: #555555" transform="translate(16.318125 149.3175) rotate(-90) scale(0.12 -0.12)">
      <defs>
       <path id="DejaVuSans-72" d="M 2631 2963 
Q 2534 3019 2420 3045 
Q 2306 3072 2169 3072 
Q 1681 3072 1420 2755 
Q 1159 2438 1159 1844 
L 1159 0 
L 581 0 
L 581 3500 
L 1159 3500 
L 1159 2956 
Q 1341 3275 1631 3429 
Q 1922 3584 2338 3584 
Q 2397 3584 2469 3576 
Q 2541 3569 2628 3553 
L 2631 2963 
z
" transform="scale(0.015625)"/>
      </defs>
      <use xlink:href="#DejaVuSans-73"/>
      <use xlink:href="#DejaVuSans-63" x="52.099609"/>
      <use xlink:href="#DejaVuSans-6f" x="107.080078"/>
      <use xlink:href="#DejaVuSans-72" x="168.261719"/>
      <use xlink:href="#DejaVuSans-65" x="207.125"/>
     </g>
    </g>
   </g>
   <g id="PolyCollection_1">
    <path d="M 54.73824 121.088875 
L 54.73824 133.446306 
L 55.870162 133.943449 
L 56.908678 133.868786 
L 57.722333 134.478338 
L 58.592877 134.89318 
L 59.310506 135.441373 
L 60.027029 136.272192 
L 60.901924 137.384812 
L 61.771143 138.193034 
L 62.336345 138.518136 
L 63.028087 138.677116 
L 64.099918 138.721269 
L 64.886396 138.862669 
L 65.562992 138.972389 
L 66.326173 139.070838 
L 67.461662 139.373912 
L 68.293786 139.49869 
L 68.995768 139.576578 
L 70.235251 139.801997 
L 71.116275 139.999335 
L 71.653535 140.150117 
L 72.537607 140.178379 
L 73.509771 139.86664 
L 74.205723 139.655058 
L 75.009027 139.480588 
L 75.740212 139.356791 
L 76.753649 139.289281 
L 77.850659 139.211125 
L 78.432083 139.132119 
L 78.943772 138.977427 
L 79.745211 138.924219 
L 80.584941 139.148248 
L 81.462164 139.29938 
L 82.501176 139.473233 
L 83.391221 139.636875 
L 84.169959 139.471803 
L 85.169736 139.390774 
L 85.957753 139.330579 
L 86.857261 139.113088 
L 87.669711 139.114011 
L 88.38499 139.1112 
L 89.176428 138.90669 
L 89.97886 139.08775 
L 91.15269 138.944581 
L 91.99894 138.856718 
L 92.856916 138.759048 
L 93.682337 138.753975 
L 94.275831 138.653361 
L 95.190211 138.550156 
L 95.910699 138.576274 
L 96.63523 138.348967 
L 97.470937 138.086373 
L 98.137657 137.890837 
L 99.227168 137.677 
L 100.377277 137.479102 
L 101.141945 137.301512 
L 101.798808 137.124021 
L 102.652447 136.973539 
L 103.593739 136.826052 
L 104.44015 136.752844 
L 105.095602 136.67696 
L 105.815149 136.448567 
L 106.820304 136.373625 
L 107.657325 136.197666 
L 108.371917 136.039414 
L 109.110211 135.985556 
L 109.849544 135.888852 
L 110.885588 135.754274 
L 112.085923 135.685914 
L 112.852472 135.565402 
L 113.343821 135.488262 
L 114.413477 135.405641 
L 115.386643 135.329176 
L 116.173442 135.178993 
L 116.987347 135.153875 
L 117.487921 135.104384 
L 118.452709 135.037628 
L 119.368801 134.948061 
L 119.976198 134.849017 
L 120.806077 134.740644 
L 121.648055 134.631826 
L 122.622473 134.525107 
L 123.472076 134.484129 
L 124.112685 134.426889 
L 124.928522 134.397869 
L 125.914359 134.368847 
L 126.922697 134.343524 
L 127.611237 134.251731 
L 128.202144 134.182563 
L 129.023006 134.110893 
L 130.162222 134.043656 
L 131.061607 133.977464 
L 131.852881 133.894256 
L 132.89752 133.669955 
L 133.775964 133.626322 
L 134.416137 133.566626 
L 135.127255 133.44795 
L 136.011595 133.295092 
L 136.796424 133.277757 
L 137.694947 133.342352 
L 138.583164 133.36994 
L 139.598582 133.411684 
L 140.370434 133.527117 
L 141.027909 133.62677 
L 142.09899 133.740882 
L 142.812736 133.908133 
L 143.599914 134.069988 
L 144.432873 134.154978 
L 145.295321 134.243591 
L 146.448053 134.363147 
L 147.30099 134.539291 
L 148.131929 134.535734 
L 148.991307 134.701827 
L 149.655081 134.808486 
L 150.291093 134.909403 
L 151.209674 134.94756 
L 152.051934 135.044809 
L 152.830514 135.082405 
L 153.701995 135.05833 
L 154.559001 135.103273 
L 155.620877 135.15636 
L 156.601078 135.252203 
L 157.320726 135.290415 
L 158.071634 135.299674 
L 158.795719 135.360384 
L 159.361103 135.398414 
L 160.33041 135.425341 
L 161.384666 135.592807 
L 162.11776 135.735654 
L 162.996341 135.855789 
L 163.781464 136.088722 
L 164.654203 136.254474 
L 165.521803 136.438315 
L 166.341681 136.549534 
L 167.138766 136.670536 
L 167.674552 136.761025 
L 168.710334 136.872177 
L 169.761044 137.044227 
L 170.454234 137.15323 
L 171.336846 137.220418 
L 172.271788 137.357417 
L 172.907295 137.476464 
L 173.629591 137.619512 
L 174.556242 137.72234 
L 175.450188 137.855717 
L 176.161282 137.983068 
L 177.164379 138.133529 
L 178.133154 138.260867 
L 178.936931 138.410608 
L 179.77478 138.565101 
L 180.334345 138.800562 
L 181.177499 139.134312 
L 182.292341 139.289173 
L 183.293457 139.591581 
L 183.862497 139.8278 
L 184.608529 140.142587 
L 185.49292 140.389962 
L 186.109279 140.657555 
L 187.068463 140.998673 
L 188.28559 141.363342 
L 188.874033 141.852606 
L 189.449773 142.212128 
L 190.44742 142.499778 
L 191.393732 142.704995 
L 192.341631 143.020208 
L 192.952365 143.147312 
L 193.680657 143.231805 
L 194.660727 143.43413 
L 195.677212 143.653169 
L 196.707784 143.838371 
L 197.190687 143.987018 
L 198.082641 144.224597 
L 198.899052 144.392926 
L 199.734485 144.390599 
L 200.788727 144.409513 
L 201.437107 144.30402 
L 202.0955 144.368669 
L 202.813366 144.378741 
L 203.830451 144.310734 
L 204.809365 144.273997 
L 205.694036 144.177999 
L 206.305492 144.229353 
L 207.269291 144.278696 
L 208.242044 144.100513 
L 208.846538 144.12902 
L 209.900446 144.105181 
L 210.763054 144.060287 
L 211.623692 144.004181 
L 212.4485 143.926475 
L 212.966577 143.806449 
L 214.029187 143.98695 
L 214.860917 144.522863 
L 215.335119 144.7754 
L 216.130852 145.005295 
L 217.335154 145.22901 
L 218.153568 145.470828 
L 218.833074 145.511538 
L 219.82467 145.495061 
L 220.588263 145.592987 
L 221.313949 145.743217 
L 221.977818 145.942407 
L 222.971569 146.026541 
L 224.053433 146.189103 
L 224.999904 146.204858 
L 225.988881 146.244132 
L 226.603298 146.320434 
L 227.230284 146.395671 
L 228.183695 146.600369 
L 229.142603 146.685371 
L 230.176721 146.829412 
L 230.935007 146.868822 
L 231.71948 147.072208 
L 232.390727 147.144507 
L 232.926852 147.114969 
L 233.75756 147.161889 
L 234.566209 147.187291 
L 235.651036 147.224513 
L 236.788022 147.229096 
L 237.562798 147.046057 
L 238.1573 147.014801 
L 239.027994 147.009222 
L 239.833769 146.870475 
L 240.581225 146.819629 
L 241.459377 146.723653 
L 242.468194 146.61038 
L 243.286883 146.567328 
L 244.144117 146.481554 
L 245.130702 146.332021 
L 245.970505 146.23042 
L 246.820292 146.178138 
L 247.481458 146.159046 
L 248.351196 146.134777 
L 249.394632 146.102764 
L 250.22973 146.059128 
L 250.803097 146.030238 
L 251.514524 146.068761 
L 252.394736 146.097415 
L 253.354586 146.107456 
L 254.37827 146.106447 
L 255.305779 146.017125 
L 256.084923 145.958122 
L 256.593937 145.869116 
L 257.314264 145.874766 
L 258.39815 145.905668 
L 259.30853 145.934936 
L 260.106541 145.84674 
L 261.07898 145.763587 
L 262.05623 145.716104 
L 262.833298 145.613641 
L 263.679178 145.501887 
L 264.550821 145.460184 
L 265.398425 145.478507 
L 265.987787 145.511378 
L 266.560255 145.49137 
L 267.344418 145.480232 
L 268.109522 145.340305 
L 269.124883 145.297154 
L 270.063818 145.334271 
L 270.734698 145.260241 
L 271.667177 145.302103 
L 272.589105 145.157434 
L 273.376267 145.145144 
L 274.394595 145.34014 
L 275.338318 145.355962 
L 275.839552 145.383855 
L 276.728434 145.389786 
L 277.721871 145.38344 
L 278.374732 145.308486 
L 279.256168 145.296248 
L 280.199084 145.407963 
L 280.992173 145.462002 
L 281.640755 145.647704 
L 282.325725 145.711877 
L 283.301313 145.772304 
L 284.109598 145.857887 
L 284.844805 146.023056 
L 285.82544 146.170798 
L 286.777265 146.243116 
L 287.692539 146.32988 
L 288.483322 146.560706 
L 289.3183 146.712446 
L 290.094474 146.891486 
L 290.930834 147.158346 
L 291.755154 147.340487 
L 292.365677 147.584767 
L 293.446198 147.783264 
L 294.554764 147.949114 
L 295.233176 148.07457 
L 296.016046 148.22146 
L 296.817559 148.328309 
L 297.435204 148.43656 
L 298.390207 148.576013 
L 299.606055 148.648361 
L 300.280999 148.723334 
L 301.056764 148.842341 
L 301.951014 148.91217 
L 302.655648 148.938716 
L 303.292861 149.002112 
L 304.239163 148.98232 
L 305.491743 148.986964 
L 306.080328 148.987483 
L 306.522345 149.025167 
L 307.712559 149.152255 
L 308.893701 149.436813 
L 309.608172 149.661191 
L 310.482664 149.803973 
L 311.328566 149.772211 
L 311.7966 149.655142 
L 312.578781 149.559811 
L 313.58974 149.484425 
L 314.470675 149.394585 
L 315.276379 149.322079 
L 315.857177 149.26151 
L 316.76854 149.21567 
L 317.819357 149.173272 
L 318.704388 149.157669 
L 319.68054 149.244033 
L 320.549636 149.368098 
L 321.217239 149.411206 
L 321.762889 149.35203 
L 322.599061 149.347986 
L 323.6434 149.234649 
L 324.454507 149.162956 
L 325.086716 149.055729 
L 325.825318 148.976892 
L 326.693526 148.864456 
L 327.693728 148.817833 
L 328.482231 148.70663 
L 329.239065 148.60111 
L 330.349587 148.551434 
L 331.07321 148.425589 
L 331.949475 148.389922 
L 332.791971 148.277471 
L 333.547092 148.329738 
L 334.360121 148.331115 
L 335.093902 148.297887 
L 336.028279 148.250279 
L 336.755288 148.205516 
L 337.565125 148.126571 
L 338.694085 148.063024 
L 339.592549 147.998386 
L 340.249963 147.911763 
L 340.98752 147.829938 
L 341.680778 147.729699 
L 342.551656 147.636737 
L 343.672747 147.551616 
L 344.770969 147.555563 
L 345.451861 147.566382 
L 346.090233 147.556684 
L 346.936462 147.507289 
L 347.79192 147.442635 
L 348.534697 147.410275 
L 349.573604 147.418109 
L 350.504737 147.382833 
L 351.27445 147.369566 
L 352.256901 147.394374 
L 352.84885 147.421104 
L 353.407711 147.501793 
L 354.425571 147.481545 
L 355.56437 147.454737 
L 356.347861 147.443294 
L 356.925613 147.468115 
L 357.676629 147.425568 
L 358.533011 147.419778 
L 359.390683 147.4383 
L 360.198988 147.495057 
L 361.11794 147.534879 
L 362.022856 147.556583 
L 362.67224 147.670411 
L 363.64696 147.816238 
L 364.527815 147.899537 
L 365.197917 147.880307 
L 366.340972 147.811347 
L 367.39337 147.805821 
L 368.100575 147.860091 
L 368.723276 147.905112 
L 369.609891 147.954546 
L 370.4982 148.184934 
L 371.328112 148.031204 
L 372.284817 148.045498 
L 373.229755 148.096795 
L 373.810161 148.082543 
L 374.457865 148.14451 
L 375.579661 148.190726 
L 376.307897 148.235411 
L 377.06621 148.241915 
L 377.955937 148.279018 
L 378.844568 148.273142 
L 379.863592 148.227822 
L 380.453197 148.234184 
L 381.136137 148.325951 
L 382.030812 148.318919 
L 382.976345 148.354325 
L 384.118358 148.360029 
L 384.975861 148.322927 
L 385.535578 148.251338 
L 386.320324 148.246442 
L 387.432263 148.246144 
L 388.054071 148.289843 
L 388.745031 148.246118 
L 389.881873 148.247353 
L 390.70671 148.207623 
L 391.239917 148.210188 
L 392.04931 148.166524 
L 392.885781 148.067434 
L 393.794252 148.061942 
L 394.649206 148.102702 
L 395.419688 148.12606 
L 396.49253 148.131712 
L 397.32685 148.153485 
L 398.239854 148.191625 
L 399.023401 148.249144 
L 399.607924 148.295223 
L 400.483918 148.274873 
L 401.489307 148.358691 
L 402.389008 148.469456 
L 403.253816 148.43608 
L 404.006449 148.353477 
L 404.668457 148.208785 
L 405.372435 148.096537 
L 406.191391 147.900887 
L 407.252307 147.737202 
L 407.985154 147.629542 
L 408.653999 147.46518 
L 409.643223 147.425358 
L 410.787745 147.314186 
L 411.502842 147.194197 
L 412.069115 147.040167 
L 413.185145 146.872416 
L 414.132271 146.606949 
L 414.682204 146.424598 
L 415.479184 146.35675 
L 416.463366 146.226254 
L 417.438997 146.083823 
L 418.492581 146.039838 
L 419.188752 145.798171 
L 419.683556 145.666223 
L 420.617057 145.568199 
L 421.564082 145.422333 
L 422.362341 145.298354 
L 423.047946 145.117071 
L 424.0301 145.038459 
L 425.246121 144.907185 
L 425.936366 144.773755 
L 426.443155 144.621392 
L 427.308699 144.57607 
L 428.282539 144.501642 
L 428.914189 144.381293 
L 429.940659 144.273307 
L 430.99513 144.233708 
L 431.675018 144.204951 
L 432.500187 144.23865 
L 433.465595 144.179225 
L 434.157263 144.218205 
L 435.030033 144.240732 
L 435.799958 144.215716 
L 436.389235 144.500847 
L 437.172233 144.497809 
L 437.926555 144.520819 
L 438.780868 144.523779 
L 439.574661 144.568862 
L 440.725423 144.622806 
L 441.584201 144.659872 
L 442.22043 144.674896 
L 443.414495 144.680812 
L 444.238681 144.623684 
L 444.975898 144.622837 
L 446.047454 144.628711 
L 446.878158 144.624453 
L 447.754326 144.607569 
L 448.431225 144.597718 
L 449.047224 144.550422 
L 450.039296 144.551569 
L 450.896903 144.554251 
L 451.449857 144.511723 
L 452.258113 144.503776 
L 453.256268 144.505122 
L 453.94688 144.4991 
L 454.737199 144.500414 
L 455.581001 144.478086 
L 456.524834 144.444243 
L 457.735583 144.444172 
L 458.551275 144.410775 
L 459.406557 144.402617 
L 460.182667 144.382452 
L 460.86013 144.353556 
L 461.630181 144.354756 
L 462.56191 144.342076 
L 463.538986 144.309512 
L 464.044767 144.281359 
L 465.060408 144.205749 
L 466.263339 144.195966 
L 467.084942 144.171467 
L 467.767176 144.160136 
L 468.59318 144.138562 
L 469.343731 144.147871 
L 470.009134 144.128141 
L 470.945054 144.137216 
L 471.810922 144.141731 
L 472.674028 144.070929 
L 473.694864 144.081688 
L 474.387707 144.153441 
L 475.137171 144.174547 
L 476.142161 144.193476 
L 476.93938 144.20169 
L 477.795297 144.212047 
L 478.605848 144.161612 
L 479.340096 144.184818 
L 480.310871 144.21255 
L 481.298787 144.154262 
L 481.866692 144.191398 
L 482.483687 144.223319 
L 483.536421 144.274224 
L 484.402025 144.305213 
L 485.15073 144.474198 
L 486.21567 144.546279 
L 487.139831 144.712509 
L 487.959191 144.851047 
L 488.780642 144.952521 
L 489.568228 145.072069 
L 490.395747 145.161905 
L 491.08033 145.23247 
L 491.762601 145.266297 
L 492.783412 145.323566 
L 493.730065 145.352611 
L 494.220523 145.427689 
L 495.048738 145.46874 
L 495.905239 145.515024 
L 496.818448 145.612647 
L 497.687306 145.665047 
L 498.361695 145.765583 
L 499.300348 145.847176 
L 500.240037 145.919389 
L 500.929461 145.989087 
L 501.801313 146.017774 
L 502.694832 145.987057 
L 503.281482 145.969674 
L 504.180687 145.986701 
L 505.378114 146.037454 
L 506.231584 146.073856 
L 506.674199 146.093001 
L 507.576805 146.059312 
L 508.439283 146.056546 
L 509.226674 146.161483 
L 510.024027 146.185092 
L 510.718543 146.180926 
L 511.585976 146.242748 
L 512.61343 146.293333 
L 513.694885 146.378338 
L 514.478784 146.407119 
L 515.405567 146.456196 
L 516.361119 146.516027 
L 516.882395 146.591631 
L 517.709151 146.674539 
L 518.794176 146.765219 
L 519.407224 146.815459 
L 519.99972 146.871573 
L 520.813129 146.856311 
L 521.662999 147.017002 
L 522.566686 147.107278 
L 523.515871 147.249761 
L 524.520754 147.341342 
L 525.564753 147.405655 
L 526.32006 147.6006 
L 527.073046 147.849964 
L 527.804127 147.99515 
L 528.389878 148.173089 
L 529.374209 148.298893 
L 530.557049 148.452 
L 531.471248 148.567622 
L 532.209458 148.661123 
L 533.123555 148.863858 
L 533.888271 149.004927 
L 534.697535 149.060278 
L 535.541016 149.146119 
L 536.04066 149.198162 
L 536.898299 149.230983 
L 538.091008 149.330292 
L 538.758604 149.365031 
L 539.582793 149.405407 
L 540.5279 149.452868 
L 541.345306 149.560942 
L 542.26933 149.59999 
L 542.964179 149.674272 
L 543.717363 149.677863 
L 544.668788 149.70935 
L 545.674892 149.77001 
L 546.352581 149.818581 
L 547.049399 149.847635 
L 547.789743 149.818499 
L 548.721617 149.862604 
L 549.737285 149.795433 
L 550.288776 149.768986 
L 550.936496 149.626671 
L 551.870874 149.503819 
L 552.944342 149.302696 
L 554.018449 149.204926 
L 554.69903 149.091597 
L 555.382427 149.000258 
L 556.116103 148.873261 
L 556.749357 148.800668 
L 557.684311 148.639031 
L 558.742726 148.511967 
L 559.704243 148.440681 
L 560.586993 148.368747 
L 561.251488 148.274896 
L 561.909201 148.250831 
L 562.953236 148.247904 
L 563.70505 148.240598 
L 564.615474 148.243818 
L 565.528593 148.230449 
L 566.208338 148.217854 
L 566.980389 148.220043 
L 567.763 148.201356 
L 568.622409 148.218018 
L 569.603373 148.218557 
L 570.530376 148.245065 
L 571.382269 148.289374 
L 572.201882 148.337758 
L 572.964885 148.348298 
L 573.953064 148.35587 
L 574.627327 148.331368 
L 575.496565 148.411598 
L 576.570173 148.483736 
L 577.303893 148.479286 
L 578.132928 148.554763 
L 578.854193 148.564811 
L 579.823516 148.573821 
L 580.837282 148.547071 
L 581.454186 148.515821 
L 582.412417 148.512053 
L 583.3636 148.497481 
L 583.903278 148.355809 
L 584.481105 148.602265 
L 585.484477 148.589688 
L 586.593381 148.576434 
L 587.330054 148.618779 
L 588.021358 148.685287 
L 588.948199 148.695477 
L 589.714984 148.583887 
L 590.319941 148.590712 
L 591.424978 148.712359 
L 592.405811 148.805102 
L 592.966933 148.980945 
L 593.773335 148.996197 
L 594.632504 149.020544 
L 595.340929 149.014535 
L 596.224117 148.993352 
L 597.294423 148.970121 
L 598.253193 148.937412 
L 599.223872 148.902036 
L 599.886828 148.935563 
L 600.544598 148.93337 
L 601.515617 148.967678 
L 602.551789 149.095865 
L 603.534707 149.105337 
L 604.247821 149.153835 
L 604.839653 149.130283 
L 605.665391 149.120813 
L 606.406178 149.106693 
L 607.187738 149.034152 
L 608.065671 148.999587 
L 608.906257 148.970209 
L 609.76512 148.919373 
L 610.481022 148.844254 
L 611.431044 148.811793 
L 612.301297 148.834266 
L 613.30566 148.866501 
L 614.327513 148.92145 
L 614.896772 148.998547 
L 615.552566 149.09857 
L 616.479437 149.088412 
L 617.245128 149.129901 
L 617.873849 149.22498 
L 618.924431 149.32439 
L 620.122398 149.427188 
L 620.724353 149.523278 
L 621.544923 149.694618 
L 622.482271 149.864117 
L 623.034404 149.985595 
L 623.883055 150.277069 
L 624.722809 150.196383 
L 625.436379 150.303723 
L 626.49683 150.373307 
L 627.406169 150.400528 
L 628.272894 150.395058 
L 629.083757 150.397797 
L 629.747408 150.40688 
L 630.925173 150.363898 
L 631.863934 150.189999 
L 632.687727 150.119894 
L 633.535278 150.017902 
L 634.225368 149.909549 
L 635.145257 149.904648 
L 636.051148 149.879065 
L 636.56944 149.799359 
L 637.193056 149.759544 
L 638.183996 149.740929 
L 639.277339 149.776111 
L 640.020598 149.80162 
L 640.67031 149.905564 
L 641.816184 149.991867 
L 642.516658 150.048433 
L 643.348069 150.075418 
L 644.180499 150.119249 
L 644.922653 150.100049 
L 645.793384 150.095154 
L 646.40331 150.173189 
L 647.261256 150.190818 
L 648.069785 150.215357 
L 648.980666 150.276871 
L 650.051184 150.457099 
L 650.833052 150.543576 
L 651.802792 150.612887 
L 652.935548 150.515502 
L 653.595242 150.451846 
L 654.07144 150.335543 
L 655.045996 150.148292 
L 655.92103 150.034201 
L 656.80097 149.928312 
L 657.701988 149.87334 
L 658.154262 149.884471 
L 658.928125 149.790994 
L 660.083196 149.742983 
L 661.076038 149.779202 
L 661.854643 149.82608 
L 662.685871 149.872463 
L 663.598336 149.864874 
L 664.453524 149.950598 
L 665.242554 149.963475 
L 666.258739 149.958821 
L 666.964554 149.885797 
L 667.613723 149.895701 
L 668.618239 149.905148 
L 669.418824 149.911629 
L 669.950571 149.93104 
L 670.944445 149.964714 
L 672.017535 150.010384 
L 672.793499 150.056889 
L 673.517344 150.095804 
L 674.167684 150.120624 
L 675.053927 150.139094 
L 675.899438 150.144797 
L 676.711637 150.18887 
L 677.686235 150.311307 
L 678.373638 150.348828 
L 679.262955 150.381927 
L 680.446544 150.427438 
L 681.074673 150.430145 
L 681.728869 150.490092 
L 682.523481 150.529889 
L 683.333939 150.471895 
L 684.497328 150.44809 
L 685.269945 150.360438 
L 686.081161 150.36786 
L 686.898932 150.387488 
L 687.637019 150.373269 
L 688.584866 150.353823 
L 689.173302 150.350402 
L 690.218827 150.338098 
L 691.134679 150.274498 
L 691.839762 150.131389 
L 692.901203 150.029107 
L 693.656845 149.929518 
L 694.351743 149.877807 
L 695.173268 149.807979 
L 696.069618 149.673886 
L 696.957641 149.704823 
L 697.597947 149.71206 
L 698.359463 149.792485 
L 699.334304 149.771561 
L 700.029094 149.727866 
L 701.09636 149.678923 
L 702.291668 149.661403 
L 702.7567 149.633838 
L 703.285154 149.652257 
L 704.506412 149.765344 
L 705.33576 149.79503 
L 705.776662 149.827994 
L 706.581878 149.96197 
L 707.724923 149.926663 
L 708.571719 149.888305 
L 709.148145 149.889366 
L 710.097843 149.874895 
L 711.270169 149.866504 
L 712.308445 149.930146 
L 712.882896 149.969766 
L 713.604828 149.990512 
L 714.521488 149.96402 
L 715.363974 150.01563 
L 716.229833 150.099837 
L 716.989313 150.095268 
L 717.780517 150.065523 
L 718.660965 150.045419 
L 719.652101 150.046743 
L 720.381587 150.067175 
L 720.987483 149.967357 
L 721.866805 149.948882 
L 722.988346 149.935851 
L 724.048967 149.92547 
L 724.852694 150.040053 
L 725.339005 150.162002 
L 726.005682 150.289965 
L 727.098166 150.498437 
L 727.758287 150.572955 
L 728.579468 150.660899 
L 729.591274 150.768707 
L 730.250896 151.020969 
L 730.955038 151.083115 
L 732.081245 151.139534 
L 732.958854 151.223466 
L 733.620844 151.296869 
L 734.625576 151.329736 
L 735.376044 151.290923 
L 736.042381 151.325465 
L 737.16771 151.313396 
L 738.21224 151.332815 
L 738.846946 151.387925 
L 739.794668 151.281851 
L 740.659174 151.185335 
L 741.440565 151.115393 
L 742.108711 151.081804 
L 742.740316 151.149355 
L 743.692951 151.198827 
L 744.789893 151.244667 
L 745.846803 151.416011 
L 746.579498 151.507926 
L 747.287164 151.637304 
L 748.164851 151.737714 
L 748.805725 151.681004 
L 749.438865 151.699808 
L 750.620339 151.71161 
L 751.592704 151.721845 
L 752.313183 151.790302 
L 753.031701 151.778428 
L 753.935353 151.727287 
L 754.629922 151.730206 
L 755.311949 151.604738 
L 756.469606 151.512079 
L 757.135317 151.344503 
L 757.962623 151.192221 
L 758.931241 151.099813 
L 759.633088 150.991391 
L 760.635193 150.816749 
L 761.541066 150.658564 
L 762.26008 150.554312 
L 763.2228 150.405737 
L 763.926924 150.283966 
L 764.535338 149.990612 
L 765.446153 149.957038 
L 766.464125 149.810399 
L 767.390564 149.772428 
L 768.290706 149.592115 
L 768.912812 149.479803 
L 769.434151 149.430363 
L 770.267052 149.389535 
L 771.362863 149.368686 
L 772.570022 149.35809 
L 773.255993 149.440266 
L 773.763097 149.603711 
L 774.550714 149.686159 
L 775.349974 149.721095 
L 776.438039 149.885528 
L 777.313282 150.046252 
L 777.839391 150.213728 
L 778.97544 150.430828 
L 779.743769 150.615786 
L 780.551571 150.811344 
L 781.410782 150.873858 
L 782.176021 150.942257 
L 783.209343 151.115043 
L 784.083367 151.282097 
L 784.692696 151.456564 
L 785.317999 151.544424 
L 786.44512 151.526187 
L 787.432168 151.511372 
L 788.272338 151.538165 
L 789.143221 151.509925 
L 790.007335 151.48912 
L 790.966895 151.552773 
L 791.817454 151.588023 
L 792.512736 151.536154 
L 793.211554 151.44374 
L 794.034216 151.489327 
L 794.714084 151.567142 
L 795.421019 151.614006 
L 796.269458 151.756902 
L 797.135495 151.929614 
L 798.027682 152.060195 
L 799.108204 152.212571 
L 800.23235 152.241137 
L 800.849318 152.353051 
L 801.609461 152.348542 
L 802.632361 152.371223 
L 803.323273 152.364815 
L 804.115617 152.376232 
L 804.881958 152.408337 
L 805.576492 152.41079 
L 806.352835 152.230646 
L 807.356313 152.111558 
L 808.460533 151.854883 
L 809.382436 151.804204 
L 810.225437 151.761709 
L 810.765605 151.322446 
L 811.466439 150.836302 
L 812.425447 150.365915 
L 813.199408 149.747179 
L 814.102033 149.576483 
L 815.217713 149.180707 
L 816.063163 148.872216 
L 816.661173 148.519407 
L 817.354487 148.243164 
L 818.321777 148.006805 
L 819.180088 147.816327 
L 820.034233 147.595486 
L 820.716766 147.437906 
L 821.283272 147.182436 
L 822.221942 146.842039 
L 823.300618 146.665811 
L 824.072728 146.459667 
L 824.954776 146.213362 
L 825.979249 146.028816 
L 826.627235 145.879425 
L 827.328828 145.605373 
L 828.148992 145.375057 
L 829.278751 145.21789 
L 830.288839 144.964875 
L 830.941416 144.785071 
L 831.820799 144.711336 
L 832.759627 144.579609 
L 833.518592 144.410213 
L 834.092423 144.291883 
L 834.962118 144.160323 
L 835.99054 143.869756 
L 836.672801 143.599481 
L 837.481487 143.372351 
L 838.193234 143.130749 
L 839.17086 143.000658 
L 840.099309 142.896008 
L 840.735276 142.824349 
L 841.685665 142.617085 
L 842.671764 142.470806 
L 843.556886 142.36604 
L 844.430838 142.23626 
L 845.342604 142.143349 
L 845.906618 142.076776 
L 846.61613 141.942034 
L 847.377649 141.849715 
L 848.152181 141.842209 
L 849.03848 141.789661 
L 849.918024 141.725615 
L 851.021275 141.636696 
L 851.709204 141.401304 
L 852.407173 141.318678 
L 853.389789 141.182853 
L 854.042513 141.072388 
L 854.952033 140.922925 
L 856.19646 140.845502 
L 856.9983 140.741811 
L 857.774456 140.711457 
L 858.50524 140.678582 
L 859.389131 140.730995 
L 860.191882 140.722761 
L 860.770179 140.751166 
L 861.823105 140.883961 
L 862.81846 141.078409 
L 863.600919 141.386793 
L 864.340324 141.659545 
L 865.091718 141.815619 
L 866.047006 142.087573 
L 867.126491 142.525411 
L 867.737383 142.992787 
L 868.584276 143.33407 
L 869.428052 143.676675 
L 869.984402 144.044991 
L 870.894429 144.820272 
L 871.597168 145.54345 
L 872.345193 146.138302 
L 873.369502 146.488147 
L 874.383712 147.292832 
L 875.320233 147.818533 
L 876.180567 148.258533 
L 876.984874 148.883674 
L 877.748448 149.446165 
L 878.725189 149.8556 
L 879.70534 150.100279 
L 880.336015 150.281946 
L 881.011271 150.837326 
L 881.703823 150.651529 
L 882.410256 150.49532 
L 883.516163 150.349688 
L 884.345527 150.519596 
L 884.946078 150.919692 
L 886.065816 151.756713 
L 886.877643 152.707109 
L 887.418377 152.775099 
L 888.607304 152.748361 
L 889.413263 151.708043 
L 890.188606 150.799849 
L 890.941305 150.443623 
L 890.941305 143.465708 
L 890.941305 143.465708 
L 890.188606 143.25015 
L 889.413263 143.041705 
L 888.607304 143.224468 
L 887.418377 143.068125 
L 886.877643 142.825915 
L 886.065816 142.400452 
L 884.946078 142.05171 
L 884.345527 141.643549 
L 883.516163 141.617251 
L 882.410256 141.801451 
L 881.703823 141.944879 
L 881.011271 142.021956 
L 880.336015 141.951449 
L 879.70534 141.968255 
L 878.725189 141.942453 
L 877.748448 141.858733 
L 876.984874 141.698037 
L 876.180567 141.594112 
L 875.320233 141.382287 
L 874.383712 141.27558 
L 873.369502 141.198563 
L 872.345193 141.065245 
L 871.597168 140.949301 
L 870.894429 140.536087 
L 869.984402 140.384259 
L 869.428052 140.272889 
L 868.584276 140.16924 
L 867.737383 140.009633 
L 867.126491 139.757362 
L 866.047006 139.397341 
L 865.091718 138.948859 
L 864.340324 138.471189 
L 863.600919 137.783999 
L 862.81846 137.245521 
L 861.823105 136.862008 
L 860.770179 136.473578 
L 860.191882 136.239633 
L 859.389131 136.312545 
L 858.50524 136.248651 
L 857.774456 136.220333 
L 856.9983 136.161075 
L 856.19646 136.193311 
L 854.952033 136.355712 
L 854.042513 136.507611 
L 853.389789 136.654159 
L 852.407173 136.892243 
L 851.709204 137.126819 
L 851.021275 137.328684 
L 849.918024 137.441333 
L 849.03848 137.55055 
L 848.152181 137.71121 
L 847.377649 137.543963 
L 846.61613 137.601993 
L 845.906618 137.695806 
L 845.342604 137.712613 
L 844.430838 137.721948 
L 843.556886 137.769055 
L 842.671764 137.806476 
L 841.685665 137.902533 
L 840.735276 137.951518 
L 840.099309 137.819223 
L 839.17086 138.213379 
L 838.193234 138.40328 
L 837.481487 138.71242 
L 836.672801 138.937569 
L 835.99054 139.164093 
L 834.962118 139.444964 
L 834.092423 139.567899 
L 833.518592 139.719119 
L 832.759627 140.012004 
L 831.820799 140.259686 
L 830.941416 140.645072 
L 830.288839 141.082281 
L 829.278751 141.555395 
L 828.148992 141.803363 
L 827.328828 142.167013 
L 826.627235 142.601948 
L 825.979249 142.8663 
L 824.954776 143.057536 
L 824.072728 143.337943 
L 823.300618 143.542522 
L 822.221942 143.778891 
L 821.283272 144.082748 
L 820.716766 144.328924 
L 820.034233 144.48808 
L 819.180088 144.625719 
L 818.321777 144.826424 
L 817.354487 145.008921 
L 816.661173 145.161565 
L 816.063163 145.286824 
L 815.217713 145.441115 
L 814.102033 145.642951 
L 813.199408 145.757308 
L 812.425447 145.962938 
L 811.466439 146.066921 
L 810.765605 146.214713 
L 810.225437 146.454008 
L 809.382436 146.558829 
L 808.460533 146.660305 
L 807.356313 146.805269 
L 806.352835 146.860367 
L 805.576492 147.029996 
L 804.881958 147.09064 
L 804.115617 147.06624 
L 803.323273 147.086369 
L 802.632361 147.050714 
L 801.609461 147.116606 
L 800.849318 147.103083 
L 800.23235 147.109316 
L 799.108204 147.10078 
L 798.027682 147.086699 
L 797.135495 147.092188 
L 796.269458 147.013622 
L 795.421019 146.999495 
L 794.714084 146.935346 
L 794.034216 146.904603 
L 793.211554 146.909169 
L 792.512736 146.933451 
L 791.817454 146.957007 
L 790.966895 146.98194 
L 790.007335 147.00206 
L 789.143221 146.999147 
L 788.272338 147.025304 
L 787.432168 147.062766 
L 786.44512 147.122332 
L 785.317999 147.17797 
L 784.692696 147.176901 
L 784.083367 147.18745 
L 783.209343 147.212341 
L 782.176021 147.107474 
L 781.410782 147.140602 
L 780.551571 147.061915 
L 779.743769 147.013883 
L 778.97544 146.950279 
L 777.839391 146.966637 
L 777.313282 146.923857 
L 776.438039 146.915303 
L 775.349974 146.83566 
L 774.550714 146.761999 
L 773.763097 146.728689 
L 773.255993 146.689994 
L 772.570022 146.713491 
L 771.362863 146.680192 
L 770.267052 146.636954 
L 769.434151 146.620481 
L 768.912812 146.675769 
L 768.290706 146.807413 
L 767.390564 146.867267 
L 766.464125 146.969971 
L 765.446153 147.112648 
L 764.535338 147.198074 
L 763.926924 147.341524 
L 763.2228 147.414837 
L 762.26008 147.46901 
L 761.541066 147.623904 
L 760.635193 147.698415 
L 759.633088 147.796305 
L 758.931241 147.873397 
L 757.962623 147.91268 
L 757.135317 148.074704 
L 756.469606 148.154707 
L 755.311949 148.266505 
L 754.629922 148.250605 
L 753.935353 148.290357 
L 753.031701 148.297761 
L 752.313183 148.302325 
L 751.592704 148.267734 
L 750.620339 148.241838 
L 749.438865 148.225492 
L 748.805725 148.192868 
L 748.164851 148.137546 
L 747.287164 148.09424 
L 746.579498 147.993755 
L 745.846803 147.862919 
L 744.789893 147.824923 
L 743.692951 147.775689 
L 742.740316 147.700659 
L 742.108711 147.696444 
L 741.440565 147.775574 
L 740.659174 147.768915 
L 739.794668 147.835463 
L 738.846946 147.863879 
L 738.21224 147.845975 
L 737.16771 147.859998 
L 736.042381 147.868679 
L 735.376044 147.820944 
L 734.625576 147.853171 
L 733.620844 147.811629 
L 732.958854 147.77912 
L 732.081245 147.727798 
L 730.955038 147.713921 
L 730.250896 147.707261 
L 729.591274 147.626568 
L 728.579468 147.618902 
L 727.758287 147.565986 
L 727.098166 147.518156 
L 726.005682 147.426454 
L 725.339005 147.400363 
L 724.852694 147.405944 
L 724.048967 147.425404 
L 722.988346 147.423718 
L 721.866805 147.43367 
L 720.987483 147.462336 
L 720.381587 147.468266 
L 719.652101 147.513478 
L 718.660965 147.558095 
L 717.780517 147.60451 
L 716.989313 147.591296 
L 716.229833 147.593873 
L 715.363974 147.581489 
L 714.521488 147.602962 
L 713.604828 147.680298 
L 712.882896 147.650902 
L 712.308445 147.587371 
L 711.270169 147.557609 
L 710.097843 147.584798 
L 709.148145 147.597082 
L 708.571719 147.653602 
L 707.724923 147.677709 
L 706.581878 147.697043 
L 705.776662 147.718729 
L 705.33576 147.745772 
L 704.506412 147.731449 
L 703.285154 147.729559 
L 702.7567 147.768447 
L 702.291668 147.772632 
L 701.09636 147.805903 
L 700.029094 147.852226 
L 699.334304 147.882424 
L 698.359463 147.89678 
L 697.597947 147.880795 
L 696.957641 147.889871 
L 696.069618 147.902677 
L 695.173268 147.950731 
L 694.351743 147.973356 
L 693.656845 148.009425 
L 692.901203 148.058872 
L 691.839762 148.072826 
L 691.134679 148.098213 
L 690.218827 148.134194 
L 689.173302 148.137972 
L 688.584866 148.174365 
L 687.637019 148.197256 
L 686.898932 148.206371 
L 686.081161 148.161395 
L 685.269945 148.143288 
L 684.497328 148.103022 
L 683.333939 148.072124 
L 682.523481 148.07686 
L 681.728869 148.000459 
L 681.074673 147.968079 
L 680.446544 147.881408 
L 679.262955 147.839114 
L 678.373638 147.793507 
L 677.686235 147.732603 
L 676.711637 147.649584 
L 675.899438 147.509972 
L 675.053927 147.481107 
L 674.167684 147.555392 
L 673.517344 147.57483 
L 672.793499 147.562755 
L 672.017535 147.568511 
L 670.944445 147.541367 
L 669.950571 147.515778 
L 669.418824 147.471049 
L 668.618239 147.492289 
L 667.613723 147.495727 
L 666.964554 147.552248 
L 666.258739 147.547568 
L 665.242554 147.550756 
L 664.453524 147.510033 
L 663.598336 147.502192 
L 662.685871 147.445935 
L 661.854643 147.402666 
L 661.076038 147.368608 
L 660.083196 147.36786 
L 658.928125 147.348458 
L 658.154262 147.344884 
L 657.701988 147.354522 
L 656.80097 147.361071 
L 655.92103 147.383453 
L 655.045996 147.448985 
L 654.07144 147.588022 
L 653.595242 147.628771 
L 652.935548 147.665465 
L 651.802792 147.681718 
L 650.833052 147.696724 
L 650.051184 147.678738 
L 648.980666 147.613513 
L 648.069785 147.478258 
L 647.261256 147.472529 
L 646.40331 147.476869 
L 645.793384 147.445568 
L 644.922653 147.437339 
L 644.180499 147.420196 
L 643.348069 147.310579 
L 642.516658 147.276945 
L 641.816184 147.226568 
L 640.67031 147.178133 
L 640.020598 147.11236 
L 639.277339 147.104707 
L 638.183996 147.075671 
L 637.193056 147.085444 
L 636.56944 147.147153 
L 636.051148 147.158668 
L 635.145257 147.244474 
L 634.225368 147.295137 
L 633.535278 147.35887 
L 632.687727 147.352244 
L 631.863934 147.387911 
L 630.925173 147.451585 
L 629.747408 147.481767 
L 629.083757 147.534869 
L 628.272894 147.498509 
L 627.406169 147.511075 
L 626.49683 147.471564 
L 625.436379 147.469404 
L 624.722809 147.359373 
L 623.883055 147.25285 
L 623.034404 147.17196 
L 622.482271 147.141963 
L 621.544923 147.000009 
L 620.724353 146.891865 
L 620.122398 146.845933 
L 618.924431 146.805666 
L 617.873849 146.700005 
L 617.245128 146.634673 
L 616.479437 146.484186 
L 615.552566 146.383221 
L 614.896772 146.291058 
L 614.327513 146.245286 
L 613.30566 146.15476 
L 612.301297 146.018392 
L 611.431044 145.947269 
L 610.481022 145.882007 
L 609.76512 145.862218 
L 608.906257 145.880743 
L 608.065671 145.99479 
L 607.187738 146.068392 
L 606.406178 146.117664 
L 605.665391 146.118706 
L 604.839653 146.195596 
L 604.247821 146.222745 
L 603.534707 146.223528 
L 602.551789 146.093836 
L 601.515617 146.028291 
L 600.544598 146.036763 
L 599.886828 146.032388 
L 599.223872 146.043972 
L 598.253193 146.12512 
L 597.294423 146.22555 
L 596.224117 146.420114 
L 595.340929 146.551655 
L 594.632504 146.581773 
L 593.773335 146.694283 
L 592.966933 146.650888 
L 592.405811 146.596118 
L 591.424978 146.56098 
L 590.319941 146.562855 
L 589.714984 146.554153 
L 588.948199 146.599746 
L 588.021358 146.671789 
L 587.330054 146.703249 
L 586.593381 146.689775 
L 585.484477 146.75672 
L 584.481105 146.74458 
L 583.903278 146.709369 
L 583.3636 146.718353 
L 582.412417 146.739762 
L 581.454186 146.826309 
L 580.837282 146.88169 
L 579.823516 146.947612 
L 578.854193 146.919515 
L 578.132928 146.926533 
L 577.303893 146.917542 
L 576.570173 146.908542 
L 575.496565 146.852028 
L 574.627327 146.784359 
L 573.953064 146.800085 
L 572.964885 146.786618 
L 572.201882 146.758554 
L 571.382269 146.701572 
L 570.530376 146.661913 
L 569.603373 146.572374 
L 568.622409 146.592706 
L 567.763 146.593406 
L 566.980389 146.543866 
L 566.208338 146.557182 
L 565.528593 146.585118 
L 564.615474 146.559437 
L 563.70505 146.553251 
L 562.953236 146.545075 
L 561.909201 146.556037 
L 561.251488 146.519151 
L 560.586993 146.53587 
L 559.704243 146.545503 
L 558.742726 146.791275 
L 557.684311 146.841144 
L 556.749357 146.907346 
L 556.116103 147.005633 
L 555.382427 147.07173 
L 554.69903 147.123308 
L 554.018449 147.262225 
L 552.944342 147.324572 
L 551.870874 147.468296 
L 550.936496 147.603862 
L 550.288776 147.647977 
L 549.737285 147.640936 
L 548.721617 147.643054 
L 547.789743 147.705179 
L 547.049399 147.70972 
L 546.352581 147.575809 
L 545.674892 147.595228 
L 544.668788 147.613099 
L 543.717363 147.587196 
L 542.964179 147.604188 
L 542.26933 147.562054 
L 541.345306 147.559966 
L 540.5279 147.483249 
L 539.582793 147.413134 
L 538.758604 147.338033 
L 538.091008 147.197421 
L 536.898299 147.079039 
L 536.04066 147.032525 
L 535.541016 147.010997 
L 534.697535 146.947094 
L 533.888271 146.898961 
L 533.123555 146.782628 
L 532.209458 146.698686 
L 531.471248 146.568446 
L 530.557049 146.40715 
L 529.374209 146.227314 
L 528.389878 146.025387 
L 527.804127 145.840809 
L 527.073046 145.726335 
L 526.32006 145.607603 
L 525.564753 145.429059 
L 524.520754 145.335464 
L 523.515871 145.261232 
L 522.566686 145.179904 
L 521.662999 144.988959 
L 520.813129 144.91377 
L 519.99972 144.848135 
L 519.407224 144.761333 
L 518.794176 144.658116 
L 517.709151 144.531769 
L 516.882395 144.419156 
L 516.361119 144.330505 
L 515.405567 144.2605 
L 514.478784 144.215953 
L 513.694885 144.127885 
L 512.61343 144.026906 
L 511.585976 143.969467 
L 510.718543 143.9312 
L 510.024027 143.863642 
L 509.226674 143.778485 
L 508.439283 143.610701 
L 507.576805 143.601583 
L 506.674199 143.588031 
L 506.231584 143.529982 
L 505.378114 143.469994 
L 504.180687 143.383964 
L 503.281482 143.315374 
L 502.694832 143.322294 
L 501.801313 143.344211 
L 500.929461 143.326245 
L 500.240037 143.280145 
L 499.300348 143.138586 
L 498.361695 143.044012 
L 497.687306 142.962586 
L 496.818448 142.852771 
L 495.905239 142.699906 
L 495.048738 142.619245 
L 494.220523 142.577643 
L 493.730065 142.515439 
L 492.783412 142.469027 
L 491.762601 142.411153 
L 491.08033 142.423856 
L 490.395747 142.364031 
L 489.568228 142.26413 
L 488.780642 142.060576 
L 487.959191 141.889845 
L 487.139831 141.760314 
L 486.21567 141.584953 
L 485.15073 141.431169 
L 484.402025 141.159576 
L 483.536421 140.955208 
L 482.483687 140.722329 
L 481.866692 140.649947 
L 481.298787 140.497997 
L 480.310871 140.474197 
L 479.340096 140.369267 
L 478.605848 140.372785 
L 477.795297 140.347177 
L 476.93938 140.253029 
L 476.142161 140.181629 
L 475.137171 140.08966 
L 474.387707 139.957422 
L 473.694864 139.819053 
L 472.674028 139.778823 
L 471.810922 139.776105 
L 470.945054 139.749961 
L 470.009134 139.620592 
L 469.343731 139.579051 
L 468.59318 139.64681 
L 467.767176 139.576096 
L 467.084942 139.566308 
L 466.263339 139.711104 
L 465.060408 139.829672 
L 464.044767 139.989393 
L 463.538986 140.138792 
L 462.56191 140.272806 
L 461.630181 140.424876 
L 460.86013 140.519908 
L 460.182667 140.660212 
L 459.406557 140.718606 
L 458.551275 140.835817 
L 457.735583 140.980395 
L 456.524834 141.042532 
L 455.581001 141.098197 
L 454.737199 141.200241 
L 453.94688 141.222709 
L 453.256268 141.316392 
L 452.258113 141.41798 
L 451.449857 141.432798 
L 450.896903 141.511502 
L 450.039296 141.524054 
L 449.047224 141.677691 
L 448.431225 141.739644 
L 447.754326 141.931557 
L 446.878158 141.982729 
L 446.047454 142.019561 
L 444.975898 142.036936 
L 444.238681 142.02546 
L 443.414495 142.08968 
L 442.22043 142.049578 
L 441.584201 142.049258 
L 440.725423 141.975062 
L 439.574661 141.87861 
L 438.780868 141.818789 
L 437.926555 141.761235 
L 437.172233 141.613789 
L 436.389235 141.484467 
L 435.799958 141.278391 
L 435.030033 141.359147 
L 434.157263 141.503585 
L 433.465595 141.462256 
L 432.500187 141.449465 
L 431.675018 141.531113 
L 430.99513 141.548491 
L 429.940659 141.806234 
L 428.914189 141.887969 
L 428.282539 142.143026 
L 427.308699 142.36373 
L 426.443155 142.466568 
L 425.936366 142.678021 
L 425.246121 142.867396 
L 424.0301 143.048008 
L 423.047946 143.318681 
L 422.362341 143.580606 
L 421.564082 143.782027 
L 420.617057 143.979496 
L 419.683556 144.092583 
L 419.188752 144.220223 
L 418.492581 144.345046 
L 417.438997 144.528089 
L 416.463366 144.675975 
L 415.479184 144.914887 
L 414.682204 145.089376 
L 414.132271 145.182522 
L 413.185145 145.340566 
L 412.069115 145.441227 
L 411.502842 145.522911 
L 410.787745 145.586314 
L 409.643223 145.665652 
L 408.653999 145.766191 
L 407.985154 145.858516 
L 407.252307 145.930979 
L 406.191391 145.987379 
L 405.372435 146.027055 
L 404.668457 146.04454 
L 404.006449 145.980714 
L 403.253816 145.999513 
L 402.389008 146.018392 
L 401.489307 146.062595 
L 400.483918 146.059405 
L 399.607924 146.033711 
L 399.023401 146.004744 
L 398.239854 145.966934 
L 397.32685 145.959211 
L 396.49253 145.949699 
L 395.419688 145.919295 
L 394.649206 145.868374 
L 393.794252 145.772777 
L 392.885781 145.76472 
L 392.04931 145.848191 
L 391.239917 145.898662 
L 390.70671 145.934538 
L 389.881873 145.935941 
L 388.745031 145.95615 
L 388.054071 145.977647 
L 387.432263 145.936789 
L 386.320324 145.930573 
L 385.535578 145.939287 
L 384.975861 145.958705 
L 384.118358 145.965118 
L 382.976345 145.963397 
L 382.030812 145.944118 
L 381.136137 145.935594 
L 380.453197 145.917089 
L 379.863592 145.890881 
L 378.844568 145.885713 
L 377.955937 145.879731 
L 377.06621 145.863501 
L 376.307897 145.851215 
L 375.579661 145.79117 
L 374.457865 145.734133 
L 373.810161 145.738583 
L 373.229755 145.752429 
L 372.284817 145.736442 
L 371.328112 145.748174 
L 370.4982 145.740576 
L 369.609891 145.694029 
L 368.723276 145.657416 
L 368.100575 145.63725 
L 367.39337 145.640402 
L 366.340972 145.63069 
L 365.197917 145.646617 
L 364.527815 145.674339 
L 363.64696 145.57983 
L 362.67224 145.433083 
L 362.022856 145.378376 
L 361.11794 145.378057 
L 360.198988 145.400751 
L 359.390683 145.348381 
L 358.533011 145.313974 
L 357.676629 145.318147 
L 356.925613 145.320817 
L 356.347861 145.295732 
L 355.56437 145.276052 
L 354.425571 145.286704 
L 353.407711 145.207698 
L 352.84885 145.107182 
L 352.256901 145.071906 
L 351.27445 145.168296 
L 350.504737 145.194109 
L 349.573604 145.232022 
L 348.534697 145.234553 
L 347.79192 145.269827 
L 346.936462 145.321743 
L 346.090233 145.357947 
L 345.451861 145.381735 
L 344.770969 145.373746 
L 343.672747 145.394919 
L 342.551656 145.487552 
L 341.680778 145.584838 
L 340.98752 145.644763 
L 340.249963 145.669701 
L 339.592549 145.740823 
L 338.694085 145.78501 
L 337.565125 145.817189 
L 336.755288 145.894115 
L 336.028279 145.936019 
L 335.093902 145.9725 
L 334.360121 145.9787 
L 333.547092 145.979005 
L 332.791971 145.958885 
L 331.949475 145.934306 
L 331.07321 145.935495 
L 330.349587 145.967152 
L 329.239065 145.851183 
L 328.482231 145.817807 
L 327.693728 145.920029 
L 326.693526 145.952434 
L 325.825318 146.009619 
L 325.086716 146.031988 
L 324.454507 146.0452 
L 323.6434 146.066569 
L 322.599061 146.034276 
L 321.762889 145.952471 
L 321.217239 145.940089 
L 320.549636 145.847213 
L 319.68054 145.825031 
L 318.704388 145.79504 
L 317.819357 145.74948 
L 316.76854 145.806126 
L 315.857177 145.855386 
L 315.276379 145.876591 
L 314.470675 145.903243 
L 313.58974 145.88675 
L 312.578781 145.901267 
L 311.7966 145.929971 
L 311.328566 145.906934 
L 310.482664 145.916427 
L 309.608172 145.843376 
L 308.893701 145.788407 
L 307.712559 145.659519 
L 306.522345 145.56466 
L 306.080328 145.486252 
L 305.491743 145.441039 
L 304.239163 145.413596 
L 303.292861 145.379161 
L 302.655648 145.293387 
L 301.951014 145.250688 
L 301.056764 145.18124 
L 300.280999 145.113909 
L 299.606055 145.09287 
L 298.390207 144.99801 
L 297.435204 144.832867 
L 296.817559 144.737948 
L 296.016046 144.647476 
L 295.233176 144.597785 
L 294.554764 144.506205 
L 293.446198 144.296239 
L 292.365677 144.184957 
L 291.755154 144.019861 
L 290.930834 143.86242 
L 290.094474 143.701423 
L 289.3183 143.570007 
L 288.483322 143.439705 
L 287.692539 143.338064 
L 286.777265 143.171326 
L 285.82544 143.141317 
L 284.844805 143.104667 
L 284.109598 142.926974 
L 283.301313 142.838284 
L 282.325725 142.725291 
L 281.640755 142.600837 
L 280.992173 142.528482 
L 280.199084 142.469588 
L 279.256168 142.402013 
L 278.374732 142.363314 
L 277.721871 142.366523 
L 276.728434 142.506465 
L 275.839552 142.560114 
L 275.338318 142.519143 
L 274.394595 142.449635 
L 273.376267 142.291336 
L 272.589105 142.182256 
L 271.667177 142.338864 
L 270.734698 142.464385 
L 270.063818 142.535764 
L 269.124883 142.52488 
L 268.109522 142.561737 
L 267.344418 142.540311 
L 266.560255 142.609577 
L 265.987787 142.624958 
L 265.398425 142.618506 
L 264.550821 142.6914 
L 263.679178 142.806077 
L 262.833298 142.956325 
L 262.05623 143.133236 
L 261.07898 143.205709 
L 260.106541 143.261644 
L 259.30853 143.283772 
L 258.39815 143.342488 
L 257.314264 143.378755 
L 256.593937 143.390434 
L 256.084923 143.478205 
L 255.305779 143.56901 
L 254.37827 143.597366 
L 253.354586 143.607994 
L 252.394736 143.566738 
L 251.514524 143.520581 
L 250.803097 143.488024 
L 250.22973 143.50358 
L 249.394632 143.538807 
L 248.351196 143.580421 
L 247.481458 143.561165 
L 246.820292 143.591224 
L 245.970505 143.628284 
L 245.130702 143.709161 
L 244.144117 143.729194 
L 243.286883 143.754468 
L 242.468194 143.785195 
L 241.459377 143.763367 
L 240.581225 143.773726 
L 239.833769 143.826504 
L 239.027994 143.909015 
L 238.1573 143.928227 
L 237.562798 143.94816 
L 236.788022 144.093215 
L 235.651036 144.089533 
L 234.566209 144.081184 
L 233.75756 144.059243 
L 232.926852 143.958143 
L 232.390727 143.985138 
L 231.71948 143.951524 
L 230.935007 143.865597 
L 230.176721 143.738874 
L 229.142603 143.623216 
L 228.183695 143.518177 
L 227.230284 143.373818 
L 226.603298 143.349351 
L 225.988881 143.257737 
L 224.999904 143.187136 
L 224.053433 143.166049 
L 222.971569 143.050284 
L 221.977818 142.988648 
L 221.313949 142.87607 
L 220.588263 142.768343 
L 219.82467 142.65066 
L 218.833074 142.596448 
L 218.153568 142.554389 
L 217.335154 142.370523 
L 216.130852 142.166663 
L 215.335119 142.031562 
L 214.860917 141.861596 
L 214.029187 141.72301 
L 212.966577 141.612755 
L 212.4485 141.462619 
L 211.623692 141.377504 
L 210.763054 141.324175 
L 209.900446 141.247709 
L 208.846538 141.207071 
L 208.242044 141.123098 
L 207.269291 141.090121 
L 206.305492 141.047787 
L 205.694036 141.06023 
L 204.809365 141.087429 
L 203.830451 141.149025 
L 202.813366 141.179432 
L 202.0955 141.162131 
L 201.437107 141.075857 
L 200.788727 141.04709 
L 199.734485 140.957232 
L 198.899052 140.891068 
L 198.082641 140.828938 
L 197.190687 140.705339 
L 196.707784 140.627913 
L 195.677212 140.48246 
L 194.660727 140.402714 
L 193.680657 140.223512 
L 192.952365 140.015432 
L 192.341631 139.843783 
L 191.393732 139.752586 
L 190.44742 139.593107 
L 189.449773 139.447864 
L 188.874033 139.246495 
L 188.28559 138.965675 
L 187.068463 138.630647 
L 186.109279 138.339218 
L 185.49292 138.10912 
L 184.608529 137.837648 
L 183.862497 137.488207 
L 183.293457 137.179916 
L 182.292341 136.908394 
L 181.177499 136.500384 
L 180.334345 136.113698 
L 179.77478 135.692272 
L 178.936931 135.365468 
L 178.133154 134.974276 
L 177.164379 134.565054 
L 176.161282 134.070301 
L 175.450188 133.846459 
L 174.556242 133.60978 
L 173.629591 133.353812 
L 172.907295 133.278215 
L 172.271788 133.070399 
L 171.336846 132.868143 
L 170.454234 132.635221 
L 169.761044 132.294786 
L 168.710334 131.985501 
L 167.674552 131.734787 
L 167.138766 131.548586 
L 166.341681 131.281327 
L 165.521803 131.069245 
L 164.654203 130.703213 
L 163.781464 130.384323 
L 162.996341 130.082354 
L 162.11776 129.918754 
L 161.384666 129.729861 
L 160.33041 129.599666 
L 159.361103 129.715032 
L 158.795719 129.715236 
L 158.071634 129.626137 
L 157.320726 129.613931 
L 156.601078 129.622538 
L 155.620877 129.560174 
L 154.559001 129.576387 
L 153.701995 129.618677 
L 152.830514 129.636598 
L 152.051934 129.595432 
L 151.209674 129.445801 
L 150.291093 129.252421 
L 149.655081 129.048244 
L 148.991307 128.826587 
L 148.131929 128.630236 
L 147.30099 128.269284 
L 146.448053 128.128569 
L 145.295321 127.91803 
L 144.432873 127.541931 
L 143.599914 127.191653 
L 142.812736 126.849997 
L 142.09899 126.117367 
L 141.027909 126.070729 
L 140.370434 125.807659 
L 139.598582 125.523282 
L 138.583164 125.328989 
L 137.694947 125.257946 
L 136.796424 125.262755 
L 136.011595 125.519385 
L 135.127255 125.777736 
L 134.416137 126.160262 
L 133.775964 126.563796 
L 132.89752 127.142595 
L 131.852881 127.642583 
L 131.061607 127.898527 
L 130.162222 128.15457 
L 129.023006 128.29175 
L 128.202144 128.37988 
L 127.611237 128.577718 
L 126.922697 128.729837 
L 125.914359 128.761687 
L 124.928522 128.8786 
L 124.112685 128.771263 
L 123.472076 128.840253 
L 122.622473 128.895517 
L 121.648055 129.07411 
L 120.806077 129.463885 
L 119.976198 129.801218 
L 119.368801 130.088952 
L 118.452709 130.16794 
L 117.487921 130.216711 
L 116.987347 130.171505 
L 116.173442 130.127777 
L 115.386643 130.20794 
L 114.413477 130.265142 
L 113.343821 130.364999 
L 112.852472 130.451304 
L 112.085923 130.472277 
L 110.885588 130.517593 
L 109.849544 130.742135 
L 109.110211 130.950168 
L 108.371917 131.083051 
L 107.657325 131.529751 
L 106.820304 131.867684 
L 105.815149 132.078602 
L 105.095602 132.702322 
L 104.44015 132.874908 
L 103.593739 133.12804 
L 102.652447 133.563455 
L 101.798808 133.835059 
L 101.141945 134.119387 
L 100.377277 134.338984 
L 99.227168 134.488765 
L 98.137657 134.666327 
L 97.470937 134.889283 
L 96.63523 135.130033 
L 95.910699 135.319111 
L 95.190211 135.28838 
L 94.275831 135.382319 
L 93.682337 135.423689 
L 92.856916 135.43948 
L 91.99894 135.350646 
L 91.15269 135.363832 
L 89.97886 135.441192 
L 89.176428 135.362855 
L 88.38499 135.407803 
L 87.669711 135.345157 
L 86.857261 135.274629 
L 85.957753 135.195136 
L 85.169736 135.176935 
L 84.169959 135.180263 
L 83.391221 135.249042 
L 82.501176 135.046845 
L 81.462164 134.887072 
L 80.584941 134.680141 
L 79.745211 134.501455 
L 78.943772 134.555776 
L 78.432083 134.648596 
L 77.850659 134.763945 
L 76.753649 134.860336 
L 75.740212 134.87774 
L 75.009027 134.829824 
L 74.205723 134.6516 
L 73.509771 134.810647 
L 72.537607 135.02311 
L 71.653535 134.99018 
L 71.116275 134.858705 
L 70.235251 134.625839 
L 68.995768 134.338062 
L 68.293786 134.143568 
L 67.461662 133.943443 
L 66.326173 133.494224 
L 65.562992 133.423944 
L 64.886396 133.110497 
L 64.099918 132.775501 
L 63.028087 132.433263 
L 62.336345 132.262925 
L 61.771143 131.186291 
L 60.901924 130.332191 
L 60.027029 129.392542 
L 59.310506 127.555145 
L 58.592877 125.436294 
L 57.722333 124.019903 
L 56.908678 121.345858 
L 55.870162 121.732462 
L 54.73824 121.088875 
z
" clip-path="url(#p21b9b33618)" style="fill: #808080; fill-opacity: 0.5; stroke: #808080; stroke-opacity: 0.5; stroke-width: 0.5"/>
   </g>
   <g id="line2d_23">
    <path d="M 54.73824 127.267591 
L 55.870162 127.837956 
L 56.908678 127.607322 
L 57.722333 129.249121 
L 58.592877 130.164737 
L 60.027029 132.832367 
L 60.901924 133.858502 
L 61.771143 134.689662 
L 62.336345 135.39053 
L 71.653535 137.570149 
L 72.537607 137.600745 
L 74.205723 137.153329 
L 76.753649 137.074808 
L 78.432083 136.890358 
L 78.943772 136.766601 
L 79.745211 136.712837 
L 82.501176 137.260039 
L 83.391221 137.442958 
L 85.169736 137.283854 
L 95.910699 136.947692 
L 99.227168 136.082883 
L 101.141945 135.71045 
L 102.652447 135.268497 
L 104.44015 134.813876 
L 105.095602 134.689641 
L 105.815149 134.263585 
L 106.820304 134.120654 
L 109.110211 133.467862 
L 110.885588 133.135934 
L 113.343821 132.92663 
L 117.487921 132.660548 
L 119.368801 132.518507 
L 121.648055 131.852968 
L 124.112685 131.599076 
L 124.928522 131.638234 
L 127.611237 131.414724 
L 129.023006 131.201321 
L 131.061607 130.937995 
L 131.852881 130.76842 
L 136.011595 129.407238 
L 136.796424 129.270256 
L 139.598582 129.467483 
L 141.027909 129.848749 
L 142.09899 129.929124 
L 142.812736 130.379065 
L 145.295321 131.08081 
L 148.131929 131.582985 
L 152.051934 132.32012 
L 154.559001 132.33983 
L 158.071634 132.462906 
L 159.361103 132.556723 
L 160.33041 132.512503 
L 162.996341 132.969072 
L 165.521803 133.75378 
L 169.761044 134.669507 
L 170.454234 134.894225 
L 175.450188 135.851088 
L 178.133154 136.617571 
L 180.334345 137.45713 
L 181.177499 137.817348 
L 183.293457 138.385749 
L 184.608529 138.990118 
L 188.28559 140.164508 
L 189.449773 140.829996 
L 195.677212 142.067815 
L 199.734485 142.673916 
L 202.813366 142.779087 
L 206.305492 142.63857 
L 207.269291 142.684409 
L 208.846538 142.668045 
L 212.966577 142.709602 
L 214.029187 142.85498 
L 215.335119 143.403481 
L 218.153568 144.012608 
L 221.313949 144.309643 
L 221.977818 144.465528 
L 227.230284 144.884745 
L 229.142603 145.154294 
L 232.926852 145.536556 
L 234.566209 145.634237 
L 236.788022 145.661156 
L 238.1573 145.471514 
L 239.833769 145.348489 
L 248.351196 144.857599 
L 251.514524 144.794671 
L 254.37827 144.851906 
L 263.679178 144.153982 
L 265.398425 144.048507 
L 267.344418 144.010272 
L 269.124883 143.911017 
L 270.734698 143.862313 
L 273.376267 143.71824 
L 274.394595 143.894887 
L 276.728434 143.948126 
L 279.256168 143.849131 
L 284.109598 144.39243 
L 284.844805 144.563861 
L 288.483322 145.000205 
L 290.930834 145.510383 
L 295.233176 146.336177 
L 301.951014 147.081429 
L 307.712559 147.405887 
L 310.482664 147.8602 
L 313.58974 147.685588 
L 319.68054 147.534532 
L 322.599061 147.691131 
L 325.825318 147.493256 
L 329.239065 147.226147 
L 331.07321 147.180542 
L 338.694085 146.924017 
L 341.680778 146.657269 
L 343.672747 146.473268 
L 347.79192 146.356231 
L 352.256901 146.23314 
L 356.925613 146.394466 
L 359.390683 146.393341 
L 365.197917 146.763462 
L 368.100575 146.74867 
L 373.229755 146.924612 
L 374.457865 146.939321 
L 378.844568 147.079428 
L 381.136137 147.130773 
L 391.239917 147.054425 
L 393.794252 146.91736 
L 396.49253 147.040706 
L 404.668457 147.126662 
L 407.985154 146.744029 
L 408.653999 146.615686 
L 411.502842 146.358554 
L 415.479184 145.635819 
L 417.438997 145.305956 
L 419.188752 145.009197 
L 419.683556 144.879403 
L 421.564082 144.60218 
L 428.914189 143.134631 
L 433.465595 142.82074 
L 434.157263 142.860895 
L 435.799958 142.747054 
L 436.389235 142.992657 
L 442.22043 143.362237 
L 444.975898 143.329886 
L 447.754326 143.269563 
L 450.039296 143.037811 
L 453.256268 142.910757 
L 456.524834 142.743388 
L 459.406557 142.560612 
L 462.56191 142.307441 
L 468.59318 141.892686 
L 470.009134 141.874367 
L 471.810922 141.958918 
L 473.694864 141.95037 
L 475.137171 142.132103 
L 480.310871 142.343373 
L 481.866692 142.420672 
L 484.402025 142.732394 
L 485.15073 142.952684 
L 487.139831 143.236411 
L 491.08033 143.828163 
L 493.730065 143.934025 
L 495.048738 144.043992 
L 497.687306 144.313816 
L 500.929461 144.657666 
L 509.226674 144.969984 
L 518.794176 145.711668 
L 524.520754 146.338403 
L 525.564753 146.417357 
L 529.374209 147.263103 
L 536.04066 148.115344 
L 538.758604 148.351532 
L 544.668788 148.661225 
L 550.288776 148.708482 
L 557.684311 147.740088 
L 562.953236 147.396489 
L 571.382269 147.495473 
L 573.953064 147.577977 
L 575.496565 147.631813 
L 578.854193 147.742163 
L 580.837282 147.714381 
L 583.903278 147.532589 
L 584.481105 147.673422 
L 592.405811 147.70061 
L 592.966933 147.815916 
L 594.632504 147.801159 
L 596.224117 147.706733 
L 599.223872 147.473004 
L 602.551789 147.59485 
L 604.839653 147.66294 
L 611.431044 147.379531 
L 614.896772 147.644803 
L 617.245128 147.882287 
L 618.924431 148.065028 
L 620.724353 148.207571 
L 624.722809 148.777878 
L 625.436379 148.886564 
L 628.248125 148.947042 
L 628.248125 148.947042 
" clip-path="url(#p21b9b33618)" style="fill: none; stroke: #e24a33; stroke-width: 1.5; stroke-linecap: square"/>
   </g>
   <g id="patch_3">
    <path d="M 54.096563 244.078125 
L 54.096563 22.318125 
" style="fill: none; stroke: #ffffff; stroke-linejoin: miter; stroke-linecap: square"/>
   </g>
   <g id="patch_4">
    <path d="M 612.096563 244.078125 
L 612.096563 22.318125 
" style="fill: none; stroke: #ffffff; stroke-linejoin: miter; stroke-linecap: square"/>
   </g>
   <g id="patch_5">
    <path d="M 54.096563 244.078125 
L 612.096563 244.078125 
" style="fill: none; stroke: #ffffff; stroke-linejoin: miter; stroke-linecap: square"/>
   </g>
   <g id="patch_6">
    <path d="M 54.096563 22.318125 
L 612.096563 22.318125 
" style="fill: none; stroke: #ffffff; stroke-linejoin: miter; stroke-linecap: square"/>
   </g>
   <g id="text_14">
    <!-- help others -->
    <g transform="translate(299.109375 16.318125) scale(0.12 -0.12)">
     <defs>
      <path id="DejaVuSans-70" d="M 1159 525 
L 1159 -1331 
L 581 -1331 
L 581 3500 
L 1159 3500 
L 1159 2969 
Q 1341 3281 1617 3432 
Q 1894 3584 2278 3584 
Q 2916 3584 3314 3078 
Q 3713 2572 3713 1747 
Q 3713 922 3314 415 
Q 2916 -91 2278 -91 
Q 1894 -91 1617 61 
Q 1341 213 1159 525 
z
M 3116 1747 
Q 3116 2381 2855 2742 
Q 2594 3103 2138 3103 
Q 1681 3103 1420 2742 
Q 1159 2381 1159 1747 
Q 1159 1113 1420 752 
Q 1681 391 2138 391 
Q 2594 391 2855 752 
Q 3116 1113 3116 1747 
z
" transform="scale(0.015625)"/>
      <path id="DejaVuSans-20" transform="scale(0.015625)"/>
     </defs>
     <use xlink:href="#DejaVuSans-68"/>
     <use xlink:href="#DejaVuSans-65" x="63.378906"/>
     <use xlink:href="#DejaVuSans-6c" x="124.902344"/>
     <use xlink:href="#DejaVuSans-70" x="152.685547"/>
     <use xlink:href="#DejaVuSans-20" x="216.162109"/>
     <use xlink:href="#DejaVuSans-6f" x="247.949219"/>
     <use xlink:href="#DejaVuSans-74" x="309.130859"/>
     <use xlink:href="#DejaVuSans-68" x="348.339844"/>
     <use xlink:href="#DejaVuSans-65" x="411.71875"/>
     <use xlink:href="#DejaVuSans-72" x="473.242188"/>
     <use xlink:href="#DejaVuSans-73" x="514.355469"/>
    </g>
   </g>
  </g>
 </g>
 <defs>
  <clipPath id="p21b9b33618">
   <rect x="54.096563" y="22.318125" width="558" height="221.76"/>
  </clipPath>
 </defs>
</svg>
